<svg xmlns="http://www.w3.org/2000/svg" xmlns:xlink="http://www.w3.org/1999/xlink" contentStyleType="text/css" data-diagram-type="SEQUENCE" height="660px" preserveAspectRatio="none" style="width:1345px;height:660px;background:#FFFFFF;" version="1.1" viewBox="0 0 1345 660" width="1345px" zoomAndPan="magnify"><?plantuml 1.2026.3beta6?><defs/><g><g class="participant-lifeline" data-entity-uid="part1" data-qualified-name="U" data-source-line="1" id="part1-lifeline"><g><title>Usuario</title><rect fill="#000000" fill-opacity="0.00000" height="126.5313" width="8" x="30.6021" y="81.2969"/><line style="stroke:#181818;stroke-width:0.5;stroke-dasharray:5,5;" x1="34" x2="34" y1="81.2969" y2="207.8281"/></g><line style="stroke:#181818;stroke-width:0.5;stroke-dasharray:1,4;" x1="34" x2="34" y1="207.8281" y2="248.6328"/><g><title>Usuario</title><rect fill="#000000" fill-opacity="0.00000" height="329.4609" width="8" x="30.6021" y="248.6328"/><line style="stroke:#181818;stroke-width:0.5;stroke-dasharray:5,5;" x1="34" x2="34" y1="248.6328" y2="578.0938"/></g></g><g class="participant-lifeline" data-entity-uid="part2" data-qualified-name="HL" data-source-line="2" id="part2-lifeline"><g><title>Hyperliquid L1</title><rect fill="#000000" fill-opacity="0.00000" height="126.5313" width="8" x="123.9746" y="81.2969"/><line style="stroke:#181818;stroke-width:0.5;stroke-dasharray:5,5;" x1="127.2041" x2="127.2041" y1="81.2969" y2="207.8281"/></g><line style="stroke:#181818;stroke-width:0.5;stroke-dasharray:1,4;" x1="127.2041" x2="127.2041" y1="207.8281" y2="248.6328"/><g><title>Hyperliquid L1</title><rect fill="#000000" fill-opacity="0.00000" height="329.4609" width="8" x="123.9746" y="248.6328"/><line style="stroke:#181818;stroke-width:0.5;stroke-dasharray:5,5;" x1="127.2041" x2="127.2041" y1="248.6328" y2="578.0938"/></g></g><g class="participant-lifeline" data-entity-uid="part3" data-qualified-name="VL" data-source-line="4" id="part3-lifeline"><g><title>VistaLeaderboard</title><rect fill="#000000" fill-opacity="0.00000" height="126.5313" width="8" x="376.7964" y="81.2969"/><line style="stroke:#181818;stroke-width:0.5;stroke-dasharray:5,5;" x1="379.9209" x2="379.9209" y1="81.2969" y2="207.8281"/></g><line style="stroke:#181818;stroke-width:0.5;stroke-dasharray:1,4;" x1="379.9209" x2="379.9209" y1="207.8281" y2="248.6328"/><g><title>VistaLeaderboard</title><rect fill="#000000" fill-opacity="0.00000" height="329.4609" width="8" x="376.7964" y="248.6328"/><line style="stroke:#181818;stroke-width:0.5;stroke-dasharray:5,5;" x1="379.9209" x2="379.9209" y1="248.6328" y2="578.0938"/></g></g><g class="participant-lifeline" data-entity-uid="part4" data-qualified-name="GCL" data-source-line="5" id="part4-lifeline"><g><title>GestorConsultaLeaderboard</title><rect fill="#000000" fill-opacity="0.00000" height="126.5313" width="8" x="705.0713" y="81.2969"/><line style="stroke:#181818;stroke-width:0.5;stroke-dasharray:5,5;" x1="708.6577" x2="708.6577" y1="81.2969" y2="207.8281"/></g><line style="stroke:#181818;stroke-width:0.5;stroke-dasharray:1,4;" x1="708.6577" x2="708.6577" y1="207.8281" y2="248.6328"/><g><title>GestorConsultaLeaderboard</title><rect fill="#000000" fill-opacity="0.00000" height="329.4609" width="8" x="705.0713" y="248.6328"/><line style="stroke:#181818;stroke-width:0.5;stroke-dasharray:5,5;" x1="708.6577" x2="708.6577" y1="248.6328" y2="578.0938"/></g></g><g class="participant-lifeline" data-entity-uid="part5" data-qualified-name="GCE" data-source-line="6" id="part5-lifeline"><g><title>GestorCatalogoEntidades</title><rect fill="#000000" fill-opacity="0.00000" height="126.5313" width="8" x="908.6118" y="81.2969"/><line style="stroke:#181818;stroke-width:0.5;stroke-dasharray:5,5;" x1="912.4849" x2="912.4849" y1="81.2969" y2="207.8281"/></g><line style="stroke:#181818;stroke-width:0.5;stroke-dasharray:1,4;" x1="912.4849" x2="912.4849" y1="207.8281" y2="248.6328"/><g><title>GestorCatalogoEntidades</title><rect fill="#000000" fill-opacity="0.00000" height="329.4609" width="8" x="908.6118" y="248.6328"/><line style="stroke:#181818;stroke-width:0.5;stroke-dasharray:5,5;" x1="912.4849" x2="912.4849" y1="248.6328" y2="578.0938"/></g></g><g class="participant-lifeline" data-entity-uid="part6" data-qualified-name="CH" data-source-line="7" id="part6-lifeline"><g><title>ConectorHyperliquid</title><rect fill="#000000" fill-opacity="0.00000" height="126.5313" width="8" x="1085.5981" y="81.2969"/><line style="stroke:#181818;stroke-width:0.5;stroke-dasharray:5,5;" x1="1088.7388" x2="1088.7388" y1="81.2969" y2="207.8281"/></g><line style="stroke:#181818;stroke-width:0.5;stroke-dasharray:1,4;" x1="1088.7388" x2="1088.7388" y1="207.8281" y2="248.6328"/><g><title>ConectorHyperliquid</title><rect fill="#000000" fill-opacity="0.00000" height="329.4609" width="8" x="1085.5981" y="248.6328"/><line style="stroke:#181818;stroke-width:0.5;stroke-dasharray:5,5;" x1="1088.7388" x2="1088.7388" y1="248.6328" y2="578.0938"/></g></g><g class="participant-lifeline" data-entity-uid="part7" data-qualified-name="OP" data-source-line="8" id="part7-lifeline"><g><title>Operacion</title><rect fill="#000000" fill-opacity="0.00000" height="126.5313" width="8" x="1222.2158" y="81.2969"/><line style="stroke:#181818;stroke-width:0.5;stroke-dasharray:5,5;" x1="1225.2759" x2="1225.2759" y1="81.2969" y2="207.8281"/></g><line style="stroke:#181818;stroke-width:0.5;stroke-dasharray:1,4;" x1="1225.2759" x2="1225.2759" y1="207.8281" y2="248.6328"/><g><title>Operacion</title><rect fill="#000000" fill-opacity="0.00000" height="329.4609" width="8" x="1222.2158" y="248.6328"/><line style="stroke:#181818;stroke-width:0.5;stroke-dasharray:5,5;" x1="1225.2759" x2="1225.2759" y1="248.6328" y2="578.0938"/></g></g><g class="participant-lifeline" data-entity-uid="part8" data-qualified-name="EN" data-source-line="9" id="part8-lifeline"><g><title>Entidad</title><rect fill="#000000" fill-opacity="0.00000" height="126.5313" width="8" x="1300.8809" y="81.2969"/><line style="stroke:#181818;stroke-width:0.5;stroke-dasharray:5,5;" x1="1304.1558" x2="1304.1558" y1="81.2969" y2="207.8281"/></g><line style="stroke:#181818;stroke-width:0.5;stroke-dasharray:1,4;" x1="1304.1558" x2="1304.1558" y1="207.8281" y2="248.6328"/><g><title>Entidad</title><rect fill="#000000" fill-opacity="0.00000" height="329.4609" width="8" x="1300.8809" y="248.6328"/><line style="stroke:#181818;stroke-width:0.5;stroke-dasharray:5,5;" x1="1304.1558" x2="1304.1558" y1="248.6328" y2="578.0938"/></g></g><g class="participant participant-head" data-entity-uid="part1" data-qualified-name="U" data-source-line="1" id="part1-head"><text fill="#000000" font-family="sans-serif" font-size="14" lengthAdjust="spacing" textLength="53.2041" x="5" y="77.9951">Usuario</text><ellipse cx="34.6021" cy="13.5" fill="#E2E2F0" rx="8" ry="8" style="stroke:#181818;stroke-width:0.5;"/><path d="M34.6021,21.5 L34.6021,48.5 M21.6021,29.5 L47.6021,29.5 M34.6021,48.5 L21.6021,63.5 M34.6021,48.5 L47.6021,63.5" fill="none" style="stroke:#181818;stroke-width:0.5;"/></g><g class="participant participant-tail" data-entity-uid="part1" data-qualified-name="U" data-source-line="1" id="part1-tail"><text fill="#000000" font-family="sans-serif" font-size="14" lengthAdjust="spacing" textLength="53.2041" x="5" y="590.0889">Usuario</text><ellipse cx="34.6021" cy="601.8906" fill="#E2E2F0" rx="8" ry="8" style="stroke:#181818;stroke-width:0.5;"/><path d="M34.6021,609.8906 L34.6021,636.8906 M21.6021,617.8906 L47.6021,617.8906 M34.6021,636.8906 L21.6021,651.8906 M34.6021,636.8906 L47.6021,651.8906" fill="none" style="stroke:#181818;stroke-width:0.5;"/></g><g class="participant participant-head" data-entity-uid="part2" data-qualified-name="HL" data-source-line="2" id="part2-head"><text fill="#000000" font-family="sans-serif" font-size="14" lengthAdjust="spacing" textLength="101.541" x="74.2041" y="77.9951">Hyperliquid L1</text><ellipse cx="127.9746" cy="13.5" fill="#E2E2F0" rx="8" ry="8" style="stroke:#181818;stroke-width:0.5;"/><path d="M127.9746,21.5 L127.9746,48.5 M114.9746,29.5 L140.9746,29.5 M127.9746,48.5 L114.9746,63.5 M127.9746,48.5 L140.9746,63.5" fill="none" style="stroke:#181818;stroke-width:0.5;"/></g><g class="participant participant-tail" data-entity-uid="part2" data-qualified-name="HL" data-source-line="2" id="part2-tail"><text fill="#000000" font-family="sans-serif" font-size="14" lengthAdjust="spacing" textLength="101.541" x="74.2041" y="590.0889">Hyperliquid L1</text><ellipse cx="127.9746" cy="601.8906" fill="#E2E2F0" rx="8" ry="8" style="stroke:#181818;stroke-width:0.5;"/><path d="M127.9746,609.8906 L127.9746,636.8906 M114.9746,617.8906 L140.9746,617.8906 M127.9746,636.8906 L114.9746,651.8906 M127.9746,636.8906 L140.9746,651.8906" fill="none" style="stroke:#181818;stroke-width:0.5;"/></g><g class="participant participant-head" data-entity-uid="part3" data-qualified-name="VL" data-source-line="4" id="part3-head"><text fill="#000000" font-family="sans-serif" font-size="14" lengthAdjust="spacing" textLength="123.751" x="315.9209" y="77.9951">VistaLeaderboard</text><path d="M360.2964,37 L360.2964,61 M360.2964,49 L377.2964,49" fill="none" style="stroke:#181818;stroke-width:0.5;"/><ellipse cx="389.2964" cy="49" fill="#E2E2F0" rx="12" ry="12" style="stroke:#181818;stroke-width:0.5;"/></g><g class="participant participant-tail" data-entity-uid="part3" data-qualified-name="VL" data-source-line="4" id="part3-tail"><text fill="#000000" font-family="sans-serif" font-size="14" lengthAdjust="spacing" textLength="123.751" x="315.9209" y="590.0889">VistaLeaderboard</text><path d="M360.2964,597.3906 L360.2964,621.3906 M360.2964,609.3906 L377.2964,609.3906" fill="none" style="stroke:#181818;stroke-width:0.5;"/><ellipse cx="389.2964" cy="609.3906" fill="#E2E2F0" rx="12" ry="12" style="stroke:#181818;stroke-width:0.5;"/></g><g class="participant participant-head" data-entity-uid="part4" data-qualified-name="GCL" data-source-line="5" id="part4-head"><text fill="#000000" font-family="sans-serif" font-size="14" lengthAdjust="spacing" textLength="196.8271" x="607.6577" y="77.9951">GestorConsultaLeaderboard</text><ellipse cx="709.0713" cy="49" fill="#E2E2F0" rx="12" ry="12" style="stroke:#181818;stroke-width:0.5;"/><polygon fill="#181818" points="705.0713,37,711.0713,32,709.0713,37,711.0713,42,705.0713,37" style="stroke:#181818;stroke-width:1;"/></g><g class="participant participant-tail" data-entity-uid="part4" data-qualified-name="GCL" data-source-line="5" id="part4-tail"><text fill="#000000" font-family="sans-serif" font-size="14" lengthAdjust="spacing" textLength="196.8271" x="607.6577" y="590.0889">GestorConsultaLeaderboard</text><ellipse cx="709.0713" cy="609.3906" fill="#E2E2F0" rx="12" ry="12" style="stroke:#181818;stroke-width:0.5;"/><polygon fill="#181818" points="705.0713,597.3906,711.0713,592.3906,709.0713,597.3906,711.0713,602.3906,705.0713,597.3906" style="stroke:#181818;stroke-width:1;"/></g><g class="participant participant-head" data-entity-uid="part5" data-qualified-name="GCE" data-source-line="6" id="part5-head"><text fill="#000000" font-family="sans-serif" font-size="14" lengthAdjust="spacing" textLength="178.2539" x="820.4849" y="77.9951">GestorCatalogoEntidades</text><ellipse cx="912.6118" cy="49" fill="#E2E2F0" rx="12" ry="12" style="stroke:#181818;stroke-width:0.5;"/><polygon fill="#181818" points="908.6118,37,914.6118,32,912.6118,37,914.6118,42,908.6118,37" style="stroke:#181818;stroke-width:1;"/></g><g class="participant participant-tail" data-entity-uid="part5" data-qualified-name="GCE" data-source-line="6" id="part5-tail"><text fill="#000000" font-family="sans-serif" font-size="14" lengthAdjust="spacing" textLength="178.2539" x="820.4849" y="590.0889">GestorCatalogoEntidades</text><ellipse cx="912.6118" cy="609.3906" fill="#E2E2F0" rx="12" ry="12" style="stroke:#181818;stroke-width:0.5;"/><polygon fill="#181818" points="908.6118,597.3906,914.6118,592.3906,912.6118,597.3906,914.6118,602.3906,908.6118,597.3906" style="stroke:#181818;stroke-width:1;"/></g><g class="participant participant-head" data-entity-uid="part6" data-qualified-name="CH" data-source-line="7" id="part6-head"><text fill="#000000" font-family="sans-serif" font-size="14" lengthAdjust="spacing" textLength="143.7188" x="1014.7388" y="77.9951">ConectorHyperliquid</text><path d="M1069.0981,37 L1069.0981,61 M1069.0981,49 L1086.0981,49" fill="none" style="stroke:#181818;stroke-width:0.5;"/><ellipse cx="1098.0981" cy="49" fill="#E2E2F0" rx="12" ry="12" style="stroke:#181818;stroke-width:0.5;"/></g><g class="participant participant-tail" data-entity-uid="part6" data-qualified-name="CH" data-source-line="7" id="part6-tail"><text fill="#000000" font-family="sans-serif" font-size="14" lengthAdjust="spacing" textLength="143.7188" x="1014.7388" y="590.0889">ConectorHyperliquid</text><path d="M1069.0981,597.3906 L1069.0981,621.3906 M1069.0981,609.3906 L1086.0981,609.3906" fill="none" style="stroke:#181818;stroke-width:0.5;"/><ellipse cx="1098.0981" cy="609.3906" fill="#E2E2F0" rx="12" ry="12" style="stroke:#181818;stroke-width:0.5;"/></g><g class="participant participant-head" data-entity-uid="part7" data-qualified-name="OP" data-source-line="8" id="part7-head"><text fill="#000000" font-family="sans-serif" font-size="14" lengthAdjust="spacing" textLength="71.8799" x="1187.2759" y="77.9951">Operacion</text><ellipse cx="1226.2158" cy="49" fill="#E2E2F0" rx="12" ry="12" style="stroke:#181818;stroke-width:0.5;"/><line style="stroke:#181818;stroke-width:0.5;" x1="1214.2158" x2="1238.2158" y1="63" y2="63"/></g><g class="participant participant-tail" data-entity-uid="part7" data-qualified-name="OP" data-source-line="8" id="part7-tail"><text fill="#000000" font-family="sans-serif" font-size="14" lengthAdjust="spacing" textLength="71.8799" x="1187.2759" y="590.0889">Operacion</text><ellipse cx="1226.2158" cy="609.3906" fill="#E2E2F0" rx="12" ry="12" style="stroke:#181818;stroke-width:0.5;"/><line style="stroke:#181818;stroke-width:0.5;" x1="1214.2158" x2="1238.2158" y1="623.3906" y2="623.3906"/></g><g class="participant participant-head" data-entity-uid="part8" data-qualified-name="EN" data-source-line="9" id="part8-head"><text fill="#000000" font-family="sans-serif" font-size="14" lengthAdjust="spacing" textLength="53.4502" x="1275.1558" y="77.9951">Entidad</text><ellipse cx="1304.8809" cy="49" fill="#E2E2F0" rx="12" ry="12" style="stroke:#181818;stroke-width:0.5;"/><line style="stroke:#181818;stroke-width:0.5;" x1="1292.8809" x2="1316.8809" y1="63" y2="63"/></g><g class="participant participant-tail" data-entity-uid="part8" data-qualified-name="EN" data-source-line="9" id="part8-tail"><text fill="#000000" font-family="sans-serif" font-size="14" lengthAdjust="spacing" textLength="53.4502" x="1275.1558" y="590.0889">Entidad</text><ellipse cx="1304.8809" cy="609.3906" fill="#E2E2F0" rx="12" ry="12" style="stroke:#181818;stroke-width:0.5;"/><line style="stroke:#181818;stroke-width:0.5;" x1="1292.8809" x2="1316.8809" y1="623.3906" y2="623.3906"/></g><g class="message" data-entity-1="part1" data-entity-2="part3" data-source-line="11" id="msg1"><polygon fill="#181818" points="368.7964,108.4297,378.7964,112.4297,368.7964,116.4297,372.7964,112.4297" style="stroke:#181818;stroke-width:1;"/><line style="stroke:#181818;stroke-width:1;" x1="34.6021" x2="374.7964" y1="112.4297" y2="112.4297"/><text fill="#000000" font-family="sans-serif" font-size="13" lengthAdjust="spacing" textLength="322.1943" x="41.6021" y="107.3638">solicita consultar (mercado, token, temporalidad)</text></g><g class="message" data-entity-1="part3" data-entity-2="part4" data-source-line="12" id="msg2"><polygon fill="#181818" points="697.0713,137.5625,707.0713,141.5625,697.0713,145.5625,701.0713,141.5625" style="stroke:#181818;stroke-width:1;"/><line style="stroke:#181818;stroke-width:1;" x1="380.7964" x2="703.0713" y1="141.5625" y2="141.5625"/><text fill="#000000" font-family="sans-serif" font-size="13" lengthAdjust="spacing" textLength="304.2749" x="387.7964" y="136.4966">iniciarConsulta(mercado, token, temporalidad)</text></g><g class="message" data-entity-1="part4" data-entity-2="part6" data-source-line="13" id="msg3"><polygon fill="#181818" points="1077.5981,166.6953,1087.5981,170.6953,1077.5981,174.6953,1081.5981,170.6953" style="stroke:#181818;stroke-width:1;"/><line style="stroke:#181818;stroke-width:1;" x1="709.0713" x2="1083.5981" y1="170.6953" y2="170.6953"/><text fill="#000000" font-family="sans-serif" font-size="13" lengthAdjust="spacing" textLength="183.5742" x="716.0713" y="165.6294">suscribirOperaciones(token)</text></g><g class="message" data-entity-1="part6" data-entity-2="part2" data-source-line="14" id="msg4"><polygon fill="#181818" points="138.9746,195.8281,128.9746,199.8281,138.9746,203.8281,134.9746,199.8281" style="stroke:#181818;stroke-width:1;"/><line style="stroke:#181818;stroke-width:1;" x1="132.9746" x2="1088.5981" y1="199.8281" y2="199.8281"/><text fill="#000000" font-family="sans-serif" font-size="13" lengthAdjust="spacing" textLength="87.2231" x="144.9746" y="194.7622">suscribir flujo</text></g><text fill="#000000" font-family="sans-serif" font-size="11" lengthAdjust="spacing" textLength="74.9751" x="632.2539" y="232.0386">flujo continuo</text><g class="message" data-entity-1="part2" data-entity-2="part6" data-source-line="16" id="msg5"><polygon fill="#181818" points="1077.5981,265.7656,1087.5981,269.7656,1077.5981,273.7656,1081.5981,269.7656" style="stroke:#181818;stroke-width:1;"/><line style="stroke:#181818;stroke-width:1;stroke-dasharray:2,2;" x1="127.9746" x2="1083.5981" y1="269.7656" y2="269.7656"/><text fill="#000000" font-family="sans-serif" font-size="13" lengthAdjust="spacing" textLength="64.4668" x="134.9746" y="264.6997">operaci&#243;n</text></g><g class="message" data-entity-1="part6" data-entity-2="part6" data-source-line="17" id="msg6"><line style="stroke:#181818;stroke-width:1;" x1="1089.5981" x2="1131.5981" y1="314.0313" y2="314.0313"/><line style="stroke:#181818;stroke-width:1;" x1="1131.5981" x2="1131.5981" y1="314.0313" y2="327.0313"/><line style="stroke:#181818;stroke-width:1;" x1="1090.5981" x2="1131.5981" y1="327.0313" y2="327.0313"/><polygon fill="#181818" points="1100.5981,323.0313,1090.5981,327.0313,1100.5981,331.0313,1096.5981,327.0313" style="stroke:#181818;stroke-width:1;"/><text fill="#000000" font-family="sans-serif" font-size="13" lengthAdjust="spacing" textLength="101.5371" x="1096.5981" y="293.8325">publicar evento</text><text fill="#000000" font-family="sans-serif" font-size="13" lengthAdjust="spacing" textLength="122.6177" x="1096.5981" y="308.9653">OperacionRecibida</text></g><g class="message" data-entity-1="part6" data-entity-2="part4" data-source-line="18" id="msg7"><polygon fill="#181818" points="720.0713,352.1641,710.0713,356.1641,720.0713,360.1641,716.0713,356.1641" style="stroke:#181818;stroke-width:1;"/><line style="stroke:#181818;stroke-width:1;stroke-dasharray:2,2;" x1="714.0713" x2="1088.5981" y1="356.1641" y2="356.1641"/><text fill="#000000" font-family="sans-serif" font-size="13" lengthAdjust="spacing" textLength="148.9668" x="726.0713" y="351.0981">OperacionRecibida(op)</text></g><g class="message" data-entity-1="part4" data-entity-2="part7" data-source-line="19" id="msg8"><polygon fill="#181818" points="1214.2158,381.2969,1224.2158,385.2969,1214.2158,389.2969,1218.2158,385.2969" style="stroke:#181818;stroke-width:1;"/><line style="stroke:#181818;stroke-width:1;" x1="709.0713" x2="1220.2158" y1="385.2969" y2="385.2969"/><text fill="#000000" font-family="sans-serif" font-size="13" lengthAdjust="spacing" textLength="185.2373" x="716.0713" y="380.231">agregar(volumen, direcci&#243;n)</text></g><g class="message" data-entity-1="part4" data-entity-2="part5" data-source-line="20" id="msg9"><polygon fill="#181818" points="900.6118,410.4297,910.6118,414.4297,900.6118,418.4297,904.6118,414.4297" style="stroke:#181818;stroke-width:1;"/><line style="stroke:#181818;stroke-width:1;" x1="709.0713" x2="906.6118" y1="414.4297" y2="414.4297"/><text fill="#000000" font-family="sans-serif" font-size="13" lengthAdjust="spacing" textLength="174.1035" x="716.0713" y="409.3638">resolverNombre(direcci&#243;n)</text></g><g class="message" data-entity-1="part5" data-entity-2="part8" data-source-line="21" id="msg10"><polygon fill="#181818" points="1292.8809,439.5625,1302.8809,443.5625,1292.8809,447.5625,1296.8809,443.5625" style="stroke:#181818;stroke-width:1;"/><line style="stroke:#181818;stroke-width:1;" x1="912.6118" x2="1298.8809" y1="443.5625" y2="443.5625"/><text fill="#000000" font-family="sans-serif" font-size="13" lengthAdjust="spacing" textLength="195.3745" x="919.6118" y="438.4966">buscarPorDireccion(direcci&#243;n)</text></g><g class="message" data-entity-1="part8" data-entity-2="part5" data-source-line="22" id="msg11"><polygon fill="#181818" points="923.6118,468.6953,913.6118,472.6953,923.6118,476.6953,919.6118,472.6953" style="stroke:#181818;stroke-width:1;"/><line style="stroke:#181818;stroke-width:1;stroke-dasharray:2,2;" x1="917.6118" x2="1303.8809" y1="472.6953" y2="472.6953"/><text fill="#000000" font-family="sans-serif" font-size="13" lengthAdjust="spacing" textLength="86.7979" x="929.6118" y="467.6294">nombre / null</text></g><g class="message" data-entity-1="part5" data-entity-2="part4" data-source-line="23" id="msg12"><polygon fill="#181818" points="720.0713,497.8281,710.0713,501.8281,720.0713,505.8281,716.0713,501.8281" style="stroke:#181818;stroke-width:1;"/><line style="stroke:#181818;stroke-width:1;stroke-dasharray:2,2;" x1="714.0713" x2="911.6118" y1="501.8281" y2="501.8281"/><text fill="#000000" font-family="sans-serif" font-size="13" lengthAdjust="spacing" textLength="86.7979" x="726.0713" y="496.7622">nombre / null</text></g><g class="message" data-entity-1="part4" data-entity-2="part3" data-source-line="24" id="msg13"><polygon fill="#181818" points="391.7964,526.9609,381.7964,530.9609,391.7964,534.9609,387.7964,530.9609" style="stroke:#181818;stroke-width:1;"/><line style="stroke:#181818;stroke-width:1;" x1="385.7964" x2="708.0713" y1="530.9609" y2="530.9609"/><text fill="#000000" font-family="sans-serif" font-size="13" lengthAdjust="spacing" textLength="181.7524" x="397.7964" y="525.895">actualizarClasificacion(filas)</text></g><g class="message" data-entity-1="part3" data-entity-2="part1" data-source-line="25" id="msg14"><polygon fill="#181818" points="45.6021,556.0938,35.6021,560.0938,45.6021,564.0938,41.6021,560.0938" style="stroke:#181818;stroke-width:1;"/><line style="stroke:#181818;stroke-width:1;" x1="39.6021" x2="379.7964" y1="560.0938" y2="560.0938"/><text fill="#000000" font-family="sans-serif" font-size="13" lengthAdjust="spacing" textLength="141.1655" x="51.6021" y="555.0278">presenta clasificaci&#243;n</text></g><?plantuml-src XPB1Rjim38RlUWeX9nTOClJQGo-PKH-C92YGddgXPINGfeWf9GNeNckFi1VRRoNLqkMmastouy-VfCaa5hsDcSInfgYtYaferhqVhNZtbjse-_lPbEjwfGREOIHvrxCN5nFrbaOh0vEC1NdfbU6GXBsUFTa8fIM7cFqj-RIyHIcHvpst8RaHTBo0xLLNoDd9u9MzGYqxPL6MWAoH8UCubCHwKnCNtH9kLqfjzVmHZlM3ZkoTSOcqkRWLtHoi61hvYqxymmOyxE78GdwIk5CeGp66GBKBAAOwwNygfngKBhkfRuv6tE2aUhQnALLt2W2mhh_6zCxdxwmMYyNvRVARNCYi4L9Wvn_AV1Ry_IjSX4hqc0SCYkdi2KlXrr3xFbk31YCLkavsasxuM2TORq3GNkoUf3cnpuTfsD69DQLn1N51a6AnvPEL5Hy6iSrdhfsuTWLimAma6vPlPu339nJCl4g68gM_wf2zFwjKw__c-dfi_E0Pn_Y9YtcAReU5b3OxXy-FoswdRS4oreI_uYy74ty0?></g></svg>