<svg xmlns="http://www.w3.org/2000/svg" xmlns:xlink="http://www.w3.org/1999/xlink" contentStyleType="text/css" data-diagram-type="CLASS" height="821px" preserveAspectRatio="none" style="width:758px;height:821px;background:#FFFFFF;" version="1.1" viewBox="0 0 758 821" width="758px" zoomAndPan="magnify"><?plantuml 1.2026.3beta6?><defs/><g><!--class CH--><g class="entity" data-qualified-name="CH" data-source-line="4" id="ent0002"><rect fill="#F1F1F1" height="80.5938" rx="2.5" ry="2.5" style="stroke:#181818;stroke-width:0.5;" width="309.6777" x="129.59" y="7"/><ellipse cx="208.3195" cy="23" fill="#ADD1B2" rx="11" ry="11" style="stroke:#181818;stroke-width:1;"/><path d="M211.2882,28.6406 Q210.7101,28.9375 210.0695,29.0781 Q209.4289,29.2344 208.7257,29.2344 Q206.2257,29.2344 204.8976,27.5938 Q203.5851,25.9375 203.5851,22.8125 Q203.5851,19.6875 204.8976,18.0313 Q206.2257,16.375 208.7257,16.375 Q209.4289,16.375 210.0695,16.5313 Q210.7257,16.6875 211.2882,16.9844 L211.2882,19.7031 Q210.6632,19.125 210.0695,18.8594 Q209.4757,18.5781 208.8507,18.5781 Q207.507,18.5781 206.8195,19.6563 Q206.132,20.7188 206.132,22.8125 Q206.132,24.9063 206.8195,25.9844 Q207.507,27.0469 208.8507,27.0469 Q209.4757,27.0469 210.0695,26.7813 Q210.6632,26.5 211.2882,25.9219 L211.2882,28.6406 Z " fill="#000000"/><text fill="#000000" font-family="sans-serif" font-size="14" lengthAdjust="spacing" textLength="143.7188" x="228.8195" y="27.8467">ConectorHyperliquid</text><line style="stroke:#181818;stroke-width:0.5;" x1="130.59" x2="438.2677" y1="39" y2="39"/><line style="stroke:#181818;stroke-width:0.5;" x1="130.59" x2="438.2677" y1="47" y2="47"/><g data-visibility-modifier="PUBLIC_METHOD"><ellipse cx="140.59" cy="60.6484" fill="#84BE84" rx="3" ry="3" style="stroke:#038048;stroke-width:1;"/></g><text fill="#000000" font-family="sans-serif" font-size="14" lengthAdjust="spacing" textLength="160.166" x="149.59" y="63.9951">suscribirPrecios(token)</text><g data-visibility-modifier="PUBLIC_METHOD"><ellipse cx="140.59" cy="76.9453" fill="#84BE84" rx="3" ry="3" style="stroke:#038048;stroke-width:1;"/></g><text fill="#000000" font-family="sans-serif" font-size="14" lengthAdjust="spacing" textLength="283.6777" x="149.59" y="80.292">publicarPrecioActualizado(token, precio)</text></g><!--class GEA--><g class="entity" data-qualified-name="GEA" data-source-line="9" id="ent0003"><rect fill="#F1F1F1" height="80.5938" rx="2.5" ry="2.5" style="stroke:#181818;stroke-width:0.5;" width="311.1475" x="128.85" y="147.59"/><ellipse cx="194.2528" cy="163.59" fill="#ADD1B2" rx="11" ry="11" style="stroke:#181818;stroke-width:1;"/><path d="M197.2216,169.2306 Q196.6435,169.5275 196.0028,169.6681 Q195.3622,169.8244 194.6591,169.8244 Q192.1591,169.8244 190.831,168.1838 Q189.5185,166.5275 189.5185,163.4025 Q189.5185,160.2775 190.831,158.6213 Q192.1591,156.965 194.6591,156.965 Q195.3622,156.965 196.0028,157.1213 Q196.6591,157.2775 197.2216,157.5744 L197.2216,160.2931 Q196.5966,159.715 196.0028,159.4494 Q195.4091,159.1681 194.7841,159.1681 Q193.4403,159.1681 192.7528,160.2463 Q192.0653,161.3088 192.0653,163.4025 Q192.0653,165.4963 192.7528,166.5744 Q193.4403,167.6369 194.7841,167.6369 Q195.4091,167.6369 196.0028,167.3713 Q196.5966,167.09 197.2216,166.5119 L197.2216,169.2306 Z " fill="#000000"/><text fill="#000000" font-family="sans-serif" font-size="14" lengthAdjust="spacing" textLength="171.8418" x="214.7528" y="168.4367">GestorEvaluacionAlertas</text><line style="stroke:#181818;stroke-width:0.5;" x1="129.85" x2="438.9975" y1="179.59" y2="179.59"/><line style="stroke:#181818;stroke-width:0.5;" x1="129.85" x2="438.9975" y1="187.59" y2="187.59"/><g data-visibility-modifier="PUBLIC_METHOD"><ellipse cx="139.85" cy="201.2384" fill="#84BE84" rx="3" ry="3" style="stroke:#038048;stroke-width:1;"/></g><text fill="#000000" font-family="sans-serif" font-size="14" lengthAdjust="spacing" textLength="285.1475" x="148.85" y="204.5851">manejarPrecioActualizado(token, precio)</text><g data-visibility-modifier="PUBLIC_METHOD"><ellipse cx="139.85" cy="217.5353" fill="#84BE84" rx="3" ry="3" style="stroke:#038048;stroke-width:1;"/></g><text fill="#000000" font-family="sans-serif" font-size="14" lengthAdjust="spacing" textLength="156.7139" x="148.85" y="220.882">evaluar(alerta, precio)</text></g><!--class GAP--><g class="entity" data-qualified-name="GAP" data-source-line="14" id="ent0004"><rect fill="#F1F1F1" height="80.5938" rx="2.5" ry="2.5" style="stroke:#181818;stroke-width:0.5;" width="252.8506" x="7" y="312.63"/><ellipse cx="59.811" cy="328.63" fill="#ADD1B2" rx="11" ry="11" style="stroke:#181818;stroke-width:1;"/><path d="M62.7798,334.2706 Q62.2017,334.5675 61.561,334.7081 Q60.9204,334.8644 60.2173,334.8644 Q57.7173,334.8644 56.3892,333.2238 Q55.0767,331.5675 55.0767,328.4425 Q55.0767,325.3175 56.3892,323.6613 Q57.7173,322.005 60.2173,322.005 Q60.9204,322.005 61.561,322.1613 Q62.2173,322.3175 62.7798,322.6144 L62.7798,325.3331 Q62.1548,324.755 61.561,324.4894 Q60.9673,324.2081 60.3423,324.2081 Q58.9985,324.2081 58.311,325.2863 Q57.6235,326.3488 57.6235,328.4425 Q57.6235,330.5363 58.311,331.6144 Q58.9985,332.6769 60.3423,332.6769 Q60.9673,332.6769 61.561,332.4113 Q62.1548,332.13 62.7798,331.5519 L62.7798,334.2706 Z " fill="#000000"/><text fill="#000000" font-family="sans-serif" font-size="14" lengthAdjust="spacing" textLength="138.7285" x="80.311" y="333.4767">GestorAlertasPrecio</text><line style="stroke:#181818;stroke-width:0.5;" x1="8" x2="258.8506" y1="344.63" y2="344.63"/><line style="stroke:#181818;stroke-width:0.5;" x1="8" x2="258.8506" y1="352.63" y2="352.63"/><g data-visibility-modifier="PUBLIC_METHOD"><ellipse cx="18" cy="366.2784" fill="#84BE84" rx="3" ry="3" style="stroke:#038048;stroke-width:1;"/></g><text fill="#000000" font-family="sans-serif" font-size="14" lengthAdjust="spacing" textLength="226.8506" x="27" y="369.6251">recuperarOperativasPara(token)</text><g data-visibility-modifier="PUBLIC_METHOD"><ellipse cx="18" cy="382.5753" fill="#84BE84" rx="3" ry="3" style="stroke:#038048;stroke-width:1;"/></g><text fill="#000000" font-family="sans-serif" font-size="14" lengthAdjust="spacing" textLength="226.625" x="27" y="385.922">marcarComoDisparada(alertaId)</text></g><!--class GEN--><g class="entity" data-qualified-name="GEN" data-source-line="19" id="ent0005"><rect fill="#F1F1F1" height="129.4844" rx="2.5" ry="2.5" style="stroke:#181818;stroke-width:0.5;" width="281.835" x="294.51" y="288.19"/><ellipse cx="347.3962" cy="304.19" fill="#ADD1B2" rx="11" ry="11" style="stroke:#181818;stroke-width:1;"/><path d="M350.365,309.8306 Q349.7869,310.1275 349.1462,310.2681 Q348.5056,310.4244 347.8025,310.4244 Q345.3025,310.4244 343.9744,308.7838 Q342.6619,307.1275 342.6619,304.0025 Q342.6619,300.8775 343.9744,299.2213 Q345.3025,297.565 347.8025,297.565 Q348.5056,297.565 349.1462,297.7213 Q349.8025,297.8775 350.365,298.1744 L350.365,300.8931 Q349.74,300.315 349.1462,300.0494 Q348.5525,299.7681 347.9275,299.7681 Q346.5837,299.7681 345.8962,300.8463 Q345.2087,301.9088 345.2087,304.0025 Q345.2087,306.0963 345.8962,307.1744 Q346.5837,308.2369 347.9275,308.2369 Q348.5525,308.2369 349.1462,307.9713 Q349.74,307.69 350.365,307.1119 L350.365,309.8306 Z " fill="#000000"/><text fill="#000000" font-family="sans-serif" font-size="14" lengthAdjust="spacing" textLength="167.5625" x="367.8962" y="309.0367">GestorEnvioNotificacion</text><line style="stroke:#181818;stroke-width:0.5;" x1="295.51" x2="575.345" y1="320.19" y2="320.19"/><g data-visibility-modifier="PRIVATE_FIELD"><rect fill="none" height="6" style="stroke:#C82930;stroke-width:1;" width="6" x="302.51" y="330.8384"/></g><text fill="#000000" font-family="sans-serif" font-size="14" lengthAdjust="spacing" textLength="119.0205" x="314.51" y="337.1851">politicaReintento</text><line style="stroke:#181818;stroke-width:0.5;" x1="295.51" x2="575.345" y1="344.4869" y2="344.4869"/><g data-visibility-modifier="PUBLIC_METHOD"><ellipse cx="305.51" cy="358.1353" fill="#84BE84" rx="3" ry="3" style="stroke:#038048;stroke-width:1;"/></g><text fill="#000000" font-family="sans-serif" font-size="14" lengthAdjust="spacing" textLength="148.1348" x="314.51" y="361.482">enviar(alerta, precio)</text><g data-visibility-modifier="PUBLIC_METHOD"><ellipse cx="305.51" cy="374.4322" fill="#84BE84" rx="3" ry="3" style="stroke:#038048;stroke-width:1;"/></g><text fill="#000000" font-family="sans-serif" font-size="14" lengthAdjust="spacing" textLength="255.835" x="314.51" y="377.7789">manejarConfirmacion(notificacionId)</text><g data-visibility-modifier="PUBLIC_METHOD"><ellipse cx="305.51" cy="390.7291" fill="#84BE84" rx="3" ry="3" style="stroke:#038048;stroke-width:1;"/></g><text fill="#000000" font-family="sans-serif" font-size="14" lengthAdjust="spacing" textLength="195.7813" x="314.51" y="394.0757">manejarFallo(notificacionId)</text><g data-visibility-modifier="PUBLIC_METHOD"><ellipse cx="305.51" cy="407.0259" fill="#84BE84" rx="3" ry="3" style="stroke:#038048;stroke-width:1;"/></g><text fill="#000000" font-family="sans-serif" font-size="14" lengthAdjust="spacing" textLength="247.4131" x="314.51" y="410.3726">programarReintento(notificacionId)</text></g><!--class CW--><g class="entity" data-qualified-name="CW" data-source-line="27" id="ent0006"><rect fill="#F1F1F1" height="64.2969" rx="2.5" ry="2.5" style="stroke:#181818;stroke-width:0.5;" width="258.4766" x="190.19" y="485.82"/><ellipse cx="250.7838" cy="501.82" fill="#ADD1B2" rx="11" ry="11" style="stroke:#181818;stroke-width:1;"/><path d="M253.7525,507.4606 Q253.1744,507.7575 252.5338,507.8981 Q251.8931,508.0544 251.19,508.0544 Q248.69,508.0544 247.3619,506.4138 Q246.0494,504.7575 246.0494,501.6325 Q246.0494,498.5075 247.3619,496.8513 Q248.69,495.195 251.19,495.195 Q251.8931,495.195 252.5338,495.3513 Q253.19,495.5075 253.7525,495.8044 L253.7525,498.5231 Q253.1275,497.945 252.5338,497.6794 Q251.94,497.3981 251.315,497.3981 Q249.9713,497.3981 249.2838,498.4763 Q248.5963,499.5388 248.5963,501.6325 Q248.5963,503.7263 249.2838,504.8044 Q249.9713,505.8669 251.315,505.8669 Q251.94,505.8669 252.5338,505.6013 Q253.1275,505.32 253.7525,504.7419 L253.7525,507.4606 Z " fill="#000000"/><text fill="#000000" font-family="sans-serif" font-size="14" lengthAdjust="spacing" textLength="128.7891" x="271.2838" y="506.6667">ConectorWebhook</text><line style="stroke:#181818;stroke-width:0.5;" x1="191.19" x2="447.6666" y1="517.82" y2="517.82"/><line style="stroke:#181818;stroke-width:0.5;" x1="191.19" x2="447.6666" y1="525.82" y2="525.82"/><g data-visibility-modifier="PUBLIC_METHOD"><ellipse cx="201.19" cy="539.4684" fill="#84BE84" rx="3" ry="3" style="stroke:#038048;stroke-width:1;"/></g><text fill="#000000" font-family="sans-serif" font-size="14" lengthAdjust="spacing" textLength="232.4766" x="210.19" y="542.8151">transmitir(notificacion, webhook)</text></g><!--class P--><g class="entity" data-qualified-name="P" data-source-line="31" id="ent0007"><rect fill="#F1F1F1" height="80.5938" rx="2.5" ry="2.5" style="stroke:#181818;stroke-width:0.5;" width="83.1006" x="375.88" y="618.27"/><ellipse cx="394.5415" cy="634.27" fill="#ADD1B2" rx="11" ry="11" style="stroke:#181818;stroke-width:1;"/><path d="M397.5103,639.9106 Q396.9321,640.2075 396.2915,640.3481 Q395.6509,640.5044 394.9478,640.5044 Q392.4478,640.5044 391.1196,638.8638 Q389.8071,637.2075 389.8071,634.0825 Q389.8071,630.9575 391.1196,629.3013 Q392.4478,627.645 394.9478,627.645 Q395.6509,627.645 396.2915,627.8013 Q396.9478,627.9575 397.5103,628.2544 L397.5103,630.9731 Q396.8853,630.395 396.2915,630.1294 Q395.6978,629.8481 395.0728,629.8481 Q393.729,629.8481 393.0415,630.9263 Q392.354,631.9888 392.354,634.0825 Q392.354,636.1763 393.0415,637.2544 Q393.729,638.3169 395.0728,638.3169 Q395.6978,638.3169 396.2915,638.0513 Q396.8853,637.77 397.5103,637.1919 L397.5103,639.9106 Z " fill="#000000"/><text fill="#000000" font-family="sans-serif" font-size="14" lengthAdjust="spacing" textLength="42.9639" x="409.3552" y="639.1167">Precio</text><line style="stroke:#181818;stroke-width:0.5;" x1="376.88" x2="457.9806" y1="650.27" y2="650.27"/><g data-visibility-modifier="PRIVATE_FIELD"><rect fill="none" height="6" style="stroke:#C82930;stroke-width:1;" width="6" x="383.88" y="660.9184"/></g><text fill="#000000" font-family="sans-serif" font-size="14" lengthAdjust="spacing" textLength="35.0752" x="395.88" y="667.2651">valor</text><g data-visibility-modifier="PRIVATE_FIELD"><rect fill="none" height="6" style="stroke:#C82930;stroke-width:1;" width="6" x="383.88" y="677.2153"/></g><text fill="#000000" font-family="sans-serif" font-size="14" lengthAdjust="spacing" textLength="57.1006" x="395.88" y="683.562">instante</text><line style="stroke:#181818;stroke-width:0.5;" x1="376.88" x2="457.9806" y1="690.8638" y2="690.8638"/></g><!--class AP--><g class="entity" data-qualified-name="AP" data-source-line="36" id="ent0008"><rect fill="#F1F1F1" height="48" rx="2.5" ry="2.5" style="stroke:#181818;stroke-width:0.5;" width="116.8682" x="493.99" y="634.56"/><ellipse cx="508.99" cy="650.56" fill="#ADD1B2" rx="11" ry="11" style="stroke:#181818;stroke-width:1;"/><path d="M511.9588,656.2006 Q511.3806,656.4975 510.74,656.6381 Q510.0994,656.7944 509.3963,656.7944 Q506.8963,656.7944 505.5681,655.1538 Q504.2556,653.4975 504.2556,650.3725 Q504.2556,647.2475 505.5681,645.5913 Q506.8963,643.935 509.3963,643.935 Q510.0994,643.935 510.74,644.0913 Q511.3963,644.2475 511.9588,644.5444 L511.9588,647.2631 Q511.3338,646.685 510.74,646.4194 Q510.1463,646.1381 509.5213,646.1381 Q508.1775,646.1381 507.49,647.2163 Q506.8025,648.2788 506.8025,650.3725 Q506.8025,652.4663 507.49,653.5444 Q508.1775,654.6069 509.5213,654.6069 Q510.1463,654.6069 510.74,654.3413 Q511.3338,654.06 511.9588,653.4819 L511.9588,656.2006 Z " fill="#000000"/><text fill="#000000" font-family="sans-serif" font-size="14" lengthAdjust="spacing" textLength="84.8682" x="522.99" y="655.4067">AlertaPrecio</text><line style="stroke:#181818;stroke-width:0.5;" x1="494.99" x2="609.8582" y1="666.56" y2="666.56"/><line style="stroke:#181818;stroke-width:0.5;" x1="494.99" x2="609.8582" y1="674.56" y2="674.56"/></g><!--class T--><g class="entity" data-qualified-name="T" data-source-line="37" id="ent0009"><rect fill="#F1F1F1" height="48" rx="2.5" ry="2.5" style="stroke:#181818;stroke-width:0.5;" width="74.7109" x="380.07" y="758.86"/><ellipse cx="395.07" cy="774.86" fill="#ADD1B2" rx="11" ry="11" style="stroke:#181818;stroke-width:1;"/><path d="M398.0388,780.5006 Q397.4606,780.7975 396.82,780.9381 Q396.1794,781.0944 395.4763,781.0944 Q392.9763,781.0944 391.6481,779.4538 Q390.3356,777.7975 390.3356,774.6725 Q390.3356,771.5475 391.6481,769.8913 Q392.9763,768.235 395.4763,768.235 Q396.1794,768.235 396.82,768.3913 Q397.4763,768.5475 398.0388,768.8444 L398.0388,771.5631 Q397.4138,770.985 396.82,770.7194 Q396.2263,770.4381 395.6013,770.4381 Q394.2575,770.4381 393.57,771.5163 Q392.8825,772.5788 392.8825,774.6725 Q392.8825,776.7663 393.57,777.8444 Q394.2575,778.9069 395.6013,778.9069 Q396.2263,778.9069 396.82,778.6413 Q397.4138,778.36 398.0388,777.7819 L398.0388,780.5006 Z " fill="#000000"/><text fill="#000000" font-family="sans-serif" font-size="14" lengthAdjust="spacing" textLength="42.7109" x="409.07" y="779.7067">Token</text><line style="stroke:#181818;stroke-width:0.5;" x1="381.07" x2="453.7809" y1="790.86" y2="790.86"/><line style="stroke:#181818;stroke-width:0.5;" x1="381.07" x2="453.7809" y1="798.86" y2="798.86"/></g><!--class W--><g class="entity" data-qualified-name="W" data-source-line="38" id="ent0010"><rect fill="#F1F1F1" height="48" rx="2.5" ry="2.5" style="stroke:#181818;stroke-width:0.5;" width="97.4541" x="645.7" y="634.56"/><ellipse cx="660.7" cy="650.56" fill="#ADD1B2" rx="11" ry="11" style="stroke:#181818;stroke-width:1;"/><path d="M663.6688,656.2006 Q663.0906,656.4975 662.45,656.6381 Q661.8094,656.7944 661.1063,656.7944 Q658.6063,656.7944 657.2781,655.1538 Q655.9656,653.4975 655.9656,650.3725 Q655.9656,647.2475 657.2781,645.5913 Q658.6063,643.935 661.1063,643.935 Q661.8094,643.935 662.45,644.0913 Q663.1063,644.2475 663.6688,644.5444 L663.6688,647.2631 Q663.0438,646.685 662.45,646.4194 Q661.8563,646.1381 661.2313,646.1381 Q659.8875,646.1381 659.2,647.2163 Q658.5125,648.2788 658.5125,650.3725 Q658.5125,652.4663 659.2,653.5444 Q659.8875,654.6069 661.2313,654.6069 Q661.8563,654.6069 662.45,654.3413 Q663.0438,654.06 663.6688,653.4819 L663.6688,656.2006 Z " fill="#000000"/><text fill="#000000" font-family="sans-serif" font-size="14" lengthAdjust="spacing" textLength="65.4541" x="674.7" y="655.4067">Webhook</text><line style="stroke:#181818;stroke-width:0.5;" x1="646.7" x2="742.1541" y1="666.56" y2="666.56"/><line style="stroke:#181818;stroke-width:0.5;" x1="646.7" x2="742.1541" y1="674.56" y2="674.56"/></g><!--class N--><g class="entity" data-qualified-name="N" data-source-line="39" id="ent0011"><rect fill="#F1F1F1" height="80.5938" rx="2.5" ry="2.5" style="stroke:#181818;stroke-width:0.5;" width="138.0957" x="483.38" y="477.67"/><ellipse cx="508.9814" cy="493.67" fill="#ADD1B2" rx="11" ry="11" style="stroke:#181818;stroke-width:1;"/><path d="M511.9501,499.3106 Q511.372,499.6075 510.7314,499.7481 Q510.0907,499.9044 509.3876,499.9044 Q506.8876,499.9044 505.5595,498.2638 Q504.247,496.6075 504.247,493.4825 Q504.247,490.3575 505.5595,488.7013 Q506.8876,487.045 509.3876,487.045 Q510.0907,487.045 510.7314,487.2013 Q511.3876,487.3575 511.9501,487.6544 L511.9501,490.3731 Q511.3251,489.795 510.7314,489.5294 Q510.1376,489.2481 509.5126,489.2481 Q508.1689,489.2481 507.4814,490.3263 Q506.7939,491.3888 506.7939,493.4825 Q506.7939,495.5763 507.4814,496.6544 Q508.1689,497.7169 509.5126,497.7169 Q510.1376,497.7169 510.7314,497.4513 Q511.3251,497.17 511.9501,496.5919 L511.9501,499.3106 Z " fill="#000000"/><text fill="#000000" font-family="sans-serif" font-size="14" lengthAdjust="spacing" textLength="82.5371" x="525.3372" y="498.5167">Notificacion</text><line style="stroke:#181818;stroke-width:0.5;" x1="484.38" x2="620.4757" y1="509.67" y2="509.67"/><g data-visibility-modifier="PRIVATE_FIELD"><rect fill="none" height="6" style="stroke:#C82930;stroke-width:1;" width="6" x="491.38" y="520.3184"/></g><text fill="#000000" font-family="sans-serif" font-size="14" lengthAdjust="spacing" textLength="112.0957" x="503.38" y="526.6651">instanteEmision</text><g data-visibility-modifier="PRIVATE_FIELD"><rect fill="none" height="6" style="stroke:#C82930;stroke-width:1;" width="6" x="491.38" y="536.6153"/></g><text fill="#000000" font-family="sans-serif" font-size="14" lengthAdjust="spacing" textLength="102.4707" x="503.38" y="542.962">estadoEntrega</text><line style="stroke:#181818;stroke-width:0.5;" x1="484.38" x2="620.4757" y1="550.2638" y2="550.2638"/></g><!--link CH to GEA--><g class="link" data-entity-1="ent0002" data-entity-2="ent0003" data-link-type="dependency" data-source-line="44" id="lnk12"><path codeLine="44" d="M284.43,87.96 C284.43,106.62 284.43,122.68 284.43,141.32" fill="none" id="CH-to-GEA" style="stroke:#181818;stroke-width:1;stroke-dasharray:7,7;"/><polygon fill="#181818" points="284.43,147.32,288.43,138.32,284.43,142.32,280.43,138.32,284.43,147.32" style="stroke:#181818;stroke-width:1;"/><text fill="#000000" font-family="sans-serif" font-size="13" lengthAdjust="spacing" textLength="52.9331" x="199.6922" y="98.7069">&#171;event&#187;</text><text fill="#000000" font-family="sans-serif" font-size="13" lengthAdjust="spacing" textLength="115.4575" x="168.43" y="113.8397">PrecioActualizado</text></g><!--link GEA to GAP--><g class="link" data-entity-1="ent0003" data-entity-2="ent0004" data-link-type="dependency" data-source-line="45" id="lnk13"><path codeLine="45" d="M194.35,228.69 C194.35,254.17 194.35,280.87 194.35,306.32" fill="none" id="GEA-to-GAP" style="stroke:#181818;stroke-width:1;stroke-dasharray:7,7;"/><polygon fill="#181818" points="194.35,312.32,198.35,303.32,194.35,307.32,190.35,303.32,194.35,312.32" style="stroke:#181818;stroke-width:1;"/><text fill="#000000" font-family="sans-serif" font-size="13" lengthAdjust="spacing" textLength="121.1006" x="72.35" y="266.5669">recupera/actualiza</text></g><!--link GEA to GEN--><g class="link" data-entity-1="ent0003" data-entity-2="ent0005" data-link-type="dependency" data-source-line="46" id="lnk14"><path codeLine="46" d="M367.25,228.69 C367.25,246.54 367.25,261.92 367.25,281.88" fill="none" id="GEA-to-GEN" style="stroke:#181818;stroke-width:1;stroke-dasharray:7,7;"/><polygon fill="#181818" points="367.25,287.88,371.25,278.88,367.25,282.88,363.25,278.88,367.25,287.88" style="stroke:#181818;stroke-width:1;"/><text fill="#000000" font-family="sans-serif" font-size="13" lengthAdjust="spacing" textLength="63.0068" x="286.1504" y="271.3469">&#171;include&#187;</text><text fill="#000000" font-family="sans-serif" font-size="13" lengthAdjust="spacing" textLength="98.8076" x="268.25" y="286.4797">CU-13 &#8594; CU-14</text></g><!--link GEN to CW--><g class="link" data-entity-1="ent0005" data-entity-2="ent0006" data-link-type="dependency" data-source-line="47" id="lnk15"><path codeLine="47" d="M371.59,418.16 C371.59,441.22 371.59,460.18 371.59,479.36" fill="none" id="GEN-to-CW" style="stroke:#181818;stroke-width:1;stroke-dasharray:7,7;"/><polygon fill="#181818" points="371.59,485.36,375.59,476.36,371.59,480.36,367.59,476.36,371.59,485.36" style="stroke:#181818;stroke-width:1;"/><text fill="#000000" font-family="sans-serif" font-size="13" lengthAdjust="spacing" textLength="62.791" x="308.59" y="447.8269">transmite</text></g><!--link GEN to N--><g class="link" data-entity-1="ent0005" data-entity-2="ent0011" data-link-type="dependency" data-source-line="48" id="lnk16"><path codeLine="48" d="M529.86,418.16 C529.86,438.16 529.86,453.58 529.86,471.43" fill="none" id="GEN-to-N" style="stroke:#181818;stroke-width:1;"/><polygon fill="#181818" points="529.86,477.43,533.86,468.43,529.86,472.43,525.86,468.43,529.86,477.43" style="stroke:#181818;stroke-width:1;"/></g><!--link N to AP--><g class="link" data-entity-1="ent0011" data-entity-2="ent0008" data-link-type="dependency" data-source-line="49" id="lnk17"><path codeLine="49" d="M552.43,558.63 C552.43,583.13 552.43,607.49 552.43,628.28" fill="none" id="N-to-AP" style="stroke:#181818;stroke-width:1;"/><polygon fill="#181818" points="552.43,634.28,556.43,625.28,552.43,629.28,548.43,625.28,552.43,634.28" style="stroke:#181818;stroke-width:1;"/></g><!--link N to P--><g class="link" data-entity-1="ent0011" data-entity-2="ent0007" data-link-type="dependency" data-source-line="50" id="lnk18"><path codeLine="50" d="M483.14,554.86 C466.69,554.86 453.82,554.86 453.82,554.86 C453.82,554.86 453.82,582.82 453.82,611.87" fill="none" id="N-to-P" style="stroke:#181818;stroke-width:1;"/><polygon fill="#181818" points="453.82,617.87,457.82,608.87,453.82,612.87,449.82,608.87,453.82,617.87" style="stroke:#181818;stroke-width:1;"/></g><!--link N to W--><g class="link" data-entity-1="ent0011" data-entity-2="ent0010" data-link-type="dependency" data-source-line="51" id="lnk19"><path codeLine="51" d="M616.17,558.72 C616.17,600.33 616.17,658.86 616.17,658.86 C616.17,658.86 623.58,658.86 639.31,658.86" fill="none" id="N-to-W" style="stroke:#181818;stroke-width:1;"/><polygon fill="#181818" points="645.31,658.86,636.31,654.86,640.31,658.86,636.31,662.86,645.31,658.86" style="stroke:#181818;stroke-width:1;"/></g><!--link P to T--><g class="link" data-entity-1="ent0007" data-entity-2="ent0009" data-link-type="dependency" data-source-line="52" id="lnk20"><path codeLine="52" d="M417.43,699.26 C417.43,718.8 417.43,735.57 417.43,752.4" fill="none" id="P-to-T" style="stroke:#181818;stroke-width:1;"/><polygon fill="#181818" points="417.43,758.4,421.43,749.4,417.43,753.4,413.43,749.4,417.43,758.4" style="stroke:#181818;stroke-width:1;"/></g><?plantuml-src ZLF1Rjim3BtxAuIUKhJfCAode31Wf5cxInOC6NBfXR7LXeqiUfIS8HjwtGVi4_SbesGxTH0Ng0-M83uzFl9HReks0ePI6RJQxokjYFs6aWqMMZclMLCuJPBSW7FgR4fMvvxuNWxPu8yQYpC5JatlrStDccfR0E_JLFrEb7mNojKkPrmZBrZdI6xaQQljUHkjwhN17DfWbliQ3Fw2WXhOfQfYu3nvEGYuqqxIptPWQf2GpOnc3owAk9jbeY8dwvbCJqG9LZ-_8qk3rf6RHn2PtzRGPcvOc_pPOZ2_86ff5_3NyFUuarlIzEDUbC3IYIcLT8ikU590A-5BCT00kqEQayT7wL_eGzk0-O20iQh8e1VWDutMQ-kfArLO1Yezwfeu_eXSnYGZsyiOP1qXFuCnz0QaOdgICGC-I3W1lfmCsKglDqJRPi1MmmFc6QmhfJe-8hnKFvlBVTwULS4eKO5-tskJ64_Sxj4w3wAqTxqnl4UIzLawr3AO6iFBWMY_fDL0_CJI-P3GJjoiH2V0zbG6GuPw9kRh9mYwvL5UNQNnMKm2pKw8qlJ1dZo4940YL4gQ7ERr0tIGLu1CME12cvkwq85j-dtyyPFwz-Ul2hlh9402L1oR7EpHyNWyJjKyQTPiqMwwTPKiuhhy3m00?></g></svg>