<svg xmlns="http://www.w3.org/2000/svg" xmlns:xlink="http://www.w3.org/1999/xlink" contentStyleType="text/css" data-diagram-type="CLASS" height="805px" preserveAspectRatio="none" style="width:780px;height:805px;background:#FFFFFF;" version="1.1" viewBox="0 0 780 805" width="780px" zoomAndPan="magnify"><?plantuml 1.2026.3beta6?><defs/><g><!--class VL--><g class="entity" data-qualified-name="VL" data-source-line="4" id="ent0002"><rect fill="#F1F1F1" height="96.8906" rx="2.5" ry="2.5" style="stroke:#181818;stroke-width:0.5;" width="221.7334" x="148.58" y="7"/><ellipse cx="193.3212" cy="23" fill="#ADD1B2" rx="11" ry="11" style="stroke:#181818;stroke-width:1;"/><path d="M196.29,28.6406 Q195.7118,28.9375 195.0712,29.0781 Q194.4306,29.2344 193.7275,29.2344 Q191.2275,29.2344 189.8993,27.5938 Q188.5868,25.9375 188.5868,22.8125 Q188.5868,19.6875 189.8993,18.0313 Q191.2275,16.375 193.7275,16.375 Q194.4306,16.375 195.0712,16.5313 Q195.7275,16.6875 196.29,16.9844 L196.29,19.7031 Q195.665,19.125 195.0712,18.8594 Q194.4775,18.5781 193.8525,18.5781 Q192.5087,18.5781 191.8212,19.6563 Q191.1337,20.7188 191.1337,22.8125 Q191.1337,24.9063 191.8212,25.9844 Q192.5087,27.0469 193.8525,27.0469 Q194.4775,27.0469 195.0712,26.7813 Q195.665,26.5 196.29,25.9219 L196.29,28.6406 Z " fill="#000000"/><text fill="#000000" font-family="sans-serif" font-size="14" lengthAdjust="spacing" textLength="123.751" x="213.8212" y="27.8467">VistaLeaderboard</text><line style="stroke:#181818;stroke-width:0.5;" x1="149.58" x2="369.3134" y1="39" y2="39"/><line style="stroke:#181818;stroke-width:0.5;" x1="149.58" x2="369.3134" y1="47" y2="47"/><g data-visibility-modifier="PUBLIC_METHOD"><ellipse cx="159.58" cy="60.6484" fill="#84BE84" rx="3" ry="3" style="stroke:#038048;stroke-width:1;"/></g><text fill="#000000" font-family="sans-serif" font-size="14" lengthAdjust="spacing" textLength="159.4961" x="168.58" y="63.9951">presentarParametros()</text><g data-visibility-modifier="PUBLIC_METHOD"><ellipse cx="159.58" cy="76.9453" fill="#84BE84" rx="3" ry="3" style="stroke:#038048;stroke-width:1;"/></g><text fill="#000000" font-family="sans-serif" font-size="14" lengthAdjust="spacing" textLength="195.7334" x="168.58" y="80.292">actualizarClasificacion(filas)</text><g data-visibility-modifier="PUBLIC_METHOD"><ellipse cx="159.58" cy="93.2422" fill="#84BE84" rx="3" ry="3" style="stroke:#038048;stroke-width:1;"/></g><text fill="#000000" font-family="sans-serif" font-size="14" lengthAdjust="spacing" textLength="181.1045" x="168.58" y="96.5889">informarIndisponibilidad()</text></g><!--class CH--><g class="entity" data-qualified-name="CH" data-source-line="10" id="ent0003"><rect fill="#F1F1F1" height="96.8906" rx="2.5" ry="2.5" style="stroke:#181818;stroke-width:0.5;" width="242.8838" x="7" y="345.22"/><ellipse cx="52.3325" cy="361.22" fill="#ADD1B2" rx="11" ry="11" style="stroke:#181818;stroke-width:1;"/><path d="M55.3013,366.8606 Q54.7231,367.1575 54.0825,367.2981 Q53.4419,367.4544 52.7388,367.4544 Q50.2388,367.4544 48.9106,365.8137 Q47.5981,364.1575 47.5981,361.0325 Q47.5981,357.9075 48.9106,356.2512 Q50.2388,354.595 52.7388,354.595 Q53.4419,354.595 54.0825,354.7512 Q54.7388,354.9075 55.3013,355.2044 L55.3013,357.9231 Q54.6763,357.345 54.0825,357.0794 Q53.4888,356.7981 52.8638,356.7981 Q51.52,356.7981 50.8325,357.8762 Q50.145,358.9387 50.145,361.0325 Q50.145,363.1262 50.8325,364.2044 Q51.52,365.2669 52.8638,365.2669 Q53.4888,365.2669 54.0825,365.0012 Q54.6763,364.72 55.3013,364.1419 L55.3013,366.8606 Z " fill="#000000"/><text fill="#000000" font-family="sans-serif" font-size="14" lengthAdjust="spacing" textLength="143.7188" x="72.8325" y="366.0667">ConectorHyperliquid</text><line style="stroke:#181818;stroke-width:0.5;" x1="8" x2="248.8838" y1="377.22" y2="377.22"/><line style="stroke:#181818;stroke-width:0.5;" x1="8" x2="248.8838" y1="385.22" y2="385.22"/><g data-visibility-modifier="PUBLIC_METHOD"><ellipse cx="18" cy="398.8684" fill="#84BE84" rx="3" ry="3" style="stroke:#038048;stroke-width:1;"/></g><text fill="#000000" font-family="sans-serif" font-size="14" lengthAdjust="spacing" textLength="197.6953" x="27" y="402.2151">suscribirOperaciones(token)</text><g data-visibility-modifier="PUBLIC_METHOD"><ellipse cx="18" cy="415.1653" fill="#84BE84" rx="3" ry="3" style="stroke:#038048;stroke-width:1;"/></g><text fill="#000000" font-family="sans-serif" font-size="14" lengthAdjust="spacing" textLength="215.1953" x="27" y="418.512">desuscribirOperaciones(token)</text><g data-visibility-modifier="PUBLIC_METHOD"><ellipse cx="18" cy="431.4622" fill="#84BE84" rx="3" ry="3" style="stroke:#038048;stroke-width:1;"/></g><text fill="#000000" font-family="sans-serif" font-size="14" lengthAdjust="spacing" textLength="216.8838" x="27" y="434.8089">publicarOperacionRecibida(op)</text></g><!--class GCL--><g class="entity" data-qualified-name="GCL" data-source-line="16" id="ent0004"><rect fill="#F1F1F1" height="96.8906" rx="2.5" ry="2.5" style="stroke:#181818;stroke-width:0.5;" width="353.6807" x="82.6" y="163.89"/><ellipse cx="156.7768" cy="179.89" fill="#ADD1B2" rx="11" ry="11" style="stroke:#181818;stroke-width:1;"/><path d="M159.7455,185.5306 Q159.1674,185.8275 158.5268,185.9681 Q157.8861,186.1244 157.183,186.1244 Q154.683,186.1244 153.3549,184.4838 Q152.0424,182.8275 152.0424,179.7025 Q152.0424,176.5775 153.3549,174.9213 Q154.683,173.265 157.183,173.265 Q157.8861,173.265 158.5268,173.4213 Q159.183,173.5775 159.7455,173.8744 L159.7455,176.5931 Q159.1205,176.015 158.5268,175.7494 Q157.933,175.4681 157.308,175.4681 Q155.9643,175.4681 155.2768,176.5463 Q154.5893,177.6088 154.5893,179.7025 Q154.5893,181.7963 155.2768,182.8744 Q155.9643,183.9369 157.308,183.9369 Q157.933,183.9369 158.5268,183.6713 Q159.1205,183.39 159.7455,182.8119 L159.7455,185.5306 Z " fill="#000000"/><text fill="#000000" font-family="sans-serif" font-size="14" lengthAdjust="spacing" textLength="196.8271" x="177.2768" y="184.7367">GestorConsultaLeaderboard</text><line style="stroke:#181818;stroke-width:0.5;" x1="83.6" x2="435.2807" y1="195.89" y2="195.89"/><line style="stroke:#181818;stroke-width:0.5;" x1="83.6" x2="435.2807" y1="203.89" y2="203.89"/><g data-visibility-modifier="PUBLIC_METHOD"><ellipse cx="93.6" cy="217.5384" fill="#84BE84" rx="3" ry="3" style="stroke:#038048;stroke-width:1;"/></g><text fill="#000000" font-family="sans-serif" font-size="14" lengthAdjust="spacing" textLength="327.6807" x="102.6" y="220.8851">iniciarConsulta(mercado, token, temporalidad)</text><g data-visibility-modifier="PUBLIC_METHOD"><ellipse cx="93.6" cy="233.8353" fill="#84BE84" rx="3" ry="3" style="stroke:#038048;stroke-width:1;"/></g><text fill="#000000" font-family="sans-serif" font-size="14" lengthAdjust="spacing" textLength="200.2725" x="102.6" y="237.182">finalizarConsulta(consultaId)</text><g data-visibility-modifier="PUBLIC_METHOD"><ellipse cx="93.6" cy="250.1322" fill="#84BE84" rx="3" ry="3" style="stroke:#038048;stroke-width:1;"/></g><text fill="#000000" font-family="sans-serif" font-size="14" lengthAdjust="spacing" textLength="218.3535" x="102.6" y="253.4789">manejarOperacionRecibida(op)</text></g><!--class GCE--><g class="entity" data-qualified-name="GCE" data-source-line="22" id="ent0005"><rect fill="#F1F1F1" height="64.2969" rx="2.5" ry="2.5" style="stroke:#181818;stroke-width:0.5;" width="213.4961" x="284.69" y="361.52"/><ellipse cx="301.149" cy="377.52" fill="#ADD1B2" rx="11" ry="11" style="stroke:#181818;stroke-width:1;"/><path d="M304.1177,383.1606 Q303.5396,383.4575 302.899,383.5981 Q302.2584,383.7544 301.5552,383.7544 Q299.0552,383.7544 297.7271,382.1137 Q296.4146,380.4575 296.4146,377.3325 Q296.4146,374.2075 297.7271,372.5512 Q299.0552,370.895 301.5552,370.895 Q302.2584,370.895 302.899,371.0512 Q303.5552,371.2075 304.1177,371.5044 L304.1177,374.2231 Q303.4927,373.645 302.899,373.3794 Q302.3052,373.0981 301.6802,373.0981 Q300.3365,373.0981 299.649,374.1762 Q298.9615,375.2387 298.9615,377.3325 Q298.9615,379.4262 299.649,380.5044 Q300.3365,381.5669 301.6802,381.5669 Q302.3052,381.5669 302.899,381.3012 Q303.4927,381.02 304.1177,380.4419 L304.1177,383.1606 Z " fill="#000000"/><text fill="#000000" font-family="sans-serif" font-size="14" lengthAdjust="spacing" textLength="178.2539" x="315.4732" y="382.3667">GestorCatalogoEntidades</text><line style="stroke:#181818;stroke-width:0.5;" x1="285.69" x2="497.1861" y1="393.52" y2="393.52"/><line style="stroke:#181818;stroke-width:0.5;" x1="285.69" x2="497.1861" y1="401.52" y2="401.52"/><g data-visibility-modifier="PUBLIC_METHOD"><ellipse cx="295.69" cy="415.1684" fill="#84BE84" rx="3" ry="3" style="stroke:#038048;stroke-width:1;"/></g><text fill="#000000" font-family="sans-serif" font-size="14" lengthAdjust="spacing" textLength="187.4961" x="304.69" y="418.5151">resolverNombre(direccion)</text></g><!--class LEV--><g class="entity" data-qualified-name="LEV" data-source-line="26" id="ent0006"><rect fill="#F1F1F1" height="145.7813" rx="2.5" ry="2.5" style="stroke:#181818;stroke-width:0.5;" width="232.9102" x="532.99" y="320.78"/><ellipse cx="576.7685" cy="336.78" fill="#ADD1B2" rx="11" ry="11" style="stroke:#181818;stroke-width:1;"/><path d="M579.7372,342.4206 Q579.1591,342.7175 578.5185,342.8581 Q577.8778,343.0144 577.1747,343.0144 Q574.6747,343.0144 573.3466,341.3738 Q572.0341,339.7175 572.0341,336.5925 Q572.0341,333.4675 573.3466,331.8113 Q574.6747,330.155 577.1747,330.155 Q577.8778,330.155 578.5185,330.3113 Q579.1747,330.4675 579.7372,330.7644 L579.7372,333.4831 Q579.1122,332.905 578.5185,332.6394 Q577.9247,332.3581 577.2997,332.3581 Q575.956,332.3581 575.2685,333.4363 Q574.581,334.4988 574.581,336.5925 Q574.581,338.6863 575.2685,339.7644 Q575.956,340.8269 577.2997,340.8269 Q577.9247,340.8269 578.5185,340.5613 Q579.1122,340.28 579.7372,339.7019 L579.7372,342.4206 Z " fill="#000000"/><text fill="#000000" font-family="sans-serif" font-size="14" lengthAdjust="spacing" textLength="136.958" x="597.1637" y="341.6267">LeaderboardEnVivo</text><line style="stroke:#181818;stroke-width:0.5;" x1="533.99" x2="764.9002" y1="352.78" y2="352.78"/><g data-visibility-modifier="PRIVATE_FIELD"><rect fill="none" height="6" style="stroke:#C82930;stroke-width:1;" width="6" x="540.99" y="363.4284"/></g><text fill="#000000" font-family="sans-serif" font-size="14" lengthAdjust="spacing" textLength="61.7354" x="552.99" y="369.7751">mercado</text><g data-visibility-modifier="PRIVATE_FIELD"><rect fill="none" height="6" style="stroke:#C82930;stroke-width:1;" width="6" x="540.99" y="379.7253"/></g><text fill="#000000" font-family="sans-serif" font-size="14" lengthAdjust="spacing" textLength="39.6484" x="552.99" y="386.072">token</text><g data-visibility-modifier="PRIVATE_FIELD"><rect fill="none" height="6" style="stroke:#C82930;stroke-width:1;" width="6" x="540.99" y="396.0222"/></g><text fill="#000000" font-family="sans-serif" font-size="14" lengthAdjust="spacing" textLength="93.6592" x="552.99" y="402.3689">temporalidad</text><line style="stroke:#181818;stroke-width:0.5;" x1="533.99" x2="764.9002" y1="409.6706" y2="409.6706"/><g data-visibility-modifier="PUBLIC_METHOD"><ellipse cx="543.99" cy="423.3191" fill="#84BE84" rx="3" ry="3" style="stroke:#038048;stroke-width:1;"/></g><text fill="#000000" font-family="sans-serif" font-size="14" lengthAdjust="spacing" textLength="135.4063" x="552.99" y="426.6657">agregar(operacion)</text><g data-visibility-modifier="PUBLIC_METHOD"><ellipse cx="543.99" cy="439.6159" fill="#84BE84" rx="3" ry="3" style="stroke:#038048;stroke-width:1;"/></g><text fill="#000000" font-family="sans-serif" font-size="14" lengthAdjust="spacing" textLength="149.5635" x="552.99" y="442.9626">extraerClasificacion()</text><g data-visibility-modifier="PUBLIC_METHOD"><ellipse cx="543.99" cy="455.9128" fill="#84BE84" rx="3" ry="3" style="stroke:#038048;stroke-width:1;"/></g><text fill="#000000" font-family="sans-serif" font-size="14" lengthAdjust="spacing" textLength="206.9102" x="552.99" y="459.2595">purgarOperacionesAntiguas()</text></g><!--class OP--><g class="entity" data-qualified-name="OP" data-source-line="35" id="ent0007"><rect fill="#F1F1F1" height="48" rx="2.5" ry="2.5" style="stroke:#181818;stroke-width:0.5;" width="103.8799" x="565.5" y="526.56"/><ellipse cx="580.5" cy="542.56" fill="#ADD1B2" rx="11" ry="11" style="stroke:#181818;stroke-width:1;"/><path d="M583.4688,548.2006 Q582.8906,548.4975 582.25,548.6381 Q581.6094,548.7944 580.9063,548.7944 Q578.4063,548.7944 577.0781,547.1538 Q575.7656,545.4975 575.7656,542.3725 Q575.7656,539.2475 577.0781,537.5913 Q578.4063,535.935 580.9063,535.935 Q581.6094,535.935 582.25,536.0913 Q582.9063,536.2475 583.4688,536.5444 L583.4688,539.2631 Q582.8438,538.685 582.25,538.4194 Q581.6563,538.1381 581.0313,538.1381 Q579.6875,538.1381 579,539.2163 Q578.3125,540.2788 578.3125,542.3725 Q578.3125,544.4663 579,545.5444 Q579.6875,546.6069 581.0313,546.6069 Q581.6563,546.6069 582.25,546.3413 Q582.8438,546.06 583.4688,545.4819 L583.4688,548.2006 Z " fill="#000000"/><text fill="#000000" font-family="sans-serif" font-size="14" lengthAdjust="spacing" textLength="71.8799" x="594.5" y="547.4067">Operacion</text><line style="stroke:#181818;stroke-width:0.5;" x1="566.5" x2="668.3799" y1="558.56" y2="558.56"/><line style="stroke:#181818;stroke-width:0.5;" x1="566.5" x2="668.3799" y1="566.56" y2="566.56"/></g><!--class T--><g class="entity" data-qualified-name="T" data-source-line="36" id="ent0008"><rect fill="#F1F1F1" height="48" rx="2.5" ry="2.5" style="stroke:#181818;stroke-width:0.5;" width="74.7109" x="580.09" y="634.56"/><ellipse cx="595.09" cy="650.56" fill="#ADD1B2" rx="11" ry="11" style="stroke:#181818;stroke-width:1;"/><path d="M598.0588,656.2006 Q597.4806,656.4975 596.84,656.6381 Q596.1994,656.7944 595.4963,656.7944 Q592.9963,656.7944 591.6681,655.1538 Q590.3556,653.4975 590.3556,650.3725 Q590.3556,647.2475 591.6681,645.5913 Q592.9963,643.935 595.4963,643.935 Q596.1994,643.935 596.84,644.0913 Q597.4963,644.2475 598.0588,644.5444 L598.0588,647.2631 Q597.4338,646.685 596.84,646.4194 Q596.2463,646.1381 595.6213,646.1381 Q594.2775,646.1381 593.59,647.2163 Q592.9025,648.2788 592.9025,650.3725 Q592.9025,652.4663 593.59,653.5444 Q594.2775,654.6069 595.6213,654.6069 Q596.2463,654.6069 596.84,654.3413 Q597.4338,654.06 598.0588,653.4819 L598.0588,656.2006 Z " fill="#000000"/><text fill="#000000" font-family="sans-serif" font-size="14" lengthAdjust="spacing" textLength="42.7109" x="609.09" y="655.4067">Token</text><line style="stroke:#181818;stroke-width:0.5;" x1="581.09" x2="653.8009" y1="666.56" y2="666.56"/><line style="stroke:#181818;stroke-width:0.5;" x1="581.09" x2="653.8009" y1="674.56" y2="674.56"/></g><!--class M--><g class="entity" data-qualified-name="M" data-source-line="37" id="ent0009"><rect fill="#F1F1F1" height="48" rx="2.5" ry="2.5" style="stroke:#181818;stroke-width:0.5;" width="92.1768" x="571.35" y="742.56"/><ellipse cx="586.35" cy="758.56" fill="#ADD1B2" rx="11" ry="11" style="stroke:#181818;stroke-width:1;"/><path d="M589.3188,764.2006 Q588.7406,764.4975 588.1,764.6381 Q587.4594,764.7944 586.7563,764.7944 Q584.2563,764.7944 582.9281,763.1538 Q581.6156,761.4975 581.6156,758.3725 Q581.6156,755.2475 582.9281,753.5913 Q584.2563,751.935 586.7563,751.935 Q587.4594,751.935 588.1,752.0913 Q588.7563,752.2475 589.3188,752.5444 L589.3188,755.2631 Q588.6938,754.685 588.1,754.4194 Q587.5063,754.1381 586.8813,754.1381 Q585.5375,754.1381 584.85,755.2163 Q584.1625,756.2788 584.1625,758.3725 Q584.1625,760.4663 584.85,761.5444 Q585.5375,762.6069 586.8813,762.6069 Q587.5063,762.6069 588.1,762.3413 Q588.6938,762.06 589.3188,761.4819 L589.3188,764.2006 Z " fill="#000000"/><text fill="#000000" font-family="sans-serif" font-size="14" lengthAdjust="spacing" textLength="60.1768" x="600.35" y="763.4067">Mercado</text><line style="stroke:#181818;stroke-width:0.5;" x1="572.35" x2="662.5268" y1="774.56" y2="774.56"/><line style="stroke:#181818;stroke-width:0.5;" x1="572.35" x2="662.5268" y1="782.56" y2="782.56"/></g><!--class D--><g class="entity" data-qualified-name="D" data-source-line="38" id="ent0010"><rect fill="#F1F1F1" height="48" rx="2.5" ry="2.5" style="stroke:#181818;stroke-width:0.5;" width="97.7617" x="427.56" y="634.56"/><ellipse cx="442.56" cy="650.56" fill="#ADD1B2" rx="11" ry="11" style="stroke:#181818;stroke-width:1;"/><path d="M445.5288,656.2006 Q444.9506,656.4975 444.31,656.6381 Q443.6694,656.7944 442.9663,656.7944 Q440.4663,656.7944 439.1381,655.1538 Q437.8256,653.4975 437.8256,650.3725 Q437.8256,647.2475 439.1381,645.5913 Q440.4663,643.935 442.9663,643.935 Q443.6694,643.935 444.31,644.0913 Q444.9663,644.2475 445.5288,644.5444 L445.5288,647.2631 Q444.9038,646.685 444.31,646.4194 Q443.7163,646.1381 443.0913,646.1381 Q441.7475,646.1381 441.06,647.2163 Q440.3725,648.2788 440.3725,650.3725 Q440.3725,652.4663 441.06,653.5444 Q441.7475,654.6069 443.0913,654.6069 Q443.7163,654.6069 444.31,654.3413 Q444.9038,654.06 445.5288,653.4819 L445.5288,656.2006 Z " fill="#000000"/><text fill="#000000" font-family="sans-serif" font-size="14" lengthAdjust="spacing" textLength="65.7617" x="456.56" y="655.4067">Direccion</text><line style="stroke:#181818;stroke-width:0.5;" x1="428.56" x2="524.3217" y1="666.56" y2="666.56"/><line style="stroke:#181818;stroke-width:0.5;" x1="428.56" x2="524.3217" y1="674.56" y2="674.56"/></g><!--class E--><g class="entity" data-qualified-name="E" data-source-line="39" id="ent0011"><rect fill="#F1F1F1" height="48" rx="2.5" ry="2.5" style="stroke:#181818;stroke-width:0.5;" width="85.4502" x="412.72" y="526.56"/><ellipse cx="427.72" cy="542.56" fill="#ADD1B2" rx="11" ry="11" style="stroke:#181818;stroke-width:1;"/><path d="M430.6888,548.2006 Q430.1106,548.4975 429.47,548.6381 Q428.8294,548.7944 428.1263,548.7944 Q425.6263,548.7944 424.2981,547.1538 Q422.9856,545.4975 422.9856,542.3725 Q422.9856,539.2475 424.2981,537.5913 Q425.6263,535.935 428.1263,535.935 Q428.8294,535.935 429.47,536.0913 Q430.1263,536.2475 430.6888,536.5444 L430.6888,539.2631 Q430.0638,538.685 429.47,538.4194 Q428.8763,538.1381 428.2513,538.1381 Q426.9075,538.1381 426.22,539.2163 Q425.5325,540.2788 425.5325,542.3725 Q425.5325,544.4663 426.22,545.5444 Q426.9075,546.6069 428.2513,546.6069 Q428.8763,546.6069 429.47,546.3413 Q430.0638,546.06 430.6888,545.4819 L430.6888,548.2006 Z " fill="#000000"/><text fill="#000000" font-family="sans-serif" font-size="14" lengthAdjust="spacing" textLength="53.4502" x="441.72" y="547.4067">Entidad</text><line style="stroke:#181818;stroke-width:0.5;" x1="413.72" x2="497.1702" y1="558.56" y2="558.56"/><line style="stroke:#181818;stroke-width:0.5;" x1="413.72" x2="497.1702" y1="566.56" y2="566.56"/></g><!--link VL to GCL--><g class="link" data-entity-1="ent0002" data-entity-2="ent0004" data-link-type="dependency" data-source-line="41" id="lnk12"><path codeLine="41" d="M259.44,104.22 C259.44,123.11 259.44,138.7 259.44,157.58" fill="none" id="VL-to-GCL" style="stroke:#181818;stroke-width:1;stroke-dasharray:7,7;"/><polygon fill="#181818" points="259.44,163.58,263.44,154.58,259.44,158.58,255.44,154.58,259.44,163.58" style="stroke:#181818;stroke-width:1;"/><text fill="#000000" font-family="sans-serif" font-size="13" lengthAdjust="spacing" textLength="45.7729" x="213.44" y="129.9669">solicita</text></g><!--link GCL to CH--><g class="link" data-entity-1="ent0004" data-entity-2="ent0003" data-link-type="dependency" data-source-line="42" id="lnk13"><path codeLine="42" d="M194.12,260.93 C194.12,286.95 194.12,312.9 194.12,338.94" fill="none" id="GCL-to-CH" style="stroke:#181818;stroke-width:1;stroke-dasharray:7,7;"/><polygon fill="#181818" points="194.12,344.94,198.12,335.94,194.12,339.94,190.12,335.94,194.12,344.94" style="stroke:#181818;stroke-width:1;"/><text fill="#000000" font-family="sans-serif" font-size="13" lengthAdjust="spacing" textLength="54.1392" x="139.12" y="298.9969">suscribe</text></g><!--link CH to GCL--><g class="link" data-entity-1="ent0003" data-entity-2="ent0004" data-link-type="dependency" data-source-line="43" id="lnk14"><path codeLine="43" d="M138.36,345.07 C138.36,319.06 138.36,293.1 138.36,267.06" fill="none" id="CH-to-GCL" style="stroke:#181818;stroke-width:1;stroke-dasharray:7,7;"/><polygon fill="#181818" points="138.36,261.06,134.36,270.06,138.36,266.06,142.36,270.06,138.36,261.06" style="stroke:#181818;stroke-width:1;"/><text fill="#000000" font-family="sans-serif" font-size="13" lengthAdjust="spacing" textLength="52.9331" x="50.2023" y="284.1369">&#171;event&#187;</text><text fill="#000000" font-family="sans-serif" font-size="13" lengthAdjust="spacing" textLength="122.6177" x="15.36" y="299.2697">OperacionRecibida</text></g><!--link GCL to LEV--><g class="link" data-entity-1="ent0004" data-entity-2="ent0006" data-link-type="dependency" data-source-line="44" id="lnk15"><path codeLine="44" d="M385.75,260.94 C385.75,294.67 385.75,333.56 385.75,333.56 C385.75,333.56 456.1,333.56 526.63,333.56" fill="none" id="GCL-to-LEV" style="stroke:#181818;stroke-width:1;"/><polygon fill="#181818" points="532.63,333.56,523.63,329.56,527.63,333.56,523.63,337.56,532.63,333.56" style="stroke:#181818;stroke-width:1;"/><text fill="#000000" font-family="sans-serif" font-size="13" lengthAdjust="spacing" textLength="61.8135" x="360.88" y="329.6269">mantiene</text></g><!--link GCL to GCE--><g class="link" data-entity-1="ent0004" data-entity-2="ent0005" data-link-type="dependency" data-source-line="45" id="lnk16"><path codeLine="45" d="M335.22,260.93 C335.22,292.72 335.22,327.37 335.22,355.26" fill="none" id="GCL-to-GCE" style="stroke:#181818;stroke-width:1;stroke-dasharray:7,7;"/><polygon fill="#181818" points="335.22,361.26,339.22,352.26,335.22,356.26,331.22,352.26,335.22,361.26" style="stroke:#181818;stroke-width:1;"/><text fill="#000000" font-family="sans-serif" font-size="13" lengthAdjust="spacing" textLength="104.6538" x="230.22" y="307.1569">resolverNombre</text></g><!--reverse link LEV to OP--><g class="link" data-entity-1="ent0006" data-entity-2="ent0007" data-link-type="aggregation" data-source-line="46" id="lnk17"><path codeLine="46" d="M617.44,478.6 C617.44,500.05 617.44,510.05 617.44,526.14" fill="none" id="LEV-backto-OP" style="stroke:#181818;stroke-width:1;"/><polygon fill="none" points="617.44,466.6,613.44,472.6,617.44,478.6,621.44,472.6,617.44,466.6" style="stroke:#181818;stroke-width:1;"/></g><!--link OP to T--><g class="link" data-entity-1="ent0007" data-entity-2="ent0008" data-link-type="dependency" data-source-line="47" id="lnk18"><path codeLine="47" d="M617.44,574.8 C617.44,592.58 617.44,610.64 617.44,628.4" fill="none" id="OP-to-T" style="stroke:#181818;stroke-width:1;"/><polygon fill="#181818" points="617.44,634.4,621.44,625.4,617.44,629.4,613.44,625.4,617.44,634.4" style="stroke:#181818;stroke-width:1;"/></g><!--link OP to D--><g class="link" data-entity-1="ent0007" data-entity-2="ent0010" data-link-type="dependency" data-source-line="48" id="lnk19"><path codeLine="48" d="M575.72,574.8 C575.72,606.64 575.72,658.56 575.72,658.56 C575.72,658.56 556.71,658.56 531.79,658.56" fill="none" id="OP-to-D" style="stroke:#181818;stroke-width:1;"/><polygon fill="#181818" points="525.79,658.56,534.79,662.56,530.79,658.56,534.79,654.56,525.79,658.56" style="stroke:#181818;stroke-width:1;"/></g><!--link T to M--><g class="link" data-entity-1="ent0008" data-entity-2="ent0009" data-link-type="dependency" data-source-line="49" id="lnk20"><path codeLine="49" d="M617.44,682.8 C617.44,700.58 617.44,718.64 617.44,736.4" fill="none" id="T-to-M" style="stroke:#181818;stroke-width:1;"/><polygon fill="#181818" points="617.44,742.4,621.44,733.4,617.44,737.4,613.44,733.4,617.44,742.4" style="stroke:#181818;stroke-width:1;"/></g><!--reverse link E to D--><g class="link" data-entity-1="ent0011" data-entity-2="ent0010" data-link-type="aggregation" data-source-line="50" id="lnk21"><path codeLine="50" d="M462.86,586.8 C462.86,604.58 462.86,616.64 462.86,634.4" fill="none" id="E-backto-D" style="stroke:#181818;stroke-width:1;"/><polygon fill="none" points="462.86,574.8,458.86,580.8,462.86,586.8,466.86,580.8,462.86,574.8" style="stroke:#181818;stroke-width:1;"/></g><!--link GCE to E--><g class="link" data-entity-1="ent0005" data-entity-2="ent0011" data-link-type="dependency" data-source-line="51" id="lnk22"><path codeLine="51" d="M455.44,426.18 C455.44,455.98 455.44,493.43 455.44,520.3" fill="none" id="GCE-to-E" style="stroke:#181818;stroke-width:1;"/><polygon fill="#181818" points="455.44,526.3,459.44,517.3,455.44,521.3,451.44,517.3,455.44,526.3" style="stroke:#181818;stroke-width:1;"/></g><?plantuml-src ZLF1Rjim3BthAuIUF6pf1mI5WI4nsWB9MWn1Jhim4fDojIMFaejrm_vzb6ebRXjWyyMI-FZqI3w5Ht8zC7Iw9OVnkKVjEJvuzK0MTOZ8wDEfKgQ54FJ5baA45O95tdbWUw4XwErANrtj_E0iy7DTwzzAo_THzum1NGI-JrTWP1-g3sCCJ1oWfL_02s6cFHamv5sr9zaM4BczvmxurbaAlNUqevOiM67vSvIqy0vDz7mZEhcb7mEzg5hSd5SLXc1OcFXEyFbI35NqZ-ZAjHR_ZUc7NIkQJu2lQ2J1GkNxgRfh3A9DD8QXVT-vwqLgdV5EUjDED98ZGt1Cgpfa0zP_qbc3_B3hFKDkHb6q9pSsj6IPSN5xn7JWyFj_YuO8hJ_uniLq3uPHSdDMiipQjq_8NtotOwmiCPfqnPHtKdxZjlJaC-EgsGgZ68NYQKupFTOyxdBXPJsfljZfm7W0bZh6oah5-3Cou1kJdOR81vZE-BE8E0mGNXdi6Czgx-udOWjaazJbyEPCTFrIIOwlpyINfLSPiJo364UGuyqqhkJjNLxMsKXpBHCGtqHGQPkEvGtCY-5HoUw45P8deQdhR-wT7NB-R5RdqSoJQoAXmoDjyi3ypSHLmlhPJ1gaf4SfUrCMIxN9_xLgCcIf4aCwQVu2?></g></svg>