<svg xmlns="http://www.w3.org/2000/svg" xmlns:xlink="http://www.w3.org/1999/xlink" contentStyleType="text/css" data-diagram-type="SEQUENCE" height="650px" preserveAspectRatio="none" style="width:862px;height:650px;background:#FFFFFF;" version="1.1" viewBox="0 0 862 650" width="862px" zoomAndPan="magnify"><?plantuml 1.2026.3beta6?><defs/><g><rect fill="none" height="307.1328" style="stroke:#000000;stroke-width:1.5;" width="836.3936" x="10" y="243.9609"/><g class="participant-lifeline" data-entity-uid="part1" data-qualified-name="SW" data-source-line="1" id="part1-lifeline"><g><title>Servicio Webhook</title><rect fill="#000000" fill-opacity="0.00000" height="486.7969" width="8" x="81.7437" y="81.2969"/><line style="stroke:#181818;stroke-width:0.5;stroke-dasharray:5,5;" x1="85" x2="85" y1="81.2969" y2="568.0938"/></g></g><g class="participant-lifeline" data-entity-uid="part2" data-qualified-name="GEN" data-source-line="3" id="part2-lifeline"><g><title>GestorEnvioNotificacion</title><rect fill="#000000" fill-opacity="0.00000" height="486.7969" width="8" x="244.2686" y="81.2969"/><line style="stroke:#181818;stroke-width:0.5;stroke-dasharray:5,5;" x1="247.4873" x2="247.4873" y1="81.2969" y2="568.0938"/></g></g><g class="participant-lifeline" data-entity-uid="part3" data-qualified-name="CW" data-source-line="4" id="part3-lifeline"><g><title>ConectorWebhook</title><rect fill="#000000" fill-opacity="0.00000" height="486.7969" width="8" x="484.1396" y="81.2969"/><line style="stroke:#181818;stroke-width:0.5;stroke-dasharray:5,5;" x1="487.7451" x2="487.7451" y1="81.2969" y2="568.0938"/></g></g><g class="participant-lifeline" data-entity-uid="part4" data-qualified-name="AP" data-source-line="5" id="part4-lifeline"><g><title>AlertaPrecio</title><rect fill="#000000" fill-opacity="0.00000" height="486.7969" width="8" x="606.9683" y="81.2969"/><line style="stroke:#181818;stroke-width:0.5;stroke-dasharray:5,5;" x1="610.5342" x2="610.5342" y1="81.2969" y2="568.0938"/></g></g><g class="participant-lifeline" data-entity-uid="part5" data-qualified-name="W" data-source-line="6" id="part5-lifeline"><g><title>Webhook</title><rect fill="#000000" fill-opacity="0.00000" height="486.7969" width="8" x="698.1294" y="81.2969"/><line style="stroke:#181818;stroke-width:0.5;stroke-dasharray:5,5;" x1="701.4023" x2="701.4023" y1="81.2969" y2="568.0938"/></g></g><g class="participant-lifeline" data-entity-uid="part6" data-qualified-name="N" data-source-line="7" id="part6-lifeline"><g><title>Notificacion</title><rect fill="#000000" fill-opacity="0.00000" height="486.7969" width="8" x="788.125" y="81.2969"/><line style="stroke:#181818;stroke-width:0.5;stroke-dasharray:5,5;" x1="791.8564" x2="791.8564" y1="81.2969" y2="568.0938"/></g></g><g class="participant participant-head" data-entity-uid="part1" data-qualified-name="SW" data-source-line="1" id="part1-head"><text fill="#000000" font-family="sans-serif" font-size="14" lengthAdjust="spacing" textLength="125.4873" x="20" y="77.9951">Servicio Webhook</text><ellipse cx="85.7437" cy="13.5" fill="#E2E2F0" rx="8" ry="8" style="stroke:#181818;stroke-width:0.5;"/><path d="M85.7437,21.5 L85.7437,48.5 M72.7437,29.5 L98.7437,29.5 M85.7437,48.5 L72.7437,63.5 M85.7437,48.5 L98.7437,63.5" fill="none" style="stroke:#181818;stroke-width:0.5;"/></g><g class="participant participant-tail" data-entity-uid="part1" data-qualified-name="SW" data-source-line="1" id="part1-tail"><text fill="#000000" font-family="sans-serif" font-size="14" lengthAdjust="spacing" textLength="125.4873" x="20" y="580.0889">Servicio Webhook</text><ellipse cx="85.7437" cy="591.8906" fill="#E2E2F0" rx="8" ry="8" style="stroke:#181818;stroke-width:0.5;"/><path d="M85.7437,599.8906 L85.7437,626.8906 M72.7437,607.8906 L98.7437,607.8906 M85.7437,626.8906 L72.7437,641.8906 M85.7437,626.8906 L98.7437,641.8906" fill="none" style="stroke:#181818;stroke-width:0.5;"/></g><g class="participant participant-head" data-entity-uid="part2" data-qualified-name="GEN" data-source-line="3" id="part2-head"><text fill="#000000" font-family="sans-serif" font-size="14" lengthAdjust="spacing" textLength="167.5625" x="161.4873" y="77.9951">GestorEnvioNotificacion</text><ellipse cx="248.2686" cy="49" fill="#E2E2F0" rx="12" ry="12" style="stroke:#181818;stroke-width:0.5;"/><polygon fill="#181818" points="244.2686,37,250.2686,32,248.2686,37,250.2686,42,244.2686,37" style="stroke:#181818;stroke-width:1;"/></g><g class="participant participant-tail" data-entity-uid="part2" data-qualified-name="GEN" data-source-line="3" id="part2-tail"><text fill="#000000" font-family="sans-serif" font-size="14" lengthAdjust="spacing" textLength="167.5625" x="161.4873" y="580.0889">GestorEnvioNotificacion</text><ellipse cx="248.2686" cy="599.3906" fill="#E2E2F0" rx="12" ry="12" style="stroke:#181818;stroke-width:0.5;"/><polygon fill="#181818" points="244.2686,587.3906,250.2686,582.3906,248.2686,587.3906,250.2686,592.3906,244.2686,587.3906" style="stroke:#181818;stroke-width:1;"/></g><g class="participant participant-head" data-entity-uid="part3" data-qualified-name="CW" data-source-line="4" id="part3-head"><text fill="#000000" font-family="sans-serif" font-size="14" lengthAdjust="spacing" textLength="128.7891" x="420.7451" y="77.9951">ConectorWebhook</text><path d="M467.6396,37 L467.6396,61 M467.6396,49 L484.6396,49" fill="none" style="stroke:#181818;stroke-width:0.5;"/><ellipse cx="496.6396" cy="49" fill="#E2E2F0" rx="12" ry="12" style="stroke:#181818;stroke-width:0.5;"/></g><g class="participant participant-tail" data-entity-uid="part3" data-qualified-name="CW" data-source-line="4" id="part3-tail"><text fill="#000000" font-family="sans-serif" font-size="14" lengthAdjust="spacing" textLength="128.7891" x="420.7451" y="580.0889">ConectorWebhook</text><path d="M467.6396,587.3906 L467.6396,611.3906 M467.6396,599.3906 L484.6396,599.3906" fill="none" style="stroke:#181818;stroke-width:0.5;"/><ellipse cx="496.6396" cy="599.3906" fill="#E2E2F0" rx="12" ry="12" style="stroke:#181818;stroke-width:0.5;"/></g><g class="participant participant-head" data-entity-uid="part4" data-qualified-name="AP" data-source-line="5" id="part4-head"><text fill="#000000" font-family="sans-serif" font-size="14" lengthAdjust="spacing" textLength="84.8682" x="565.5342" y="77.9951">AlertaPrecio</text><ellipse cx="610.9683" cy="49" fill="#E2E2F0" rx="12" ry="12" style="stroke:#181818;stroke-width:0.5;"/><line style="stroke:#181818;stroke-width:0.5;" x1="598.9683" x2="622.9683" y1="63" y2="63"/></g><g class="participant participant-tail" data-entity-uid="part4" data-qualified-name="AP" data-source-line="5" id="part4-tail"><text fill="#000000" font-family="sans-serif" font-size="14" lengthAdjust="spacing" textLength="84.8682" x="565.5342" y="580.0889">AlertaPrecio</text><ellipse cx="610.9683" cy="599.3906" fill="#E2E2F0" rx="12" ry="12" style="stroke:#181818;stroke-width:0.5;"/><line style="stroke:#181818;stroke-width:0.5;" x1="598.9683" x2="622.9683" y1="613.3906" y2="613.3906"/></g><g class="participant participant-head" data-entity-uid="part5" data-qualified-name="W" data-source-line="6" id="part5-head"><text fill="#000000" font-family="sans-serif" font-size="14" lengthAdjust="spacing" textLength="65.4541" x="666.4023" y="77.9951">Webhook</text><ellipse cx="702.1294" cy="49" fill="#E2E2F0" rx="12" ry="12" style="stroke:#181818;stroke-width:0.5;"/><line style="stroke:#181818;stroke-width:0.5;" x1="690.1294" x2="714.1294" y1="63" y2="63"/></g><g class="participant participant-tail" data-entity-uid="part5" data-qualified-name="W" data-source-line="6" id="part5-tail"><text fill="#000000" font-family="sans-serif" font-size="14" lengthAdjust="spacing" textLength="65.4541" x="666.4023" y="580.0889">Webhook</text><ellipse cx="702.1294" cy="599.3906" fill="#E2E2F0" rx="12" ry="12" style="stroke:#181818;stroke-width:0.5;"/><line style="stroke:#181818;stroke-width:0.5;" x1="690.1294" x2="714.1294" y1="613.3906" y2="613.3906"/></g><g class="participant participant-head" data-entity-uid="part6" data-qualified-name="N" data-source-line="7" id="part6-head"><text fill="#000000" font-family="sans-serif" font-size="14" lengthAdjust="spacing" textLength="82.5371" x="747.8564" y="77.9951">Notificacion</text><ellipse cx="792.125" cy="49" fill="#E2E2F0" rx="12" ry="12" style="stroke:#181818;stroke-width:0.5;"/><line style="stroke:#181818;stroke-width:0.5;" x1="780.125" x2="804.125" y1="63" y2="63"/></g><g class="participant participant-tail" data-entity-uid="part6" data-qualified-name="N" data-source-line="7" id="part6-tail"><text fill="#000000" font-family="sans-serif" font-size="14" lengthAdjust="spacing" textLength="82.5371" x="747.8564" y="580.0889">Notificacion</text><ellipse cx="792.125" cy="599.3906" fill="#E2E2F0" rx="12" ry="12" style="stroke:#181818;stroke-width:0.5;"/><line style="stroke:#181818;stroke-width:0.5;" x1="780.125" x2="804.125" y1="613.3906" y2="613.3906"/></g><g class="message" data-entity-1="part2" data-entity-2="part4" data-source-line="9" id="msg1"><polygon fill="#181818" points="598.9683,108.4297,608.9683,112.4297,598.9683,116.4297,602.9683,112.4297" style="stroke:#181818;stroke-width:1;"/><line style="stroke:#181818;stroke-width:1;" x1="248.2686" x2="604.9683" y1="112.4297" y2="112.4297"/><text fill="#000000" font-family="sans-serif" font-size="13" lengthAdjust="spacing" textLength="73.0806" x="255.2686" y="107.3638">leer(alerta)</text></g><g class="message" data-entity-1="part2" data-entity-2="part5" data-source-line="10" id="msg2"><polygon fill="#181818" points="690.1294,137.5625,700.1294,141.5625,690.1294,145.5625,694.1294,141.5625" style="stroke:#181818;stroke-width:1;"/><line style="stroke:#181818;stroke-width:1;" x1="248.2686" x2="696.1294" y1="141.5625" y2="141.5625"/><text fill="#000000" font-family="sans-serif" font-size="13" lengthAdjust="spacing" textLength="93.6533" x="255.2686" y="136.4966">leer(webhook)</text></g><g class="message" data-entity-1="part2" data-entity-2="part6" data-source-line="11" id="msg3"><polygon fill="#181818" points="780.125,166.6953,790.125,170.6953,780.125,174.6953,784.125,170.6953" style="stroke:#181818;stroke-width:1;"/><line style="stroke:#181818;stroke-width:1;" x1="248.2686" x2="786.125" y1="170.6953" y2="170.6953"/><text fill="#000000" font-family="sans-serif" font-size="13" lengthAdjust="spacing" textLength="197.3232" x="255.2686" y="165.6294">crear(alerta, precio, webhook)</text></g><g class="message" data-entity-1="part2" data-entity-2="part3" data-source-line="12" id="msg4"><polygon fill="#181818" points="476.1396,195.8281,486.1396,199.8281,476.1396,203.8281,480.1396,199.8281" style="stroke:#181818;stroke-width:1;"/><line style="stroke:#181818;stroke-width:1;" x1="248.2686" x2="482.1396" y1="199.8281" y2="199.8281"/><text fill="#000000" font-family="sans-serif" font-size="13" lengthAdjust="spacing" textLength="215.8711" x="255.2686" y="194.7622">transmitir(notificacion, webhook)</text></g><g class="message" data-entity-1="part3" data-entity-2="part1" data-source-line="13" id="msg5"><polygon fill="#181818" points="96.7437,224.9609,86.7437,228.9609,96.7437,232.9609,92.7437,228.9609" style="stroke:#181818;stroke-width:1;"/><line style="stroke:#181818;stroke-width:1;" x1="90.7437" x2="487.1396" y1="228.9609" y2="228.9609"/><text fill="#000000" font-family="sans-serif" font-size="13" lengthAdjust="spacing" textLength="34.2646" x="102.7437" y="223.895">POST</text></g><path d="M10,243.9609 L74.4429,243.9609 L74.4429,251.0938 L64.4429,261.0938 L10,261.0938 L10,243.9609" fill="#EEEEEE" style="stroke:#000000;stroke-width:1.5;"/><rect fill="none" height="307.1328" style="stroke:#000000;stroke-width:1.5;" width="836.3936" x="10" y="243.9609"/><text fill="#000000" font-family="sans-serif" font-size="13" font-weight="700" lengthAdjust="spacing" textLength="19.4429" x="25" y="257.0278">alt</text><text fill="#000000" font-family="sans-serif" font-size="11" font-weight="700" lengthAdjust="spacing" textLength="144.4556" x="89.4429" y="256.1714">[confirmaci&#243;n recibida]</text><g class="message" data-entity-1="part1" data-entity-2="part3" data-source-line="15" id="msg6"><polygon fill="#181818" points="476.1396,278.2266,486.1396,282.2266,476.1396,286.2266,480.1396,282.2266" style="stroke:#181818;stroke-width:1;"/><line style="stroke:#181818;stroke-width:1;stroke-dasharray:2,2;" x1="85.7437" x2="482.1396" y1="282.2266" y2="282.2266"/><text fill="#000000" font-family="sans-serif" font-size="13" lengthAdjust="spacing" textLength="23.6577" x="92.7437" y="277.1606">2xx</text></g><g class="message" data-entity-1="part3" data-entity-2="part2" data-source-line="16" id="msg7"><polygon fill="#181818" points="259.2686,307.3594,249.2686,311.3594,259.2686,315.3594,255.2686,311.3594" style="stroke:#181818;stroke-width:1;"/><line style="stroke:#181818;stroke-width:1;stroke-dasharray:2,2;" x1="253.2686" x2="487.1396" y1="311.3594" y2="311.3594"/><text fill="#000000" font-family="sans-serif" font-size="13" lengthAdjust="spacing" textLength="67.1138" x="265.2686" y="306.2935">entregada</text></g><g class="message" data-entity-1="part2" data-entity-2="part6" data-source-line="17" id="msg8"><polygon fill="#181818" points="780.125,336.4922,790.125,340.4922,780.125,344.4922,784.125,340.4922" style="stroke:#181818;stroke-width:1;"/><line style="stroke:#181818;stroke-width:1;" x1="248.2686" x2="786.125" y1="340.4922" y2="340.4922"/><text fill="#000000" font-family="sans-serif" font-size="13" lengthAdjust="spacing" textLength="137.5728" x="255.2686" y="335.4263">marcar(ENTREGADA)</text></g><g class="message" data-entity-1="part2" data-entity-2="part4" data-source-line="18" id="msg9"><polygon fill="#181818" points="598.9683,365.625,608.9683,369.625,598.9683,373.625,602.9683,369.625" style="stroke:#181818;stroke-width:1;"/><line style="stroke:#181818;stroke-width:1;" x1="248.2686" x2="604.9683" y1="369.625" y2="369.625"/><text fill="#000000" font-family="sans-serif" font-size="13" lengthAdjust="spacing" textLength="130.3491" x="255.2686" y="364.5591">marcar(OPERATIVA)</text></g><line style="stroke:#000000;stroke-width:1;stroke-dasharray:2,2;" x1="10" x2="846.3936" y1="378.625" y2="378.625"/><text fill="#000000" font-family="sans-serif" font-size="11" font-weight="700" lengthAdjust="spacing" textLength="140.3682" x="15" y="388.8354">[error o sin respuesta]</text><g class="message" data-entity-1="part1" data-entity-2="part3" data-source-line="20" id="msg10"><polygon fill="#181818" points="476.1396,409.5625,486.1396,413.5625,476.1396,417.5625,480.1396,413.5625" style="stroke:#181818;stroke-width:1;"/><line style="stroke:#181818;stroke-width:1;stroke-dasharray:2,2;" x1="85.7437" x2="482.1396" y1="413.5625" y2="413.5625"/><text fill="#000000" font-family="sans-serif" font-size="13" lengthAdjust="spacing" textLength="95.291" x="92.7437" y="408.4966">error / timeout</text></g><g class="message" data-entity-1="part3" data-entity-2="part2" data-source-line="21" id="msg11"><polygon fill="#181818" points="259.2686,438.6953,249.2686,442.6953,259.2686,446.6953,255.2686,442.6953" style="stroke:#181818;stroke-width:1;"/><line style="stroke:#181818;stroke-width:1;stroke-dasharray:2,2;" x1="253.2686" x2="487.1396" y1="442.6953" y2="442.6953"/><text fill="#000000" font-family="sans-serif" font-size="13" lengthAdjust="spacing" textLength="27.7202" x="265.2686" y="437.6294">fallo</text></g><g class="message" data-entity-1="part2" data-entity-2="part6" data-source-line="22" id="msg12"><polygon fill="#181818" points="780.125,467.8281,790.125,471.8281,780.125,475.8281,784.125,471.8281" style="stroke:#181818;stroke-width:1;"/><line style="stroke:#181818;stroke-width:1;" x1="248.2686" x2="786.125" y1="471.8281" y2="471.8281"/><text fill="#000000" font-family="sans-serif" font-size="13" lengthAdjust="spacing" textLength="110.1699" x="255.2686" y="466.7622">marcar(FALLIDA)</text></g><g class="message" data-entity-1="part2" data-entity-2="part4" data-source-line="23" id="msg13"><polygon fill="#181818" points="598.9683,496.9609,608.9683,500.9609,598.9683,504.9609,602.9683,500.9609" style="stroke:#181818;stroke-width:1;"/><line style="stroke:#181818;stroke-width:1;" x1="248.2686" x2="604.9683" y1="500.9609" y2="500.9609"/><text fill="#000000" font-family="sans-serif" font-size="13" lengthAdjust="spacing" textLength="210.5518" x="255.2686" y="495.895">marcar(NOTIFICACION_FALLIDA)</text></g><g class="message" data-entity-1="part2" data-entity-2="part2" data-source-line="24" id="msg14"><line style="stroke:#181818;stroke-width:1;" x1="248.2686" x2="290.2686" y1="530.0938" y2="530.0938"/><line style="stroke:#181818;stroke-width:1;" x1="290.2686" x2="290.2686" y1="530.0938" y2="543.0938"/><line style="stroke:#181818;stroke-width:1;" x1="249.2686" x2="290.2686" y1="543.0938" y2="543.0938"/><polygon fill="#181818" points="259.2686,539.0938,249.2686,543.0938,259.2686,547.0938,255.2686,543.0938" style="stroke:#181818;stroke-width:1;"/><text fill="#000000" font-family="sans-serif" font-size="13" lengthAdjust="spacing" textLength="132.7993" x="255.2686" y="525.0278">programar reintento</text></g><path d="M399.7993,517.4609 L399.7993,542.4609 L621.7993,542.4609 L621.7993,527.4609 L611.7993,517.4609 L399.7993,517.4609" fill="#FEFFDD" style="stroke:#181818;stroke-width:0.5;"/><path d="M611.7993,517.4609 L611.7993,527.4609 L621.7993,527.4609 L611.7993,517.4609" fill="#FEFFDD" style="stroke:#181818;stroke-width:0.5;"/><text fill="#000000" font-family="sans-serif" font-size="13" lengthAdjust="spacing" textLength="201.5381" x="405.7993" y="534.5278">&#171;extend&#187; reintentoNotificaci&#243;n</text><?plantuml-src VPBHRe9044NVzoicF6bYqwIFnfWGYeR4015I7fiLHjqKTismMljT_OJ-M0SG9RKjZtlFlNEPNPbRG-0aI2ULAmCPRlR6l3aWQqWo8NAZBPaId2NMJFhwf4nehDggN3AlMt3fXs9ZZhgGz06EPpGsgSCeBnEehR8ikoMIbJ4XsrlDZQ_Qq79ptCqBXU2Hy31dBqoXHAIHR6F7lP3rv-zTv5K8MSW9PU-OmA6jCe6VfDTaM9AwhfHLDDA36WEQCOQJ1ewZ91MojC1Rsogg6FtwrD3aRrGX1V37u4CV_dG-jsTUTzRCdGB_DU5ENl11wqfIphNzC5txI_VP7G-1TX4N8ehzjPi6BqnWMICW4T-nWLerNUh3aQ_olan7FO9L5PgZlI-sbMLf_YYrS5Uhu9zAOPG6Yy1plI0ANt-3kn47CZkIxE6UIbjUHJUGLuz0QhVlQW7CPdXckPZFR-JjcV3IMuw1rielgVW6?></g></svg>