<svg xmlns="http://www.w3.org/2000/svg" xmlns:xlink="http://www.w3.org/1999/xlink" contentStyleType="text/css" data-diagram-type="CLASS" height="654px" preserveAspectRatio="none" style="width:713px;height:654px;background:#FFFFFF;" version="1.1" viewBox="0 0 713 654" width="713px" zoomAndPan="magnify"><?plantuml 1.2026.3beta6?><defs/><g><!--class VA--><g class="entity" data-qualified-name="VA" data-source-line="4" id="ent0002"><rect fill="#F1F1F1" height="129.4844" rx="2.5" ry="2.5" style="stroke:#181818;stroke-width:0.5;" width="295.0557" x="179.36" y="7"/><ellipse cx="280.6242" cy="23" fill="#ADD1B2" rx="11" ry="11" style="stroke:#181818;stroke-width:1;"/><path d="M283.5929,28.6406 Q283.0148,28.9375 282.3742,29.0781 Q281.7335,29.2344 281.0304,29.2344 Q278.5304,29.2344 277.2023,27.5938 Q275.8898,25.9375 275.8898,22.8125 Q275.8898,19.6875 277.2023,18.0313 Q278.5304,16.375 281.0304,16.375 Q281.7335,16.375 282.3742,16.5313 Q283.0304,16.6875 283.5929,16.9844 L283.5929,19.7031 Q282.9679,19.125 282.3742,18.8594 Q281.7804,18.5781 281.1554,18.5781 Q279.8117,18.5781 279.1242,19.6563 Q278.4367,20.7188 278.4367,22.8125 Q278.4367,24.9063 279.1242,25.9844 Q279.8117,27.0469 281.1554,27.0469 Q281.7804,27.0469 282.3742,26.7813 Q282.9679,26.5 283.5929,25.9219 L283.5929,28.6406 Z " fill="#000000"/><text fill="#000000" font-family="sans-serif" font-size="14" lengthAdjust="spacing" textLength="84.0273" x="301.1242" y="27.8467">VistaAlertas</text><line style="stroke:#181818;stroke-width:0.5;" x1="180.36" x2="473.4157" y1="39" y2="39"/><line style="stroke:#181818;stroke-width:0.5;" x1="180.36" x2="473.4157" y1="47" y2="47"/><g data-visibility-modifier="PUBLIC_METHOD"><ellipse cx="190.36" cy="60.6484" fill="#84BE84" rx="3" ry="3" style="stroke:#038048;stroke-width:1;"/></g><text fill="#000000" font-family="sans-serif" font-size="14" lengthAdjust="spacing" textLength="236.0176" x="199.36" y="63.9951">presentarRelacionAlertas(alertas)</text><g data-visibility-modifier="PUBLIC_METHOD"><ellipse cx="190.36" cy="76.9453" fill="#84BE84" rx="3" ry="3" style="stroke:#038048;stroke-width:1;"/></g><text fill="#000000" font-family="sans-serif" font-size="14" lengthAdjust="spacing" textLength="196.2529" x="199.36" y="80.292">presentarFormularioAlerta()</text><g data-visibility-modifier="PUBLIC_METHOD"><ellipse cx="190.36" cy="93.2422" fill="#84BE84" rx="3" ry="3" style="stroke:#038048;stroke-width:1;"/></g><text fill="#000000" font-family="sans-serif" font-size="14" lengthAdjust="spacing" textLength="159.0039" x="199.36" y="96.5889">solicitarConfirmacion()</text><g data-visibility-modifier="PUBLIC_METHOD"><ellipse cx="190.36" cy="109.5391" fill="#84BE84" rx="3" ry="3" style="stroke:#038048;stroke-width:1;"/></g><text fill="#000000" font-family="sans-serif" font-size="14" lengthAdjust="spacing" textLength="181.0156" x="199.36" y="112.8857">informarConflicto(motivo)</text><g data-visibility-modifier="PUBLIC_METHOD"><ellipse cx="190.36" cy="125.8359" fill="#84BE84" rx="3" ry="3" style="stroke:#038048;stroke-width:1;"/></g><text fill="#000000" font-family="sans-serif" font-size="14" lengthAdjust="spacing" textLength="269.0557" x="199.36" y="129.1826">informarAdvertenciaWebhook(motivo)</text></g><!--class GAP--><g class="entity" data-qualified-name="GAP" data-source-line="12" id="ent0003"><rect fill="#F1F1F1" height="178.375" rx="2.5" ry="2.5" style="stroke:#181818;stroke-width:0.5;" width="285.3623" x="184.2" y="196.48"/><ellipse cx="253.2669" cy="212.48" fill="#ADD1B2" rx="11" ry="11" style="stroke:#181818;stroke-width:1;"/><path d="M256.2356,218.1206 Q255.6575,218.4175 255.0169,218.5581 Q254.3763,218.7144 253.6731,218.7144 Q251.1731,218.7144 249.845,217.0738 Q248.5325,215.4175 248.5325,212.2925 Q248.5325,209.1675 249.845,207.5113 Q251.1731,205.855 253.6731,205.855 Q254.3763,205.855 255.0169,206.0113 Q255.6731,206.1675 256.2356,206.4644 L256.2356,209.1831 Q255.6106,208.605 255.0169,208.3394 Q254.4231,208.0581 253.7981,208.0581 Q252.4544,208.0581 251.7669,209.1363 Q251.0794,210.1988 251.0794,212.2925 Q251.0794,214.3863 251.7669,215.4644 Q252.4544,216.5269 253.7981,216.5269 Q254.4231,216.5269 255.0169,216.2613 Q255.6106,215.98 256.2356,215.4019 L256.2356,218.1206 Z " fill="#000000"/><text fill="#000000" font-family="sans-serif" font-size="14" lengthAdjust="spacing" textLength="138.7285" x="273.7669" y="217.3267">GestorAlertasPrecio</text><line style="stroke:#181818;stroke-width:0.5;" x1="185.2" x2="468.5623" y1="228.48" y2="228.48"/><line style="stroke:#181818;stroke-width:0.5;" x1="185.2" x2="468.5623" y1="236.48" y2="236.48"/><g data-visibility-modifier="PUBLIC_METHOD"><ellipse cx="195.2" cy="250.1284" fill="#84BE84" rx="3" ry="3" style="stroke:#038048;stroke-width:1;"/></g><text fill="#000000" font-family="sans-serif" font-size="14" lengthAdjust="spacing" textLength="259.3623" x="204.2" y="253.4751">crearAlerta(token, umbral, webhook)</text><g data-visibility-modifier="PUBLIC_METHOD"><ellipse cx="195.2" cy="266.4253" fill="#84BE84" rx="3" ry="3" style="stroke:#038048;stroke-width:1;"/></g><text fill="#000000" font-family="sans-serif" font-size="14" lengthAdjust="spacing" textLength="127.5381" x="204.2" y="269.772">listarAlertas(filtro)</text><g data-visibility-modifier="PUBLIC_METHOD"><ellipse cx="195.2" cy="282.7222" fill="#84BE84" rx="3" ry="3" style="stroke:#038048;stroke-width:1;"/></g><text fill="#000000" font-family="sans-serif" font-size="14" lengthAdjust="spacing" textLength="238.0205" x="204.2" y="286.0689">editarAlerta(alertaId, parametros)</text><g data-visibility-modifier="PUBLIC_METHOD"><ellipse cx="195.2" cy="299.0191" fill="#84BE84" rx="3" ry="3" style="stroke:#038048;stroke-width:1;"/></g><text fill="#000000" font-family="sans-serif" font-size="14" lengthAdjust="spacing" textLength="163.8779" x="204.2" y="302.3657">eliminarAlerta(alertaId)</text><g data-visibility-modifier="PUBLIC_METHOD"><ellipse cx="195.2" cy="315.3159" fill="#84BE84" rx="3" ry="3" style="stroke:#038048;stroke-width:1;"/></g><text fill="#000000" font-family="sans-serif" font-size="14" lengthAdjust="spacing" textLength="226.8506" x="204.2" y="318.6626">recuperarOperativasPara(token)</text><g data-visibility-modifier="PUBLIC_METHOD"><ellipse cx="195.2" cy="331.6128" fill="#84BE84" rx="3" ry="3" style="stroke:#038048;stroke-width:1;"/></g><text fill="#000000" font-family="sans-serif" font-size="14" lengthAdjust="spacing" textLength="226.625" x="204.2" y="334.9595">marcarComoDisparada(alertaId)</text><g data-visibility-modifier="PUBLIC_METHOD"><ellipse cx="195.2" cy="347.9097" fill="#84BE84" rx="3" ry="3" style="stroke:#038048;stroke-width:1;"/></g><text fill="#000000" font-family="sans-serif" font-size="14" lengthAdjust="spacing" textLength="163.4268" x="204.2" y="351.2564">rearmarAlerta(alertaId)</text><g data-visibility-modifier="PUBLIC_METHOD"><ellipse cx="195.2" cy="364.2066" fill="#84BE84" rx="3" ry="3" style="stroke:#038048;stroke-width:1;"/></g><text fill="#000000" font-family="sans-serif" font-size="14" lengthAdjust="spacing" textLength="243.1543" x="204.2" y="367.5532">marcarNotificacionFallida(alertaId)</text></g><!--class CW--><g class="entity" data-qualified-name="CW" data-source-line="23" id="ent0004"><rect fill="#F1F1F1" height="64.2969" rx="2.5" ry="2.5" style="stroke:#181818;stroke-width:0.5;" width="277.7676" x="7" y="443.01"/><ellipse cx="77.2393" cy="459.01" fill="#ADD1B2" rx="11" ry="11" style="stroke:#181818;stroke-width:1;"/><path d="M80.208,464.6506 Q79.6299,464.9475 78.9893,465.0881 Q78.3486,465.2444 77.6455,465.2444 Q75.1455,465.2444 73.8174,463.6038 Q72.5049,461.9475 72.5049,458.8225 Q72.5049,455.6975 73.8174,454.0413 Q75.1455,452.385 77.6455,452.385 Q78.3486,452.385 78.9893,452.5413 Q79.6455,452.6975 80.208,452.9944 L80.208,455.7131 Q79.583,455.135 78.9893,454.8694 Q78.3955,454.5881 77.7705,454.5881 Q76.4268,454.5881 75.7393,455.6663 Q75.0518,456.7288 75.0518,458.8225 Q75.0518,460.9163 75.7393,461.9944 Q76.4268,463.0569 77.7705,463.0569 Q78.3955,463.0569 78.9893,462.7913 Q79.583,462.51 80.208,461.9319 L80.208,464.6506 Z " fill="#000000"/><text fill="#000000" font-family="sans-serif" font-size="14" lengthAdjust="spacing" textLength="128.7891" x="97.7393" y="463.8567">ConectorWebhook</text><line style="stroke:#181818;stroke-width:0.5;" x1="8" x2="283.7676" y1="475.01" y2="475.01"/><line style="stroke:#181818;stroke-width:0.5;" x1="8" x2="283.7676" y1="483.01" y2="483.01"/><g data-visibility-modifier="PUBLIC_METHOD"><ellipse cx="18" cy="496.6584" fill="#84BE84" rx="3" ry="3" style="stroke:#038048;stroke-width:1;"/></g><text fill="#000000" font-family="sans-serif" font-size="14" lengthAdjust="spacing" textLength="251.7676" x="27" y="500.0051">comprobarAlcanzabilidad(webhook)</text></g><!--class AP--><g class="entity" data-qualified-name="AP" data-source-line="27" id="ent0005"><rect fill="#F1F1F1" height="80.5938" rx="2.5" ry="2.5" style="stroke:#181818;stroke-width:0.5;" width="378.4609" x="319.65" y="434.86"/><ellipse cx="462.1964" cy="450.86" fill="#ADD1B2" rx="11" ry="11" style="stroke:#181818;stroke-width:1;"/><path d="M465.1651,456.5006 Q464.587,456.7975 463.9464,456.9381 Q463.3058,457.0944 462.6026,457.0944 Q460.1026,457.0944 458.7745,455.4538 Q457.462,453.7975 457.462,450.6725 Q457.462,447.5475 458.7745,445.8913 Q460.1026,444.235 462.6026,444.235 Q463.3058,444.235 463.9464,444.3913 Q464.6026,444.5475 465.1651,444.8444 L465.1651,447.5631 Q464.5401,446.985 463.9464,446.7194 Q463.3526,446.4381 462.7276,446.4381 Q461.3839,446.4381 460.6964,447.5163 Q460.0089,448.5788 460.0089,450.6725 Q460.0089,452.7663 460.6964,453.8444 Q461.3839,454.9069 462.7276,454.9069 Q463.3526,454.9069 463.9464,454.6413 Q464.5401,454.36 465.1651,453.7819 L465.1651,456.5006 Z " fill="#000000"/><text fill="#000000" font-family="sans-serif" font-size="14" lengthAdjust="spacing" textLength="84.8682" x="482.6964" y="455.7067">AlertaPrecio</text><line style="stroke:#181818;stroke-width:0.5;" x1="320.65" x2="697.1109" y1="466.86" y2="466.86"/><g data-visibility-modifier="PRIVATE_FIELD"><rect fill="none" height="6" style="stroke:#C82930;stroke-width:1;" width="6" x="327.65" y="477.5084"/></g><text fill="#000000" font-family="sans-serif" font-size="14" lengthAdjust="spacing" textLength="49.6221" x="339.65" y="483.8551">umbral</text><g data-visibility-modifier="PRIVATE_FIELD"><rect fill="none" height="6" style="stroke:#C82930;stroke-width:1;" width="6" x="327.65" y="493.8053"/></g><text fill="#000000" font-family="sans-serif" font-size="14" lengthAdjust="spacing" textLength="352.4609" x="339.65" y="500.152">estado: Operativa | Disparada | NotificacionFallida</text><line style="stroke:#181818;stroke-width:0.5;" x1="320.65" x2="697.1109" y1="507.4538" y2="507.4538"/></g><!--class T--><g class="entity" data-qualified-name="T" data-source-line="32" id="ent0006"><rect fill="#F1F1F1" height="48" rx="2.5" ry="2.5" style="stroke:#181818;stroke-width:0.5;" width="74.7109" x="410.53" y="583.6"/><ellipse cx="425.53" cy="599.6" fill="#ADD1B2" rx="11" ry="11" style="stroke:#181818;stroke-width:1;"/><path d="M428.4988,605.2406 Q427.9206,605.5375 427.28,605.6781 Q426.6394,605.8344 425.9363,605.8344 Q423.4363,605.8344 422.1081,604.1938 Q420.7956,602.5375 420.7956,599.4125 Q420.7956,596.2875 422.1081,594.6313 Q423.4363,592.975 425.9363,592.975 Q426.6394,592.975 427.28,593.1313 Q427.9363,593.2875 428.4988,593.5844 L428.4988,596.3031 Q427.8738,595.725 427.28,595.4594 Q426.6863,595.1781 426.0613,595.1781 Q424.7175,595.1781 424.03,596.2563 Q423.3425,597.3188 423.3425,599.4125 Q423.3425,601.5063 424.03,602.5844 Q424.7175,603.6469 426.0613,603.6469 Q426.6863,603.6469 427.28,603.3813 Q427.8738,603.1 428.4988,602.5219 L428.4988,605.2406 Z " fill="#000000"/><text fill="#000000" font-family="sans-serif" font-size="14" lengthAdjust="spacing" textLength="42.7109" x="439.53" y="604.4467">Token</text><line style="stroke:#181818;stroke-width:0.5;" x1="411.53" x2="484.2409" y1="615.6" y2="615.6"/><line style="stroke:#181818;stroke-width:0.5;" x1="411.53" x2="484.2409" y1="623.6" y2="623.6"/></g><!--class W--><g class="entity" data-qualified-name="W" data-source-line="33" id="ent0007"><rect fill="#F1F1F1" height="64.2969" rx="2.5" ry="2.5" style="stroke:#181818;stroke-width:0.5;" width="97.4541" x="520.16" y="575.45"/><ellipse cx="535.16" cy="591.45" fill="#ADD1B2" rx="11" ry="11" style="stroke:#181818;stroke-width:1;"/><path d="M538.1288,597.0906 Q537.5506,597.3875 536.91,597.5281 Q536.2694,597.6844 535.5663,597.6844 Q533.0663,597.6844 531.7381,596.0438 Q530.4256,594.3875 530.4256,591.2625 Q530.4256,588.1375 531.7381,586.4813 Q533.0663,584.825 535.5663,584.825 Q536.2694,584.825 536.91,584.9813 Q537.5663,585.1375 538.1288,585.4344 L538.1288,588.1531 Q537.5038,587.575 536.91,587.3094 Q536.3163,587.0281 535.6913,587.0281 Q534.3475,587.0281 533.66,588.1063 Q532.9725,589.1688 532.9725,591.2625 Q532.9725,593.3563 533.66,594.4344 Q534.3475,595.4969 535.6913,595.4969 Q536.3163,595.4969 536.91,595.2313 Q537.5038,594.95 538.1288,594.3719 L538.1288,597.0906 Z " fill="#000000"/><text fill="#000000" font-family="sans-serif" font-size="14" lengthAdjust="spacing" textLength="65.4541" x="549.16" y="596.2967">Webhook</text><line style="stroke:#181818;stroke-width:0.5;" x1="521.16" x2="616.6141" y1="607.45" y2="607.45"/><g data-visibility-modifier="PRIVATE_FIELD"><rect fill="none" height="6" style="stroke:#C82930;stroke-width:1;" width="6" x="528.16" y="618.0984"/></g><text fill="#000000" font-family="sans-serif" font-size="14" lengthAdjust="spacing" textLength="18.5186" x="540.16" y="624.4451">url</text><line style="stroke:#181818;stroke-width:0.5;" x1="521.16" x2="616.6141" y1="631.7469" y2="631.7469"/></g><!--link VA to GAP--><g class="link" data-entity-1="ent0002" data-entity-2="ent0003" data-link-type="dependency" data-source-line="37" id="lnk8"><path codeLine="37" d="M326.88,136.8 C326.88,155.48 326.88,170.2 326.88,190.08" fill="none" id="VA-to-GAP" style="stroke:#181818;stroke-width:1;stroke-dasharray:7,7;"/><polygon fill="#181818" points="326.88,196.08,330.88,187.08,326.88,191.08,322.88,187.08,326.88,196.08" style="stroke:#181818;stroke-width:1;"/></g><!--link GAP to CW--><g class="link" data-entity-1="ent0003" data-entity-2="ent0004" data-link-type="dependency" data-source-line="38" id="lnk9"><path codeLine="38" d="M234.49,375.14 C234.49,399.29 234.49,417.9 234.49,436.66" fill="none" id="GAP-to-CW" style="stroke:#181818;stroke-width:1;stroke-dasharray:7,7;"/><polygon fill="#181818" points="234.49,442.66,238.49,433.66,234.49,437.66,230.49,433.66,234.49,442.66" style="stroke:#181818;stroke-width:1;"/><text fill="#000000" font-family="sans-serif" font-size="13" lengthAdjust="spacing" textLength="39.1016" x="167.5786" y="389.9669">valida</text><text fill="#000000" font-family="sans-serif" font-size="13" lengthAdjust="spacing" textLength="93.2788" x="140.49" y="405.0997">alcanzabilidad</text></g><!--link GAP to AP--><g class="link" data-entity-1="ent0003" data-entity-2="ent0005" data-link-type="dependency" data-source-line="39" id="lnk10"><path codeLine="39" d="M394.61,375.14 C394.61,396.03 394.61,411.26 394.61,428.76" fill="none" id="GAP-to-AP" style="stroke:#181818;stroke-width:1;"/><polygon fill="#181818" points="394.61,434.76,398.61,425.76,394.61,429.76,390.61,425.76,394.61,434.76" style="stroke:#181818;stroke-width:1;"/></g><!--link AP to T--><g class="link" data-entity-1="ent0005" data-entity-2="ent0006" data-link-type="dependency" data-source-line="40" id="lnk11"><path codeLine="40" d="M447.88,515.61 C447.88,537.68 447.88,558.26 447.88,577.16" fill="none" id="AP-to-T" style="stroke:#181818;stroke-width:1;"/><polygon fill="#181818" points="447.88,583.16,451.88,574.16,447.88,578.16,443.88,574.16,447.88,583.16" style="stroke:#181818;stroke-width:1;"/></g><!--link AP to W--><g class="link" data-entity-1="ent0005" data-entity-2="ent0007" data-link-type="dependency" data-source-line="41" id="lnk12"><path codeLine="41" d="M568.88,515.61 C568.88,534.78 568.88,551.37 568.88,569.36" fill="none" id="AP-to-W" style="stroke:#181818;stroke-width:1;"/><polygon fill="#181818" points="568.88,575.36,572.88,566.36,568.88,570.36,564.88,566.36,568.88,575.36" style="stroke:#181818;stroke-width:1;"/></g><?plantuml-src RLFBRkCm3BpxAuIUlDYa7r0K0O8kKknbMnH1SzaBBJC84LaqA2MBllvzAVaHjxKFjcoEPZX3EHp9jo3G64SUuqkBXYKUk3XGZIP45EJqjIYiWn3CrJE526k74Y5S6GZcUMrkRoi--HhaPRKoRuNHwwTf1GFw2FA43YonxpULq3r_VCLjM9gJ0o7kaEM02Ep8aYBksEz9cimsLidlTMDNL5paik58P_vQNzTdPKLl2NPO7PYF8_1ZT7UF8RBqdJuAgb8sURz-L9UMVHHs4vDM47fu6Vc8Vc5EJINW5kPV9pAquL9k0tEv9wTCGmrh6cjzFB_hXSbpGSMDMQ6ZXlmtw53MVayj2iX3kgitzQ0SNMS3IAEmAQs6Vr584lKS4UJ8vcKwXZyQtfvi7iO6dADFF9T8TIweKv4-z1pdtMx-p5XkMk4gALlmhr1HegtBCSiBRTVRP4HvGdgGA5uOb_qq-XSTBjHyOyPupBiPGz3rZAM9uZQbcAMs4wMXEhMtc-r4N2BJt-NwUfKEL94ELLfh6ZVc34dkhuTFpZDckLofkw9VROV5xZy0?></g></svg>