<svg xmlns="http://www.w3.org/2000/svg" xmlns:xlink="http://www.w3.org/1999/xlink" contentStyleType="text/css" data-diagram-type="DESCRIPTION" height="358px" preserveAspectRatio="none" style="width:901px;height:358px;background:#FFFFFF;" version="1.1" viewBox="0 0 901 358" width="901px" zoomAndPan="magnify"><?plantuml 1.2026.3beta6?><defs/><g><!--cluster S--><g class="cluster" data-qualified-name="S" data-source-line="9" id="ent0005"><rect fill="none" height="337" rx="2.5" ry="2.5" style="stroke:#181818;stroke-width:1;" width="559.15" x="154.54" y="7"/><text fill="#000000" font-family="sans-serif" font-size="14" font-weight="700" lengthAdjust="spacing" textLength="63.4375" x="402.3963" y="21.9951">Sistema</text></g><!--entity PRES--><g class="entity" data-qualified-name="S.PRES" data-source-line="10" id="ent0006"><path d="M173.04,79.05 L226.7275,79.05 A3.75,3.75 0 0 1 229.2275,81.55 L236.2275,101.3469 L288.7255,101.3469 A2.5,2.5 0 0 1 291.2255,103.8469 L291.2255,148.4406 A2.5,2.5 0 0 1 288.7255,150.9406 L173.04,150.9406 A2.5,2.5 0 0 1 170.54,148.4406 L170.54,81.55 A2.5,2.5 0 0 1 173.04,79.05" fill="#F1F1F1" style="stroke:#181818;stroke-width:0.5;"/><line style="stroke:#181818;stroke-width:0.5;" x1="170.54" x2="236.2275" y1="101.3469" y2="101.3469"/><text fill="#000000" font-family="sans-serif" font-size="14" font-weight="700" lengthAdjust="spacing" textLength="40.6875" x="180.54" y="95.0451">PRES</text><text fill="#000000" font-family="sans-serif" font-size="14" lengthAdjust="spacing" textLength="49.8408" x="200.9624" y="121.342">S-PRES</text><text fill="#000000" font-family="sans-serif" font-size="14" lengthAdjust="spacing" textLength="90.6855" x="180.54" y="137.6389">Presentaci&#243;n</text></g><!--entity INGE--><g class="entity" data-qualified-name="S.INGE" data-source-line="11" id="ent0007"><path d="M186.08,210.05 L237.0605,210.05 A3.75,3.75 0 0 1 239.5605,212.55 L246.5605,232.3469 L275.6933,232.3469 A2.5,2.5 0 0 1 278.1933,234.8469 L278.1933,279.4406 A2.5,2.5 0 0 1 275.6933,281.9406 L186.08,281.9406 A2.5,2.5 0 0 1 183.58,279.4406 L183.58,212.55 A2.5,2.5 0 0 1 186.08,210.05" fill="#F1F1F1" style="stroke:#181818;stroke-width:0.5;"/><line style="stroke:#181818;stroke-width:0.5;" x1="183.58" x2="246.5605" y1="232.3469" y2="232.3469"/><text fill="#000000" font-family="sans-serif" font-size="14" font-weight="700" lengthAdjust="spacing" textLength="37.9805" x="193.58" y="226.0451">INGE</text><text fill="#000000" font-family="sans-serif" font-size="14" lengthAdjust="spacing" textLength="48.2344" x="201.7695" y="252.342">S-INGE</text><text fill="#000000" font-family="sans-serif" font-size="14" lengthAdjust="spacing" textLength="64.6133" x="193.58" y="268.6389">Ingesti&#243;n</text></g><!--entity NOTI--><g class="entity" data-qualified-name="S.NOTI" data-source-line="12" id="ent0008"><path d="M587.65,256.05 L639.027,256.05 A3.75,3.75 0 0 1 641.527,258.55 L648.527,278.3469 L695.1871,278.3469 A2.5,2.5 0 0 1 697.6871,280.8469 L697.6871,325.4406 A2.5,2.5 0 0 1 695.1871,327.9406 L587.65,327.9406 A2.5,2.5 0 0 1 585.15,325.4406 L585.15,258.55 A2.5,2.5 0 0 1 587.65,256.05" fill="#F1F1F1" style="stroke:#181818;stroke-width:0.5;"/><line style="stroke:#181818;stroke-width:0.5;" x1="585.15" x2="648.527" y1="278.3469" y2="278.3469"/><text fill="#000000" font-family="sans-serif" font-size="14" font-weight="700" lengthAdjust="spacing" textLength="38.377" x="595.15" y="272.0451">NOTI</text><text fill="#000000" font-family="sans-serif" font-size="14" lengthAdjust="spacing" textLength="48.1113" x="612.3629" y="298.342">S-NOTI</text><text fill="#000000" font-family="sans-serif" font-size="14" lengthAdjust="spacing" textLength="82.5371" x="595.15" y="314.6389">Notificaci&#243;n</text></g><!--entity LEAD--><g class="entity" data-qualified-name="S.LEAD" data-source-line="14" id="ent0009"><path d="M407.73,79.05 L461.6704,79.05 A3.75,3.75 0 0 1 464.1704,81.55 L471.1704,101.3469 L521.6519,101.3469 A2.5,2.5 0 0 1 524.1519,103.8469 L524.1519,148.4406 A2.5,2.5 0 0 1 521.6519,150.9406 L407.73,150.9406 A2.5,2.5 0 0 1 405.23,148.4406 L405.23,81.55 A2.5,2.5 0 0 1 407.73,79.05" fill="#F1F1F1" style="stroke:#181818;stroke-width:0.5;"/><line style="stroke:#181818;stroke-width:0.5;" x1="405.23" x2="471.1704" y1="101.3469" y2="101.3469"/><text fill="#000000" font-family="sans-serif" font-size="14" font-weight="700" lengthAdjust="spacing" textLength="40.9404" x="415.23" y="95.0451">LEAD</text><text fill="#000000" font-family="sans-serif" font-size="14" lengthAdjust="spacing" textLength="50.9414" x="434.2202" y="121.342">S-LEAD</text><text fill="#000000" font-family="sans-serif" font-size="14" lengthAdjust="spacing" textLength="88.9219" x="415.23" y="137.6389">Leaderboard</text></g><!--entity CATA--><g class="entity" data-qualified-name="S.CATA" data-source-line="15" id="ent0010"><path d="M597.75,42.05 L652.2441,42.05 A3.75,3.75 0 0 1 654.7441,44.55 L661.7441,64.3469 L685.0801,64.3469 A2.5,2.5 0 0 1 687.5801,66.8469 L687.5801,111.4406 A2.5,2.5 0 0 1 685.0801,113.9406 L597.75,113.9406 A2.5,2.5 0 0 1 595.25,111.4406 L595.25,44.55 A2.5,2.5 0 0 1 597.75,42.05" fill="#F1F1F1" style="stroke:#181818;stroke-width:0.5;"/><line style="stroke:#181818;stroke-width:0.5;" x1="595.25" x2="661.7441" y1="64.3469" y2="64.3469"/><text fill="#000000" font-family="sans-serif" font-size="14" font-weight="700" lengthAdjust="spacing" textLength="41.4941" x="605.25" y="58.0451">CATA</text><text fill="#000000" font-family="sans-serif" font-size="14" lengthAdjust="spacing" textLength="51.4199" x="610.7051" y="84.342">S-CATA</text><text fill="#000000" font-family="sans-serif" font-size="14" lengthAdjust="spacing" textLength="62.3301" x="605.25" y="100.6389">Cat&#225;logo</text></g><!--entity ALER--><g class="entity" data-qualified-name="S.ALER" data-source-line="16" id="ent0011"><path d="M602.87,149.05 L655.9696,149.05 A3.75,3.75 0 0 1 658.4696,151.55 L665.4696,171.3469 L679.9696,171.3469 A2.5,2.5 0 0 1 682.4696,173.8469 L682.4696,218.4406 A2.5,2.5 0 0 1 679.9696,220.9406 L602.87,220.9406 A2.5,2.5 0 0 1 600.37,218.4406 L600.37,151.55 A2.5,2.5 0 0 1 602.87,149.05" fill="#F1F1F1" style="stroke:#181818;stroke-width:0.5;"/><line style="stroke:#181818;stroke-width:0.5;" x1="600.37" x2="665.4696" y1="171.3469" y2="171.3469"/><text fill="#000000" font-family="sans-serif" font-size="14" font-weight="700" lengthAdjust="spacing" textLength="40.0996" x="610.37" y="165.0451">ALER</text><text fill="#000000" font-family="sans-serif" font-size="14" lengthAdjust="spacing" textLength="49.8887" x="610.37" y="191.342">S-ALER</text><text fill="#000000" font-family="sans-serif" font-size="14" lengthAdjust="spacing" textLength="49.1982" x="610.7152" y="207.6389">Alertas</text></g><!--entity EVAL--><g class="entity" data-qualified-name="S.EVAL" data-source-line="17" id="ent0012"><path d="M414.15,231.05 L467.3043,231.05 A3.75,3.75 0 0 1 469.8043,233.55 L476.8043,253.3469 L515.2271,253.3469 A2.5,2.5 0 0 1 517.7271,255.8469 L517.7271,300.4406 A2.5,2.5 0 0 1 515.2271,302.9406 L414.15,302.9406 A2.5,2.5 0 0 1 411.65,300.4406 L411.65,233.55 A2.5,2.5 0 0 1 414.15,231.05" fill="#F1F1F1" style="stroke:#181818;stroke-width:0.5;"/><line style="stroke:#181818;stroke-width:0.5;" x1="411.65" x2="476.8043" y1="253.3469" y2="253.3469"/><text fill="#000000" font-family="sans-serif" font-size="14" font-weight="700" lengthAdjust="spacing" textLength="40.1543" x="421.65" y="247.0451">EVAL</text><text fill="#000000" font-family="sans-serif" font-size="14" lengthAdjust="spacing" textLength="49.7383" x="434.8194" y="273.342">S-EVAL</text><text fill="#000000" font-family="sans-serif" font-size="14" lengthAdjust="spacing" textLength="76.0771" x="421.65" y="289.6389">Evaluaci&#243;n</text></g><!--entity U--><g class="entity" data-qualified-name="U" data-source-line="5" id="ent0002"><ellipse cx="56.7721" cy="85.35" fill="#F1F1F1" rx="8" ry="8" style="stroke:#181818;stroke-width:0.5;"/><path d="M56.7721,93.35 L56.7721,120.35 M43.7721,101.35 L69.7721,101.35 M56.7721,120.35 L43.7721,135.35 M56.7721,120.35 L69.7721,135.35" fill="none" style="stroke:#181818;stroke-width:0.5;"/><text fill="#000000" font-family="sans-serif" font-size="14" lengthAdjust="spacing" textLength="53.2041" x="30.17" y="149.8451">Usuario</text></g><!--entity HL--><g class="entity" data-qualified-name="HL" data-source-line="6" id="ent0003"><ellipse cx="56.7705" cy="216.35" fill="#F1F1F1" rx="8" ry="8" style="stroke:#181818;stroke-width:0.5;"/><path d="M56.7705,224.35 L56.7705,251.35 M43.7705,232.35 L69.7705,232.35 M56.7705,251.35 L43.7705,266.35 M56.7705,251.35 L69.7705,266.35" fill="none" style="stroke:#181818;stroke-width:0.5;"/><text fill="#000000" font-family="sans-serif" font-size="14" lengthAdjust="spacing" textLength="101.541" x="6" y="280.8451">Hyperliquid L1</text></g><!--entity SW--><g class="entity" data-qualified-name="SW" data-source-line="7" id="ent0004"><ellipse cx="823.4337" cy="262.35" fill="#F1F1F1" rx="8" ry="8" style="stroke:#181818;stroke-width:0.5;"/><path d="M823.4337,270.35 L823.4337,297.35 M810.4337,278.35 L836.4337,278.35 M823.4337,297.35 L810.4337,312.35 M823.4337,297.35 L836.4337,312.35" fill="none" style="stroke:#181818;stroke-width:0.5;"/><text fill="#000000" font-family="sans-serif" font-size="14" lengthAdjust="spacing" textLength="125.4873" x="760.69" y="326.8451">Servicio Webhook</text></g><!--link U to PRES--><g class="link" data-entity-1="ent0002" data-entity-2="ent0006" data-link-type="dependency" data-source-line="20" id="lnk13"><path d="M83.54,115 C106.42,115 134.73,115 164.38,115" fill="none" id="U-to-PRES" style="stroke:#181818;stroke-width:1;"/><polygon fill="#181818" points="170.38,115,161.38,111,165.38,115,161.38,119,170.38,115" style="stroke:#181818;stroke-width:1;"/></g><!--link HL to INGE--><g class="link" data-entity-1="ent0003" data-entity-2="ent0007" data-link-type="dependency" data-source-line="21" id="lnk14"><path d="M108.02,246 C131.73,246 153.86,246 177.12,246" fill="none" id="HL-to-INGE" style="stroke:#181818;stroke-width:1;"/><polygon fill="#181818" points="183.12,246,174.12,242,178.12,246,174.12,250,183.12,246" style="stroke:#181818;stroke-width:1;"/></g><!--link NOTI to SW--><g class="link" data-entity-1="ent0008" data-entity-2="ent0004" data-link-type="dependency" data-source-line="22" id="lnk15"><path d="M697.9,292 C717.63,292 733.97,292 754.22,292" fill="none" id="NOTI-to-SW" style="stroke:#181818;stroke-width:1;"/><polygon fill="#181818" points="760.22,292,751.22,288,755.22,292,751.22,296,760.22,292" style="stroke:#181818;stroke-width:1;"/></g><!--link PRES to LEAD--><g class="link" data-entity-1="ent0006" data-entity-2="ent0009" data-link-type="dependency" data-source-line="24" id="lnk16"><path d="M291.58,115 C326.46,115 364.29,115 399,115" fill="none" id="PRES-to-LEAD" style="stroke:#181818;stroke-width:1;stroke-dasharray:7,7;"/><polygon fill="#181818" points="405,115,396,111,400,115,396,119,405,115" style="stroke:#181818;stroke-width:1;"/></g><!--link PRES to CATA--><g class="link" data-entity-1="ent0006" data-entity-2="ent0010" data-link-type="dependency" data-source-line="25" id="lnk17"><path d="M291.44,114.2969 C324.42,102.7869 366.48,67.79 405.23,62 C457.5,54.19 471.42,58.39 524.15,62 C547.63,63.61 567.6583,66.1172 589.0783,69.3772" fill="none" id="PRES-to-CATA" style="stroke:#181818;stroke-width:1;stroke-dasharray:7,7;"/><polygon fill="#181818" points="595.01,70.28,586.7143,64.9714,590.0669,69.5277,585.5106,72.8803,595.01,70.28" style="stroke:#181818;stroke-width:1;"/></g><!--link PRES to ALER--><g class="link" data-entity-1="ent0006" data-entity-2="ent0011" data-link-type="dependency" data-source-line="26" id="lnk18"><path d="M291.62,136.9 C324.66,148.08 366.71,160.81 405.23,168 C472.84,180.61 547.001,183.8831 594.121,184.7231" fill="none" id="PRES-to-ALER" style="stroke:#181818;stroke-width:1;stroke-dasharray:7,7;"/><polygon fill="#181818" points="600.12,184.83,591.1927,180.6702,595.1208,184.7409,591.0501,188.6689,600.12,184.83" style="stroke:#181818;stroke-width:1;"/></g><!--link INGE to LEAD--><g class="link" data-entity-1="ent0007" data-entity-2="ent0009" data-link-type="dependency" data-source-line="27" id="lnk19"><path d="M278.51,241.9469 C314.87,221.3969 360.3666,173.3924 399.5366,151.2524" fill="none" id="INGE-to-LEAD" style="stroke:#181818;stroke-width:1;stroke-dasharray:7,7;"/><polygon fill="#181818" points="404.76,148.3,394.9567,149.2463,400.4072,150.7603,398.8932,156.2108,404.76,148.3" style="stroke:#181818;stroke-width:1;"/><text fill="#000000" font-family="sans-serif" font-size="13" lengthAdjust="spacing" textLength="52.9331" x="322.23" y="165.0669">&#171;event&#187;</text></g><!--link INGE to EVAL--><g class="link" data-entity-1="ent0007" data-entity-2="ent0012" data-link-type="dependency" data-source-line="28" id="lnk20"><path d="M278.25,260.93 C291.94,264.66 307.06,268.13 321.23,270 C350.9,273.92 378.3601,273.8079 405.3901,272.2379" fill="none" id="INGE-to-EVAL" style="stroke:#181818;stroke-width:1;stroke-dasharray:7,7;"/><polygon fill="#181818" points="411.38,271.89,402.1632,268.4186,406.3884,272.1799,402.6271,276.4051,411.38,271.89" style="stroke:#181818;stroke-width:1;"/><text fill="#000000" font-family="sans-serif" font-size="13" lengthAdjust="spacing" textLength="52.9331" x="322.23" y="266.0669">&#171;event&#187;</text></g><!--link EVAL to ALER--><g class="link" data-entity-1="ent0012" data-entity-2="ent0011" data-link-type="dependency" data-source-line="29" id="lnk21"><path d="M518.11,264.6969 C544.35,252.3769 570.1886,217.9595 594.5386,206.5295" fill="none" id="EVAL-to-ALER" style="stroke:#181818;stroke-width:1;stroke-dasharray:7,7;"/><polygon fill="#181818" points="599.97,203.98,590.1232,204.1834,595.4438,206.1046,593.5226,211.4252,599.97,203.98" style="stroke:#181818;stroke-width:1;"/></g><!--link EVAL to NOTI--><g class="link" data-entity-1="ent0012" data-entity-2="ent0008" data-link-type="dependency" data-source-line="30" id="lnk22"><path d="M518.11,274.5 C539.12,277.51 557.4208,280.118 578.7508,283.178" fill="none" id="EVAL-to-NOTI" style="stroke:#181818;stroke-width:1;stroke-dasharray:7,7;"/><polygon fill="#181818" points="584.69,284.03,576.3492,278.7925,579.7407,283.32,575.2132,286.7114,584.69,284.03" style="stroke:#181818;stroke-width:1;"/></g><!--link LEAD to CATA--><g class="link" data-entity-1="ent0009" data-entity-2="ent0010" data-link-type="dependency" data-source-line="31" id="lnk23"><path d="M524.36,102.58 C547.36,97.71 567.47,93.4421 589.02,88.8821" fill="none" id="LEAD-to-CATA" style="stroke:#181818;stroke-width:1;stroke-dasharray:7,7;"/><polygon fill="#181818" points="594.89,87.64,585.2569,85.5898,589.9983,88.6751,586.913,93.4165,594.89,87.64" style="stroke:#181818;stroke-width:1;"/></g><?plantuml-src NP71Ri8m38RlUGgBEqYxJgXInQg1L354OLnoCQqf4I5XIK13qnvcpx17uCMMfAD0Suh__uljs7Odr04Dxk60vGvhAjnP4XWg7QfQ4jkAYi0wCgJT-K1CqiQ1qs14lNLGYK0AhHZ3qca3lQKzeX6w1sXXUHN7_gMHukCeAiYVeZVEOJYaJvzOeKoIArcGEObIQ5ZHUglrBhB5wf5b_xrwNFZMzjXGyCN0dvlPdyspWgkP8KlAOIaklogYGU-oa-bhnjL4rMHT2mQn2qxV5XEkfjg9ZIZlaWQTTU4yIr-uoWahCckDfefeKBlaA5saN8tGNNwahfi11gtBfNasvogLP1pQI0MbIsNlQSvLTa9vl6ingEoRiINq-qap1R-7S8yV3J-8KR5YBBWm62HDisqKMsgZM3gyRKbu3hiw-NdxHRLEAFpWHA7Dq4PnXZ7DjTOV?></g></svg>