<svg xmlns="http://www.w3.org/2000/svg" xmlns:xlink="http://www.w3.org/1999/xlink" contentStyleType="text/css" data-diagram-type="CLASS" height="543px" preserveAspectRatio="none" style="width:588px;height:543px;background:#FFFFFF;" version="1.1" viewBox="0 0 588 543" width="588px" zoomAndPan="magnify"><?plantuml 1.2026.3beta6?><defs/><g><rect fill="#F1F1F1" height="52.5938" rx="2.5" ry="2.5" style="stroke:#181818;stroke-width:0.5;" width="123.0381" x="51.74" y="136.59"/><text fill="#000000" font-family="sans-serif" font-size="14" font-weight="700" lengthAdjust="spacing" textLength="103.0381" x="61.74" y="151.5851">presentacion</text><rect fill="#F1F1F1" height="52.5938" rx="2.5" ry="2.5" style="stroke:#181818;stroke-width:0.5;" width="93.6914" x="384.41" y="7"/><text fill="#000000" font-family="sans-serif" font-size="14" font-weight="700" lengthAdjust="spacing" textLength="73.6914" x="394.41" y="21.9951">ingestion</text><rect fill="#F1F1F1" height="52.5938" rx="2.5" ry="2.5" style="stroke:#181818;stroke-width:0.5;" width="116.1748" x="151.17" y="250.19"/><text fill="#000000" font-family="sans-serif" font-size="14" font-weight="700" lengthAdjust="spacing" textLength="96.1748" x="161.17" y="265.1851">leaderboard</text><rect fill="#F1F1F1" height="52.5938" rx="2.5" ry="2.5" style="stroke:#181818;stroke-width:0.5;" width="87.9424" x="72.28" y="363.78"/><text fill="#000000" font-family="sans-serif" font-size="14" font-weight="700" lengthAdjust="spacing" textLength="67.9424" x="82.28" y="378.7751">catalogo</text><rect fill="#F1F1F1" height="52.5938" rx="2.5" ry="2.5" style="stroke:#181818;stroke-width:0.5;" width="75.1182" x="302.7" y="250.19"/><text fill="#000000" font-family="sans-serif" font-size="14" font-weight="700" lengthAdjust="spacing" textLength="55.1182" x="312.7" y="265.1851">alertas</text><rect fill="#F1F1F1" height="52.5938" rx="2.5" ry="2.5" style="stroke:#181818;stroke-width:0.5;" width="104.9639" x="378.77" y="136.59"/><text fill="#000000" font-family="sans-serif" font-size="14" font-weight="700" lengthAdjust="spacing" textLength="84.9639" x="388.77" y="151.5851">evaluacion</text><rect fill="#F1F1F1" height="52.5938" rx="2.5" ry="2.5" style="stroke:#181818;stroke-width:0.5;" width="112.3945" x="337.06" y="363.78"/><text fill="#000000" font-family="sans-serif" font-size="14" font-weight="700" lengthAdjust="spacing" textLength="92.3945" x="347.06" y="378.7751">notificacion</text><rect fill="#F1F1F1" height="52.5938" rx="2.5" ry="2.5" style="stroke:#181818;stroke-width:0.5;" width="83.4102" x="242.55" y="477.38"/><text fill="#000000" font-family="sans-serif" font-size="14" font-weight="700" lengthAdjust="spacing" textLength="63.4102" x="252.55" y="492.3751">dominio</text><!--link PRES to LEAD--><g class="link" data-entity-1="ent0002" data-entity-2="ent0004" data-link-type="dependency" data-source-line="27" id="lnk10"><path codeLine="27" d="M135.28,189.49 C150.89,207.64 167.8382,227.3305 183.4182,245.4505" fill="none" id="PRES-to-LEAD" style="stroke:#181818;stroke-width:1;stroke-dasharray:7,7;"/><polygon fill="#181818" points="187.33,250,184.4953,240.5679,184.0702,246.2087,178.4293,245.7836,187.33,250" style="stroke:#181818;stroke-width:1;"/></g><!--link PRES to CATA--><g class="link" data-entity-1="ent0002" data-entity-2="ent0005" data-link-type="dependency" data-source-line="28" id="lnk11"><path codeLine="28" d="M113.59,189.29 C114.17,232.53 115.2612,314.0105 115.8312,357.4305" fill="none" id="PRES-to-CATA" style="stroke:#181818;stroke-width:1;stroke-dasharray:7,7;"/><polygon fill="#181818" points="115.91,363.43,119.7915,354.3783,115.8444,358.4304,111.7922,354.4833,115.91,363.43" style="stroke:#181818;stroke-width:1;"/></g><!--link PRES to ALER--><g class="link" data-entity-1="ent0002" data-entity-2="ent0006" data-link-type="dependency" data-source-line="29" id="lnk12"><path codeLine="29" d="M165.62,189.63 C207.39,210.17 259.5157,235.7925 296.9357,254.1925" fill="none" id="PRES-to-ALER" style="stroke:#181818;stroke-width:1;stroke-dasharray:7,7;"/><polygon fill="#181818" points="302.32,256.84,296.0086,249.2792,297.8331,254.6337,292.4785,256.4582,302.32,256.84" style="stroke:#181818;stroke-width:1;"/></g><!--link INGE to LEAD--><g class="link" data-entity-1="ent0003" data-entity-2="ent0004" data-link-type="dependency" data-source-line="31" id="lnk13"><path codeLine="31" d="M395.14,60.01 C369.16,79.44 334.11,107.64 307.26,136.59 C273.74,172.73 245.3896,215.717 227.5396,244.787" fill="none" id="INGE-to-LEAD" style="stroke:#181818;stroke-width:1;stroke-dasharray:7,7;"/><polygon fill="#181818" points="224.4,249.9,232.5181,244.3235,227.0163,245.6391,225.7007,240.1374,224.4,249.9" style="stroke:#181818;stroke-width:1;"/><text fill="#000000" font-family="sans-serif" font-size="13" lengthAdjust="spacing" textLength="52.9331" x="308.26" y="167.4569">&#171;event&#187;</text></g><!--link INGE to EVAL--><g class="link" data-entity-1="ent0003" data-entity-2="ent0007" data-link-type="dependency" data-source-line="32" id="lnk14"><path codeLine="32" d="M431.26,59.81 C431.26,82.07 431.26,108.18 431.26,130.42" fill="none" id="INGE-to-EVAL" style="stroke:#181818;stroke-width:1;stroke-dasharray:7,7;"/><polygon fill="#181818" points="431.26,136.42,435.26,127.42,431.26,131.42,427.26,127.42,431.26,136.42" style="stroke:#181818;stroke-width:1;"/><text fill="#000000" font-family="sans-serif" font-size="13" lengthAdjust="spacing" textLength="52.9331" x="432.26" y="102.6569">&#171;event&#187;</text></g><!--link LEAD to CATA--><g class="link" data-entity-1="ent0004" data-entity-2="ent0005" data-link-type="dependency" data-source-line="34" id="lnk15"><path codeLine="34" d="M187.92,303.09 C172.8,321.23 156.4311,340.8707 141.3311,358.9907" fill="none" id="LEAD-to-CATA" style="stroke:#181818;stroke-width:1;stroke-dasharray:7,7;"/><polygon fill="#181818" points="137.49,363.6,146.3245,359.2467,140.6909,359.7589,140.1788,354.1253,137.49,363.6" style="stroke:#181818;stroke-width:1;"/></g><!--link EVAL to ALER--><g class="link" data-entity-1="ent0007" data-entity-2="ent0006" data-link-type="dependency" data-source-line="35" id="lnk16"><path codeLine="35" d="M410.38,189.49 C395.58,207.64 379.6009,227.2293 364.8309,245.3493" fill="none" id="EVAL-to-ALER" style="stroke:#181818;stroke-width:1;stroke-dasharray:7,7;"/><polygon fill="#181818" points="361.04,250,369.8268,245.5512,364.1991,246.1244,363.6259,240.4967,361.04,250" style="stroke:#181818;stroke-width:1;"/></g><!--link EVAL to NOTI--><g class="link" data-entity-1="ent0007" data-entity-2="ent0008" data-link-type="dependency" data-source-line="36" id="lnk17"><path codeLine="36" d="M426.97,189.29 C419.67,232.53 405.9088,314.0937 398.5788,357.5137" fill="none" id="EVAL-to-NOTI" style="stroke:#181818;stroke-width:1;stroke-dasharray:7,7;"/><polygon fill="#181818" points="397.58,363.43,403.0223,355.2214,398.4123,358.4998,395.134,353.8897,397.58,363.43" style="stroke:#181818;stroke-width:1;"/></g><!--link ALER to NOTI--><g class="link" data-entity-1="ent0006" data-entity-2="ent0008" data-link-type="dependency" data-source-line="37" id="lnk18"><path codeLine="37" d="M352.42,303.09 C361.03,321.23 369.9774,340.0595 378.5774,358.1795" fill="none" id="ALER-to-NOTI" style="stroke:#181818;stroke-width:1;stroke-dasharray:7,7;"/><polygon fill="#181818" points="381.15,363.6,380.9047,353.7542,379.0061,359.0829,373.6774,357.1844,381.15,363.6" style="stroke:#181818;stroke-width:1;"/></g><!--link LEAD to DOM--><g class="link" data-entity-1="ent0004" data-entity-2="ent0009" data-link-type="dependency" data-source-line="39" id="lnk19"><path codeLine="39" d="M217.71,302.88 C232.12,346.13 259.3542,427.9174 273.8142,471.3374" fill="none" id="LEAD-to-DOM" style="stroke:#181818;stroke-width:1;stroke-dasharray:7,7;"/><polygon fill="#181818" points="275.71,477.03,276.6614,467.2272,274.1302,472.2861,269.0712,469.7549,275.71,477.03" style="stroke:#181818;stroke-width:1;"/></g><!--link CATA to DOM--><g class="link" data-entity-1="ent0005" data-entity-2="ent0009" data-link-type="dependency" data-source-line="40" id="lnk20"><path codeLine="40" d="M146.59,416.8 C158.89,426.78 173.44,438.04 187.26,447.38 C204.76,459.21 219.7004,468.0846 237.1004,477.7146" fill="none" id="CATA-to-DOM" style="stroke:#181818;stroke-width:1;stroke-dasharray:7,7;"/><polygon fill="#181818" points="242.35,480.62,236.4125,472.7621,237.9753,478.1988,232.5386,479.7617,242.35,480.62" style="stroke:#181818;stroke-width:1;"/></g><!--link ALER to DOM--><g class="link" data-entity-1="ent0006" data-entity-2="ent0009" data-link-type="dependency" data-source-line="41" id="lnk21"><path codeLine="41" d="M333.94,302.88 C323.19,346.13 302.8783,427.7874 292.0783,471.2074" fill="none" id="ALER-to-DOM" style="stroke:#181818;stroke-width:1;stroke-dasharray:7,7;"/><polygon fill="#181818" points="290.63,477.03,296.6841,469.2616,291.8369,472.1778,288.9207,467.3306,290.63,477.03" style="stroke:#181818;stroke-width:1;"/></g><!--link EVAL to DOM--><g class="link" data-entity-1="ent0007" data-entity-2="ent0009" data-link-type="dependency" data-source-line="42" id="lnk22"><path codeLine="42" d="M445.23,189.5 C469.54,237.9 512.9,344.39 467.26,416.38 C436.41,465.03 375.8478,485.5076 332.0878,494.8476" fill="none" id="EVAL-to-DOM" style="stroke:#181818;stroke-width:1;stroke-dasharray:7,7;"/><polygon fill="#181818" points="326.22,496.1,335.8567,498.1333,331.1099,495.0563,334.1868,490.3095,326.22,496.1" style="stroke:#181818;stroke-width:1;"/></g><!--link NOTI to DOM--><g class="link" data-entity-1="ent0008" data-entity-2="ent0009" data-link-type="dependency" data-source-line="43" id="lnk23"><path codeLine="43" d="M368.25,416.68 C350.52,434.83 331.0314,454.7767 313.3414,472.8967" fill="none" id="NOTI-to-DOM" style="stroke:#181818;stroke-width:1;stroke-dasharray:7,7;"/><polygon fill="#181818" points="309.15,477.19,318.2993,473.5443,312.6428,473.6123,312.5749,467.9558,309.15,477.19" style="stroke:#181818;stroke-width:1;"/></g><!--link INGE to DOM--><g class="link" data-entity-1="ent0003" data-entity-2="ent0009" data-link-type="dependency" data-source-line="44" id="lnk24"><path codeLine="44" d="M478.54,53.44 C519.85,73.66 573.26,109.86 573.26,161.89 C573.26,161.89 573.26,161.89 573.26,391.08 C573.26,443.38 412.3293,479.5355 332.1793,494.4055" fill="none" id="INGE-to-DOM" style="stroke:#181818;stroke-width:1;stroke-dasharray:7,7;"/><polygon fill="#181818" points="326.28,495.5,335.8587,497.7912,331.1961,494.5879,334.3993,489.9254,326.28,495.5" style="stroke:#181818;stroke-width:1;"/></g><!--link PRES to DOM--><g class="link" data-entity-1="ent0002" data-entity-2="ent0009" data-link-type="dependency" data-source-line="45" id="lnk25"><path codeLine="45" d="M95.23,189.65 C63.61,238.29 6,345.18 55.26,416.38 C97.44,477.35 182.5384,494.7064 236.2584,499.9564" fill="none" id="PRES-to-DOM" style="stroke:#181818;stroke-width:1;stroke-dasharray:7,7;"/><polygon fill="#181818" points="242.23,500.54,233.6617,495.6836,237.2537,500.0537,232.8836,503.6456,242.23,500.54" style="stroke:#181818;stroke-width:1;"/></g><?plantuml-src NP3HYi8m44NVynN13_035Ya43OlGLL7nVJQTBS4qAKaKPDb_jnctYUJnz9uEzoPSjHt1my17K5VeyHGV1hb75S7s1Xdx_yuNeyU0DeBIpYuu17uuoXF_PNzlZhOzXZWBszsdh0I3qA7_Tk0xKbefDfMY889nlQDyBSwYoi6WZn0e5gqyLZ7UmTnAINaHRMLO5_MFLiNPxS_RokdSeAr-TTZilruf3Luk6sfTA7Kib2enHjDdbN_mrGhlq-CrJKcesNl2oCqNASyNCwMoZ7PdAZzELHazsGnPJ91l9A3HC-HI2VAK2Pu0?></g></svg>