<svg xmlns="http://www.w3.org/2000/svg" xmlns:xlink="http://www.w3.org/1999/xlink" contentStyleType="text/css" data-diagram-type="SEQUENCE" height="599px" preserveAspectRatio="none" style="width:1035px;height:599px;background:#FFFFFF;" version="1.1" viewBox="0 0 1035 599" width="1035px" zoomAndPan="magnify"><?plantuml 1.2026.3beta6?><defs/><g><rect fill="none" height="198.6016" style="stroke:#000000;stroke-width:1.5;" width="561.2363" x="458.7085" y="301.2266"/><rect fill="none" height="138.3359" style="stroke:#000000;stroke-width:1.5;" width="541.2363" x="468.7085" y="354.4922"/><g class="participant-lifeline" data-entity-uid="part1" data-qualified-name="HL" data-source-line="1" id="part1-lifeline"><g><title>Hyperliquid L1</title><rect fill="#000000" fill-opacity="0.00000" height="435.5313" width="8" x="54.7705" y="81.2969"/><line style="stroke:#181818;stroke-width:0.5;stroke-dasharray:5,5;" x1="58" x2="58" y1="81.2969" y2="516.8281"/></g></g><g class="participant-lifeline" data-entity-uid="part2" data-qualified-name="CH" data-source-line="3" id="part2-lifeline"><g><title>ConectorHyperliquid</title><rect fill="#000000" fill-opacity="0.00000" height="435.5313" width="8" x="328.6396" y="81.2969"/><line style="stroke:#181818;stroke-width:0.5;stroke-dasharray:5,5;" x1="331.7803" x2="331.7803" y1="81.2969" y2="516.8281"/></g></g><g class="participant-lifeline" data-entity-uid="part3" data-qualified-name="GEA" data-source-line="4" id="part3-lifeline"><g><title>GestorEvaluacionAlertas</title><rect fill="#000000" fill-opacity="0.00000" height="435.5313" width="8" x="563.6294" y="81.2969"/><line style="stroke:#181818;stroke-width:0.5;stroke-dasharray:5,5;" x1="566.7085" x2="566.7085" y1="81.2969" y2="516.8281"/></g></g><g class="participant-lifeline" data-entity-uid="part4" data-qualified-name="GEN" data-source-line="5" id="part4-lifeline"><g><title>GestorEnvioNotificacion</title><rect fill="#000000" fill-opacity="0.00000" height="435.5313" width="8" x="749.3315" y="81.2969"/><line style="stroke:#181818;stroke-width:0.5;stroke-dasharray:5,5;" x1="752.5503" x2="752.5503" y1="81.2969" y2="516.8281"/></g></g><g class="participant-lifeline" data-entity-uid="part5" data-qualified-name="P" data-source-line="6" id="part5-lifeline"><g><title>Precio</title><rect fill="#000000" fill-opacity="0.00000" height="435.5313" width="8" x="870.5947" y="81.2969"/><line style="stroke:#181818;stroke-width:0.5;stroke-dasharray:5,5;" x1="874.1128" x2="874.1128" y1="81.2969" y2="516.8281"/></g></g><g class="participant-lifeline" data-entity-uid="part6" data-qualified-name="AP" data-source-line="7" id="part6-lifeline"><g><title>AlertaPrecio</title><rect fill="#000000" fill-opacity="0.00000" height="435.5313" width="8" x="950.5107" y="81.2969"/><line style="stroke:#181818;stroke-width:0.5;stroke-dasharray:5,5;" x1="954.0767" x2="954.0767" y1="81.2969" y2="516.8281"/></g></g><g class="participant participant-head" data-entity-uid="part1" data-qualified-name="HL" data-source-line="1" id="part1-head"><text fill="#000000" font-family="sans-serif" font-size="14" lengthAdjust="spacing" textLength="101.541" x="5" y="77.9951">Hyperliquid L1</text><ellipse cx="58.7705" cy="13.5" fill="#E2E2F0" rx="8" ry="8" style="stroke:#181818;stroke-width:0.5;"/><path d="M58.7705,21.5 L58.7705,48.5 M45.7705,29.5 L71.7705,29.5 M58.7705,48.5 L45.7705,63.5 M58.7705,48.5 L71.7705,63.5" fill="none" style="stroke:#181818;stroke-width:0.5;"/></g><g class="participant participant-tail" data-entity-uid="part1" data-qualified-name="HL" data-source-line="1" id="part1-tail"><text fill="#000000" font-family="sans-serif" font-size="14" lengthAdjust="spacing" textLength="101.541" x="5" y="528.8232">Hyperliquid L1</text><ellipse cx="58.7705" cy="540.625" fill="#E2E2F0" rx="8" ry="8" style="stroke:#181818;stroke-width:0.5;"/><path d="M58.7705,548.625 L58.7705,575.625 M45.7705,556.625 L71.7705,556.625 M58.7705,575.625 L45.7705,590.625 M58.7705,575.625 L71.7705,590.625" fill="none" style="stroke:#181818;stroke-width:0.5;"/></g><g class="participant participant-head" data-entity-uid="part2" data-qualified-name="CH" data-source-line="3" id="part2-head"><text fill="#000000" font-family="sans-serif" font-size="14" lengthAdjust="spacing" textLength="143.7188" x="257.7803" y="77.9951">ConectorHyperliquid</text><path d="M312.1396,37 L312.1396,61 M312.1396,49 L329.1396,49" fill="none" style="stroke:#181818;stroke-width:0.5;"/><ellipse cx="341.1396" cy="49" fill="#E2E2F0" rx="12" ry="12" style="stroke:#181818;stroke-width:0.5;"/></g><g class="participant participant-tail" data-entity-uid="part2" data-qualified-name="CH" data-source-line="3" id="part2-tail"><text fill="#000000" font-family="sans-serif" font-size="14" lengthAdjust="spacing" textLength="143.7188" x="257.7803" y="528.8232">ConectorHyperliquid</text><path d="M312.1396,536.125 L312.1396,560.125 M312.1396,548.125 L329.1396,548.125" fill="none" style="stroke:#181818;stroke-width:0.5;"/><ellipse cx="341.1396" cy="548.125" fill="#E2E2F0" rx="12" ry="12" style="stroke:#181818;stroke-width:0.5;"/></g><g class="participant participant-head" data-entity-uid="part3" data-qualified-name="GEA" data-source-line="4" id="part3-head"><text fill="#000000" font-family="sans-serif" font-size="14" lengthAdjust="spacing" textLength="171.8418" x="478.7085" y="77.9951">GestorEvaluacionAlertas</text><ellipse cx="567.6294" cy="49" fill="#E2E2F0" rx="12" ry="12" style="stroke:#181818;stroke-width:0.5;"/><polygon fill="#181818" points="563.6294,37,569.6294,32,567.6294,37,569.6294,42,563.6294,37" style="stroke:#181818;stroke-width:1;"/></g><g class="participant participant-tail" data-entity-uid="part3" data-qualified-name="GEA" data-source-line="4" id="part3-tail"><text fill="#000000" font-family="sans-serif" font-size="14" lengthAdjust="spacing" textLength="171.8418" x="478.7085" y="528.8232">GestorEvaluacionAlertas</text><ellipse cx="567.6294" cy="548.125" fill="#E2E2F0" rx="12" ry="12" style="stroke:#181818;stroke-width:0.5;"/><polygon fill="#181818" points="563.6294,536.125,569.6294,531.125,567.6294,536.125,569.6294,541.125,563.6294,536.125" style="stroke:#181818;stroke-width:1;"/></g><g class="participant participant-head" data-entity-uid="part4" data-qualified-name="GEN" data-source-line="5" id="part4-head"><text fill="#000000" font-family="sans-serif" font-size="14" lengthAdjust="spacing" textLength="167.5625" x="666.5503" y="77.9951">GestorEnvioNotificacion</text><ellipse cx="753.3315" cy="49" fill="#E2E2F0" rx="12" ry="12" style="stroke:#181818;stroke-width:0.5;"/><polygon fill="#181818" points="749.3315,37,755.3315,32,753.3315,37,755.3315,42,749.3315,37" style="stroke:#181818;stroke-width:1;"/></g><g class="participant participant-tail" data-entity-uid="part4" data-qualified-name="GEN" data-source-line="5" id="part4-tail"><text fill="#000000" font-family="sans-serif" font-size="14" lengthAdjust="spacing" textLength="167.5625" x="666.5503" y="528.8232">GestorEnvioNotificacion</text><ellipse cx="753.3315" cy="548.125" fill="#E2E2F0" rx="12" ry="12" style="stroke:#181818;stroke-width:0.5;"/><polygon fill="#181818" points="749.3315,536.125,755.3315,531.125,753.3315,536.125,755.3315,541.125,749.3315,536.125" style="stroke:#181818;stroke-width:1;"/></g><g class="participant participant-head" data-entity-uid="part5" data-qualified-name="P" data-source-line="6" id="part5-head"><text fill="#000000" font-family="sans-serif" font-size="14" lengthAdjust="spacing" textLength="42.9639" x="850.1128" y="77.9951">Precio</text><ellipse cx="874.5947" cy="49" fill="#E2E2F0" rx="12" ry="12" style="stroke:#181818;stroke-width:0.5;"/><line style="stroke:#181818;stroke-width:0.5;" x1="862.5947" x2="886.5947" y1="63" y2="63"/></g><g class="participant participant-tail" data-entity-uid="part5" data-qualified-name="P" data-source-line="6" id="part5-tail"><text fill="#000000" font-family="sans-serif" font-size="14" lengthAdjust="spacing" textLength="42.9639" x="850.1128" y="528.8232">Precio</text><ellipse cx="874.5947" cy="548.125" fill="#E2E2F0" rx="12" ry="12" style="stroke:#181818;stroke-width:0.5;"/><line style="stroke:#181818;stroke-width:0.5;" x1="862.5947" x2="886.5947" y1="562.125" y2="562.125"/></g><g class="participant participant-head" data-entity-uid="part6" data-qualified-name="AP" data-source-line="7" id="part6-head"><text fill="#000000" font-family="sans-serif" font-size="14" lengthAdjust="spacing" textLength="84.8682" x="909.0767" y="77.9951">AlertaPrecio</text><ellipse cx="954.5107" cy="49" fill="#E2E2F0" rx="12" ry="12" style="stroke:#181818;stroke-width:0.5;"/><line style="stroke:#181818;stroke-width:0.5;" x1="942.5107" x2="966.5107" y1="63" y2="63"/></g><g class="participant participant-tail" data-entity-uid="part6" data-qualified-name="AP" data-source-line="7" id="part6-tail"><text fill="#000000" font-family="sans-serif" font-size="14" lengthAdjust="spacing" textLength="84.8682" x="909.0767" y="528.8232">AlertaPrecio</text><ellipse cx="954.5107" cy="548.125" fill="#E2E2F0" rx="12" ry="12" style="stroke:#181818;stroke-width:0.5;"/><line style="stroke:#181818;stroke-width:0.5;" x1="942.5107" x2="966.5107" y1="562.125" y2="562.125"/></g><g class="message" data-entity-1="part1" data-entity-2="part2" data-source-line="9" id="msg1"><polygon fill="#181818" points="320.6396,108.4297,330.6396,112.4297,320.6396,116.4297,324.6396,112.4297" style="stroke:#181818;stroke-width:1;"/><line style="stroke:#181818;stroke-width:1;" x1="58.7705" x2="326.6396" y1="112.4297" y2="112.4297"/><text fill="#000000" font-family="sans-serif" font-size="13" lengthAdjust="spacing" textLength="249.8691" x="65.7705" y="107.3638">actualizaci&#243;n de precio (token, precio)</text></g><g class="message" data-entity-1="part2" data-entity-2="part2" data-source-line="10" id="msg2"><line style="stroke:#181818;stroke-width:1;" x1="332.6396" x2="374.6396" y1="156.6953" y2="156.6953"/><line style="stroke:#181818;stroke-width:1;" x1="374.6396" x2="374.6396" y1="156.6953" y2="169.6953"/><line style="stroke:#181818;stroke-width:1;" x1="333.6396" x2="374.6396" y1="169.6953" y2="169.6953"/><polygon fill="#181818" points="343.6396,165.6953,333.6396,169.6953,343.6396,173.6953,339.6396,169.6953" style="stroke:#181818;stroke-width:1;"/><text fill="#000000" font-family="sans-serif" font-size="13" lengthAdjust="spacing" textLength="101.5371" x="339.6396" y="136.4966">publicar evento</text><text fill="#000000" font-family="sans-serif" font-size="13" lengthAdjust="spacing" textLength="115.4575" x="339.6396" y="151.6294">PrecioActualizado</text></g><g class="message" data-entity-1="part2" data-entity-2="part3" data-source-line="11" id="msg3"><polygon fill="#181818" points="555.6294,194.8281,565.6294,198.8281,555.6294,202.8281,559.6294,198.8281" style="stroke:#181818;stroke-width:1;"/><line style="stroke:#181818;stroke-width:1;stroke-dasharray:2,2;" x1="332.6396" x2="561.6294" y1="198.8281" y2="198.8281"/><text fill="#000000" font-family="sans-serif" font-size="13" lengthAdjust="spacing" textLength="210.9897" x="339.6396" y="193.7622">PrecioActualizado(token, precio)</text></g><g class="message" data-entity-1="part3" data-entity-2="part5" data-source-line="12" id="msg4"><polygon fill="#181818" points="862.5947,223.9609,872.5947,227.9609,862.5947,231.9609,866.5947,227.9609" style="stroke:#181818;stroke-width:1;"/><line style="stroke:#181818;stroke-width:1;" x1="567.6294" x2="868.5947" y1="227.9609" y2="227.9609"/><text fill="#000000" font-family="sans-serif" font-size="13" lengthAdjust="spacing" textLength="151.2646" x="574.6294" y="222.895">registrar(token, precio)</text></g><g class="message" data-entity-1="part3" data-entity-2="part6" data-source-line="13" id="msg5"><polygon fill="#181818" points="942.5107,253.0938,952.5107,257.0938,942.5107,261.0938,946.5107,257.0938" style="stroke:#181818;stroke-width:1;"/><line style="stroke:#181818;stroke-width:1;" x1="567.6294" x2="948.5107" y1="257.0938" y2="257.0938"/><text fill="#000000" font-family="sans-serif" font-size="13" lengthAdjust="spacing" textLength="210.647" x="574.6294" y="252.0278">recuperarOperativasPara(token)</text></g><g class="message" data-entity-1="part6" data-entity-2="part3" data-source-line="14" id="msg6"><polygon fill="#181818" points="578.6294,282.2266,568.6294,286.2266,578.6294,290.2266,574.6294,286.2266" style="stroke:#181818;stroke-width:1;"/><line style="stroke:#181818;stroke-width:1;stroke-dasharray:2,2;" x1="572.6294" x2="953.5107" y1="286.2266" y2="286.2266"/><text fill="#000000" font-family="sans-serif" font-size="13" lengthAdjust="spacing" textLength="142.3525" x="584.6294" y="281.1606">{ alertas operativas }</text></g><path d="M458.7085,301.2266 L535.3325,301.2266 L535.3325,308.3594 L525.3325,318.3594 L458.7085,318.3594 L458.7085,301.2266" fill="#EEEEEE" style="stroke:#000000;stroke-width:1.5;"/><rect fill="none" height="198.6016" style="stroke:#000000;stroke-width:1.5;" width="561.2363" x="458.7085" y="301.2266"/><text fill="#000000" font-family="sans-serif" font-size="13" font-weight="700" lengthAdjust="spacing" textLength="31.624" x="473.7085" y="314.2935">loop</text><text fill="#000000" font-family="sans-serif" font-size="11" font-weight="700" lengthAdjust="spacing" textLength="167.7607" x="550.3325" y="313.437">[por cada alerta operativa]</text><g class="message" data-entity-1="part3" data-entity-2="part6" data-source-line="16" id="msg7"><polygon fill="#181818" points="942.5107,335.4922,952.5107,339.4922,942.5107,343.4922,946.5107,339.4922" style="stroke:#181818;stroke-width:1;"/><line style="stroke:#181818;stroke-width:1;" x1="567.6294" x2="948.5107" y1="339.4922" y2="339.4922"/><text fill="#000000" font-family="sans-serif" font-size="13" lengthAdjust="spacing" textLength="163.3569" x="574.6294" y="334.4263">evaluarCondicion(precio)</text></g><path d="M468.7085,354.4922 L533.1514,354.4922 L533.1514,361.625 L523.1514,371.625 L468.7085,371.625 L468.7085,354.4922" fill="#EEEEEE" style="stroke:#000000;stroke-width:1.5;"/><rect fill="none" height="138.3359" style="stroke:#000000;stroke-width:1.5;" width="541.2363" x="468.7085" y="354.4922"/><text fill="#000000" font-family="sans-serif" font-size="13" font-weight="700" lengthAdjust="spacing" textLength="19.4429" x="483.7085" y="367.5591">alt</text><text fill="#000000" font-family="sans-serif" font-size="11" font-weight="700" lengthAdjust="spacing" textLength="129.6421" x="548.1514" y="366.7026">[condici&#243;n cumplida]</text><g class="message" data-entity-1="part3" data-entity-2="part6" data-source-line="18" id="msg8"><polygon fill="#181818" points="942.5107,388.7578,952.5107,392.7578,942.5107,396.7578,946.5107,392.7578" style="stroke:#181818;stroke-width:1;"/><line style="stroke:#181818;stroke-width:1;" x1="567.6294" x2="948.5107" y1="392.7578" y2="392.7578"/><text fill="#000000" font-family="sans-serif" font-size="13" lengthAdjust="spacing" textLength="132.2344" x="574.6294" y="387.6919">marcar(DISPARADA)</text></g><g class="message" data-entity-1="part3" data-entity-2="part4" data-source-line="19" id="msg9"><polygon fill="#181818" points="741.3315,420.8906,751.3315,424.8906,741.3315,428.8906,745.3315,424.8906" style="stroke:#181818;stroke-width:1;"/><line style="stroke:#181818;stroke-width:1;" x1="567.6294" x2="747.3315" y1="424.8906" y2="424.8906"/><text fill="#000000" font-family="sans-serif" font-size="13" lengthAdjust="spacing" textLength="137.5537" x="574.6294" y="419.8247">enviar(alerta, precio)</text></g><path d="M758,405.7578 L758,430.7578 L885,430.7578 L885,415.7578 L875,405.7578 L758,405.7578" fill="#FEFFDD" style="stroke:#181818;stroke-width:0.5;"/><path d="M875,405.7578 L875,415.7578 L885,415.7578 L875,405.7578" fill="#FEFFDD" style="stroke:#181818;stroke-width:0.5;"/><text fill="#000000" font-family="sans-serif" font-size="13" lengthAdjust="spacing" textLength="106.9644" x="764" y="422.8247">&#171;include&#187; CU-14</text><line style="stroke:#000000;stroke-width:1;stroke-dasharray:2,2;" x1="468.7085" x2="1009.9448" y1="436.8906" y2="436.8906"/><text fill="#000000" font-family="sans-serif" font-size="11" font-weight="700" lengthAdjust="spacing" textLength="148.8599" x="473.7085" y="447.1011">[condici&#243;n no cumplida]</text><g class="message" data-entity-1="part3" data-entity-2="part3" data-source-line="24" id="msg11"><line style="stroke:#181818;stroke-width:1;" x1="567.6294" x2="609.6294" y1="471.8281" y2="471.8281"/><line style="stroke:#181818;stroke-width:1;" x1="609.6294" x2="609.6294" y1="471.8281" y2="484.8281"/><line style="stroke:#181818;stroke-width:1;" x1="568.6294" x2="609.6294" y1="484.8281" y2="484.8281"/><polygon fill="#181818" points="578.6294,480.8281,568.6294,484.8281,578.6294,488.8281,574.6294,484.8281" style="stroke:#181818;stroke-width:1;"/><text fill="#000000" font-family="sans-serif" font-size="13" lengthAdjust="spacing" textLength="61.8896" x="574.6294" y="466.7622">descartar</text></g><?plantuml-src TPBFQW8n4CRlUOfXJmhjGUYfY11Kj21sQUcjbp6Psj2ORBDPmPO-LH-XBzRPn3-BuXuMTkQNRxvyiwYY3r3CTnK5QpuRes4nA01hc2-4MFd6QGmxACRUKOjsm4IDvq9v5uEtKCoePcAwHTkWCjv9Io5YdRZPL5w0RclyqaVpPbJYz-1Ia8icyj0o4DTJkJmMisgd9KiXvWku7R4Pk0TKiK5hlbZoxzU19gWI2xteFyZTx3_xWkd3cQfPMJOHWBOynh-wB2yFKjedcd6-1_CNxNFj5cEwP3RGsjGnOBZ2o0ofXeF5yDY-ezbYNMB0VAGlc3aD_mRCmO8_ml0ZhFSLLBnCXHhto8aGm4zt8gKr1TwhDctulOEj5aGRGULEcw5gDfKrEekS2sqmS7AzoSDpAP_aHFRFATveEu-tpLZsTGhXm3eV2O9PlyTZ2M0uD4xPHjE8z_HoExWxziZfT2GLoDRKjUlyLSSvGKqrMuuOn5wBVoxz3m00?></g></svg>