<svg xmlns="http://www.w3.org/2000/svg" xmlns:xlink="http://www.w3.org/1999/xlink" contentStyleType="text/css" data-diagram-type="CLASS" height="877px" preserveAspectRatio="none" style="width:1548px;height:877px;background:#FFFFFF;" version="1.1" viewBox="0 0 1548 877" width="1548px" zoomAndPan="magnify"><?plantuml 1.2026.3beta6?><defs/><g><!--cluster PRES--><g class="cluster" data-qualified-name="PRES" data-source-line="4" id="ent0002"><rect fill="none" height="99" rx="2.5" ry="2.5" style="stroke:#000000;stroke-width:1.5;" width="510" x="917" y="155"/><text fill="#000000" font-family="sans-serif" font-size="14" font-weight="700" lengthAdjust="spacing" textLength="56.5811" x="1143.7095" y="169.9951">S-PRES</text></g><!--cluster INGE--><g class="cluster" data-qualified-name="INGE" data-source-line="10" id="ent0006"><rect fill="none" height="99" rx="2.5" ry="2.5" style="stroke:#000000;stroke-width:1.5;" width="208" x="1167" y="7"/><text fill="#000000" font-family="sans-serif" font-size="14" font-weight="700" lengthAdjust="spacing" textLength="53.874" x="1244.063" y="21.9951">S-INGE</text></g><!--cluster NOTI--><g class="cluster" data-qualified-name="NOTI" data-source-line="14" id="ent0008"><rect fill="none" height="247" rx="2.5" ry="2.5" style="stroke:#000000;stroke-width:1.5;" width="232" x="586" y="287"/><text fill="#000000" font-family="sans-serif" font-size="14" font-weight="700" lengthAdjust="spacing" textLength="54.2705" x="674.8647" y="301.9951">S-NOTI</text></g><!--cluster LEAD--><g class="cluster" data-qualified-name="LEAD" data-source-line="19" id="ent0011"><rect fill="none" height="247" rx="2.5" ry="2.5" style="stroke:#000000;stroke-width:1.5;" width="260" x="1274" y="287"/><text fill="#000000" font-family="sans-serif" font-size="14" font-weight="700" lengthAdjust="spacing" textLength="56.834" x="1375.583" y="301.9951">S-LEAD</text></g><!--cluster CATA--><g class="cluster" data-qualified-name="CATA" data-source-line="24" id="ent0014"><rect fill="none" height="99" rx="2.5" ry="2.5" style="stroke:#000000;stroke-width:1.5;" width="242" x="1008" y="435"/><text fill="#000000" font-family="sans-serif" font-size="14" font-weight="700" lengthAdjust="spacing" textLength="57.3877" x="1100.3062" y="449.9951">S-CATA</text></g><!--cluster ALER--><g class="cluster" data-qualified-name="ALER" data-source-line="28" id="ent0016"><rect fill="none" height="99" rx="2.5" ry="2.5" style="stroke:#000000;stroke-width:1.5;" width="202" x="842" y="287"/><text fill="#000000" font-family="sans-serif" font-size="14" font-weight="700" lengthAdjust="spacing" textLength="55.9932" x="915.0034" y="301.9951">S-ALER</text></g><!--cluster EVAL--><g class="cluster" data-qualified-name="EVAL" data-source-line="32" id="ent0018"><rect fill="none" height="99" rx="2.5" ry="2.5" style="stroke:#000000;stroke-width:1.5;" width="236" x="657" y="155"/><text fill="#000000" font-family="sans-serif" font-size="14" font-weight="700" lengthAdjust="spacing" textLength="56.0479" x="746.9761" y="169.9951">S-EVAL</text></g><!--cluster DOM--><g class="cluster" data-qualified-name="DOM" data-source-line="36" id="ent0020"><rect fill="none" height="428" rx="2.5" ry="2.5" style="stroke:#000000;stroke-width:1.5;" width="555" x="7" y="435"/><text fill="#000000" font-family="sans-serif" font-size="14" font-weight="700" lengthAdjust="spacing" textLength="172.6895" x="198.1553" y="449.9951">Dominio (compartido)</text></g><!--class VL--><g class="entity" data-qualified-name="PRES.VL" data-source-line="5" id="ent0003"><rect fill="#F1F1F1" height="48" rx="2.5" ry="2.5" style="stroke:#181818;stroke-width:0.5;" width="155.751" x="1255.12" y="190"/><ellipse cx="1270.12" cy="206" fill="#ADD1B2" rx="11" ry="11" style="stroke:#181818;stroke-width:1;"/><path d="M1273.0888,211.6406 Q1272.5106,211.9375 1271.87,212.0781 Q1271.2294,212.2344 1270.5263,212.2344 Q1268.0263,212.2344 1266.6981,210.5938 Q1265.3856,208.9375 1265.3856,205.8125 Q1265.3856,202.6875 1266.6981,201.0313 Q1268.0263,199.375 1270.5263,199.375 Q1271.2294,199.375 1271.87,199.5313 Q1272.5263,199.6875 1273.0888,199.9844 L1273.0888,202.7031 Q1272.4638,202.125 1271.87,201.8594 Q1271.2763,201.5781 1270.6513,201.5781 Q1269.3075,201.5781 1268.62,202.6563 Q1267.9325,203.7188 1267.9325,205.8125 Q1267.9325,207.9063 1268.62,208.9844 Q1269.3075,210.0469 1270.6513,210.0469 Q1271.2763,210.0469 1271.87,209.7813 Q1272.4638,209.5 1273.0888,208.9219 L1273.0888,211.6406 Z " fill="#000000"/><text fill="#000000" font-family="sans-serif" font-size="14" lengthAdjust="spacing" textLength="123.751" x="1284.12" y="210.8467">VistaLeaderboard</text><line style="stroke:#181818;stroke-width:0.5;" x1="1256.12" x2="1409.871" y1="222" y2="222"/><line style="stroke:#181818;stroke-width:0.5;" x1="1256.12" x2="1409.871" y1="230" y2="230"/></g><!--class VE--><g class="entity" data-qualified-name="PRES.VE" data-source-line="6" id="ent0004"><rect fill="#F1F1F1" height="48" rx="2.5" ry="2.5" style="stroke:#181818;stroke-width:0.5;" width="136.1865" x="1083.91" y="190"/><ellipse cx="1098.91" cy="206" fill="#ADD1B2" rx="11" ry="11" style="stroke:#181818;stroke-width:1;"/><path d="M1101.8788,211.6406 Q1101.3006,211.9375 1100.66,212.0781 Q1100.0194,212.2344 1099.3163,212.2344 Q1096.8163,212.2344 1095.4881,210.5938 Q1094.1756,208.9375 1094.1756,205.8125 Q1094.1756,202.6875 1095.4881,201.0313 Q1096.8163,199.375 1099.3163,199.375 Q1100.0194,199.375 1100.66,199.5313 Q1101.3163,199.6875 1101.8788,199.9844 L1101.8788,202.7031 Q1101.2538,202.125 1100.66,201.8594 Q1100.0663,201.5781 1099.4413,201.5781 Q1098.0975,201.5781 1097.41,202.6563 Q1096.7225,203.7188 1096.7225,205.8125 Q1096.7225,207.9063 1097.41,208.9844 Q1098.0975,210.0469 1099.4413,210.0469 Q1100.0663,210.0469 1100.66,209.7813 Q1101.2538,209.5 1101.8788,208.9219 L1101.8788,211.6406 Z " fill="#000000"/><text fill="#000000" font-family="sans-serif" font-size="14" lengthAdjust="spacing" textLength="104.1865" x="1112.91" y="210.8467">VistaEntidades</text><line style="stroke:#181818;stroke-width:0.5;" x1="1084.91" x2="1219.0965" y1="222" y2="222"/><line style="stroke:#181818;stroke-width:0.5;" x1="1084.91" x2="1219.0965" y1="230" y2="230"/></g><!--class VA--><g class="entity" data-qualified-name="PRES.VA" data-source-line="7" id="ent0005"><rect fill="#F1F1F1" height="48" rx="2.5" ry="2.5" style="stroke:#181818;stroke-width:0.5;" width="116.0273" x="932.99" y="190"/><ellipse cx="947.99" cy="206" fill="#ADD1B2" rx="11" ry="11" style="stroke:#181818;stroke-width:1;"/><path d="M950.9588,211.6406 Q950.3806,211.9375 949.74,212.0781 Q949.0994,212.2344 948.3963,212.2344 Q945.8963,212.2344 944.5681,210.5938 Q943.2556,208.9375 943.2556,205.8125 Q943.2556,202.6875 944.5681,201.0313 Q945.8963,199.375 948.3963,199.375 Q949.0994,199.375 949.74,199.5313 Q950.3963,199.6875 950.9588,199.9844 L950.9588,202.7031 Q950.3338,202.125 949.74,201.8594 Q949.1463,201.5781 948.5213,201.5781 Q947.1775,201.5781 946.49,202.6563 Q945.8025,203.7188 945.8025,205.8125 Q945.8025,207.9063 946.49,208.9844 Q947.1775,210.0469 948.5213,210.0469 Q949.1463,210.0469 949.74,209.7813 Q950.3338,209.5 950.9588,208.9219 L950.9588,211.6406 Z " fill="#000000"/><text fill="#000000" font-family="sans-serif" font-size="14" lengthAdjust="spacing" textLength="84.0273" x="961.99" y="210.8467">VistaAlertas</text><line style="stroke:#181818;stroke-width:0.5;" x1="933.99" x2="1048.0173" y1="222" y2="222"/><line style="stroke:#181818;stroke-width:0.5;" x1="933.99" x2="1048.0173" y1="230" y2="230"/></g><!--class CH--><g class="entity" data-qualified-name="INGE.CH" data-source-line="11" id="ent0007"><rect fill="#F1F1F1" height="48" rx="2.5" ry="2.5" style="stroke:#181818;stroke-width:0.5;" width="175.7188" x="1183.14" y="42"/><ellipse cx="1198.14" cy="58" fill="#ADD1B2" rx="11" ry="11" style="stroke:#181818;stroke-width:1;"/><path d="M1201.1088,63.6406 Q1200.5306,63.9375 1199.89,64.0781 Q1199.2494,64.2344 1198.5463,64.2344 Q1196.0463,64.2344 1194.7181,62.5938 Q1193.4056,60.9375 1193.4056,57.8125 Q1193.4056,54.6875 1194.7181,53.0313 Q1196.0463,51.375 1198.5463,51.375 Q1199.2494,51.375 1199.89,51.5313 Q1200.5463,51.6875 1201.1088,51.9844 L1201.1088,54.7031 Q1200.4838,54.125 1199.89,53.8594 Q1199.2963,53.5781 1198.6713,53.5781 Q1197.3275,53.5781 1196.64,54.6563 Q1195.9525,55.7188 1195.9525,57.8125 Q1195.9525,59.9063 1196.64,60.9844 Q1197.3275,62.0469 1198.6713,62.0469 Q1199.2963,62.0469 1199.89,61.7813 Q1200.4838,61.5 1201.1088,60.9219 L1201.1088,63.6406 Z " fill="#000000"/><text fill="#000000" font-family="sans-serif" font-size="14" lengthAdjust="spacing" textLength="143.7188" x="1212.14" y="62.8467">ConectorHyperliquid</text><line style="stroke:#181818;stroke-width:0.5;" x1="1184.14" x2="1357.8588" y1="74" y2="74"/><line style="stroke:#181818;stroke-width:0.5;" x1="1184.14" x2="1357.8588" y1="82" y2="82"/></g><!--class CW--><g class="entity" data-qualified-name="NOTI.CW" data-source-line="15" id="ent0009"><rect fill="#F1F1F1" height="48" rx="2.5" ry="2.5" style="stroke:#181818;stroke-width:0.5;" width="160.7891" x="641.61" y="470"/><ellipse cx="656.61" cy="486" fill="#ADD1B2" rx="11" ry="11" style="stroke:#181818;stroke-width:1;"/><path d="M659.5788,491.6406 Q659.0006,491.9375 658.36,492.0781 Q657.7194,492.2344 657.0163,492.2344 Q654.5163,492.2344 653.1881,490.5938 Q651.8756,488.9375 651.8756,485.8125 Q651.8756,482.6875 653.1881,481.0313 Q654.5163,479.375 657.0163,479.375 Q657.7194,479.375 658.36,479.5313 Q659.0163,479.6875 659.5788,479.9844 L659.5788,482.7031 Q658.9538,482.125 658.36,481.8594 Q657.7663,481.5781 657.1413,481.5781 Q655.7975,481.5781 655.11,482.6563 Q654.4225,483.7188 654.4225,485.8125 Q654.4225,487.9063 655.11,488.9844 Q655.7975,490.0469 657.1413,490.0469 Q657.7663,490.0469 658.36,489.7813 Q658.9538,489.5 659.5788,488.9219 L659.5788,491.6406 Z " fill="#000000"/><text fill="#000000" font-family="sans-serif" font-size="14" lengthAdjust="spacing" textLength="128.7891" x="670.61" y="490.8467">ConectorWebhook</text><line style="stroke:#181818;stroke-width:0.5;" x1="642.61" x2="801.3991" y1="502" y2="502"/><line style="stroke:#181818;stroke-width:0.5;" x1="642.61" x2="801.3991" y1="510" y2="510"/></g><!--class GEN--><g class="entity" data-qualified-name="NOTI.GEN" data-source-line="16" id="ent0010"><rect fill="#F1F1F1" height="48" rx="2.5" ry="2.5" style="stroke:#181818;stroke-width:0.5;" width="199.5625" x="602.22" y="322"/><ellipse cx="617.22" cy="338" fill="#ADD1B2" rx="11" ry="11" style="stroke:#181818;stroke-width:1;"/><path d="M620.1888,343.6406 Q619.6106,343.9375 618.97,344.0781 Q618.3294,344.2344 617.6263,344.2344 Q615.1263,344.2344 613.7981,342.5938 Q612.4856,340.9375 612.4856,337.8125 Q612.4856,334.6875 613.7981,333.0313 Q615.1263,331.375 617.6263,331.375 Q618.3294,331.375 618.97,331.5313 Q619.6263,331.6875 620.1888,331.9844 L620.1888,334.7031 Q619.5638,334.125 618.97,333.8594 Q618.3763,333.5781 617.7513,333.5781 Q616.4075,333.5781 615.72,334.6563 Q615.0325,335.7188 615.0325,337.8125 Q615.0325,339.9063 615.72,340.9844 Q616.4075,342.0469 617.7513,342.0469 Q618.3763,342.0469 618.97,341.7813 Q619.5638,341.5 620.1888,340.9219 L620.1888,343.6406 Z " fill="#000000"/><text fill="#000000" font-family="sans-serif" font-size="14" lengthAdjust="spacing" textLength="167.5625" x="631.22" y="342.8467">GestorEnvioNotificacion</text><line style="stroke:#181818;stroke-width:0.5;" x1="603.22" x2="800.7825" y1="354" y2="354"/><line style="stroke:#181818;stroke-width:0.5;" x1="603.22" x2="800.7825" y1="362" y2="362"/></g><!--class GCL--><g class="entity" data-qualified-name="LEAD.GCL" data-source-line="20" id="ent0012"><rect fill="#F1F1F1" height="48" rx="2.5" ry="2.5" style="stroke:#181818;stroke-width:0.5;" width="228.8271" x="1289.59" y="322"/><ellipse cx="1304.59" cy="338" fill="#ADD1B2" rx="11" ry="11" style="stroke:#181818;stroke-width:1;"/><path d="M1307.5588,343.6406 Q1306.9806,343.9375 1306.34,344.0781 Q1305.6994,344.2344 1304.9963,344.2344 Q1302.4963,344.2344 1301.1681,342.5938 Q1299.8556,340.9375 1299.8556,337.8125 Q1299.8556,334.6875 1301.1681,333.0313 Q1302.4963,331.375 1304.9963,331.375 Q1305.6994,331.375 1306.34,331.5313 Q1306.9963,331.6875 1307.5588,331.9844 L1307.5588,334.7031 Q1306.9338,334.125 1306.34,333.8594 Q1305.7463,333.5781 1305.1213,333.5781 Q1303.7775,333.5781 1303.09,334.6563 Q1302.4025,335.7188 1302.4025,337.8125 Q1302.4025,339.9063 1303.09,340.9844 Q1303.7775,342.0469 1305.1213,342.0469 Q1305.7463,342.0469 1306.34,341.7813 Q1306.9338,341.5 1307.5588,340.9219 L1307.5588,343.6406 Z " fill="#000000"/><text fill="#000000" font-family="sans-serif" font-size="14" lengthAdjust="spacing" textLength="196.8271" x="1318.59" y="342.8467">GestorConsultaLeaderboard</text><line style="stroke:#181818;stroke-width:0.5;" x1="1290.59" x2="1517.4171" y1="354" y2="354"/><line style="stroke:#181818;stroke-width:0.5;" x1="1290.59" x2="1517.4171" y1="362" y2="362"/></g><!--class LEV--><g class="entity" data-qualified-name="LEAD.LEV" data-source-line="21" id="ent0013"><rect fill="#F1F1F1" height="48" rx="2.5" ry="2.5" style="stroke:#181818;stroke-width:0.5;" width="168.958" x="1304.52" y="470"/><ellipse cx="1319.52" cy="486" fill="#ADD1B2" rx="11" ry="11" style="stroke:#181818;stroke-width:1;"/><path d="M1322.4888,491.6406 Q1321.9106,491.9375 1321.27,492.0781 Q1320.6294,492.2344 1319.9263,492.2344 Q1317.4263,492.2344 1316.0981,490.5938 Q1314.7856,488.9375 1314.7856,485.8125 Q1314.7856,482.6875 1316.0981,481.0313 Q1317.4263,479.375 1319.9263,479.375 Q1320.6294,479.375 1321.27,479.5313 Q1321.9263,479.6875 1322.4888,479.9844 L1322.4888,482.7031 Q1321.8638,482.125 1321.27,481.8594 Q1320.6763,481.5781 1320.0513,481.5781 Q1318.7075,481.5781 1318.02,482.6563 Q1317.3325,483.7188 1317.3325,485.8125 Q1317.3325,487.9063 1318.02,488.9844 Q1318.7075,490.0469 1320.0513,490.0469 Q1320.6763,490.0469 1321.27,489.7813 Q1321.8638,489.5 1322.4888,488.9219 L1322.4888,491.6406 Z " fill="#000000"/><text fill="#000000" font-family="sans-serif" font-size="14" lengthAdjust="spacing" textLength="136.958" x="1333.52" y="490.8467">LeaderboardEnVivo</text><line style="stroke:#181818;stroke-width:0.5;" x1="1305.52" x2="1472.478" y1="502" y2="502"/><line style="stroke:#181818;stroke-width:0.5;" x1="1305.52" x2="1472.478" y1="510" y2="510"/></g><!--class GCE--><g class="entity" data-qualified-name="CATA.GCE" data-source-line="25" id="ent0015"><rect fill="#F1F1F1" height="48" rx="2.5" ry="2.5" style="stroke:#181818;stroke-width:0.5;" width="210.2539" x="1023.87" y="470"/><ellipse cx="1038.87" cy="486" fill="#ADD1B2" rx="11" ry="11" style="stroke:#181818;stroke-width:1;"/><path d="M1041.8388,491.6406 Q1041.2606,491.9375 1040.62,492.0781 Q1039.9794,492.2344 1039.2763,492.2344 Q1036.7763,492.2344 1035.4481,490.5938 Q1034.1356,488.9375 1034.1356,485.8125 Q1034.1356,482.6875 1035.4481,481.0313 Q1036.7763,479.375 1039.2763,479.375 Q1039.9794,479.375 1040.62,479.5313 Q1041.2763,479.6875 1041.8388,479.9844 L1041.8388,482.7031 Q1041.2138,482.125 1040.62,481.8594 Q1040.0263,481.5781 1039.4013,481.5781 Q1038.0575,481.5781 1037.37,482.6563 Q1036.6825,483.7188 1036.6825,485.8125 Q1036.6825,487.9063 1037.37,488.9844 Q1038.0575,490.0469 1039.4013,490.0469 Q1040.0263,490.0469 1040.62,489.7813 Q1041.2138,489.5 1041.8388,488.9219 L1041.8388,491.6406 Z " fill="#000000"/><text fill="#000000" font-family="sans-serif" font-size="14" lengthAdjust="spacing" textLength="178.2539" x="1052.87" y="490.8467">GestorCatalogoEntidades</text><line style="stroke:#181818;stroke-width:0.5;" x1="1024.87" x2="1233.1239" y1="502" y2="502"/><line style="stroke:#181818;stroke-width:0.5;" x1="1024.87" x2="1233.1239" y1="510" y2="510"/></g><!--class GAP--><g class="entity" data-qualified-name="ALER.GAP" data-source-line="29" id="ent0017"><rect fill="#F1F1F1" height="48" rx="2.5" ry="2.5" style="stroke:#181818;stroke-width:0.5;" width="170.7285" x="857.64" y="322"/><ellipse cx="872.64" cy="338" fill="#ADD1B2" rx="11" ry="11" style="stroke:#181818;stroke-width:1;"/><path d="M875.6088,343.6406 Q875.0306,343.9375 874.39,344.0781 Q873.7494,344.2344 873.0463,344.2344 Q870.5463,344.2344 869.2181,342.5938 Q867.9056,340.9375 867.9056,337.8125 Q867.9056,334.6875 869.2181,333.0313 Q870.5463,331.375 873.0463,331.375 Q873.7494,331.375 874.39,331.5313 Q875.0463,331.6875 875.6088,331.9844 L875.6088,334.7031 Q874.9838,334.125 874.39,333.8594 Q873.7963,333.5781 873.1713,333.5781 Q871.8275,333.5781 871.14,334.6563 Q870.4525,335.7188 870.4525,337.8125 Q870.4525,339.9063 871.14,340.9844 Q871.8275,342.0469 873.1713,342.0469 Q873.7963,342.0469 874.39,341.7813 Q874.9838,341.5 875.6088,340.9219 L875.6088,343.6406 Z " fill="#000000"/><text fill="#000000" font-family="sans-serif" font-size="14" lengthAdjust="spacing" textLength="138.7285" x="886.64" y="342.8467">GestorAlertasPrecio</text><line style="stroke:#181818;stroke-width:0.5;" x1="858.64" x2="1027.3685" y1="354" y2="354"/><line style="stroke:#181818;stroke-width:0.5;" x1="858.64" x2="1027.3685" y1="362" y2="362"/></g><!--class GEA--><g class="entity" data-qualified-name="EVAL.GEA" data-source-line="33" id="ent0019"><rect fill="#F1F1F1" height="48" rx="2.5" ry="2.5" style="stroke:#181818;stroke-width:0.5;" width="203.8418" x="673.08" y="190"/><ellipse cx="688.08" cy="206" fill="#ADD1B2" rx="11" ry="11" style="stroke:#181818;stroke-width:1;"/><path d="M691.0488,211.6406 Q690.4706,211.9375 689.83,212.0781 Q689.1894,212.2344 688.4863,212.2344 Q685.9863,212.2344 684.6581,210.5938 Q683.3456,208.9375 683.3456,205.8125 Q683.3456,202.6875 684.6581,201.0313 Q685.9863,199.375 688.4863,199.375 Q689.1894,199.375 689.83,199.5313 Q690.4863,199.6875 691.0488,199.9844 L691.0488,202.7031 Q690.4238,202.125 689.83,201.8594 Q689.2363,201.5781 688.6113,201.5781 Q687.2675,201.5781 686.58,202.6563 Q685.8925,203.7188 685.8925,205.8125 Q685.8925,207.9063 686.58,208.9844 Q687.2675,210.0469 688.6113,210.0469 Q689.2363,210.0469 689.83,209.7813 Q690.4238,209.5 691.0488,208.9219 L691.0488,211.6406 Z " fill="#000000"/><text fill="#000000" font-family="sans-serif" font-size="14" lengthAdjust="spacing" textLength="171.8418" x="702.08" y="210.8467">GestorEvaluacionAlertas</text><line style="stroke:#181818;stroke-width:0.5;" x1="674.08" x2="875.9218" y1="222" y2="222"/><line style="stroke:#181818;stroke-width:0.5;" x1="674.08" x2="875.9218" y1="230" y2="230"/></g><!--class M--><g class="entity" data-qualified-name="DOM.M" data-source-line="37" id="ent0021"><rect fill="#F1F1F1" height="48" rx="2.5" ry="2.5" style="stroke:#181818;stroke-width:0.5;" width="92.1768" x="202.91" y="799"/><ellipse cx="217.91" cy="815" fill="#ADD1B2" rx="11" ry="11" style="stroke:#181818;stroke-width:1;"/><path d="M220.8788,820.6406 Q220.3006,820.9375 219.66,821.0781 Q219.0194,821.2344 218.3163,821.2344 Q215.8163,821.2344 214.4881,819.5938 Q213.1756,817.9375 213.1756,814.8125 Q213.1756,811.6875 214.4881,810.0313 Q215.8163,808.375 218.3163,808.375 Q219.0194,808.375 219.66,808.5313 Q220.3163,808.6875 220.8788,808.9844 L220.8788,811.7031 Q220.2538,811.125 219.66,810.8594 Q219.0663,810.5781 218.4413,810.5781 Q217.0975,810.5781 216.41,811.6563 Q215.7225,812.7188 215.7225,814.8125 Q215.7225,816.9063 216.41,817.9844 Q217.0975,819.0469 218.4413,819.0469 Q219.0663,819.0469 219.66,818.7813 Q220.2538,818.5 220.8788,817.9219 L220.8788,820.6406 Z " fill="#000000"/><text fill="#000000" font-family="sans-serif" font-size="14" lengthAdjust="spacing" textLength="60.1768" x="231.91" y="819.8467">Mercado</text><line style="stroke:#181818;stroke-width:0.5;" x1="203.91" x2="294.0868" y1="831" y2="831"/><line style="stroke:#181818;stroke-width:0.5;" x1="203.91" x2="294.0868" y1="839" y2="839"/></g><!--class T--><g class="entity" data-qualified-name="DOM.T" data-source-line="38" id="ent0022"><rect fill="#F1F1F1" height="48" rx="2.5" ry="2.5" style="stroke:#181818;stroke-width:0.5;" width="74.7109" x="211.64" y="690"/><ellipse cx="226.64" cy="706" fill="#ADD1B2" rx="11" ry="11" style="stroke:#181818;stroke-width:1;"/><path d="M229.6088,711.6406 Q229.0306,711.9375 228.39,712.0781 Q227.7494,712.2344 227.0463,712.2344 Q224.5463,712.2344 223.2181,710.5938 Q221.9056,708.9375 221.9056,705.8125 Q221.9056,702.6875 223.2181,701.0313 Q224.5463,699.375 227.0463,699.375 Q227.7494,699.375 228.39,699.5313 Q229.0463,699.6875 229.6088,699.9844 L229.6088,702.7031 Q228.9838,702.125 228.39,701.8594 Q227.7963,701.5781 227.1713,701.5781 Q225.8275,701.5781 225.14,702.6563 Q224.4525,703.7188 224.4525,705.8125 Q224.4525,707.9063 225.14,708.9844 Q225.8275,710.0469 227.1713,710.0469 Q227.7963,710.0469 228.39,709.7813 Q228.9838,709.5 229.6088,708.9219 L229.6088,711.6406 Z " fill="#000000"/><text fill="#000000" font-family="sans-serif" font-size="14" lengthAdjust="spacing" textLength="42.7109" x="240.64" y="710.8467">Token</text><line style="stroke:#181818;stroke-width:0.5;" x1="212.64" x2="285.3509" y1="722" y2="722"/><line style="stroke:#181818;stroke-width:0.5;" x1="212.64" x2="285.3509" y1="730" y2="730"/></g><!--class P--><g class="entity" data-qualified-name="DOM.P" data-source-line="39" id="ent0023"><rect fill="#F1F1F1" height="48" rx="2.5" ry="2.5" style="stroke:#181818;stroke-width:0.5;" width="74.9639" x="211.52" y="581"/><ellipse cx="226.52" cy="597" fill="#ADD1B2" rx="11" ry="11" style="stroke:#181818;stroke-width:1;"/><path d="M229.4888,602.6406 Q228.9106,602.9375 228.27,603.0781 Q227.6294,603.2344 226.9263,603.2344 Q224.4263,603.2344 223.0981,601.5938 Q221.7856,599.9375 221.7856,596.8125 Q221.7856,593.6875 223.0981,592.0313 Q224.4263,590.375 226.9263,590.375 Q227.6294,590.375 228.27,590.5313 Q228.9263,590.6875 229.4888,590.9844 L229.4888,593.7031 Q228.8638,593.125 228.27,592.8594 Q227.6763,592.5781 227.0513,592.5781 Q225.7075,592.5781 225.02,593.6563 Q224.3325,594.7188 224.3325,596.8125 Q224.3325,598.9063 225.02,599.9844 Q225.7075,601.0469 227.0513,601.0469 Q227.6763,601.0469 228.27,600.7813 Q228.8638,600.5 229.4888,599.9219 L229.4888,602.6406 Z " fill="#000000"/><text fill="#000000" font-family="sans-serif" font-size="14" lengthAdjust="spacing" textLength="42.9639" x="240.52" y="601.8467">Precio</text><line style="stroke:#181818;stroke-width:0.5;" x1="212.52" x2="285.4839" y1="613" y2="613"/><line style="stroke:#181818;stroke-width:0.5;" x1="212.52" x2="285.4839" y1="621" y2="621"/></g><!--class OP--><g class="entity" data-qualified-name="DOM.OP" data-source-line="40" id="ent0024"><rect fill="#F1F1F1" height="48" rx="2.5" ry="2.5" style="stroke:#181818;stroke-width:0.5;" width="103.8799" x="321.06" y="581"/><ellipse cx="336.06" cy="597" fill="#ADD1B2" rx="11" ry="11" style="stroke:#181818;stroke-width:1;"/><path d="M339.0288,602.6406 Q338.4506,602.9375 337.81,603.0781 Q337.1694,603.2344 336.4663,603.2344 Q333.9663,603.2344 332.6381,601.5938 Q331.3256,599.9375 331.3256,596.8125 Q331.3256,593.6875 332.6381,592.0313 Q333.9663,590.375 336.4663,590.375 Q337.1694,590.375 337.81,590.5313 Q338.4663,590.6875 339.0288,590.9844 L339.0288,593.7031 Q338.4038,593.125 337.81,592.8594 Q337.2163,592.5781 336.5913,592.5781 Q335.2475,592.5781 334.56,593.6563 Q333.8725,594.7188 333.8725,596.8125 Q333.8725,598.9063 334.56,599.9844 Q335.2475,601.0469 336.5913,601.0469 Q337.2163,601.0469 337.81,600.7813 Q338.4038,600.5 339.0288,599.9219 L339.0288,602.6406 Z " fill="#000000"/><text fill="#000000" font-family="sans-serif" font-size="14" lengthAdjust="spacing" textLength="71.8799" x="350.06" y="601.8467">Operacion</text><line style="stroke:#181818;stroke-width:0.5;" x1="322.06" x2="423.9399" y1="613" y2="613"/><line style="stroke:#181818;stroke-width:0.5;" x1="322.06" x2="423.9399" y1="621" y2="621"/></g><!--class D--><g class="entity" data-qualified-name="DOM.D" data-source-line="41" id="ent0025"><rect fill="#F1F1F1" height="48" rx="2.5" ry="2.5" style="stroke:#181818;stroke-width:0.5;" width="97.7617" x="388.12" y="690"/><ellipse cx="403.12" cy="706" fill="#ADD1B2" rx="11" ry="11" style="stroke:#181818;stroke-width:1;"/><path d="M406.0888,711.6406 Q405.5106,711.9375 404.87,712.0781 Q404.2294,712.2344 403.5263,712.2344 Q401.0263,712.2344 399.6981,710.5938 Q398.3856,708.9375 398.3856,705.8125 Q398.3856,702.6875 399.6981,701.0313 Q401.0263,699.375 403.5263,699.375 Q404.2294,699.375 404.87,699.5313 Q405.5263,699.6875 406.0888,699.9844 L406.0888,702.7031 Q405.4638,702.125 404.87,701.8594 Q404.2763,701.5781 403.6513,701.5781 Q402.3075,701.5781 401.62,702.6563 Q400.9325,703.7188 400.9325,705.8125 Q400.9325,707.9063 401.62,708.9844 Q402.3075,710.0469 403.6513,710.0469 Q404.2763,710.0469 404.87,709.7813 Q405.4638,709.5 406.0888,708.9219 L406.0888,711.6406 Z " fill="#000000"/><text fill="#000000" font-family="sans-serif" font-size="14" lengthAdjust="spacing" textLength="65.7617" x="417.12" y="710.8467">Direccion</text><line style="stroke:#181818;stroke-width:0.5;" x1="389.12" x2="484.8817" y1="722" y2="722"/><line style="stroke:#181818;stroke-width:0.5;" x1="389.12" x2="484.8817" y1="730" y2="730"/></g><!--class E--><g class="entity" data-qualified-name="DOM.E" data-source-line="42" id="ent0026"><rect fill="#F1F1F1" height="48" rx="2.5" ry="2.5" style="stroke:#181818;stroke-width:0.5;" width="85.4502" x="460.27" y="581"/><ellipse cx="475.27" cy="597" fill="#ADD1B2" rx="11" ry="11" style="stroke:#181818;stroke-width:1;"/><path d="M478.2388,602.6406 Q477.6606,602.9375 477.02,603.0781 Q476.3794,603.2344 475.6763,603.2344 Q473.1763,603.2344 471.8481,601.5938 Q470.5356,599.9375 470.5356,596.8125 Q470.5356,593.6875 471.8481,592.0313 Q473.1763,590.375 475.6763,590.375 Q476.3794,590.375 477.02,590.5313 Q477.6763,590.6875 478.2388,590.9844 L478.2388,593.7031 Q477.6138,593.125 477.02,592.8594 Q476.4263,592.5781 475.8013,592.5781 Q474.4575,592.5781 473.77,593.6563 Q473.0825,594.7188 473.0825,596.8125 Q473.0825,598.9063 473.77,599.9844 Q474.4575,601.0469 475.8013,601.0469 Q476.4263,601.0469 477.02,600.7813 Q477.6138,600.5 478.2388,599.9219 L478.2388,602.6406 Z " fill="#000000"/><text fill="#000000" font-family="sans-serif" font-size="14" lengthAdjust="spacing" textLength="53.4502" x="489.27" y="601.8467">Entidad</text><line style="stroke:#181818;stroke-width:0.5;" x1="461.27" x2="544.7202" y1="613" y2="613"/><line style="stroke:#181818;stroke-width:0.5;" x1="461.27" x2="544.7202" y1="621" y2="621"/></g><!--class AP--><g class="entity" data-qualified-name="DOM.AP" data-source-line="43" id="ent0027"><rect fill="#F1F1F1" height="48" rx="2.5" ry="2.5" style="stroke:#181818;stroke-width:0.5;" width="116.8682" x="59.57" y="581"/><ellipse cx="74.57" cy="597" fill="#ADD1B2" rx="11" ry="11" style="stroke:#181818;stroke-width:1;"/><path d="M77.5388,602.6406 Q76.9606,602.9375 76.32,603.0781 Q75.6794,603.2344 74.9763,603.2344 Q72.4763,603.2344 71.1481,601.5938 Q69.8356,599.9375 69.8356,596.8125 Q69.8356,593.6875 71.1481,592.0313 Q72.4763,590.375 74.9763,590.375 Q75.6794,590.375 76.32,590.5313 Q76.9763,590.6875 77.5388,590.9844 L77.5388,593.7031 Q76.9138,593.125 76.32,592.8594 Q75.7263,592.5781 75.1013,592.5781 Q73.7575,592.5781 73.07,593.6563 Q72.3825,594.7188 72.3825,596.8125 Q72.3825,598.9063 73.07,599.9844 Q73.7575,601.0469 75.1013,601.0469 Q75.7263,601.0469 76.32,600.7813 Q76.9138,600.5 77.5388,599.9219 L77.5388,602.6406 Z " fill="#000000"/><text fill="#000000" font-family="sans-serif" font-size="14" lengthAdjust="spacing" textLength="84.8682" x="88.57" y="601.8467">AlertaPrecio</text><line style="stroke:#181818;stroke-width:0.5;" x1="60.57" x2="175.4382" y1="613" y2="613"/><line style="stroke:#181818;stroke-width:0.5;" x1="60.57" x2="175.4382" y1="621" y2="621"/></g><!--class W--><g class="entity" data-qualified-name="DOM.W" data-source-line="44" id="ent0028"><rect fill="#F1F1F1" height="48" rx="2.5" ry="2.5" style="stroke:#181818;stroke-width:0.5;" width="97.4541" x="46.27" y="690"/><ellipse cx="61.27" cy="706" fill="#ADD1B2" rx="11" ry="11" style="stroke:#181818;stroke-width:1;"/><path d="M64.2388,711.6406 Q63.6606,711.9375 63.02,712.0781 Q62.3794,712.2344 61.6763,712.2344 Q59.1763,712.2344 57.8481,710.5938 Q56.5356,708.9375 56.5356,705.8125 Q56.5356,702.6875 57.8481,701.0313 Q59.1763,699.375 61.6763,699.375 Q62.3794,699.375 63.02,699.5313 Q63.6763,699.6875 64.2388,699.9844 L64.2388,702.7031 Q63.6138,702.125 63.02,701.8594 Q62.4263,701.5781 61.8013,701.5781 Q60.4575,701.5781 59.77,702.6563 Q59.0825,703.7188 59.0825,705.8125 Q59.0825,707.9063 59.77,708.9844 Q60.4575,710.0469 61.8013,710.0469 Q62.4263,710.0469 63.02,709.7813 Q63.6138,709.5 64.2388,708.9219 L64.2388,711.6406 Z " fill="#000000"/><text fill="#000000" font-family="sans-serif" font-size="14" lengthAdjust="spacing" textLength="65.4541" x="75.27" y="710.8467">Webhook</text><line style="stroke:#181818;stroke-width:0.5;" x1="47.27" x2="142.7241" y1="722" y2="722"/><line style="stroke:#181818;stroke-width:0.5;" x1="47.27" x2="142.7241" y1="730" y2="730"/></g><!--class N--><g class="entity" data-qualified-name="DOM.N" data-source-line="45" id="ent0029"><rect fill="#F1F1F1" height="48" rx="2.5" ry="2.5" style="stroke:#181818;stroke-width:0.5;" width="114.5371" x="110.73" y="470"/><ellipse cx="125.73" cy="486" fill="#ADD1B2" rx="11" ry="11" style="stroke:#181818;stroke-width:1;"/><path d="M128.6988,491.6406 Q128.1206,491.9375 127.48,492.0781 Q126.8394,492.2344 126.1363,492.2344 Q123.6363,492.2344 122.3081,490.5938 Q120.9956,488.9375 120.9956,485.8125 Q120.9956,482.6875 122.3081,481.0313 Q123.6363,479.375 126.1363,479.375 Q126.8394,479.375 127.48,479.5313 Q128.1363,479.6875 128.6988,479.9844 L128.6988,482.7031 Q128.0738,482.125 127.48,481.8594 Q126.8863,481.5781 126.2613,481.5781 Q124.9175,481.5781 124.23,482.6563 Q123.5425,483.7188 123.5425,485.8125 Q123.5425,487.9063 124.23,488.9844 Q124.9175,490.0469 126.2613,490.0469 Q126.8863,490.0469 127.48,489.7813 Q128.0738,489.5 128.6988,488.9219 L128.6988,491.6406 Z " fill="#000000"/><text fill="#000000" font-family="sans-serif" font-size="14" lengthAdjust="spacing" textLength="82.5371" x="139.73" y="490.8467">Notificacion</text><line style="stroke:#181818;stroke-width:0.5;" x1="111.73" x2="224.2671" y1="502" y2="502"/><line style="stroke:#181818;stroke-width:0.5;" x1="111.73" x2="224.2671" y1="510" y2="510"/></g><!--link VL to GCL--><g class="link" data-entity-1="ent0003" data-entity-2="ent0012" data-link-type="dependency" data-source-line="48" id="lnk30"><path codeLine="48" d="M1345.69,238.24 C1358.54,261.76 1375.4139,292.6542 1388.3039,316.2542" fill="none" id="VL-to-GCL" style="stroke:#181818;stroke-width:1;stroke-dasharray:7,7;"/><polygon fill="#181818" points="1391.18,321.52,1390.3764,311.704,1388.7833,317.1319,1383.3554,315.5388,1391.18,321.52" style="stroke:#181818;stroke-width:1;"/></g><!--link VE to GCE--><g class="link" data-entity-1="ent0004" data-entity-2="ent0015" data-link-type="dependency" data-source-line="49" id="lnk31"><path codeLine="49" d="M1150.08,238.22 C1145.75,290.55 1135.7647,411.2104 1131.4247,463.6704" fill="none" id="VE-to-GCE" style="stroke:#181818;stroke-width:1;stroke-dasharray:7,7;"/><polygon fill="#181818" points="1130.93,469.65,1135.6584,461.0104,1131.3422,464.667,1127.6857,460.3508,1130.93,469.65" style="stroke:#181818;stroke-width:1;"/></g><!--link VA to GAP--><g class="link" data-entity-1="ent0005" data-entity-2="ent0017" data-link-type="dependency" data-source-line="50" id="lnk32"><path codeLine="50" d="M982.42,238.24 C973.74,261.76 962.4574,292.2911 953.7474,315.8911" fill="none" id="VA-to-GAP" style="stroke:#181818;stroke-width:1;stroke-dasharray:7,7;"/><polygon fill="#181818" points="951.67,321.52,958.5387,314.4616,953.4012,316.8293,951.0336,311.6917,951.67,321.52" style="stroke:#181818;stroke-width:1;"/></g><!--link VA to CW--><g class="link" data-entity-1="ent0005" data-entity-2="ent0009" data-link-type="dependency" data-source-line="51" id="lnk33"><path codeLine="51" d="M1016.96,238.24 C1027.5,249.4 1038.47,263.66 1044,279 C1061.33,327.08 1074.37,352.89 1044,394 C1015.16,433.04 894.2242,461.9584 808.6142,478.2484" fill="none" id="VA-to-CW" style="stroke:#181818;stroke-width:1;stroke-dasharray:7,7;"/><polygon fill="#181818" points="802.72,479.37,812.3091,481.6171,807.6319,478.4354,810.8137,473.7582,802.72,479.37" style="stroke:#181818;stroke-width:1;"/></g><!--link CH to GCL--><g class="link" data-entity-1="ent0007" data-entity-2="ent0012" data-link-type="dependency" data-source-line="53" id="lnk34"><path codeLine="53" d="M1355.28,90.44 C1383.03,102.6 1410.89,120.64 1427,147 C1460.74,202.22 1435.359,276.9381 1417.909,316.1581" fill="none" id="CH-to-GCL" style="stroke:#181818;stroke-width:1;stroke-dasharray:7,7;"/><polygon fill="#181818" points="1415.47,321.64,1422.7831,315.0432,1417.5025,317.0718,1415.474,311.7911,1415.47,321.64" style="stroke:#181818;stroke-width:1;"/><text fill="#000000" font-family="sans-serif" font-size="13" lengthAdjust="spacing" textLength="52.9331" x="1443" y="218.5669">&#171;event&#187;</text></g><!--link CH to GEA--><g class="link" data-entity-1="ent0007" data-entity-2="ent0019" data-link-type="dependency" data-source-line="54" id="lnk35"><path codeLine="54" d="M1183.01,81.5 C1110.49,94.72 1005.56,116.8 917,147 C883.16,158.54 851.9764,172.9365 824.4364,186.8365" fill="none" id="CH-to-GEA" style="stroke:#181818;stroke-width:1;stroke-dasharray:7,7;"/><polygon fill="#181818" points="819.08,189.54,828.9169,189.0557,823.5437,187.2871,825.3123,181.9138,819.08,189.54" style="stroke:#181818;stroke-width:1;"/><text fill="#000000" font-family="sans-serif" font-size="13" lengthAdjust="spacing" textLength="52.9331" x="993" y="135.0669">&#171;event&#187;</text></g><!--link GCL to GCE--><g class="link" data-entity-1="ent0012" data-entity-2="ent0015" data-link-type="dependency" data-source-line="56" id="lnk36"><path codeLine="56" d="M1348.41,370.48 C1327.35,379.78 1303.33,390.89 1282,402 C1241.29,423.2 1201.4171,447.2387 1170.8271,466.3687" fill="none" id="GCL-to-GCE" style="stroke:#181818;stroke-width:1;stroke-dasharray:7,7;"/><polygon fill="#181818" points="1165.74,469.55,1175.4916,468.1694,1169.9793,466.8989,1171.2498,461.3866,1165.74,469.55" style="stroke:#181818;stroke-width:1;"/><text fill="#000000" font-family="sans-serif" font-size="13" lengthAdjust="spacing" textLength="104.6538" x="1283" y="415.0669">resolverNombre</text></g><!--link GCL to LEV--><g class="link" data-entity-1="ent0012" data-entity-2="ent0013" data-link-type="dependency" data-source-line="57" id="lnk37"><path codeLine="57" d="M1401.59,370.46 C1398.79,397.7 1394.814,436.4115 1392.014,463.6315" fill="none" id="GCL-to-LEV" style="stroke:#181818;stroke-width:1;"/><polygon fill="#181818" points="1391.4,469.6,1396.2999,461.0565,1391.9116,464.6262,1388.3419,460.2379,1391.4,469.6" style="stroke:#181818;stroke-width:1;"/></g><!--reverse link LEV to OP--><g class="link" data-entity-1="ent0013" data-entity-2="ent0024" data-link-type="aggregation" data-source-line="58" id="lnk38"><path codeLine="58" d="M1320.1873,522.5741 C1295.5273,531.5741 1277.41,536.81 1250,542 C897.19,608.82 796.1,515.7 443,581 C437.21,582.07 431.25,583.5 425.35,585.12" fill="none" id="LEV-backto-OP" style="stroke:#181818;stroke-width:1;"/><polygon fill="none" points="1331.46,518.46,1324.4523,516.7595,1320.1873,522.5741,1327.195,524.2746,1331.46,518.46" style="stroke:#181818;stroke-width:1;"/></g><!--link GAP to CW--><g class="link" data-entity-1="ent0017" data-entity-2="ent0009" data-link-type="dependency" data-source-line="60" id="lnk39"><path codeLine="60" d="M907.49,370.46 C866.25,397.7 803.6261,439.0726 762.4261,466.2926" fill="none" id="GAP-to-CW" style="stroke:#181818;stroke-width:1;stroke-dasharray:7,7;"/><polygon fill="#181818" points="757.42,469.6,767.1341,467.9763,761.5917,466.8438,762.7242,461.3015,757.42,469.6" style="stroke:#181818;stroke-width:1;"/></g><!--link GEA to GAP--><g class="link" data-entity-1="ent0019" data-entity-2="ent0017" data-link-type="dependency" data-source-line="61" id="lnk40"><path codeLine="61" d="M805.04,238.24 C835.43,261.76 877.4147,294.2482 907.9147,317.8482" fill="none" id="GEA-to-GAP" style="stroke:#181818;stroke-width:1;stroke-dasharray:7,7;"/><polygon fill="#181818" points="912.66,321.52,907.9899,312.8488,908.7056,318.4602,903.0942,319.1759,912.66,321.52" style="stroke:#181818;stroke-width:1;"/></g><!--link GEA to GEN--><g class="link" data-entity-1="ent0019" data-entity-2="ent0010" data-link-type="dependency" data-source-line="62" id="lnk41"><path codeLine="62" d="M761.95,238.24 C748.74,261.76 731.379,292.6891 718.119,316.2891" fill="none" id="GEA-to-GEN" style="stroke:#181818;stroke-width:1;stroke-dasharray:7,7;"/><polygon fill="#181818" points="715.18,321.52,723.0758,315.6331,717.6292,317.1609,716.1013,311.7143,715.18,321.52" style="stroke:#181818;stroke-width:1;"/></g><!--link GEN to CW--><g class="link" data-entity-1="ent0010" data-entity-2="ent0009" data-link-type="dependency" data-source-line="64" id="lnk42"><path codeLine="64" d="M705.21,370.46 C708.95,397.7 714.2576,436.4353 717.9776,463.6553" fill="none" id="GEN-to-CW" style="stroke:#181818;stroke-width:1;stroke-dasharray:7,7;"/><polygon fill="#181818" points="718.79,469.6,721.5345,460.1413,718.113,464.646,713.6082,461.2245,718.79,469.6" style="stroke:#181818;stroke-width:1;"/></g><!--link GEN to N--><g class="link" data-entity-1="ent0010" data-entity-2="ent0029" data-link-type="dependency" data-source-line="65" id="lnk43"><path codeLine="65" d="M616.2,370.46 C506.53,400.44 325.4076,449.9678 231.3976,475.6678" fill="none" id="GEN-to-N" style="stroke:#181818;stroke-width:1;"/><polygon fill="#181818" points="225.61,477.25,235.3462,478.7351,230.433,475.9315,233.2366,471.0183,225.61,477.25" style="stroke:#181818;stroke-width:1;"/></g><!--link T to M--><g class="link" data-entity-1="ent0022" data-entity-2="ent0021" data-link-type="dependency" data-source-line="67" id="lnk44"><path codeLine="67" d="M249,738.48 C249,756.32 249,774.75 249,792.57" fill="none" id="T-to-M" style="stroke:#181818;stroke-width:1;"/><polygon fill="#181818" points="249,798.57,253,789.57,249,793.57,245,789.57,249,798.57" style="stroke:#181818;stroke-width:1;"/></g><!--link OP to T--><g class="link" data-entity-1="ent0024" data-entity-2="ent0022" data-link-type="dependency" data-source-line="68" id="lnk45"><path codeLine="68" d="M345.79,629.48 C325.11,647.32 301.3534,667.8311 280.6934,685.6511" fill="none" id="OP-to-T" style="stroke:#181818;stroke-width:1;"/><polygon fill="#181818" points="276.15,689.57,285.5777,686.7207,279.9362,686.3043,280.3525,680.6628,276.15,689.57" style="stroke:#181818;stroke-width:1;"/></g><!--link OP to D--><g class="link" data-entity-1="ent0024" data-entity-2="ent0025" data-link-type="dependency" data-source-line="69" id="lnk46"><path codeLine="69" d="M387.05,629.48 C397.72,647.32 409.2377,666.6022 419.9077,684.4222" fill="none" id="OP-to-D" style="stroke:#181818;stroke-width:1;"/><polygon fill="#181818" points="422.99,689.57,421.7984,679.7935,420.4214,685.2802,414.9347,683.9032,422.99,689.57" style="stroke:#181818;stroke-width:1;"/></g><!--link P to T--><g class="link" data-entity-1="ent0023" data-entity-2="ent0022" data-link-type="dependency" data-source-line="70" id="lnk47"><path codeLine="70" d="M249,629.48 C249,647.32 249,665.75 249,683.57" fill="none" id="P-to-T" style="stroke:#181818;stroke-width:1;"/><polygon fill="#181818" points="249,689.57,253,680.57,249,684.57,245,680.57,249,689.57" style="stroke:#181818;stroke-width:1;"/></g><!--reverse link E to D--><g class="link" data-entity-1="ent0026" data-entity-2="ent0025" data-link-type="aggregation" data-source-line="71" id="lnk48"><path codeLine="71" d="M482.2177,639.6918 C471.2077,657.5318 462.45,671.75 451.45,689.57" fill="none" id="E-backto-D" style="stroke:#181818;stroke-width:1;"/><polygon fill="none" points="488.52,629.48,481.9649,632.4852,482.2177,639.6918,488.7728,636.6867,488.52,629.48" style="stroke:#181818;stroke-width:1;"/></g><!--link AP to T--><g class="link" data-entity-1="ent0027" data-entity-2="ent0022" data-link-type="dependency" data-source-line="72" id="lnk49"><path codeLine="72" d="M146.75,629.48 C168.59,647.32 193.842,667.9558 215.672,685.7758" fill="none" id="AP-to-T" style="stroke:#181818;stroke-width:1;"/><polygon fill="#181818" points="220.32,689.57,215.8775,680.78,216.4467,686.4082,210.8185,686.9774,220.32,689.57" style="stroke:#181818;stroke-width:1;"/></g><!--link AP to W--><g class="link" data-entity-1="ent0027" data-entity-2="ent0028" data-link-type="dependency" data-source-line="73" id="lnk50"><path codeLine="73" d="M112.95,629.48 C109.12,647.32 105.1308,665.884 101.3008,683.704" fill="none" id="AP-to-W" style="stroke:#181818;stroke-width:1;"/><polygon fill="#181818" points="100.04,689.57,105.8419,681.6115,101.0906,684.6816,98.0205,679.9304,100.04,689.57" style="stroke:#181818;stroke-width:1;"/></g><!--link N to AP--><g class="link" data-entity-1="ent0029" data-entity-2="ent0027" data-link-type="dependency" data-source-line="74" id="lnk51"><path codeLine="74" d="M157.27,518.38 C148.84,536.77 139.6402,556.8158 131.2102,575.2058" fill="none" id="N-to-AP" style="stroke:#181818;stroke-width:1;"/><polygon fill="#181818" points="128.71,580.66,136.0965,574.1455,130.7935,576.1148,128.8242,570.8118,128.71,580.66" style="stroke:#181818;stroke-width:1;"/></g><!--link N to P--><g class="link" data-entity-1="ent0029" data-entity-2="ent0023" data-link-type="dependency" data-source-line="75" id="lnk52"><path codeLine="75" d="M185.38,518.38 C199.04,536.77 214.4122,557.4534 228.0722,575.8434" fill="none" id="N-to-P" style="stroke:#181818;stroke-width:1;"/><polygon fill="#181818" points="231.65,580.66,229.4944,571.0499,228.6685,576.6462,223.0723,575.8203,231.65,580.66" style="stroke:#181818;stroke-width:1;"/></g><!--link N to W--><g class="link" data-entity-1="ent0029" data-entity-2="ent0028" data-link-type="dependency" data-source-line="76" id="lnk53"><path codeLine="76" d="M111.34,518.41 C85.22,532.42 56.78,553.01 42,581 C22.62,617.68 47.6827,658.441 69.8327,685.301" fill="none" id="N-to-W" style="stroke:#181818;stroke-width:1;"/><polygon fill="#181818" points="73.65,689.93,71.01,680.4416,70.4689,686.0725,64.838,685.5313,73.65,689.93" style="stroke:#181818;stroke-width:1;"/></g><?plantuml-src VPJ1RgCm48RlVWehf-qXVO1L5Sa2YrOY13K8pWvuKok4oHe7AQhstNTiGnQM42xyCj_ydl5uQ4-gkGWjplGYofCuohsvrP9gMHhH76j9lbGbQMkabc1k5qb8pz7LVfr-ylsAYfPQGRy9nQUiHTlILQvQ8s8fAgaF87Jbi3ocRsy7k3QLqBVDPiRpngWAGrfFy-SqgwKsecVPbFqpoVCZYRZ3h9Zc6K23fO9-nzfqhNvVbKyrU7zccEoo3uTPyTYma8SlW9CtAnOhYMIBC6yw1GaOzKkLebJGkB289nXNGcCqrBCSOiv2XranpS6ROYRjjPvt8GhYYUqeS8Jo9bSTz1la622nEMP-507Bc2yInSCqX14r767Qt2ZWJsfZCVzqc1MFJFlUftXFbKyoOkaJGvwps65MF3BadQYlxkZ7rohYRD4qXBDg5D0V9PnnWh0uU751uMuxtM4hTIagd-PsV98Z9eEJz5tF5eXHhUa2iiCx_E_wx9QmKA7L7GiNgBvV_jGM67zMeypOqfxZSIWMcDa09FzTE_n_lBvkx0Kc-7FmaXESVITPEiYW80G7k6VfJslJeH6w3ClOsF4oiLnlY1-qRA7kf4xWVD3IVLolDtOGY1q6MA_nT348o-ttiuP35dVD4sHmYEzCucnmDNDYIx17LcI32CcmmDqk8M73GYyAuarm7o-6T_4N?></g></svg>