<svg xmlns="http://www.w3.org/2000/svg" xmlns:xlink="http://www.w3.org/1999/xlink" contentStyleType="text/css" data-diagram-type="DESCRIPTION" height="527px" preserveAspectRatio="none" style="width:759px;height:527px;background:#FFFFFF;" version="1.1" viewBox="0 0 759 527" width="759px" zoomAndPan="magnify"><?plantuml 1.2026.3beta6?><defs/><g><!--cluster F--><g class="cluster" data-qualified-name="F" data-source-line="4" id="ent0002"><rect fill="none" height="138.89" rx="2.5" ry="2.5" style="stroke:#181818;stroke-width:1;" width="466" x="237.87" y="7"/><text fill="#000000" font-family="sans-serif" font-size="14" font-weight="700" lengthAdjust="spacing" textLength="68.5918" x="436.5741" y="21.9951">Frontera</text></g><!--cluster N--><g class="cluster" data-qualified-name="N" data-source-line="10" id="ent0006"><rect fill="none" height="287.78" rx="2.5" ry="2.5" style="stroke:#181818;stroke-width:1;" width="326" x="287.87" y="225.89"/><text fill="#000000" font-family="sans-serif" font-size="14" font-weight="700" lengthAdjust="spacing" textLength="53.8945" x="423.9227" y="240.8851">N&#250;cleo</text></g><!--entity PRES--><g class="entity" data-qualified-name="F.PRES" data-source-line="5" id="ent0003"><path d="M562.03,50 L615.7175,50 A3.75,3.75 0 0 1 618.2175,52.5 L625.2175,72.2969 L677.7155,72.2969 A2.5,2.5 0 0 1 680.2155,74.7969 L680.2155,119.3906 A2.5,2.5 0 0 1 677.7155,121.8906 L562.03,121.8906 A2.5,2.5 0 0 1 559.53,119.3906 L559.53,52.5 A2.5,2.5 0 0 1 562.03,50" fill="#F1F1F1" style="stroke:#181818;stroke-width:0.5;"/><line style="stroke:#181818;stroke-width:0.5;" x1="559.53" x2="625.2175" y1="72.2969" y2="72.2969"/><text fill="#000000" font-family="sans-serif" font-size="14" font-weight="700" lengthAdjust="spacing" textLength="40.6875" x="569.53" y="65.9951">PRES</text><text fill="#000000" font-family="sans-serif" font-size="14" lengthAdjust="spacing" textLength="49.8408" x="589.9524" y="92.292">S-PRES</text><text fill="#000000" font-family="sans-serif" font-size="14" lengthAdjust="spacing" textLength="90.6855" x="569.53" y="108.5889">Presentaci&#243;n</text></g><!--entity INGE--><g class="entity" data-qualified-name="F.INGE" data-source-line="6" id="ent0004"><path d="M432.06,50 L483.0405,50 A3.75,3.75 0 0 1 485.5405,52.5 L492.5405,72.2969 L521.6733,72.2969 A2.5,2.5 0 0 1 524.1733,74.7969 L524.1733,119.3906 A2.5,2.5 0 0 1 521.6733,121.8906 L432.06,121.8906 A2.5,2.5 0 0 1 429.56,119.3906 L429.56,52.5 A2.5,2.5 0 0 1 432.06,50" fill="#F1F1F1" style="stroke:#181818;stroke-width:0.5;"/><line style="stroke:#181818;stroke-width:0.5;" x1="429.56" x2="492.5405" y1="72.2969" y2="72.2969"/><text fill="#000000" font-family="sans-serif" font-size="14" font-weight="700" lengthAdjust="spacing" textLength="37.9805" x="439.56" y="65.9951">INGE</text><text fill="#000000" font-family="sans-serif" font-size="14" lengthAdjust="spacing" textLength="48.2344" x="447.7495" y="92.292">S-INGE</text><text fill="#000000" font-family="sans-serif" font-size="14" lengthAdjust="spacing" textLength="64.6133" x="439.56" y="108.5889">Ingesti&#243;n</text></g><!--entity NOTI--><g class="entity" data-qualified-name="F.NOTI" data-source-line="7" id="ent0005"><path d="M284.1,50 L335.477,50 A3.75,3.75 0 0 1 337.977,52.5 L344.977,72.2969 L391.6371,72.2969 A2.5,2.5 0 0 1 394.1371,74.7969 L394.1371,119.3906 A2.5,2.5 0 0 1 391.6371,121.8906 L284.1,121.8906 A2.5,2.5 0 0 1 281.6,119.3906 L281.6,52.5 A2.5,2.5 0 0 1 284.1,50" fill="#F1F1F1" style="stroke:#181818;stroke-width:0.5;"/><line style="stroke:#181818;stroke-width:0.5;" x1="281.6" x2="344.977" y1="72.2969" y2="72.2969"/><text fill="#000000" font-family="sans-serif" font-size="14" font-weight="700" lengthAdjust="spacing" textLength="38.377" x="291.6" y="65.9951">NOTI</text><text fill="#000000" font-family="sans-serif" font-size="14" lengthAdjust="spacing" textLength="48.1113" x="308.8129" y="92.292">S-NOTI</text><text fill="#000000" font-family="sans-serif" font-size="14" lengthAdjust="spacing" textLength="82.5371" x="291.6" y="108.5889">Notificaci&#243;n</text></g><!--entity LEAD--><g class="entity" data-qualified-name="N.LEAD" data-source-line="11" id="ent0007"><path d="M473.91,268.89 L527.8504,268.89 A3.75,3.75 0 0 1 530.3504,271.39 L537.3504,291.1869 L587.8319,291.1869 A2.5,2.5 0 0 1 590.3319,293.6869 L590.3319,338.2806 A2.5,2.5 0 0 1 587.8319,340.7806 L473.91,340.7806 A2.5,2.5 0 0 1 471.41,338.2806 L471.41,271.39 A2.5,2.5 0 0 1 473.91,268.89" fill="#F1F1F1" style="stroke:#181818;stroke-width:0.5;"/><line style="stroke:#181818;stroke-width:0.5;" x1="471.41" x2="537.3504" y1="291.1869" y2="291.1869"/><text fill="#000000" font-family="sans-serif" font-size="14" font-weight="700" lengthAdjust="spacing" textLength="40.9404" x="481.41" y="284.8851">LEAD</text><text fill="#000000" font-family="sans-serif" font-size="14" lengthAdjust="spacing" textLength="50.9414" x="500.4002" y="311.182">S-LEAD</text><text fill="#000000" font-family="sans-serif" font-size="14" lengthAdjust="spacing" textLength="88.9219" x="481.41" y="327.4789">Leaderboard</text></g><!--entity CATA--><g class="entity" data-qualified-name="N.CATA" data-source-line="12" id="ent0008"><path d="M488.2,417.78 L542.6941,417.78 A3.75,3.75 0 0 1 545.1941,420.28 L552.1941,440.0769 L575.5301,440.0769 A2.5,2.5 0 0 1 578.0301,442.5769 L578.0301,487.1706 A2.5,2.5 0 0 1 575.5301,489.6706 L488.2,489.6706 A2.5,2.5 0 0 1 485.7,487.1706 L485.7,420.28 A2.5,2.5 0 0 1 488.2,417.78" fill="#F1F1F1" style="stroke:#181818;stroke-width:0.5;"/><line style="stroke:#181818;stroke-width:0.5;" x1="485.7" x2="552.1941" y1="440.0769" y2="440.0769"/><text fill="#000000" font-family="sans-serif" font-size="14" font-weight="700" lengthAdjust="spacing" textLength="41.4941" x="495.7" y="433.7751">CATA</text><text fill="#000000" font-family="sans-serif" font-size="14" lengthAdjust="spacing" textLength="51.4199" x="501.1551" y="460.072">S-CATA</text><text fill="#000000" font-family="sans-serif" font-size="14" lengthAdjust="spacing" textLength="62.3301" x="495.7" y="476.3689">Cat&#225;logo</text></g><!--entity ALER--><g class="entity" data-qualified-name="N.ALER" data-source-line="13" id="ent0009"><path d="M359.32,417.78 L412.4196,417.78 A3.75,3.75 0 0 1 414.9196,420.28 L421.9196,440.0769 L436.4196,440.0769 A2.5,2.5 0 0 1 438.9196,442.5769 L438.9196,487.1706 A2.5,2.5 0 0 1 436.4196,489.6706 L359.32,489.6706 A2.5,2.5 0 0 1 356.82,487.1706 L356.82,420.28 A2.5,2.5 0 0 1 359.32,417.78" fill="#F1F1F1" style="stroke:#181818;stroke-width:0.5;"/><line style="stroke:#181818;stroke-width:0.5;" x1="356.82" x2="421.9196" y1="440.0769" y2="440.0769"/><text fill="#000000" font-family="sans-serif" font-size="14" font-weight="700" lengthAdjust="spacing" textLength="40.0996" x="366.82" y="433.7751">ALER</text><text fill="#000000" font-family="sans-serif" font-size="14" lengthAdjust="spacing" textLength="49.8887" x="366.82" y="460.072">S-ALER</text><text fill="#000000" font-family="sans-serif" font-size="14" lengthAdjust="spacing" textLength="49.1982" x="367.1652" y="476.3689">Alertas</text></g><!--entity EVAL--><g class="entity" data-qualified-name="N.EVAL" data-source-line="14" id="ent0010"><path d="M333.33,268.89 L386.4843,268.89 A3.75,3.75 0 0 1 388.9843,271.39 L395.9843,291.1869 L434.4071,291.1869 A2.5,2.5 0 0 1 436.9071,293.6869 L436.9071,338.2806 A2.5,2.5 0 0 1 434.4071,340.7806 L333.33,340.7806 A2.5,2.5 0 0 1 330.83,338.2806 L330.83,271.39 A2.5,2.5 0 0 1 333.33,268.89" fill="#F1F1F1" style="stroke:#181818;stroke-width:0.5;"/><line style="stroke:#181818;stroke-width:0.5;" x1="330.83" x2="395.9843" y1="291.1869" y2="291.1869"/><text fill="#000000" font-family="sans-serif" font-size="14" font-weight="700" lengthAdjust="spacing" textLength="40.1543" x="340.83" y="284.8851">EVAL</text><text fill="#000000" font-family="sans-serif" font-size="14" lengthAdjust="spacing" textLength="49.7383" x="353.9994" y="311.182">S-EVAL</text><text fill="#000000" font-family="sans-serif" font-size="14" lengthAdjust="spacing" textLength="76.0771" x="340.83" y="327.4789">Evaluaci&#243;n</text></g><g class="entity" data-qualified-name="GMN19" data-source-line="27" id="ent0020"><path d="M6,277.13 L6,332.5284 L237.7358,332.5284 L237.7358,287.13 L227.7358,277.13 L6,277.13" fill="#FEFFDD" style="stroke:#181818;stroke-width:0.5;"/><path d="M227.7358,277.13 L227.7358,287.13 L237.7358,287.13 L227.7358,277.13" fill="#FEFFDD" style="stroke:#181818;stroke-width:1;"/><text fill="#000000" font-family="sans-serif" font-size="13" lengthAdjust="spacing" textLength="163.814" x="12" y="294.1969">Subsistemas de frontera:</text><text fill="#000000" font-family="sans-serif" font-size="13" lengthAdjust="spacing" textLength="210.7358" x="12" y="309.3297">traducen entre actores externos</text><text fill="#000000" font-family="sans-serif" font-size="13" lengthAdjust="spacing" textLength="153.8989" x="12" y="324.4625">y el n&#250;cleo del sistema.</text></g><g class="entity" data-qualified-name="GMN22" data-source-line="33" id="ent0023"><path d="M78.34,426.03 L78.34,481.4284 L263.3952,481.4284 L263.3952,436.03 L253.3952,426.03 L78.34,426.03" fill="#FEFFDD" style="stroke:#181818;stroke-width:0.5;"/><path d="M253.3952,426.03 L253.3952,436.03 L263.3952,436.03 L253.3952,426.03" fill="#FEFFDD" style="stroke:#181818;stroke-width:1;"/><text fill="#000000" font-family="sans-serif" font-size="13" lengthAdjust="spacing" textLength="158.0947" x="84.34" y="443.0969">Subsistemas del n&#250;cleo:</text><text fill="#000000" font-family="sans-serif" font-size="13" lengthAdjust="spacing" textLength="164.0552" x="84.34" y="458.2297">contienen el control y las</text><text fill="#000000" font-family="sans-serif" font-size="13" lengthAdjust="spacing" textLength="155.1431" x="84.34" y="473.3625">entidades de cada CdU.</text></g><!--link PRES to LEAD--><g class="link" data-entity-1="ent0003" data-entity-2="ent0007" data-link-type="dependency" data-source-line="17" id="lnk11"><path d="M618.46,122.23 C616.54,145.55 612.1,176.4 601.87,201.89 C592.22,225.91 579.7061,267.3727 565.2161,285.9827" fill="none" id="PRES-to-LEAD" style="stroke:#181818;stroke-width:1;stroke-dasharray:7,7;"/><polygon fill="#181818" points="561.53,290.7169,570.2153,286.073,564.6018,286.7717,563.903,281.1582,561.53,290.7169" style="stroke:#181818;stroke-width:1;"/></g><!--link PRES to CATA--><g class="link" data-entity-1="ent0003" data-entity-2="ent0008" data-link-type="dependency" data-source-line="18" id="lnk12"><path d="M659.51,122 C672.03,135.56 684.3,152.11 690.87,169.89 C724.44,260.72 744.87,307.39 690.87,387.78 C665.93,424.91 621.5326,439.7431 584.1526,446.5631" fill="none" id="PRES-to-CATA" style="stroke:#181818;stroke-width:1;stroke-dasharray:7,7;"/><polygon fill="#181818" points="578.25,447.64,587.8218,449.9597,583.1688,446.7426,586.3859,442.0896,578.25,447.64" style="stroke:#181818;stroke-width:1;"/></g><!--link PRES to ALER--><g class="link" data-entity-1="ent0003" data-entity-2="ent0009" data-link-type="dependency" data-source-line="19" id="lnk13"><path d="M636.67,121.93 C663.51,183.51 706.85,311.89 642.87,387.78 C592,448.11 542.86,393.23 467.87,417.78 C458.32,420.91 453.8458,444.8436 444.6258,449.2836" fill="none" id="PRES-to-ALER" style="stroke:#181818;stroke-width:1;stroke-dasharray:7,7;"/><polygon fill="#181818" points="439.22,451.8869,449.0643,451.5859,443.7249,449.7175,445.5933,444.3781,439.22,451.8869" style="stroke:#181818;stroke-width:1;"/></g><!--link INGE to LEAD--><g class="link" data-entity-1="ent0004" data-entity-2="ent0007" data-link-type="dependency" data-source-line="20" id="lnk14"><path d="M470.94,122.23 C468.28,145.27 467.07,175.81 473.87,201.89 C480.05,225.63 489.8879,244.6614 501.9479,263.4414" fill="none" id="INGE-to-LEAD" style="stroke:#181818;stroke-width:1;stroke-dasharray:7,7;"/><polygon fill="#181818" points="505.19,268.49,503.6926,258.7556,502.4883,264.2828,496.9611,263.0784,505.19,268.49" style="stroke:#181818;stroke-width:1;"/><text fill="#000000" font-family="sans-serif" font-size="13" lengthAdjust="spacing" textLength="52.9331" x="509.7123" y="182.9569">&#171;event&#187;</text><text fill="#000000" font-family="sans-serif" font-size="13" lengthAdjust="spacing" textLength="122.6177" x="474.87" y="198.0897">OperacionRecibida</text></g><!--link INGE to EVAL--><g class="link" data-entity-1="ent0004" data-entity-2="ent0010" data-link-type="dependency" data-source-line="21" id="lnk15"><path d="M455.08,122.06 C444.01,136.84 429.22,152.7 411.87,161.89 C398.42,169.01 353.98,158.52 343.87,169.89 C319.52,197.27 334.5561,233.909 353.6561,263.499" fill="none" id="INGE-to-EVAL" style="stroke:#181818;stroke-width:1;stroke-dasharray:7,7;"/><polygon fill="#181818" points="356.91,268.54,355.3898,258.8092,354.1984,264.3391,348.6684,263.1477,356.91,268.54" style="stroke:#181818;stroke-width:1;"/><text fill="#000000" font-family="sans-serif" font-size="13" lengthAdjust="spacing" textLength="52.9331" x="376.1322" y="182.9569">&#171;event&#187;</text><text fill="#000000" font-family="sans-serif" font-size="13" lengthAdjust="spacing" textLength="115.4575" x="344.87" y="198.0897">PrecioActualizado</text></g><!--link EVAL to ALER--><g class="link" data-entity-1="ent0010" data-entity-2="ent0009" data-link-type="dependency" data-source-line="22" id="lnk16"><path d="M387.22,341.02 C389.42,364.1 391.7219,388.217 393.9219,411.347" fill="none" id="EVAL-to-ALER" style="stroke:#181818;stroke-width:1;stroke-dasharray:7,7;"/><polygon fill="#181818" points="394.49,417.32,397.6198,407.9817,394.0166,412.3425,389.6558,408.7392,394.49,417.32" style="stroke:#181818;stroke-width:1;"/><text fill="#000000" font-family="sans-serif" font-size="13" lengthAdjust="spacing" textLength="55.0278" x="391.87" y="383.8469">consulta</text></g><!--link EVAL to NOTI--><g class="link" data-entity-1="ent0010" data-entity-2="ent0005" data-link-type="dependency" data-source-line="23" id="lnk17"><path d="M372.11,268.64 C363.17,247.77 348.64,222.92 326.87,209.89 C312.55,201.32 188.35,214 176.87,201.89 C167.08,191.57 167.22,180.33 176.87,169.89 C192.15,153.35 257.97,172.43 277.87,161.89 C294.66,152.99 305.0194,142.1238 315.0894,127.2938" fill="none" id="EVAL-to-NOTI" style="stroke:#181818;stroke-width:1;stroke-dasharray:7,7;"/><polygon fill="#181818" points="318.46,122.33,310.095,127.5287,315.6512,126.4665,316.7134,132.0227,318.46,122.33" style="stroke:#181818;stroke-width:1;"/><text fill="#000000" font-family="sans-serif" font-size="13" lengthAdjust="spacing" textLength="63.0068" x="195.7704" y="182.9569">&#171;include&#187;</text><text fill="#000000" font-family="sans-serif" font-size="13" lengthAdjust="spacing" textLength="98.8076" x="177.87" y="198.0897">CU-13 &#8594; CU-14</text></g><!--link LEAD to CATA--><g class="link" data-entity-1="ent0007" data-entity-2="ent0008" data-link-type="dependency" data-source-line="24" id="lnk18"><path d="M531.11,341.02 C531.26,364.1 531.4285,388.1901 531.5885,411.3201" fill="none" id="LEAD-to-CATA" style="stroke:#181818;stroke-width:1;stroke-dasharray:7,7;"/><polygon fill="#181818" points="531.63,417.32,535.5676,408.2925,531.5954,412.3201,527.5678,408.3479,531.63,417.32" style="stroke:#181818;stroke-width:1;"/><text fill="#000000" font-family="sans-serif" font-size="13" lengthAdjust="spacing" textLength="117.0127" x="531.87" y="383.8469">resuelve nombres</text></g><!--link F to GMN19--><g class="link" data-entity-1="ent0002" data-entity-2="ent0020" data-link-type="association" data-source-line="27" id="lnk21"><path d="M237.7646,92.6758 C237.6823,92.7361 237.5995,92.7969 237.5162,92.8581 C237.3495,92.9805 237.1808,93.1047 237.01,93.2306 C236.3268,93.7342 235.6107,94.2658 234.8642,94.8244 C228.8922,99.2931 220.9719,105.4925 212.3388,112.9825 C195.0725,127.9625 174.955,148.105 161.87,169.89 C141.56,203.7 130.92,248.55 125.85,276.81" fill="none" id="F-GMN19" style="stroke:#181818;stroke-width:1;stroke-dasharray:7,7;"/></g><!--link N to GMN22--><g class="link" data-entity-1="ent0006" data-entity-2="ent0023" data-link-type="association" data-source-line="33" id="lnk24"><path d="M287.8331,315.2748 C287.6516,315.4882 287.4673,315.7047 287.2805,315.9242 C286.9067,316.3634 286.5225,316.8148 286.1281,317.2782 C285.3394,318.205 284.51,319.1796 283.6428,320.1986 C276.705,328.3509 267.3438,339.3519 256.965,351.5488 C236.2075,375.9425 211.38,405.12 193.73,425.86" fill="none" id="N-GMN22" style="stroke:#181818;stroke-width:1;stroke-dasharray:7,7;"/></g><?plantuml-src PP91Rjim44NtFCKW-nWesbKG611SkJ1WA86TTANDY1oxHEYXGL56tQBR7g0tw1cwwzOtwKawf1tPaRKIPvx-_nfE-s9vYm4ti4NzWcjQnhqZ2AGZyjgH-c8DGHifa8_xBIbruk1c6ZnB7My0MvZ2TmNozDtbxUEYNDRy6AWbZgZjuGzdDDM7xApwLDOyupMriGTJSGXM3q-pcYiVxShg2z5KLpykqbM7lzgHFpQlmytBucFDSq93eV4OJ0PJTKXEYgUYvWd6ms_drqV1L1jonRnSr5mu2X7RJANAa2e_5_EQonswxY9zggRqQJGm6esFGVfJjkjFMJRDfYVX3kxlQITZ7ezhVjZAfMZhUK7QDjRW6Ku-Rs6v7a4B7JjqzXiQhpBpwYEmzjnsBkAvaMQTLInhrnbAEfFdstVluT_FNv3UFgWSwpMxmB857RaT0VjD8mUbs4U2niVeD-1NC9L9BRkcjR9h6nc9RDtgj61tqee1JQU9GN870jJHYmhGLm7OjqBiWHpmyTRbQmSdgP4YDf3ShZohAyzU8NdAdqTBd4nTFWJlnCPXifCSCbf3EQb6Wp0npsUl_m00?></g></svg>