<svg xmlns="http://www.w3.org/2000/svg" xmlns:xlink="http://www.w3.org/1999/xlink" contentStyleType="text/css" data-diagram-type="CLASS" height="654px" preserveAspectRatio="none" style="width:348px;height:654px;background:#FFFFFF;" version="1.1" viewBox="0 0 348 654" width="348px" zoomAndPan="magnify"><?plantuml 1.2026.3beta6?><defs/><g><!--class VE--><g class="entity" data-qualified-name="VE" data-source-line="4" id="ent0002"><rect fill="#F1F1F1" height="145.7813" rx="2.5" ry="2.5" style="stroke:#181818;stroke-width:0.5;" width="326.0635" x="7" y="7"/><ellipse cx="113.6885" cy="23" fill="#ADD1B2" rx="11" ry="11" style="stroke:#181818;stroke-width:1;"/><path d="M116.6572,28.6406 Q116.0791,28.9375 115.4385,29.0781 Q114.7979,29.2344 114.0947,29.2344 Q111.5947,29.2344 110.2666,27.5938 Q108.9541,25.9375 108.9541,22.8125 Q108.9541,19.6875 110.2666,18.0313 Q111.5947,16.375 114.0947,16.375 Q114.7979,16.375 115.4385,16.5313 Q116.0947,16.6875 116.6572,16.9844 L116.6572,19.7031 Q116.0322,19.125 115.4385,18.8594 Q114.8447,18.5781 114.2197,18.5781 Q112.876,18.5781 112.1885,19.6563 Q111.501,20.7188 111.501,22.8125 Q111.501,24.9063 112.1885,25.9844 Q112.876,27.0469 114.2197,27.0469 Q114.8447,27.0469 115.4385,26.7813 Q116.0322,26.5 116.6572,25.9219 L116.6572,28.6406 Z " fill="#000000"/><text fill="#000000" font-family="sans-serif" font-size="14" lengthAdjust="spacing" textLength="104.1865" x="134.1885" y="27.8467">VistaEntidades</text><line style="stroke:#181818;stroke-width:0.5;" x1="8" x2="332.0635" y1="39" y2="39"/><line style="stroke:#181818;stroke-width:0.5;" x1="8" x2="332.0635" y1="47" y2="47"/><g data-visibility-modifier="PUBLIC_METHOD"><ellipse cx="18" cy="60.6484" fill="#84BE84" rx="3" ry="3" style="stroke:#038048;stroke-width:1;"/></g><text fill="#000000" font-family="sans-serif" font-size="14" lengthAdjust="spacing" textLength="277.1016" x="27" y="63.9951">presentarRelacionEntidades(entidades)</text><g data-visibility-modifier="PUBLIC_METHOD"><ellipse cx="18" cy="76.9453" fill="#84BE84" rx="3" ry="3" style="stroke:#038048;stroke-width:1;"/></g><text fill="#000000" font-family="sans-serif" font-size="14" lengthAdjust="spacing" textLength="300.0635" x="27" y="80.292">presentarRelacionDirecciones(direcciones)</text><g data-visibility-modifier="PUBLIC_METHOD"><ellipse cx="18" cy="93.2422" fill="#84BE84" rx="3" ry="3" style="stroke:#038048;stroke-width:1;"/></g><text fill="#000000" font-family="sans-serif" font-size="14" lengthAdjust="spacing" textLength="207.7988" x="27" y="96.5889">presentarFormularioEntidad()</text><g data-visibility-modifier="PUBLIC_METHOD"><ellipse cx="18" cy="109.5391" fill="#84BE84" rx="3" ry="3" style="stroke:#038048;stroke-width:1;"/></g><text fill="#000000" font-family="sans-serif" font-size="14" lengthAdjust="spacing" textLength="220.1104" x="27" y="112.8857">presentarFormularioDireccion()</text><g data-visibility-modifier="PUBLIC_METHOD"><ellipse cx="18" cy="125.8359" fill="#84BE84" rx="3" ry="3" style="stroke:#038048;stroke-width:1;"/></g><text fill="#000000" font-family="sans-serif" font-size="14" lengthAdjust="spacing" textLength="159.0039" x="27" y="129.1826">solicitarConfirmacion()</text><g data-visibility-modifier="PUBLIC_METHOD"><ellipse cx="18" cy="142.1328" fill="#84BE84" rx="3" ry="3" style="stroke:#038048;stroke-width:1;"/></g><text fill="#000000" font-family="sans-serif" font-size="14" lengthAdjust="spacing" textLength="181.0156" x="27" y="145.4795">informarConflicto(motivo)</text></g><!--class GCE--><g class="entity" data-qualified-name="GCE" data-source-line="13" id="ent0003"><rect fill="#F1F1F1" height="178.375" rx="2.5" ry="2.5" style="stroke:#181818;stroke-width:0.5;" width="305.8633" x="17.1" y="212.78"/><ellipse cx="76.6547" cy="228.78" fill="#ADD1B2" rx="11" ry="11" style="stroke:#181818;stroke-width:1;"/><path d="M79.6234,234.4206 Q79.0453,234.7175 78.4047,234.8581 Q77.7641,235.0144 77.0609,235.0144 Q74.5609,235.0144 73.2328,233.3737 Q71.9203,231.7175 71.9203,228.5925 Q71.9203,225.4675 73.2328,223.8112 Q74.5609,222.155 77.0609,222.155 Q77.7641,222.155 78.4047,222.3112 Q79.0609,222.4675 79.6234,222.7644 L79.6234,225.4831 Q78.9984,224.905 78.4047,224.6394 Q77.8109,224.3581 77.1859,224.3581 Q75.8422,224.3581 75.1547,225.4362 Q74.4672,226.4987 74.4672,228.5925 Q74.4672,230.6862 75.1547,231.7644 Q75.8422,232.8269 77.1859,232.8269 Q77.8109,232.8269 78.4047,232.5612 Q78.9984,232.28 79.6234,231.7019 L79.6234,234.4206 Z " fill="#000000"/><text fill="#000000" font-family="sans-serif" font-size="14" lengthAdjust="spacing" textLength="178.2539" x="97.1547" y="233.6267">GestorCatalogoEntidades</text><line style="stroke:#181818;stroke-width:0.5;" x1="18.1" x2="321.9633" y1="244.78" y2="244.78"/><line style="stroke:#181818;stroke-width:0.5;" x1="18.1" x2="321.9633" y1="252.78" y2="252.78"/><g data-visibility-modifier="PUBLIC_METHOD"><ellipse cx="28.1" cy="266.4284" fill="#84BE84" rx="3" ry="3" style="stroke:#038048;stroke-width:1;"/></g><text fill="#000000" font-family="sans-serif" font-size="14" lengthAdjust="spacing" textLength="155.1074" x="37.1" y="269.7751">crearEntidad(nombre)</text><g data-visibility-modifier="PUBLIC_METHOD"><ellipse cx="28.1" cy="282.7253" fill="#84BE84" rx="3" ry="3" style="stroke:#038048;stroke-width:1;"/></g><text fill="#000000" font-family="sans-serif" font-size="14" lengthAdjust="spacing" textLength="147.6973" x="37.1" y="286.072">listarEntidades(filtro)</text><g data-visibility-modifier="PUBLIC_METHOD"><ellipse cx="28.1" cy="299.0222" fill="#84BE84" rx="3" ry="3" style="stroke:#038048;stroke-width:1;"/></g><text fill="#000000" font-family="sans-serif" font-size="14" lengthAdjust="spacing" textLength="279.8633" x="37.1" y="302.3689">editarEntidad(entidadId, nuevoNombre)</text><g data-visibility-modifier="PUBLIC_METHOD"><ellipse cx="28.1" cy="315.3191" fill="#84BE84" rx="3" ry="3" style="stroke:#038048;stroke-width:1;"/></g><text fill="#000000" font-family="sans-serif" font-size="14" lengthAdjust="spacing" textLength="187.7354" x="37.1" y="318.6657">eliminarEntidad(entidadId)</text><g data-visibility-modifier="PUBLIC_METHOD"><ellipse cx="28.1" cy="331.6159" fill="#84BE84" rx="3" ry="3" style="stroke:#038048;stroke-width:1;"/></g><text fill="#000000" font-family="sans-serif" font-size="14" lengthAdjust="spacing" textLength="260.251" x="37.1" y="334.9626">a&#241;adirDireccion(entidadId, direccion)</text><g data-visibility-modifier="PUBLIC_METHOD"><ellipse cx="28.1" cy="347.9128" fill="#84BE84" rx="3" ry="3" style="stroke:#038048;stroke-width:1;"/></g><text fill="#000000" font-family="sans-serif" font-size="14" lengthAdjust="spacing" textLength="235.1426" x="37.1" y="351.2595">listarDirecciones(entidadId, filtro)</text><g data-visibility-modifier="PUBLIC_METHOD"><ellipse cx="28.1" cy="364.2097" fill="#84BE84" rx="3" ry="3" style="stroke:#038048;stroke-width:1;"/></g><text fill="#000000" font-family="sans-serif" font-size="14" lengthAdjust="spacing" textLength="197.6816" x="37.1" y="367.5564">eliminarDireccion(direccion)</text><g data-visibility-modifier="PUBLIC_METHOD"><ellipse cx="28.1" cy="380.5066" fill="#84BE84" rx="3" ry="3" style="stroke:#038048;stroke-width:1;"/></g><text fill="#000000" font-family="sans-serif" font-size="14" lengthAdjust="spacing" textLength="187.4961" x="37.1" y="383.8532">resolverNombre(direccion)</text></g><!--class E--><g class="entity" data-qualified-name="E" data-source-line="24" id="ent0004"><rect fill="#F1F1F1" height="64.2969" rx="2.5" ry="2.5" style="stroke:#181818;stroke-width:0.5;" width="85.4502" x="79.31" y="451.16"/><ellipse cx="94.31" cy="467.16" fill="#ADD1B2" rx="11" ry="11" style="stroke:#181818;stroke-width:1;"/><path d="M97.2788,472.8006 Q96.7006,473.0975 96.06,473.2381 Q95.4194,473.3944 94.7163,473.3944 Q92.2163,473.3944 90.8881,471.7537 Q89.5756,470.0975 89.5756,466.9725 Q89.5756,463.8475 90.8881,462.1912 Q92.2163,460.535 94.7163,460.535 Q95.4194,460.535 96.06,460.6912 Q96.7163,460.8475 97.2788,461.1444 L97.2788,463.8631 Q96.6538,463.285 96.06,463.0194 Q95.4663,462.7381 94.8413,462.7381 Q93.4975,462.7381 92.81,463.8162 Q92.1225,464.8787 92.1225,466.9725 Q92.1225,469.0662 92.81,470.1444 Q93.4975,471.2069 94.8413,471.2069 Q95.4663,471.2069 96.06,470.9412 Q96.6538,470.66 97.2788,470.0819 L97.2788,472.8006 Z " fill="#000000"/><text fill="#000000" font-family="sans-serif" font-size="14" lengthAdjust="spacing" textLength="53.4502" x="108.31" y="472.0067">Entidad</text><line style="stroke:#181818;stroke-width:0.5;" x1="80.31" x2="163.7602" y1="483.16" y2="483.16"/><g data-visibility-modifier="PRIVATE_FIELD"><rect fill="none" height="6" style="stroke:#C82930;stroke-width:1;" width="6" x="87.31" y="493.8084"/></g><text fill="#000000" font-family="sans-serif" font-size="14" lengthAdjust="spacing" textLength="54.332" x="99.31" y="500.1551">nombre</text><line style="stroke:#181818;stroke-width:0.5;" x1="80.31" x2="163.7602" y1="507.4569" y2="507.4569"/></g><!--class D--><g class="entity" data-qualified-name="D" data-source-line="28" id="ent0005"><rect fill="#F1F1F1" height="64.2969" rx="2.5" ry="2.5" style="stroke:#181818;stroke-width:0.5;" width="97.7617" x="121.15" y="575.45"/><ellipse cx="136.15" cy="591.45" fill="#ADD1B2" rx="11" ry="11" style="stroke:#181818;stroke-width:1;"/><path d="M139.1188,597.0906 Q138.5406,597.3875 137.9,597.5281 Q137.2594,597.6844 136.5563,597.6844 Q134.0563,597.6844 132.7281,596.0438 Q131.4156,594.3875 131.4156,591.2625 Q131.4156,588.1375 132.7281,586.4813 Q134.0563,584.825 136.5563,584.825 Q137.2594,584.825 137.9,584.9813 Q138.5563,585.1375 139.1188,585.4344 L139.1188,588.1531 Q138.4938,587.575 137.9,587.3094 Q137.3063,587.0281 136.6813,587.0281 Q135.3375,587.0281 134.65,588.1063 Q133.9625,589.1688 133.9625,591.2625 Q133.9625,593.3563 134.65,594.4344 Q135.3375,595.4969 136.6813,595.4969 Q137.3063,595.4969 137.9,595.2313 Q138.4938,594.95 139.1188,594.3719 L139.1188,597.0906 Z " fill="#000000"/><text fill="#000000" font-family="sans-serif" font-size="14" lengthAdjust="spacing" textLength="65.7617" x="150.15" y="596.2967">Direccion</text><line style="stroke:#181818;stroke-width:0.5;" x1="122.15" x2="217.9117" y1="607.45" y2="607.45"/><g data-visibility-modifier="PRIVATE_FIELD"><rect fill="none" height="6" style="stroke:#C82930;stroke-width:1;" width="6" x="129.15" y="618.0984"/></g><text fill="#000000" font-family="sans-serif" font-size="14" lengthAdjust="spacing" textLength="35.0752" x="141.15" y="624.4451">valor</text><line style="stroke:#181818;stroke-width:0.5;" x1="122.15" x2="217.9117" y1="631.7469" y2="631.7469"/></g><!--link VE to GCE--><g class="link" data-entity-1="ent0002" data-entity-2="ent0003" data-link-type="dependency" data-source-line="32" id="lnk6"><path codeLine="32" d="M170.03,153.22 C170.03,172.17 170.03,186.79 170.03,206.46" fill="none" id="VE-to-GCE" style="stroke:#181818;stroke-width:1;stroke-dasharray:7,7;"/><polygon fill="#181818" points="170.03,212.46,174.03,203.46,170.03,207.46,166.03,203.46,170.03,212.46" style="stroke:#181818;stroke-width:1;"/></g><!--link GCE to E--><g class="link" data-entity-1="ent0003" data-entity-2="ent0004" data-link-type="dependency" data-source-line="33" id="lnk7"><path codeLine="33" d="M122.03,391.57 C122.03,412.81 122.03,428.13 122.03,444.86" fill="none" id="GCE-to-E" style="stroke:#181818;stroke-width:1;"/><polygon fill="#181818" points="122.03,450.86,126.03,441.86,122.03,445.86,118.03,441.86,122.03,450.86" style="stroke:#181818;stroke-width:1;"/></g><!--link GCE to D--><g class="link" data-entity-1="ent0003" data-entity-2="ent0005" data-link-type="dependency" data-source-line="34" id="lnk8"><path codeLine="34" d="M191.83,391.6 C191.83,453.43 191.83,526 191.83,569.3" fill="none" id="GCE-to-D" style="stroke:#181818;stroke-width:1;"/><polygon fill="#181818" points="191.83,575.3,195.83,566.3,191.83,570.3,187.83,566.3,191.83,575.3" style="stroke:#181818;stroke-width:1;"/></g><!--reverse link E to D--><g class="link" data-entity-1="ent0004" data-entity-2="ent0005" data-link-type="aggregation" data-source-line="35" id="lnk9"><path codeLine="35" d="M142.95,527.64 C142.95,545.91 142.95,556.68 142.95,575" fill="none" id="E-backto-D" style="stroke:#181818;stroke-width:1;"/><polygon fill="none" points="142.95,515.64,138.95,521.64,142.95,527.64,146.95,521.64,142.95,515.64" style="stroke:#181818;stroke-width:1;"/><text fill="#000000" font-family="sans-serif" font-size="13" lengthAdjust="spacing" textLength="46.0205" x="143.95" y="541.3869">agrupa</text><text fill="#000000" font-family="sans-serif" font-size="13" lengthAdjust="spacing" textLength="8.271" x="138.3068" y="535.5618">1</text><text fill="#000000" font-family="sans-serif" font-size="13" lengthAdjust="spacing" textLength="6.5" x="131.2635" y="564.4358">*</text></g><?plantuml-src VP9DRi9038NtEOML5RGDKhSLoWOewgQBBjYRn83LoJZo34Yewg5wXbwiCq3-2crMLlpUi_Lvt3lR6XKhC6p97si2KR-JPCSbWVEa9F5laXG6dODqnSxZmdekiIIN0ZfOBM0wNSlUbgZ7F8UF1C9t3xMI8-jHtyXWmM9RsuYQQloNTivAHIo2kkpgA_spQBKtg2oNzD4_aZQq5JanN70GpSHkM2iSTDbkWlVS33eleqey7sISVBP0bkIyw0mz6jdAaCno5j4KOhsAwP4fb52RVQrKQwLcf8byjIErOHFCJPTAxheDnPVo0UoU3l8wI2B35TiRwaQ0tryOq7PGUdajyk5U_QlqrB-Ml0pkWg_Imcd474ZF6_Vx7TZBtYUG4MESvxltbS4PNC_H3ZnvvhSyXt0bZPRmQ2UJF5ueYLVAiXowQfui87rCGR8CqhiqH3q1RdLVumy0?></g></svg>