<svg xmlns="http://www.w3.org/2000/svg" xmlns:xlink="http://www.w3.org/1999/xlink" contentStyleType="text/css" data-diagram-type="SEQUENCE" height="744px" preserveAspectRatio="none" style="width:1136px;height:744px;background:#FFFFFF;" version="1.1" viewBox="0 0 1136 744" width="1136px" zoomAndPan="magnify"><?plantuml 1.2026.3beta6?><defs/><g><g class="participant-lifeline" data-entity-uid="part1" data-qualified-name="U" data-source-line="1" id="part1-lifeline"><g><title>Usuario</title><rect fill="#000000" fill-opacity="0.00000" height="580.6563" width="8" x="30.6021" y="81.2969"/><line style="stroke:#181818;stroke-width:0.5;stroke-dasharray:5,5;" x1="34" x2="34" y1="81.2969" y2="661.9531"/></g></g><g class="participant-lifeline" data-entity-uid="part2" data-qualified-name="SW" data-source-line="2" id="part2-lifeline"><g><title>Servicio Webhook</title><rect fill="#000000" fill-opacity="0.00000" height="580.6563" width="8" x="135.9478" y="81.2969"/><line style="stroke:#181818;stroke-width:0.5;stroke-dasharray:5,5;" x1="139.2041" x2="139.2041" y1="81.2969" y2="661.9531"/></g></g><g class="participant-lifeline" data-entity-uid="part3" data-qualified-name="VA" data-source-line="4" id="part3-lifeline"><g><title>VistaAlertas</title><rect fill="#000000" fill-opacity="0.00000" height="580.6563" width="8" x="290.0303" y="81.2969"/><line style="stroke:#181818;stroke-width:0.5;stroke-dasharray:5,5;" x1="294.0166" x2="294.0166" y1="81.2969" y2="661.9531"/></g></g><g class="participant-lifeline" data-entity-uid="part4" data-qualified-name="GAP" data-source-line="5" id="part4-lifeline"><g><title>GestorAlertasPrecio</title><rect fill="#000000" fill-opacity="0.00000" height="580.6563" width="8" x="554.8667" y="81.2969"/><line style="stroke:#181818;stroke-width:0.5;stroke-dasharray:5,5;" x1="558.5024" x2="558.5024" y1="81.2969" y2="661.9531"/></g></g><g class="participant-lifeline" data-entity-uid="part5" data-qualified-name="CW" data-source-line="6" id="part5-lifeline"><g><title>ConectorWebhook</title><rect fill="#000000" fill-opacity="0.00000" height="580.6563" width="8" x="812.6509" y="81.2969"/><line style="stroke:#181818;stroke-width:0.5;stroke-dasharray:5,5;" x1="816.2563" x2="816.2563" y1="81.2969" y2="661.9531"/></g></g><g class="participant-lifeline" data-entity-uid="part6" data-qualified-name="AP" data-source-line="7" id="part6-lifeline"><g><title>AlertaPrecio</title><rect fill="#000000" fill-opacity="0.00000" height="580.6563" width="8" x="935.4795" y="81.2969"/><line style="stroke:#181818;stroke-width:0.5;stroke-dasharray:5,5;" x1="939.0454" x2="939.0454" y1="81.2969" y2="661.9531"/></g></g><g class="participant-lifeline" data-entity-uid="part7" data-qualified-name="T" data-source-line="8" id="part7-lifeline"><g><title>Token</title><rect fill="#000000" fill-opacity="0.00000" height="580.6563" width="8" x="1015.269" y="81.2969"/><line style="stroke:#181818;stroke-width:0.5;stroke-dasharray:5,5;" x1="1018.9136" x2="1018.9136" y1="81.2969" y2="661.9531"/></g></g><g class="participant-lifeline" data-entity-uid="part8" data-qualified-name="W" data-source-line="9" id="part8-lifeline"><g><title>Webhook</title><rect fill="#000000" fill-opacity="0.00000" height="580.6563" width="8" x="1085.3516" y="81.2969"/><line style="stroke:#181818;stroke-width:0.5;stroke-dasharray:5,5;" x1="1088.6245" x2="1088.6245" y1="81.2969" y2="661.9531"/></g></g><g class="participant participant-head" data-entity-uid="part1" data-qualified-name="U" data-source-line="1" id="part1-head"><text fill="#000000" font-family="sans-serif" font-size="14" lengthAdjust="spacing" textLength="53.2041" x="5" y="77.9951">Usuario</text><ellipse cx="34.6021" cy="13.5" fill="#E2E2F0" rx="8" ry="8" style="stroke:#181818;stroke-width:0.5;"/><path d="M34.6021,21.5 L34.6021,48.5 M21.6021,29.5 L47.6021,29.5 M34.6021,48.5 L21.6021,63.5 M34.6021,48.5 L47.6021,63.5" fill="none" style="stroke:#181818;stroke-width:0.5;"/></g><g class="participant participant-tail" data-entity-uid="part1" data-qualified-name="U" data-source-line="1" id="part1-tail"><text fill="#000000" font-family="sans-serif" font-size="14" lengthAdjust="spacing" textLength="53.2041" x="5" y="673.9482">Usuario</text><ellipse cx="34.6021" cy="685.75" fill="#E2E2F0" rx="8" ry="8" style="stroke:#181818;stroke-width:0.5;"/><path d="M34.6021,693.75 L34.6021,720.75 M21.6021,701.75 L47.6021,701.75 M34.6021,720.75 L21.6021,735.75 M34.6021,720.75 L47.6021,735.75" fill="none" style="stroke:#181818;stroke-width:0.5;"/></g><g class="participant participant-head" data-entity-uid="part2" data-qualified-name="SW" data-source-line="2" id="part2-head"><text fill="#000000" font-family="sans-serif" font-size="14" lengthAdjust="spacing" textLength="125.4873" x="74.2041" y="77.9951">Servicio Webhook</text><ellipse cx="139.9478" cy="13.5" fill="#E2E2F0" rx="8" ry="8" style="stroke:#181818;stroke-width:0.5;"/><path d="M139.9478,21.5 L139.9478,48.5 M126.9478,29.5 L152.9478,29.5 M139.9478,48.5 L126.9478,63.5 M139.9478,48.5 L152.9478,63.5" fill="none" style="stroke:#181818;stroke-width:0.5;"/></g><g class="participant participant-tail" data-entity-uid="part2" data-qualified-name="SW" data-source-line="2" id="part2-tail"><text fill="#000000" font-family="sans-serif" font-size="14" lengthAdjust="spacing" textLength="125.4873" x="74.2041" y="673.9482">Servicio Webhook</text><ellipse cx="139.9478" cy="685.75" fill="#E2E2F0" rx="8" ry="8" style="stroke:#181818;stroke-width:0.5;"/><path d="M139.9478,693.75 L139.9478,720.75 M126.9478,701.75 L152.9478,701.75 M139.9478,720.75 L126.9478,735.75 M139.9478,720.75 L152.9478,735.75" fill="none" style="stroke:#181818;stroke-width:0.5;"/></g><g class="participant participant-head" data-entity-uid="part3" data-qualified-name="VA" data-source-line="4" id="part3-head"><text fill="#000000" font-family="sans-serif" font-size="14" lengthAdjust="spacing" textLength="84.0273" x="249.0166" y="77.9951">VistaAlertas</text><path d="M273.5303,37 L273.5303,61 M273.5303,49 L290.5303,49" fill="none" style="stroke:#181818;stroke-width:0.5;"/><ellipse cx="302.5303" cy="49" fill="#E2E2F0" rx="12" ry="12" style="stroke:#181818;stroke-width:0.5;"/></g><g class="participant participant-tail" data-entity-uid="part3" data-qualified-name="VA" data-source-line="4" id="part3-tail"><text fill="#000000" font-family="sans-serif" font-size="14" lengthAdjust="spacing" textLength="84.0273" x="249.0166" y="673.9482">VistaAlertas</text><path d="M273.5303,681.25 L273.5303,705.25 M273.5303,693.25 L290.5303,693.25" fill="none" style="stroke:#181818;stroke-width:0.5;"/><ellipse cx="302.5303" cy="693.25" fill="#E2E2F0" rx="12" ry="12" style="stroke:#181818;stroke-width:0.5;"/></g><g class="participant participant-head" data-entity-uid="part4" data-qualified-name="GAP" data-source-line="5" id="part4-head"><text fill="#000000" font-family="sans-serif" font-size="14" lengthAdjust="spacing" textLength="138.7285" x="486.5024" y="77.9951">GestorAlertasPrecio</text><ellipse cx="558.8667" cy="49" fill="#E2E2F0" rx="12" ry="12" style="stroke:#181818;stroke-width:0.5;"/><polygon fill="#181818" points="554.8667,37,560.8667,32,558.8667,37,560.8667,42,554.8667,37" style="stroke:#181818;stroke-width:1;"/></g><g class="participant participant-tail" data-entity-uid="part4" data-qualified-name="GAP" data-source-line="5" id="part4-tail"><text fill="#000000" font-family="sans-serif" font-size="14" lengthAdjust="spacing" textLength="138.7285" x="486.5024" y="673.9482">GestorAlertasPrecio</text><ellipse cx="558.8667" cy="693.25" fill="#E2E2F0" rx="12" ry="12" style="stroke:#181818;stroke-width:0.5;"/><polygon fill="#181818" points="554.8667,681.25,560.8667,676.25,558.8667,681.25,560.8667,686.25,554.8667,681.25" style="stroke:#181818;stroke-width:1;"/></g><g class="participant participant-head" data-entity-uid="part5" data-qualified-name="CW" data-source-line="6" id="part5-head"><text fill="#000000" font-family="sans-serif" font-size="14" lengthAdjust="spacing" textLength="128.7891" x="749.2563" y="77.9951">ConectorWebhook</text><path d="M796.1509,37 L796.1509,61 M796.1509,49 L813.1509,49" fill="none" style="stroke:#181818;stroke-width:0.5;"/><ellipse cx="825.1509" cy="49" fill="#E2E2F0" rx="12" ry="12" style="stroke:#181818;stroke-width:0.5;"/></g><g class="participant participant-tail" data-entity-uid="part5" data-qualified-name="CW" data-source-line="6" id="part5-tail"><text fill="#000000" font-family="sans-serif" font-size="14" lengthAdjust="spacing" textLength="128.7891" x="749.2563" y="673.9482">ConectorWebhook</text><path d="M796.1509,681.25 L796.1509,705.25 M796.1509,693.25 L813.1509,693.25" fill="none" style="stroke:#181818;stroke-width:0.5;"/><ellipse cx="825.1509" cy="693.25" fill="#E2E2F0" rx="12" ry="12" style="stroke:#181818;stroke-width:0.5;"/></g><g class="participant participant-head" data-entity-uid="part6" data-qualified-name="AP" data-source-line="7" id="part6-head"><text fill="#000000" font-family="sans-serif" font-size="14" lengthAdjust="spacing" textLength="84.8682" x="894.0454" y="77.9951">AlertaPrecio</text><ellipse cx="939.4795" cy="49" fill="#E2E2F0" rx="12" ry="12" style="stroke:#181818;stroke-width:0.5;"/><line style="stroke:#181818;stroke-width:0.5;" x1="927.4795" x2="951.4795" y1="63" y2="63"/></g><g class="participant participant-tail" data-entity-uid="part6" data-qualified-name="AP" data-source-line="7" id="part6-tail"><text fill="#000000" font-family="sans-serif" font-size="14" lengthAdjust="spacing" textLength="84.8682" x="894.0454" y="673.9482">AlertaPrecio</text><ellipse cx="939.4795" cy="693.25" fill="#E2E2F0" rx="12" ry="12" style="stroke:#181818;stroke-width:0.5;"/><line style="stroke:#181818;stroke-width:0.5;" x1="927.4795" x2="951.4795" y1="707.25" y2="707.25"/></g><g class="participant participant-head" data-entity-uid="part7" data-qualified-name="T" data-source-line="8" id="part7-head"><text fill="#000000" font-family="sans-serif" font-size="14" lengthAdjust="spacing" textLength="42.7109" x="994.9136" y="77.9951">Token</text><ellipse cx="1019.269" cy="49" fill="#E2E2F0" rx="12" ry="12" style="stroke:#181818;stroke-width:0.5;"/><line style="stroke:#181818;stroke-width:0.5;" x1="1007.269" x2="1031.269" y1="63" y2="63"/></g><g class="participant participant-tail" data-entity-uid="part7" data-qualified-name="T" data-source-line="8" id="part7-tail"><text fill="#000000" font-family="sans-serif" font-size="14" lengthAdjust="spacing" textLength="42.7109" x="994.9136" y="673.9482">Token</text><ellipse cx="1019.269" cy="693.25" fill="#E2E2F0" rx="12" ry="12" style="stroke:#181818;stroke-width:0.5;"/><line style="stroke:#181818;stroke-width:0.5;" x1="1007.269" x2="1031.269" y1="707.25" y2="707.25"/></g><g class="participant participant-head" data-entity-uid="part8" data-qualified-name="W" data-source-line="9" id="part8-head"><text fill="#000000" font-family="sans-serif" font-size="14" lengthAdjust="spacing" textLength="65.4541" x="1053.6245" y="77.9951">Webhook</text><ellipse cx="1089.3516" cy="49" fill="#E2E2F0" rx="12" ry="12" style="stroke:#181818;stroke-width:0.5;"/><line style="stroke:#181818;stroke-width:0.5;" x1="1077.3516" x2="1101.3516" y1="63" y2="63"/></g><g class="participant participant-tail" data-entity-uid="part8" data-qualified-name="W" data-source-line="9" id="part8-tail"><text fill="#000000" font-family="sans-serif" font-size="14" lengthAdjust="spacing" textLength="65.4541" x="1053.6245" y="673.9482">Webhook</text><ellipse cx="1089.3516" cy="693.25" fill="#E2E2F0" rx="12" ry="12" style="stroke:#181818;stroke-width:0.5;"/><line style="stroke:#181818;stroke-width:0.5;" x1="1077.3516" x2="1101.3516" y1="707.25" y2="707.25"/></g><g class="message" data-entity-1="part1" data-entity-2="part3" data-source-line="11" id="msg1"><polygon fill="#181818" points="282.0303,108.4297,292.0303,112.4297,282.0303,116.4297,286.0303,112.4297" style="stroke:#181818;stroke-width:1;"/><line style="stroke:#181818;stroke-width:1;" x1="34.6021" x2="288.0303" y1="112.4297" y2="112.4297"/><text fill="#000000" font-family="sans-serif" font-size="13" lengthAdjust="spacing" textLength="125.8232" x="41.6021" y="107.3638">solicita crear alerta</text></g><g class="message" data-entity-1="part3" data-entity-2="part1" data-source-line="12" id="msg2"><polygon fill="#181818" points="45.6021,137.5625,35.6021,141.5625,45.6021,145.5625,41.6021,141.5625" style="stroke:#181818;stroke-width:1;"/><line style="stroke:#181818;stroke-width:1;" x1="39.6021" x2="293.0303" y1="141.5625" y2="141.5625"/><text fill="#000000" font-family="sans-serif" font-size="13" lengthAdjust="spacing" textLength="235.4282" x="51.6021" y="136.4966">permite seleccionar mercado, token</text></g><g class="message" data-entity-1="part1" data-entity-2="part3" data-source-line="13" id="msg3"><polygon fill="#181818" points="282.0303,166.6953,292.0303,170.6953,282.0303,174.6953,286.0303,170.6953" style="stroke:#181818;stroke-width:1;"/><line style="stroke:#181818;stroke-width:1;" x1="34.6021" x2="288.0303" y1="170.6953" y2="170.6953"/><text fill="#000000" font-family="sans-serif" font-size="13" lengthAdjust="spacing" textLength="174.9858" x="41.6021" y="165.6294">selecciona mercado, token</text></g><g class="message" data-entity-1="part3" data-entity-2="part1" data-source-line="14" id="msg4"><polygon fill="#181818" points="45.6021,195.8281,35.6021,199.8281,45.6021,203.8281,41.6021,199.8281" style="stroke:#181818;stroke-width:1;"/><line style="stroke:#181818;stroke-width:1;" x1="39.6021" x2="293.0303" y1="199.8281" y2="199.8281"/><text fill="#000000" font-family="sans-serif" font-size="13" lengthAdjust="spacing" textLength="234.9712" x="51.6021" y="194.7622">permite introducir umbral, webhook</text></g><g class="message" data-entity-1="part1" data-entity-2="part3" data-source-line="15" id="msg5"><polygon fill="#181818" points="282.0303,224.9609,292.0303,228.9609,282.0303,232.9609,286.0303,228.9609" style="stroke:#181818;stroke-width:1;"/><line style="stroke:#181818;stroke-width:1;" x1="34.6021" x2="288.0303" y1="228.9609" y2="228.9609"/><text fill="#000000" font-family="sans-serif" font-size="13" lengthAdjust="spacing" textLength="178.915" x="41.6021" y="223.895">introduce umbral, webhook</text></g><g class="message" data-entity-1="part3" data-entity-2="part4" data-source-line="16" id="msg6"><polygon fill="#181818" points="546.8667,254.0938,556.8667,258.0938,546.8667,262.0938,550.8667,258.0938" style="stroke:#181818;stroke-width:1;"/><line style="stroke:#181818;stroke-width:1;" x1="294.0303" x2="552.8667" y1="258.0938" y2="258.0938"/><text fill="#000000" font-family="sans-serif" font-size="13" lengthAdjust="spacing" textLength="240.8364" x="301.0303" y="253.0278">crearAlerta(token, umbral, webhook)</text></g><g class="message" data-entity-1="part4" data-entity-2="part7" data-source-line="17" id="msg7"><polygon fill="#181818" points="1007.269,283.2266,1017.269,287.2266,1007.269,291.2266,1011.269,287.2266" style="stroke:#181818;stroke-width:1;"/><line style="stroke:#181818;stroke-width:1;" x1="558.8667" x2="1013.269" y1="287.2266" y2="287.2266"/><text fill="#000000" font-family="sans-serif" font-size="13" lengthAdjust="spacing" textLength="100.2549" x="565.8667" y="282.1606">verificar(token)</text></g><g class="message" data-entity-1="part7" data-entity-2="part4" data-source-line="18" id="msg8"><polygon fill="#181818" points="569.8667,312.3594,559.8667,316.3594,569.8667,320.3594,565.8667,316.3594" style="stroke:#181818;stroke-width:1;"/><line style="stroke:#181818;stroke-width:1;stroke-dasharray:2,2;" x1="563.8667" x2="1018.269" y1="316.3594" y2="316.3594"/><text fill="#000000" font-family="sans-serif" font-size="13" lengthAdjust="spacing" textLength="15.4819" x="575.8667" y="311.2935">ok</text></g><g class="message" data-entity-1="part4" data-entity-2="part5" data-source-line="19" id="msg9"><polygon fill="#181818" points="804.6509,341.4922,814.6509,345.4922,804.6509,349.4922,808.6509,345.4922" style="stroke:#181818;stroke-width:1;"/><line style="stroke:#181818;stroke-width:1;" x1="558.8667" x2="810.6509" y1="345.4922" y2="345.4922"/><text fill="#000000" font-family="sans-serif" font-size="13" lengthAdjust="spacing" textLength="233.7842" x="565.8667" y="340.4263">comprobarAlcanzabilidad(webhook)</text></g><g class="message" data-entity-1="part5" data-entity-2="part2" data-source-line="20" id="msg10"><polygon fill="#181818" points="150.9478,370.625,140.9478,374.625,150.9478,378.625,146.9478,374.625" style="stroke:#181818;stroke-width:1;"/><line style="stroke:#181818;stroke-width:1;" x1="144.9478" x2="815.6509" y1="374.625" y2="374.625"/><text fill="#000000" font-family="sans-serif" font-size="13" lengthAdjust="spacing" textLength="28.355" x="156.9478" y="369.5591">ping</text></g><g class="message" data-entity-1="part2" data-entity-2="part5" data-source-line="21" id="msg11"><polygon fill="#181818" points="804.6509,399.7578,814.6509,403.7578,804.6509,407.7578,808.6509,403.7578" style="stroke:#181818;stroke-width:1;"/><line style="stroke:#181818;stroke-width:1;stroke-dasharray:2,2;" x1="139.9478" x2="810.6509" y1="403.7578" y2="403.7578"/><text fill="#000000" font-family="sans-serif" font-size="13" lengthAdjust="spacing" textLength="68.2881" x="146.9478" y="398.6919">2xx / error</text></g><g class="message" data-entity-1="part5" data-entity-2="part4" data-source-line="22" id="msg12"><polygon fill="#181818" points="569.8667,428.8906,559.8667,432.8906,569.8667,436.8906,565.8667,432.8906" style="stroke:#181818;stroke-width:1;"/><line style="stroke:#181818;stroke-width:1;stroke-dasharray:2,2;" x1="563.8667" x2="815.6509" y1="432.8906" y2="432.8906"/><text fill="#000000" font-family="sans-serif" font-size="13" lengthAdjust="spacing" textLength="172.1357" x="575.8667" y="427.8247">alcanzable / no alcanzable</text></g><g class="message" data-entity-1="part4" data-entity-2="part8" data-source-line="23" id="msg13"><polygon fill="#181818" points="1077.3516,458.0234,1087.3516,462.0234,1077.3516,466.0234,1081.3516,462.0234" style="stroke:#181818;stroke-width:1;"/><line style="stroke:#181818;stroke-width:1;" x1="558.8667" x2="1083.3516" y1="462.0234" y2="462.0234"/><text fill="#000000" font-family="sans-serif" font-size="13" lengthAdjust="spacing" textLength="61.1406" x="565.8667" y="456.9575">crear(url)</text></g><g class="message" data-entity-1="part4" data-entity-2="part6" data-source-line="24" id="msg14"><polygon fill="#181818" points="927.4795,487.1563,937.4795,491.1563,927.4795,495.1563,931.4795,491.1563" style="stroke:#181818;stroke-width:1;"/><line style="stroke:#181818;stroke-width:1;" x1="558.8667" x2="933.4795" y1="491.1563" y2="491.1563"/><text fill="#000000" font-family="sans-serif" font-size="13" lengthAdjust="spacing" textLength="283.9624" x="565.8667" y="486.0903">crear(token, umbral, webhook, OPERATIVA)</text></g><g class="message" data-entity-1="part6" data-entity-2="part4" data-source-line="25" id="msg15"><polygon fill="#181818" points="569.8667,516.2891,559.8667,520.2891,569.8667,524.2891,565.8667,520.2891" style="stroke:#181818;stroke-width:1;"/><line style="stroke:#181818;stroke-width:1;stroke-dasharray:2,2;" x1="563.8667" x2="938.4795" y1="520.2891" y2="520.2891"/><text fill="#000000" font-family="sans-serif" font-size="13" lengthAdjust="spacing" textLength="66.606" x="575.8667" y="515.2231">registrada</text></g><g class="message" data-entity-1="part4" data-entity-2="part3" data-source-line="26" id="msg16"><polygon fill="#181818" points="305.0303,545.4219,295.0303,549.4219,305.0303,553.4219,301.0303,549.4219" style="stroke:#181818;stroke-width:1;"/><line style="stroke:#181818;stroke-width:1;stroke-dasharray:2,2;" x1="299.0303" x2="557.8667" y1="549.4219" y2="549.4219"/><text fill="#000000" font-family="sans-serif" font-size="13" lengthAdjust="spacing" textLength="84.4556" x="311.0303" y="544.356">confirmaci&#243;n</text></g><g class="message" data-entity-1="part3" data-entity-2="part1" data-source-line="27" id="msg17"><polygon fill="#181818" points="45.6021,574.5547,35.6021,578.5547,45.6021,582.5547,41.6021,578.5547" style="stroke:#181818;stroke-width:1;"/><line style="stroke:#181818;stroke-width:1;stroke-dasharray:2,2;" x1="39.6021" x2="293.0303" y1="578.5547" y2="578.5547"/><text fill="#000000" font-family="sans-serif" font-size="13" lengthAdjust="spacing" textLength="146.2563" x="51.6021" y="573.4888">presenta confirmaci&#243;n</text></g><path d="M563,591.5547 L563,646.5547 L815,646.5547 L815,601.5547 L805,591.5547 L563,591.5547" fill="#FEFFDD" style="stroke:#181818;stroke-width:0.5;"/><path d="M805,591.5547 L805,601.5547 L815,601.5547 L805,591.5547" fill="#FEFFDD" style="stroke:#181818;stroke-width:0.5;"/><text fill="#000000" font-family="sans-serif" font-size="13" lengthAdjust="spacing" textLength="207.3716" x="569" y="608.6216">Si webhook no es alcanzable, el</text><text fill="#000000" font-family="sans-serif" font-size="13" lengthAdjust="spacing" textLength="231.5054" x="569" y="623.7544">Usuario puede confirmar el registro</text><text fill="#000000" font-family="sans-serif" font-size="13" lengthAdjust="spacing" textLength="188.6904" x="569" y="638.8872">pese al aviso (CU-09 alt. 6b).</text><?plantuml-src TPF1Rjim38RlUWeYfmHmkgA70TjXW14CnKuB6Zi-qpAJ2hKbWvBJRg-rHzYBZR8ZpqZHMwp_u_-J4eCwE8RI3yZ60Nee5Ov7gmFnnMWvhAX-Tkvb5TL3fLJj1jiW_uBLqVY0UKiSq8_oCLVQsS2kXTKZUV6vgdiciHgPnto_iDWvIp5l6RAh5DbWWiXJ-Q9QYfDMk1Uous4ndorjfDKIjj-aAVWAthKoJ43GJCY0ewyIIO1Iz9wuCu70KqjQmgn07R76ncKGOjBIR8PkcVU69bv7CsZ3C7GrOvl1wzJamZ11z8wP3ENEX1fRdsvaFSPbj_X6HL8A2i4lnEPaDF84RrG1szbBhA_ehehMhklPrT5Ue_sDjMbDWyrwzXLAs4DaUsFFIdvjK_73snjy0c9sF79p25xDMXBTkiLt2g_IMEk1sxdx_zD-C6S6F_VVd_BYnp7Vg5WpHpATPIaP6vpCqWtBMfuCTwZDtp_JCwLtOlAoFNX3AElayTYSdmEuqxYq00UJ6eZJa5yCb06rGgG_KZzGGxCbYvWwSqBr4YcrW1VZ7QntvVR-Yto7E_XSR-vacHk8yVy0?></g></svg>