<svg xmlns="http://www.w3.org/2000/svg" xmlns:xlink="http://www.w3.org/1999/xlink" contentStyleType="text/css" data-diagram-type="DESCRIPTION" height="824px" preserveAspectRatio="none" style="width:1321px;height:824px;background:#FFFFFF;" version="1.1" viewBox="0 0 1321 824" width="1321px" zoomAndPan="magnify"><?plantuml 1.2026.3beta6?><defs/><g><!--cluster HOST--><g class="cluster" data-qualified-name="HOST" data-source-line="9" id="ent0005"><polygon fill="none" points="16,162.79,26,152.79,762,152.79,762,789.34,752,799.34,16,799.34,16,162.79" style="stroke:#181818;stroke-width:1;"/><line style="stroke:#181818;stroke-width:1;" x1="752" x2="762" y1="162.79" y2="152.79"/><line style="stroke:#181818;stroke-width:1;" x1="16" x2="752" y1="162.79" y2="162.79"/><line style="stroke:#181818;stroke-width:1;" x1="752" x2="752" y1="162.79" y2="799.34"/><text fill="#000000" font-family="sans-serif" font-size="14" font-weight="700" lengthAdjust="spacing" textLength="229.8311" x="270.0845" y="178.7851">Host Docker &#8212; Infinite Fieldx</text></g><!--cluster EDGE--><g class="cluster" data-qualified-name="HOST.EDGE" data-source-line="10" id="ent0006"><rect fill="#E3F2FD" height="113.6" rx="2.5" ry="2.5" style="stroke:#181818;stroke-width:1;" width="222" x="430" y="208.79"/><text fill="#000000" font-family="sans-serif" font-size="14" font-weight="700" lengthAdjust="spacing" textLength="129.8486" x="476.0757" y="223.7851">Red: fieldx-edge</text></g><!--cluster INT--><g class="cluster" data-qualified-name="HOST.INT" data-source-line="13" id="ent0008"><rect fill="#FFF3E0" height="256.65" rx="2.5" ry="2.5" style="stroke:#181818;stroke-width:1;" width="378" x="156" y="371.39"/><text fill="#000000" font-family="sans-serif" font-size="14" font-weight="700" lengthAdjust="spacing" textLength="152.8857" x="268.5571" y="386.3851">Red: fieldx-internal</text></g><!--cluster VOLS--><g class="cluster" data-qualified-name="HOST.VOLS" data-source-line="18" id="ent0012"><path d="M50.5,677.04 L138.5967,677.04 A3.75,3.75 0 0 1 141.0967,679.54 L148.0967,699.3369 L719.5,699.3369 A2.5,2.5 0 0 1 722,701.8369 L722,764.84 A2.5,2.5 0 0 1 719.5,767.34 L50.5,767.34 A2.5,2.5 0 0 1 48,764.84 L48,679.54 A2.5,2.5 0 0 1 50.5,677.04" fill="#ECEFF1" style="stroke:#000000;stroke-width:1.5;"/><line style="stroke:#000000;stroke-width:1.5;" x1="48" x2="148.0967" y1="699.3369" y2="699.3369"/><text fill="#000000" font-family="sans-serif" font-size="14" font-weight="700" lengthAdjust="spacing" textLength="87.0967" x="52" y="692.0351">Vol&#250;menes</text></g><!--entity FE--><g class="entity" data-qualified-name="HOST.EDGE.FE" data-source-line="11" id="ent0007"><polygon fill="#F1F1F1" points="446.33,253.79,456.33,243.79,635.6747,243.79,635.6747,296.3838,625.6747,306.3838,446.33,306.3838,446.33,253.79" style="stroke:#181818;stroke-width:0.5;"/><line style="stroke:#181818;stroke-width:0.5;" x1="625.6747" x2="635.6747" y1="253.79" y2="243.79"/><line style="stroke:#181818;stroke-width:0.5;" x1="446.33" x2="625.6747" y1="253.79" y2="253.79"/><line style="stroke:#181818;stroke-width:0.5;" x1="625.6747" x2="625.6747" y1="253.79" y2="306.3838"/><text fill="#000000" font-family="sans-serif" font-size="14" lengthAdjust="spacing" textLength="59.9854" x="461.33" y="276.7851">frontend</text><text fill="#000000" font-family="sans-serif" font-size="14" lengthAdjust="spacing" textLength="149.3447" x="461.33" y="293.082">(nginx + React build)</text></g><!--entity BE--><g class="entity" data-qualified-name="HOST.INT.BE" data-source-line="14" id="ent0009"><polygon fill="#F1F1F1" points="342.38,416.39,352.38,406.39,517.6222,406.39,517.6222,458.9838,507.6222,468.9838,342.38,468.9838,342.38,416.39" style="stroke:#181818;stroke-width:0.5;"/><line style="stroke:#181818;stroke-width:0.5;" x1="507.6222" x2="517.6222" y1="416.39" y2="406.39"/><line style="stroke:#181818;stroke-width:0.5;" x1="342.38" x2="507.6222" y1="416.39" y2="416.39"/><line style="stroke:#181818;stroke-width:0.5;" x1="507.6222" x2="507.6222" y1="416.39" y2="468.9838"/><text fill="#000000" font-family="sans-serif" font-size="14" lengthAdjust="spacing" textLength="59.6436" x="357.38" y="439.3851">backend</text><text fill="#000000" font-family="sans-serif" font-size="14" lengthAdjust="spacing" textLength="135.2422" x="357.38" y="455.682">(Node 20 + NestJS)</text></g><!--entity PG--><g class="entity" data-qualified-name="HOST.INT.PG" data-source-line="15" id="ent0010"><path d="M172.03,560.45 C172.03,550.45 239.0007,550.45 239.0007,550.45 C239.0007,550.45 305.9714,550.45 305.9714,560.45 L305.9714,602.0438 C305.9714,612.0438 239.0007,612.0438 239.0007,612.0438 C239.0007,612.0438 172.03,612.0438 172.03,602.0438 L172.03,560.45" fill="#F1F1F1" style="stroke:#181818;stroke-width:0.5;"/><path d="M172.03,560.45 C172.03,570.45 239.0007,570.45 239.0007,570.45 C239.0007,570.45 305.9714,570.45 305.9714,560.45" fill="none" style="stroke:#181818;stroke-width:0.5;"/><text fill="#000000" font-family="sans-serif" font-size="14" lengthAdjust="spacing" textLength="60.7852" x="182.03" y="587.4451">postgres</text><text fill="#000000" font-family="sans-serif" font-size="14" lengthAdjust="spacing" textLength="113.9414" x="182.03" y="603.742">(PostgreSQL 16)</text></g><!--entity RD--><g class="entity" data-qualified-name="HOST.INT.RD" data-source-line="16" id="ent0011"><path d="M386.01,560.45 C386.01,550.45 451.9963,550.45 451.9963,550.45 C451.9963,550.45 517.9827,550.45 517.9827,560.45 L517.9827,602.0438 C517.9827,612.0438 451.9963,612.0438 451.9963,612.0438 C451.9963,612.0438 386.01,612.0438 386.01,602.0438 L386.01,560.45" fill="#F1F1F1" style="stroke:#181818;stroke-width:0.5;"/><path d="M386.01,560.45 C386.01,570.45 451.9963,570.45 451.9963,570.45 C451.9963,570.45 517.9827,570.45 517.9827,560.45" fill="none" style="stroke:#181818;stroke-width:0.5;"/><text fill="#000000" font-family="sans-serif" font-size="14" lengthAdjust="spacing" textLength="34.4395" x="396.01" y="587.4451">redis</text><text fill="#000000" font-family="sans-serif" font-size="14" lengthAdjust="spacing" textLength="111.9727" x="396.01" y="603.742">(Redis 7 + AOF)</text></g><!--entity VPG--><g class="entity" data-qualified-name="HOST.VOLS.VPG" data-source-line="19" id="ent0013"><rect fill="#F1F1F1" height="39.2969" rx="2.5" ry="2.5" style="stroke:#181818;stroke-width:0.5;" width="170.916" x="63.54" y="712.04"/><polygon fill="#F1F1F1" points="217.456,717.04,217.456,731.04,229.456,731.04,229.456,723.04,223.456,717.04,217.456,717.04" style="stroke:#181818;stroke-width:0.5;"/><line style="stroke:#181818;stroke-width:0.5;" x1="223.456" x2="223.456" y1="717.04" y2="723.04"/><line style="stroke:#181818;stroke-width:0.5;" x1="229.456" x2="223.456" y1="723.04" y2="723.04"/><text fill="#000000" font-family="sans-serif" font-size="14" lengthAdjust="spacing" textLength="140.916" x="73.54" y="738.0351">fieldx-postgres-data</text></g><!--entity VRD--><g class="entity" data-qualified-name="HOST.VOLS.VRD" data-source-line="20" id="ent0014"><rect fill="#F1F1F1" height="39.2969" rx="2.5" ry="2.5" style="stroke:#181818;stroke-width:0.5;" width="144.5703" x="314.71" y="712.04"/><polygon fill="#F1F1F1" points="442.2803,717.04,442.2803,731.04,454.2803,731.04,454.2803,723.04,448.2803,717.04,442.2803,717.04" style="stroke:#181818;stroke-width:0.5;"/><line style="stroke:#181818;stroke-width:0.5;" x1="448.2803" x2="448.2803" y1="717.04" y2="723.04"/><line style="stroke:#181818;stroke-width:0.5;" x1="454.2803" x2="448.2803" y1="723.04" y2="723.04"/><text fill="#000000" font-family="sans-serif" font-size="14" lengthAdjust="spacing" textLength="114.5703" x="324.71" y="738.0351">fieldx-redis-data</text></g><!--entity VLOG--><g class="entity" data-qualified-name="HOST.VOLS.VLOG" data-source-line="21" id="ent0015"><rect fill="#F1F1F1" height="39.2969" rx="2.5" ry="2.5" style="stroke:#181818;stroke-width:0.5;" width="166.876" x="539.56" y="712.04"/><polygon fill="#F1F1F1" points="689.436,717.04,689.436,731.04,701.436,731.04,701.436,723.04,695.436,717.04,689.436,717.04" style="stroke:#181818;stroke-width:0.5;"/><line style="stroke:#181818;stroke-width:0.5;" x1="695.436" x2="695.436" y1="717.04" y2="723.04"/><line style="stroke:#181818;stroke-width:0.5;" x1="701.436" x2="695.436" y1="723.04" y2="723.04"/><text fill="#000000" font-family="sans-serif" font-size="14" lengthAdjust="spacing" textLength="136.876" x="549.56" y="738.0351">fieldx-backend-logs</text></g><!--entity U--><g class="entity" data-qualified-name="U" data-source-line="5" id="ent0002"><ellipse cx="541.0021" cy="14" fill="#F1F1F1" rx="8" ry="8" style="stroke:#181818;stroke-width:0.5;"/><path d="M541.0021,22 L541.0021,49 M528.0021,30 L554.0021,30 M541.0021,49 L528.0021,64 M541.0021,49 L554.0021,64" fill="none" style="stroke:#181818;stroke-width:0.5;"/><text fill="#000000" font-family="sans-serif" font-size="14" lengthAdjust="spacing" textLength="53.2041" x="514.4" y="78.4951">Usuario</text></g><!--entity HL--><g class="entity" data-qualified-name="HL" data-source-line="6" id="ent0003"><path d="M796.1157,567.5644 C798.1059,561.4093 803.3329,561.8628 806.9265,565.8563 C811.2025,560.4889 815.1541,561.047 818.6038,566.7295 C821.4178,561.9668 826.0375,561.1338 829.4546,566.0536 C832.177,560.0007 838.0119,557.9942 842.5781,564.0564 C845.3945,558.7637 848.8398,558.4566 852.4319,563.3024 C857.0187,556.796 862.9756,559.4663 865.5012,565.4578 C868.8348,560.3628 873.5737,560.6847 876.7254,565.6606 C880.1532,559.8723 885.2643,559.7493 888.7338,565.6176 C892.3903,560.9604 895.8847,561.8575 898.9607,566.272 C903.1192,560.606 907.8986,560.2545 911.4966,566.8452 C920.7659,568.2713 923.6713,573.0438 918.5808,581.44 C922.569,590.3613 920.7782,596.6924 910.1052,598.1992 C907.7672,604.3706 903.6362,604.0325 899.5128,600.0643 C897.4499,605.8456 892.0771,606.2348 888.7025,601.4001 C884.8838,607.6097 880.0196,608.0514 875.3797,602.3161 C873.4134,609.7005 869.8247,610.7112 864.0091,605.9071 C860.6582,611.5758 856.6606,611.6088 852.9223,606.2983 C849.0706,612.0574 844.1901,611.0225 840.6987,605.8938 C836.5352,609.4455 832.5975,608.3691 830.9607,603.1033 C826.827,607.411 821.7211,606.7372 819.4729,600.9563 C814.1076,606.7982 809.2895,605.3219 806.3101,598.4802 C802.8529,602.8034 798.2537,602.285 795.6163,597.5161 C786.6056,596.5661 783.3377,591.825 786.5128,583.1519 C782.6532,573.741 785.0658,567.79 796.1157,567.5644" fill="#F1F1F1" style="stroke:#181818;stroke-width:0.5;"/><text fill="#000000" font-family="sans-serif" font-size="14" lengthAdjust="spacing" textLength="101.541" x="801.23" y="586.0951">Hyperliquid L1</text></g><!--entity SW--><g class="entity" data-qualified-name="SW" data-source-line="7" id="ent0004"><path d="M1007.8709,558.7988 C1011.5913,553.2955 1015.0153,553.8279 1018.7087,558.8266 C1022.0989,552.6878 1027.0014,552.5864 1030.4992,558.7233 C1033.0701,553.1795 1038.5362,552.6153 1041.4879,558.3522 C1044.8758,552.7982 1050.6441,552.5017 1053.3175,559.0505 C1056.2913,553.1594 1061.9323,553.8152 1065.3064,558.601 C1068.9939,552.9423 1072.5846,553.4917 1076.8566,557.9326 C1080.9231,553.0791 1084.9033,552.0021 1088.3825,558.5274 C1091.3721,553.1897 1095.7135,552.3681 1099.327,557.8991 C1103.4523,552.4436 1107.308,552.8016 1110.9634,558.394 C1115.555,553.1974 1120.778,551.6056 1124.4787,559.3261 C1127.3346,553.8063 1132.7469,553.5047 1136.1402,558.7437 C1139.4949,554.7595 1143.4607,555.3214 1146.0419,559.6635 C1150.5713,562.3826 1151.1534,566.2819 1147.2477,569.9863 C1153.0953,573.5531 1153.9272,578.693 1147.3207,582.3334 C1152.512,585.0371 1154.2133,591.0135 1148.1777,594.5074 C1152.3995,598.5275 1151.5958,602.4754 1146.6684,605.2045 C1143.7054,610.8777 1139.2493,611.1729 1135.0033,606.6759 C1132.42,613.5321 1128.5526,613.1541 1123.8323,608.8066 C1119.5224,614.0745 1114.3572,615.1168 1110.9894,607.842 C1109.0512,613.3309 1103.4644,615.0176 1099.2755,610.4684 C1096.0134,616.0612 1092.6614,617.0846 1088.0938,611.8118 C1084.9225,617.5027 1081.3046,618.3825 1077.183,612.7256 C1074.1088,617.2995 1068.9241,616.5914 1066.3989,612.0743 C1061.7169,616.99 1056.8113,615.3365 1054.4431,609.5013 C1049.9701,615.8434 1044.6732,614.3711 1041.3126,608.3225 C1037.9251,613.5625 1034.2813,612.5766 1031.0163,608.1915 C1026.9118,612.9986 1022.5823,612.8981 1018.8499,607.7373 C1013.3998,612.865 1009.5227,611.3301 1007.1137,604.7015 C1002.4581,602.0076 1001.6958,598.6331 1005.5127,594.5969 C999.2429,592.5549 996.4523,587.0746 1002.3602,581.9879 C998.0387,578.2339 997.7848,572.866 1003.8184,570.417 C999.9333,564.8948 1000.4423,560.3748 1007.8709,558.7988" fill="#F1F1F1" style="stroke:#181818;stroke-width:0.5;"/><text fill="#000000" font-family="sans-serif" font-size="14" lengthAdjust="spacing" textLength="125.4873" x="1013.26" y="577.9451">Servicio Webhook</text><text fill="#000000" font-family="sans-serif" font-size="14" lengthAdjust="spacing" textLength="37.5771" x="1013.26" y="594.242">(n8n)</text></g><g class="entity" data-qualified-name="GMN25" data-source-line="37" id="ent0026"><path d="M834.51,247.39 L834.51,302.7884 L1053.4934,302.7884 L1053.4934,257.39 L1043.4934,247.39 L834.51,247.39" fill="#FEFFDD" style="stroke:#181818;stroke-width:0.5;"/><path d="M1043.4934,247.39 L1043.4934,257.39 L1053.4934,257.39 L1043.4934,247.39" fill="#FEFFDD" style="stroke:#181818;stroke-width:1;"/><text fill="#000000" font-family="sans-serif" font-size="13" lengthAdjust="spacing" textLength="185.0786" x="840.51" y="264.4569">&#218;nico puerto expuesto: 443.</text><text fill="#000000" font-family="sans-serif" font-size="13" lengthAdjust="spacing" textLength="85.4648" x="840.51" y="279.5897">Termina TLS.</text><text fill="#000000" font-family="sans-serif" font-size="13" lengthAdjust="spacing" textLength="197.9834" x="840.51" y="294.7225">Reverse proxy a /api/* y /ws/*.</text></g><g class="entity" data-qualified-name="GMN28" data-source-line="43" id="ent0029"><path d="M1075.64,402.42 L1075.64,472.9513 L1306.3666,472.9513 L1306.3666,412.42 L1296.3666,402.42 L1075.64,402.42" fill="#FEFFDD" style="stroke:#181818;stroke-width:0.5;"/><path d="M1296.3666,402.42 L1296.3666,412.42 L1306.3666,412.42 L1296.3666,402.42" fill="#FEFFDD" style="stroke:#181818;stroke-width:1;"/><text fill="#000000" font-family="sans-serif" font-size="13" lengthAdjust="spacing" textLength="86.7788" x="1081.64" y="419.4869">Subsistemas:</text><text fill="#000000" font-family="sans-serif" font-size="13" lengthAdjust="spacing" textLength="159.0342" x="1081.64" y="434.6197">S-PRES, S-INGE, S-LEAD,</text><text fill="#000000" font-family="sans-serif" font-size="13" lengthAdjust="spacing" textLength="209.7266" x="1081.64" y="449.7525">S-CATA, S-ALER, S-EVAL, S-NOTI</text><text fill="#000000" font-family="sans-serif" font-size="13" lengthAdjust="spacing" textLength="152.1216" x="1081.64" y="464.8853">+ EventBus en proceso</text></g><g class="entity" data-qualified-name="GMN31" data-source-line="50" id="ent0032"><path d="M786.06,409.98 L786.06,465.3784 L995.9409,465.3784 L995.9409,419.98 L985.9409,409.98 L786.06,409.98" fill="#FEFFDD" style="stroke:#181818;stroke-width:0.5;"/><path d="M985.9409,409.98 L985.9409,419.98 L995.9409,419.98 L985.9409,409.98" fill="#FEFFDD" style="stroke:#181818;stroke-width:1;"/><text fill="#000000" font-family="sans-serif" font-size="13" lengthAdjust="spacing" textLength="151.0361" x="792.06" y="427.0469">restart: unless-stopped</text><text fill="#000000" font-family="sans-serif" font-size="13" lengthAdjust="spacing" textLength="140.2324" x="792.06" y="442.1797">health checks Docker</text><text fill="#000000" font-family="sans-serif" font-size="13" lengthAdjust="spacing" textLength="188.8809" x="792.06" y="457.3125">depends_on: service_healthy</text></g><!--link U to FE--><g class="link" data-entity-1="ent0002" data-entity-2="ent0007" data-link-type="dependency" data-source-line="25" id="lnk16"><path d="M541,82.28 C541,127.28 541,195.75 541,237.42" fill="none" id="U-to-FE" style="stroke:#181818;stroke-width:1;"/><polygon fill="#181818" points="541,243.42,545,234.42,541,238.42,537,234.42,541,243.42" style="stroke:#181818;stroke-width:1;"/><text fill="#000000" font-family="sans-serif" font-size="13" lengthAdjust="spacing" textLength="70.6938" x="542" y="124.8569">HTTPS 443</text></g><!--link FE to BE--><g class="link" data-entity-1="ent0007" data-entity-2="ent0009" data-link-type="dependency" data-source-line="26" id="lnk17"><path d="M519.86,306.67 C500.17,335.16 474.3808,372.4637 454.6608,401.0037" fill="none" id="FE-to-BE" style="stroke:#181818;stroke-width:1;"/><polygon fill="#181818" points="451.25,405.94,459.657,400.8094,454.0923,401.8264,453.0753,396.2618,451.25,405.94" style="stroke:#181818;stroke-width:1;"/><text fill="#000000" font-family="sans-serif" font-size="13" lengthAdjust="spacing" textLength="149.7793" x="496" y="351.4569">HTTP /api/* + WS /ws/*</text></g><!--link BE to PG--><g class="link" data-entity-1="ent0009" data-entity-2="ent0010" data-link-type="dependency" data-source-line="27" id="lnk18"><path d="M388.56,469.4 C356.3,493.31 316.5898,522.7365 284.5298,546.5065" fill="none" id="BE-to-PG" style="stroke:#181818;stroke-width:1;"/><polygon fill="#181818" points="279.71,550.08,289.322,547.933,283.7265,547.1021,284.5573,541.5066,279.71,550.08" style="stroke:#181818;stroke-width:1;"/><text fill="#000000" font-family="sans-serif" font-size="13" lengthAdjust="spacing" textLength="62.0737" x="341" y="516.0169">TCP 5432</text></g><!--link BE to RD--><g class="link" data-entity-1="ent0009" data-entity-2="ent0011" data-link-type="dependency" data-source-line="28" id="lnk19"><path d="M434.77,469.4 C438.49,493.31 442.6996,520.381 446.3896,544.151" fill="none" id="BE-to-RD" style="stroke:#181818;stroke-width:1;"/><polygon fill="#181818" points="447.31,550.08,449.8821,540.5729,446.543,545.1392,441.9767,541.8001,447.31,550.08" style="stroke:#181818;stroke-width:1;"/><text fill="#000000" font-family="sans-serif" font-size="13" lengthAdjust="spacing" textLength="62.0737" x="443" y="516.0169">TCP 6379</text></g><!--link BE to HL--><g class="link" data-entity-1="ent0009" data-entity-2="ent0003" data-link-type="dependency" data-source-line="29" id="lnk20"><path d="M517.83,454.27 C571.15,465.05 640.05,481.35 699,502.95 C739.52,517.79 777.9881,537.6827 808.2681,554.6827" fill="none" id="BE-to-HL" style="stroke:#181818;stroke-width:1;"/><polygon fill="#181818" points="813.5,557.62,807.6104,549.7261,809.1401,555.1722,803.694,556.7019,813.5,557.62" style="stroke:#181818;stroke-width:1;"/><text fill="#000000" font-family="sans-serif" font-size="13" lengthAdjust="spacing" textLength="138.6519" x="739" y="516.0169">WebSocket (saliente)</text></g><!--link BE to SW--><g class="link" data-entity-1="ent0009" data-entity-2="ent0004" data-link-type="dependency" data-source-line="30" id="lnk21"><path d="M517.69,447.83 C632.81,460.34 828.4,483.46 898,502.95 C938.88,514.4 977.2295,530.7065 1011.1295,546.9565" fill="none" id="BE-to-SW" style="stroke:#181818;stroke-width:1;"/><polygon fill="#181818" points="1016.54,549.55,1010.1533,542.0527,1012.0312,547.3887,1006.6952,549.2667,1016.54,549.55" style="stroke:#181818;stroke-width:1;"/><text fill="#000000" font-family="sans-serif" font-size="13" lengthAdjust="spacing" textLength="145.7168" x="949" y="516.0169">HTTPS POST (saliente)</text></g><!--link PG to VPG--><g class="link" data-entity-1="ent0010" data-entity-2="ent0013" data-link-type="dependency" data-source-line="32" id="lnk22"><path d="M220.79,612.29 C202.71,642.11 178.6713,681.7597 163.4613,706.8397" fill="none" id="PG-to-VPG" style="stroke:#181818;stroke-width:1;stroke-dasharray:7,7;"/><polygon fill="#181818" points="160.35,711.97,168.4371,706.3488,162.9428,707.6948,161.5968,702.2004,160.35,711.97" style="stroke:#181818;stroke-width:1;"/><text fill="#000000" font-family="sans-serif" font-size="13" lengthAdjust="spacing" textLength="120.1294" x="200" y="657.1069">datos persistentes</text></g><!--link RD to VRD--><g class="link" data-entity-1="ent0011" data-entity-2="ent0014" data-link-type="dependency" data-source-line="33" id="lnk23"><path d="M438.85,612.29 C425.79,642.11 408.5863,681.3937 397.6063,706.4737" fill="none" id="RD-to-VRD" style="stroke:#181818;stroke-width:1;stroke-dasharray:7,7;"/><polygon fill="#181818" points="395.2,711.97,402.4737,705.3297,397.2052,707.3897,395.1452,702.1213,395.2,711.97" style="stroke:#181818;stroke-width:1;"/><text fill="#000000" font-family="sans-serif" font-size="13" lengthAdjust="spacing" textLength="26.603" x="424" y="657.1069">AOF</text></g><!--link BE to VLOG--><g class="link" data-entity-1="ent0009" data-entity-2="ent0015" data-link-type="dependency" data-source-line="34" id="lnk24"><path d="M483.58,469.33 C498.21,479.04 513.47,490.52 526,502.95 C587.17,563.64 610.9314,663.0596 618.8314,705.8796" fill="none" id="BE-to-VLOG" style="stroke:#181818;stroke-width:1;stroke-dasharray:7,7;"/><polygon fill="#181818" points="619.92,711.78,622.2207,702.2036,619.0128,706.863,614.3535,703.6551,619.92,711.78" style="stroke:#181818;stroke-width:1;"/><text fill="#000000" font-family="sans-serif" font-size="13" lengthAdjust="spacing" textLength="26.5903" x="600" y="585.8169">logs</text></g><!--link FE to GMN25--><g class="link" data-entity-1="ent0007" data-entity-2="ent0026" data-link-type="association" data-source-line="37" id="lnk27"><path d="M559.29,243.32 C577.36,213.64 607.02,169.16 640,136.79 C673.51,103.91 697.16,95.37 742,109.29 C820.42,133.65 888.93,206.45 922.34,247.01" fill="none" id="FE-GMN25" style="stroke:#181818;stroke-width:1;stroke-dasharray:7,7;"/></g><!--link BE to GMN28--><g class="link" data-entity-1="ent0009" data-entity-2="ent0029" data-link-type="association" data-source-line="43" id="lnk30"><path d="M512.82,406 C623.4,367.89 825.16,313.03 996,346.89 C1045.09,356.61 1096.21,381.03 1133.8,402.1" fill="none" id="BE-GMN28" style="stroke:#181818;stroke-width:1;stroke-dasharray:7,7;"/></g><!--link HOST to GMN31--><g class="link" data-entity-1="ent0005" data-entity-2="ent0032" data-link-type="association" data-source-line="50" id="lnk33"><path d="M762.0655,287.3611 C762.2624,287.6328 762.4622,287.9082 762.6648,288.1873 C764.2856,290.4195 766.085,292.8825 768.02,295.5075 C775.76,306.0075 785.67,319.1 795,330.39 C817.97,358.18 845.72,388.59 865.46,409.74" fill="none" id="HOST-GMN31" style="stroke:#181818;stroke-width:1;stroke-dasharray:7,7;"/></g><?plantuml-src VLJDRjf04BxxAKRaaZyW2McISeW4mGOg2oXsmgLIjDW3h32xxkuw0LMH-X0zzL5wpPlqIJfh6uIIgBwizvjlzljcF6kzv29bYgr0BrWidxcOmumb6XszYmWPeyOKRixsGCN4qe9NPux38YCLLEvrnXIN5M0QxfqeaLaCbTucHPNmxncFmJ_FOpr_6mnGFV68IvZWT27byfiu53VYA6S54yUnodI4r0OwCbgYWhy_Vq5VpBZW1i7ZcCJhuinX4C8F1-XH61acvWbbZZ5kmYndLJ6UOqvrErqN3jo6T-5roXJx55ep9OL14LidSoxMS09ZfFfWcl4aBfnvRfxqyZyrJgSemP8yeJy8uS3pl8PxzavmogYkN6zWznTdf3X0RRu4XLZRtIN4pB0fqvIKKaVc2ZLbZOhNuAiFvrT5ogZxGOh2c5l-sAvmJIgjeLVmnvszUcOoYQdFbGUPlFvPeK2TSnw6Va1DktCzxtol1gOCdzdsLCgwjywgLhd8tBFpZfwxskEMLZxabfsg9d9UUlA7tTBvY-FSGxLwIzy6cj0Bmr40bvSDXxOMRMzHgBEKru-f-aa0zMTTFtRQ1MNK9KfuDu9FbusBBJZkbE1Lu_hp5kpv1DB01dOY3Hngbd2aptsq9GIJdOUH7SizXaCojTgjRGfng6wfWUw7vjfOWdP8CO_dolI5x9avGBKIOcktruA6N_7vme2S5UFu-blmI4AQeJ8IS4qlsiYcRKADmY6g5HSCGZ-msp4-aIX2gkHw0spRbKtHaff3RGOhybOg7yOWc-P-LqmtxROw6hl1AQtzGTUrg--sEgTvvAuLjYpIyjsnNTs7bc_NmJ3i4-44t2SgkvrfG67DHAZbM_6fD4QkhBgzuuwzSThGS3GX4mbgNQKwqnHZYYoG9MO1qGAZfIx_60J7cDAP-b6A9kZyZuEF1NMp4_i7?></g></svg>