<svg xmlns="http://www.w3.org/2000/svg" xmlns:xlink="http://www.w3.org/1999/xlink" contentStyleType="text/css" data-diagram-type="DESCRIPTION" height="703px" preserveAspectRatio="none" style="width:608px;height:703px;background:#FFFFFF;" version="1.1" viewBox="0 0 608 703" width="608px" zoomAndPan="magnify"><?plantuml 1.2026.3beta6?><defs/><g><!--cluster APPM--><g class="cluster" data-qualified-name="APPM" data-source-line="5" id="ent0002"><rect fill="none" height="596.78" rx="2.5" ry="2.5" style="stroke:#181818;stroke-width:1;" width="580" x="7" y="7"/><text fill="#000000" font-family="sans-serif" font-size="14" font-weight="700" lengthAdjust="spacing" textLength="88.71" x="252.645" y="21.9951">AppModule</text></g><!--cluster FE--><g class="cluster" data-qualified-name="APPM.FE" data-source-line="6" id="ent0003"><rect fill="none" height="97.3" rx="2.5" ry="2.5" style="stroke:#181818;stroke-width:1;" width="532" x="31" y="50"/><text fill="#000000" font-family="sans-serif" font-size="14" font-weight="700" lengthAdjust="spacing" textLength="68.5918" x="262.7041" y="64.9951">Frontera</text></g><!--cluster NU--><g class="cluster" data-qualified-name="APPM.NU" data-source-line="11" id="ent0007"><rect fill="none" height="309.89" rx="2.5" ry="2.5" style="stroke:#181818;stroke-width:1;" width="416" x="115" y="171.3"/><text fill="#000000" font-family="sans-serif" font-size="14" font-weight="700" lengthAdjust="spacing" textLength="53.8945" x="296.0527" y="186.2951">N&#250;cleo</text></g><!--entity SKM--><g class="entity" data-qualified-name="APPM.SKM" data-source-line="18" id="ent0013"><rect fill="#F1F1F1" height="62.5938" rx="2.5" ry="2.5" style="stroke:#181818;stroke-width:0.5;" width="185.4277" x="356.29" y="525.19"/><rect fill="#F1F1F1" height="10" style="stroke:#181818;stroke-width:0.5;" width="15" x="521.7177" y="530.19"/><rect fill="#F1F1F1" height="2" style="stroke:#181818;stroke-width:0.5;" width="4" x="519.7177" y="532.19"/><rect fill="#F1F1F1" height="2" style="stroke:#181818;stroke-width:0.5;" width="4" x="519.7177" y="536.19"/><text fill="#000000" font-family="sans-serif" font-size="14" lengthAdjust="spacing" textLength="145.4277" x="371.29" y="558.1851">SharedKernelModule</text><text fill="#000000" font-family="sans-serif" font-size="14" lengthAdjust="spacing" textLength="61.79" x="371.29" y="574.482">&#171;Global&#187;</text></g><!--entity HttpModule--><g class="entity" data-qualified-name="APPM.FE.HttpModule" data-source-line="7" id="ent0004"><rect fill="#F1F1F1" height="46.2969" rx="2.5" ry="2.5" style="stroke:#181818;stroke-width:0.5;" width="121.2998" x="47.35" y="85"/><rect fill="#F1F1F1" height="10" style="stroke:#181818;stroke-width:0.5;" width="15" x="148.6498" y="90"/><rect fill="#F1F1F1" height="2" style="stroke:#181818;stroke-width:0.5;" width="4" x="146.6498" y="92"/><rect fill="#F1F1F1" height="2" style="stroke:#181818;stroke-width:0.5;" width="4" x="146.6498" y="96"/><text fill="#000000" font-family="sans-serif" font-size="14" lengthAdjust="spacing" textLength="81.2998" x="62.35" y="117.9951">HttpModule</text></g><!--entity RealtimeModule--><g class="entity" data-qualified-name="APPM.FE.RealtimeModule" data-source-line="8" id="ent0005"><rect fill="#F1F1F1" height="46.2969" rx="2.5" ry="2.5" style="stroke:#181818;stroke-width:0.5;" width="153.3467" x="203.33" y="85"/><rect fill="#F1F1F1" height="10" style="stroke:#181818;stroke-width:0.5;" width="15" x="336.6767" y="90"/><rect fill="#F1F1F1" height="2" style="stroke:#181818;stroke-width:0.5;" width="4" x="334.6767" y="92"/><rect fill="#F1F1F1" height="2" style="stroke:#181818;stroke-width:0.5;" width="4" x="334.6767" y="96"/><text fill="#000000" font-family="sans-serif" font-size="14" lengthAdjust="spacing" textLength="113.3467" x="218.33" y="117.9951">RealtimeModule</text></g><!--entity IngestionModule--><g class="entity" data-qualified-name="APPM.FE.IngestionModule" data-source-line="9" id="ent0006"><rect fill="#F1F1F1" height="46.2969" rx="2.5" ry="2.5" style="stroke:#181818;stroke-width:0.5;" width="155.5205" x="391.24" y="85"/><rect fill="#F1F1F1" height="10" style="stroke:#181818;stroke-width:0.5;" width="15" x="526.7605" y="90"/><rect fill="#F1F1F1" height="2" style="stroke:#181818;stroke-width:0.5;" width="4" x="524.7605" y="92"/><rect fill="#F1F1F1" height="2" style="stroke:#181818;stroke-width:0.5;" width="4" x="524.7605" y="96"/><text fill="#000000" font-family="sans-serif" font-size="14" lengthAdjust="spacing" textLength="115.5205" x="406.24" y="117.9951">IngestionModule</text></g><!--entity LeaderboardModule--><g class="entity" data-qualified-name="APPM.NU.LeaderboardModule" data-source-line="12" id="ent0008"><rect fill="#F1F1F1" height="46.2969" rx="2.5" ry="2.5" style="stroke:#181818;stroke-width:0.5;" width="179.8291" x="335.09" y="206.3"/><rect fill="#F1F1F1" height="10" style="stroke:#181818;stroke-width:0.5;" width="15" x="494.9191" y="211.3"/><rect fill="#F1F1F1" height="2" style="stroke:#181818;stroke-width:0.5;" width="4" x="492.9191" y="213.3"/><rect fill="#F1F1F1" height="2" style="stroke:#181818;stroke-width:0.5;" width="4" x="492.9191" y="217.3"/><text fill="#000000" font-family="sans-serif" font-size="14" lengthAdjust="spacing" textLength="139.8291" x="350.09" y="239.2951">LeaderboardModule</text></g><!--entity CatalogoModule--><g class="entity" data-qualified-name="APPM.NU.CatalogoModule" data-source-line="13" id="ent0009"><rect fill="#F1F1F1" height="46.2969" rx="2.5" ry="2.5" style="stroke:#181818;stroke-width:0.5;" width="153.2373" x="306.38" y="312.6"/><rect fill="#F1F1F1" height="10" style="stroke:#181818;stroke-width:0.5;" width="15" x="439.6173" y="317.6"/><rect fill="#F1F1F1" height="2" style="stroke:#181818;stroke-width:0.5;" width="4" x="437.6173" y="319.6"/><rect fill="#F1F1F1" height="2" style="stroke:#181818;stroke-width:0.5;" width="4" x="437.6173" y="323.6"/><text fill="#000000" font-family="sans-serif" font-size="14" lengthAdjust="spacing" textLength="113.2373" x="321.38" y="345.5951">CatalogoModule</text></g><!--entity AlertasModule--><g class="entity" data-qualified-name="APPM.NU.AlertasModule" data-source-line="14" id="ent0010"><rect fill="#F1F1F1" height="46.2969" rx="2.5" ry="2.5" style="stroke:#181818;stroke-width:0.5;" width="140.1055" x="130.95" y="312.6"/><rect fill="#F1F1F1" height="10" style="stroke:#181818;stroke-width:0.5;" width="15" x="251.0555" y="317.6"/><rect fill="#F1F1F1" height="2" style="stroke:#181818;stroke-width:0.5;" width="4" x="249.0555" y="319.6"/><rect fill="#F1F1F1" height="2" style="stroke:#181818;stroke-width:0.5;" width="4" x="249.0555" y="323.6"/><text fill="#000000" font-family="sans-serif" font-size="14" lengthAdjust="spacing" textLength="100.1055" x="145.95" y="345.5951">AlertasModule</text></g><!--entity EvaluacionModule--><g class="entity" data-qualified-name="APPM.NU.EvaluacionModule" data-source-line="15" id="ent0011"><rect fill="#F1F1F1" height="46.2969" rx="2.5" ry="2.5" style="stroke:#181818;stroke-width:0.5;" width="166.9844" x="133.51" y="206.3"/><rect fill="#F1F1F1" height="10" style="stroke:#181818;stroke-width:0.5;" width="15" x="280.4944" y="211.3"/><rect fill="#F1F1F1" height="2" style="stroke:#181818;stroke-width:0.5;" width="4" x="278.4944" y="213.3"/><rect fill="#F1F1F1" height="2" style="stroke:#181818;stroke-width:0.5;" width="4" x="278.4944" y="217.3"/><text fill="#000000" font-family="sans-serif" font-size="14" lengthAdjust="spacing" textLength="126.9844" x="148.51" y="239.2951">EvaluacionModule</text></g><!--entity NotificacionModule--><g class="entity" data-qualified-name="APPM.NU.NotificacionModule" data-source-line="16" id="ent0012"><rect fill="#F1F1F1" height="46.2969" rx="2.5" ry="2.5" style="stroke:#181818;stroke-width:0.5;" width="173.4443" x="131.28" y="418.89"/><rect fill="#F1F1F1" height="10" style="stroke:#181818;stroke-width:0.5;" width="15" x="284.7243" y="423.89"/><rect fill="#F1F1F1" height="2" style="stroke:#181818;stroke-width:0.5;" width="4" x="282.7243" y="425.89"/><rect fill="#F1F1F1" height="2" style="stroke:#181818;stroke-width:0.5;" width="4" x="282.7243" y="429.89"/><text fill="#000000" font-family="sans-serif" font-size="14" lengthAdjust="spacing" textLength="133.4443" x="146.28" y="451.8851">NotificacionModule</text></g><g class="entity" data-qualified-name="GMN28" data-source-line="43" id="ent0029"><path d="M327.55,647.78 L327.55,688.0456 A0,0 0 0 0 327.55,688.0456 L570.445,688.0456 A0,0 0 0 0 570.445,688.0456 L570.445,657.78 L560.445,647.78 L453,647.78 L449,588.26 L445,647.78 L327.55,647.78 A0,0 0 0 0 327.55,647.78" fill="#FEFFDD" style="stroke:#181818;stroke-width:0.5;"/><path d="M560.445,647.78 L560.445,657.78 L570.445,657.78 L560.445,647.78" fill="#FEFFDD" style="stroke:#181818;stroke-width:0.5;"/><text fill="#000000" font-family="sans-serif" font-size="13" lengthAdjust="spacing" textLength="175.3477" x="333.55" y="664.8469">EventBus, Config, Logging,</text><text fill="#000000" font-family="sans-serif" font-size="13" lengthAdjust="spacing" textLength="221.895" x="333.55" y="679.9797">TypeORM connection, Redis client</text></g><!--link HttpModule to CatalogoModule--><g class="link" data-entity-1="ent0004" data-entity-2="ent0009" data-link-type="dependency" data-source-line="21" id="lnk14"><path d="M96.01,131.58 C81.49,162.16 62.12,217.18 89,252.6 C95.76,261.5 215.5318,292.8943 300.3618,314.2643" fill="none" id="HttpModule-to-CatalogoModule" style="stroke:#181818;stroke-width:1;stroke-dasharray:7,7;"/><polygon fill="#181818" points="306.18,315.73,298.4298,309.6526,301.3315,314.5086,296.4755,317.4103,306.18,315.73" style="stroke:#181818;stroke-width:1;"/></g><!--link HttpModule to AlertasModule--><g class="link" data-entity-1="ent0004" data-entity-2="ent0010" data-link-type="dependency" data-source-line="22" id="lnk15"><path d="M76.25,131.63 C66.59,140.3 57.17,151.1 52,163.3 C36.5,199.84 31.82,218.42 52,252.6 C69.2,281.72 95.3012,298.8657 125.0012,311.5357" fill="none" id="HttpModule-to-AlertasModule" style="stroke:#181818;stroke-width:1;stroke-dasharray:7,7;"/><polygon fill="#181818" points="130.52,313.89,123.8113,306.6793,125.921,311.9281,120.6723,314.0377,130.52,313.89" style="stroke:#181818;stroke-width:1;"/></g><!--link RealtimeModule to LeaderboardModule--><g class="link" data-entity-1="ent0005" data-entity-2="ent0008" data-link-type="dependency" data-source-line="23" id="lnk16"><path d="M307.27,131.59 C333.2,152.92 367.3364,181.0082 393.2164,202.2982" fill="none" id="RealtimeModule-to-LeaderboardModule" style="stroke:#181818;stroke-width:1;stroke-dasharray:7,7;"/><polygon fill="#181818" points="397.85,206.11,393.4408,197.3032,393.9887,202.9335,388.3584,203.4814,397.85,206.11" style="stroke:#181818;stroke-width:1;"/></g><!--link RealtimeModule to CatalogoModule--><g class="link" data-entity-1="ent0005" data-entity-2="ent0009" data-link-type="dependency" data-source-line="24" id="lnk17"><path d="M241.88,131.57 C225.24,140.36 205.19,149.68 186,155.3 C170.98,159.7 126.42,151.62 116,163.3 C89.58,192.91 92.42,220.67 116,252.6 C127.67,268.4 225.6742,295.6248 300.3442,314.5648" fill="none" id="RealtimeModule-to-CatalogoModule" style="stroke:#181818;stroke-width:1;stroke-dasharray:7,7;"/><polygon fill="#181818" points="306.16,316.04,298.4197,309.95,301.3135,314.8107,296.4528,317.7044,306.16,316.04" style="stroke:#181818;stroke-width:1;"/></g><!--link IngestionModule to SKM--><g class="link" data-entity-1="ent0006" data-entity-2="ent0013" data-link-type="dependency" data-source-line="26" id="lnk18"><path d="M505.06,131.8 C515.4,140.3 525.38,150.94 531,163.3 C590.91,295.17 593.41,358.48 531,489.19 C524.37,503.07 517.9196,511.1878 505.9896,520.9178" fill="none" id="IngestionModule-to-SKM" style="stroke:#181818;stroke-width:1;stroke-dasharray:7,7;"/><polygon fill="#181818" points="501.34,524.71,510.8426,522.1215,505.2147,521.5498,505.7863,515.9219,501.34,524.71" style="stroke:#181818;stroke-width:1;"/></g><!--link LeaderboardModule to CatalogoModule--><g class="link" data-entity-1="ent0008" data-entity-2="ent0009" data-link-type="dependency" data-source-line="28" id="lnk19"><path d="M415.89,253.08 C408.84,270.57 401.3815,289.1144 394.3415,306.5944" fill="none" id="LeaderboardModule-to-CatalogoModule" style="stroke:#181818;stroke-width:1;stroke-dasharray:7,7;"/><polygon fill="#181818" points="392.1,312.16,399.1727,305.306,393.9679,307.522,391.7519,302.3173,392.1,312.16" style="stroke:#181818;stroke-width:1;"/></g><!--link LeaderboardModule to SKM--><g class="link" data-entity-1="ent0008" data-entity-2="ent0013" data-link-type="dependency" data-source-line="29" id="lnk20"><path d="M456.57,252.8 C474.46,267.49 495.18,288.44 505,312.6 C534.55,385.31 531.96,415.48 505,489.19 C500.24,502.21 495.621,509.9145 486.591,520.2345" fill="none" id="LeaderboardModule-to-SKM" style="stroke:#181818;stroke-width:1;stroke-dasharray:7,7;"/><polygon fill="#181818" points="482.64,524.75,491.5768,520.6108,485.9325,520.9871,485.5562,515.3428,482.64,524.75" style="stroke:#181818;stroke-width:1;"/></g><!--link CatalogoModule to SKM--><g class="link" data-entity-1="ent0009" data-entity-2="ent0013" data-link-type="dependency" data-source-line="31" id="lnk21"><path d="M389.81,359.33 C401.74,398.85 424.6569,474.7958 438.0769,519.2758" fill="none" id="CatalogoModule-to-SKM" style="stroke:#181818;stroke-width:1;stroke-dasharray:7,7;"/><polygon fill="#181818" points="439.81,525.02,441.0399,515.2482,438.3658,520.2331,433.3809,517.559,439.81,525.02" style="stroke:#181818;stroke-width:1;"/></g><!--link AlertasModule to NotificacionModule--><g class="link" data-entity-1="ent0010" data-entity-2="ent0012" data-link-type="dependency" data-source-line="33" id="lnk22"><path d="M193.96,359.38 C194.11,376.87 196.2223,395.252 201.7823,412.742" fill="none" id="AlertasModule-to-NotificacionModule" style="stroke:#181818;stroke-width:1;stroke-dasharray:7,7;"/><polygon fill="#181818" points="203.6,418.46,204.6854,408.6711,202.0852,413.695,197.0614,411.0948,203.6,418.46" style="stroke:#181818;stroke-width:1;"/></g><!--link NotificacionModule to AlertasModule--><g class="link" data-entity-1="ent0012" data-entity-2="ent0010" data-link-type="dependency" data-source-line="39" id="lnk26"><path d="M225.67,418.46 C225.68,400.97 223.6221,382.5737 217.9121,365.0837" fill="none" id="NotificacionModule-to-AlertasModule" style="stroke:#181818;stroke-width:1;stroke-dasharray:7,7;"/><polygon fill="#181818" points="216.05,359.38,215.0407,369.177,217.6018,364.1331,222.6457,366.6942,216.05,359.38" style="stroke:#181818;stroke-width:1;"/></g><!--link AlertasModule to SKM--><g class="link" data-entity-1="ent0010" data-entity-2="ent0013" data-link-type="dependency" data-source-line="34" id="lnk23"><path d="M238.83,359.32 C263.52,374.79 295.89,396.49 322,418.89 C360.58,452 395.7454,491.2803 420.1554,520.2703" fill="none" id="AlertasModule-to-SKM" style="stroke:#181818;stroke-width:1;stroke-dasharray:7,7;"/><polygon fill="#181818" points="424.02,524.86,421.2829,515.3991,420.7995,521.0353,415.1634,520.5519,424.02,524.86" style="stroke:#181818;stroke-width:1;"/></g><!--link EvaluacionModule to AlertasModule--><g class="link" data-entity-1="ent0011" data-entity-2="ent0010" data-link-type="dependency" data-source-line="36" id="lnk24"><path d="M213.53,253.08 C210.84,270.57 208.0626,288.7498 205.3726,306.2298" fill="none" id="EvaluacionModule-to-AlertasModule" style="stroke:#181818;stroke-width:1;stroke-dasharray:7,7;"/><polygon fill="#181818" points="204.46,312.16,209.7824,303.8731,205.2205,307.2182,201.8754,302.6563,204.46,312.16" style="stroke:#181818;stroke-width:1;"/></g><!--link EvaluacionModule to SKM--><g class="link" data-entity-1="ent0011" data-entity-2="ent0013" data-link-type="dependency" data-source-line="37" id="lnk25"><path d="M300.72,251.63 C372.53,270.63 466.12,297.75 477,312.6 C523.54,376.11 490.4621,469.6705 467.3221,519.3805" fill="none" id="EvaluacionModule-to-SKM" style="stroke:#181818;stroke-width:1;stroke-dasharray:7,7;"/><polygon fill="#181818" points="464.79,524.82,472.2145,518.3488,466.9001,520.2871,464.9618,514.9726,464.79,524.82" style="stroke:#181818;stroke-width:1;"/></g><!--link NotificacionModule to SKM--><g class="link" data-entity-1="ent0012" data-entity-2="ent0013" data-link-type="dependency" data-source-line="40" id="lnk27"><path d="M261.85,465.58 C276.77,473.17 293.57,481.63 309,489.19 C333.15,501.03 354.3634,511.1702 377.8734,522.2602" fill="none" id="NotificacionModule-to-SKM" style="stroke:#181818;stroke-width:1;stroke-dasharray:7,7;"/><polygon fill="#181818" points="383.3,524.82,376.8667,517.3626,378.7779,522.6868,373.4536,524.598,383.3,524.82" style="stroke:#181818;stroke-width:1;"/></g><?plantuml-src TPDBRi8m48RtFiM8TSG94195q5OGYg3TTJCaGx1mF95jMg6AYtNRYzMO59hWUEdvvf-ttKjTeS4IAipsMD3Q7HM1eSoXBXG9UmNi3dF-bBg0BIfBOYTp0kl84BjZHKBK2j0RLLNA-K5H3z32QBbCuKk0VrTYQbXxJmp0T5ARpo_Zic9Dsi6JSxLCnBWYL4wMr0aywuAiawp_4QTc4ekVxqmHXnmMRz4SveGvcGsZoJiZZT6Xue8xWP4Yuz1ssYSVg0wODNDj8WjsSYkpDdGfw8RrrZiqbC_8Q58NxbqF1e-ADwY6mr3fUfQAan2txjR1-lrXkvGeqwocEOSQkUzQ56j54wsHNQ1pkk9ECEOVXu9_auH_oerg_agCT3lA1ONsz29DYYB1-JvInBq32WAQ7S66dUCIU1l-m2-KNuQ7WqrWp7ehYmJcN1J-SXDlVFMt-h9A_TPexQ_SQoR-cd9f8LFI-mdIEPnbVm40?></g></svg>