<svg xmlns="http://www.w3.org/2000/svg" xmlns:xlink="http://www.w3.org/1999/xlink" contentStyleType="text/css" data-diagram-type="CLASS" height="491px" preserveAspectRatio="none" style="width:2404px;height:491px;background:#FFFFFF;" version="1.1" viewBox="0 0 2404 491" width="2404px" zoomAndPan="magnify"><?plantuml 1.2026.3beta6?><defs/><g><!--cluster presentation/realtime--><g class="cluster" data-qualified-name="presentation.realtime" data-source-line="5" id="ent0002"><path d="M8.5,6 L182.2646,6 A3.75,3.75 0 0 1 184.7646,8.5 L191.7646,28.2969 L259.5,28.2969 A2.5,2.5 0 0 1 262,30.7969 L262,143.36 A2.5,2.5 0 0 1 259.5,145.86 L8.5,145.86 A2.5,2.5 0 0 1 6,143.36 L6,8.5 A2.5,2.5 0 0 1 8.5,6" fill="none" style="stroke:#000000;stroke-width:1.5;"/><line style="stroke:#000000;stroke-width:1.5;" x1="6" x2="191.7646" y1="28.2969" y2="28.2969"/><text fill="#000000" font-family="sans-serif" font-size="14" font-weight="700" lengthAdjust="spacing" textLength="172.7646" x="10" y="20.9951">presentation/realtime</text></g><!--cluster application/leaderboard--><g class="cluster" data-qualified-name="application.leaderboard" data-source-line="12" id="ent0004"><path d="M618.5,14.15 L808.6982,14.15 A3.75,3.75 0 0 1 811.1982,16.65 L818.1982,36.4469 L1322.5,36.4469 A2.5,2.5 0 0 1 1325,38.9469 L1325,308.51 A2.5,2.5 0 0 1 1322.5,311.01 L618.5,311.01 A2.5,2.5 0 0 1 616,308.51 L616,16.65 A2.5,2.5 0 0 1 618.5,14.15" fill="none" style="stroke:#000000;stroke-width:1.5;"/><line style="stroke:#000000;stroke-width:1.5;" x1="616" x2="818.1982" y1="36.4469" y2="36.4469"/><text fill="#000000" font-family="sans-serif" font-size="14" font-weight="700" lengthAdjust="spacing" textLength="189.1982" x="620" y="29.1451">application/leaderboard</text></g><!--cluster application/ingestion--><g class="cluster" data-qualified-name="application.ingestion" data-source-line="28" id="ent0009"><path d="M1999.5,179.3 L2167.2148,179.3 A3.75,3.75 0 0 1 2169.7148,181.8 L2176.7148,201.5969 L2176.5,201.5969 A2.5,2.5 0 0 1 2179,204.0969 L2179,284.07 A2.5,2.5 0 0 1 2176.5,286.57 L1999.5,286.57 A2.5,2.5 0 0 1 1997,284.07 L1997,181.8 A2.5,2.5 0 0 1 1999.5,179.3" fill="none" style="stroke:#000000;stroke-width:1.5;"/><line style="stroke:#000000;stroke-width:1.5;" x1="1997" x2="2176.7148" y1="201.5969" y2="201.5969"/><text fill="#000000" font-family="sans-serif" font-size="14" font-weight="700" lengthAdjust="spacing" textLength="166.7148" x="2001" y="194.2951">application/ingestion</text></g><!--cluster domain/leaderboard--><g class="cluster" data-qualified-name="domain.leaderboard" data-source-line="32" id="ent0011"><path d="M1351.5,172.32 L1512.2285,172.32 A3.75,3.75 0 0 1 1514.7285,174.82 L1521.7285,194.6169 L1633.5,194.6169 A2.5,2.5 0 0 1 1636,197.1169 L1636,473.67 A2.5,2.5 0 0 1 1633.5,476.17 L1351.5,476.17 A2.5,2.5 0 0 1 1349,473.67 L1349,174.82 A2.5,2.5 0 0 1 1351.5,172.32" fill="none" style="stroke:#000000;stroke-width:1.5;"/><line style="stroke:#000000;stroke-width:1.5;" x1="1349" x2="1521.7285" y1="194.6169" y2="194.6169"/><text fill="#000000" font-family="sans-serif" font-size="14" font-weight="700" lengthAdjust="spacing" textLength="159.7285" x="1353" y="187.3151">domain/leaderboard</text></g><!--cluster infrastructure/persistence/redis--><g class="cluster" data-qualified-name="infrastructure.persistence.redis" data-source-line="42" id="ent0015"><path d="M288.5,22.3 L541.5752,22.3 A3.75,3.75 0 0 1 544.0752,24.8 L551.0752,44.5969 L589.5,44.5969 A2.5,2.5 0 0 1 592,47.0969 L592,127.06 A2.5,2.5 0 0 1 589.5,129.56 L288.5,129.56 A2.5,2.5 0 0 1 286,127.06 L286,24.8 A2.5,2.5 0 0 1 288.5,22.3" fill="none" style="stroke:#000000;stroke-width:1.5;"/><line style="stroke:#000000;stroke-width:1.5;" x1="286" x2="551.0752" y1="44.5969" y2="44.5969"/><text fill="#000000" font-family="sans-serif" font-size="14" font-weight="700" lengthAdjust="spacing" textLength="252.0752" x="290" y="37.2951">infrastructure/persistence/redis</text></g><!--cluster infrastructure/connectors/hyperliquid--><g class="cluster" data-qualified-name="infrastructure.connectors.hyperliquid" data-source-line="46" id="ent0017"><path d="M1662.5,22.3 L1961.3008,22.3 A3.75,3.75 0 0 1 1963.8008,24.8 L1970.8008,44.5969 L1970.5,44.5969 A2.5,2.5 0 0 1 1973,47.0969 L1973,277.08 A2.5,2.5 0 0 1 1970.5,279.58 L1662.5,279.58 A2.5,2.5 0 0 1 1660,277.08 L1660,24.8 A2.5,2.5 0 0 1 1662.5,22.3" fill="none" style="stroke:#000000;stroke-width:1.5;"/><line style="stroke:#000000;stroke-width:1.5;" x1="1660" x2="1970.8008" y1="44.5969" y2="44.5969"/><text fill="#000000" font-family="sans-serif" font-size="14" font-weight="700" lengthAdjust="spacing" textLength="297.8008" x="1664" y="37.2951">infrastructure/connectors/hyperliquid</text></g><!--class LeaderboardGateway--><g class="entity" data-qualified-name="presentation.realtime.LeaderboardGateway" data-source-line="6" id="ent0003"><rect fill="#F1F1F1" height="88.8594" rx="2.5" ry="2.5" style="stroke:#181818;stroke-width:0.5;" width="223.2236" x="22.39" y="41"/><text fill="#000000" font-family="sans-serif" font-size="12" font-style="italic" lengthAdjust="spacing" textLength="66.0117" x="100.996" y="57.1387">&#171;gateway&#187;</text><text fill="#000000" font-family="sans-serif" font-size="14" lengthAdjust="spacing" textLength="150.7666" x="58.6185" y="72.9639">LeaderboardGateway</text><line style="stroke:#181818;stroke-width:0.5;" x1="23.39" x2="244.6136" y1="81.2656" y2="81.2656"/><line style="stroke:#181818;stroke-width:0.5;" x1="23.39" x2="244.6136" y1="89.2656" y2="89.2656"/><text fill="#000000" font-family="sans-serif" font-size="14" lengthAdjust="spacing" textLength="211.2236" x="28.39" y="106.2607">+onSubscribe(q, socket): void</text><text fill="#000000" font-family="sans-serif" font-size="14" lengthAdjust="spacing" textLength="136.0146" x="28.39" y="122.5576">+notificar(ev): void</text></g><!--class ILeaderboardService--><g class="entity" data-qualified-name="application.leaderboard.ILeaderboardService" data-source-line="13" id="ent0005"><rect fill="#F1F1F1" height="88.8594" rx="2.5" ry="2.5" style="stroke:#181818;stroke-width:0.5;" width="401.7031" x="632.15" y="198.01"/><text fill="#000000" font-family="sans-serif" font-size="12" font-style="italic" lengthAdjust="spacing" textLength="54.5508" x="805.7262" y="214.1487">&#171;port-in&#187;</text><text fill="#000000" font-family="sans-serif" font-size="14" font-style="italic" lengthAdjust="spacing" textLength="144.792" x="760.6056" y="229.9739">ILeaderboardService</text><line style="stroke:#181818;stroke-width:0.5;" x1="633.15" x2="1032.8531" y1="238.2756" y2="238.2756"/><line style="stroke:#181818;stroke-width:0.5;" x1="633.15" x2="1032.8531" y1="246.2756" y2="246.2756"/><text fill="#000000" font-family="sans-serif" font-size="14" lengthAdjust="spacing" textLength="389.7031" x="638.15" y="263.2707">+obtenerSnapshot(q): Promise&lt;FilaLeaderboardDto[]&gt;</text><text fill="#000000" font-family="sans-serif" font-size="14" lengthAdjust="spacing" textLength="315.9775" x="638.15" y="279.5676">+suscribir(q, cliente): Promise&lt;Suscripcion&gt;</text></g><!--class ILeaderboardSnapshotRepository--><g class="entity" data-qualified-name="application.leaderboard.ILeaderboardSnapshotRepository" data-source-line="17" id="ent0006"><rect fill="#F1F1F1" height="105.1563" rx="2.5" ry="2.5" style="stroke:#181818;stroke-width:0.5;" width="239.5703" x="1069.21" y="189.86"/><text fill="#000000" font-family="sans-serif" font-size="12" font-style="italic" lengthAdjust="spacing" textLength="63.2637" x="1157.3633" y="205.9987">&#171;port-out&#187;</text><text fill="#000000" font-family="sans-serif" font-size="14" font-style="italic" lengthAdjust="spacing" textLength="233.5703" x="1072.21" y="221.8239">ILeaderboardSnapshotRepository</text><line style="stroke:#181818;stroke-width:0.5;" x1="1070.21" x2="1307.7803" y1="230.1256" y2="230.1256"/><line style="stroke:#181818;stroke-width:0.5;" x1="1070.21" x2="1307.7803" y1="238.1256" y2="238.1256"/><text fill="#000000" font-family="sans-serif" font-size="14" lengthAdjust="spacing" textLength="170.9395" x="1075.21" y="255.1207">+a&#241;adirOperacion(t, op)</text><text fill="#000000" font-family="sans-serif" font-size="14" lengthAdjust="spacing" textLength="137.1904" x="1075.21" y="271.4176">+obtenerTopN(t, n)</text><text fill="#000000" font-family="sans-serif" font-size="14" lengthAdjust="spacing" textLength="181.1797" x="1075.21" y="287.7145">+purgarVentana(t, hasta)</text></g><!--class LeaderboardService--><g class="entity" data-qualified-name="application.leaderboard.LeaderboardService" data-source-line="22" id="ent0007"><rect fill="#F1F1F1" height="56.2656" rx="2.5" ry="2.5" style="stroke:#181818;stroke-width:0.5;" width="146.6631" x="738.67" y="57.3"/><text fill="#000000" font-family="sans-serif" font-size="12" font-style="italic" lengthAdjust="spacing" textLength="57.668" x="783.1676" y="73.4387">&#171;service&#187;</text><text fill="#000000" font-family="sans-serif" font-size="14" lengthAdjust="spacing" textLength="140.6631" x="741.67" y="89.2639">LeaderboardService</text><line style="stroke:#181818;stroke-width:0.5;" x1="739.67" x2="884.3331" y1="97.5656" y2="97.5656"/><line style="stroke:#181818;stroke-width:0.5;" x1="739.67" x2="884.3331" y1="105.5656" y2="105.5656"/></g><!--class OperationIngestionHandler--><g class="entity" data-qualified-name="application.leaderboard.OperationIngestionHandler" data-source-line="23" id="ent0008"><rect fill="#F1F1F1" height="72.5625" rx="2.5" ry="2.5" style="stroke:#181818;stroke-width:0.5;" width="388.7627" x="920.62" y="49.15"/><text fill="#000000" font-family="sans-serif" font-size="12" font-style="italic" lengthAdjust="spacing" textLength="57.668" x="1086.1674" y="65.2887">&#171;service&#187;</text><text fill="#000000" font-family="sans-serif" font-size="14" lengthAdjust="spacing" textLength="189.4102" x="1020.2963" y="81.1139">OperationIngestionHandler</text><line style="stroke:#181818;stroke-width:0.5;" x1="921.62" x2="1308.3827" y1="89.4156" y2="89.4156"/><line style="stroke:#181818;stroke-width:0.5;" x1="921.62" x2="1308.3827" y1="97.4156" y2="97.4156"/><text fill="#000000" font-family="sans-serif" font-size="14" lengthAdjust="spacing" textLength="376.7627" x="926.62" y="114.4107">+handle(ev): void  &#171;@OnEvent('OperacionRecibida')&#187;</text></g><!--class IHyperliquidPort--><g class="entity" data-qualified-name="application.ingestion.IHyperliquidPort" data-source-line="29" id="ent0010"><rect fill="#F1F1F1" height="56.2656" rx="2.5" ry="2.5" style="stroke:#181818;stroke-width:0.5;" width="118.7656" x="2012.62" y="214.3"/><text fill="#000000" font-family="sans-serif" font-size="12" font-style="italic" lengthAdjust="spacing" textLength="63.2637" x="2040.371" y="230.4387">&#171;port-out&#187;</text><text fill="#000000" font-family="sans-serif" font-size="14" font-style="italic" lengthAdjust="spacing" textLength="112.7656" x="2015.62" y="246.2639">IHyperliquidPort</text><line style="stroke:#181818;stroke-width:0.5;" x1="2013.62" x2="2130.3856" y1="254.5656" y2="254.5656"/><line style="stroke:#181818;stroke-width:0.5;" x1="2013.62" x2="2130.3856" y1="262.5656" y2="262.5656"/></g><!--class Operacion--><g class="entity" data-qualified-name="domain.leaderboard.Operacion" data-source-line="33" id="ent0012"><rect fill="#F1F1F1" height="56.2656" rx="2.5" ry="2.5" style="stroke:#181818;stroke-width:0.5;" width="77.8799" x="1542.06" y="214.3"/><text fill="#000000" font-family="sans-serif" font-size="12" font-style="italic" lengthAdjust="spacing" textLength="49.5176" x="1556.2412" y="230.4387">&#171;entity&#187;</text><text fill="#000000" font-family="sans-serif" font-size="14" lengthAdjust="spacing" textLength="71.8799" x="1545.06" y="246.2639">Operacion</text><line style="stroke:#181818;stroke-width:0.5;" x1="1543.06" x2="1618.9399" y1="254.5656" y2="254.5656"/><line style="stroke:#181818;stroke-width:0.5;" x1="1543.06" x2="1618.9399" y1="262.5656" y2="262.5656"/></g><!--class LeaderboardEnVivo--><g class="entity" data-qualified-name="domain.leaderboard.LeaderboardEnVivo" data-source-line="34" id="ent0013"><rect fill="#F1F1F1" height="70.2344" rx="2.5" ry="2.5" style="stroke:#181818;stroke-width:0.5;" width="142.958" x="1364.52" y="207.32"/><text fill="#000000" font-family="sans-serif" font-size="12" font-style="italic" lengthAdjust="spacing" textLength="49.5176" x="1411.2402" y="223.4587">&#171;entity&#187;</text><text fill="#000000" font-family="sans-serif" font-size="12" font-style="italic" lengthAdjust="spacing" textLength="80.8242" x="1395.5869" y="237.4274">&#171;conceptual&#187;</text><text fill="#000000" font-family="sans-serif" font-size="14" lengthAdjust="spacing" textLength="136.958" x="1367.52" y="253.2526">LeaderboardEnVivo</text><line style="stroke:#181818;stroke-width:0.5;" x1="1365.52" x2="1506.478" y1="261.5544" y2="261.5544"/><line style="stroke:#181818;stroke-width:0.5;" x1="1365.52" x2="1506.478" y1="269.5544" y2="269.5544"/></g><!--class Terna--><g class="entity" data-qualified-name="domain.leaderboard.Terna" data-source-line="35" id="ent0014"><rect fill="#F1F1F1" height="105.1563" rx="2.5" ry="2.5" style="stroke:#181818;stroke-width:0.5;" width="117.3896" x="1377.31" y="355.01"/><text fill="#000000" font-family="sans-serif" font-size="12" font-style="italic" lengthAdjust="spacing" textLength="47.4609" x="1412.2744" y="371.1487">&#171;value&#187;</text><text fill="#000000" font-family="sans-serif" font-size="14" lengthAdjust="spacing" textLength="40.373" x="1415.8183" y="386.9739">Terna</text><line style="stroke:#181818;stroke-width:0.5;" x1="1378.31" x2="1493.6996" y1="395.2756" y2="395.2756"/><text fill="#000000" font-family="sans-serif" font-size="14" lengthAdjust="spacing" textLength="73.4658" x="1383.31" y="412.2707">+mercado</text><text fill="#000000" font-family="sans-serif" font-size="14" lengthAdjust="spacing" textLength="51.3789" x="1383.31" y="428.5676">+token</text><text fill="#000000" font-family="sans-serif" font-size="14" lengthAdjust="spacing" textLength="105.3896" x="1383.31" y="444.8645">+temporalidad</text><line style="stroke:#181818;stroke-width:0.5;" x1="1378.31" x2="1493.6996" y1="452.1663" y2="452.1663"/></g><!--class LeaderboardSnapshotRepositoryRedis--><g class="entity" data-qualified-name="infrastructure.persistence.redis.LeaderboardSnapshotRepositoryRedis" data-source-line="43" id="ent0016"><rect fill="#FFF3E0" height="56.2656" rx="2.5" ry="2.5" style="stroke:#181818;stroke-width:0.5;" width="273.8525" x="302.07" y="57.3"/><text fill="#000000" font-family="sans-serif" font-size="12" font-style="italic" lengthAdjust="spacing" textLength="41.959" x="418.0168" y="73.4387">&#171;repo&#187;</text><text fill="#000000" font-family="sans-serif" font-size="14" lengthAdjust="spacing" textLength="267.8525" x="305.07" y="89.2639">LeaderboardSnapshotRepositoryRedis</text><line style="stroke:#181818;stroke-width:0.5;" x1="303.07" x2="574.9225" y1="97.5656" y2="97.5656"/><line style="stroke:#181818;stroke-width:0.5;" x1="303.07" x2="574.9225" y1="105.5656" y2="105.5656"/></g><!--class HyperliquidConnector--><g class="entity" data-qualified-name="infrastructure.connectors.hyperliquid.HyperliquidConnector" data-source-line="47" id="ent0018"><rect fill="#FFF3E0" height="56.2656" rx="2.5" ry="2.5" style="stroke:#181818;stroke-width:0.5;" width="158.5918" x="1736.7" y="57.3"/><text fill="#000000" font-family="sans-serif" font-size="12" font-style="italic" lengthAdjust="spacing" textLength="61.6465" x="1785.1727" y="73.4387">&#171;adapter&#187;</text><text fill="#000000" font-family="sans-serif" font-size="14" lengthAdjust="spacing" textLength="152.5918" x="1739.7" y="89.2639">HyperliquidConnector</text><line style="stroke:#181818;stroke-width:0.5;" x1="1737.7" x2="1894.2918" y1="97.5656" y2="97.5656"/><line style="stroke:#181818;stroke-width:0.5;" x1="1737.7" x2="1894.2918" y1="105.5656" y2="105.5656"/></g><!--class HyperliquidMessageParser--><g class="entity" data-qualified-name="infrastructure.connectors.hyperliquid.HyperliquidMessageParser" data-source-line="48" id="ent0019"><rect fill="#FFF3E0" height="42.2969" rx="2.5" ry="2.5" style="stroke:#181818;stroke-width:0.5;" width="192.1836" x="1719.91" y="221.29"/><text fill="#000000" font-family="sans-serif" font-size="14" lengthAdjust="spacing" textLength="186.1836" x="1722.91" y="239.2851">HyperliquidMessageParser</text><line style="stroke:#181818;stroke-width:0.5;" x1="1720.91" x2="1911.0936" y1="247.5869" y2="247.5869"/><line style="stroke:#181818;stroke-width:0.5;" x1="1720.91" x2="1911.0936" y1="255.5869" y2="255.5869"/></g><g class="entity" data-qualified-name="GMN30" data-source-line="63" id="ent0031"><path d="M2194.67,214.74 L2194.67,270.1384 L2389.3292,270.1384 L2389.3292,224.74 L2379.3292,214.74 L2194.67,214.74" fill="#FEFFDD" style="stroke:#181818;stroke-width:0.5;"/><path d="M2379.3292,214.74 L2379.3292,224.74 L2389.3292,224.74 L2379.3292,214.74" fill="#FEFFDD" style="stroke:#181818;stroke-width:1;"/><text fill="#000000" font-family="sans-serif" font-size="13" lengthAdjust="spacing" textLength="173.6592" x="2200.67" y="231.8069">Conceptual: se materializa</text><text fill="#000000" font-family="sans-serif" font-size="13" lengthAdjust="spacing" textLength="162.0938" x="2200.67" y="246.9397">en Redis (Sorted Set) v&#237;a</text><text fill="#000000" font-family="sans-serif" font-size="13" lengthAdjust="spacing" textLength="85.6362" x="2200.67" y="262.0725">el repositorio</text></g><!--link LeaderboardGateway to ILeaderboardService--><g class="link" data-entity-1="ent0003" data-entity-2="ent0005" data-link-type="dependency" data-source-line="51" id="lnk20"><path codeLine="51" d="M222.57,130.31 C243.02,139.15 264.96,147.62 286,153.86 C398.15,187.1 521.2482,207.7614 625.8282,221.0914" fill="none" id="LeaderboardGateway-to-ILeaderboardService" style="stroke:#181818;stroke-width:1;stroke-dasharray:7,7;"/><polygon fill="#181818" points="631.78,221.85,623.358,216.7441,626.8201,221.2178,622.3465,224.6799,631.78,221.85" style="stroke:#181818;stroke-width:1;"/></g><!--link LeaderboardService to ILeaderboardService--><g class="link" data-entity-1="ent0007" data-entity-2="ent0005" data-link-type="extension" data-source-line="52" id="lnk21"><path codeLine="52" d="M815.71,113.78 C818.85,136.99 821.0042,152.8728 824.6542,179.8228" fill="none" id="LeaderboardService-to-ILeaderboardService" style="stroke:#181818;stroke-width:1;stroke-dasharray:7,7;"/><polygon fill="none" points="827.07,197.66,830.5999,179.0176,818.7085,180.6281,827.07,197.66" style="stroke:#181818;stroke-width:1;"/></g><!--link LeaderboardService to ILeaderboardSnapshotRepository--><g class="link" data-entity-1="ent0007" data-entity-2="ent0006" data-link-type="dependency" data-source-line="53" id="lnk22"><path codeLine="53" d="M840.19,113.94 C857,128.54 879.58,145.2 903,153.86 C964.85,176.72 987.81,145.46 1051,164.32 C1070.99,170.28 1085.984,176.6713 1104.624,186.6813" fill="none" id="LeaderboardService-to-ILeaderboardSnapshotRepository" style="stroke:#181818;stroke-width:1;stroke-dasharray:7,7;"/><polygon fill="#181818" points="1109.91,189.52,1103.8734,181.738,1105.505,187.1544,1100.0885,188.786,1109.91,189.52" style="stroke:#181818;stroke-width:1;"/></g><!--link OperationIngestionHandler to ILeaderboardSnapshotRepository--><g class="link" data-entity-1="ent0008" data-entity-2="ent0006" data-link-type="dependency" data-source-line="54" id="lnk23"><path codeLine="54" d="M1131.98,121.99 C1141.54,142.01 1151.0547,161.9655 1161.6547,184.1655" fill="none" id="OperationIngestionHandler-to-ILeaderboardSnapshotRepository" style="stroke:#181818;stroke-width:1;stroke-dasharray:7,7;"/><polygon fill="#181818" points="1164.24,189.58,1163.9717,179.7348,1162.0856,185.068,1156.7524,183.1818,1164.24,189.58" style="stroke:#181818;stroke-width:1;"/></g><!--link OperationIngestionHandler to Operacion--><g class="link" data-entity-1="ent0008" data-entity-2="ent0012" data-link-type="dependency" data-source-line="55" id="lnk24"><path codeLine="55" d="M1309.76,109.55 C1397.06,122.7 1488.52,141.18 1525,164.32 C1543.86,176.28 1555.4624,191.8383 1565.0024,208.8283" fill="none" id="OperationIngestionHandler-to-Operacion" style="stroke:#181818;stroke-width:1;stroke-dasharray:7,7;"/><polygon fill="#181818" points="1567.94,214.06,1567.0214,204.2541,1565.492,209.7003,1560.0458,208.1709,1567.94,214.06" style="stroke:#181818;stroke-width:1;"/></g><!--link LeaderboardSnapshotRepositoryRedis to ILeaderboardSnapshotRepository--><g class="link" data-entity-1="ent0016" data-entity-2="ent0006" data-link-type="extension" data-source-line="56" id="lnk25"><path codeLine="56" d="M496.52,114.06 C530.45,128.89 574.7,145.74 616,153.86 C710.88,172.5 957.73,138.82 1051,164.32 C1071.52,169.93 1076.4137,170.6722 1095.3637,180.8822" fill="none" id="LeaderboardSnapshotRepositoryRedis-to-ILeaderboardSnapshotRepository" style="stroke:#181818;stroke-width:1;stroke-dasharray:7,7;"/><polygon fill="none" points="1111.21,189.42,1098.2096,175.6001,1092.5177,186.1643,1111.21,189.42" style="stroke:#181818;stroke-width:1;"/></g><!--link HyperliquidConnector to IHyperliquidPort--><g class="link" data-entity-1="ent0018" data-entity-2="ent0010" data-link-type="extension" data-source-line="57" id="lnk26"><path codeLine="57" d="M1861.47,113.96 C1908.03,142.15 1964.5732,176.3859 2011.1232,204.5759" fill="none" id="HyperliquidConnector-to-IHyperliquidPort" style="stroke:#181818;stroke-width:1;stroke-dasharray:7,7;"/><polygon fill="none" points="2026.52,213.9,2014.2312,199.4437,2008.0152,209.7082,2026.52,213.9" style="stroke:#181818;stroke-width:1;"/></g><!--link HyperliquidConnector to HyperliquidMessageParser--><g class="link" data-entity-1="ent0018" data-entity-2="ent0019" data-link-type="dependency" data-source-line="58" id="lnk27"><path codeLine="58" d="M1816,113.78 C1816,144.38 1816,187.24 1816,214.79" fill="none" id="HyperliquidConnector-to-HyperliquidMessageParser" style="stroke:#181818;stroke-width:1;stroke-dasharray:7,7;"/><polygon fill="#181818" points="1816,220.79,1820,211.79,1816,215.79,1812,211.79,1816,220.79" style="stroke:#181818;stroke-width:1;"/></g><!--link HyperliquidConnector to Operacion--><g class="link" data-entity-1="ent0018" data-entity-2="ent0012" data-link-type="dependency" data-source-line="59" id="lnk28"><path codeLine="59" d="M1774.26,113.96 C1730.73,142.67 1668.0385,184.0262 1625.4085,212.1462" fill="none" id="HyperliquidConnector-to-Operacion" style="stroke:#181818;stroke-width:1;stroke-dasharray:7,7;"/><polygon fill="#181818" points="1620.4,215.45,1630.1153,213.8334,1624.5738,212.6969,1625.7103,207.1554,1620.4,215.45" style="stroke:#181818;stroke-width:1;"/></g><!--link LeaderboardEnVivo to Terna--><g class="link" data-entity-1="ent0013" data-entity-2="ent0014" data-link-type="dependency" data-source-line="60" id="lnk29"><path codeLine="60" d="M1436,278.04 C1436,300.3 1436,323.64 1436,348.67" fill="none" id="LeaderboardEnVivo-to-Terna" style="stroke:#181818;stroke-width:1;stroke-dasharray:7,7;"/><polygon fill="#181818" points="1436,354.67,1440,345.67,1436,349.67,1432,345.67,1436,354.67" style="stroke:#181818;stroke-width:1;"/></g><!--link LeaderboardEnVivo to GMN30--><g class="link" data-entity-1="ent0013" data-entity-2="ent0031" data-link-type="association" data-source-line="63" id="lnk32"><path d="M1463.87,207.25 C1483.24,186.6 1511.14,163.67 1542.5,159.09 C1574.77,154.37 2097.23,154.37 2129.5,159.09 C2176.09,165.9 2223.31,192.86 2254.75,214.29" fill="none" id="LeaderboardEnVivo-GMN30" style="stroke:#181818;stroke-width:1;stroke-dasharray:7,7;"/></g><?plantuml-src fLNDRjD04BxxALPmQ29AMebR5LcWqj1AGAkcwWLncAmdyIZExdPsdIg5FX87dg4lnjZvsoHE2yAdjUVlc_dcy_en6GSC4-LpoEmzcP4QGk4nyIkBBi3x3o4m3Sg05zgQFZsWEavoob1fObrWaZZGOnYXUkKOFPe0WQmvOeGYq0HVgH-9agVEfJuZPCW32vnzWe3tC5FTxcX-IjE5Q_MyKLAi77WjjR5rTwYyrMCCxHCrjPH5RiO66f86Rk4qjZucZn4qSAuGfnfPiSQm14Sc80z1exg84FQHfoJVkbrdERmbiurm4D0WzmqudzlGkfFwLsmdvB7RemAYL1-3_VOzZM9zMRT6NFMc2vAvOHJUhyrE2zvqqSupE1S0hj5PJy7oR0dPbc4BCppzXepuqY53bRqL3fLrxTskRgpxMXbDR7CbZu1lAv8DLDOSV81sX727vlKG_VoKff5ZZQDYvSACq5U7Sp1PWHpxRpIGr_OrsKeytr-Qiwc0QXsi-hf6BTFDuA2TfY_i0orBDsp3-KmI5dHNKdOb0zsOwqR2p4w06dShQhG29Ya4AONPnXoYWPsPMvhQo4sEeZoDBfHGR4JT81iGynIASdjE4sGjkew-13j64x_ZH9g1GgRK91aoGnPskTIXP3mI_9wyh8P6qNP6Vg-mTzVnkl8Nd2nV1ERhNg_txkpukMhIi44jiVueNrEmMJBYvdJfBaKW0oVyHNKQGxwWzrBv2bZsB8RKy8lgTDAc7qFIiEQTpiz_y4rVq76oNn__7RpQoEGlkDjjQxTS8n_pm2qPxNDDznAqFwAnZOM6AdkjaIIHQm8LqoWFoWvtvIOxShhIs8dog2R2FPEeum74Y4RD1z7g2txCL5_k8ZLz-bKR2yNBCP1Dq6JLhOH_0000?></g></svg>