<?plantuml 1.2026.1?><svg xmlns="http://www.w3.org/2000/svg" xmlns:xlink="http://www.w3.org/1999/xlink" contentStyleType="text/css" data-diagram-type="CLASS" height="857px" preserveAspectRatio="none" style="width:1265px;height:857px;background:#FFFFFF;" version="1.1" viewBox="0 0 1265 857" width="1265px" zoomAndPan="magnify"><defs/><g><!--cluster presentaci?n--><g class="cluster" data-qualified-name="presentaci.n" data-source-line="5" id="ent0002"><path d="M202.5,6 L306.5381,6 A3.75,3.75 0 0 1 309.0381,8.5 L316.0381,28.2969 L1052.5,28.2969 A2.5,2.5 0 0 1 1055,30.7969 L1055,241.14 A2.5,2.5 0 0 1 1052.5,243.64 L202.5,243.64 A2.5,2.5 0 0 1 200,241.14 L200,8.5 A2.5,2.5 0 0 1 202.5,6" fill="none" style="stroke:#000000;stroke-width:1.5;"/><line style="stroke:#000000;stroke-width:1.5;" x1="200" x2="316.0381" y1="28.2969" y2="28.2969"/><text fill="#000000" font-family="sans-serif" font-size="14" font-weight="bold" lengthAdjust="spacing" textLength="103.0381" x="204" y="20.9951">presentaci&#243;n</text></g><!--cluster modules/catalogo--><g class="cluster" data-qualified-name="modules.catalogo" data-source-line="31" id="ent0006"><path d="M197.5,267.64 L338.377,267.64 A3.75,3.75 0 0 1 340.877,270.14 L347.877,289.9369 L484.5,289.9369 A2.5,2.5 0 0 1 487,292.4369 L487,519.07 A2.5,2.5 0 0 1 484.5,521.57 L197.5,521.57 A2.5,2.5 0 0 1 195,519.07 L195,270.14 A2.5,2.5 0 0 1 197.5,267.64" fill="none" style="stroke:#000000;stroke-width:1.5;"/><line style="stroke:#000000;stroke-width:1.5;" x1="195" x2="347.877" y1="289.9369" y2="289.9369"/><text fill="#000000" font-family="sans-serif" font-size="14" font-weight="bold" lengthAdjust="spacing" textLength="139.877" x="199" y="282.6351">modules/catalogo</text></g><!--cluster modules/direccion-detalle--><g class="cluster" data-qualified-name="modules.direccion-detalle" data-source-line="45" id="ent0008"><path d="M788.5,292.08 L994.1953,292.08 A3.75,3.75 0 0 1 996.6953,294.58 L1003.6953,314.3769 L1025.5,314.3769 A2.5,2.5 0 0 1 1028,316.8769 L1028,494.63 A2.5,2.5 0 0 1 1025.5,497.13 L788.5,497.13 A2.5,2.5 0 0 1 786,494.63 L786,294.58 A2.5,2.5 0 0 1 788.5,292.08" fill="none" style="stroke:#000000;stroke-width:1.5;"/><line style="stroke:#000000;stroke-width:1.5;" x1="786" x2="1003.6953" y1="314.3769" y2="314.3769"/><text fill="#000000" font-family="sans-serif" font-size="14" font-weight="bold" lengthAdjust="spacing" textLength="204.6953" x="790" y="307.0751">modules/direccion-detalle</text></g><!--cluster modules/meta--><g class="cluster" data-qualified-name="modules.meta" data-source-line="56" id="ent0010"><path d="M595.5,545.57 L708.6572,545.57 A3.75,3.75 0 0 1 711.1572,548.07 L718.1572,567.8669 L870.5,567.8669 A2.5,2.5 0 0 1 873,570.3669 L873,715.53 A2.5,2.5 0 0 1 870.5,718.03 L595.5,718.03 A2.5,2.5 0 0 1 593,715.53 L593,548.07 A2.5,2.5 0 0 1 595.5,545.57" fill="none" style="stroke:#000000;stroke-width:1.5;"/><line style="stroke:#000000;stroke-width:1.5;" x1="593" x2="718.1572" y1="567.8669" y2="567.8669"/><text fill="#000000" font-family="sans-serif" font-size="14" font-weight="bold" lengthAdjust="spacing" textLength="112.1572" x="597" y="560.5651">modules/meta</text></g><!--cluster domain--><g class="cluster" data-qualified-name="domain" data-source-line="65" id="ent0012"><path d="M8.5,561.87 L67.9404,561.87 A3.75,3.75 0 0 1 70.4404,564.37 L77.4404,584.1669 L225.5,584.1669 A2.5,2.5 0 0 1 228,586.6669 L228,848.09 A2.5,2.5 0 0 1 225.5,850.59 L8.5,850.59 A2.5,2.5 0 0 1 6,848.09 L6,564.37 A2.5,2.5 0 0 1 8.5,561.87" fill="none" style="stroke:#000000;stroke-width:1.5;"/><line style="stroke:#000000;stroke-width:1.5;" x1="6" x2="77.4404" y1="584.1669" y2="584.1669"/><text fill="#000000" font-family="sans-serif" font-size="14" font-weight="bold" lengthAdjust="spacing" textLength="58.4404" x="10" y="576.8651">domain</text></g><!--cluster persistence--><g class="cluster" data-qualified-name="persistence" data-source-line="75" id="ent0015"><path d="M264.5,578.17 L357.334,578.17 A3.75,3.75 0 0 1 359.834,580.67 L366.834,600.4669 L566.5,600.4669 A2.5,2.5 0 0 1 569,602.9669 L569,682.93 A2.5,2.5 0 0 1 566.5,685.43 L264.5,685.43 A2.5,2.5 0 0 1 262,682.93 L262,580.67 A2.5,2.5 0 0 1 264.5,578.17" fill="none" style="stroke:#000000;stroke-width:1.5;"/><line style="stroke:#000000;stroke-width:1.5;" x1="262" x2="366.834" y1="600.4669" y2="600.4669"/><text fill="#000000" font-family="sans-serif" font-size="14" font-weight="bold" lengthAdjust="spacing" textLength="91.834" x="266" y="593.1651">persistence</text></g><!--cluster sources--><g class="cluster" data-qualified-name="sources" data-source-line="80" id="ent0018"><path d="M899.5,578.17 L961.4492,578.17 A3.75,3.75 0 0 1 963.9492,580.67 L970.9492,600.4669 L1064.5,600.4669 A2.5,2.5 0 0 1 1067,602.9669 L1067,682.93 A2.5,2.5 0 0 1 1064.5,685.43 L899.5,685.43 A2.5,2.5 0 0 1 897,682.93 L897,580.67 A2.5,2.5 0 0 1 899.5,578.17" fill="none" style="stroke:#000000;stroke-width:1.5;"/><line style="stroke:#000000;stroke-width:1.5;" x1="897" x2="970.9492" y1="600.4669" y2="600.4669"/><text fill="#000000" font-family="sans-serif" font-size="14" font-weight="bold" lengthAdjust="spacing" textLength="60.9492" x="901" y="593.1651">sources</text></g><!--class registerCatalogoRoutes--><g class="entity" data-qualified-name="presentaci.n.registerCatalogoRoutes" data-source-line="6" id="ent0003"><rect fill="#F1F1F1" height="186.6406" rx="2.5" ry="2.5" style="stroke:#181818;stroke-width:0.5;" width="271.6973" x="216.15" y="41"/><text fill="#000000" font-family="sans-serif" font-size="12" font-style="italic" lengthAdjust="spacing" textLength="66.0117" x="318.9928" y="57.1387">&#171;gateway&#187;</text><text fill="#000000" font-family="sans-serif" font-size="14" lengthAdjust="spacing" textLength="165.1904" x="269.4034" y="72.9639">registerCatalogoRoutes</text><line style="stroke:#181818;stroke-width:0.5;" x1="217.15" x2="486.8473" y1="81.2656" y2="81.2656"/><text fill="#000000" font-family="sans-serif" font-size="14" lengthAdjust="spacing" textLength="152.9951" x="222.15" y="98.2607">+POST /api/entidades</text><text fill="#000000" font-family="sans-serif" font-size="14" lengthAdjust="spacing" textLength="144.3408" x="222.15" y="114.5576">+GET /api/entidades</text><text fill="#000000" font-family="sans-serif" font-size="14" lengthAdjust="spacing" textLength="185.1787" x="222.15" y="130.8545">+PATCH /api/entidades/:id</text><text fill="#000000" font-family="sans-serif" font-size="14" lengthAdjust="spacing" textLength="191.9736" x="222.15" y="147.1514">+DELETE /api/entidades/:id</text><text fill="#000000" font-family="sans-serif" font-size="14" lengthAdjust="spacing" textLength="259.6973" x="222.15" y="163.4482">+POST /api/entidades/:id/direcciones</text><text fill="#000000" font-family="sans-serif" font-size="14" lengthAdjust="spacing" textLength="251.043" x="222.15" y="179.7451">+GET /api/entidades/:id/direcciones</text><text fill="#000000" font-family="sans-serif" font-size="14" lengthAdjust="spacing" textLength="202.624" x="222.15" y="196.042">+DELETE /api/direcciones/:id</text><text fill="#000000" font-family="sans-serif" font-size="14" lengthAdjust="spacing" textLength="225.1348" x="222.15" y="212.3389">+POST /api/direcciones/resolver</text><line style="stroke:#181818;stroke-width:0.5;" x1="217.15" x2="486.8473" y1="219.6406" y2="219.6406"/></g><!--class registerDireccionDetalleRoutes--><g class="entity" data-qualified-name="presentaci.n.registerDireccionDetalleRoutes" data-source-line="16" id="ent0004"><rect fill="#F1F1F1" height="121.4531" rx="2.5" ry="2.5" style="stroke:#181818;stroke-width:0.5;" width="264.3691" x="774.82" y="73.59"/><text fill="#000000" font-family="sans-serif" font-size="12" font-style="italic" lengthAdjust="spacing" textLength="66.0117" x="873.9987" y="89.7287">&#171;gateway&#187;</text><text fill="#000000" font-family="sans-serif" font-size="14" lengthAdjust="spacing" textLength="218.4766" x="797.7663" y="105.5539">registerDireccionDetalleRoutes</text><line style="stroke:#181818;stroke-width:0.5;" x1="775.82" x2="1038.1891" y1="113.8556" y2="113.8556"/><text fill="#000000" font-family="sans-serif" font-size="14" lengthAdjust="spacing" textLength="231.4854" x="780.82" y="130.8507">+GET /api/direcciones/:addr/spot</text><text fill="#000000" font-family="sans-serif" font-size="14" lengthAdjust="spacing" textLength="240.6865" x="780.82" y="147.1476">+GET /api/direcciones/:addr/perps</text><text fill="#000000" font-family="sans-serif" font-size="14" lengthAdjust="spacing" textLength="252.3691" x="780.82" y="163.4445">+GET /api/direcciones/:addr/staking</text><text fill="#000000" font-family="sans-serif" font-size="14" lengthAdjust="spacing" textLength="225.1416" x="780.82" y="179.7414">+GET /api/direcciones/:addr/fills</text><line style="stroke:#181818;stroke-width:0.5;" x1="775.82" x2="1038.1891" y1="187.0431" y2="187.0431"/></g><!--class registerMetaRoutes--><g class="entity" data-qualified-name="presentaci.n.registerMetaRoutes" data-source-line="22" id="ent0005"><rect fill="#F1F1F1" height="137.75" rx="2.5" ry="2.5" style="stroke:#181818;stroke-width:0.5;" width="216.9824" x="522.51" y="65.44"/><text fill="#000000" font-family="sans-serif" font-size="12" font-style="italic" lengthAdjust="spacing" textLength="66.0117" x="597.9954" y="81.5787">&#171;gateway&#187;</text><text fill="#000000" font-family="sans-serif" font-size="14" lengthAdjust="spacing" textLength="137.6211" x="562.1907" y="97.4039">registerMetaRoutes</text><line style="stroke:#181818;stroke-width:0.5;" x1="523.51" x2="738.4924" y1="105.7056" y2="105.7056"/><text fill="#000000" font-family="sans-serif" font-size="14" lengthAdjust="spacing" textLength="163.1943" x="528.51" y="122.7007">+GET /api/meta/tokens</text><text fill="#000000" font-family="sans-serif" font-size="14" lengthAdjust="spacing" textLength="186.5254" x="528.51" y="138.9976">+GET /api/meta/perp-dexs</text><text fill="#000000" font-family="sans-serif" font-size="14" lengthAdjust="spacing" textLength="166.0859" x="528.51" y="155.2945">+GET /api/meta/refresh</text><text fill="#000000" font-family="sans-serif" font-size="14" lengthAdjust="spacing" textLength="204.9824" x="528.51" y="171.5914">+GET /api/meta/top-volumen</text><text fill="#000000" font-family="sans-serif" font-size="14" lengthAdjust="spacing" textLength="170.085" x="528.51" y="187.8882">+GET /api/meta/candles</text><line style="stroke:#181818;stroke-width:0.5;" x1="523.51" x2="738.4924" y1="195.19" y2="195.19"/></g><!--class CatalogoService--><g class="entity" data-qualified-name="modules.catalogo.CatalogoService" data-source-line="32" id="ent0007"><rect fill="#F1F1F1" height="202.9375" rx="2.5" ry="2.5" style="stroke:#181818;stroke-width:0.5;" width="259.0781" x="211.46" y="302.64"/><text fill="#000000" font-family="sans-serif" font-size="12" font-style="italic" lengthAdjust="spacing" textLength="57.668" x="312.1651" y="318.7787">&#171;service&#187;</text><text fill="#000000" font-family="sans-serif" font-size="14" lengthAdjust="spacing" textLength="114.0713" x="283.9634" y="334.6039">CatalogoService</text><line style="stroke:#181818;stroke-width:0.5;" x1="212.46" x2="469.5381" y1="342.9056" y2="342.9056"/><text fill="#000000" font-family="sans-serif" font-size="14" lengthAdjust="spacing" textLength="56.8271" x="217.46" y="359.9007">-db : DB</text><line style="stroke:#181818;stroke-width:0.5;" x1="212.46" x2="469.5381" y1="367.2025" y2="367.2025"/><text fill="#000000" font-family="sans-serif" font-size="14" lengthAdjust="spacing" textLength="166.8379" x="217.46" y="384.1976">+crearEntidad(nombre)</text><text fill="#000000" font-family="sans-serif" font-size="14" lengthAdjust="spacing" textLength="166.8584" x="217.46" y="400.4945">+listarEntidades(filtro?)</text><text fill="#000000" font-family="sans-serif" font-size="14" lengthAdjust="spacing" textLength="226.5361" x="217.46" y="416.7914">+renombrarEntidad(id, nombre)</text><text fill="#000000" font-family="sans-serif" font-size="14" lengthAdjust="spacing" textLength="146.0088" x="217.46" y="433.0882">+eliminarEntidad(id)</text><text fill="#000000" font-family="sans-serif" font-size="14" lengthAdjust="spacing" textLength="247.0781" x="217.46" y="449.3851">+aniadirDireccion(entidadId, valor)</text><text fill="#000000" font-family="sans-serif" font-size="14" lengthAdjust="spacing" textLength="205.4541" x="217.46" y="465.682">+listarDirecciones(entidadId)</text><text fill="#000000" font-family="sans-serif" font-size="14" lengthAdjust="spacing" textLength="158.3203" x="217.46" y="481.9789">+eliminarDireccion(id)</text><text fill="#000000" font-family="sans-serif" font-size="14" lengthAdjust="spacing" textLength="211.4219" x="217.46" y="498.2757">+resolverDirecciones(addrs[])</text></g><!--class AddressDetailService--><g class="entity" data-qualified-name="modules.direccion-detalle.AddressDetailService" data-source-line="46" id="ent0009"><rect fill="#F1F1F1" height="154.0469" rx="2.5" ry="2.5" style="stroke:#181818;stroke-width:0.5;" width="210.3721" x="801.81" y="327.08"/><text fill="#000000" font-family="sans-serif" font-size="12" font-style="italic" lengthAdjust="spacing" textLength="57.668" x="878.1621" y="343.2187">&#171;service&#187;</text><text fill="#000000" font-family="sans-serif" font-size="14" lengthAdjust="spacing" textLength="149.29" x="832.351" y="359.0439">AddressDetailService</text><line style="stroke:#181818;stroke-width:0.5;" x1="802.81" x2="1011.1821" y1="367.3456" y2="367.3456"/><text fill="#000000" font-family="sans-serif" font-size="14" lengthAdjust="spacing" textLength="198.3721" x="807.81" y="384.3407">-source : IHyperliquidSource</text><text fill="#000000" font-family="sans-serif" font-size="14" lengthAdjust="spacing" textLength="141.4902" x="807.81" y="400.6376">-meta : MetaService</text><line style="stroke:#181818;stroke-width:0.5;" x1="802.81" x2="1011.1821" y1="407.9394" y2="407.9394"/><text fill="#000000" font-family="sans-serif" font-size="14" lengthAdjust="spacing" textLength="132.7813" x="807.81" y="424.9345">+getSpot(address)</text><text fill="#000000" font-family="sans-serif" font-size="14" lengthAdjust="spacing" textLength="139.9453" x="807.81" y="441.2314">+getPerps(address)</text><text fill="#000000" font-family="sans-serif" font-size="14" lengthAdjust="spacing" textLength="153.665" x="807.81" y="457.5282">+getStaking(address)</text><text fill="#000000" font-family="sans-serif" font-size="14" lengthAdjust="spacing" textLength="127.9688" x="807.81" y="473.8251">+getFills(address)</text></g><!--class MetaService--><g class="entity" data-qualified-name="modules.meta.MetaService" data-source-line="57" id="ent0011"><rect fill="#F1F1F1" height="121.4531" rx="2.5" ry="2.5" style="stroke:#181818;stroke-width:0.5;" width="248.7285" x="608.64" y="580.57"/><text fill="#000000" font-family="sans-serif" font-size="12" font-style="italic" lengthAdjust="spacing" textLength="57.668" x="704.1703" y="596.7087">&#171;service&#187;</text><text fill="#000000" font-family="sans-serif" font-size="14" lengthAdjust="spacing" textLength="86.502" x="689.7533" y="612.5339">MetaService</text><line style="stroke:#181818;stroke-width:0.5;" x1="609.64" x2="856.3685" y1="620.8356" y2="620.8356"/><line style="stroke:#181818;stroke-width:0.5;" x1="609.64" x2="856.3685" y1="628.8356" y2="628.8356"/><text fill="#000000" font-family="sans-serif" font-size="14" lengthAdjust="spacing" textLength="99.4082" x="614.64" y="645.8307">+getCatalog()</text><text fill="#000000" font-family="sans-serif" font-size="14" lengthAdjust="spacing" textLength="72.4883" x="614.64" y="662.1276">+refresh()</text><text fill="#000000" font-family="sans-serif" font-size="14" lengthAdjust="spacing" textLength="236.7285" x="614.64" y="678.4245">+resolveToken(mercado, display)</text><text fill="#000000" font-family="sans-serif" font-size="14" lengthAdjust="spacing" textLength="172.5938" x="614.64" y="694.7214">+getMidsKeyToDisplay()</text></g><!--class Entidad--><g class="entity" data-qualified-name="domain.Entidad" data-source-line="66" id="ent0013"><rect fill="#F1F1F1" height="88.8594" rx="2.5" ry="2.5" style="stroke:#181818;stroke-width:0.5;" width="131.8682" x="40.07" y="596.87"/><text fill="#000000" font-family="sans-serif" font-size="12" font-style="italic" lengthAdjust="spacing" textLength="49.5176" x="81.2453" y="613.0087">&#171;entity&#187;</text><text fill="#000000" font-family="sans-serif" font-size="14" lengthAdjust="spacing" textLength="53.4502" x="79.279" y="628.8339">Entidad</text><line style="stroke:#181818;stroke-width:0.5;" x1="41.07" x2="170.9382" y1="637.1356" y2="637.1356"/><text fill="#000000" font-family="sans-serif" font-size="14" lengthAdjust="spacing" textLength="73.5273" x="46.07" y="654.1307">+id : UUID</text><text fill="#000000" font-family="sans-serif" font-size="14" lengthAdjust="spacing" textLength="119.8682" x="46.07" y="670.4276">+nombre : string</text><line style="stroke:#181818;stroke-width:0.5;" x1="41.07" x2="170.9382" y1="677.7294" y2="677.7294"/></g><!--class Direccion--><g class="entity" data-qualified-name="domain.Direccion" data-source-line="70" id="ent0014"><rect fill="#F1F1F1" height="72.5625" rx="2.5" ry="2.5" style="stroke:#181818;stroke-width:0.5;" width="190.4727" x="21.76" y="762.03"/><text fill="#000000" font-family="sans-serif" font-size="12" font-style="italic" lengthAdjust="spacing" textLength="47.4609" x="93.2659" y="778.1687">&#171;value&#187;</text><text fill="#000000" font-family="sans-serif" font-size="14" lengthAdjust="spacing" textLength="65.7617" x="84.1155" y="793.9939">Direccion</text><line style="stroke:#181818;stroke-width:0.5;" x1="22.76" x2="211.2327" y1="802.2956" y2="802.2956"/><text fill="#000000" font-family="sans-serif" font-size="14" lengthAdjust="spacing" textLength="178.4727" x="27.76" y="819.2907">+valor : "0x[a-f0-9]{40}"</text><line style="stroke:#181818;stroke-width:0.5;" x1="22.76" x2="211.2327" y1="826.5925" y2="826.5925"/></g><!--class TENT--><g class="entity" data-qualified-name="persistence.TENT" data-source-line="76" id="ent0016"><rect fill="#ECEFF1" height="56.2656" rx="2.5" ry="2.5" style="stroke:#181818;stroke-width:0.5;" width="114.999" x="438.5" y="613.17"/><text fill="#000000" font-family="sans-serif" font-size="12" font-style="italic" lengthAdjust="spacing" textLength="45.0762" x="473.4614" y="629.3087">&#171;table&#187;</text><text fill="#000000" font-family="sans-serif" font-size="14" lengthAdjust="spacing" textLength="108.999" x="441.5" y="645.1339">tabla entidades</text><line style="stroke:#181818;stroke-width:0.5;" x1="439.5" x2="552.499" y1="653.4356" y2="653.4356"/><line style="stroke:#181818;stroke-width:0.5;" x1="439.5" x2="552.499" y1="661.4356" y2="661.4356"/></g><!--class TDIR--><g class="entity" data-qualified-name="persistence.TDIR" data-source-line="77" id="ent0017"><rect fill="#ECEFF1" height="56.2656" rx="2.5" ry="2.5" style="stroke:#181818;stroke-width:0.5;" width="125.6494" x="278.18" y="613.17"/><text fill="#000000" font-family="sans-serif" font-size="12" font-style="italic" lengthAdjust="spacing" textLength="45.0762" x="318.4666" y="629.3087">&#171;table&#187;</text><text fill="#000000" font-family="sans-serif" font-size="14" lengthAdjust="spacing" textLength="119.6494" x="281.18" y="645.1339">tabla direcciones</text><line style="stroke:#181818;stroke-width:0.5;" x1="279.18" x2="402.8294" y1="653.4356" y2="653.4356"/><line style="stroke:#181818;stroke-width:0.5;" x1="279.18" x2="402.8294" y1="661.4356" y2="661.4356"/></g><!--class IHyperliquidSource--><g class="entity" data-qualified-name="sources.IHyperliquidSource" data-source-line="81" id="ent0019"><rect fill="#F1F1F1" height="56.2656" rx="2.5" ry="2.5" style="stroke:#181818;stroke-width:0.5;" width="138.9043" x="912.55" y="613.17"/><text fill="#000000" font-family="sans-serif" font-size="12" font-style="italic" lengthAdjust="spacing" textLength="39.2813" x="962.3615" y="629.3087">&#171;port&#187;</text><text fill="#000000" font-family="sans-serif" font-size="14" font-style="italic" lengthAdjust="spacing" textLength="132.9043" x="915.55" y="645.1339">IHyperliquidSource</text><line style="stroke:#181818;stroke-width:0.5;" x1="913.55" x2="1050.4543" y1="653.4356" y2="653.4356"/><line style="stroke:#181818;stroke-width:0.5;" x1="913.55" x2="1050.4543" y1="661.4356" y2="661.4356"/></g><g class="entity" data-qualified-name="GMN30" data-source-line="96" id="ent0031"><path d="M1047.3,368.84 L1047.3,400.11 L1012.22,404.11 L1047.3,408.11 L1047.3,439.3713 A0,0 0 0 0 1047.3,439.3713 L1258.7043,439.3713 A0,0 0 0 0 1258.7043,439.3713 L1258.7043,378.84 L1248.7043,368.84 L1047.3,368.84 A0,0 0 0 0 1047.3,368.84" fill="#FEFFDD" style="stroke:#181818;stroke-width:0.5;"/><path d="M1248.7043,368.84 L1248.7043,378.84 L1258.7043,378.84 L1248.7043,368.84" fill="#FEFFDD" style="stroke:#181818;stroke-width:0.5;"/><text fill="#000000" font-family="sans-serif" font-size="13" lengthAdjust="spacing" textLength="174.3257" x="1053.3" y="385.9069">Flujo alternativo de CU-07:</text><text fill="#000000" font-family="sans-serif" font-size="13" lengthAdjust="spacing" textLength="137.2744" x="1053.3" y="401.0397">detalle global de una</text><text fill="#000000" font-family="sans-serif" font-size="13" lengthAdjust="spacing" textLength="171.0249" x="1053.3" y="416.1725">direcci&#243;n a partir de la L1.</text><text fill="#000000" font-family="sans-serif" font-size="13" lengthAdjust="spacing" textLength="190.4043" x="1053.3" y="431.3053">Lectura pura, sin tocar la BD.</text></g><!--link registerCatalogoRoutes to CatalogoService--><g class="link" data-entity-1="ent0003" data-entity-2="ent0007" data-link-type="dependency" data-source-line="84" id="lnk20"><path codeLine="84" d="M348.2,227.85 C347.21,251.89 346.3854,271.905 345.3854,296.335" fill="none" id="registerCatalogoRoutes-to-CatalogoService" style="stroke:#181818;stroke-width:1;stroke-dasharray:7,7;"/><polygon fill="#181818" points="345.14,302.33,349.5047,293.5011,345.3445,297.3342,341.5114,293.1739,345.14,302.33" style="stroke:#181818;stroke-width:1;"/></g><!--link registerDireccionDetalleRoutes to AddressDetailService--><g class="link" data-entity-1="ent0004" data-entity-2="ent0009" data-link-type="dependency" data-source-line="85" id="lnk21"><path codeLine="85" d="M907,195.41 C907,234.27 907,279.19 907,320.89" fill="none" id="registerDireccionDetalleRoutes-to-AddressDetailService" style="stroke:#181818;stroke-width:1;stroke-dasharray:7,7;"/><polygon fill="#181818" points="907,326.89,911,317.89,907,321.89,903,317.89,907,326.89" style="stroke:#181818;stroke-width:1;"/></g><!--link registerMetaRoutes to MetaService--><g class="link" data-entity-1="ent0005" data-entity-2="ent0011" data-link-type="dependency" data-source-line="86" id="lnk22"><path codeLine="86" d="M644.81,203.68 C664.89,303.11 700.642,480.1288 719.712,574.5388" fill="none" id="registerMetaRoutes-to-MetaService" style="stroke:#181818;stroke-width:1;stroke-dasharray:7,7;"/><polygon fill="#181818" points="720.9,580.42,723.0389,570.8062,719.91,575.519,715.1973,572.3901,720.9,580.42" style="stroke:#181818;stroke-width:1;"/></g><!--link CatalogoService to TENT--><g class="link" data-entity-1="ent0007" data-entity-2="ent0016" data-link-type="dependency" data-source-line="87" id="lnk23"><path codeLine="87" d="M407.41,505.87 C433.13,544.9 457.2081,581.4403 474.6081,607.8403" fill="none" id="CatalogoService-to-TENT" style="stroke:#181818;stroke-width:1;stroke-dasharray:7,7;"/><polygon fill="#181818" points="477.91,612.85,476.297,603.1341,475.1584,608.6752,469.6173,607.5366,477.91,612.85" style="stroke:#181818;stroke-width:1;"/></g><!--link CatalogoService to TDIR--><g class="link" data-entity-1="ent0007" data-entity-2="ent0017" data-link-type="dependency" data-source-line="88" id="lnk24"><path codeLine="88" d="M341,505.87 C341,544.9 341,580.45 341,606.85" fill="none" id="CatalogoService-to-TDIR" style="stroke:#181818;stroke-width:1;stroke-dasharray:7,7;"/><polygon fill="#181818" points="341,612.85,345,603.85,341,607.85,337,603.85,341,612.85" style="stroke:#181818;stroke-width:1;"/></g><!--link CatalogoService to Entidad--><g class="link" data-entity-1="ent0007" data-entity-2="ent0013" data-link-type="dependency" data-source-line="89" id="lnk25"><path codeLine="89" d="M231.18,505.8 C220.19,516.41 209.29,527.13 199,537.57 C180.43,556.43 164.6441,573.5626 148.1141,592.0926" fill="none" id="CatalogoService-to-Entidad" style="stroke:#181818;stroke-width:1;stroke-dasharray:7,7;"/><polygon fill="#181818" points="144.12,596.57,153.0961,592.5167,147.4484,592.8388,147.1263,587.1912,144.12,596.57" style="stroke:#181818;stroke-width:1;"/></g><!--link CatalogoService to Direccion--><g class="link" data-entity-1="ent0007" data-entity-2="ent0014" data-link-type="dependency" data-source-line="90" id="lnk26"><path codeLine="90" d="M278.62,505.76 C272.76,516.37 267.1,527.1 262,537.57 C222.64,618.31 238.22,650.89 189,726.03 C180.61,738.83 173.884,746.9489 163.014,757.6589" fill="none" id="CatalogoService-to-Direccion" style="stroke:#181818;stroke-width:1;stroke-dasharray:7,7;"/><polygon fill="#181818" points="158.74,761.87,167.9583,758.4027,162.3016,758.3608,162.3436,752.7041,158.74,761.87" style="stroke:#181818;stroke-width:1;"/></g><!--reverse link Entidad to Direccion--><g class="link" data-entity-1="ent0013" data-entity-2="ent0014" data-link-type="aggregation" data-source-line="91" id="lnk27"><path codeLine="91" d="M109.9411,697.8598 C111.6411,721.7698 112.87,739.07 114.47,761.61" fill="none" id="Entidad-backto-Direccion" style="stroke:#181818;stroke-width:1;"/><polygon fill="none" points="109.09,685.89,105.5256,692.1586,109.9411,697.8598,113.5055,691.5912,109.09,685.89" style="stroke:#181818;stroke-width:1;"/><text fill="#000000" font-family="sans-serif" font-size="13" lengthAdjust="spacing" textLength="8.271" x="100.9708" y="705.9434">1</text><text fill="#000000" font-family="sans-serif" font-size="13" lengthAdjust="spacing" textLength="6.5" x="107.5631" y="751.0912">*</text></g><!--link AddressDetailService to IHyperliquidSource--><g class="link" data-entity-1="ent0009" data-entity-2="ent0019" data-link-type="dependency" data-source-line="92" id="lnk28"><path codeLine="92" d="M931.35,481.47 C945.72,526.54 961.2172,575.1436 971.4272,607.1636" fill="none" id="AddressDetailService-to-IHyperliquidSource" style="stroke:#181818;stroke-width:1;stroke-dasharray:7,7;"/><polygon fill="#181818" points="973.25,612.88,974.3268,603.0902,971.731,608.1163,966.7049,605.5205,973.25,612.88" style="stroke:#181818;stroke-width:1;"/></g><!--link AddressDetailService to MetaService--><g class="link" data-entity-1="ent0009" data-entity-2="ent0011" data-link-type="dependency" data-source-line="93" id="lnk29"><path codeLine="93" d="M850.51,481.47 C826.79,513.52 803.1778,545.436 780.9378,575.506" fill="none" id="AddressDetailService-to-MetaService" style="stroke:#181818;stroke-width:1;stroke-dasharray:7,7;"/><polygon fill="#181818" points="777.37,580.33,785.9377,575.4726,780.3432,576.31,779.5058,570.7155,777.37,580.33" style="stroke:#181818;stroke-width:1;"/></g><?plantuml-src ZLRHJjim57tFLrnbBsMZj4YJfY7KYP6oLOCDhUK9xS6DRuE7QsUsK-WclcgVi1_RTT8MfoI5F5HLpl7rkTVdNiVU2fKpm-PWRnZNTq9bC6FIOcGtI2gPjIVE6J4j78vIhSRYDq8_kX4S8HKcbHX5EKjlMOOGvmOjAiTIyU-lYk5F1FIKCS1W9gn3SyeSaphJtpK5j71yd367Tsmv6Ape_da3bz_64-YnNFGedk2CemtGJyCTuEN9vFJp5jmx4ZoW9CFpuMIuczEWm3DwN1XCKw7LCufsaCFj0qQhW9135TPoWQOaFZGKE5cJ4wHAItocq1lXDI6CSzEpkNOlO-PeSll2e8wHkxANaMT2IjkQwGKb-DBiviJjENsBohR2Feikn_jsXi4PrVzcnmPvTw5bCKVLoacPuXBNMJq4tJFNl22465MBr1jetJXZD0kH8gLigt-rbBl0ft04oSTW_zGWCyFAbnsbvrE3Um4igPWR76s7YkwC_X1I39RB7gC8lWzF8w4KSw52LeWo9HWTySQVdLMhZ2ZMWb8pJqKbZuvuP3Vj-1YqlkUwMy90tbds-iVUZXFOE97iK3PH_IXEA09QwnjCoEVEm-h247m4eyzBSfWKlmh1n-NBWEMjGHnlwLN088iCtPXwiLHE--xLeKlVV2tOkEgs5lJCjrSTQww7LrSlGI2q9VDoXvLfE_KpAPkeqt1E4z-WdJcQb2waVU32vf8jjrHV26w_u7AYamhkD2ddUix4rXMqiYNfzLvosxD2S3g0gwjH4hohF4xlBLs1gwaLZgADhoWeURZOBa7fQreUz--lMNVMxxx_yUTj_o5kK4pUi7wigNJBRR5ZKybWSx74m2nCXbydjAU7_9wlXgV3ixF3fwk2cLgjIqRV6zQ5GYh3shK8eMZKpXYTyrC3KwHS6pSO-00jD_p1mM1xTaNFt5L-ILEFHGsJttF3hjaUanxtnMe6g1gDmCegZTX6TBGsL7mOW-vs8NuT1sZZbF016WP1ApTCBLBQ8HYHtJZGi-OA0Pp9ugS69gbCYZcnq41VQgTNtVwx8q9NymmogQTCUgXGpB-lPDDd6p2WRpydZ0V9GUU71uIVO-eAGn3zx8CL2fnEcV64Zyb1X8g3LnVz1m00?></g></svg>