<svg xmlns="http://www.w3.org/2000/svg" xmlns:xlink="http://www.w3.org/1999/xlink" contentStyleType="text/css" data-diagram-type="CLASS" height="444px" preserveAspectRatio="none" style="width:2574px;height:444px;background:#FFFFFF;" version="1.1" viewBox="0 0 2574 444" width="2574px" zoomAndPan="magnify"><?plantuml 1.2026.3beta6?><defs/><g><!--cluster application/evaluacion--><g class="cluster" data-qualified-name="application.evaluacion" data-source-line="5" id="ent0002"><path d="M8.5,6 L187.4873,6 A3.75,3.75 0 0 1 189.9873,8.5 L196.9873,28.2969 L417.5,28.2969 A2.5,2.5 0 0 1 420,30.7969 L420,274.76 A2.5,2.5 0 0 1 417.5,277.26 L8.5,277.26 A2.5,2.5 0 0 1 6,274.76 L6,8.5 A2.5,2.5 0 0 1 8.5,6" fill="none" style="stroke:#000000;stroke-width:1.5;"/><line style="stroke:#000000;stroke-width:1.5;" x1="6" x2="196.9873" y1="28.2969" y2="28.2969"/><text fill="#000000" font-family="sans-serif" font-size="14" font-weight="700" lengthAdjust="spacing" textLength="177.9873" x="10" y="20.9951">application/evaluacion</text></g><!--cluster application/notificacion--><g class="cluster" data-qualified-name="application.notificacion" data-source-line="14" id="ent0005"><path d="M1377.5,6 L1563.918,6 A3.75,3.75 0 0 1 1566.418,8.5 L1573.418,28.2969 L2285.5,28.2969 A2.5,2.5 0 0 1 2288,30.7969 L2288,275.92 A2.5,2.5 0 0 1 2285.5,278.42 L1377.5,278.42 A2.5,2.5 0 0 1 1375,275.92 L1375,8.5 A2.5,2.5 0 0 1 1377.5,6" fill="none" style="stroke:#000000;stroke-width:1.5;"/><line style="stroke:#000000;stroke-width:1.5;" x1="1375" x2="1573.418" y1="28.2969" y2="28.2969"/><text fill="#000000" font-family="sans-serif" font-size="14" font-weight="700" lengthAdjust="spacing" textLength="185.418" x="1379" y="20.9951">application/notificacion</text></g><!--cluster domain/notificacion--><g class="cluster" data-qualified-name="domain.notificacion" data-source-line="31" id="ent0013"><path d="M2314.5,154.86 L2471.4482,154.86 A3.75,3.75 0 0 1 2473.9482,157.36 L2480.9482,177.1569 L2556.5,177.1569 A2.5,2.5 0 0 1 2559,179.6569 L2559,427.11 A2.5,2.5 0 0 1 2556.5,429.61 L2314.5,429.61 A2.5,2.5 0 0 1 2312,427.11 L2312,157.36 A2.5,2.5 0 0 1 2314.5,154.86" fill="none" style="stroke:#000000;stroke-width:1.5;"/><line style="stroke:#000000;stroke-width:1.5;" x1="2312" x2="2480.9482" y1="177.1569" y2="177.1569"/><text fill="#000000" font-family="sans-serif" font-size="14" font-weight="700" lengthAdjust="spacing" textLength="155.9482" x="2316" y="169.8551">domain/notificacion</text></g><!--cluster infrastructure/persistence/postgres--><g class="cluster" data-qualified-name="infrastructure.persistence.postgres" data-source-line="41" id="ent0017"><path d="M446.5,14.15 L729.4414,14.15 A3.75,3.75 0 0 1 731.9414,16.65 L738.9414,36.4469 L738.5,36.4469 A2.5,2.5 0 0 1 741,38.9469 L741,118.91 A2.5,2.5 0 0 1 738.5,121.41 L446.5,121.41 A2.5,2.5 0 0 1 444,118.91 L444,16.65 A2.5,2.5 0 0 1 446.5,14.15" fill="none" style="stroke:#000000;stroke-width:1.5;"/><line style="stroke:#000000;stroke-width:1.5;" x1="444" x2="738.9414" y1="36.4469" y2="36.4469"/><text fill="#000000" font-family="sans-serif" font-size="14" font-weight="700" lengthAdjust="spacing" textLength="281.9414" x="448" y="29.1451">infrastructure/persistence/postgres</text></g><!--cluster infrastructure/persistence/redis--><g class="cluster" data-qualified-name="infrastructure.persistence.redis" data-source-line="44" id="ent0019"><path d="M767.5,14.15 L1020.5752,14.15 A3.75,3.75 0 0 1 1023.0752,16.65 L1030.0752,36.4469 L1030.5,36.4469 A2.5,2.5 0 0 1 1033,38.9469 L1033,118.91 A2.5,2.5 0 0 1 1030.5,121.41 L767.5,121.41 A2.5,2.5 0 0 1 765,118.91 L765,16.65 A2.5,2.5 0 0 1 767.5,14.15" fill="none" style="stroke:#000000;stroke-width:1.5;"/><line style="stroke:#000000;stroke-width:1.5;" x1="765" x2="1030.0752" y1="36.4469" y2="36.4469"/><text fill="#000000" font-family="sans-serif" font-size="14" font-weight="700" lengthAdjust="spacing" textLength="252.0752" x="769" y="29.1451">infrastructure/persistence/redis</text></g><!--cluster infrastructure/connectors/webhook--><g class="cluster" data-qualified-name="infrastructure.connectors.webhook" data-source-line="47" id="ent0021"><path d="M1059.5,14.15 L1339.3447,14.15 A3.75,3.75 0 0 1 1341.8447,16.65 L1348.8447,36.4469 L1348.5,36.4469 A2.5,2.5 0 0 1 1351,38.9469 L1351,118.91 A2.5,2.5 0 0 1 1348.5,121.41 L1059.5,121.41 A2.5,2.5 0 0 1 1057,118.91 L1057,16.65 A2.5,2.5 0 0 1 1059.5,14.15" fill="none" style="stroke:#000000;stroke-width:1.5;"/><line style="stroke:#000000;stroke-width:1.5;" x1="1057" x2="1348.8447" y1="36.4469" y2="36.4469"/><text fill="#000000" font-family="sans-serif" font-size="14" font-weight="700" lengthAdjust="spacing" textLength="278.8447" x="1061" y="29.1451">infrastructure/connectors/webhook</text></g><!--class PriceUpdateHandler--><g class="entity" data-qualified-name="application.evaluacion.PriceUpdateHandler" data-source-line="6" id="ent0003"><rect fill="#F1F1F1" height="72.5625" rx="2.5" ry="2.5" style="stroke:#181818;stroke-width:0.5;" width="381.0518" x="22.47" y="41"/><text fill="#000000" font-family="sans-serif" font-size="12" font-style="italic" lengthAdjust="spacing" textLength="57.668" x="184.1619" y="57.1387">&#171;service&#187;</text><text fill="#000000" font-family="sans-serif" font-size="14" lengthAdjust="spacing" textLength="140.2256" x="142.8831" y="72.9639">PriceUpdateHandler</text><line style="stroke:#181818;stroke-width:0.5;" x1="23.47" x2="402.5218" y1="81.2656" y2="81.2656"/><line style="stroke:#181818;stroke-width:0.5;" x1="23.47" x2="402.5218" y1="89.2656" y2="89.2656"/><text fill="#000000" font-family="sans-serif" font-size="14" lengthAdjust="spacing" textLength="369.0518" x="28.47" y="106.2607">+handle(ev): void  &#171;@OnEvent('PrecioActualizado')&#187;</text></g><!--class AlertEvaluator--><g class="entity" data-qualified-name="application.evaluacion.AlertEvaluator" data-source-line="9" id="ent0004"><rect fill="#F1F1F1" height="86.5313" rx="2.5" ry="2.5" style="stroke:#181818;stroke-width:0.5;" width="245.584" x="90.21" y="174.73"/><text fill="#000000" font-family="sans-serif" font-size="12" font-style="italic" lengthAdjust="spacing" textLength="57.668" x="184.168" y="190.8687">&#171;service&#187;</text><text fill="#000000" font-family="sans-serif" font-size="12" font-style="italic" lengthAdjust="spacing" textLength="64.7344" x="180.6348" y="204.8374">&#171;strategy&#187;</text><text fill="#000000" font-family="sans-serif" font-size="14" lengthAdjust="spacing" textLength="100.1875" x="162.9082" y="220.6626">AlertEvaluator</text><line style="stroke:#181818;stroke-width:0.5;" x1="91.21" x2="334.794" y1="228.9644" y2="228.9644"/><line style="stroke:#181818;stroke-width:0.5;" x1="91.21" x2="334.794" y1="236.9644" y2="236.9644"/><text fill="#000000" font-family="sans-serif" font-size="14" lengthAdjust="spacing" textLength="233.584" x="96.21" y="253.9595">+evaluar(alerta, precio): boolean</text></g><!--class INotificacionService--><g class="entity" data-qualified-name="application.notificacion.INotificacionService" data-source-line="15" id="ent0006"><rect fill="#F1F1F1" height="72.5625" rx="2.5" ry="2.5" style="stroke:#181818;stroke-width:0.5;" width="171.8652" x="2100.07" y="181.71"/><text fill="#000000" font-family="sans-serif" font-size="12" font-style="italic" lengthAdjust="spacing" textLength="54.5508" x="2158.7272" y="197.8487">&#171;port-in&#187;</text><text fill="#000000" font-family="sans-serif" font-size="14" font-style="italic" lengthAdjust="spacing" textLength="138.4072" x="2116.799" y="213.6739">INotificacionService</text><line style="stroke:#181818;stroke-width:0.5;" x1="2101.07" x2="2270.9352" y1="221.9756" y2="221.9756"/><line style="stroke:#181818;stroke-width:0.5;" x1="2101.07" x2="2270.9352" y1="229.9756" y2="229.9756"/><text fill="#000000" font-family="sans-serif" font-size="14" lengthAdjust="spacing" textLength="159.8652" x="2106.07" y="246.9707">+enviar(alerta, precio)</text></g><!--class IWebhookConnector--><g class="entity" data-qualified-name="application.notificacion.IWebhookConnector" data-source-line="18" id="ent0007"><rect fill="#F1F1F1" height="88.8594" rx="2.5" ry="2.5" style="stroke:#181818;stroke-width:0.5;" width="325.3594" x="1610.32" y="173.56"/><text fill="#000000" font-family="sans-serif" font-size="12" font-style="italic" lengthAdjust="spacing" textLength="63.2637" x="1741.3679" y="189.6987">&#171;port-out&#187;</text><text fill="#000000" font-family="sans-serif" font-size="14" font-style="italic" lengthAdjust="spacing" textLength="141.791" x="1702.1042" y="205.5239">IWebhookConnector</text><line style="stroke:#181818;stroke-width:0.5;" x1="1611.32" x2="1934.6794" y1="213.8256" y2="213.8256"/><line style="stroke:#181818;stroke-width:0.5;" x1="1611.32" x2="1934.6794" y1="221.8256" y2="221.8256"/><text fill="#000000" font-family="sans-serif" font-size="14" lengthAdjust="spacing" textLength="313.3594" x="1616.32" y="238.8207">+checkReachability(url): Promise&lt;boolean&gt;</text><text fill="#000000" font-family="sans-serif" font-size="14" lengthAdjust="spacing" textLength="286.3438" x="1616.32" y="255.1176">+transmitir(n, url): Promise&lt;Resultado&gt;</text></g><!--class INotificacionesRepository--><g class="entity" data-qualified-name="application.notificacion.INotificacionesRepository" data-source-line="22" id="ent0008"><rect fill="#F1F1F1" height="56.2656" rx="2.5" ry="2.5" style="stroke:#181818;stroke-width:0.5;" width="183.6455" x="1391.18" y="189.86"/><text fill="#000000" font-family="sans-serif" font-size="12" font-style="italic" lengthAdjust="spacing" textLength="63.2637" x="1451.3709" y="205.9987">&#171;port-out&#187;</text><text fill="#000000" font-family="sans-serif" font-size="14" font-style="italic" lengthAdjust="spacing" textLength="177.6455" x="1394.18" y="221.8239">INotificacionesRepository</text><line style="stroke:#181818;stroke-width:0.5;" x1="1392.18" x2="1573.8255" y1="230.1256" y2="230.1256"/><line style="stroke:#181818;stroke-width:0.5;" x1="1392.18" x2="1573.8255" y1="238.1256" y2="238.1256"/></g><!--class IRetryQueue--><g class="entity" data-qualified-name="application.notificacion.IRetryQueue" data-source-line="23" id="ent0009"><rect fill="#F1F1F1" height="56.2656" rx="2.5" ry="2.5" style="stroke:#181818;stroke-width:0.5;" width="93.9922" x="1971" y="189.86"/><text fill="#000000" font-family="sans-serif" font-size="12" font-style="italic" lengthAdjust="spacing" textLength="63.2637" x="1986.3643" y="205.9987">&#171;port-out&#187;</text><text fill="#000000" font-family="sans-serif" font-size="14" font-style="italic" lengthAdjust="spacing" textLength="87.9922" x="1974" y="221.8239">IRetryQueue</text><line style="stroke:#181818;stroke-width:0.5;" x1="1972" x2="2063.9922" y1="230.1256" y2="230.1256"/><line style="stroke:#181818;stroke-width:0.5;" x1="1972" x2="2063.9922" y1="238.1256" y2="238.1256"/></g><!--class NotificacionService--><g class="entity" data-qualified-name="application.notificacion.NotificacionService" data-source-line="24" id="ent0010"><rect fill="#F1F1F1" height="56.2656" rx="2.5" ry="2.5" style="stroke:#181818;stroke-width:0.5;" width="140.2783" x="1597.86" y="49.15"/><text fill="#000000" font-family="sans-serif" font-size="12" font-style="italic" lengthAdjust="spacing" textLength="57.668" x="1639.1652" y="65.2887">&#171;service&#187;</text><text fill="#000000" font-family="sans-serif" font-size="14" lengthAdjust="spacing" textLength="134.2783" x="1600.86" y="81.1139">NotificacionService</text><line style="stroke:#181818;stroke-width:0.5;" x1="1598.86" x2="1737.1383" y1="89.4156" y2="89.4156"/><line style="stroke:#181818;stroke-width:0.5;" x1="1598.86" x2="1737.1383" y1="97.4156" y2="97.4156"/></g><!--class AlertTriggeredHandler--><g class="entity" data-qualified-name="application.notificacion.AlertTriggeredHandler" data-source-line="25" id="ent0011"><rect fill="#F1F1F1" height="72.5625" rx="2.5" ry="2.5" style="stroke:#181818;stroke-width:0.5;" width="369.8477" x="1902.08" y="41"/><text fill="#000000" font-family="sans-serif" font-size="12" font-style="italic" lengthAdjust="spacing" textLength="57.668" x="2058.1698" y="57.1387">&#171;service&#187;</text><text fill="#000000" font-family="sans-serif" font-size="14" lengthAdjust="spacing" textLength="156.29" x="2008.8588" y="72.9639">AlertTriggeredHandler</text><line style="stroke:#181818;stroke-width:0.5;" x1="1903.08" x2="2270.9277" y1="81.2656" y2="81.2656"/><line style="stroke:#181818;stroke-width:0.5;" x1="1903.08" x2="2270.9277" y1="89.2656" y2="89.2656"/><text fill="#000000" font-family="sans-serif" font-size="14" lengthAdjust="spacing" textLength="357.8477" x="1908.08" y="106.2607">+handle(ev): void  &#171;@OnEvent('AlertaDisparada')&#187;</text></g><!--class RetryWorker--><g class="entity" data-qualified-name="application.notificacion.RetryWorker" data-source-line="28" id="ent0012"><rect fill="#F1F1F1" height="56.2656" rx="2.5" ry="2.5" style="stroke:#181818;stroke-width:0.5;" width="94.5117" x="1772.74" y="49.15"/><text fill="#000000" font-family="sans-serif" font-size="12" font-style="italic" lengthAdjust="spacing" textLength="57.668" x="1791.1619" y="65.2887">&#171;service&#187;</text><text fill="#000000" font-family="sans-serif" font-size="14" lengthAdjust="spacing" textLength="88.5117" x="1775.74" y="81.1139">RetryWorker</text><line style="stroke:#181818;stroke-width:0.5;" x1="1773.74" x2="1866.2517" y1="89.4156" y2="89.4156"/><line style="stroke:#181818;stroke-width:0.5;" x1="1773.74" x2="1866.2517" y1="97.4156" y2="97.4156"/></g><!--class Notificacion--><g class="entity" data-qualified-name="domain.notificacion.Notificacion" data-source-line="32" id="ent0014"><rect fill="#F1F1F1" height="56.2656" rx="2.5" ry="2.5" style="stroke:#181818;stroke-width:0.5;" width="88.5371" x="2337.73" y="189.86"/><text fill="#000000" font-family="sans-serif" font-size="12" font-style="italic" lengthAdjust="spacing" textLength="49.5176" x="2357.2398" y="205.9987">&#171;entity&#187;</text><text fill="#000000" font-family="sans-serif" font-size="14" lengthAdjust="spacing" textLength="82.5371" x="2340.73" y="221.8239">Notificacion</text><line style="stroke:#181818;stroke-width:0.5;" x1="2338.73" x2="2425.2671" y1="230.1256" y2="230.1256"/><line style="stroke:#181818;stroke-width:0.5;" x1="2338.73" x2="2425.2671" y1="238.1256" y2="238.1256"/></g><!--class EstadoEntrega--><g class="entity" data-qualified-name="domain.notificacion.EstadoEntrega" data-source-line="33" id="ent0015"><rect fill="#F1F1F1" height="91.1875" rx="2.5" ry="2.5" style="stroke:#181818;stroke-width:0.5;" width="108.7031" x="2327.65" y="322.42"/><text fill="#000000" font-family="sans-serif" font-size="14" lengthAdjust="spacing" textLength="102.7031" x="2330.65" y="340.4151">EstadoEntrega</text><line style="stroke:#181818;stroke-width:0.5;" x1="2328.65" x2="2435.3531" y1="348.7169" y2="348.7169"/><text fill="#000000" font-family="sans-serif" font-size="14" lengthAdjust="spacing" textLength="79.3857" x="2333.65" y="365.712">PENDIENTE</text><text fill="#000000" font-family="sans-serif" font-size="14" lengthAdjust="spacing" textLength="87.2266" x="2333.65" y="382.0089">ENTREGADA</text><text fill="#000000" font-family="sans-serif" font-size="14" lengthAdjust="spacing" textLength="57.7158" x="2333.65" y="398.3057">FALLIDA</text><line style="stroke:#181818;stroke-width:0.5;" x1="2328.65" x2="2435.3531" y1="405.6075" y2="405.6075"/></g><!--class Webhook--><g class="entity" data-qualified-name="domain.notificacion.Webhook" data-source-line="38" id="ent0016"><rect fill="#F1F1F1" height="56.2656" rx="2.5" ry="2.5" style="stroke:#181818;stroke-width:0.5;" width="71.4541" x="2471.27" y="339.88"/><text fill="#000000" font-family="sans-serif" font-size="12" font-style="italic" lengthAdjust="spacing" textLength="47.4609" x="2483.2666" y="356.0187">&#171;value&#187;</text><text fill="#000000" font-family="sans-serif" font-size="14" lengthAdjust="spacing" textLength="65.4541" x="2474.27" y="371.8439">Webhook</text><line style="stroke:#181818;stroke-width:0.5;" x1="2472.27" x2="2541.7241" y1="380.1456" y2="380.1456"/><line style="stroke:#181818;stroke-width:0.5;" x1="2472.27" x2="2541.7241" y1="388.1456" y2="388.1456"/></g><!--class NotificacionesRepositoryTypeOrm--><g class="entity" data-qualified-name="infrastructure.persistence.postgres.NotificacionesRepositoryTypeOrm" data-source-line="42" id="ent0018"><rect fill="#FFF3E0" height="56.2656" rx="2.5" ry="2.5" style="stroke:#181818;stroke-width:0.5;" width="244.2666" x="480.87" y="49.15"/><text fill="#000000" font-family="sans-serif" font-size="12" font-style="italic" lengthAdjust="spacing" textLength="41.959" x="582.0238" y="65.2887">&#171;repo&#187;</text><text fill="#000000" font-family="sans-serif" font-size="14" lengthAdjust="spacing" textLength="238.2666" x="483.87" y="81.1139">NotificacionesRepositoryTypeOrm</text><line style="stroke:#181818;stroke-width:0.5;" x1="481.87" x2="724.1366" y1="89.4156" y2="89.4156"/><line style="stroke:#181818;stroke-width:0.5;" x1="481.87" x2="724.1366" y1="97.4156" y2="97.4156"/></g><!--class RetryQueueRedis--><g class="entity" data-qualified-name="infrastructure.persistence.redis.RetryQueueRedis" data-source-line="45" id="ent0020"><rect fill="#FFF3E0" height="56.2656" rx="2.5" ry="2.5" style="stroke:#181818;stroke-width:0.5;" width="128.2744" x="888.86" y="49.15"/><text fill="#000000" font-family="sans-serif" font-size="12" font-style="italic" lengthAdjust="spacing" textLength="41.959" x="932.0177" y="65.2887">&#171;repo&#187;</text><text fill="#000000" font-family="sans-serif" font-size="14" lengthAdjust="spacing" textLength="122.2744" x="891.86" y="81.1139">RetryQueueRedis</text><line style="stroke:#181818;stroke-width:0.5;" x1="889.86" x2="1016.1344" y1="89.4156" y2="89.4156"/><line style="stroke:#181818;stroke-width:0.5;" x1="889.86" x2="1016.1344" y1="97.4156" y2="97.4156"/></g><!--class WebhookConnectorHttp--><g class="entity" data-qualified-name="infrastructure.connectors.webhook.WebhookConnectorHttp" data-source-line="48" id="ent0022"><rect fill="#FFF3E0" height="56.2656" rx="2.5" ry="2.5" style="stroke:#181818;stroke-width:0.5;" width="174.0547" x="1160.97" y="49.15"/><text fill="#000000" font-family="sans-serif" font-size="12" font-style="italic" lengthAdjust="spacing" textLength="61.6465" x="1217.1741" y="65.2887">&#171;adapter&#187;</text><text fill="#000000" font-family="sans-serif" font-size="14" lengthAdjust="spacing" textLength="168.0547" x="1163.97" y="81.1139">WebhookConnectorHttp</text><line style="stroke:#181818;stroke-width:0.5;" x1="1161.97" x2="1334.0247" y1="89.4156" y2="89.4156"/><line style="stroke:#181818;stroke-width:0.5;" x1="1161.97" x2="1334.0247" y1="97.4156" y2="97.4156"/></g><!--link PriceUpdateHandler to AlertEvaluator--><g class="link" data-entity-1="ent0003" data-entity-2="ent0004" data-link-type="dependency" data-source-line="51" id="lnk23"><path codeLine="51" d="M213,114 C213,132.39 213,148.93 213,168.23" fill="none" id="PriceUpdateHandler-to-AlertEvaluator" style="stroke:#181818;stroke-width:1;stroke-dasharray:7,7;"/><polygon fill="#181818" points="213,174.23,217,165.23,213,169.23,209,165.23,213,174.23" style="stroke:#181818;stroke-width:1;"/></g><!--link AlertTriggeredHandler to INotificacionService--><g class="link" data-entity-1="ent0011" data-entity-2="ent0006" data-link-type="dependency" data-source-line="52" id="lnk24"><path codeLine="52" d="M2112.49,114 C2127.28,134.71 2142.3455,155.8155 2157.1055,176.5055" fill="none" id="AlertTriggeredHandler-to-INotificacionService" style="stroke:#181818;stroke-width:1;stroke-dasharray:7,7;"/><polygon fill="#181818" points="2160.59,181.39,2158.6195,171.7403,2157.6862,177.3196,2152.1069,176.3863,2160.59,181.39" style="stroke:#181818;stroke-width:1;"/></g><!--link NotificacionService to INotificacionService--><g class="link" data-entity-1="ent0010" data-entity-2="ent0006" data-link-type="extension" data-source-line="53" id="lnk25"><path codeLine="53" d="M1705.57,105.67 C1720.26,114.92 1737.72,124.21 1755,129.41 C1894.37,171.36 1944,100.62 2082,146.86 C2104.3,154.33 2111.8278,157.2769 2129.7978,170.5669" fill="none" id="NotificacionService-to-INotificacionService" style="stroke:#181818;stroke-width:1;stroke-dasharray:7,7;"/><polygon fill="none" points="2144.27,181.27,2133.3655,165.7428,2126.2301,175.3909,2144.27,181.27" style="stroke:#181818;stroke-width:1;"/></g><!--link NotificacionService to IWebhookConnector--><g class="link" data-entity-1="ent0010" data-entity-2="ent0007" data-link-type="dependency" data-source-line="54" id="lnk26"><path codeLine="54" d="M1688.74,105.69 C1703.33,124.95 1719.5289,146.3459 1736.2789,168.4759" fill="none" id="NotificacionService-to-IWebhookConnector" style="stroke:#181818;stroke-width:1;stroke-dasharray:7,7;"/><polygon fill="#181818" points="1739.9,173.26,1737.6578,163.6698,1736.8824,169.2732,1731.279,168.4978,1739.9,173.26" style="stroke:#181818;stroke-width:1;"/></g><!--link NotificacionService to INotificacionesRepository--><g class="link" data-entity-1="ent0010" data-entity-2="ent0008" data-link-type="dependency" data-source-line="55" id="lnk27"><path codeLine="55" d="M1631.45,105.69 C1599.12,129.93 1556.99,161.51 1524.59,185.81" fill="none" id="NotificacionService-to-INotificacionesRepository" style="stroke:#181818;stroke-width:1;stroke-dasharray:7,7;"/><polygon fill="#181818" points="1519.79,189.41,1529.39,187.21,1523.79,186.41,1524.59,180.81,1519.79,189.41" style="stroke:#181818;stroke-width:1;"/></g><!--link NotificacionService to IRetryQueue--><g class="link" data-entity-1="ent0010" data-entity-2="ent0009" data-link-type="dependency" data-source-line="56" id="lnk28"><path codeLine="56" d="M1706.52,105.89 C1721.05,114.93 1738.15,124.02 1755,129.41 C1839.14,156.33 1873.67,107.99 1953,146.86 C1972.38,156.36 1985.242,169.4885 1996.752,184.8485" fill="none" id="NotificacionService-to-IRetryQueue" style="stroke:#181818;stroke-width:1;stroke-dasharray:7,7;"/><polygon fill="#181818" points="2000.35,189.65,1998.154,180.0491,1997.3517,185.6487,1991.752,184.8464,2000.35,189.65" style="stroke:#181818;stroke-width:1;"/></g><!--link NotificacionService to Notificacion--><g class="link" data-entity-1="ent0010" data-entity-2="ent0014" data-link-type="dependency" data-source-line="57" id="lnk29"><path codeLine="57" d="M1705.51,105.86 C1720.2,115.13 1737.67,124.39 1755,129.41 C1868.83,162.4 2176.15,107.69 2288,146.86 C2313.17,155.68 2332.7296,169.8281 2350.1896,185.4581" fill="none" id="NotificacionService-to-Notificacion" style="stroke:#181818;stroke-width:1;stroke-dasharray:7,7;"/><polygon fill="#181818" points="2354.66,189.46,2350.6223,180.4769,2350.9346,186.1251,2345.2864,186.4375,2354.66,189.46" style="stroke:#181818;stroke-width:1;"/></g><!--link RetryWorker to IRetryQueue--><g class="link" data-entity-1="ent0012" data-entity-2="ent0009" data-link-type="dependency" data-source-line="58" id="lnk30"><path codeLine="58" d="M1849.63,105.82 C1860.16,114.41 1872.51,123.25 1885,129.41 C1912.97,143.23 1926.19,130.89 1953,146.86 C1970.97,157.56 1983.2706,170.0198 1994.9106,184.6898" fill="none" id="RetryWorker-to-IRetryQueue" style="stroke:#181818;stroke-width:1;stroke-dasharray:7,7;"/><polygon fill="#181818" points="1998.64,189.39,1996.1794,179.8535,1995.5322,185.4732,1989.9125,184.826,1998.64,189.39" style="stroke:#181818;stroke-width:1;"/></g><!--link RetryWorker to INotificacionService--><g class="link" data-entity-1="ent0012" data-entity-2="ent0006" data-link-type="dependency" data-source-line="59" id="lnk31"><path codeLine="59" d="M1847.49,105.67 C1858.3,114.8 1871.39,124.02 1885,129.41 C1966.71,161.81 1999.16,117.48 2082,146.86 C2103.96,154.65 2120.8885,164.636 2138.7985,177.746" fill="none" id="RetryWorker-to-INotificacionService" style="stroke:#181818;stroke-width:1;stroke-dasharray:7,7;"/><polygon fill="#181818" points="2143.64,181.29,2138.7404,172.7464,2139.6054,178.3367,2134.0151,179.2017,2143.64,181.29" style="stroke:#181818;stroke-width:1;"/></g><!--link NotificacionesRepositoryTypeOrm to INotificacionesRepository--><g class="link" data-entity-1="ent0018" data-entity-2="ent0008" data-link-type="extension" data-source-line="61" id="lnk32"><path codeLine="61" d="M725.44,102.67 C771.61,111.54 824.64,121.37 873,129.41 C1056.11,159.88 1253.3646,186.9259 1372.9846,202.7059" fill="none" id="NotificacionesRepositoryTypeOrm-to-INotificacionesRepository" style="stroke:#181818;stroke-width:1;stroke-dasharray:7,7;"/><polygon fill="none" points="1390.83,205.06,1373.7693,196.7574,1372.1999,208.6543,1390.83,205.06" style="stroke:#181818;stroke-width:1;"/></g><!--link RetryQueueRedis to IRetryQueue--><g class="link" data-entity-1="ent0020" data-entity-2="ent0009" data-link-type="extension" data-source-line="62" id="lnk33"><path codeLine="62" d="M1017.52,99.59 C1054.41,110.73 1101.8,123.29 1145,129.41 C1189.45,135.72 1912.05,128.45 1953,146.86 C1972.84,155.78 1978.7499,159.4115 1990.1899,175.0215" fill="none" id="RetryQueueRedis-to-IRetryQueue" style="stroke:#181818;stroke-width:1;stroke-dasharray:7,7;"/><polygon fill="none" points="2000.83,189.54,1995.0294,171.4748,1985.3504,178.5682,2000.83,189.54" style="stroke:#181818;stroke-width:1;"/></g><!--link WebhookConnectorHttp to IWebhookConnector--><g class="link" data-entity-1="ent0022" data-entity-2="ent0007" data-link-type="extension" data-source-line="63" id="lnk34"><path codeLine="63" d="M1305.91,105.89 C1327.18,114.88 1351.75,123.93 1375,129.41 C1469.17,151.61 1497.68,125.28 1592,146.86 C1619.59,153.17 1631.776,156.4222 1658.246,166.6322" fill="none" id="WebhookConnectorHttp-to-IWebhookConnector" style="stroke:#181818;stroke-width:1;stroke-dasharray:7,7;"/><polygon fill="none" points="1675.04,173.11,1660.4053,161.0342,1656.0867,172.2302,1675.04,173.11" style="stroke:#181818;stroke-width:1;"/></g><!--link Notificacion to EstadoEntrega--><g class="link" data-entity-1="ent0014" data-entity-2="ent0015" data-link-type="dependency" data-source-line="64" id="lnk35"><path codeLine="64" d="M2382,246.49 C2382,267.64 2382,291.32 2382,315.93" fill="none" id="Notificacion-to-EstadoEntrega" style="stroke:#181818;stroke-width:1;"/><polygon fill="#181818" points="2382,321.93,2386,312.93,2382,316.93,2378,312.93,2382,321.93" style="stroke:#181818;stroke-width:1;"/></g><!--link Notificacion to Webhook--><g class="link" data-entity-1="ent0014" data-entity-2="ent0016" data-link-type="dependency" data-source-line="65" id="lnk36"><path codeLine="65" d="M2405.22,246.49 C2427.6,272.99 2457.4091,308.2957 2479.8191,334.8357" fill="none" id="Notificacion-to-Webhook" style="stroke:#181818;stroke-width:1;"/><polygon fill="#181818" points="2483.69,339.42,2480.9398,329.9629,2480.4642,335.5997,2474.8274,335.1242,2483.69,339.42" style="stroke:#181818;stroke-width:1;"/></g><?plantuml-src fLHRJzim57xFhx3O0qMZ1Mbl4ufMhUceXA0hJ3oVEgVfKLCxifsYil7VTtAXE9TkGykJOnz_btEntP3AmC1Ms3N4-ebK8bQGMWpiuKIcOEtOEKFBtE5CQdLFpoWkWpN5A2GPcM8GP20taA0uWInBIO8ZhIvm1saEafSducSW-2l1nDoGn1zP30wlGSKf6d5rPT7iU3iCwz3Y-oZMvVa0TsUVnKvJB3ZoovsATgZSu7HkaD77qkMGqZCxE3qBm_BsYqStPW8NbLgSRbBnsXcMaUnRl9LqCu3YBfoBh6HY4KkjKmHLaxmSSQwqenN_-Dv9EJGha2XcjzxnVIM6fMJQk26fjXArewuGpwI7-uZBjTQRhrefb9NN4bJdheKgroWt2mIvXYMbvFQ3tAHiRsxqbYnUrJP3xmedIjajEJ83TIwQuGkqUUgu066_CDymsWLcsXBhspS4jYyjq9dzznnpx8PLbUtFuw6yxHvuC9GaQ33-lwuhiM12jXYG67fxhjJ-gCscoT9ec5XlWVfxfMkFKPYS2rMJeSgt8h95pYFb32RWEPX7jvDPTFiG7NRuPn5z6q_6Xvtf-EPcLl_xokiUOhvY1DgQIQqCyCpaF7C6Bp8qbgn39NcjhKiCskCU_Ce_x3EyCrkcCRp7-VymdKu_HPVCzYzaN4HgCRsrow8uV0-oV1qOU_5KsMz2j-VgshcCyRdu6NThWoBeUTn6ex3r20Nz_LW4zZqEGL-ZZqQ_tXKTTj-7uv77odRynblwZyRu-u4_8Ms0pbcVo-1lhTLDKCD9kr-gS4z5RzMhg3ycKWo7ONCqkySrm6y0?></g></svg>