<svg xmlns="http://www.w3.org/2000/svg" xmlns:xlink="http://www.w3.org/1999/xlink" contentStyleType="text/css" data-diagram-type="DESCRIPTION" height="831px" preserveAspectRatio="none" style="width:1323px;height:831px;background:#FFFFFF;" version="1.1" viewBox="0 0 1323 831" width="1323px" zoomAndPan="magnify"><?plantuml 1.2026.3beta6?><defs/><g><!--cluster HOST--><g class="cluster" data-qualified-name="HOST" data-source-line="9" id="ent0005"><polygon fill="none" points="16,162.8,26,152.8,762,152.8,762,796.91,752,806.91,16,806.91,16,162.8" style="stroke:#181818;stroke-width:1;"/><line style="stroke:#181818;stroke-width:1;" x1="752" x2="762" y1="162.8" y2="152.8"/><line style="stroke:#181818;stroke-width:1;" x1="16" x2="752" y1="162.8" y2="162.8"/><line style="stroke:#181818;stroke-width:1;" x1="752" x2="752" y1="162.8" y2="806.91"/><text fill="#000000" font-family="sans-serif" font-size="14" font-weight="700" lengthAdjust="spacing" textLength="229.8311" x="270.0845" y="178.7951">Host Docker &#8212; Infinite Fieldx</text></g><!--cluster EDGE--><g class="cluster" data-qualified-name="HOST.EDGE" data-source-line="10" id="ent0006"><rect fill="#E3F2FD" height="113.59" rx="2.5" ry="2.5" style="stroke:#181818;stroke-width:1;" width="222" x="430" y="208.8"/><text fill="#000000" font-family="sans-serif" font-size="14" font-weight="700" lengthAdjust="spacing" textLength="129.8486" x="476.0757" y="223.7951">Red: fieldx-edge</text></g><!--cluster INT--><g class="cluster" data-qualified-name="HOST.INT" data-source-line="13" id="ent0008"><rect fill="#FFF3E0" height="264.22" rx="2.5" ry="2.5" style="stroke:#181818;stroke-width:1;" width="378" x="156" y="371.39"/><text fill="#000000" font-family="sans-serif" font-size="14" font-weight="700" lengthAdjust="spacing" textLength="152.8857" x="268.5571" y="386.3851">Red: fieldx-internal</text></g><!--cluster VOLS--><g class="cluster" data-qualified-name="HOST.VOLS" data-source-line="18" id="ent0012"><path d="M50.5,684.61 L138.5967,684.61 A3.75,3.75 0 0 1 141.0967,687.11 L148.0967,706.9069 L719.5,706.9069 A2.5,2.5 0 0 1 722,709.4069 L722,772.41 A2.5,2.5 0 0 1 719.5,774.91 L50.5,774.91 A2.5,2.5 0 0 1 48,772.41 L48,687.11 A2.5,2.5 0 0 1 50.5,684.61" fill="#ECEFF1" style="stroke:#000000;stroke-width:1.5;"/><line style="stroke:#000000;stroke-width:1.5;" x1="48" x2="148.0967" y1="706.9069" y2="706.9069"/><text fill="#000000" font-family="sans-serif" font-size="14" font-weight="700" lengthAdjust="spacing" textLength="87.0967" x="52" y="699.6051">Vol&#250;menes</text></g><!--entity FE--><g class="entity" data-qualified-name="HOST.EDGE.FE" data-source-line="11" id="ent0007"><polygon fill="#F1F1F1" points="446.33,253.8,456.33,243.8,635.6747,243.8,635.6747,296.3937,625.6747,306.3937,446.33,306.3937,446.33,253.8" style="stroke:#181818;stroke-width:0.5;"/><line style="stroke:#181818;stroke-width:0.5;" x1="625.6747" x2="635.6747" y1="253.8" y2="243.8"/><line style="stroke:#181818;stroke-width:0.5;" x1="446.33" x2="625.6747" y1="253.8" y2="253.8"/><line style="stroke:#181818;stroke-width:0.5;" x1="625.6747" x2="625.6747" y1="253.8" y2="306.3937"/><text fill="#000000" font-family="sans-serif" font-size="14" lengthAdjust="spacing" textLength="59.9854" x="461.33" y="276.7951">frontend</text><text fill="#000000" font-family="sans-serif" font-size="14" lengthAdjust="spacing" textLength="149.3447" x="461.33" y="293.092">(nginx + React build)</text></g><!--entity BE--><g class="entity" data-qualified-name="HOST.INT.BE" data-source-line="14" id="ent0009"><polygon fill="#F1F1F1" points="342.38,416.39,352.38,406.39,517.6222,406.39,517.6222,458.9838,507.6222,468.9838,342.38,468.9838,342.38,416.39" style="stroke:#181818;stroke-width:0.5;"/><line style="stroke:#181818;stroke-width:0.5;" x1="507.6222" x2="517.6222" y1="416.39" y2="406.39"/><line style="stroke:#181818;stroke-width:0.5;" x1="342.38" x2="507.6222" y1="416.39" y2="416.39"/><line style="stroke:#181818;stroke-width:0.5;" x1="507.6222" x2="507.6222" y1="416.39" y2="468.9838"/><text fill="#000000" font-family="sans-serif" font-size="14" lengthAdjust="spacing" textLength="59.6436" x="357.38" y="439.3851">backend</text><text fill="#000000" font-family="sans-serif" font-size="14" lengthAdjust="spacing" textLength="135.2422" x="357.38" y="455.682">(Node 20 + NestJS)</text></g><!--entity PG--><g class="entity" data-qualified-name="HOST.INT.PG" data-source-line="15" id="ent0010"><path d="M172.03,568.02 C172.03,558.02 239.0007,558.02 239.0007,558.02 C239.0007,558.02 305.9714,558.02 305.9714,568.02 L305.9714,609.6138 C305.9714,619.6138 239.0007,619.6138 239.0007,619.6138 C239.0007,619.6138 172.03,619.6138 172.03,609.6138 L172.03,568.02" fill="#F1F1F1" style="stroke:#181818;stroke-width:0.5;"/><path d="M172.03,568.02 C172.03,578.02 239.0007,578.02 239.0007,578.02 C239.0007,578.02 305.9714,578.02 305.9714,568.02" fill="none" style="stroke:#181818;stroke-width:0.5;"/><text fill="#000000" font-family="sans-serif" font-size="14" lengthAdjust="spacing" textLength="60.7852" x="182.03" y="595.0151">postgres</text><text fill="#000000" font-family="sans-serif" font-size="14" lengthAdjust="spacing" textLength="113.9414" x="182.03" y="611.312">(PostgreSQL 16)</text></g><!--entity RD--><g class="entity" data-qualified-name="HOST.INT.RD" data-source-line="16" id="ent0011"><path d="M386.01,568.02 C386.01,558.02 451.9963,558.02 451.9963,558.02 C451.9963,558.02 517.9827,558.02 517.9827,568.02 L517.9827,609.6138 C517.9827,619.6138 451.9963,619.6138 451.9963,619.6138 C451.9963,619.6138 386.01,619.6138 386.01,609.6138 L386.01,568.02" fill="#F1F1F1" style="stroke:#181818;stroke-width:0.5;"/><path d="M386.01,568.02 C386.01,578.02 451.9963,578.02 451.9963,578.02 C451.9963,578.02 517.9827,578.02 517.9827,568.02" fill="none" style="stroke:#181818;stroke-width:0.5;"/><text fill="#000000" font-family="sans-serif" font-size="14" lengthAdjust="spacing" textLength="34.4395" x="396.01" y="595.0151">redis</text><text fill="#000000" font-family="sans-serif" font-size="14" lengthAdjust="spacing" textLength="111.9727" x="396.01" y="611.312">(Redis 7 + AOF)</text></g><!--entity VPG--><g class="entity" data-qualified-name="HOST.VOLS.VPG" data-source-line="19" id="ent0013"><rect fill="#F1F1F1" height="39.2969" rx="2.5" ry="2.5" style="stroke:#181818;stroke-width:0.5;" width="170.916" x="63.54" y="719.61"/><polygon fill="#F1F1F1" points="217.456,724.61,217.456,738.61,229.456,738.61,229.456,730.61,223.456,724.61,217.456,724.61" style="stroke:#181818;stroke-width:0.5;"/><line style="stroke:#181818;stroke-width:0.5;" x1="223.456" x2="223.456" y1="724.61" y2="730.61"/><line style="stroke:#181818;stroke-width:0.5;" x1="229.456" x2="223.456" y1="730.61" y2="730.61"/><text fill="#000000" font-family="sans-serif" font-size="14" lengthAdjust="spacing" textLength="140.916" x="73.54" y="745.6051">fieldx-postgres-data</text></g><!--entity VRD--><g class="entity" data-qualified-name="HOST.VOLS.VRD" data-source-line="20" id="ent0014"><rect fill="#F1F1F1" height="39.2969" rx="2.5" ry="2.5" style="stroke:#181818;stroke-width:0.5;" width="144.5703" x="314.71" y="719.61"/><polygon fill="#F1F1F1" points="442.2803,724.61,442.2803,738.61,454.2803,738.61,454.2803,730.61,448.2803,724.61,442.2803,724.61" style="stroke:#181818;stroke-width:0.5;"/><line style="stroke:#181818;stroke-width:0.5;" x1="448.2803" x2="448.2803" y1="724.61" y2="730.61"/><line style="stroke:#181818;stroke-width:0.5;" x1="454.2803" x2="448.2803" y1="730.61" y2="730.61"/><text fill="#000000" font-family="sans-serif" font-size="14" lengthAdjust="spacing" textLength="114.5703" x="324.71" y="745.6051">fieldx-redis-data</text></g><!--entity VLOG--><g class="entity" data-qualified-name="HOST.VOLS.VLOG" data-source-line="21" id="ent0015"><rect fill="#F1F1F1" height="39.2969" rx="2.5" ry="2.5" style="stroke:#181818;stroke-width:0.5;" width="166.876" x="539.56" y="719.61"/><polygon fill="#F1F1F1" points="689.436,724.61,689.436,738.61,701.436,738.61,701.436,730.61,695.436,724.61,689.436,724.61" style="stroke:#181818;stroke-width:0.5;"/><line style="stroke:#181818;stroke-width:0.5;" x1="695.436" x2="695.436" y1="724.61" y2="730.61"/><line style="stroke:#181818;stroke-width:0.5;" x1="701.436" x2="695.436" y1="730.61" y2="730.61"/><text fill="#000000" font-family="sans-serif" font-size="14" lengthAdjust="spacing" textLength="136.876" x="549.56" y="745.6051">fieldx-backend-logs</text></g><!--entity U--><g class="entity" data-qualified-name="U" data-source-line="5" id="ent0002"><ellipse cx="541.0021" cy="14" fill="#F1F1F1" rx="8" ry="8" style="stroke:#181818;stroke-width:0.5;"/><path d="M541.0021,22 L541.0021,49 M528.0021,30 L554.0021,30 M541.0021,49 L528.0021,64 M541.0021,49 L554.0021,64" fill="none" style="stroke:#181818;stroke-width:0.5;"/><text fill="#000000" font-family="sans-serif" font-size="14" lengthAdjust="spacing" textLength="53.2041" x="514.4" y="78.4951">Usuario</text></g><!--entity HL--><g class="entity" data-qualified-name="HL" data-source-line="6" id="ent0003"><path d="M796.1157,575.1344 C798.1059,568.9793 803.3329,569.4328 806.9265,573.4263 C811.2025,568.0589 815.1541,568.617 818.6038,574.2995 C821.4178,569.5368 826.0375,568.7038 829.4546,573.6236 C832.177,567.5707 838.0119,565.5642 842.5781,571.6264 C845.3945,566.3337 848.8398,566.0266 852.4319,570.8724 C857.0187,564.366 862.9756,567.0363 865.5012,573.0278 C868.8348,567.9328 873.5737,568.2547 876.7254,573.2306 C880.1532,567.4423 885.2643,567.3193 888.7338,573.1876 C892.3903,568.5304 895.8847,569.4275 898.9607,573.842 C903.1192,568.176 907.8986,567.8245 911.4966,574.4152 C920.7659,575.8413 923.6713,580.6138 918.5808,589.01 C922.569,597.9313 920.7782,604.2624 910.1052,605.7692 C907.7672,611.9406 903.6362,611.6025 899.5128,607.6343 C897.4499,613.4156 892.0771,613.8048 888.7025,608.9701 C884.8838,615.1797 880.0196,615.6214 875.3797,609.8861 C873.4134,617.2705 869.8247,618.2812 864.0091,613.4771 C860.6582,619.1458 856.6606,619.1788 852.9223,613.8683 C849.0706,619.6274 844.1901,618.5925 840.6987,613.4638 C836.5352,617.0155 832.5975,615.9391 830.9607,610.6733 C826.827,614.981 821.7211,614.3072 819.4729,608.5263 C814.1076,614.3682 809.2895,612.8919 806.3101,606.0502 C802.8529,610.3734 798.2537,609.855 795.6163,605.0861 C786.6056,604.1361 783.3377,599.395 786.5128,590.7219 C782.6532,581.311 785.0658,575.36 796.1157,575.1344" fill="#F1F1F1" style="stroke:#181818;stroke-width:0.5;"/><text fill="#000000" font-family="sans-serif" font-size="14" lengthAdjust="spacing" textLength="101.541" x="801.23" y="593.6651">Hyperliquid L1</text></g><!--entity SW--><g class="entity" data-qualified-name="SW" data-source-line="7" id="ent0004"><path d="M1007.8709,566.3688 C1011.5913,560.8655 1015.0153,561.3979 1018.7087,566.3966 C1022.0989,560.2578 1027.0014,560.1564 1030.4992,566.2933 C1033.0701,560.7495 1038.5362,560.1853 1041.4879,565.9222 C1044.8758,560.3682 1050.6441,560.0717 1053.3175,566.6205 C1056.2913,560.7294 1061.9323,561.3852 1065.3064,566.171 C1068.9939,560.5123 1072.5846,561.0617 1076.8566,565.5026 C1080.9231,560.6491 1084.9033,559.5721 1088.3825,566.0974 C1091.3721,560.7597 1095.7135,559.9381 1099.327,565.4691 C1103.4523,560.0136 1107.308,560.3716 1110.9634,565.964 C1115.555,560.7674 1120.778,559.1756 1124.4787,566.8961 C1127.3346,561.3763 1132.7469,561.0747 1136.1402,566.3137 C1139.4949,562.3295 1143.4607,562.8914 1146.0419,567.2335 C1150.5713,569.9526 1151.1534,573.8519 1147.2477,577.5563 C1153.0953,581.1231 1153.9272,586.263 1147.3207,589.9034 C1152.512,592.6071 1154.2133,598.5835 1148.1777,602.0774 C1152.3995,606.0975 1151.5958,610.0454 1146.6684,612.7745 C1143.7054,618.4477 1139.2493,618.7429 1135.0033,614.2459 C1132.42,621.1021 1128.5526,620.7241 1123.8323,616.3766 C1119.5224,621.6445 1114.3572,622.6868 1110.9894,615.412 C1109.0512,620.9009 1103.4644,622.5876 1099.2755,618.0384 C1096.0134,623.6312 1092.6614,624.6546 1088.0938,619.3818 C1084.9225,625.0727 1081.3046,625.9525 1077.183,620.2956 C1074.1088,624.8695 1068.9241,624.1614 1066.3989,619.6443 C1061.7169,624.56 1056.8113,622.9065 1054.4431,617.0713 C1049.9701,623.4134 1044.6732,621.9411 1041.3126,615.8925 C1037.9251,621.1325 1034.2813,620.1466 1031.0163,615.7615 C1026.9118,620.5686 1022.5823,620.4681 1018.8499,615.3073 C1013.3998,620.435 1009.5227,618.9001 1007.1137,612.2715 C1002.4581,609.5776 1001.6958,606.2031 1005.5127,602.1669 C999.2429,600.1249 996.4523,594.6446 1002.3602,589.5579 C998.0387,585.8039 997.7848,580.436 1003.8184,577.987 C999.9333,572.4648 1000.4423,567.9448 1007.8709,566.3688" fill="#F1F1F1" style="stroke:#181818;stroke-width:0.5;"/><text fill="#000000" font-family="sans-serif" font-size="14" lengthAdjust="spacing" textLength="125.4873" x="1013.26" y="585.5151">Servicio Webhook</text><text fill="#000000" font-family="sans-serif" font-size="14" lengthAdjust="spacing" textLength="37.5771" x="1013.26" y="601.812">(n8n)</text></g><g class="entity" data-qualified-name="GMN25" data-source-line="37" id="ent0026"><path d="M834.51,247.39 L834.51,302.7884 L1053.4934,302.7884 L1053.4934,257.39 L1043.4934,247.39 L834.51,247.39" fill="#FEFFDD" style="stroke:#181818;stroke-width:0.5;"/><path d="M1043.4934,247.39 L1043.4934,257.39 L1053.4934,257.39 L1043.4934,247.39" fill="#FEFFDD" style="stroke:#181818;stroke-width:1;"/><text fill="#000000" font-family="sans-serif" font-size="13" lengthAdjust="spacing" textLength="185.0786" x="840.51" y="264.4569">&#218;nico puerto expuesto: 443.</text><text fill="#000000" font-family="sans-serif" font-size="13" lengthAdjust="spacing" textLength="85.4648" x="840.51" y="279.5897">Termina TLS.</text><text fill="#000000" font-family="sans-serif" font-size="13" lengthAdjust="spacing" textLength="197.9834" x="840.51" y="294.7225">Reverse proxy a /api/* y /ws/*.</text></g><g class="entity" data-qualified-name="GMN28" data-source-line="43" id="ent0029"><path d="M1077.64,402.42 L1077.64,472.9512 L1308.3666,472.9512 L1308.3666,412.42 L1298.3666,402.42 L1077.64,402.42" fill="#FEFFDD" style="stroke:#181818;stroke-width:0.5;"/><path d="M1298.3666,402.42 L1298.3666,412.42 L1308.3666,412.42 L1298.3666,402.42" fill="#FEFFDD" style="stroke:#181818;stroke-width:1;"/><text fill="#000000" font-family="sans-serif" font-size="13" lengthAdjust="spacing" textLength="86.7788" x="1083.64" y="419.4869">Subsistemas:</text><text fill="#000000" font-family="sans-serif" font-size="13" lengthAdjust="spacing" textLength="159.0342" x="1083.64" y="434.6197">S-PRES, S-INGE, S-LEAD,</text><text fill="#000000" font-family="sans-serif" font-size="13" lengthAdjust="spacing" textLength="209.7266" x="1083.64" y="449.7525">S-CATA, S-ALER, S-EVAL, S-NOTI</text><text fill="#000000" font-family="sans-serif" font-size="13" lengthAdjust="spacing" textLength="152.1216" x="1083.64" y="464.8853">+ EventBus en proceso</text></g><g class="entity" data-qualified-name="GMN31" data-source-line="50" id="ent0032"><path d="M786.06,394.86 L786.06,480.5241 L997.934,480.5241 L997.934,404.86 L987.934,394.86 L786.06,394.86" fill="#FEFFDD" style="stroke:#181818;stroke-width:0.5;"/><path d="M987.934,394.86 L987.934,404.86 L997.934,404.86 L987.934,394.86" fill="#FEFFDD" style="stroke:#181818;stroke-width:1;"/><text fill="#000000" font-family="sans-serif" font-size="13" lengthAdjust="spacing" textLength="184.7422" x="792.06" y="411.9269">Auto-reinicio del contenedor</text><text fill="#000000" font-family="sans-serif" font-size="13" lengthAdjust="spacing" textLength="183.9233" x="792.06" y="427.0597">tras crash o reboot del host.</text><text fill="#000000" font-family="sans-serif" font-size="13" lengthAdjust="spacing" textLength="190.874" x="792.06" y="442.1925">Sondas de salud por servicio.</text><text fill="#000000" font-family="sans-serif" font-size="13" lengthAdjust="spacing" textLength="190.2646" x="792.06" y="457.3253">Arranque ordenado: backend</text><text fill="#000000" font-family="sans-serif" font-size="13" lengthAdjust="spacing" textLength="169.0762" x="792.06" y="472.4581">espera a postgres y redis.</text></g><!--link U to FE--><g class="link" data-entity-1="ent0002" data-entity-2="ent0007" data-link-type="dependency" data-source-line="25" id="lnk16"><path d="M541,82.28 C541,127.29 541,195.75 541,237.43" fill="none" id="U-to-FE" style="stroke:#181818;stroke-width:1;"/><polygon fill="#181818" points="541,243.43,545,234.43,541,238.43,537,234.43,541,243.43" style="stroke:#181818;stroke-width:1;"/><text fill="#000000" font-family="sans-serif" font-size="13" lengthAdjust="spacing" textLength="70.6938" x="542" y="124.8669">HTTPS 443</text></g><!--link FE to BE--><g class="link" data-entity-1="ent0007" data-entity-2="ent0009" data-link-type="dependency" data-source-line="26" id="lnk17"><path d="M519.86,306.68 C500.17,335.16 474.3816,372.4743 454.6616,401.0043" fill="none" id="FE-to-BE" style="stroke:#181818;stroke-width:1;"/><polygon fill="#181818" points="451.25,405.94,459.6578,400.8108,454.093,401.8269,453.0769,396.2621,451.25,405.94" style="stroke:#181818;stroke-width:1;"/><text fill="#000000" font-family="sans-serif" font-size="13" lengthAdjust="spacing" textLength="149.7793" x="496" y="351.4569">HTTP /api/* + WS /ws/*</text></g><!--link BE to PG--><g class="link" data-entity-1="ent0009" data-entity-2="ent0010" data-link-type="dependency" data-source-line="27" id="lnk18"><path d="M390.89,469.23 C357.82,495.05 315.4195,528.1479 282.4595,553.8779" fill="none" id="BE-to-PG" style="stroke:#181818;stroke-width:1;"/><polygon fill="#181818" points="277.73,557.57,287.2857,555.1849,281.6713,554.4933,282.3629,548.8789,277.73,557.57" style="stroke:#181818;stroke-width:1;"/><text fill="#000000" font-family="sans-serif" font-size="13" lengthAdjust="spacing" textLength="62.0737" x="335" y="523.5869">TCP 5432</text></g><!--link BE to RD--><g class="link" data-entity-1="ent0009" data-entity-2="ent0011" data-link-type="dependency" data-source-line="28" id="lnk19"><path d="M434.51,469.23 C438.31,495.05 442.8634,525.9044 446.6634,551.6344" fill="none" id="BE-to-RD" style="stroke:#181818;stroke-width:1;"/><polygon fill="#181818" points="447.54,557.57,450.1822,548.0822,446.8095,552.6237,442.268,549.251,447.54,557.57" style="stroke:#181818;stroke-width:1;"/><text fill="#000000" font-family="sans-serif" font-size="13" lengthAdjust="spacing" textLength="62.0737" x="443" y="523.5869">TCP 6379</text></g><!--link BE to HL--><g class="link" data-entity-1="ent0009" data-entity-2="ent0003" data-link-type="dependency" data-source-line="29" id="lnk20"><path d="M518.07,457.34 C571.31,469.81 640.06,488.04 699,510.52 C739.18,525.84 777.5029,545.5901 807.8329,562.4101" fill="none" id="BE-to-HL" style="stroke:#181818;stroke-width:1;"/><polygon fill="#181818" points="813.08,565.32,807.1492,557.4571,808.7074,562.8951,803.2694,564.4533,813.08,565.32" style="stroke:#181818;stroke-width:1;"/><text fill="#000000" font-family="sans-serif" font-size="13" lengthAdjust="spacing" textLength="138.6519" x="738" y="523.5869">WebSocket (saliente)</text></g><!--link BE to SW--><g class="link" data-entity-1="ent0009" data-entity-2="ent0004" data-link-type="dependency" data-source-line="30" id="lnk21"><path d="M517.99,449.5 C632.91,464.09 827.63,490.56 897,510.52 C937.83,522.26 976.2164,538.5039 1010.2864,554.6239" fill="none" id="BE-to-SW" style="stroke:#181818;stroke-width:1;"/><polygon fill="#181818" points="1015.71,557.19,1009.2854,549.7251,1011.1904,555.0516,1005.8639,556.9565,1015.71,557.19" style="stroke:#181818;stroke-width:1;"/><text fill="#000000" font-family="sans-serif" font-size="13" lengthAdjust="spacing" textLength="145.7168" x="943" y="523.5869">HTTPS POST (saliente)</text></g><!--link PG to VPG--><g class="link" data-entity-1="ent0010" data-entity-2="ent0013" data-link-type="dependency" data-source-line="32" id="lnk22"><path d="M220.79,619.86 C202.71,649.68 178.6713,689.3297 163.4613,714.4097" fill="none" id="PG-to-VPG" style="stroke:#181818;stroke-width:1;stroke-dasharray:7,7;"/><polygon fill="#181818" points="160.35,719.54,168.4371,713.9188,162.9428,715.2648,161.5968,709.7704,160.35,719.54" style="stroke:#181818;stroke-width:1;"/><text fill="#000000" font-family="sans-serif" font-size="13" lengthAdjust="spacing" textLength="120.1294" x="200" y="664.6769">datos persistentes</text></g><!--link RD to VRD--><g class="link" data-entity-1="ent0011" data-entity-2="ent0014" data-link-type="dependency" data-source-line="33" id="lnk23"><path d="M438.85,619.86 C425.79,649.68 408.5863,688.9637 397.6063,714.0437" fill="none" id="RD-to-VRD" style="stroke:#181818;stroke-width:1;stroke-dasharray:7,7;"/><polygon fill="#181818" points="395.2,719.54,402.4737,712.8997,397.2052,714.9597,395.1452,709.6913,395.2,719.54" style="stroke:#181818;stroke-width:1;"/><text fill="#000000" font-family="sans-serif" font-size="13" lengthAdjust="spacing" textLength="26.603" x="424" y="664.6769">AOF</text></g><!--link BE to VLOG--><g class="link" data-entity-1="ent0009" data-entity-2="ent0015" data-link-type="dependency" data-source-line="34" id="lnk24"><path d="M477.47,469.44 C493.82,481.22 511.61,495.48 526,510.52 C585.41,572.64 610.0226,670.8147 618.4626,713.3647" fill="none" id="BE-to-VLOG" style="stroke:#181818;stroke-width:1;stroke-dasharray:7,7;"/><polygon fill="#181818" points="619.63,719.25,621.8025,709.6437,618.6572,714.3456,613.9554,711.2002,619.63,719.25" style="stroke:#181818;stroke-width:1;"/><text fill="#000000" font-family="sans-serif" font-size="13" lengthAdjust="spacing" textLength="26.5903" x="599" y="593.3869">logs</text></g><!--link FE to GMN25--><g class="link" data-entity-1="ent0007" data-entity-2="ent0026" data-link-type="association" data-source-line="37" id="lnk27"><path d="M559.29,243.33 C577.36,213.64 607.02,169.16 640,136.8 C673.51,103.91 697.16,95.37 742,109.3 C820.42,133.65 888.93,206.45 922.34,247.01" fill="none" id="FE-GMN25" style="stroke:#181818;stroke-width:1;stroke-dasharray:7,7;"/></g><!--link BE to GMN28--><g class="link" data-entity-1="ent0009" data-entity-2="ent0029" data-link-type="association" data-source-line="43" id="lnk30"><path d="M513.12,405.97 C624.09,367.82 826.57,312.92 998,346.89 C1047.09,356.62 1098.21,381.04 1135.8,402.11" fill="none" id="BE-GMN28" style="stroke:#181818;stroke-width:1;stroke-dasharray:7,7;"/></g><!--link HOST to GMN31--><g class="link" data-entity-1="ent0005" data-entity-2="ent0032" data-link-type="association" data-source-line="50" id="lnk33"><path d="M762.0462,287.3779 C762.2428,287.6499 762.4423,287.9256 762.6446,288.2048 C764.263,290.4391 766.0603,292.9037 767.9938,295.53 C775.7275,306.035 785.64,319.125 795,330.39 C813.04,352.11 834.05,375.36 851.9,394.57" fill="none" id="HOST-GMN31" style="stroke:#181818;stroke-width:1;stroke-dasharray:7,7;"/></g><?plantuml-src VLJDSjem4BxxANR89N_y9AH9oY4p46oWum6AdN3fHTWBQ68a8ia9cKvc-X0zzL5wpPlqIRgIJSeacN90rkwt-dO_hLRVSR5cYgr0Brag7xbOm9nb6ZtzwX4oHOrhk6pi61KJTzPutl0ybXYfe7AZSwQuh03JSECbcSnJgFIVrgWoVf_p5C8Jv-k7MsU4we4dNC8KPqifxxw9VN4f3XmgcdgUPQOZf3RGbSaTAlZpuoSCn9mBRX02ZbcwASuSHJ5yzu1-2XF3n2AZo0ccBPWxL1NJ1Jget-tviEStWzEWMuRONy4rLr8O5AdDPC751evWWbGVp7AUfKLcWU-2dl_7nkaK9LZc0WR36FQ286ZwZNU4CqPrERwXtPysY768sdo92hAE_ngGCiDcJ5FGcXHPADGKDIu-ewyXd9mN8UFU1o4AKsxn4xl21R6qHq61dtHtwfdBB2MTAxSoU_czGe7QOMv7OKIYNVj1SB9J0rE6pwqybRBkRMPLorn4xgJp3kwosi6MgNo8BPMgPd9HvXIEUcNcpvvt0zNg5TqDjA0Vn-C8piwQ7csjjRErGfsjUVsGgfz6K7_KzKElKq36FOB4rsFuTDOytHedtT9uthpul3NsGp9ImqQs8mtiQvPnfEi-s0AYwMiEOzkMEmYFQ6grAoiAOQXkgO7UX-RQM83sYD7v7JFTa3tJ6QXMijZQxREWvbTyiJGWvqKxllmIF96mpb4P2RYX3sraoufG8tUCQiK5WpYCx7Q23qIAi5PoymHigyfJ8KdD8vd1ahobSiqOvJENxuhfbjrMnnC_EgPrCEpvTWtzTlVOUQxRSTjQsg4_iQj_smxjEXp50m8SWVz0PNTo3IXiCWbg-PPy9esHAyjktpX5jNCZgN5e1DZ9aM86YNkpc4f5RgEeDHBwMuAarpcJqZZGaZhJrXv9aHA2tXfT2msXDOqkNSuXwsyh6cttEO9KAGgQYIqeEu-SgEcs62csxNFIpFNmFyt-0W00?></g></svg>