<?plantuml 1.2026.1?><svg xmlns="http://www.w3.org/2000/svg" xmlns:xlink="http://www.w3.org/1999/xlink" contentStyleType="text/css" data-diagram-type="DESCRIPTION" height="974px" preserveAspectRatio="none" style="width:1787px;height:974px;background:#FFFFFF;" version="1.1" viewBox="0 0 1787 974" width="1787px" zoomAndPan="magnify"><defs/><g><!--cluster PRES--><g class="cluster" data-qualified-name="PRES" data-source-line="10" id="ent0005"><rect fill="#E3F2FD" height="345" rx="2.5" ry="2.5" style="stroke:#181818;stroke-width:1;" width="212.11" x="671.14" y="130.185"/><text fill="#000000" font-family="sans-serif" font-size="14" font-weight="bold" lengthAdjust="spacing" textLength="103.2773" x="725.5563" y="145.1801">Presentaci&#243;n</text></g><!--cluster INFRA--><g class="cluster" data-qualified-name="INFRA" data-source-line="16" id="ent0009"><rect fill="#FFF3E0" height="443" rx="2.5" ry="2.5" style="stroke:#181818;stroke-width:1;" width="593.85" x="296.18" y="515.185"/><text fill="#000000" font-family="sans-serif" font-size="14" font-weight="bold" lengthAdjust="spacing" textLength="120.3193" x="532.9453" y="530.1801">Infraestructura</text></g><!--cluster APP--><g class="cluster" data-qualified-name="APP" data-source-line="24" id="ent0015"><rect fill="#E8F5E9" height="295" rx="2.5" ry="2.5" style="stroke:#181818;stroke-width:1;" width="761.39" x="1020.03" y="491.185"/><text fill="#000000" font-family="sans-serif" font-size="14" font-weight="bold" lengthAdjust="spacing" textLength="80.8828" x="1360.2836" y="506.1801">Aplicaci&#243;n</text></g><!--cluster DOM--><g class="cluster" data-qualified-name="DOM" data-source-line="34" id="ent0023"><rect fill="#F3E5F5" height="247" rx="2.5" ry="2.5" style="stroke:#181818;stroke-width:1;" width="466.28" x="1292.51" y="132.185"/><text fill="#000000" font-family="sans-serif" font-size="14" font-weight="bold" lengthAdjust="spacing" textLength="65.0098" x="1493.1451" y="147.1801">Dominio</text></g><!--entity REST--><g class="entity" data-qualified-name="PRES.REST" data-source-line="11" id="ent0006"><rect fill="#F1F1F1" height="62.5938" rx="2.5" ry="2.5" style="stroke:#181818;stroke-width:0.5;" width="139.5313" x="707.43" y="388.885"/><rect fill="#F1F1F1" height="10" style="stroke:#181818;stroke-width:0.5;" width="15" x="826.9613" y="393.885"/><rect fill="#F1F1F1" height="2" style="stroke:#181818;stroke-width:0.5;" width="4" x="824.9613" y="395.885"/><rect fill="#F1F1F1" height="2" style="stroke:#181818;stroke-width:0.5;" width="4" x="824.9613" y="399.885"/><text fill="#000000" font-family="sans-serif" font-size="14" lengthAdjust="spacing" textLength="99.5313" x="722.43" y="421.8801">Routes Fastify</text><text fill="#000000" font-family="sans-serif" font-size="14" lengthAdjust="spacing" textLength="46.9355" x="722.43" y="438.177">(REST)</text></g><!--entity WS--><g class="entity" data-qualified-name="PRES.WS" data-source-line="12" id="ent0007"><rect fill="#F1F1F1" height="62.5938" rx="2.5" ry="2.5" style="stroke:#181818;stroke-width:0.5;" width="164.1133" x="695.14" y="192.885"/><rect fill="#F1F1F1" height="10" style="stroke:#181818;stroke-width:0.5;" width="15" x="839.2533" y="197.885"/><rect fill="#F1F1F1" height="2" style="stroke:#181818;stroke-width:0.5;" width="4" x="837.2533" y="199.885"/><rect fill="#F1F1F1" height="2" style="stroke:#181818;stroke-width:0.5;" width="4" x="837.2533" y="203.885"/><text fill="#000000" font-family="sans-serif" font-size="14" lengthAdjust="spacing" textLength="89.0244" x="710.14" y="225.8801">Gateway WS</text><text fill="#000000" font-family="sans-serif" font-size="14" lengthAdjust="spacing" textLength="124.1133" x="710.14" y="242.177">(/ws/leaderboard)</text></g><!--entity SPA--><g class="entity" data-qualified-name="PRES.SPA" data-source-line="13" id="ent0008"><rect fill="#F1F1F1" height="62.5938" rx="2.5" ry="2.5" style="stroke:#181818;stroke-width:0.5;" width="111.4629" x="721.46" y="290.885"/><rect fill="#F1F1F1" height="10" style="stroke:#181818;stroke-width:0.5;" width="15" x="812.9229" y="295.885"/><rect fill="#F1F1F1" height="2" style="stroke:#181818;stroke-width:0.5;" width="4" x="810.9229" y="297.885"/><rect fill="#F1F1F1" height="2" style="stroke:#181818;stroke-width:0.5;" width="4" x="810.9229" y="301.885"/><text fill="#000000" font-family="sans-serif" font-size="14" lengthAdjust="spacing" textLength="71.4629" x="736.46" y="323.8801">SPA React</text><text fill="#000000" font-family="sans-serif" font-size="14" lengthAdjust="spacing" textLength="57.7637" x="736.46" y="340.177">(/public)</text></g><!--entity HLC--><g class="entity" data-qualified-name="INFRA.HLC" data-source-line="17" id="ent0010"><rect fill="#F1F1F1" height="62.5938" rx="2.5" ry="2.5" style="stroke:#181818;stroke-width:0.5;" width="183.8281" x="321.93" y="773.885"/><rect fill="#F1F1F1" height="10" style="stroke:#181818;stroke-width:0.5;" width="15" x="485.7581" y="778.885"/><rect fill="#F1F1F1" height="2" style="stroke:#181818;stroke-width:0.5;" width="4" x="483.7581" y="780.885"/><rect fill="#F1F1F1" height="2" style="stroke:#181818;stroke-width:0.5;" width="4" x="483.7581" y="784.885"/><text fill="#000000" font-family="sans-serif" font-size="14" lengthAdjust="spacing" textLength="118.6035" x="336.93" y="806.8801">PublicWsAdapter</text><text fill="#000000" font-family="sans-serif" font-size="14" lengthAdjust="spacing" textLength="143.8281" x="336.93" y="823.177">(IHyperliquidSource)</text></g><!--entity NRA--><g class="entity" data-qualified-name="INFRA.NRA" data-source-line="18" id="ent0011"><rect fill="#F1F1F1" height="62.5938" rx="2.5" ry="2.5" style="stroke:#181818;stroke-width:0.5;" width="187.3213" x="320.18" y="871.885"/><rect fill="#F1F1F1" height="10" style="stroke:#181818;stroke-width:0.5;" width="15" x="487.5013" y="876.885"/><rect fill="#F1F1F1" height="2" style="stroke:#181818;stroke-width:0.5;" width="4" x="485.5013" y="878.885"/><rect fill="#F1F1F1" height="2" style="stroke:#181818;stroke-width:0.5;" width="4" x="485.5013" y="882.885"/><text fill="#000000" font-family="sans-serif" font-size="14" lengthAdjust="spacing" textLength="147.3213" x="335.18" y="904.8801">NanorethRpcAdapter</text><text fill="#000000" font-family="sans-serif" font-size="14" lengthAdjust="spacing" textLength="143.8281" x="335.18" y="921.177">(IHyperliquidSource)</text></g><!--entity WHC--><g class="entity" data-qualified-name="INFRA.WHC" data-source-line="19" id="ent0012"><rect fill="#F1F1F1" height="46.2969" rx="2.5" ry="2.5" style="stroke:#181818;stroke-width:0.5;" width="177.6621" x="688.36" y="714.035"/><rect fill="#F1F1F1" height="10" style="stroke:#181818;stroke-width:0.5;" width="15" x="846.0221" y="719.035"/><rect fill="#F1F1F1" height="2" style="stroke:#181818;stroke-width:0.5;" width="4" x="844.0221" y="721.035"/><rect fill="#F1F1F1" height="2" style="stroke:#181818;stroke-width:0.5;" width="4" x="844.0221" y="725.035"/><text fill="#000000" font-family="sans-serif" font-size="14" lengthAdjust="spacing" textLength="137.6621" x="703.36" y="747.0301">WebhookConnector</text></g><!--entity DRZ--><g class="entity" data-qualified-name="INFRA.DRZ" data-source-line="20" id="ent0013"><rect fill="#F1F1F1" height="62.5938" rx="2.5" ry="2.5" style="stroke:#181818;stroke-width:0.5;" width="127.9443" x="349.87" y="577.885"/><rect fill="#F1F1F1" height="10" style="stroke:#181818;stroke-width:0.5;" width="15" x="457.8143" y="582.885"/><rect fill="#F1F1F1" height="2" style="stroke:#181818;stroke-width:0.5;" width="4" x="455.8143" y="584.885"/><rect fill="#F1F1F1" height="2" style="stroke:#181818;stroke-width:0.5;" width="4" x="455.8143" y="588.885"/><text fill="#000000" font-family="sans-serif" font-size="14" lengthAdjust="spacing" textLength="84.9023" x="364.87" y="610.8801">Drizzle ORM</text><text fill="#000000" font-family="sans-serif" font-size="14" lengthAdjust="spacing" textLength="87.9443" x="364.87" y="627.177">(postgres-js)</text></g><!--entity BUS--><g class="entity" data-qualified-name="INFRA.BUS" data-source-line="21" id="ent0014"><rect fill="#F1F1F1" height="62.5938" rx="2.5" ry="2.5" style="stroke:#181818;stroke-width:0.5;" width="142.751" x="342.46" y="675.885"/><rect fill="#F1F1F1" height="10" style="stroke:#181818;stroke-width:0.5;" width="15" x="465.211" y="680.885"/><rect fill="#F1F1F1" height="2" style="stroke:#181818;stroke-width:0.5;" width="4" x="463.211" y="682.885"/><rect fill="#F1F1F1" height="2" style="stroke:#181818;stroke-width:0.5;" width="4" x="463.211" y="686.885"/><text fill="#000000" font-family="sans-serif" font-size="14" lengthAdjust="spacing" textLength="68.9951" x="357.46" y="708.8801">TypedBus</text><text fill="#000000" font-family="sans-serif" font-size="14" lengthAdjust="spacing" textLength="102.751" x="357.46" y="725.177">(EventEmitter)</text></g><!--entity LS--><g class="entity" data-qualified-name="APP.LS" data-source-line="25" id="ent0016"><rect fill="#F1F1F1" height="46.2969" rx="2.5" ry="2.5" style="stroke:#181818;stroke-width:0.5;" width="180.6631" x="1044.03" y="716.035"/><rect fill="#F1F1F1" height="10" style="stroke:#181818;stroke-width:0.5;" width="15" x="1204.6931" y="721.035"/><rect fill="#F1F1F1" height="2" style="stroke:#181818;stroke-width:0.5;" width="4" x="1202.6931" y="723.035"/><rect fill="#F1F1F1" height="2" style="stroke:#181818;stroke-width:0.5;" width="4" x="1202.6931" y="727.035"/><text fill="#000000" font-family="sans-serif" font-size="14" lengthAdjust="spacing" textLength="140.6631" x="1059.03" y="749.0301">LeaderboardService</text></g><!--entity TP--><g class="entity" data-qualified-name="APP.TP" data-source-line="26" id="ent0017"><rect fill="#F1F1F1" height="46.2969" rx="2.5" ry="2.5" style="stroke:#181818;stroke-width:0.5;" width="160.9619" x="1053.88" y="635.035"/><rect fill="#F1F1F1" height="10" style="stroke:#181818;stroke-width:0.5;" width="15" x="1194.8419" y="640.035"/><rect fill="#F1F1F1" height="2" style="stroke:#181818;stroke-width:0.5;" width="4" x="1192.8419" y="642.035"/><rect fill="#F1F1F1" height="2" style="stroke:#181818;stroke-width:0.5;" width="4" x="1192.8419" y="646.035"/><text fill="#000000" font-family="sans-serif" font-size="14" lengthAdjust="spacing" textLength="120.9619" x="1068.88" y="668.0301">TradePersistence</text></g><!--entity CS--><g class="entity" data-qualified-name="APP.CS" data-source-line="27" id="ent0018"><rect fill="#F1F1F1" height="46.2969" rx="2.5" ry="2.5" style="stroke:#181818;stroke-width:0.5;" width="154.0713" x="1057.32" y="554.035"/><rect fill="#F1F1F1" height="10" style="stroke:#181818;stroke-width:0.5;" width="15" x="1191.3913" y="559.035"/><rect fill="#F1F1F1" height="2" style="stroke:#181818;stroke-width:0.5;" width="4" x="1189.3913" y="561.035"/><rect fill="#F1F1F1" height="2" style="stroke:#181818;stroke-width:0.5;" width="4" x="1189.3913" y="565.035"/><text fill="#000000" font-family="sans-serif" font-size="14" lengthAdjust="spacing" textLength="114.0713" x="1072.32" y="587.0301">CatalogoService</text></g><!--entity MS--><g class="entity" data-qualified-name="APP.MS" data-source-line="28" id="ent0019"><rect fill="#F1F1F1" height="46.2969" rx="2.5" ry="2.5" style="stroke:#181818;stroke-width:0.5;" width="126.502" x="1349.31" y="716.035"/><rect fill="#F1F1F1" height="10" style="stroke:#181818;stroke-width:0.5;" width="15" x="1455.812" y="721.035"/><rect fill="#F1F1F1" height="2" style="stroke:#181818;stroke-width:0.5;" width="4" x="1453.812" y="723.035"/><rect fill="#F1F1F1" height="2" style="stroke:#181818;stroke-width:0.5;" width="4" x="1453.812" y="727.035"/><text fill="#000000" font-family="sans-serif" font-size="14" lengthAdjust="spacing" textLength="86.502" x="1364.31" y="749.0301">MetaService</text></g><!--entity AS--><g class="entity" data-qualified-name="APP.AS" data-source-line="29" id="ent0020"><rect fill="#F1F1F1" height="46.2969" rx="2.5" ry="2.5" style="stroke:#181818;stroke-width:0.5;" width="140.9395" x="1342.09" y="635.035"/><rect fill="#F1F1F1" height="10" style="stroke:#181818;stroke-width:0.5;" width="15" x="1463.0295" y="640.035"/><rect fill="#F1F1F1" height="2" style="stroke:#181818;stroke-width:0.5;" width="4" x="1461.0295" y="642.035"/><rect fill="#F1F1F1" height="2" style="stroke:#181818;stroke-width:0.5;" width="4" x="1461.0295" y="646.035"/><text fill="#000000" font-family="sans-serif" font-size="14" lengthAdjust="spacing" textLength="100.9395" x="1357.09" y="668.0301">AlertasService</text></g><!--entity EV--><g class="entity" data-qualified-name="APP.EV" data-source-line="30" id="ent0021"><rect fill="#F1F1F1" height="46.2969" rx="2.5" ry="2.5" style="stroke:#181818;stroke-width:0.5;" width="145.7861" x="1339.67" y="554.035"/><rect fill="#F1F1F1" height="10" style="stroke:#181818;stroke-width:0.5;" width="15" x="1465.4561" y="559.035"/><rect fill="#F1F1F1" height="2" style="stroke:#181818;stroke-width:0.5;" width="4" x="1463.4561" y="561.035"/><rect fill="#F1F1F1" height="2" style="stroke:#181818;stroke-width:0.5;" width="4" x="1463.4561" y="565.035"/><text fill="#000000" font-family="sans-serif" font-size="14" lengthAdjust="spacing" textLength="105.7861" x="1354.67" y="587.0301">wireEvaluacion</text></g><!--entity NS--><g class="entity" data-qualified-name="APP.NS" data-source-line="31" id="ent0022"><rect fill="#F1F1F1" height="62.5938" rx="2.5" ry="2.5" style="stroke:#181818;stroke-width:0.5;" width="174.2783" x="1583.14" y="699.885"/><rect fill="#F1F1F1" height="10" style="stroke:#181818;stroke-width:0.5;" width="15" x="1737.4183" y="704.885"/><rect fill="#F1F1F1" height="2" style="stroke:#181818;stroke-width:0.5;" width="4" x="1735.4183" y="706.885"/><rect fill="#F1F1F1" height="2" style="stroke:#181818;stroke-width:0.5;" width="4" x="1735.4183" y="710.885"/><text fill="#000000" font-family="sans-serif" font-size="14" lengthAdjust="spacing" textLength="134.2783" x="1598.14" y="732.8801">NotificacionService</text><text fill="#000000" font-family="sans-serif" font-size="14" lengthAdjust="spacing" textLength="104.6924" x="1598.14" y="749.177">+ RetryWorker</text></g><!--entity Tipos del dominio\n(Mercado, Token,\nOperacion, Precio, ?)--><g class="entity" data-qualified-name="DOM.Tipos del dominio.n.Mercado. Token..nOperacion. Precio. .." data-source-line="35" id="ent0024"><rect fill="#F1F1F1" height="78.8906" rx="2.5" ry="2.5" style="stroke:#181818;stroke-width:0.5;" width="192.1064" x="1316.51" y="276.735"/><rect fill="#F1F1F1" height="10" style="stroke:#181818;stroke-width:0.5;" width="15" x="1488.6164" y="281.735"/><rect fill="#F1F1F1" height="2" style="stroke:#181818;stroke-width:0.5;" width="4" x="1486.6164" y="283.735"/><rect fill="#F1F1F1" height="2" style="stroke:#181818;stroke-width:0.5;" width="4" x="1486.6164" y="287.735"/><text fill="#000000" font-family="sans-serif" font-size="14" lengthAdjust="spacing" textLength="123.7852" x="1331.51" y="309.7301">Tipos del dominio</text><text fill="#000000" font-family="sans-serif" font-size="14" lengthAdjust="spacing" textLength="121.7002" x="1331.51" y="326.027">(Mercado, Token,</text><text fill="#000000" font-family="sans-serif" font-size="14" lengthAdjust="spacing" textLength="152.1064" x="1331.51" y="342.3239">Operacion, Precio, &#8230;)</text></g><!--entity DomainEventMap--><g class="entity" data-qualified-name="DOM.DomainEventMap" data-source-line="36" id="ent0025"><rect fill="#F1F1F1" height="46.2969" rx="2.5" ry="2.5" style="stroke:#181818;stroke-width:0.5;" width="163.9766" x="1330.57" y="195.035"/><rect fill="#F1F1F1" height="10" style="stroke:#181818;stroke-width:0.5;" width="15" x="1474.5466" y="200.035"/><rect fill="#F1F1F1" height="2" style="stroke:#181818;stroke-width:0.5;" width="4" x="1472.5466" y="202.035"/><rect fill="#F1F1F1" height="2" style="stroke:#181818;stroke-width:0.5;" width="4" x="1472.5466" y="206.035"/><text fill="#000000" font-family="sans-serif" font-size="14" lengthAdjust="spacing" textLength="123.9766" x="1345.57" y="228.0301">DomainEventMap</text></g><!--entity DomainError--><g class="entity" data-qualified-name="DOM.DomainError" data-source-line="37" id="ent0026"><rect fill="#F1F1F1" height="46.2969" rx="2.5" ry="2.5" style="stroke:#181818;stroke-width:0.5;" width="129.0039" x="1605.78" y="293.035"/><rect fill="#F1F1F1" height="10" style="stroke:#181818;stroke-width:0.5;" width="15" x="1714.7839" y="298.035"/><rect fill="#F1F1F1" height="2" style="stroke:#181818;stroke-width:0.5;" width="4" x="1712.7839" y="300.035"/><rect fill="#F1F1F1" height="2" style="stroke:#181818;stroke-width:0.5;" width="4" x="1712.7839" y="304.035"/><text fill="#000000" font-family="sans-serif" font-size="14" lengthAdjust="spacing" textLength="89.0039" x="1620.78" y="326.0301">DomainError</text></g><!--entity U--><g class="entity" data-qualified-name="U" data-source-line="6" id="ent0002"><ellipse cx="413.8421" cy="280.535" fill="#F1F1F1" rx="8" ry="8" style="stroke:#181818;stroke-width:0.5;"/><path d="M413.8421,288.535 L413.8421,315.535 M400.8421,296.535 L426.8421,296.535 M413.8421,315.535 L400.8421,330.535 M413.8421,315.535 L426.8421,330.535" fill="none" style="stroke:#181818;stroke-width:0.5;"/><text fill="#000000" font-family="sans-serif" font-size="14" lengthAdjust="spacing" textLength="53.2041" x="387.24" y="345.0301">Usuario</text></g><!--entity HL--><g class="entity" data-qualified-name="HL" data-source-line="7" id="ent0003"><ellipse cx="56.7705" cy="775.535" fill="#F1F1F1" rx="8" ry="8" style="stroke:#181818;stroke-width:0.5;"/><path d="M56.7705,783.535 L56.7705,810.535 M43.7705,791.535 L69.7705,791.535 M56.7705,810.535 L43.7705,825.535 M56.7705,810.535 L69.7705,825.535" fill="none" style="stroke:#181818;stroke-width:0.5;"/><text fill="#000000" font-family="sans-serif" font-size="14" lengthAdjust="spacing" textLength="101.541" x="6" y="840.0301">Hyperliquid L1</text></g><!--entity SW--><g class="entity" data-qualified-name="SW" data-source-line="8" id="ent0004"><ellipse cx="1134.3537" cy="818.535" fill="#F1F1F1" rx="8" ry="8" style="stroke:#181818;stroke-width:0.5;"/><path d="M1134.3537,826.535 L1134.3537,853.535 M1121.3537,834.535 L1147.3537,834.535 M1134.3537,853.535 L1121.3537,868.535 M1134.3537,853.535 L1147.3537,868.535" fill="none" style="stroke:#181818;stroke-width:0.5;"/><text fill="#000000" font-family="sans-serif" font-size="14" lengthAdjust="spacing" textLength="125.4873" x="1071.61" y="883.0301">Servicio Webhook</text></g><g class="entity" data-qualified-name="GMN43" data-source-line="60" id="ent0044"><path d="M1569.61,68.055 L1569.61,108.3206 L1770.9469,108.3206 L1770.9469,78.055 L1760.9469,68.055 L1569.61,68.055" fill="#FEFFDD" style="stroke:#181818;stroke-width:0.5;"/><path d="M1760.9469,68.055 L1760.9469,78.055 L1770.9469,78.055 L1760.9469,68.055" fill="#FEFFDD" style="stroke:#181818;stroke-width:1;"/><text fill="#000000" font-family="sans-serif" font-size="13" lengthAdjust="spacing" textLength="71.3286" x="1575.61" y="85.1219">Capa pura.</text><text fill="#000000" font-family="sans-serif" font-size="13" lengthAdjust="spacing" textLength="180.3369" x="1575.61" y="100.2547">Sin dependencias externas.</text></g><g class="entity" data-qualified-name="GMN46" data-source-line="65" id="ent0047"><path d="M1031.21,411.485 L1031.21,466.8834 L1237.5108,466.8834 L1237.5108,421.485 L1227.5108,411.485 L1031.21,411.485" fill="#FEFFDD" style="stroke:#181818;stroke-width:0.5;"/><path d="M1227.5108,411.485 L1227.5108,421.485 L1237.5108,421.485 L1227.5108,411.485" fill="#FEFFDD" style="stroke:#181818;stroke-width:1;"/><text fill="#000000" font-family="sans-serif" font-size="13" lengthAdjust="spacing" textLength="156.4253" x="1037.21" y="428.5519">Composici&#243;n manual en</text><text fill="#000000" font-family="sans-serif" font-size="13" lengthAdjust="spacing" textLength="185.3008" x="1037.21" y="443.6847">server.ts (composition root).</text><text fill="#000000" font-family="sans-serif" font-size="13" lengthAdjust="spacing" textLength="170.1489" x="1037.21" y="458.8175">Inyecci&#243;n por constructor.</text></g><g class="entity" data-qualified-name="GMN49" data-source-line="71" id="ent0050"><path d="M294.54,166.915 L294.54,237.4462 L533.1377,237.4462 L533.1377,176.915 L523.1377,166.915 L294.54,166.915" fill="#FEFFDD" style="stroke:#181818;stroke-width:0.5;"/><path d="M523.1377,166.915 L523.1377,176.915 L533.1377,176.915 L523.1377,166.915" fill="#FEFFDD" style="stroke:#181818;stroke-width:1;"/><text fill="#000000" font-family="sans-serif" font-size="13" lengthAdjust="spacing" textLength="158.228" x="300.54" y="183.9819">Puerto hexagonal &#250;nico:</text><text fill="#000000" font-family="sans-serif" font-size="13" lengthAdjust="spacing" textLength="150.8838" x="300.54" y="199.1147">IHyperliquidSource con</text><text fill="#000000" font-family="sans-serif" font-size="13" lengthAdjust="spacing" textLength="217.5977" x="300.54" y="214.2475">dos adaptadores intercambiables</text><text fill="#000000" font-family="sans-serif" font-size="13" lengthAdjust="spacing" textLength="52.7935" x="300.54" y="229.3803">(RS-08).</text></g><!--link U to REST--><g class="link" data-entity-1="ent0002" data-entity-2="ent0006" data-link-type="dependency" data-source-line="40" id="lnk27"><path d="M440.83,318.095 C495.93,334.865 620.3301,372.7375 701.3301,397.3975" fill="none" id="U-to-REST" style="stroke:#181818;stroke-width:1;"/><polygon fill="#181818" points="707.07,399.145,699.6252,392.6972,702.2868,397.6888,697.2952,400.3504,707.07,399.145" style="stroke:#181818;stroke-width:1;"/><text fill="#000000" font-family="sans-serif" font-size="13" lengthAdjust="spacing" textLength="41.7485" x="584.64" y="352.2519">HTTPS</text></g><!--link U to WS--><g class="link" data-entity-1="ent0002" data-entity-2="ent0007" data-link-type="dependency" data-source-line="41" id="lnk28"><path d="M440.83,304.005 C493.26,291.525 607.7931,264.2644 689.1231,244.9044" fill="none" id="U-to-WS" style="stroke:#181818;stroke-width:1;"/><polygon fill="#181818" points="694.96,243.515,685.2784,241.7079,690.0959,244.6729,687.1309,249.4904,694.96,243.515" style="stroke:#181818;stroke-width:1;"/><text fill="#000000" font-family="sans-serif" font-size="13" lengthAdjust="spacing" textLength="73.0806" x="568.64" y="253.2519">WebSocket</text></g><!--link U to SPA--><g class="link" data-entity-1="ent0002" data-entity-2="ent0008" data-link-type="dependency" data-source-line="42" id="lnk29"><path d="M440.83,311.045 C499.25,312.985 636.0133,317.5257 715.1433,320.1557" fill="none" id="U-to-SPA" style="stroke:#181818;stroke-width:1;"/><polygon fill="#181818" points="721.14,320.355,712.2778,316.0582,716.1428,320.1889,712.0121,324.0538,721.14,320.355" style="stroke:#181818;stroke-width:1;"/><text fill="#000000" font-family="sans-serif" font-size="13" lengthAdjust="spacing" textLength="82.6021" x="564.14" y="311.2519">HTML/JS/CSS</text></g><!--link HL to HLC--><g class="link" data-entity-1="ent0003" data-entity-2="ent0010" data-link-type="dependency" data-source-line="43" id="lnk30"><path d="M107.89,805.185 C163.23,805.185 247.49,805.185 315.48,805.185" fill="none" id="HL-to-HLC" style="stroke:#181818;stroke-width:1;"/><polygon fill="#181818" points="321.48,805.185,312.48,801.185,316.48,805.185,312.48,809.185,321.48,805.185" style="stroke:#181818;stroke-width:1;"/><text fill="#000000" font-family="sans-serif" font-size="13" lengthAdjust="spacing" textLength="125.6772" x="138.54" y="801.2519">WebSocket + REST</text></g><!--link HLC to WHC--><g class="link" data-entity-1="ent0010" data-entity-2="ent0012" data-link-type="dependency" data-source-line="44" id="lnk31"><path d="M506.03,788.025 C561.85,777.525 627.0234,765.2541 682.2634,754.8641" fill="none" id="HLC-to-WHC" style="stroke:#181818;stroke-width:1;"/><polygon fill="#181818" points="688.16,753.755,678.5757,751.4876,683.2462,754.6792,680.0545,759.3497,688.16,753.755" style="stroke:#181818;stroke-width:1;"/><text fill="#000000" font-family="sans-serif" font-size="13" lengthAdjust="spacing" textLength="69.0244" x="570.64" y="759.2519">(no aplica)</text></g><!--link WHC to SW--><g class="link" data-entity-1="ent0012" data-entity-2="ent0004" data-link-type="dependency" data-source-line="45" id="lnk32"><path d="M853.52,760.725 C918.27,780.965 1004.8133,808.0048 1065.4333,826.9548" fill="none" id="WHC-to-SW" style="stroke:#181818;stroke-width:1;"/><polygon fill="#181818" points="1071.16,828.745,1063.7634,822.2419,1066.3877,827.2532,1061.3765,829.8775,1071.16,828.745" style="stroke:#181818;stroke-width:1;"/><text fill="#000000" font-family="sans-serif" font-size="13" lengthAdjust="spacing" textLength="80.1455" x="915.03" y="779.2519">HTTPS POST</text></g><!--link REST to APP--><g class="link" data-entity-1="ent0006" data-entity-2="ent0015" data-link-type="dependency" data-source-line="47" id="lnk33"><path d="M847.29,440.135 C891.94,452.935 951.35,469.795 1004.03,484.185 C1011.0838,486.1112 1018.3597,488.0783 1025.6963,490.0469 C1026.6134,490.293 1027.5315,490.5391 1028.4501,490.7851 C1028.9095,490.9081 1023.5729,489.4802 1024.0325,489.6031" fill="none" id="REST-to-APP" style="stroke:#181818;stroke-width:1;stroke-dasharray:7,7;"/><polygon fill="#181818" points="1029.8286,491.1541,1022.1685,484.9636,1024.9985,489.8616,1020.1005,492.6917,1029.8286,491.1541" style="stroke:#181818;stroke-width:1;"/></g><!--link WS to APP--><g class="link" data-entity-1="ent0007" data-entity-2="ent0015" data-link-type="dependency" data-source-line="48" id="lnk34"><path d="M859.57,245.255 C876.23,252.215 892.71,261.335 906.03,273.185 C970.47,330.555 967.08,363.915 996.03,445.185 C1001.96,461.855 991.86,471.335 1004.03,484.185 C1006.5438,486.8406 1009.2377,489.2982 1012.0801,491.5719 C1013.5014,492.7088 1014.9597,493.7998 1016.4512,494.8466 C1017.197,495.37 1017.9511,495.8823 1018.7129,496.3839 C1019.0938,496.6347 1014.418,493.6564 1014.8028,493.9017" fill="none" id="WS-to-APP" style="stroke:#181818;stroke-width:1;stroke-dasharray:7,7;"/><polygon fill="#181818" points="1019.8615,497.1281,1014.4243,488.9161,1015.6459,494.4395,1010.1225,495.661,1019.8615,497.1281" style="stroke:#181818;stroke-width:1;"/></g><!--link HLC to APP--><g class="link" data-entity-1="ent0010" data-entity-2="ent0015" data-link-type="dependency" data-source-line="49" id="lnk35"><path d="M506.2,817.415 C652.42,834.705 929.36,857.355 996.03,791.185 C1015.99,771.375 985.39,559.245 1004.03,538.185 C1006.4013,535.5056 1008.9702,533.0802 1011.7036,530.8877 C1013.0704,529.7915 1014.4782,528.7534 1015.9229,527.771 C1016.6453,527.2797 1017.3769,526.8024 1018.1172,526.3386 C1018.4874,526.1067 1018.8598,525.8782 1019.2342,525.6531 C1019.4214,525.5405 1014.4394,528.474 1014.6277,528.3631" fill="none" id="HLC-to-APP" style="stroke:#181818;stroke-width:1;stroke-dasharray:7,7;"/><polygon fill="#181818" points="1019.7975,525.3179,1010.0127,526.4391,1015.4893,527.8555,1014.0729,533.3322,1019.7975,525.3179" style="stroke:#181818;stroke-width:1;"/></g><!--link NRA to APP--><g class="link" data-entity-1="ent0011" data-entity-2="ent0015" data-link-type="dependency" data-source-line="50" id="lnk36"><path d="M508,924.565 C638.57,948.385 873.7,967.655 996.03,833.185 C1018.09,808.925 982.35,562.785 1004.03,538.185 C1006.3956,535.5 1008.9597,533.0697 1011.6888,530.8729 C1013.0534,529.7745 1014.4592,528.7345 1015.9021,527.7502 C1016.6236,527.258 1017.3543,526.7798 1018.0938,526.3152 C1018.4636,526.0829 1018.8355,525.854 1019.2096,525.6284 C1019.3966,525.5157 1014.4181,528.4553 1014.6062,528.3442" fill="none" id="NRA-to-APP" style="stroke:#181818;stroke-width:1;stroke-dasharray:7,7;"/><polygon fill="#181818" points="1019.7722,525.2926,1009.9888,526.426,1015.4672,527.8356,1014.0575,533.314,1019.7722,525.2926" style="stroke:#181818;stroke-width:1;"/></g><!--link WHC to APP--><g class="link" data-entity-1="ent0012" data-entity-2="ent0015" data-link-type="dependency" data-source-line="51" id="lnk37"><path d="M866.52,724.645 C912.72,713.245 965.81,691.535 996.03,650.185 C1010.75,630.035 987.12,556.535 1004.03,538.185 C1006.4544,535.5531 1009.07,533.1694 1011.8441,531.0132 C1013.2311,529.9351 1014.6578,528.9139 1016.12,527.947 C1016.8511,527.4635 1017.5911,526.9937 1018.3394,526.5371 C1018.7136,526.3088 1013.9134,529.1176 1014.2917,528.8959" fill="none" id="WHC-to-APP" style="stroke:#181818;stroke-width:1;stroke-dasharray:7,7;"/><polygon fill="#181818" points="1019.4682,525.8621,1009.6809,526.9618,1015.1545,528.3902,1013.726,533.8638,1019.4682,525.8621" style="stroke:#181818;stroke-width:1;"/></g><!--link DRZ to APP--><g class="link" data-entity-1="ent0013" data-entity-2="ent0015" data-link-type="dependency" data-source-line="52" id="lnk38"><path d="M478.29,601.145 C565.4,590.115 727.2975,569.6125 868.3413,551.75 C903.6022,547.2844 937.5598,542.9837 968.7196,539.0374 C984.2995,537.0642 999.18,535.1796 1013.1742,533.4072 C1014.9235,533.1856 1010.7065,533.7197 1012.4277,533.5017" fill="none" id="DRZ-to-APP" style="stroke:#181818;stroke-width:1;stroke-dasharray:7,7;"/><polygon fill="#181818" points="1018.3801,532.7478,1008.9489,529.9104,1013.4198,533.3761,1009.9541,537.847,1018.3801,532.7478" style="stroke:#181818;stroke-width:1;"/></g><!--link BUS to APP--><g class="link" data-entity-1="ent0014" data-entity-2="ent0015" data-link-type="dependency" data-source-line="53" id="lnk39"><path d="M485.46,692.535 C581.49,672.025 758.23,632.185 906.03,587.185 C946.78,574.775 964.26,582.575 996.03,554.185 C1001.95,548.885 997.6,542.875 1004.03,538.185 C1006.9206,536.0763 1009.9451,534.1513 1013.076,532.3955 C1014.6414,531.5176 1016.2334,530.682 1017.8487,529.8868 C1018.2525,529.688 1018.6577,529.4918 1019.0644,529.298 C1019.2677,529.2011 1014.0386,531.6515 1014.2426,531.5559" fill="none" id="BUS-to-APP" style="stroke:#181818;stroke-width:1;stroke-dasharray:7,7;"/><polygon fill="#181818" points="1019.6754,529.0092,1009.8285,529.2073,1015.1481,531.1314,1013.224,536.451,1019.6754,529.0092" style="stroke:#181818;stroke-width:1;"/></g><!--link APP to DOM--><g class="link" data-entity-1="ent0015" data-entity-2="ent0023" data-link-type="dependency" data-source-line="55" id="lnk40"><path d="M1231.0507,490.9328 C1231.1865,490.8101 1231.3219,490.6868 1231.4567,490.563 C1233.6134,488.5814 1235.64,486.4587 1237.51,484.185 C1324.32,378.645 1180.84,276.775 1276.51,179.185 C1279.1231,176.5194 1281.9259,174.1061 1284.8851,171.9241 C1286.3647,170.8331 1287.8834,169.7999 1289.437,168.822 C1290.2139,168.333 1290.9994,167.8579 1291.7932,167.3962 C1291.9917,167.2808 1286.9785,170.1383 1287.178,170.0246" fill="none" id="APP-to-DOM" style="stroke:#181818;stroke-width:1;"/><polygon fill="#181818" points="1292.3901,167.0525,1282.5905,168.0359,1288.0466,169.5292,1286.5533,174.9854,1292.3901,167.0525" style="stroke:#181818;stroke-width:1;"/></g><!--link INFRA to DOM--><g class="link" data-entity-1="ent0009" data-entity-2="ent0023" data-link-type="dependency" data-source-line="56" id="lnk41"><path d="M480.5059,514.919 C480.8629,514.7457 481.2207,514.5715 481.5794,514.3965 C482.2967,514.0465 483.0174,513.6932 483.7412,513.3366 C486.6366,511.91 489.5831,510.4304 492.5724,508.8976 C498.5509,505.832 504.7006,502.5537 510.955,499.0625 C560.99,471.1325 617.725,429.57 647.14,374.185 C653.71,361.815 645.08,131.935 655.14,122.185 C775.07,6 962.17,14.1975 1120.2788,51.9612 C1199.3331,70.8431 1271.1397,97.1166 1323.6783,118.9295 C1330.2456,121.6562 1336.5119,124.3131 1342.4536,126.8772 C1345.4245,128.1592 1348.3142,129.418 1351.1198,130.6508 C1351.8213,130.9589 1347.0281,128.8431 1347.719,129.148" fill="none" id="INFRA-to-DOM" style="stroke:#181818;stroke-width:1;"/><polygon fill="#181818" points="1353.2083,131.5704,1346.5893,124.2773,1348.6339,129.5517,1343.3594,131.5963,1353.2083,131.5704" style="stroke:#181818;stroke-width:1;"/></g><!--link PRES to DOM--><g class="link" data-entity-1="ent0005" data-entity-2="ent0023" data-link-type="dependency" data-source-line="57" id="lnk42"><path d="M885.5608,157.5236 C887.4427,157.5295 889.3425,157.5355 891.2596,157.5416 C895.0938,157.5537 898.9972,157.566 902.965,157.5786 C910.9008,157.6036 919.0947,157.6295 927.5098,157.6561 C944.34,157.7093 962.0552,157.7653 980.3604,157.8231 C1016.9706,157.9387 1055.9406,158.0619 1094.91,158.185 C1133.8794,158.3081 1172.8481,158.4312 1209.4559,158.5469 C1227.7598,158.6047 1245.4734,158.6607 1262.3018,158.7139 C1270.716,158.7405 1278.9088,158.7664 1286.8435,158.7914 C1287.8353,158.7946 1288.8231,158.7977 1289.8068,158.8008 C1290.2986,158.8023 1284.7895,158.7849 1285.2793,158.7865" fill="none" id="PRES-to-DOM" style="stroke:#181818;stroke-width:1;"/><polygon fill="#181818" points="1291.2792,158.8054,1282.2919,154.777,1286.2793,158.7896,1282.2666,162.777,1291.2792,158.8054" style="stroke:#181818;stroke-width:1;"/></g><!--link DOM to GMN43--><g class="link" data-entity-1="ent0023" data-entity-2="ent0044" data-link-type="association" data-source-line="60" id="lnk45"><path d="M1511.2228,132.07 C1511.8427,131.8979 1512.4635,131.7255 1513.0853,131.5529 C1515.5725,130.8623 1518.0748,130.1675 1520.5881,129.4697 C1525.6147,128.074 1530.6855,126.6661 1535.7681,125.2548 C1556.0987,119.61 1576.62,113.9125 1595.27,108.735" fill="none" id="DOM-GMN43" style="stroke:#181818;stroke-width:1;stroke-dasharray:7,7;"/></g><!--link APP to GMN46--><g class="link" data-entity-1="ent0015" data-entity-2="ent0047" data-link-type="association" data-source-line="65" id="lnk48"><path d="M1134.36,491.0872 C1134.36,491.0218 1134.36,490.9565 1134.36,490.8911 C1134.36,490.3681 1134.36,489.8452 1134.36,489.3222 C1134.36,488.2762 1134.36,487.2303 1134.36,486.1843 C1134.36,484.0924 1134.36,482.0005 1134.36,479.9084 C1134.36,475.7244 1134.36,471.54 1134.36,467.355" fill="none" id="APP-GMN46" style="stroke:#181818;stroke-width:1;stroke-dasharray:7,7;"/></g><!--link INFRA to GMN49--><g class="link" data-entity-1="ent0009" data-entity-2="ent0050" data-link-type="association" data-source-line="71" id="lnk51"><path d="M361.929,514.8605 C361.4917,514.6118 361.0526,514.3615 360.6117,514.1098 C332.3966,498.0009 297.0094,475.8669 264.8513,450.1238 C200.535,398.6375 149.135,332.715 193.86,271.685 C217.42,239.545 255.89,221.885 294.13,212.305" fill="none" id="INFRA-GMN49" style="stroke:#181818;stroke-width:1;stroke-dasharray:7,7;"/></g><?plantuml-src XLJDRjj64BxpAGREnK9iEQrX8FKXWAAVo8La4wHS0Orp694ZQIDgXzrTsb620dsQla1kkUPD-YITtQLi6G5QdZZpVVEpCz-ktIXTey4jr5XiS4MvsrK4XWg7UbLHOXy9TeqbFoYzWYLMbfArAWci8qFiTZKb5IqTE0QZLci7fV8v5EiamSAnWQDRsw1HV0HeuNRl74kagTGVZIfXybF0nfCzc9EvLuLYcDDYpRm9S3vFahPNE4eDMT8E2_NzgmvmcWrpU34y7_qy6i2N1EHxdt7ZoC88hLFBtPq-5iwiyy7J_LyalKD73xY3UIw4imTxLX6MP1QCfepSUHwPUTg3ZAH7JwoRHQMAI10W-VEWkokzD4ZMcQPmZS7GtzNrAEl1Yz5eT3vyjMym3KdcjbTYBGELl5S7WycvCGN54kD9FuPSesP3RftLnVz7NMUz6DKEiizQavznFDUupJamwlDdsVvDDfLaDLktalcUVhGnoo3xFV9cKgLysrWX3Uzb_CEjSj90PBszpPyDeLVBqGuMr4jJsS_hqSNmb_tn9q-JZYkda6dIpdjc14x9M2LgqoquIoFOHuSLh_WmiDy6JidXeN_Q-diL6OVs4Egrq8F8TdYFLICTimxGyBTsuYpg2KTXtORUwPUY16TsSpORYjEyVdxy0M-LRbK_k9dAvi-75wEB_T5dIiOC9LLGHgBCT4gcaAjs0ZFUa3wvqpUor53s14JmydC2__prT-T3kpNUej9X4LEidpkDaHtxVcxXzFHDK3l09OndipHlVVFS1rpwEvPpiI7N-htA8tSwEVirF-ldUJAU14X4-2m2NiPxvFqXvRWlyB5cmB3yJk8z8UdyiJoaDnAIX9QwtJTU5qdePM-4Adj35Fna-6oFXgZooH3nFHc9bvglAdDFuhtRM-6Ls1k9PaVjiyNBu0BeOurGowtjYf4hBJkgIPUYFoMRf4-YTusscuWFV7oRPS7EyTQdyHr86jxAWbMGFsnHDrW1QG6iA8XCrrauBYB7FvPWc5t7bxpIEofYM2rlOS4wlYDi_gDcEAG4fuq8d65Ddt35Maf-_wPLmPS-xmzFXCyjG2awHF-IYFJareFIpkjmkr2ugCWAupZBJr-zxXpK_nS0?></g></svg>