<?plantuml 1.2026.1?><svg xmlns="http://www.w3.org/2000/svg" xmlns:xlink="http://www.w3.org/1999/xlink" contentStyleType="text/css" data-diagram-type="DESCRIPTION" height="355px" preserveAspectRatio="none" style="width:1508px;height:355px;background:#FFFFFF;" version="1.1" viewBox="0 0 1508 355" width="1508px" zoomAndPan="magnify"><defs/><g><!--entity HLC--><g class="entity" data-qualified-name="HLC" data-source-line="5" id="ent0002"><rect fill="#F1F1F1" height="36.2969" rx="2.5" ry="2.5" style="stroke:#181818;stroke-width:0.5;" width="138.6035" x="118.03" y="15.55"/><text fill="#000000" font-family="sans-serif" font-size="14" lengthAdjust="spacing" textLength="118.6035" x="128.03" y="38.5451">PublicWsAdapter</text></g><!--entity LS--><g class="entity" data-qualified-name="LS" data-source-line="6" id="ent0003"><rect fill="#F1F1F1" height="36.2969" rx="2.5" ry="2.5" style="stroke:#181818;stroke-width:0.5;" width="160.6631" x="7" y="295.11"/><text fill="#000000" font-family="sans-serif" font-size="14" lengthAdjust="spacing" textLength="140.6631" x="17" y="318.1051">LeaderboardService</text></g><!--entity ROOT--><g class="entity" data-qualified-name="ROOT" data-source-line="7" id="ent0004"><rect fill="#F1F1F1" height="52.5938" rx="2.5" ry="2.5" style="stroke:#181818;stroke-width:0.5;" width="149.1035" x="493.78" y="7.4"/><text fill="#000000" font-family="sans-serif" font-size="14" lengthAdjust="spacing" textLength="61.5508" x="503.78" y="30.3951">server.ts</text><text fill="#000000" font-family="sans-serif" font-size="14" lengthAdjust="spacing" textLength="129.1035" x="503.78" y="46.692">(composition root)</text></g><!--entity EV--><g class="entity" data-qualified-name="EV" data-source-line="8" id="ent0005"><rect fill="#F1F1F1" height="52.5938" rx="2.5" ry="2.5" style="stroke:#181818;stroke-width:0.5;" width="125.7861" x="366.44" y="286.96"/><text fill="#000000" font-family="sans-serif" font-size="14" lengthAdjust="spacing" textLength="105.7861" x="376.44" y="309.9551">wireEvaluacion</text><text fill="#000000" font-family="sans-serif" font-size="14" lengthAdjust="spacing" textLength="70.6016" x="376.44" y="326.252">&#171;handler&#187;</text></g><!--entity GW--><g class="entity" data-qualified-name="GW" data-source-line="9" id="ent0006"><rect fill="#F1F1F1" height="52.5938" rx="2.5" ry="2.5" style="stroke:#181818;stroke-width:0.5;" width="170.7666" x="587.95" y="286.96"/><text fill="#000000" font-family="sans-serif" font-size="14" lengthAdjust="spacing" textLength="150.7666" x="597.95" y="309.9551">LeaderboardGateway</text><text fill="#000000" font-family="sans-serif" font-size="14" lengthAdjust="spacing" textLength="70.6016" x="597.95" y="326.252">&#171;handler&#187;</text></g><!--entity NS--><g class="entity" data-qualified-name="NS" data-source-line="10" id="ent0007"><rect fill="#F1F1F1" height="36.2969" rx="2.5" ry="2.5" style="stroke:#181818;stroke-width:0.5;" width="154.2783" x="912.19" y="15.55"/><text fill="#000000" font-family="sans-serif" font-size="14" lengthAdjust="spacing" textLength="134.2783" x="922.19" y="38.5451">NotificacionService</text></g><!--entity OBS--><g class="entity" data-qualified-name="OBS" data-source-line="11" id="ent0008"><rect fill="#F1F1F1" height="52.5938" rx="2.5" ry="2.5" style="stroke:#181818;stroke-width:0.5;" width="133.4561" x="953.6" y="286.96"/><text fill="#000000" font-family="sans-serif" font-size="14" lengthAdjust="spacing" textLength="105.3418" x="963.6" y="309.9551">Observabilidad</text><text fill="#000000" font-family="sans-serif" font-size="14" lengthAdjust="spacing" textLength="113.4561" x="963.6" y="326.252">(logger / health)</text></g><!--entity BUS--><g class="entity" data-qualified-name="BUS" data-source-line="13" id="ent0009"><path d="M616.2359,146.912 C619.7758,140.8537 623.702,142.4209 627.2649,146.8879 C631.1688,140.9171 636.1367,139.9955 640.1034,146.8248 C644.0237,141.072 648.7061,140.8278 652.0466,147.3872 C655.0122,142.8171 658.3968,142.3813 662.1763,146.4307 C666.0059,140.4025 670.4163,140.047 674.467,146.2078 C678.478,139.5867 682.9094,140.5988 686.7793,146.3482 C690.6573,140.8842 694.1346,141.3239 697.5071,146.842 C700.933,140.1992 706.0246,140.9921 709.8838,146.3968 C713.108,141.1555 718.5715,141.2965 721.9218,146.2478 C725.5154,142.4075 730.2873,143.0947 732.0521,148.2967 C737.4314,151.1013 739.0329,154.2195 734.6118,159.3033 C740.8949,160.825 742.4221,164.0689 739.0196,169.6978 C744.1254,175.9242 742.1325,179.8377 735.5797,183.0635 C740.741,186.9963 739.0027,191.717 733.4834,193.5056 C730.0356,199.5699 725.8155,199.0849 721.8441,194.0549 C718.8998,201.6127 713.5851,202.2687 708.5769,196.0413 C706.2783,200.2726 701.3751,200.8965 698.6327,196.5562 C694.4974,202.2512 689.5717,202.7664 685.8842,196.0946 C683.7449,202.0228 678.458,202.2897 675.2909,197.0714 C671.4511,203.0345 665.9598,203.8762 662.3371,196.8548 C657.9057,202.4075 653.859,201.5337 650.459,195.7719 C647.4641,200.8373 642.363,201.9873 639.0515,196.1017 C634.7344,201.6399 631.1116,200.4777 627.4888,195.349 C622.5107,201.3429 618.4785,200.1759 615.4698,193.4832 C610.3116,190.546 610.6633,185.1792 615.4686,182.2408 C609.0512,178.937 609.1356,173.9842 614.4556,169.73 C609.3823,166.7905 608.5858,161.6548 613.9036,158.217 C609.2578,153.3457 610.855,149.7148 616.2359,146.912" fill="#F1F1F1" style="stroke:#181818;stroke-width:0.5;"/><text fill="#000000" font-family="sans-serif" font-size="14" lengthAdjust="spacing" textLength="68.9951" x="621.96" y="166.3851">TypedBus</text><text fill="#000000" font-family="sans-serif" font-size="14" lengthAdjust="spacing" textLength="102.751" x="621.96" y="182.682">(EventEmitter)</text></g><g class="entity" data-qualified-name="GMN22" data-source-line="30" id="ent0023"><path d="M1215.1,277.99 L1215.1,348.5213 L1501.5717,348.5213 L1501.5717,287.99 L1491.5717,277.99 L1215.1,277.99" fill="#FEFFDD" style="stroke:#181818;stroke-width:0.5;"/><path d="M1491.5717,277.99 L1491.5717,287.99 L1501.5717,287.99 L1491.5717,277.99" fill="#FEFFDD" style="stroke:#181818;stroke-width:1;"/><text fill="#000000" font-family="sans-serif" font-size="13" lengthAdjust="spacing" textLength="265.4717" x="1221.1" y="295.0569">In-process, tipado por DomainEventMap.</text><text fill="#000000" font-family="sans-serif" font-size="13" lengthAdjust="spacing" textLength="141.375" x="1221.1" y="310.1897">Pol&#237;tica at-most-once.</text><text fill="#000000" font-family="sans-serif" font-size="13" lengthAdjust="spacing" textLength="215.1665" x="1221.1" y="325.3225">Sub-milisegundo entre productor</text><text fill="#000000" font-family="sans-serif" font-size="13" lengthAdjust="spacing" textLength="92.1362" x="1221.1" y="340.4553">y consumidor.</text></g><g class="entity" data-qualified-name="GMN25" data-source-line="37" id="ent0026"><path d="M291.74,13.56 L291.74,29.7 L257.1,33.7 L291.74,37.7 L291.74,53.8256 A0,0 0 0 0 291.74,53.8256 L458.9202,53.8256 A0,0 0 0 0 458.9202,53.8256 L458.9202,23.56 L448.9202,13.56 L291.74,13.56 A0,0 0 0 0 291.74,13.56" fill="#FEFFDD" style="stroke:#181818;stroke-width:0.5;"/><path d="M448.9202,13.56 L448.9202,23.56 L458.9202,23.56 L448.9202,13.56" fill="#FEFFDD" style="stroke:#181818;stroke-width:0.5;"/><text fill="#000000" font-family="sans-serif" font-size="13" lengthAdjust="spacing" textLength="127.7212" x="297.74" y="30.6269">Productor principal:</text><text fill="#000000" font-family="sans-serif" font-size="13" lengthAdjust="spacing" textLength="146.1802" x="297.74" y="45.7597">trades v&#237;a WebSocket.</text></g><g class="entity" data-qualified-name="GMN28" data-source-line="42" id="ent0029"><path d="M677.9,6 L677.9,29.7 L643.03,33.7 L677.9,37.7 L677.9,61.3984 A0,0 0 0 0 677.9,61.3984 L876.755,61.3984 A0,0 0 0 0 876.755,61.3984 L876.755,16 L866.755,6 L677.9,6 A0,0 0 0 0 677.9,6" fill="#FEFFDD" style="stroke:#181818;stroke-width:0.5;"/><path d="M866.755,6 L866.755,16 L876.755,16 L866.755,6" fill="#FEFFDD" style="stroke:#181818;stroke-width:0.5;"/><text fill="#000000" font-family="sans-serif" font-size="13" lengthAdjust="spacing" textLength="177.855" x="683.9" y="23.0669">Traduce midsKey &#8594; display</text><text fill="#000000" font-family="sans-serif" font-size="13" lengthAdjust="spacing" textLength="168.7842" x="683.9" y="38.1997">y emite PrecioActualizado</text><text fill="#000000" font-family="sans-serif" font-size="13" lengthAdjust="spacing" textLength="112.874" x="683.9" y="53.3325">por cada cambio.</text></g><g class="entity" data-qualified-name="GMN31" data-source-line="48" id="ent0032"><path d="M1101.28,13.56 L1101.28,29.7 L1066.96,33.7 L1101.28,37.7 L1101.28,53.8256 A0,0 0 0 0 1101.28,53.8256 L1261.3762,53.8256 A0,0 0 0 0 1261.3762,53.8256 L1261.3762,23.56 L1251.3762,13.56 L1101.28,13.56 A0,0 0 0 0 1101.28,13.56" fill="#FEFFDD" style="stroke:#181818;stroke-width:0.5;"/><path d="M1251.3762,13.56 L1251.3762,23.56 L1261.3762,23.56 L1251.3762,13.56" fill="#FEFFDD" style="stroke:#181818;stroke-width:0.5;"/><text fill="#000000" font-family="sans-serif" font-size="13" lengthAdjust="spacing" textLength="127.499" x="1107.28" y="30.6269">Productor en CU-14</text><text fill="#000000" font-family="sans-serif" font-size="13" lengthAdjust="spacing" textLength="139.0962" x="1107.28" y="45.7597">(confirmaci&#243;n / fallo).</text></g><!--link HLC to BUS--><g class="link" data-entity-1="ent0002" data-entity-2="ent0009" data-link-type="dependency" data-source-line="15" id="lnk10"><path d="M243.41,52.22 C253.67,55.34 264.31,58.51 274.33,61.39 C390.83,94.92 521.5928,129.4313 600.9628,150.0513" fill="none" id="HLC-to-BUS" style="stroke:#0277BD;stroke-width:2;"/><polygon fill="#0277BD" points="606.77,151.56,599.065,145.4255,601.9306,150.3028,597.0534,153.1684,606.77,151.56" style="stroke:#0277BD;stroke-width:2;"/><text fill="#000000" font-family="sans-serif" font-size="13" lengthAdjust="spacing" textLength="122.6177" x="440.33" y="104.4569">OperacionRecibida</text></g><!--link ROOT to BUS--><g class="link" data-entity-1="ent0004" data-entity-2="ent0009" data-link-type="dependency" data-source-line="16" id="lnk11"><path d="M580.2,60.45 C587.57,75.18 597.82,93.61 609.33,108.39 C617.4,118.75 622.8868,124.8521 632.4468,133.8321" fill="none" id="ROOT-to-BUS" style="stroke:#0277BD;stroke-width:2;"/><polygon fill="#0277BD" points="636.82,137.94,632.9988,128.8627,633.1756,134.5167,627.5216,134.6936,636.82,137.94" style="stroke:#0277BD;stroke-width:2;"/><text fill="#000000" font-family="sans-serif" font-size="13" lengthAdjust="spacing" textLength="115.4575" x="610.33" y="104.4569">PrecioActualizado</text></g><!--link LS to BUS--><g class="link" data-entity-1="ent0003" data-entity-2="ent0009" data-link-type="dependency" data-source-line="17" id="lnk12"><path d="M110.9,294.8 C137.83,275.81 183.94,246.13 228.33,230.99 C357.46,186.94 511.9939,175.1557 600.6539,171.9657" fill="none" id="LS-to-BUS" style="stroke:#1565C0;stroke-width:2;"/><polygon fill="#1565C0" points="606.65,171.75,597.512,168.0762,601.6532,171.9298,597.7996,176.071,606.65,171.75" style="stroke:#1565C0;stroke-width:2;"/><text fill="#000000" font-family="sans-serif" font-size="13" lengthAdjust="spacing" textLength="158.1328" x="229.33" y="244.0569">LeaderboardActualizado</text></g><!--link BUS to LS--><g class="link" data-entity-1="ent0009" data-entity-2="ent0003" data-link-type="dependency" data-source-line="22" id="lnk16"><path d="M606.73,172.3 C455.51,176.64 96.51,191.08 60.33,230.99 C44.16,248.83 55.7109,271.8096 68.9809,289.8196" fill="none" id="BUS-to-LS" style="stroke:#0277BD;stroke-width:2;"/><polygon fill="#0277BD" points="72.54,294.65,70.4216,285.0317,69.5741,290.6247,63.9811,289.7771,72.54,294.65" style="stroke:#0277BD;stroke-width:2;"/><text fill="#000000" font-family="sans-serif" font-size="13" lengthAdjust="spacing" textLength="122.6177" x="61.33" y="244.0569">OperacionRecibida</text></g><!--link EV to BUS--><g class="link" data-entity-1="ent0005" data-entity-2="ent0009" data-link-type="dependency" data-source-line="18" id="lnk13"><path d="M467.04,286.52 C491.75,270.01 524.99,248.46 555.33,230.99 C572.87,220.88 586.9539,213.3237 604.8939,204.1837" fill="none" id="EV-to-BUS" style="stroke:#C62828;stroke-width:2;"/><polygon fill="#C62828" points="610.24,201.46,600.405,201.9815,605.7849,203.7298,604.0366,209.1097,610.24,201.46" style="stroke:#C62828;stroke-width:2;"/><text fill="#000000" font-family="sans-serif" font-size="13" lengthAdjust="spacing" textLength="105.0537" x="556.33" y="244.0569">AlertaDisparada</text></g><!--link BUS to EV--><g class="link" data-entity-1="ent0009" data-entity-2="ent0005" data-link-type="dependency" data-source-line="23" id="lnk17"><path d="M606.65,176.14 C534.84,183.55 427.47,199.64 402.33,230.99 C389.5,246.99 395.1331,264.289 406.0231,281.509" fill="none" id="BUS-to-EV" style="stroke:#0277BD;stroke-width:2;"/><polygon fill="#0277BD" points="409.23,286.58,407.8003,276.8355,406.5575,282.3541,401.0389,281.1114,409.23,286.58" style="stroke:#0277BD;stroke-width:2;"/><text fill="#000000" font-family="sans-serif" font-size="13" lengthAdjust="spacing" textLength="115.4575" x="403.33" y="244.0569">PrecioActualizado</text></g><!--link NS to BUS--><g class="link" data-entity-1="ent0007" data-entity-2="ent0009" data-link-type="dependency" data-source-line="19" id="lnk14"><path d="M927.01,52.31 C916.12,55.36 904.9,58.48 894.33,61.39 C845.07,74.98 829.61,69.71 783.33,91.39 C757.12,103.68 735.2481,118.5318 714.7581,134.3618" fill="none" id="NS-to-BUS" style="stroke:#2E7D32;stroke-width:2;"/><polygon fill="#2E7D32" points="710.01,138.03,719.5776,135.693,713.9667,134.9731,714.6866,129.3623,710.01,138.03" style="stroke:#2E7D32;stroke-width:2;"/><text fill="#000000" font-family="sans-serif" font-size="13" lengthAdjust="spacing" textLength="152.293" x="784.33" y="104.4569">NotificacionConfirmada</text></g><!--link NS to BUS--><g class="link" data-entity-1="ent0007" data-entity-2="ent0009" data-link-type="dependency" data-source-line="20" id="lnk15"><path d="M982.61,52.13 C975.13,69.15 961.39,94.45 941.33,108.39 C881.61,149.9 803.9251,162.9372 746.0251,167.0272" fill="none" id="NS-to-BUS-1" style="stroke:#EF6C00;stroke-width:2;"/><polygon fill="#EF6C00" points="740.04,167.45,749.2995,170.8059,745.0276,167.0977,748.7358,162.8258,740.04,167.45" style="stroke:#EF6C00;stroke-width:2;"/><text fill="#000000" font-family="sans-serif" font-size="13" lengthAdjust="spacing" textLength="119.1392" x="960.33" y="104.4569">NotificacionFallida</text></g><!--link BUS to GW--><g class="link" data-entity-1="ent0009" data-entity-2="ent0006" data-link-type="dependency" data-source-line="24" id="lnk18"><path d="M671.51,201.36 C671.03,210.85 670.57,221.35 670.33,230.99 C669.87,249.62 670.343,264.6495 671.243,280.6495" fill="none" id="BUS-to-GW" style="stroke:#1565C0;stroke-width:2;"/><polygon fill="#1565C0" points="671.58,286.64,675.0682,277.4296,671.2992,281.6479,667.0809,277.8788,671.58,286.64" style="stroke:#1565C0;stroke-width:2;"/><text fill="#000000" font-family="sans-serif" font-size="13" lengthAdjust="spacing" textLength="158.1328" x="671.33" y="244.0569">LeaderboardActualizado</text></g><!--link BUS to OBS--><g class="link" data-entity-1="ent0009" data-entity-2="ent0008" data-link-type="dependency" data-source-line="25" id="lnk19"><path d="M740.01,194.26 C769.18,204.93 803.68,218.04 834.33,230.99 C850.63,237.88 854.2,240.73 870.33,247.99 C899.27,261.01 926.0667,272.5963 953.2867,284.1463" fill="none" id="BUS-to-OBS" style="stroke:#C62828;stroke-width:2;"/><polygon fill="#C62828" points="958.81,286.49,952.0874,279.2923,954.2072,284.5369,948.9626,286.6567,958.81,286.49" style="stroke:#C62828;stroke-width:2;"/><text fill="#000000" font-family="sans-serif" font-size="13" lengthAdjust="spacing" textLength="105.0537" x="871.33" y="244.0569">AlertaDisparada</text></g><!--link BUS to OBS--><g class="link" data-entity-1="ent0009" data-entity-2="ent0008" data-link-type="dependency" data-source-line="26" id="lnk20"><path d="M740.12,176.76 C819.07,185.11 944.43,202.45 981.33,230.99 C999.03,244.68 1007.4146,262.6805 1012.8746,280.9805" fill="none" id="BUS-to-OBS-1" style="stroke:#2E7D32;stroke-width:2;"/><polygon fill="#2E7D32" points="1014.59,286.73,1015.8499,276.9621,1013.1605,281.9387,1008.1838,279.2493,1014.59,286.73" style="stroke:#2E7D32;stroke-width:2;"/><text fill="#000000" font-family="sans-serif" font-size="13" lengthAdjust="spacing" textLength="152.293" x="997.33" y="244.0569">NotificacionConfirmada</text></g><!--link BUS to OBS--><g class="link" data-entity-1="ent0009" data-entity-2="ent0008" data-link-type="dependency" data-source-line="27" id="lnk21"><path d="M740.1,174.16 C866.61,181.42 1131.09,200.15 1158.33,230.99 C1185.67,261.93 1140.6261,282.6963 1093.1361,296.0463" fill="none" id="BUS-to-OBS-2" style="stroke:#EF6C00;stroke-width:2;"/><polygon fill="#EF6C00" points="1087.36,297.67,1097.1067,299.0851,1092.1734,296.3169,1094.9417,291.3837,1087.36,297.67" style="stroke:#EF6C00;stroke-width:2;"/><text fill="#000000" font-family="sans-serif" font-size="13" lengthAdjust="spacing" textLength="119.1392" x="1167.33" y="244.0569">NotificacionFallida</text></g><!--link BUS to GMN22--><g class="link" data-entity-1="ent0009" data-entity-2="ent0023" data-link-type="association" data-source-line="30" id="lnk24"><path d="M740.16,170.59 C880.63,171.42 1201.28,179.12 1295.33,230.99 C1314.56,241.59 1329.85,260.77 1340.56,277.83" fill="none" id="BUS-GMN22" style="stroke:#181818;stroke-width:1;stroke-dasharray:7,7;"/></g><?plantuml-src VPHVJXin4CRVVOeHVIaIeI4jVuGG4la3hPecY0No47ZmsfF4mkjPsTv4wG5wWDw3fnw1c_GadLrI6aBIbqZnVD_Cvv_j3G_6vTBB3C94QfePDuQHj055UAaeod9ow68IvnR1euhIZIsAYT488Q97YlCSXHXU5garQX3EjCnv_HvaWC_TbXXsKMhqAKcl4_HJex2gTHCn3FmV_MuCT-vzDIgOQCY19uhRbUggtxyMmvdns9bAMqZ5vJjtSZAHJblqfwULgdFxQio5Z3YJyxUwYu4OzYYQaL5Lf-KyFSxJJyj4CZNMQAavbANn63ryW0bA6oVFcVhDH0XbgT2mTSsRrysYt41dofmwcOcy--sjKjYyOI4pWDhmNRrnUDXixwHazNtjj2p1CVHpz5MGArGcvPcYtEz6-INpDtIcOY6j-Svd9hf9ATxRFzXlrLV4IpoM7PtRqj4wQ1mrZbOSPmmgohO9vTbpbbxLlD4vR7zih4YN8RR8ZOpF_ZawvmUjUlq_ZdDfIy12bAMtc-skHxDUpFjP1sOXNY5pCTWCPk5O8SDdlORCGhk2vbcx0St2iiBchUM5ZQE8a5ACb06Dghi4yCNLSayAGzY1Q7BE3JbvQ5CcZQiku3UPxxBmakpJO-IU86Cjen1hv1IMbQH8QnbVy83Zmh6VFHw1k-f2HVAicFEpTw78Z2Q_Az1fABCi4dapdiGoKFcsUSvV7tSmJd4aUypBaJ5XWEdJeuG1fWcf1uoRUrMl7E2QNOL2uCdXAyxXzu-Ve1cwbVCg5lBZmZM73HK4nPZv9qiDRPxKIrw5HWUjczhU9rxa3z3pOIdpzClna-TleQNjfLP_0000?></g></svg>