<svg xmlns="http://www.w3.org/2000/svg" xmlns:xlink="http://www.w3.org/1999/xlink" contentStyleType="text/css" data-diagram-type="DESCRIPTION" height="753px" preserveAspectRatio="none" style="width:1339px;height:753px;background:#FFFFFF;" version="1.1" viewBox="0 0 1339 753" width="1339px" zoomAndPan="magnify"><?plantuml 1.2026.3beta6?><defs/><g><!--cluster PRES--><g class="cluster" data-qualified-name="PRES" data-source-line="10" id="ent0005"><rect fill="#E3F2FD" height="194" rx="2.5" ry="2.5" style="stroke:#181818;stroke-width:1;" width="217" x="228.54" y="98.7"/><text fill="#000000" font-family="sans-serif" font-size="14" font-weight="700" lengthAdjust="spacing" textLength="181.125" x="246.4775" y="113.6951">Adaptadores primarios</text><text fill="#000000" font-family="sans-serif" font-size="14" font-weight="700" lengthAdjust="spacing" textLength="114.4678" x="279.8061" y="129.992">(Presentation)</text></g><!--cluster INFRA--><g class="cluster" data-qualified-name="INFRA" data-source-line="15" id="ent0008"><rect fill="#FFF3E0" height="423" rx="2.5" ry="2.5" style="stroke:#181818;stroke-width:1;" width="215.58" x="229.75" y="316.7"/><text fill="#000000" font-family="sans-serif" font-size="14" font-weight="700" lengthAdjust="spacing" textLength="200.8945" x="237.0927" y="331.6951">Adaptadores secundarios</text><text fill="#000000" font-family="sans-serif" font-size="14" font-weight="700" lengthAdjust="spacing" textLength="123.6689" x="275.7055" y="347.992">(Infrastructure)</text></g><!--cluster CORE--><g class="cluster" data-qualified-name="CORE" data-source-line="22" id="ent0013"><rect fill="none" height="551" rx="2.5" ry="2.5" style="stroke:#181818;stroke-width:1;" width="805.32" x="520.54" y="77.7"/><text fill="#000000" font-family="sans-serif" font-size="14" font-weight="700" lengthAdjust="spacing" textLength="53.8945" x="896.2527" y="92.6951">N&#250;cleo</text></g><!--cluster APP--><g class="cluster" data-qualified-name="CORE.APP" data-source-line="23" id="ent0014"><rect fill="#E8F5E9" height="214" rx="2.5" ry="2.5" style="stroke:#181818;stroke-width:1;" width="479.76" x="552.54" y="382.7"/><text fill="#000000" font-family="sans-serif" font-size="14" font-weight="700" lengthAdjust="spacing" textLength="80.8828" x="751.9786" y="397.6951">Aplicaci&#243;n</text></g><!--cluster DOM--><g class="cluster" data-qualified-name="CORE.DOM" data-source-line="29" id="ent0019"><rect fill="#F3E5F5" height="214" rx="2.5" ry="2.5" style="stroke:#181818;stroke-width:1;" width="458.27" x="835.59" y="128.7"/><text fill="#000000" font-family="sans-serif" font-size="14" font-weight="700" lengthAdjust="spacing" textLength="65.0098" x="1032.2201" y="143.6951">Dominio</text></g><!--entity REST--><g class="entity" data-qualified-name="PRES.REST" data-source-line="11" id="ent0006"><rect fill="#F1F1F1" height="46.2969" rx="2.5" ry="2.5" style="stroke:#181818;stroke-width:0.5;" width="149.6348" x="262.22" y="230.55"/><rect fill="#F1F1F1" height="10" style="stroke:#181818;stroke-width:0.5;" width="15" x="391.8548" y="235.55"/><rect fill="#F1F1F1" height="2" style="stroke:#181818;stroke-width:0.5;" width="4" x="389.8548" y="237.55"/><rect fill="#F1F1F1" height="2" style="stroke:#181818;stroke-width:0.5;" width="4" x="389.8548" y="241.55"/><text fill="#000000" font-family="sans-serif" font-size="14" lengthAdjust="spacing" textLength="109.6348" x="277.22" y="263.5451">REST Controller</text></g><!--entity WS--><g class="entity" data-qualified-name="PRES.WS" data-source-line="12" id="ent0007"><rect fill="#F1F1F1" height="46.2969" rx="2.5" ry="2.5" style="stroke:#181818;stroke-width:0.5;" width="184.9971" x="244.54" y="149.55"/><rect fill="#F1F1F1" height="10" style="stroke:#181818;stroke-width:0.5;" width="15" x="409.5371" y="154.55"/><rect fill="#F1F1F1" height="2" style="stroke:#181818;stroke-width:0.5;" width="4" x="407.5371" y="156.55"/><rect fill="#F1F1F1" height="2" style="stroke:#181818;stroke-width:0.5;" width="4" x="407.5371" y="160.55"/><text fill="#000000" font-family="sans-serif" font-size="14" lengthAdjust="spacing" textLength="144.9971" x="259.54" y="182.5451">WebSocket Gateway</text></g><!--entity HLC--><g class="entity" data-qualified-name="INFRA.HLC" data-source-line="16" id="ent0009"><rect fill="#F1F1F1" height="62.5938" rx="2.5" ry="2.5" style="stroke:#181818;stroke-width:0.5;" width="120.3838" x="276.85" y="465.4"/><rect fill="#F1F1F1" height="10" style="stroke:#181818;stroke-width:0.5;" width="15" x="377.2338" y="470.4"/><rect fill="#F1F1F1" height="2" style="stroke:#181818;stroke-width:0.5;" width="4" x="375.2338" y="472.4"/><rect fill="#F1F1F1" height="2" style="stroke:#181818;stroke-width:0.5;" width="4" x="375.2338" y="476.4"/><text fill="#000000" font-family="sans-serif" font-size="14" lengthAdjust="spacing" textLength="80.3838" x="291.85" y="498.3951">Hyperliquid</text><text fill="#000000" font-family="sans-serif" font-size="14" lengthAdjust="spacing" textLength="72.208" x="291.85" y="514.692">Connector</text></g><!--entity WHC--><g class="entity" data-qualified-name="INFRA.WHC" data-source-line="17" id="ent0010"><rect fill="#F1F1F1" height="62.5938" rx="2.5" ry="2.5" style="stroke:#181818;stroke-width:0.5;" width="112.208" x="280.94" y="661.4"/><rect fill="#F1F1F1" height="10" style="stroke:#181818;stroke-width:0.5;" width="15" x="373.148" y="666.4"/><rect fill="#F1F1F1" height="2" style="stroke:#181818;stroke-width:0.5;" width="4" x="371.148" y="668.4"/><rect fill="#F1F1F1" height="2" style="stroke:#181818;stroke-width:0.5;" width="4" x="371.148" y="672.4"/><text fill="#000000" font-family="sans-serif" font-size="14" lengthAdjust="spacing" textLength="65.4541" x="295.94" y="694.3951">Webhook</text><text fill="#000000" font-family="sans-serif" font-size="14" lengthAdjust="spacing" textLength="72.208" x="295.94" y="710.692">Connector</text></g><!--entity TORM--><g class="entity" data-qualified-name="INFRA.TORM" data-source-line="18" id="ent0011"><rect fill="#F1F1F1" height="62.5938" rx="2.5" ry="2.5" style="stroke:#181818;stroke-width:0.5;" width="126.584" x="273.75" y="563.4"/><rect fill="#F1F1F1" height="10" style="stroke:#181818;stroke-width:0.5;" width="15" x="380.334" y="568.4"/><rect fill="#F1F1F1" height="2" style="stroke:#181818;stroke-width:0.5;" width="4" x="378.334" y="570.4"/><rect fill="#F1F1F1" height="2" style="stroke:#181818;stroke-width:0.5;" width="4" x="378.334" y="574.4"/><text fill="#000000" font-family="sans-serif" font-size="14" lengthAdjust="spacing" textLength="67.1631" x="288.75" y="596.3951">TypeORM</text><text fill="#000000" font-family="sans-serif" font-size="14" lengthAdjust="spacing" textLength="86.584" x="288.75" y="612.692">Repositories</text></g><!--entity IORED--><g class="entity" data-qualified-name="INFRA.IORED" data-source-line="19" id="ent0012"><rect fill="#F1F1F1" height="62.5938" rx="2.5" ry="2.5" style="stroke:#181818;stroke-width:0.5;" width="126.584" x="273.75" y="367.4"/><rect fill="#F1F1F1" height="10" style="stroke:#181818;stroke-width:0.5;" width="15" x="380.334" y="372.4"/><rect fill="#F1F1F1" height="2" style="stroke:#181818;stroke-width:0.5;" width="4" x="378.334" y="374.4"/><rect fill="#F1F1F1" height="2" style="stroke:#181818;stroke-width:0.5;" width="4" x="378.334" y="378.4"/><text fill="#000000" font-family="sans-serif" font-size="14" lengthAdjust="spacing" textLength="46.8945" x="288.75" y="400.3951">ioredis</text><text fill="#000000" font-family="sans-serif" font-size="14" lengthAdjust="spacing" textLength="86.584" x="288.75" y="416.692">Repositories</text></g><!--entity Servicios de aplicaci?n--><g class="entity" data-qualified-name="CORE.APP.Servicios de aplicaci.n" data-source-line="24" id="ent0015"><rect fill="#F1F1F1" height="46.2969" rx="2.5" ry="2.5" style="stroke:#181818;stroke-width:0.5;" width="199.8242" x="576.54" y="526.55"/><rect fill="#F1F1F1" height="10" style="stroke:#181818;stroke-width:0.5;" width="15" x="756.3642" y="531.55"/><rect fill="#F1F1F1" height="2" style="stroke:#181818;stroke-width:0.5;" width="4" x="754.3642" y="533.55"/><rect fill="#F1F1F1" height="2" style="stroke:#181818;stroke-width:0.5;" width="4" x="754.3642" y="537.55"/><text fill="#000000" font-family="sans-serif" font-size="14" lengthAdjust="spacing" textLength="159.8242" x="591.54" y="559.5451">Servicios de aplicaci&#243;n</text></g><!--entity Puertos de entrada--><g class="entity" data-qualified-name="CORE.APP.Puertos de entrada" data-source-line="25" id="ent0016"><rect fill="#F1F1F1" height="46.2969" rx="2.5" ry="2.5" style="stroke:#181818;stroke-width:0.5;" width="174.21" x="589.35" y="445.55"/><rect fill="#F1F1F1" height="10" style="stroke:#181818;stroke-width:0.5;" width="15" x="743.56" y="450.55"/><rect fill="#F1F1F1" height="2" style="stroke:#181818;stroke-width:0.5;" width="4" x="741.56" y="452.55"/><rect fill="#F1F1F1" height="2" style="stroke:#181818;stroke-width:0.5;" width="4" x="741.56" y="456.55"/><text fill="#000000" font-family="sans-serif" font-size="14" lengthAdjust="spacing" textLength="134.21" x="604.35" y="478.5451">Puertos de entrada</text></g><!--entity Puertos de salida--><g class="entity" data-qualified-name="CORE.APP.Puertos de salida" data-source-line="26" id="ent0017"><rect fill="#F1F1F1" height="46.2969" rx="2.5" ry="2.5" style="stroke:#181818;stroke-width:0.5;" width="160.5518" x="847.75" y="526.55"/><rect fill="#F1F1F1" height="10" style="stroke:#181818;stroke-width:0.5;" width="15" x="988.3018" y="531.55"/><rect fill="#F1F1F1" height="2" style="stroke:#181818;stroke-width:0.5;" width="4" x="986.3018" y="533.55"/><rect fill="#F1F1F1" height="2" style="stroke:#181818;stroke-width:0.5;" width="4" x="986.3018" y="537.55"/><text fill="#000000" font-family="sans-serif" font-size="14" lengthAdjust="spacing" textLength="120.5518" x="862.75" y="559.5451">Puertos de salida</text></g><!--entity Event Handlers--><g class="entity" data-qualified-name="CORE.APP.Event Handlers" data-source-line="27" id="ent0018"><rect fill="#F1F1F1" height="46.2969" rx="2.5" ry="2.5" style="stroke:#181818;stroke-width:0.5;" width="146.9756" x="854.54" y="445.55"/><rect fill="#F1F1F1" height="10" style="stroke:#181818;stroke-width:0.5;" width="15" x="981.5156" y="450.55"/><rect fill="#F1F1F1" height="2" style="stroke:#181818;stroke-width:0.5;" width="4" x="979.5156" y="452.55"/><rect fill="#F1F1F1" height="2" style="stroke:#181818;stroke-width:0.5;" width="4" x="979.5156" y="456.55"/><text fill="#000000" font-family="sans-serif" font-size="14" lengthAdjust="spacing" textLength="106.9756" x="869.54" y="478.5451">Event Handlers</text></g><!--entity Entidades--><g class="entity" data-qualified-name="CORE.DOM.Entidades" data-source-line="30" id="ent0020"><rect fill="#F1F1F1" height="46.2969" rx="2.5" ry="2.5" style="stroke:#181818;stroke-width:0.5;" width="109.3574" x="873.34" y="252.55"/><rect fill="#F1F1F1" height="10" style="stroke:#181818;stroke-width:0.5;" width="15" x="962.6974" y="257.55"/><rect fill="#F1F1F1" height="2" style="stroke:#181818;stroke-width:0.5;" width="4" x="960.6974" y="259.55"/><rect fill="#F1F1F1" height="2" style="stroke:#181818;stroke-width:0.5;" width="4" x="960.6974" y="263.55"/><text fill="#000000" font-family="sans-serif" font-size="14" lengthAdjust="spacing" textLength="69.3574" x="888.34" y="285.5451">Entidades</text></g><!--entity Value Objects--><g class="entity" data-qualified-name="CORE.DOM.Value Objects" data-source-line="31" id="ent0021"><rect fill="#F1F1F1" height="46.2969" rx="2.5" ry="2.5" style="stroke:#181818;stroke-width:0.5;" width="136.8721" x="859.59" y="171.55"/><rect fill="#F1F1F1" height="10" style="stroke:#181818;stroke-width:0.5;" width="15" x="976.4621" y="176.55"/><rect fill="#F1F1F1" height="2" style="stroke:#181818;stroke-width:0.5;" width="4" x="974.4621" y="178.55"/><rect fill="#F1F1F1" height="2" style="stroke:#181818;stroke-width:0.5;" width="4" x="974.4621" y="182.55"/><text fill="#000000" font-family="sans-serif" font-size="14" lengthAdjust="spacing" textLength="96.8721" x="874.59" y="204.5451">Value Objects</text></g><!--entity Eventos del dominio--><g class="entity" data-qualified-name="CORE.DOM.Eventos del dominio" data-source-line="32" id="ent0022"><rect fill="#F1F1F1" height="46.2969" rx="2.5" ry="2.5" style="stroke:#181818;stroke-width:0.5;" width="182.5635" x="1087.3" y="252.55"/><rect fill="#F1F1F1" height="10" style="stroke:#181818;stroke-width:0.5;" width="15" x="1249.8635" y="257.55"/><rect fill="#F1F1F1" height="2" style="stroke:#181818;stroke-width:0.5;" width="4" x="1247.8635" y="259.55"/><rect fill="#F1F1F1" height="2" style="stroke:#181818;stroke-width:0.5;" width="4" x="1247.8635" y="263.55"/><text fill="#000000" font-family="sans-serif" font-size="14" lengthAdjust="spacing" textLength="142.5635" x="1102.3" y="285.5451">Eventos del dominio</text></g><!--entity Excepciones--><g class="entity" data-qualified-name="CORE.DOM.Excepciones" data-source-line="33" id="ent0023"><rect fill="#F1F1F1" height="46.2969" rx="2.5" ry="2.5" style="stroke:#181818;stroke-width:0.5;" width="127.2607" x="1114.95" y="171.55"/><rect fill="#F1F1F1" height="10" style="stroke:#181818;stroke-width:0.5;" width="15" x="1222.2107" y="176.55"/><rect fill="#F1F1F1" height="2" style="stroke:#181818;stroke-width:0.5;" width="4" x="1220.2107" y="178.55"/><rect fill="#F1F1F1" height="2" style="stroke:#181818;stroke-width:0.5;" width="4" x="1220.2107" y="182.55"/><text fill="#000000" font-family="sans-serif" font-size="14" lengthAdjust="spacing" textLength="87.2607" x="1129.95" y="204.5451">Excepciones</text></g><!--entity U--><g class="entity" data-qualified-name="U" data-source-line="6" id="ent0002"><ellipse cx="56.7721" cy="190.05" fill="#F1F1F1" rx="8" ry="8" style="stroke:#181818;stroke-width:0.5;"/><path d="M56.7721,198.05 L56.7721,225.05 M43.7721,206.05 L69.7721,206.05 M56.7721,225.05 L43.7721,240.05 M56.7721,225.05 L69.7721,240.05" fill="none" style="stroke:#181818;stroke-width:0.5;"/><text fill="#000000" font-family="sans-serif" font-size="14" lengthAdjust="spacing" textLength="53.2041" x="30.17" y="254.5451">Usuario</text></g><!--entity HL--><g class="entity" data-qualified-name="HL" data-source-line="7" id="ent0003"><ellipse cx="56.7705" cy="467.05" fill="#F1F1F1" rx="8" ry="8" style="stroke:#181818;stroke-width:0.5;"/><path d="M56.7705,475.05 L56.7705,502.05 M43.7705,483.05 L69.7705,483.05 M56.7705,502.05 L43.7705,517.05 M56.7705,502.05 L69.7705,517.05" fill="none" style="stroke:#181818;stroke-width:0.5;"/><text fill="#000000" font-family="sans-serif" font-size="14" lengthAdjust="spacing" textLength="101.541" x="6" y="531.5451">Hyperliquid L1</text></g><!--entity SW--><g class="entity" data-qualified-name="SW" data-source-line="8" id="ent0004"><ellipse cx="676.4537" cy="663.05" fill="#F1F1F1" rx="8" ry="8" style="stroke:#181818;stroke-width:0.5;"/><path d="M676.4537,671.05 L676.4537,698.05 M663.4537,679.05 L689.4537,679.05 M676.4537,698.05 L663.4537,713.05 M676.4537,698.05 L689.4537,713.05" fill="none" style="stroke:#181818;stroke-width:0.5;"/><text fill="#000000" font-family="sans-serif" font-size="14" lengthAdjust="spacing" textLength="125.4873" x="613.71" y="727.5451">Servicio Webhook</text></g><g class="entity" data-qualified-name="GMN35" data-source-line="52" id="ent0036"><path d="M1115.07,644.43 L1115.07,714.9613 L1242.1013,714.9613 L1242.1013,654.43 L1232.1013,644.43 L1115.07,644.43" fill="#FEFFDD" style="stroke:#181818;stroke-width:0.5;"/><path d="M1232.1013,644.43 L1232.1013,654.43 L1242.1013,654.43 L1232.1013,644.43" fill="#FEFFDD" style="stroke:#181818;stroke-width:1;"/><text fill="#000000" font-family="sans-serif" font-size="13" lengthAdjust="spacing" textLength="84.7285" x="1121.07" y="661.4969">No conoce a:</text><text fill="#000000" font-family="sans-serif" font-size="13" lengthAdjust="spacing" textLength="75.2578" x="1121.07" y="676.6297">- Aplicaci&#243;n</text><text fill="#000000" font-family="sans-serif" font-size="13" lengthAdjust="spacing" textLength="106.0313" x="1121.07" y="691.7625">- Infraestructura</text><text fill="#000000" font-family="sans-serif" font-size="13" lengthAdjust="spacing" textLength="93.0313" x="1121.07" y="706.8953">- Presentaci&#243;n</text></g><g class="entity" data-qualified-name="GMN38" data-source-line="59" id="ent0039"><path d="M572.31,6 L572.31,61.3984 L780.5849,61.3984 L780.5849,16 L770.5849,6 L572.31,6" fill="#FEFFDD" style="stroke:#181818;stroke-width:0.5;"/><path d="M770.5849,6 L770.5849,16 L780.5849,16 L770.5849,6" fill="#FEFFDD" style="stroke:#181818;stroke-width:1;"/><text fill="#000000" font-family="sans-serif" font-size="13" lengthAdjust="spacing" textLength="179.3848" x="578.31" y="23.0669">Define puertos (interfaces).</text><text fill="#000000" font-family="sans-serif" font-size="13" lengthAdjust="spacing" textLength="187.2749" x="578.31" y="38.1997">La inversi&#243;n de dependencia</text><text fill="#000000" font-family="sans-serif" font-size="13" lengthAdjust="spacing" textLength="103.0732" x="578.31" y="53.3325">es DI de NestJS.</text></g><!--link U to REST--><g class="link" data-entity-1="ent0002" data-entity-2="ent0006" data-link-type="dependency" data-source-line="37" id="lnk24"><path d="M83.79,227 C99.28,231.07 119.4,235.87 137.54,238.7 C178.35,245.06 218.3197,248.4089 255.7297,250.5389" fill="none" id="U-to-REST" style="stroke:#181818;stroke-width:1;"/><polygon fill="#181818" points="261.72,250.88,252.9619,246.3749,256.7281,250.5958,252.5072,254.3619,261.72,250.88" style="stroke:#181818;stroke-width:1;"/><text fill="#000000" font-family="sans-serif" font-size="13" lengthAdjust="spacing" textLength="41.7485" x="154.54" y="234.7669">HTTPS</text></g><!--link U to WS--><g class="link" data-entity-1="ent0002" data-entity-2="ent0007" data-link-type="dependency" data-source-line="38" id="lnk25"><path d="M83.7,215.32 C120.06,209.18 182.1438,198.6892 238.3938,189.1892" fill="none" id="U-to-WS" style="stroke:#181818;stroke-width:1;"/><polygon fill="#181818" points="244.31,188.19,234.7696,185.7446,239.3798,189.0227,236.1018,193.6329,244.31,188.19" style="stroke:#181818;stroke-width:1;"/><text fill="#000000" font-family="sans-serif" font-size="13" lengthAdjust="spacing" textLength="73.0806" x="138.54" y="191.7669">WebSocket</text></g><!--link HL to HLC--><g class="link" data-entity-1="ent0003" data-entity-2="ent0009" data-link-type="dependency" data-source-line="39" id="lnk26"><path d="M107.84,496.7 C155.25,496.7 220.47,496.7 270.71,496.7" fill="none" id="HL-to-HLC" style="stroke:#181818;stroke-width:1;"/><polygon fill="#181818" points="276.71,496.7,267.71,492.7,271.71,496.7,267.71,500.7,276.71,496.7" style="stroke:#181818;stroke-width:1;"/><text fill="#000000" font-family="sans-serif" font-size="13" lengthAdjust="spacing" textLength="73.0806" x="138.54" y="492.7669">WebSocket</text></g><!--link WHC to SW--><g class="link" data-entity-1="ent0010" data-entity-2="ent0004" data-link-type="dependency" data-source-line="40" id="lnk27"><path d="M393.38,692.7 C453.86,692.7 544.52,692.7 607.5,692.7" fill="none" id="WHC-to-SW" style="stroke:#181818;stroke-width:1;"/><polygon fill="#181818" points="613.5,692.7,604.5,688.7,608.5,692.7,604.5,696.7,613.5,692.7" style="stroke:#181818;stroke-width:1;"/><text fill="#000000" font-family="sans-serif" font-size="13" lengthAdjust="spacing" textLength="41.7485" x="462.54" y="688.7669">HTTPS</text></g><!--link REST to APP--><g class="link" data-entity-1="ent0006" data-entity-2="ent0014" data-link-type="dependency" data-source-line="42" id="lnk28"><path d="M388.92,277.22 C435.31,298.67 505.4475,331.0975 564.7175,358.5013 C579.535,365.3522 593.6733,371.8891 606.5915,377.8621 C609.821,379.3553 607.5283,378.2952 610.5969,379.7141" fill="none" id="REST-to-APP" style="stroke:#181818;stroke-width:1;stroke-dasharray:7,7;"/><polygon fill="#181818" points="616.0429,382.2321,609.5526,374.8243,611.5046,380.1337,606.1952,382.0857,616.0429,382.2321" style="stroke:#181818;stroke-width:1;"/></g><!--link WS to APP--><g class="link" data-entity-1="ent0007" data-entity-2="ent0014" data-link-type="dependency" data-source-line="43" id="lnk29"><path d="M419.38,196.31 C431.18,201.03 442.92,206.48 453.54,212.7 C509.555,245.5 564.1875,293.735 605.2288,334.2663 C615.4891,344.3991 624.8999,354.0504 633.2706,362.8587 C637.4559,367.2628 641.3812,371.4562 645.0225,375.3937 C646.8432,377.3624 648.5929,379.2671 650.2687,381.1022 C650.6876,381.561 647.0628,377.5786 647.4724,378.0286" fill="none" id="WS-to-APP" style="stroke:#181818;stroke-width:1;stroke-dasharray:7,7;"/><polygon fill="#181818" points="651.5116,382.4654,648.4108,373.1174,648.1456,378.7681,642.495,378.5029,651.5116,382.4654" style="stroke:#181818;stroke-width:1;"/></g><!--link HLC to APP--><g class="link" data-entity-1="ent0009" data-entity-2="ent0014" data-link-type="dependency" data-source-line="44" id="lnk30"><path d="M397.44,469.73 C430.65,455.72 473.18,439.51 512.54,429.7 C521.2488,427.5288 530.2809,425.5891 539.4251,423.8568 C541.7111,423.4238 544.0042,423.0037 546.3009,422.5962 C547.4493,422.3924 548.5986,422.1918 549.7484,421.9943 C550.3233,421.8955 550.8983,421.7975 551.4734,421.7003 C551.7609,421.6517 546.1311,422.5955 546.4187,422.5473" fill="none" id="HLC-to-APP" style="stroke:#181818;stroke-width:1;stroke-dasharray:7,7;"/><polygon fill="#181818" points="552.3361,421.5551,542.7985,419.0985,547.4049,422.3819,544.1215,426.9883,552.3361,421.5551" style="stroke:#181818;stroke-width:1;"/></g><!--link WHC to APP--><g class="link" data-entity-1="ent0010" data-entity-2="ent0014" data-link-type="dependency" data-source-line="45" id="lnk31"><path d="M393.4,678.02 C414.12,670.4 436.7,659.33 453.54,643.7 C489.81,610.03 491.21,592.37 504.54,544.7 C507.99,532.36 503.72,438.99 512.54,429.7 C518.7175,423.1875 525.8413,417.9748 533.5849,413.8408 C537.4567,411.7737 541.4834,409.9763 545.6244,408.4209 C547.6949,407.6432 544.0646,408.708 546.1871,408.0479" fill="none" id="WHC-to-APP" style="stroke:#181818;stroke-width:1;stroke-dasharray:7,7;"/><polygon fill="#181818" points="551.9163,406.2658,542.1344,405.1194,547.1419,407.7509,544.5105,412.7584,551.9163,406.2658" style="stroke:#181818;stroke-width:1;"/></g><!--link TORM to APP--><g class="link" data-entity-1="ent0011" data-entity-2="ent0014" data-link-type="dependency" data-source-line="46" id="lnk32"><path d="M400.61,576.93 C419.16,569.47 438.51,559.29 453.54,545.7 C488.5,514.08 485.39,495.78 504.54,452.7 C508.93,442.81 504.12,436.5 512.54,429.7 C519.525,424.0625 527.2577,419.5095 535.4482,415.8596 C539.5435,414.0346 543.7532,412.4353 548.0412,411.0391 C549.1132,410.6901 550.1901,410.3537 551.2713,410.0297 C551.5416,409.9487 546.0549,411.5578 546.3258,411.4783" fill="none" id="TORM-to-APP" style="stroke:#181818;stroke-width:1;stroke-dasharray:7,7;"/><polygon fill="#181818" points="552.083,409.789,542.3209,408.4848,547.2853,411.1967,544.5733,416.1611,552.083,409.789" style="stroke:#181818;stroke-width:1;"/></g><!--link IORED to APP--><g class="link" data-entity-1="ent0012" data-entity-2="ent0014" data-link-type="dependency" data-source-line="47" id="lnk33"><path d="M400.71,400.74 C424.725,401.5225 453.5588,402.4625 483.3852,403.4352 C498.2984,403.9215 513.4597,404.416 528.391,404.903 C535.8566,405.1466 543.2647,405.3882 550.5555,405.6261 C551.0112,405.6409 545.4696,405.4601 545.9244,405.475" fill="none" id="IORED-to-APP" style="stroke:#181818;stroke-width:1;stroke-dasharray:7,7;"/><polygon fill="#181818" points="551.9212,405.6706,543.0564,401.3793,546.9238,405.5076,542.7955,409.375,551.9212,405.6706" style="stroke:#181818;stroke-width:1;"/></g><!--link APP to DOM--><g class="link" data-entity-1="ent0014" data-entity-2="ent0019" data-link-type="dependency" data-source-line="49" id="lnk34"><path d="M768.0895,382.4615 C771.7976,381.3471 775.5494,380.2196 779.3302,379.0834 C786.8918,376.811 794.5697,374.5036 802.2475,372.1963 C832.9588,362.9669 863.6694,353.7378 886.9384,346.7448 C889.8471,345.8707 892.6394,345.0315 895.301,344.2317 C896.6318,343.8317 897.9298,343.4416 899.1934,343.0619 C899.5093,342.9669 894.0769,344.5996 894.3884,344.5059" fill="none" id="APP-to-DOM" style="stroke:#181818;stroke-width:1;"/><polygon fill="#181818" points="900.1345,342.779,890.3641,341.5386,895.3461,344.2181,892.6666,349.2001,900.1345,342.779" style="stroke:#181818;stroke-width:1;"/></g><!--link DOM to GMN35--><g class="link" data-entity-1="ent0019" data-entity-2="ent0036" data-link-type="association" data-source-line="52" id="lnk37"><path d="M942.7314,342.8683 C950.7084,347.8053 961.5681,354.8031 973.6788,363.3713 C997.9,380.5075 1027.125,403.925 1048.3,429.7 C1103.98,497.47 1145.14,593.11 1164.76,644.22" fill="none" id="DOM-GMN35" style="stroke:#181818;stroke-width:1;stroke-dasharray:7,7;"/></g><!--link APP to GMN38--><g class="link" data-entity-1="ent0014" data-entity-2="ent0039" data-link-type="association" data-source-line="59" id="lnk40"><path d="M676.45,381.8272 C676.45,380.0177 676.45,378.2082 676.45,376.3987 C676.45,372.7797 676.45,369.1607 676.45,365.5417 C676.45,351.0657 676.45,336.5898 676.45,322.1141 C676.45,293.1625 676.45,264.2113 676.45,235.26 C676.45,177.3575 676.45,119.455 676.45,61.55" fill="none" id="APP-GMN38" style="stroke:#181818;stroke-width:1;stroke-dasharray:7,7;"/></g><?plantuml-src TLJBJXin5DtxAwvW0mkYjWYfPO64o4mdLKYYJ6WMXOMnRn8t4tjgUtYeugkwwvOVwxNdaGJHhCRdtCVnFTTnQwLBRla6IYxMV8cvVouGB0hFzR90vhe0j-BIF2gzX0Kl7BALaWZEeqNZdqja1IuyU0DMBLSUf0erbD6CSU6DXOCRLt6hp05m1pSjc56cBTIlIaaOVenSDcp97Es34ih07EzNngmZdSyPQxJ2mQNafITP5XsKLcr20tUhZoO4eFOy23YEQPDfaiDXSff-Illmcm7zVX0qWokZlJL5WVOkn0MiPgbfRiGQFNpb7X_vS-JdENlvZm27ejAobJ3G2ykTjvNmbSLQn62KJY_XC4tJq-H3gs9d1BUQr6WCjx-hHt7LQGa3UClFiuQVKOtnzFfMJx4qJX6lqCMG6S5rZ2AHKhbtOWRZQTBVkzRezQyeiFRgYjX6w_RQPQ445-hrZuunbvC93VTpUfPyQK9ZozP01xGgV9jpjmsPL6Xz7K26MIxv-wJZXThZaWUAXunhITQvcdZPLzat6wMRZUkFhsdmfybPUhQhCD6UoafqEvM_yw926D__f46xjnsZcW9aNNgNVH9OqbqrTc9eeZTmSd8HbmhE8PlD9da3pNCWfDinbWqZJ8xlmUHmnFDvbyzYjLxl8aoTKPtsC-HsSBRz3YlG7QBNtOa5uq9z6WzZsdXidgzPH0XWP40ORGJvTqx74zYnFfxZdcExw3nYxVEher1B2AMR1lV6UxC97O82W3ukb4Oe6w-FbAR_b0KNw8vxH0yvAFr05eTQOHCabbGHjL2X6Rsx_Y308zBmBUzrtVu1?></g></svg>