<svg xmlns="http://www.w3.org/2000/svg" xmlns:xlink="http://www.w3.org/1999/xlink" contentStyleType="text/css" data-diagram-type="DESCRIPTION" height="946px" preserveAspectRatio="none" style="width:1467px;height:946px;background:#FFFFFF;" version="1.1" viewBox="0 0 1467 946" width="1467px" zoomAndPan="magnify"><?plantuml 1.2026.3beta6?><defs/><g><!--cluster PRES--><g class="cluster" data-qualified-name="PRES" data-source-line="5" id="ent0002"><rect fill="#E3F2FD" height="122.59" rx="2.5" ry="2.5" style="stroke:#181818;stroke-width:1;" width="275" x="285.14" y="7"/><text fill="#000000" font-family="sans-serif" font-size="14" font-weight="700" lengthAdjust="spacing" textLength="101.4316" x="371.9242" y="21.9951">presentation</text></g><!--cluster APP--><g class="cluster" data-qualified-name="APP" data-source-line="10" id="ent0005"><rect fill="#E8F5E9" height="353.78" rx="2.5" ry="2.5" style="stroke:#181818;stroke-width:1;" width="442" x="118.14" y="169.59"/><text fill="#000000" font-family="sans-serif" font-size="14" font-weight="700" lengthAdjust="spacing" textLength="87.9102" x="295.1849" y="184.5851">application</text></g><!--cluster INFRA--><g class="cluster" data-qualified-name="INFRA" data-source-line="20" id="ent0013"><rect fill="#FFF3E0" height="238.19" rx="2.5" ry="2.5" style="stroke:#181818;stroke-width:1;" width="655" x="794.14" y="169.59"/><text fill="#000000" font-family="sans-serif" font-size="14" font-weight="700" lengthAdjust="spacing" textLength="110.4619" x="1066.409" y="184.5851">infrastructure</text></g><!--cluster DOM--><g class="cluster" data-qualified-name="DOM" data-source-line="28" id="ent0019"><rect fill="#F3E5F5" height="368.72" rx="2.5" ry="2.5" style="stroke:#181818;stroke-width:1;" width="447" x="135.14" y="563.37"/><text fill="#000000" font-family="sans-serif" font-size="14" font-weight="700" lengthAdjust="spacing" textLength="58.4404" x="329.4198" y="578.3651">domain</text></g><!--entity HTTP--><g class="entity" data-qualified-name="PRES.HTTP" data-source-line="6" id="ent0003"><path d="M312.1,50 L366.1771,50 A3.75,3.75 0 0 1 368.6771,52.5 L375.6771,72.2969 L390.1771,72.2969 A2.5,2.5 0 0 1 392.6771,74.7969 L392.6771,103.0938 A2.5,2.5 0 0 1 390.1771,105.5938 L312.1,105.5938 A2.5,2.5 0 0 1 309.6,103.0938 L309.6,52.5 A2.5,2.5 0 0 1 312.1,50" fill="#F1F1F1" style="stroke:#181818;stroke-width:0.5;"/><line style="stroke:#181818;stroke-width:0.5;" x1="309.6" x2="375.6771" y1="72.2969" y2="72.2969"/><text fill="#000000" font-family="sans-serif" font-size="14" font-weight="700" lengthAdjust="spacing" textLength="41.0771" x="319.6" y="65.9951">HTTP</text><text fill="#000000" font-family="sans-serif" font-size="14" lengthAdjust="spacing" textLength="28.7383" x="319.6" y="92.292">http</text></g><!--entity RT--><g class="entity" data-qualified-name="PRES.RT" data-source-line="7" id="ent0004"><path d="M430.4,50 L463.7301,50 A3.75,3.75 0 0 1 466.2301,52.5 L473.2301,72.2969 L513.8678,72.2969 A2.5,2.5 0 0 1 516.3678,74.7969 L516.3678,103.0938 A2.5,2.5 0 0 1 513.8678,105.5938 L430.4,105.5938 A2.5,2.5 0 0 1 427.9,103.0938 L427.9,52.5 A2.5,2.5 0 0 1 430.4,50" fill="#F1F1F1" style="stroke:#181818;stroke-width:0.5;"/><line style="stroke:#181818;stroke-width:0.5;" x1="427.9" x2="473.2301" y1="72.2969" y2="72.2969"/><text fill="#000000" font-family="sans-serif" font-size="14" font-weight="700" lengthAdjust="spacing" textLength="20.3301" x="437.9" y="65.9951">RT</text><text fill="#000000" font-family="sans-serif" font-size="14" lengthAdjust="spacing" textLength="58.4678" x="437.9" y="92.292">realtime</text></g><!--entity A_CAT--><g class="entity" data-qualified-name="APP.A_CAT" data-source-line="11" id="ent0006"><path d="M144.39,212.59 L205.8841,212.59 A3.75,3.75 0 0 1 208.3841,215.09 L215.3841,234.8869 L229.8841,234.8869 A2.5,2.5 0 0 1 232.3841,237.3869 L232.3841,265.6838 A2.5,2.5 0 0 1 229.8841,268.1838 L144.39,268.1838 A2.5,2.5 0 0 1 141.89,265.6838 L141.89,215.09 A2.5,2.5 0 0 1 144.39,212.59" fill="#F1F1F1" style="stroke:#181818;stroke-width:0.5;"/><line style="stroke:#181818;stroke-width:0.5;" x1="141.89" x2="215.3841" y1="234.8869" y2="234.8869"/><text fill="#000000" font-family="sans-serif" font-size="14" font-weight="700" lengthAdjust="spacing" textLength="48.4941" x="151.89" y="228.5851">A_CAT</text><text fill="#000000" font-family="sans-serif" font-size="14" lengthAdjust="spacing" textLength="60.252" x="151.89" y="254.882">catalogo</text></g><!--entity A_ALER--><g class="entity" data-qualified-name="APP.A_ALER" data-source-line="12" id="ent0007"><path d="M269.67,212.59 L340.6046,212.59 A3.75,3.75 0 0 1 343.1046,215.09 L350.1046,234.8869 L364.6046,234.8869 A2.5,2.5 0 0 1 367.1046,237.3869 L367.1046,265.6838 A2.5,2.5 0 0 1 364.6046,268.1838 L269.67,268.1838 A2.5,2.5 0 0 1 267.17,265.6838 L267.17,215.09 A2.5,2.5 0 0 1 269.67,212.59" fill="#F1F1F1" style="stroke:#181818;stroke-width:0.5;"/><line style="stroke:#181818;stroke-width:0.5;" x1="267.17" x2="350.1046" y1="234.8869" y2="234.8869"/><text fill="#000000" font-family="sans-serif" font-size="14" font-weight="700" lengthAdjust="spacing" textLength="57.9346" x="277.17" y="228.5851">A_ALER</text><text fill="#000000" font-family="sans-serif" font-size="14" lengthAdjust="spacing" textLength="48.2002" x="277.17" y="254.882">alertas</text></g><!--entity A_LEAD--><g class="entity" data-qualified-name="APP.A_LEAD" data-source-line="13" id="ent0008"><path d="M404.13,212.59 L475.9054,212.59 A3.75,3.75 0 0 1 478.4054,215.09 L485.4054,234.8869 L514.1417,234.8869 A2.5,2.5 0 0 1 516.6417,237.3869 L516.6417,265.6838 A2.5,2.5 0 0 1 514.1417,268.1838 L404.13,268.1838 A2.5,2.5 0 0 1 401.63,265.6838 L401.63,215.09 A2.5,2.5 0 0 1 404.13,212.59" fill="#F1F1F1" style="stroke:#181818;stroke-width:0.5;"/><line style="stroke:#181818;stroke-width:0.5;" x1="401.63" x2="485.4054" y1="234.8869" y2="234.8869"/><text fill="#000000" font-family="sans-serif" font-size="14" font-weight="700" lengthAdjust="spacing" textLength="58.7754" x="411.63" y="228.5851">A_LEAD</text><text fill="#000000" font-family="sans-serif" font-size="14" lengthAdjust="spacing" textLength="85.0117" x="411.63" y="254.882">leaderboard</text></g><!--entity A_INGE--><g class="entity" data-qualified-name="APP.A_INGE" data-source-line="14" id="ent0009"><path d="M144.73,328.18 L213.5454,328.18 A3.75,3.75 0 0 1 216.0454,330.68 L223.0454,350.4769 L237.5454,350.4769 A2.5,2.5 0 0 1 240.0454,352.9769 L240.0454,381.2738 A2.5,2.5 0 0 1 237.5454,383.7738 L144.73,383.7738 A2.5,2.5 0 0 1 142.23,381.2738 L142.23,330.68 A2.5,2.5 0 0 1 144.73,328.18" fill="#F1F1F1" style="stroke:#181818;stroke-width:0.5;"/><line style="stroke:#181818;stroke-width:0.5;" x1="142.23" x2="223.0454" y1="350.4769" y2="350.4769"/><text fill="#000000" font-family="sans-serif" font-size="14" font-weight="700" lengthAdjust="spacing" textLength="55.8154" x="152.23" y="344.1751">A_INGE</text><text fill="#000000" font-family="sans-serif" font-size="14" lengthAdjust="spacing" textLength="64.374" x="152.23" y="370.472">ingestion</text></g><!--entity A_EVAL--><g class="entity" data-qualified-name="APP.A_EVAL" data-source-line="15" id="ent0010"><path d="M277.71,328.18 L348.6993,328.18 A3.75,3.75 0 0 1 351.1993,330.68 L358.1993,350.4769 L378.5547,350.4769 A2.5,2.5 0 0 1 381.0547,352.9769 L381.0547,381.2738 A2.5,2.5 0 0 1 378.5547,383.7738 L277.71,383.7738 A2.5,2.5 0 0 1 275.21,381.2738 L275.21,330.68 A2.5,2.5 0 0 1 277.71,328.18" fill="#F1F1F1" style="stroke:#181818;stroke-width:0.5;"/><line style="stroke:#181818;stroke-width:0.5;" x1="275.21" x2="358.1993" y1="350.4769" y2="350.4769"/><text fill="#000000" font-family="sans-serif" font-size="14" font-weight="700" lengthAdjust="spacing" textLength="57.9893" x="285.21" y="344.1751">A_EVAL</text><text fill="#000000" font-family="sans-serif" font-size="14" lengthAdjust="spacing" textLength="75.8447" x="285.21" y="370.472">evaluacion</text></g><!--entity A_NOTI--><g class="entity" data-qualified-name="APP.A_NOTI" data-source-line="16" id="ent0011"><path d="M418.17,328.18 L487.3819,328.18 A3.75,3.75 0 0 1 489.8819,330.68 L496.8819,350.4769 L524.1075,350.4769 A2.5,2.5 0 0 1 526.6075,352.9769 L526.6075,381.2738 A2.5,2.5 0 0 1 524.1075,383.7738 L418.17,383.7738 A2.5,2.5 0 0 1 415.67,381.2738 L415.67,330.68 A2.5,2.5 0 0 1 418.17,328.18" fill="#F1F1F1" style="stroke:#181818;stroke-width:0.5;"/><line style="stroke:#181818;stroke-width:0.5;" x1="415.67" x2="496.8819" y1="350.4769" y2="350.4769"/><text fill="#000000" font-family="sans-serif" font-size="14" font-weight="700" lengthAdjust="spacing" textLength="56.2119" x="425.67" y="344.1751">A_NOTI</text><text fill="#000000" font-family="sans-serif" font-size="14" lengthAdjust="spacing" textLength="80.9375" x="425.67" y="370.472">notificacion</text></g><!--entity A_SH--><g class="entity" data-qualified-name="APP.A_SH" data-source-line="17" id="ent0012"><path d="M156.82,443.78 L209.4548,443.78 A3.75,3.75 0 0 1 211.9548,446.28 L218.9548,466.0769 L233.4548,466.0769 A2.5,2.5 0 0 1 235.9548,468.5769 L235.9548,496.8738 A2.5,2.5 0 0 1 233.4548,499.3738 L156.82,499.3738 A2.5,2.5 0 0 1 154.32,496.8738 L154.32,446.28 A2.5,2.5 0 0 1 156.82,443.78" fill="#F1F1F1" style="stroke:#181818;stroke-width:0.5;"/><line style="stroke:#181818;stroke-width:0.5;" x1="154.32" x2="218.9548" y1="466.0769" y2="466.0769"/><text fill="#000000" font-family="sans-serif" font-size="14" font-weight="700" lengthAdjust="spacing" textLength="39.6348" x="164.32" y="459.7751">A_SH</text><text fill="#000000" font-family="sans-serif" font-size="14" lengthAdjust="spacing" textLength="48.002" x="164.32" y="486.072">shared</text></g><!--entity I_PG--><g class="entity" data-qualified-name="INFRA.I_PG" data-source-line="21" id="ent0014"><path d="M820.38,212.59 L867.3409,212.59 A3.75,3.75 0 0 1 869.8409,215.09 L876.8409,234.8869 L991.9015,234.8869 A2.5,2.5 0 0 1 994.4015,237.3869 L994.4015,265.6838 A2.5,2.5 0 0 1 991.9015,268.1838 L820.38,268.1838 A2.5,2.5 0 0 1 817.88,265.6838 L817.88,215.09 A2.5,2.5 0 0 1 820.38,212.59" fill="#F1F1F1" style="stroke:#181818;stroke-width:0.5;"/><line style="stroke:#181818;stroke-width:0.5;" x1="817.88" x2="876.8409" y1="234.8869" y2="234.8869"/><text fill="#000000" font-family="sans-serif" font-size="14" font-weight="700" lengthAdjust="spacing" textLength="33.9609" x="827.88" y="228.5851">I_PG</text><text fill="#000000" font-family="sans-serif" font-size="14" lengthAdjust="spacing" textLength="146.5215" x="827.88" y="254.882">persistence/postgres</text></g><!--entity I_RD--><g class="entity" data-qualified-name="INFRA.I_RD" data-source-line="22" id="ent0015"><path d="M1031.55,212.59 L1079.1604,212.59 A3.75,3.75 0 0 1 1081.6604,215.09 L1088.6604,234.8869 L1176.7258,234.8869 A2.5,2.5 0 0 1 1179.2258,237.3869 L1179.2258,265.6838 A2.5,2.5 0 0 1 1176.7258,268.1838 L1031.55,268.1838 A2.5,2.5 0 0 1 1029.05,265.6838 L1029.05,215.09 A2.5,2.5 0 0 1 1031.55,212.59" fill="#F1F1F1" style="stroke:#181818;stroke-width:0.5;"/><line style="stroke:#181818;stroke-width:0.5;" x1="1029.05" x2="1088.6604" y1="234.8869" y2="234.8869"/><text fill="#000000" font-family="sans-serif" font-size="14" font-weight="700" lengthAdjust="spacing" textLength="34.6104" x="1039.05" y="228.5851">I_RD</text><text fill="#000000" font-family="sans-serif" font-size="14" lengthAdjust="spacing" textLength="120.1758" x="1039.05" y="254.882">persistence/redis</text></g><!--entity I_HL--><g class="entity" data-qualified-name="INFRA.I_HL" data-source-line="23" id="ent0016"><path d="M1217.2,212.59 L1263.0467,212.59 A3.75,3.75 0 0 1 1265.5467,215.09 L1272.5467,234.8869 L1403.0701,234.8869 A2.5,2.5 0 0 1 1405.5701,237.3869 L1405.5701,265.6838 A2.5,2.5 0 0 1 1403.0701,268.1838 L1217.2,268.1838 A2.5,2.5 0 0 1 1214.7,265.6838 L1214.7,215.09 A2.5,2.5 0 0 1 1217.2,212.59" fill="#F1F1F1" style="stroke:#181818;stroke-width:0.5;"/><line style="stroke:#181818;stroke-width:0.5;" x1="1214.7" x2="1272.5467" y1="234.8869" y2="234.8869"/><text fill="#000000" font-family="sans-serif" font-size="14" font-weight="700" lengthAdjust="spacing" textLength="32.8467" x="1224.7" y="228.5851">I_HL</text><text fill="#000000" font-family="sans-serif" font-size="14" lengthAdjust="spacing" textLength="160.8701" x="1224.7" y="254.882">connectors/hyperliquid</text></g><!--entity I_WH--><g class="entity" data-qualified-name="INFRA.I_WH" data-source-line="24" id="ent0017"><path d="M821.04,328.18 L873.4082,328.18 A3.75,3.75 0 0 1 875.9082,330.68 L882.9082,350.4769 L991.2421,350.4769 A2.5,2.5 0 0 1 993.7421,352.9769 L993.7421,381.2738 A2.5,2.5 0 0 1 991.2421,383.7738 L821.04,383.7738 A2.5,2.5 0 0 1 818.54,381.2738 L818.54,330.68 A2.5,2.5 0 0 1 821.04,328.18" fill="#F1F1F1" style="stroke:#181818;stroke-width:0.5;"/><line style="stroke:#181818;stroke-width:0.5;" x1="818.54" x2="882.9082" y1="350.4769" y2="350.4769"/><text fill="#000000" font-family="sans-serif" font-size="14" font-weight="700" lengthAdjust="spacing" textLength="39.3682" x="828.54" y="344.1751">I_WH</text><text fill="#000000" font-family="sans-serif" font-size="14" lengthAdjust="spacing" textLength="145.2021" x="828.54" y="370.472">connectors/webhook</text></g><!--entity I_BUS--><g class="entity" data-qualified-name="INFRA.I_BUS" data-source-line="25" id="ent0018"><path d="M1031.17,328.18 L1088.5011,328.18 A3.75,3.75 0 0 1 1091.0011,330.68 L1098.0011,350.4769 L1121.0977,350.4769 A2.5,2.5 0 0 1 1123.5977,352.9769 L1123.5977,381.2738 A2.5,2.5 0 0 1 1121.0977,383.7738 L1031.17,383.7738 A2.5,2.5 0 0 1 1028.67,381.2738 L1028.67,330.68 A2.5,2.5 0 0 1 1031.17,328.18" fill="#F1F1F1" style="stroke:#181818;stroke-width:0.5;"/><line style="stroke:#181818;stroke-width:0.5;" x1="1028.67" x2="1098.0011" y1="350.4769" y2="350.4769"/><text fill="#000000" font-family="sans-serif" font-size="14" font-weight="700" lengthAdjust="spacing" textLength="44.3311" x="1038.67" y="344.1751">I_BUS</text><text fill="#000000" font-family="sans-serif" font-size="14" lengthAdjust="spacing" textLength="64.9277" x="1038.67" y="370.472">eventbus</text></g><!--entity D_SH--><g class="entity" data-qualified-name="DOM.D_SH" data-source-line="29" id="ent0020"><path d="M165.43,606.37 L218.8509,606.37 A3.75,3.75 0 0 1 221.3509,608.87 L228.3509,628.6669 L242.8509,628.6669 A2.5,2.5 0 0 1 245.3509,631.1669 L245.3509,659.4638 A2.5,2.5 0 0 1 242.8509,661.9638 L165.43,661.9638 A2.5,2.5 0 0 1 162.93,659.4638 L162.93,608.87 A2.5,2.5 0 0 1 165.43,606.37" fill="#F1F1F1" style="stroke:#181818;stroke-width:0.5;"/><line style="stroke:#181818;stroke-width:0.5;" x1="162.93" x2="228.3509" y1="628.6669" y2="628.6669"/><text fill="#000000" font-family="sans-serif" font-size="14" font-weight="700" lengthAdjust="spacing" textLength="40.4209" x="172.93" y="622.3651">D_SH</text><text fill="#000000" font-family="sans-serif" font-size="14" lengthAdjust="spacing" textLength="48.002" x="172.93" y="648.662">shared</text></g><!--entity D_CAT--><g class="entity" data-qualified-name="DOM.D_CAT" data-source-line="30" id="ent0021"><path d="M283,606.37 L345.2803,606.37 A3.75,3.75 0 0 1 347.7803,608.87 L354.7803,628.6669 L369.2803,628.6669 A2.5,2.5 0 0 1 371.7803,631.1669 L371.7803,659.4638 A2.5,2.5 0 0 1 369.2803,661.9638 L283,661.9638 A2.5,2.5 0 0 1 280.5,659.4638 L280.5,608.87 A2.5,2.5 0 0 1 283,606.37" fill="#F1F1F1" style="stroke:#181818;stroke-width:0.5;"/><line style="stroke:#181818;stroke-width:0.5;" x1="280.5" x2="354.7803" y1="628.6669" y2="628.6669"/><text fill="#000000" font-family="sans-serif" font-size="14" font-weight="700" lengthAdjust="spacing" textLength="49.2803" x="290.5" y="622.3651">D_CAT</text><text fill="#000000" font-family="sans-serif" font-size="14" lengthAdjust="spacing" textLength="60.252" x="290.5" y="648.662">catalogo</text></g><!--entity D_ALER--><g class="entity" data-qualified-name="DOM.D_ALER" data-source-line="31" id="ent0022"><path d="M409.28,606.37 L481.0007,606.37 A3.75,3.75 0 0 1 483.5007,608.87 L490.5007,628.6669 L505.0007,628.6669 A2.5,2.5 0 0 1 507.5007,631.1669 L507.5007,659.4638 A2.5,2.5 0 0 1 505.0007,661.9638 L409.28,661.9638 A2.5,2.5 0 0 1 406.78,659.4638 L406.78,608.87 A2.5,2.5 0 0 1 409.28,606.37" fill="#F1F1F1" style="stroke:#181818;stroke-width:0.5;"/><line style="stroke:#181818;stroke-width:0.5;" x1="406.78" x2="490.5007" y1="628.6669" y2="628.6669"/><text fill="#000000" font-family="sans-serif" font-size="14" font-weight="700" lengthAdjust="spacing" textLength="58.7207" x="416.78" y="622.3651">D_ALER</text><text fill="#000000" font-family="sans-serif" font-size="14" lengthAdjust="spacing" textLength="48.2002" x="416.78" y="648.662">alertas</text></g><!--entity D_LEAD--><g class="entity" data-qualified-name="DOM.D_LEAD" data-source-line="32" id="ent0023"><path d="M162.13,729.43 L234.6915,729.43 A3.75,3.75 0 0 1 237.1915,731.93 L244.1915,751.7269 L272.1417,751.7269 A2.5,2.5 0 0 1 274.6417,754.2269 L274.6417,782.5238 A2.5,2.5 0 0 1 272.1417,785.0238 L162.13,785.0238 A2.5,2.5 0 0 1 159.63,782.5238 L159.63,731.93 A2.5,2.5 0 0 1 162.13,729.43" fill="#F1F1F1" style="stroke:#181818;stroke-width:0.5;"/><line style="stroke:#181818;stroke-width:0.5;" x1="159.63" x2="244.1915" y1="751.7269" y2="751.7269"/><text fill="#000000" font-family="sans-serif" font-size="14" font-weight="700" lengthAdjust="spacing" textLength="59.5615" x="169.63" y="745.4251">D_LEAD</text><text fill="#000000" font-family="sans-serif" font-size="14" lengthAdjust="spacing" textLength="85.0117" x="169.63" y="771.722">leaderboard</text></g><!--entity D_MER--><g class="entity" data-qualified-name="DOM.D_MER" data-source-line="33" id="ent0024"><path d="M312.19,729.43 L378.0865,729.43 A3.75,3.75 0 0 1 380.5865,731.93 L387.5865,751.7269 L402.0865,751.7269 A2.5,2.5 0 0 1 404.5865,754.2269 L404.5865,782.5238 A2.5,2.5 0 0 1 402.0865,785.0238 L312.19,785.0238 A2.5,2.5 0 0 1 309.69,782.5238 L309.69,731.93 A2.5,2.5 0 0 1 312.19,729.43" fill="#F1F1F1" style="stroke:#181818;stroke-width:0.5;"/><line style="stroke:#181818;stroke-width:0.5;" x1="309.69" x2="387.5865" y1="751.7269" y2="751.7269"/><text fill="#000000" font-family="sans-serif" font-size="14" font-weight="700" lengthAdjust="spacing" textLength="52.8965" x="319.69" y="745.4251">D_MER</text><text fill="#000000" font-family="sans-serif" font-size="14" lengthAdjust="spacing" textLength="61.7354" x="319.69" y="771.722">mercado</text></g><!--entity D_NOTI--><g class="entity" data-qualified-name="DOM.D_NOTI" data-source-line="34" id="ent0025"><path d="M442.17,729.43 L512.168,729.43 A3.75,3.75 0 0 1 514.668,731.93 L521.668,751.7269 L548.1075,751.7269 A2.5,2.5 0 0 1 550.6075,754.2269 L550.6075,782.5238 A2.5,2.5 0 0 1 548.1075,785.0238 L442.17,785.0238 A2.5,2.5 0 0 1 439.67,782.5238 L439.67,731.93 A2.5,2.5 0 0 1 442.17,729.43" fill="#F1F1F1" style="stroke:#181818;stroke-width:0.5;"/><line style="stroke:#181818;stroke-width:0.5;" x1="439.67" x2="521.668" y1="751.7269" y2="751.7269"/><text fill="#000000" font-family="sans-serif" font-size="14" font-weight="700" lengthAdjust="spacing" textLength="56.998" x="449.67" y="745.4251">D_NOTI</text><text fill="#000000" font-family="sans-serif" font-size="14" lengthAdjust="spacing" textLength="80.9375" x="449.67" y="771.722">notificacion</text></g><!--entity D_EV--><g class="entity" data-qualified-name="DOM.D_EV" data-source-line="35" id="ent0026"><path d="M179.13,852.5 L231.1495,852.5 A3.75,3.75 0 0 1 233.6495,855 L240.6495,874.7969 L255.1495,874.7969 A2.5,2.5 0 0 1 257.6495,877.2969 L257.6495,905.5938 A2.5,2.5 0 0 1 255.1495,908.0938 L179.13,908.0938 A2.5,2.5 0 0 1 176.63,905.5938 L176.63,855 A2.5,2.5 0 0 1 179.13,852.5" fill="#F1F1F1" style="stroke:#181818;stroke-width:0.5;"/><line style="stroke:#181818;stroke-width:0.5;" x1="176.63" x2="240.6495" y1="874.7969" y2="874.7969"/><text fill="#000000" font-family="sans-serif" font-size="14" font-weight="700" lengthAdjust="spacing" textLength="39.0195" x="186.63" y="868.4951">D_EV</text><text fill="#000000" font-family="sans-serif" font-size="14" lengthAdjust="spacing" textLength="47.168" x="186.63" y="894.792">events</text></g><!--entity KERN--><g class="entity" data-qualified-name="KERN" data-source-line="38" id="ent0027"><path d="M635.02,328.18 L690.9292,328.18 A3.75,3.75 0 0 1 693.4292,330.68 L700.4292,350.4769 L767.2485,350.4769 A2.5,2.5 0 0 1 769.7485,352.9769 L769.7485,381.2738 A2.5,2.5 0 0 1 767.2485,383.7738 L635.02,383.7738 A2.5,2.5 0 0 1 632.52,381.2738 L632.52,330.68 A2.5,2.5 0 0 1 635.02,328.18" fill="#ECEFF1" style="stroke:#181818;stroke-width:0.5;"/><line style="stroke:#181818;stroke-width:0.5;" x1="632.52" x2="700.4292" y1="350.4769" y2="350.4769"/><text fill="#000000" font-family="sans-serif" font-size="14" font-weight="700" lengthAdjust="spacing" textLength="42.9092" x="642.52" y="344.1751">KERN</text><text fill="#000000" font-family="sans-serif" font-size="14" lengthAdjust="spacing" textLength="107.2285" x="642.52" y="370.472">shared (kernel)</text></g><g class="entity" data-qualified-name="GMN36" data-source-line="50" id="ent0037"><path d="M605.69,721.97 L605.69,792.5013 L808.5757,792.5013 L808.5757,731.97 L798.5757,721.97 L605.69,721.97" fill="#FEFFDD" style="stroke:#181818;stroke-width:0.5;"/><path d="M798.5757,721.97 L798.5757,731.97 L808.5757,731.97 L798.5757,721.97" fill="#FEFFDD" style="stroke:#181818;stroke-width:1;"/><text fill="#000000" font-family="sans-serif" font-size="13" lengthAdjust="spacing" textLength="181.2954" x="611.69" y="739.0369">Sin dependencias salientes.</text><text fill="#000000" font-family="sans-serif" font-size="13" lengthAdjust="spacing" textLength="161.3574" x="611.69" y="754.1697">Imports prohibidos hacia</text><text fill="#000000" font-family="sans-serif" font-size="13" lengthAdjust="spacing" textLength="181.8857" x="611.69" y="769.3025">application/, infrastructure/,</text><text fill="#000000" font-family="sans-serif" font-size="13" lengthAdjust="spacing" textLength="161.5542" x="611.69" y="784.4353">presentation/ por ESLint.</text></g><!--link PRES to APP--><g class="link" data-entity-1="ent0002" data-entity-2="ent0005" data-link-type="dependency" data-source-line="40" id="lnk28"><path d="M552.14,129.6553 C552.14,129.9403 552.14,130.2259 552.14,130.512 C552.14,139.6681 552.14,149.3944 552.14,159.12 C552.14,161.5514 552.14,163.9828 552.14,166.4052 C552.14,167.0108 552.14,167.6158 552.14,168.2202 C552.14,168.5223 552.14,168.8243 552.14,169.1261 C552.14,169.277 552.14,163.4279 552.14,163.5787" fill="none" id="PRES-to-APP" style="stroke:#181818;stroke-width:1;stroke-dasharray:7,7;"/><polygon fill="#181818" points="552.14,169.5787,556.14,160.5787,552.14,164.5787,548.14,160.5787,552.14,169.5787" style="stroke:#181818;stroke-width:1;"/></g><!--link INFRA to APP--><g class="link" data-entity-1="ent0013" data-entity-2="ent0005" data-link-type="dependency" data-source-line="41" id="lnk29"><path d="M1432.2503,169.5296 C1432.1868,169.3988 1432.123,169.2683 1432.0587,169.138 C1431.8017,168.6167 1431.5385,168.099 1431.2689,167.5851 C1430.7298,166.5572 1430.1653,165.5446 1429.5743,164.5494 C1427.2103,160.5688 1424.4225,156.8675 1421.14,153.59 C1415.49,147.95 1411.57,150.48 1403.64,149.59 C1371.4,145.95 851.88,145.95 819.64,149.59 C759.695,156.355 695.6,177.58 645.1813,197.8075 C619.9719,207.9213 598.1816,217.7856 582.0386,225.4684 C573.9671,229.3098 567.3075,232.6059 562.3382,235.115 C561.717,235.4286 566.4711,233.0115 565.9033,233.3" fill="none" id="INFRA-to-APP" style="stroke:#181818;stroke-width:1;stroke-dasharray:7,7;"/><polygon fill="#181818" points="560.5545,236.0185,570.39,235.5067,565.0118,233.7531,566.7654,228.3749,560.5545,236.0185" style="stroke:#181818;stroke-width:1;"/></g><!--link APP to DOM--><g class="link" data-entity-1="ent0005" data-entity-2="ent0019" data-link-type="dependency" data-source-line="42" id="lnk30"><path d="M560.2507,385.8632 C560.2917,386.5929 560.3327,387.3237 560.3738,388.0554 C560.456,389.5189 560.5384,390.9863 560.621,392.4573 C560.7862,395.3992 560.9522,398.3554 561.1188,401.323 C561.7853,413.1933 562.462,425.2461 563.1388,437.2988 C564.4922,461.4041 565.8455,485.509 567.1169,508.1535 C567.7525,519.4757 568.3677,530.4328 568.952,540.8423 C569.2442,546.0471 569.5287,551.1149 569.8043,556.0231 C569.942,558.4771 569.7413,554.9007 569.8744,557.272" fill="none" id="APP-to-DOM" style="stroke:#181818;stroke-width:1;stroke-dasharray:7,7;"/><polygon fill="#181818" points="570.2107,563.2626,573.6999,554.0526,569.9304,558.2705,565.7125,554.5009,570.2107,563.2626" style="stroke:#181818;stroke-width:1;"/></g><!--link PRES to DOM--><g class="link" data-entity-1="ent0002" data-entity-2="ent0019" data-link-type="dependency" data-source-line="43" id="lnk31"><path d="M544.5033,129.8299 C544.4017,130.0409 544.2988,130.2512 544.1946,130.4608 C543.778,131.2991 543.3411,132.1256 542.883,132.9381 C541.9668,134.5632 540.9656,136.1323 539.872,137.6283 C537.6847,140.6203 535.1275,143.32 532.14,145.59 C514.17,159.24 141.93,137.48 126.14,153.59 C6.1,276.02 6,417.03 126.14,539.37 C143.27,556.82 548.22,530.74 566.14,547.37 C569.5938,550.575 572.3186,554.2903 574.4416,558.3418 C574.9724,559.3547 575.4655,560.3886 575.923,561.4408 C576.1518,561.9668 574.1682,556.9168 574.3794,557.4517" fill="none" id="PRES-to-DOM" style="stroke:#181818;stroke-width:1;stroke-dasharray:7,7;"/><polygon fill="#181818" points="576.5828,563.0324,576.9982,553.1923,574.7466,558.3818,569.5572,556.1302,576.5828,563.0324" style="stroke:#181818;stroke-width:1;"/></g><!--link INFRA to DOM--><g class="link" data-entity-1="ent0013" data-entity-2="ent0019" data-link-type="dependency" data-source-line="44" id="lnk32"><path d="M1449.2071,284.8428 C1450.1923,293.0113 1450.9822,301.9597 1451.3513,311.3513 C1452.8275,348.9175 1447.57,393.575 1421.14,423.78 C1357.8,496.165 1148.85,548.2625 954.3513,582.3875 C857.1019,599.45 763.4653,612.0194 693.4492,620.385 C658.4412,624.5678 629.3382,627.6997 608.6414,629.8168 C598.293,630.8754 590.046,631.6802 584.2133,632.2359 C583.8487,632.2706 589.4668,631.7378 589.1212,631.7706" fill="none" id="INFRA-to-DOM" style="stroke:#181818;stroke-width:1;stroke-dasharray:7,7;"/><polygon fill="#181818" points="583.148,632.3372,592.4855,635.4694,588.1257,631.865,591.73,627.5051,583.148,632.3372" style="stroke:#181818;stroke-width:1;"/></g><!--link PRES to KERN--><g class="link" data-entity-1="ent0002" data-entity-2="ent0027" data-link-type="dependency" data-source-line="45" id="lnk33"><path d="M560.2866,93.8994 C560.3997,94.1092 560.514,94.3209 560.6292,94.5345 C561.0903,95.389 561.5678,96.274 562.0612,97.1885 C564.0347,100.8463 566.2624,104.9751 568.7072,109.5064 C578.4863,127.6316 591.7388,152.1956 606.095,178.8063 C634.8075,232.0275 665.0866,288.1542 683.6716,322.6092" fill="none" id="PRES-to-KERN" style="stroke:#181818;stroke-width:1;stroke-dasharray:7,7;"/><polygon fill="#181818" points="686.52,327.89,685.7679,318.0699,684.1463,323.4894,678.7268,321.8678,686.52,327.89" style="stroke:#181818;stroke-width:1;"/></g><!--link APP to KERN--><g class="link" data-entity-1="ent0005" data-entity-2="ent0027" data-link-type="dependency" data-source-line="46" id="lnk34"><path d="M560.1596,247.5018 C561.6618,248.6472 563.3503,249.9345 565.2033,251.3472 C572.6153,256.9981 582.6606,264.6563 593.9563,273.2675 C616.5475,290.49 639.3686,307.8872 660.8986,324.3022" fill="none" id="APP-to-KERN" style="stroke:#181818;stroke-width:1;stroke-dasharray:7,7;"/><polygon fill="#181818" points="665.67,327.94,660.9381,319.3023,661.6938,324.9085,656.0877,325.6642,665.67,327.94" style="stroke:#181818;stroke-width:1;"/></g><!--link INFRA to KERN--><g class="link" data-entity-1="ent0013" data-entity-2="ent0027" data-link-type="dependency" data-source-line="47" id="lnk35"><path d="M794.0975,329.7109 C794.0559,329.7192 794.0143,329.7276 793.9727,329.7359 C793.8895,329.7526 793.8063,329.7693 793.723,329.7861 C793.5565,329.8195 793.3899,329.8531 793.2232,329.8868 C792.8899,329.9542 792.5563,330.0221 792.2225,330.0903 C791.5548,330.2268 790.8861,330.3651 790.2166,330.5049 C788.8776,330.7845 787.5353,331.0706 786.1913,331.3625 C780.815,332.53 781.2372,354.6574 775.8972,355.9674" fill="none" id="INFRA-to-KERN" style="stroke:#181818;stroke-width:1;stroke-dasharray:7,7;"/><polygon fill="#181818" points="770.07,357.3969,779.7638,359.1374,774.926,356.2056,777.8578,351.3678,770.07,357.3969" style="stroke:#181818;stroke-width:1;"/></g><!--link DOM to GMN36--><g class="link" data-entity-1="ent0019" data-entity-2="ent0037" data-link-type="association" data-source-line="50" id="lnk38"><path d="M582.3267,642.6257 C582.4108,642.7022 582.4954,642.7792 582.5806,642.8568 C583.262,643.4769 583.9792,644.1296 584.7302,644.813 C590.7378,650.2803 598.9056,657.7144 608.1913,666.1663 C626.7625,683.07 649.805,704.045 668.98,721.5" fill="none" id="DOM-GMN36" style="stroke:#181818;stroke-width:1;stroke-dasharray:7,7;"/></g><?plantuml-src ZPJVRzem4CVV_LTOxSicLR0DLTfU9cMDKz0eHGdh7f593cBXs9vjLbNJ_lTTVa1mLgRn5Ei-zjrzxtkulL26MrvHm_Cztq7cNoHG2xddQYU1k1FWIbxePw5sTCkb0rAA0gZpO47x5mE4T2_GAsF1WVBS2wskA7TqcRACNhD9yY69wIz2yNU2I-zD0qrNgsKOii2b5nKquNH5Vf_buCP8aVSfekKICtnCRjcdOGQakDGxtNBhksWLnha4wxdhmj6SfM5S0Y_0RZItHSVCMHI73Ce2hYzcFLlSiv20drmUUDuZx2cQXuZINcongJDeyRYQXH2EmSAna6mQY2BKrdBdxI7t1zlADbiaQKIlaoIPi7T3PGnO9t24AeUnqSxlS73jhVNo_ZAA-SMHImT2v5efD8-sRboYAwmKFmwYwE3f_2By39jIwtq7VfyEnKC_RGx7f5--PK7VXQwuQ2MB7n-msmcxJMw7tPuf5zVANJP9_6-JnFzXalWLarHWSzoXBlumVEAlySUlZBzHubW6UmfaQ1kaR_PW5SYt3VILfGjSZ3kM9Ey9QHPnDFfShmjfhN4yrGjKVwE0FLOVUYm8rG-VBZM77coE1Fi1kj7UwuhgRNERqameMe01LQ2L11Rek1JO4hWHHcULqTOxQgmknKOKsj4IzU0OEbluyGqDdJw-GU3yNsTCyHtAihbGVaGm6QsB-GC0?></g></svg>