<svg xmlns="http://www.w3.org/2000/svg" xmlns:xlink="http://www.w3.org/1999/xlink" contentStyleType="text/css" data-diagram-type="CLASS" height="591px" preserveAspectRatio="none" style="width:2671px;height:591px;background:#FFFFFF;" version="1.1" viewBox="0 0 2671 591" width="2671px" zoomAndPan="magnify"><?plantuml 1.2026.3beta6?><defs/><g><!--cluster presentation/http/alertas--><g class="cluster" data-qualified-name="presentation.http.alertas" data-source-line="5" id="ent0002"><path d="M2020.5,38.59 L2221.6494,38.59 A3.75,3.75 0 0 1 2224.1494,41.09 L2231.1494,60.8869 L2311.5,60.8869 A2.5,2.5 0 0 1 2314,63.3869 L2314,208.55 A2.5,2.5 0 0 1 2311.5,211.05 L2020.5,211.05 A2.5,2.5 0 0 1 2018,208.55 L2018,41.09 A2.5,2.5 0 0 1 2020.5,38.59" fill="none" style="stroke:#000000;stroke-width:1.5;"/><line style="stroke:#000000;stroke-width:1.5;" x1="2018" x2="2231.1494" y1="60.8869" y2="60.8869"/><text fill="#000000" font-family="sans-serif" font-size="14" font-weight="700" lengthAdjust="spacing" textLength="200.1494" x="2022" y="53.5851">presentation/http/alertas</text></g><!--cluster application/alertas--><g class="cluster" data-qualified-name="application.alertas" data-source-line="14" id="ent0004"><path d="M333.5,6 L482.6416,6 A3.75,3.75 0 0 1 485.1416,8.5 L492.1416,28.2969 L1991.5,28.2969 A2.5,2.5 0 0 1 1994,30.7969 L1994,422.59 A2.5,2.5 0 0 1 1991.5,425.09 L333.5,425.09 A2.5,2.5 0 0 1 331,422.59 L331,8.5 A2.5,2.5 0 0 1 333.5,6" fill="none" style="stroke:#000000;stroke-width:1.5;"/><line style="stroke:#000000;stroke-width:1.5;" x1="331" x2="492.1416" y1="28.2969" y2="28.2969"/><text fill="#000000" font-family="sans-serif" font-size="14" font-weight="700" lengthAdjust="spacing" textLength="148.1416" x="335" y="20.9951">application/alertas</text></g><!--cluster domain/alertas--><g class="cluster" data-qualified-name="domain.alertas" data-source-line="48" id="ent0012"><path d="M8.5,252.64 L128.1719,252.64 A3.75,3.75 0 0 1 130.6719,255.14 L137.6719,274.9369 L304.5,274.9369 A2.5,2.5 0 0 1 307,277.4369 L307,573.78 A2.5,2.5 0 0 1 304.5,576.28 L8.5,576.28 A2.5,2.5 0 0 1 6,573.78 L6,255.14 A2.5,2.5 0 0 1 8.5,252.64" fill="none" style="stroke:#000000;stroke-width:1.5;"/><line style="stroke:#000000;stroke-width:1.5;" x1="6" x2="137.6719" y1="274.9369" y2="274.9369"/><text fill="#000000" font-family="sans-serif" font-size="14" font-weight="700" lengthAdjust="spacing" textLength="118.6719" x="10" y="267.6351">domain/alertas</text></g><!--cluster infrastructure/persistence/postgres--><g class="cluster" data-qualified-name="infrastructure.persistence.postgres" data-source-line="63" id="ent0016"><path d="M2340.5,38.59 L2623.4414,38.59 A3.75,3.75 0 0 1 2625.9414,41.09 L2632.9414,60.8869 L2653.5,60.8869 A2.5,2.5 0 0 1 2656,63.3869 L2656,390 A2.5,2.5 0 0 1 2653.5,392.5 L2340.5,392.5 A2.5,2.5 0 0 1 2338,390 L2338,41.09 A2.5,2.5 0 0 1 2340.5,38.59" fill="none" style="stroke:#000000;stroke-width:1.5;"/><line style="stroke:#000000;stroke-width:1.5;" x1="2338" x2="2632.9414" y1="60.8869" y2="60.8869"/><text fill="#000000" font-family="sans-serif" font-size="14" font-weight="700" lengthAdjust="spacing" textLength="281.9414" x="2342" y="53.5851">infrastructure/persistence/postgres</text></g><!--class AlertasController--><g class="entity" data-qualified-name="presentation.http.alertas.AlertasController" data-source-line="6" id="ent0003"><rect fill="#F1F1F1" height="121.4531" rx="2.5" ry="2.5" style="stroke:#181818;stroke-width:0.5;" width="264.2598" x="2033.87" y="73.59"/><text fill="#000000" font-family="sans-serif" font-size="12" font-style="italic" lengthAdjust="spacing" textLength="72.1934" x="2129.9032" y="89.7287">&#171;controller&#187;</text><text fill="#000000" font-family="sans-serif" font-size="14" lengthAdjust="spacing" textLength="118.3711" x="2106.8143" y="105.5539">AlertasController</text><line style="stroke:#181818;stroke-width:0.5;" x1="2034.87" x2="2297.1298" y1="113.8556" y2="113.8556"/><line style="stroke:#181818;stroke-width:0.5;" x1="2034.87" x2="2297.1298" y1="121.8556" y2="121.8556"/><text fill="#000000" font-family="sans-serif" font-size="14" lengthAdjust="spacing" textLength="225.7705" x="2039.87" y="138.8507">+crear(dto): AlertaResponseDto</text><text fill="#000000" font-family="sans-serif" font-size="14" lengthAdjust="spacing" textLength="244.7676" x="2039.87" y="155.1476">+listar(filtro): AlertaResponseDto[]</text><text fill="#000000" font-family="sans-serif" font-size="14" lengthAdjust="spacing" textLength="252.2598" x="2039.87" y="171.4445">+editar(id, dto): AlertaResponseDto</text><text fill="#000000" font-family="sans-serif" font-size="14" lengthAdjust="spacing" textLength="131.3525" x="2039.87" y="187.7414">+eliminar(id): void</text></g><!--class IAlertasService--><g class="entity" data-qualified-name="application.alertas.IAlertasService" data-source-line="15" id="ent0005"><rect fill="#F1F1F1" height="121.4531" rx="2.5" ry="2.5" style="stroke:#181818;stroke-width:0.5;" width="343.9189" x="1205.04" y="287.64"/><text fill="#000000" font-family="sans-serif" font-size="12" font-style="italic" lengthAdjust="spacing" textLength="54.5508" x="1349.7241" y="303.7787">&#171;port-in&#187;</text><text fill="#000000" font-family="sans-serif" font-size="14" font-style="italic" lengthAdjust="spacing" textLength="105.0684" x="1324.4653" y="319.6039">IAlertasService</text><line style="stroke:#181818;stroke-width:0.5;" x1="1206.04" x2="1547.9589" y1="327.9056" y2="327.9056"/><line style="stroke:#181818;stroke-width:0.5;" x1="1206.04" x2="1547.9589" y1="335.9056" y2="335.9056"/><text fill="#000000" font-family="sans-serif" font-size="14" lengthAdjust="spacing" textLength="305.4297" x="1211.04" y="352.9007">+crear(dto): Promise&lt;AlertaResponseDto&gt;</text><text fill="#000000" font-family="sans-serif" font-size="14" lengthAdjust="spacing" textLength="324.4268" x="1211.04" y="369.1976">+listar(filtro): Promise&lt;AlertaResponseDto[]&gt;</text><text fill="#000000" font-family="sans-serif" font-size="14" lengthAdjust="spacing" textLength="331.9189" x="1211.04" y="385.4945">+editar(id, dto): Promise&lt;AlertaResponseDto&gt;</text><text fill="#000000" font-family="sans-serif" font-size="14" lengthAdjust="spacing" textLength="211.0117" x="1211.04" y="401.7914">+eliminar(id): Promise&lt;void&gt;</text></g><!--class IAlertasQueryService--><g class="entity" data-qualified-name="application.alertas.IAlertasQueryService" data-source-line="21" id="ent0006"><rect fill="#F1F1F1" height="72.5625" rx="2.5" ry="2.5" style="stroke:#181818;stroke-width:0.5;" width="435.1992" x="347.4" y="312.08"/><text fill="#000000" font-family="sans-serif" font-size="12" font-style="italic" lengthAdjust="spacing" textLength="54.5508" x="537.7242" y="328.2187">&#171;port-in&#187;</text><text fill="#000000" font-family="sans-serif" font-size="14" font-style="italic" lengthAdjust="spacing" textLength="147.6152" x="491.192" y="344.0439">IAlertasQueryService</text><line style="stroke:#181818;stroke-width:0.5;" x1="348.4" x2="781.5992" y1="352.3456" y2="352.3456"/><line style="stroke:#181818;stroke-width:0.5;" x1="348.4" x2="781.5992" y1="360.3456" y2="360.3456"/><text fill="#000000" font-family="sans-serif" font-size="14" lengthAdjust="spacing" textLength="423.1992" x="353.4" y="377.3407">+recuperarOperativasPara(token): Promise&lt;AlertaPrecio[]&gt;</text></g><!--class IAlertasRepository--><g class="entity" data-qualified-name="application.alertas.IAlertasRepository" data-source-line="24" id="ent0007"><rect fill="#F1F1F1" height="121.4531" rx="2.5" ry="2.5" style="stroke:#181818;stroke-width:0.5;" width="393.2061" x="1584.4" y="287.64"/><text fill="#000000" font-family="sans-serif" font-size="12" font-style="italic" lengthAdjust="spacing" textLength="63.2637" x="1749.3712" y="303.7787">&#171;port-out&#187;</text><text fill="#000000" font-family="sans-serif" font-size="14" font-style="italic" lengthAdjust="spacing" textLength="128.3994" x="1716.8033" y="319.6039">IAlertasRepository</text><line style="stroke:#181818;stroke-width:0.5;" x1="1585.4" x2="1976.6061" y1="327.9056" y2="327.9056"/><line style="stroke:#181818;stroke-width:0.5;" x1="1585.4" x2="1976.6061" y1="335.9056" y2="335.9056"/><text fill="#000000" font-family="sans-serif" font-size="14" lengthAdjust="spacing" textLength="182.458" x="1590.4" y="352.9007">+save(a): Promise&lt;void&gt;</text><text fill="#000000" font-family="sans-serif" font-size="14" lengthAdjust="spacing" textLength="274.0391" x="1590.4" y="369.1976">+findById(id): Promise&lt;AlertaPrecio?&gt;</text><text fill="#000000" font-family="sans-serif" font-size="14" lengthAdjust="spacing" textLength="381.2061" x="1590.4" y="385.4945">+findOperativasPorToken(t): Promise&lt;AlertaPrecio[]&gt;</text><text fill="#000000" font-family="sans-serif" font-size="14" lengthAdjust="spacing" textLength="197.9893" x="1590.4" y="401.7914">+delete(id): Promise&lt;void&gt;</text></g><!--class AlertasService--><g class="entity" data-qualified-name="application.alertas.AlertasService" data-source-line="30" id="ent0008"><rect fill="#F1F1F1" height="186.6406" rx="2.5" ry="2.5" style="stroke:#181818;stroke-width:0.5;" width="317.4297" x="835.29" y="41"/><text fill="#000000" font-family="sans-serif" font-size="12" font-style="italic" lengthAdjust="spacing" textLength="57.668" x="965.1709" y="57.1387">&#171;service&#187;</text><text fill="#000000" font-family="sans-serif" font-size="14" lengthAdjust="spacing" textLength="100.9395" x="943.5351" y="72.9639">AlertasService</text><line style="stroke:#181818;stroke-width:0.5;" x1="836.29" x2="1151.7197" y1="81.2656" y2="81.2656"/><text fill="#000000" font-family="sans-serif" font-size="14" lengthAdjust="spacing" textLength="190.8184" x="841.29" y="98.2607">-alertas: IAlertasRepository</text><text fill="#000000" font-family="sans-serif" font-size="14" lengthAdjust="spacing" textLength="235.2178" x="841.29" y="114.5576">-catalogo: ICatalogoQueryService</text><text fill="#000000" font-family="sans-serif" font-size="14" lengthAdjust="spacing" textLength="219.0713" x="841.29" y="130.8545">-webhook: IWebhookConnector</text><text fill="#000000" font-family="sans-serif" font-size="14" lengthAdjust="spacing" textLength="109.2793" x="841.29" y="147.1514">-bus: IEventBus</text><line style="stroke:#181818;stroke-width:0.5;" x1="836.29" x2="1151.7197" y1="154.4531" y2="154.4531"/><text fill="#000000" font-family="sans-serif" font-size="14" lengthAdjust="spacing" textLength="305.4297" x="841.29" y="171.4482">+crear(dto): Promise&lt;AlertaResponseDto&gt;</text><text fill="#000000" font-family="sans-serif" font-size="14" lengthAdjust="spacing" textLength="90.0703" x="841.29" y="187.7451">+listar(filtro)</text><text fill="#000000" font-family="sans-serif" font-size="14" lengthAdjust="spacing" textLength="108.4863" x="841.29" y="204.042">+editar(id, dto)</text><text fill="#000000" font-family="sans-serif" font-size="14" lengthAdjust="spacing" textLength="92.5586" x="841.29" y="220.3389">+eliminar(id)</text></g><!--class AlertaPrecioMapper--><g class="entity" data-qualified-name="application.alertas.AlertaPrecioMapper" data-source-line="40" id="ent0009"><rect fill="#F1F1F1" height="88.8594" rx="2.5" ry="2.5" style="stroke:#181818;stroke-width:0.5;" width="352.7646" x="817.62" y="303.94"/><text fill="#000000" font-family="sans-serif" font-size="12" font-style="italic" lengthAdjust="spacing" textLength="61.2773" x="963.3637" y="320.0787">&#171;mapper&#187;</text><text fill="#000000" font-family="sans-serif" font-size="14" lengthAdjust="spacing" textLength="137.6689" x="925.1679" y="335.9039">AlertaPrecioMapper</text><line style="stroke:#181818;stroke-width:0.5;" x1="818.62" x2="1169.3846" y1="344.2056" y2="344.2056"/><line style="stroke:#181818;stroke-width:0.5;" x1="818.62" x2="1169.3846" y1="352.2056" y2="352.2056"/><text fill="#000000" font-family="sans-serif" font-size="14" lengthAdjust="spacing" textLength="245.9023" x="823.62" y="369.2007">+fromDto(dto, token): AlertaPrecio</text><text fill="#000000" font-family="sans-serif" font-size="14" lengthAdjust="spacing" textLength="340.7646" x="823.62" y="385.4976">+toResponse(a, alcanzable): AlertaResponseDto</text></g><!--class CrearAlertaDto--><g class="entity" data-qualified-name="application.alertas.CrearAlertaDto" data-source-line="44" id="ent0010"><rect fill="#F1F1F1" height="56.2656" rx="2.5" ry="2.5" style="stroke:#181818;stroke-width:0.5;" width="111.2188" x="1439.39" y="106.19"/><text fill="#000000" font-family="sans-serif" font-size="12" font-style="italic" lengthAdjust="spacing" textLength="34.3477" x="1477.8255" y="122.3287">&#171;dto&#187;</text><text fill="#000000" font-family="sans-serif" font-size="14" lengthAdjust="spacing" textLength="105.2188" x="1442.39" y="138.1539">CrearAlertaDto</text><line style="stroke:#181818;stroke-width:0.5;" x1="1440.39" x2="1549.6088" y1="146.4556" y2="146.4556"/><line style="stroke:#181818;stroke-width:0.5;" x1="1440.39" x2="1549.6088" y1="154.4556" y2="154.4556"/></g><!--class AlertaResponseDto--><g class="entity" data-qualified-name="application.alertas.AlertaResponseDto" data-source-line="45" id="ent0011"><rect fill="#F1F1F1" height="56.2656" rx="2.5" ry="2.5" style="stroke:#181818;stroke-width:0.5;" width="140.6064" x="1711.7" y="106.19"/><text fill="#000000" font-family="sans-serif" font-size="12" font-style="italic" lengthAdjust="spacing" textLength="34.3477" x="1764.8294" y="122.3287">&#171;dto&#187;</text><text fill="#000000" font-family="sans-serif" font-size="14" lengthAdjust="spacing" textLength="134.6064" x="1714.7" y="138.1539">AlertaResponseDto</text><line style="stroke:#181818;stroke-width:0.5;" x1="1712.7" x2="1851.3064" y1="146.4556" y2="146.4556"/><line style="stroke:#181818;stroke-width:0.5;" x1="1712.7" x2="1851.3064" y1="154.4556" y2="154.4556"/></g><!--class AlertaPrecio--><g class="entity" data-qualified-name="domain.alertas.AlertaPrecio" data-source-line="49" id="ent0013"><rect fill="#F1F1F1" height="121.4531" rx="2.5" ry="2.5" style="stroke:#181818;stroke-width:0.5;" width="195.7773" x="95.11" y="287.64"/><text fill="#000000" font-family="sans-serif" font-size="12" font-style="italic" lengthAdjust="spacing" textLength="49.5176" x="168.2399" y="303.7787">&#171;entity&#187;</text><text fill="#000000" font-family="sans-serif" font-size="14" lengthAdjust="spacing" textLength="84.8682" x="150.5646" y="319.6039">AlertaPrecio</text><line style="stroke:#181818;stroke-width:0.5;" x1="96.11" x2="289.8873" y1="327.9056" y2="327.9056"/><text fill="#000000" font-family="sans-serif" font-size="14" lengthAdjust="spacing" textLength="151.2109" x="101.11" y="344.9007">-estado: EstadoAlerta</text><line style="stroke:#181818;stroke-width:0.5;" x1="96.11" x2="289.8873" y1="352.2025" y2="352.2025"/><text fill="#000000" font-family="sans-serif" font-size="14" lengthAdjust="spacing" textLength="183.7773" x="101.11" y="369.1976">+evaluar(precio): boolean</text><text fill="#000000" font-family="sans-serif" font-size="14" lengthAdjust="spacing" textLength="182.6836" x="101.11" y="385.4945">+marcarDisparada(): void</text><text fill="#000000" font-family="sans-serif" font-size="14" lengthAdjust="spacing" textLength="118.125" x="101.11" y="401.7914">+rearmar(): void</text></g><!--class EstadoAlerta--><g class="entity" data-qualified-name="domain.alertas.EstadoAlerta" data-source-line="55" id="ent0014"><rect fill="#F1F1F1" height="91.1875" rx="2.5" ry="2.5" style="stroke:#181818;stroke-width:0.5;" width="177.8193" x="22.09" y="469.09"/><text fill="#000000" font-family="sans-serif" font-size="14" lengthAdjust="spacing" textLength="89.5645" x="66.2174" y="487.0851">EstadoAlerta</text><line style="stroke:#181818;stroke-width:0.5;" x1="23.09" x2="198.9093" y1="495.3869" y2="495.3869"/><text fill="#000000" font-family="sans-serif" font-size="14" lengthAdjust="spacing" textLength="79.4473" x="28.09" y="512.382">OPERATIVA</text><text fill="#000000" font-family="sans-serif" font-size="14" lengthAdjust="spacing" textLength="81.4775" x="28.09" y="528.6789">DISPARADA</text><text fill="#000000" font-family="sans-serif" font-size="14" lengthAdjust="spacing" textLength="165.8193" x="28.09" y="544.9757">NOTIFICACION_FALLIDA</text><line style="stroke:#181818;stroke-width:0.5;" x1="23.09" x2="198.9093" y1="552.2775" y2="552.2775"/></g><!--class Umbral--><g class="entity" data-qualified-name="domain.alertas.Umbral" data-source-line="60" id="ent0015"><rect fill="#F1F1F1" height="56.2656" rx="2.5" ry="2.5" style="stroke:#181818;stroke-width:0.5;" width="56.9961" x="234.5" y="486.55"/><text fill="#000000" font-family="sans-serif" font-size="12" font-style="italic" lengthAdjust="spacing" textLength="47.4609" x="239.2676" y="502.6887">&#171;value&#187;</text><text fill="#000000" font-family="sans-serif" font-size="14" lengthAdjust="spacing" textLength="50.9961" x="237.5" y="518.5139">Umbral</text><line style="stroke:#181818;stroke-width:0.5;" x1="235.5" x2="290.4961" y1="526.8156" y2="526.8156"/><line style="stroke:#181818;stroke-width:0.5;" x1="235.5" x2="290.4961" y1="534.8156" y2="534.8156"/></g><!--class AlertaOrmEntity--><g class="entity" data-qualified-name="infrastructure.persistence.postgres.AlertaOrmEntity" data-source-line="64" id="ent0017"><rect fill="#FFF3E0" height="56.2656" rx="2.5" ry="2.5" style="stroke:#181818;stroke-width:0.5;" width="119.1895" x="2354.41" y="320.23"/><text fill="#000000" font-family="sans-serif" font-size="12" font-style="italic" lengthAdjust="spacing" textLength="38.6484" x="2394.6805" y="336.3687">&#171;orm&#187;</text><text fill="#000000" font-family="sans-serif" font-size="14" lengthAdjust="spacing" textLength="113.1895" x="2357.41" y="352.1939">AlertaOrmEntity</text><line style="stroke:#181818;stroke-width:0.5;" x1="2355.41" x2="2472.5995" y1="360.4956" y2="360.4956"/><line style="stroke:#181818;stroke-width:0.5;" x1="2355.41" x2="2472.5995" y1="368.4956" y2="368.4956"/></g><!--class AlertasRepositoryTypeOrm--><g class="entity" data-qualified-name="infrastructure.persistence.postgres.AlertasRepositoryTypeOrm" data-source-line="65" id="ent0018"><rect fill="#FFF3E0" height="121.4531" rx="2.5" ry="2.5" style="stroke:#181818;stroke-width:0.5;" width="208.5879" x="2353.71" y="73.59"/><text fill="#000000" font-family="sans-serif" font-size="12" font-style="italic" lengthAdjust="spacing" textLength="41.959" x="2437.0245" y="89.7287">&#171;repo&#187;</text><text fill="#000000" font-family="sans-serif" font-size="14" lengthAdjust="spacing" textLength="189.0205" x="2363.4937" y="105.5539">AlertasRepositoryTypeOrm</text><line style="stroke:#181818;stroke-width:0.5;" x1="2354.71" x2="2561.2979" y1="113.8556" y2="113.8556"/><line style="stroke:#181818;stroke-width:0.5;" x1="2354.71" x2="2561.2979" y1="121.8556" y2="121.8556"/><text fill="#000000" font-family="sans-serif" font-size="14" lengthAdjust="spacing" textLength="64.0049" x="2359.71" y="138.8507">+save(a)</text><text fill="#000000" font-family="sans-serif" font-size="14" lengthAdjust="spacing" textLength="92.9141" x="2359.71" y="155.1476">+findById(id)</text><text fill="#000000" font-family="sans-serif" font-size="14" lengthAdjust="spacing" textLength="196.5879" x="2359.71" y="171.4445">+findOperativasPorToken(t)</text><text fill="#000000" font-family="sans-serif" font-size="14" lengthAdjust="spacing" textLength="79.5361" x="2359.71" y="187.7414">+delete(id)</text></g><!--class AlertaOrmMapper--><g class="entity" data-qualified-name="infrastructure.persistence.postgres.AlertaOrmMapper" data-source-line="71" id="ent0019"><rect fill="#FFF3E0" height="56.2656" rx="2.5" ry="2.5" style="stroke:#181818;stroke-width:0.5;" width="131.1182" x="2508.44" y="320.23"/><text fill="#000000" font-family="sans-serif" font-size="12" font-style="italic" lengthAdjust="spacing" textLength="61.2773" x="2543.3604" y="336.3687">&#171;mapper&#187;</text><text fill="#000000" font-family="sans-serif" font-size="14" lengthAdjust="spacing" textLength="125.1182" x="2511.44" y="352.1939">AlertaOrmMapper</text><line style="stroke:#181818;stroke-width:0.5;" x1="2509.44" x2="2638.5582" y1="360.4956" y2="360.4956"/><line style="stroke:#181818;stroke-width:0.5;" x1="2509.44" x2="2638.5582" y1="368.4956" y2="368.4956"/></g><!--link AlertasController to IAlertasService--><g class="link" data-entity-1="ent0003" data-entity-2="ent0005" data-link-type="dependency" data-source-line="74" id="lnk20"><path codeLine="74" d="M2072.34,195.4 C2047.76,208.38 2020.65,220.37 1994,227.64 C1810.76,277.6 1750.16,194.4 1567,244.64 C1533.01,253.96 1503.5954,267.359 1473.3554,284.289" fill="none" id="AlertasController-to-IAlertasService" style="stroke:#181818;stroke-width:1;stroke-dasharray:7,7;"/><polygon fill="#181818" points="1468.12,287.22,1477.9271,286.3137,1472.4828,284.7775,1474.019,279.3332,1468.12,287.22" style="stroke:#181818;stroke-width:1;"/></g><!--link AlertasService to IAlertasService--><g class="link" data-entity-1="ent0008" data-entity-2="ent0005" data-link-type="extension" data-source-line="75" id="lnk21"><path codeLine="75" d="M1153.1,223.4 C1191.94,244.91 1216.8736,258.7093 1252.7336,278.5693" fill="none" id="AlertasService-to-IAlertasService" style="stroke:#181818;stroke-width:1;stroke-dasharray:7,7;"/><polygon fill="none" points="1268.48,287.29,1255.6405,273.3205,1249.8267,283.8181,1268.48,287.29" style="stroke:#181818;stroke-width:1;"/></g><!--link AlertasService to IAlertasQueryService--><g class="link" data-entity-1="ent0008" data-entity-2="ent0006" data-link-type="extension" data-source-line="76" id="lnk22"><path codeLine="76" d="M834.87,213.98 C767.03,247.51 707.3866,276.9844 653.4466,303.6444" fill="none" id="AlertasService-to-IAlertasQueryService" style="stroke:#181818;stroke-width:1;stroke-dasharray:7,7;"/><polygon fill="none" points="637.31,311.62,656.1051,309.0233,650.7881,298.2656,637.31,311.62" style="stroke:#181818;stroke-width:1;"/></g><!--link AlertasService to IAlertasRepository--><g class="link" data-entity-1="ent0008" data-entity-2="ent0007" data-link-type="dependency" data-source-line="77" id="lnk23"><path codeLine="77" d="M1153.11,173.4 C1233.39,191.66 1332.49,212.74 1422,227.64 C1485.57,238.22 1504.09,226.73 1566,244.64 C1602.06,255.07 1634.184,268.3963 1667.584,284.6363" fill="none" id="AlertasService-to-IAlertasRepository" style="stroke:#181818;stroke-width:1;stroke-dasharray:7,7;"/><polygon fill="#181818" points="1672.98,287.26,1666.6352,279.7272,1668.4834,285.0736,1663.137,286.9218,1672.98,287.26" style="stroke:#181818;stroke-width:1;"/></g><!--link AlertasService to AlertaPrecioMapper--><g class="link" data-entity-1="ent0008" data-entity-2="ent0009" data-link-type="dependency" data-source-line="78" id="lnk24"><path codeLine="78" d="M994,228.02 C994,254.32 994,275.73 994,297.64" fill="none" id="AlertasService-to-AlertaPrecioMapper" style="stroke:#181818;stroke-width:1;stroke-dasharray:7,7;"/><polygon fill="#181818" points="994,303.64,998,294.64,994,298.64,990,294.64,994,303.64" style="stroke:#181818;stroke-width:1;"/></g><!--link AlertasService to AlertaPrecio--><g class="link" data-entity-1="ent0008" data-entity-2="ent0013" data-link-type="dependency" data-source-line="79" id="lnk25"><path codeLine="79" d="M835.11,140.49 C697.01,149.82 494.07,175.37 331,244.64 C306.12,255.21 286.3692,267.5125 265.0392,283.7025" fill="none" id="AlertasService-to-AlertaPrecio" style="stroke:#181818;stroke-width:1;stroke-dasharray:7,7;"/><polygon fill="#181818" points="260.26,287.33,269.8472,285.0748,264.2427,284.307,265.0105,278.7025,260.26,287.33" style="stroke:#181818;stroke-width:1;"/></g><!--link AlertaPrecio to EstadoAlerta--><g class="link" data-entity-1="ent0013" data-entity-2="ent0014" data-link-type="dependency" data-source-line="80" id="lnk26"><path codeLine="80" d="M163.16,409.15 C153.36,428.79 145.3198,444.9117 136.1598,463.2617" fill="none" id="AlertaPrecio-to-EstadoAlerta" style="stroke:#181818;stroke-width:1;"/><polygon fill="#181818" points="133.48,468.63,141.0785,462.364,135.7131,464.1564,133.9208,458.791,133.48,468.63" style="stroke:#181818;stroke-width:1;"/></g><!--link AlertaPrecio to Umbral--><g class="link" data-entity-1="ent0013" data-entity-2="ent0015" data-link-type="dependency" data-source-line="81" id="lnk27"><path codeLine="81" d="M218.47,409.15 C229.73,435.58 240.0589,459.8298 248.9989,480.8198" fill="none" id="AlertaPrecio-to-Umbral" style="stroke:#181818;stroke-width:1;"/><polygon fill="#181818" points="251.35,486.34,251.5034,476.4923,249.3907,481.7399,244.1432,479.6272,251.35,486.34" style="stroke:#181818;stroke-width:1;"/></g><!--link AlertasRepositoryTypeOrm to IAlertasRepository--><g class="link" data-entity-1="ent0018" data-entity-2="ent0007" data-link-type="extension" data-source-line="83" id="lnk28"><path codeLine="83" d="M2375.04,195.4 C2355.7,207.43 2334.69,219 2314,227.64 C2207.01,272.31 2098.3777,298.4445 1995.5477,316.8745" fill="none" id="AlertasRepositoryTypeOrm-to-IAlertasRepository" style="stroke:#181818;stroke-width:1;stroke-dasharray:7,7;"/><polygon fill="none" points="1977.83,320.05,1996.6062,322.7804,1994.4892,310.9686,1977.83,320.05" style="stroke:#181818;stroke-width:1;"/></g><!--link AlertasRepositoryTypeOrm to AlertaOrmEntity--><g class="link" data-entity-1="ent0018" data-entity-2="ent0017" data-link-type="dependency" data-source-line="84" id="lnk29"><path codeLine="84" d="M2445.51,195.52 C2437.02,236.41 2427.4189,282.6951 2420.9189,314.0251" fill="none" id="AlertasRepositoryTypeOrm-to-AlertaOrmEntity" style="stroke:#181818;stroke-width:1;stroke-dasharray:7,7;"/><polygon fill="#181818" points="2419.7,319.9,2425.4449,311.9002,2420.7157,315.0043,2417.6117,310.2751,2419.7,319.9" style="stroke:#181818;stroke-width:1;"/></g><!--link AlertasRepositoryTypeOrm to AlertaOrmMapper--><g class="link" data-entity-1="ent0018" data-entity-2="ent0019" data-link-type="dependency" data-source-line="85" id="lnk30"><path codeLine="85" d="M2490.93,195.52 C2513.3,236.41 2538.9616,283.3055 2556.0916,314.6355" fill="none" id="AlertasRepositoryTypeOrm-to-AlertaOrmMapper" style="stroke:#181818;stroke-width:1;stroke-dasharray:7,7;"/><polygon fill="#181818" points="2558.97,319.9,2558.162,310.0843,2556.5713,315.5129,2551.1427,313.9222,2558.97,319.9" style="stroke:#181818;stroke-width:1;"/></g><?plantuml-src hLN9Rjim4BthAuJqugAn4w2tm52XU044fB6RkEqX28gnDBO9KwH0KWwSDl_UaUI5skmKg0yoHRvPtjFCKA-PI411xEeLHFA5YQMx0AxHqOUJa8FMlZ6ApLE3GIZ58tj5zzfPiGZTaAcGe-Ca4AvXYUv5eb2ZC62O55ShOv8huAWCw0ltj-FIB_Vd-iNcG0gZ9ASNjzyF3o-UjmDdlqzkg11K9pBouytEy05r8eN6eP4MZZDj2BXWdFmqOP-UBJH6B4EpwD8zxnevYvd8uOJSI1RbXs_EcyKTaeIpiA1UOSs4GRM04DrWH_qHrORHUx-VI6MwJ9mWFLKoPXhxjGoz4-nRZPwUlLCol2jOMO-zIQQBjnEccVMt5DNs77M5OPgW0ZN9dePjG4-f5Zj6hb7KCfmId1r8jGL-m4HgPgJQxiFAr5JYQjXW1nhv58054z7jDeZAhEqqlbJX5WMfPXc1ZZb3eJ2EaAF1q_gMUkcegYvM9NPTTrUHDmsIM2WgN-1oAGass2tjRsOXNt2-ad9Dm9_5YffPO4Z-BD0ypGAEDZGIRbFz_ygxlO1RYhH5jKBvhzIv-GYAyqMbB1QK7YMJ9NlfxclGDhUmHkxJxy0bIHw2U8KvnzRnOgSqo3GfO7HCwL14pwlbRBauOEmn5CaOc3WrTukqoPW-2pFRIg4W2HrH0Opo_yB2LdK3F2LHazm94PjBoH641Ob1XQ26J6TNI0GTUsJkMnmKeJhbOPezKQHnARILssGwUl1dmG__i3CC7gV-WpyyxjnFPi4u6FY3O7B_Q-pVtGMxGrlfx_5S0IS1CYvOqO-9XG9jL1gQLE4L5OIcsaCHqbfgiwGRhadKYOf7kPpaLggOHFqm7ey_ZwxhhNhilDasGJ8a4qLxHvkckTGoYDupS1hdIajBK3hrVjXJ8PtgLtUlvrMlDQSob7gzF_-6AGsT6j1h6c8Dg7gJdqCvfGxfThro6zHEYqewg5B_iYLMzMoR3BngHRqJN33y2m00?></g></svg>