<?plantuml 1.2026.1?><svg xmlns="http://www.w3.org/2000/svg" xmlns:xlink="http://www.w3.org/1999/xlink" contentStyleType="text/css" data-diagram-type="CLASS" height="862px" preserveAspectRatio="none" style="width:1768px;height:862px;background:#FFFFFF;" version="1.1" viewBox="0 0 1768 862" width="1768px" zoomAndPan="magnify"><defs/><g><!--cluster presentaci?n--><g class="cluster" data-qualified-name="presentaci.n" data-source-line="5" id="ent0002"><path d="M390.5,6 L494.5381,6 A3.75,3.75 0 0 1 497.0381,8.5 L504.0381,28.2969 L601.5,28.2969 A2.5,2.5 0 0 1 604,30.7969 L604,175.95 A2.5,2.5 0 0 1 601.5,178.45 L390.5,178.45 A2.5,2.5 0 0 1 388,175.95 L388,8.5 A2.5,2.5 0 0 1 390.5,6" fill="none" style="stroke:#000000;stroke-width:1.5;"/><line style="stroke:#000000;stroke-width:1.5;" x1="388" x2="504.0381" y1="28.2969" y2="28.2969"/><text fill="#000000" font-family="sans-serif" font-size="14" font-weight="bold" lengthAdjust="spacing" textLength="103.0381" x="392" y="20.9951">presentaci&#243;n</text></g><!--cluster modules/alertas--><g class="cluster" data-qualified-name="modules.alertas" data-source-line="14" id="ent0004"><path d="M340.5,211.45 L468.5527,211.45 A3.75,3.75 0 0 1 471.0527,213.95 L478.0527,233.7469 L651.5,233.7469 A2.5,2.5 0 0 1 654,236.2469 L654,446.6 A2.5,2.5 0 0 1 651.5,449.1 L340.5,449.1 A2.5,2.5 0 0 1 338,446.6 L338,213.95 A2.5,2.5 0 0 1 340.5,211.45" fill="none" style="stroke:#000000;stroke-width:1.5;"/><line style="stroke:#000000;stroke-width:1.5;" x1="338" x2="478.0527" y1="233.7469" y2="233.7469"/><text fill="#000000" font-family="sans-serif" font-size="14" font-weight="bold" lengthAdjust="spacing" textLength="127.0527" x="342" y="226.4451">modules/alertas</text></g><!--cluster modules/notificacion--><g class="cluster" data-qualified-name="modules.notificacion" data-source-line="27" id="ent0006"><path d="M477.5,530.69 L642.8291,530.69 A3.75,3.75 0 0 1 645.3291,533.19 L652.3291,552.9869 L834.5,552.9869 A2.5,2.5 0 0 1 837,555.4869 L837,668.05 A2.5,2.5 0 0 1 834.5,670.55 L477.5,670.55 A2.5,2.5 0 0 1 475,668.05 L475,533.19 A2.5,2.5 0 0 1 477.5,530.69" fill="none" style="stroke:#000000;stroke-width:1.5;"/><line style="stroke:#000000;stroke-width:1.5;" x1="475" x2="652.3291" y1="552.9869" y2="552.9869"/><text fill="#000000" font-family="sans-serif" font-size="14" font-weight="bold" lengthAdjust="spacing" textLength="164.3291" x="479" y="545.6851">modules/notificacion</text></g><!--cluster domain--><g class="cluster" data-qualified-name="domain" data-source-line="34" id="ent0008"><path d="M863.5,498.1 L922.9404,498.1 A3.75,3.75 0 0 1 925.4404,500.6 L932.4404,520.3969 L1522.5,520.3969 A2.5,2.5 0 0 1 1525,522.8969 L1525,852.83 A2.5,2.5 0 0 1 1522.5,855.33 L863.5,855.33 A2.5,2.5 0 0 1 861,852.83 L861,500.6 A2.5,2.5 0 0 1 863.5,498.1" fill="none" style="stroke:#000000;stroke-width:1.5;"/><line style="stroke:#000000;stroke-width:1.5;" x1="861" x2="932.4404" y1="520.3969" y2="520.3969"/><text fill="#000000" font-family="sans-serif" font-size="14" font-weight="bold" lengthAdjust="spacing" textLength="58.4404" x="865" y="513.0951">domain</text></g><!--cluster persistence--><g class="cluster" data-qualified-name="persistence" data-source-line="57" id="ent0013"><path d="M8.5,538.84 L101.334,538.84 A3.75,3.75 0 0 1 103.834,541.34 L110.834,561.1369 L448.5,561.1369 A2.5,2.5 0 0 1 451,563.6369 L451,659.9 A2.5,2.5 0 0 1 448.5,662.4 L8.5,662.4 A2.5,2.5 0 0 1 6,659.9 L6,541.34 A2.5,2.5 0 0 1 8.5,538.84" fill="none" style="stroke:#000000;stroke-width:1.5;"/><line style="stroke:#000000;stroke-width:1.5;" x1="6" x2="110.834" y1="561.1369" y2="561.1369"/><text fill="#000000" font-family="sans-serif" font-size="14" font-weight="bold" lengthAdjust="spacing" textLength="91.834" x="10" y="553.8351">persistence</text></g><!--class registerAlertasRoutes--><g class="entity" data-qualified-name="presentaci.n.registerAlertasRoutes" data-source-line="6" id="ent0003"><rect fill="#F1F1F1" height="121.4531" rx="2.5" ry="2.5" style="stroke:#181818;stroke-width:0.5;" width="183.0488" x="404.48" y="41"/><text fill="#000000" font-family="sans-serif" font-size="12" font-style="italic" lengthAdjust="spacing" textLength="66.0117" x="462.9986" y="57.1387">&#171;gateway&#187;</text><text fill="#000000" font-family="sans-serif" font-size="14" lengthAdjust="spacing" textLength="152.0586" x="419.9751" y="72.9639">registerAlertasRoutes</text><line style="stroke:#181818;stroke-width:0.5;" x1="405.48" x2="586.5288" y1="81.2656" y2="81.2656"/><text fill="#000000" font-family="sans-serif" font-size="14" lengthAdjust="spacing" textLength="132.0703" x="410.48" y="98.2607">+POST /api/alertas</text><text fill="#000000" font-family="sans-serif" font-size="14" lengthAdjust="spacing" textLength="123.416" x="410.48" y="114.5576">+GET /api/alertas</text><text fill="#000000" font-family="sans-serif" font-size="14" lengthAdjust="spacing" textLength="164.2539" x="410.48" y="130.8545">+PATCH /api/alertas/:id</text><text fill="#000000" font-family="sans-serif" font-size="14" lengthAdjust="spacing" textLength="171.0488" x="410.48" y="147.1514">+DELETE /api/alertas/:id</text><line style="stroke:#181818;stroke-width:0.5;" x1="405.48" x2="586.5288" y1="154.4531" y2="154.4531"/></g><!--class AlertasService--><g class="entity" data-qualified-name="modules.alertas.AlertasService" data-source-line="15" id="ent0005"><rect fill="#F1F1F1" height="186.6406" rx="2.5" ry="2.5" style="stroke:#181818;stroke-width:0.5;" width="284.6992" x="353.65" y="246.45"/><text fill="#000000" font-family="sans-serif" font-size="12" font-style="italic" lengthAdjust="spacing" textLength="57.668" x="467.1656" y="262.5887">&#171;service&#187;</text><text fill="#000000" font-family="sans-serif" font-size="14" lengthAdjust="spacing" textLength="100.9395" x="445.5299" y="278.4139">AlertasService</text><line style="stroke:#181818;stroke-width:0.5;" x1="354.65" x2="637.3492" y1="286.7156" y2="286.7156"/><text fill="#000000" font-family="sans-serif" font-size="14" lengthAdjust="spacing" textLength="56.8271" x="359.65" y="303.7107">-db : DB</text><text fill="#000000" font-family="sans-serif" font-size="14" lengthAdjust="spacing" textLength="219.3926" x="359.65" y="320.0076">-webhook : WebhookConnector</text><line style="stroke:#181818;stroke-width:0.5;" x1="354.65" x2="637.3492" y1="327.3094" y2="327.3094"/><text fill="#000000" font-family="sans-serif" font-size="14" lengthAdjust="spacing" textLength="95.0674" x="359.65" y="344.3045">+crear(input)</text><text fill="#000000" font-family="sans-serif" font-size="14" lengthAdjust="spacing" textLength="97.501" x="359.65" y="360.6014">+listar(filtro?)</text><text fill="#000000" font-family="sans-serif" font-size="14" lengthAdjust="spacing" textLength="171.5615" x="359.65" y="376.8982">+actualizar(id, cambios)</text><text fill="#000000" font-family="sans-serif" font-size="14" lengthAdjust="spacing" textLength="92.5586" x="359.65" y="393.1951">+eliminar(id)</text><text fill="#000000" font-family="sans-serif" font-size="14" lengthAdjust="spacing" textLength="272.6992" x="359.65" y="409.492">+recuperarOperativasPorToken(token)</text><text fill="#000000" font-family="sans-serif" font-size="14" lengthAdjust="spacing" textLength="197.21" x="359.65" y="425.7889">+marcarComoDisparada(id)</text></g><!--class WebhookConnector--><g class="entity" data-qualified-name="modules.notificacion.WebhookConnector" data-source-line="28" id="ent0007"><rect fill="#F1F1F1" height="88.8594" rx="2.5" ry="2.5" style="stroke:#181818;stroke-width:0.5;" width="329.8096" x="491.1" y="565.69"/><text fill="#000000" font-family="sans-serif" font-size="12" font-style="italic" lengthAdjust="spacing" textLength="61.6465" x="625.1815" y="581.8287">&#171;adapter&#187;</text><text fill="#000000" font-family="sans-serif" font-size="14" lengthAdjust="spacing" textLength="137.6621" x="587.1737" y="597.6539">WebhookConnector</text><line style="stroke:#181818;stroke-width:0.5;" x1="492.1" x2="819.9096" y1="605.9556" y2="605.9556"/><line style="stroke:#181818;stroke-width:0.5;" x1="492.1" x2="819.9096" y1="613.9556" y2="613.9556"/><text fill="#000000" font-family="sans-serif" font-size="14" lengthAdjust="spacing" textLength="317.8096" x="497.1" y="630.9507">+checkReachability(url) : Promise&lt;boolean&gt;</text><text fill="#000000" font-family="sans-serif" font-size="14" lengthAdjust="spacing" textLength="287.6563" x="497.1" y="647.2476">+transmit(url, payload) : Promise&lt;void&gt;</text></g><!--class AlertaPrecio--><g class="entity" data-qualified-name="domain.AlertaPrecio" data-source-line="35" id="ent0009"><rect fill="#F1F1F1" height="154.0469" rx="2.5" ry="2.5" style="stroke:#181818;stroke-width:0.5;" width="174.3398" x="986.83" y="533.1"/><text fill="#000000" font-family="sans-serif" font-size="12" font-style="italic" lengthAdjust="spacing" textLength="49.5176" x="1049.2411" y="549.2387">&#171;entity&#187;</text><text fill="#000000" font-family="sans-serif" font-size="14" lengthAdjust="spacing" textLength="84.8682" x="1031.5658" y="565.0639">AlertaPrecio</text><line style="stroke:#181818;stroke-width:0.5;" x1="987.83" x2="1160.1698" y1="573.3656" y2="573.3656"/><text fill="#000000" font-family="sans-serif" font-size="14" lengthAdjust="spacing" textLength="73.5273" x="992.83" y="590.3607">+id : UUID</text><text fill="#000000" font-family="sans-serif" font-size="14" lengthAdjust="spacing" textLength="105.1846" x="992.83" y="606.6576">+token : string</text><text fill="#000000" font-family="sans-serif" font-size="14" lengthAdjust="spacing" textLength="147.2598" x="992.83" y="622.9545">+mercado : Mercado</text><text fill="#000000" font-family="sans-serif" font-size="14" lengthAdjust="spacing" textLength="125.9658" x="992.83" y="639.2514">+umbral : Umbral</text><text fill="#000000" font-family="sans-serif" font-size="14" lengthAdjust="spacing" textLength="153.8633" x="992.83" y="655.5482">+webhook : Webhook</text><text fill="#000000" font-family="sans-serif" font-size="14" lengthAdjust="spacing" textLength="162.3398" x="992.83" y="671.8451">+estado : EstadoAlerta</text><line style="stroke:#181818;stroke-width:0.5;" x1="987.83" x2="1160.1698" y1="679.1469" y2="679.1469"/></g><!--class EstadoAlerta--><g class="entity" data-qualified-name="domain.EstadoAlerta" data-source-line="43" id="ent0010"><rect fill="#F1F1F1" height="91.1875" rx="2.5" ry="2.5" style="stroke:#181818;stroke-width:0.5;" width="177.8193" x="877.09" y="748.14"/><text fill="#000000" font-family="sans-serif" font-size="14" lengthAdjust="spacing" textLength="89.5645" x="921.2174" y="766.1351">EstadoAlerta</text><line style="stroke:#181818;stroke-width:0.5;" x1="878.09" x2="1053.9093" y1="774.4369" y2="774.4369"/><text fill="#000000" font-family="sans-serif" font-size="14" lengthAdjust="spacing" textLength="79.4473" x="883.09" y="791.432">OPERATIVA</text><text fill="#000000" font-family="sans-serif" font-size="14" lengthAdjust="spacing" textLength="81.4775" x="883.09" y="807.7289">DISPARADA</text><text fill="#000000" font-family="sans-serif" font-size="14" lengthAdjust="spacing" textLength="165.8193" x="883.09" y="824.0257">NOTIFICACION_FALLIDA</text><line style="stroke:#181818;stroke-width:0.5;" x1="878.09" x2="1053.9093" y1="831.3275" y2="831.3275"/></g><!--class Umbral--><g class="entity" data-qualified-name="domain.Umbral" data-source-line="48" id="ent0011"><rect fill="#F1F1F1" height="88.8594" rx="2.5" ry="2.5" style="stroke:#181818;stroke-width:0.5;" width="185.8311" x="1090.08" y="749.31"/><text fill="#000000" font-family="sans-serif" font-size="12" font-style="italic" lengthAdjust="spacing" textLength="47.4609" x="1159.2651" y="765.4487">&#171;value&#187;</text><text fill="#000000" font-family="sans-serif" font-size="14" lengthAdjust="spacing" textLength="50.9961" x="1157.4975" y="781.2739">Umbral</text><line style="stroke:#181818;stroke-width:0.5;" x1="1091.08" x2="1274.9111" y1="789.5756" y2="789.5756"/><text fill="#000000" font-family="sans-serif" font-size="14" lengthAdjust="spacing" textLength="173.8311" x="1096.08" y="806.5707">+cruce : "SUBE" | "BAJA"</text><text fill="#000000" font-family="sans-serif" font-size="14" lengthAdjust="spacing" textLength="119.3623" x="1096.08" y="822.8676">+valor : Numeric</text><line style="stroke:#181818;stroke-width:0.5;" x1="1091.08" x2="1274.9111" y1="830.1694" y2="830.1694"/></g><!--class Webhook--><g class="entity" data-qualified-name="domain.Webhook" data-source-line="52" id="ent0012"><rect fill="#F1F1F1" height="72.5625" rx="2.5" ry="2.5" style="stroke:#181818;stroke-width:0.5;" width="198.5527" x="1310.72" y="757.45"/><text fill="#000000" font-family="sans-serif" font-size="12" font-style="italic" lengthAdjust="spacing" textLength="47.4609" x="1386.2659" y="773.5887">&#171;value&#187;</text><text fill="#000000" font-family="sans-serif" font-size="14" lengthAdjust="spacing" textLength="65.4541" x="1377.2693" y="789.4139">Webhook</text><line style="stroke:#181818;stroke-width:0.5;" x1="1311.72" x2="1508.2727" y1="797.7156" y2="797.7156"/><line style="stroke:#181818;stroke-width:0.5;" x1="1311.72" x2="1508.2727" y1="805.7156" y2="805.7156"/><text fill="#000000" font-family="sans-serif" font-size="14" lengthAdjust="spacing" textLength="186.5527" x="1316.72" y="822.7107">+url : URL  (cifrada en BD)</text></g><!--class TA--><g class="entity" data-qualified-name="persistence.TA" data-source-line="58" id="ent0014"><rect fill="#ECEFF1" height="72.5625" rx="2.5" ry="2.5" style="stroke:#181818;stroke-width:0.5;" width="181.9912" x="22" y="573.84"/><text fill="#000000" font-family="sans-serif" font-size="12" font-style="italic" lengthAdjust="spacing" textLength="45.0762" x="90.4575" y="589.9787">&#171;table&#187;</text><text fill="#000000" font-family="sans-serif" font-size="14" lengthAdjust="spacing" textLength="88.0742" x="68.9585" y="605.8039">tabla alertas</text><text fill="#000000" font-family="sans-serif" font-size="14" lengthAdjust="spacing" textLength="175.9912" x="25" y="622.1007">(webhook_url_enc bytea)</text><line style="stroke:#181818;stroke-width:0.5;" x1="23" x2="202.9912" y1="630.4025" y2="630.4025"/><line style="stroke:#181818;stroke-width:0.5;" x1="23" x2="202.9912" y1="638.4025" y2="638.4025"/></g><!--class PGC--><g class="entity" data-qualified-name="persistence.PGC" data-source-line="59" id="ent0015"><rect fill="#ECEFF1" height="72.5625" rx="2.5" ry="2.5" style="stroke:#181818;stroke-width:0.5;" width="196.709" x="238.65" y="573.84"/><text fill="#000000" font-family="sans-serif" font-size="12" font-style="italic" lengthAdjust="spacing" textLength="96.8555" x="288.5768" y="589.9787">&#171;infrastructure&#187;</text><text fill="#000000" font-family="sans-serif" font-size="14" lengthAdjust="spacing" textLength="62.4531" x="305.7779" y="605.8039">pgcrypto</text><text fill="#000000" font-family="sans-serif" font-size="14" lengthAdjust="spacing" textLength="190.709" x="241.65" y="622.1007">pgp_sym_encrypt / decrypt</text><line style="stroke:#181818;stroke-width:0.5;" x1="239.65" x2="434.359" y1="630.4025" y2="630.4025"/><line style="stroke:#181818;stroke-width:0.5;" x1="239.65" x2="434.359" y1="638.4025" y2="638.4025"/></g><g class="entity" data-qualified-name="GMN24" data-source-line="72" id="ent0025"><path d="M1540.6,589.99 L1540.6,630.2556 L1761.3988,630.2556 L1761.3988,599.99 L1751.3988,589.99 L1540.6,589.99" fill="#FEFFDD" style="stroke:#181818;stroke-width:0.5;"/><path d="M1751.3988,589.99 L1751.3988,599.99 L1761.3988,599.99 L1751.3988,589.99" fill="#FEFFDD" style="stroke:#181818;stroke-width:1;"/><text fill="#000000" font-family="sans-serif" font-size="13" lengthAdjust="spacing" textLength="199.7988" x="1546.6" y="607.0569">&#205;ndice (token_simbolo, estado)</text><text fill="#000000" font-family="sans-serif" font-size="13" lengthAdjust="spacing" textLength="130.4126" x="1546.6" y="622.1897">para CU-13 (RS-02).</text></g><g class="entity" data-qualified-name="GMN27" data-source-line="77" id="ent0028"><path d="M232.28,758.47 L232.28,829.0013 A0,0 0 0 0 232.28,829.0013 L441.7165,829.0013 A0,0 0 0 0 441.7165,829.0013 L441.7165,768.47 L431.7165,758.47 L341,758.47 L337,646.57 L333,758.47 L232.28,758.47 A0,0 0 0 0 232.28,758.47" fill="#FEFFDD" style="stroke:#181818;stroke-width:0.5;"/><path d="M431.7165,758.47 L431.7165,768.47 L441.7165,768.47 L431.7165,758.47" fill="#FEFFDD" style="stroke:#181818;stroke-width:0.5;"/><text fill="#000000" font-family="sans-serif" font-size="13" lengthAdjust="spacing" textLength="177.3345" x="238.28" y="775.5369">RS-10: la URL nunca queda</text><text fill="#000000" font-family="sans-serif" font-size="13" lengthAdjust="spacing" textLength="157.8853" x="238.28" y="790.6697">en BD en texto plano; la</text><text fill="#000000" font-family="sans-serif" font-size="13" lengthAdjust="spacing" textLength="188.4365" x="238.28" y="805.8025">clave maestra (APP_SECRET)</text><text fill="#000000" font-family="sans-serif" font-size="13" lengthAdjust="spacing" textLength="122.7954" x="238.28" y="820.9353">vive en el proceso.</text></g><!--link registerAlertasRoutes to AlertasService--><g class="link" data-entity-1="ent0003" data-entity-2="ent0005" data-link-type="dependency" data-source-line="62" id="lnk16"><path codeLine="62" d="M496,162.9 C496,188.17 496,212.14 496,240.12" fill="none" id="registerAlertasRoutes-to-AlertasService" style="stroke:#181818;stroke-width:1;stroke-dasharray:7,7;"/><polygon fill="#181818" points="496,246.12,500,237.12,496,241.12,492,237.12,496,246.12" style="stroke:#181818;stroke-width:1;"/></g><!--link AlertasService to TA--><g class="link" data-entity-1="ent0005" data-entity-2="ent0014" data-link-type="dependency" data-source-line="63" id="lnk17"><path codeLine="63" d="M353.26,406.59 C308.91,430.05 261.16,458.56 221,490.1 C190.06,514.39 164.201,543.3551 143.831,568.6751" fill="none" id="AlertasService-to-TA" style="stroke:#181818;stroke-width:1;stroke-dasharray:7,7;"/><polygon fill="#181818" points="140.07,573.35,148.8281,568.8449,143.2042,569.4542,142.5949,563.8303,140.07,573.35" style="stroke:#181818;stroke-width:1;"/></g><!--link AlertasService to PGC--><g class="link" data-entity-1="ent0005" data-entity-2="ent0015" data-link-type="dependency" data-source-line="64" id="lnk18"><path codeLine="64" d="M441.06,433.5 C412.42,481.83 382.1396,532.9487 361.0596,568.5087" fill="none" id="AlertasService-to-PGC" style="stroke:#181818;stroke-width:1;stroke-dasharray:7,7;"/><polygon fill="#181818" points="358,573.67,366.0303,567.9678,360.5497,569.3689,359.1486,563.8883,358,573.67" style="stroke:#181818;stroke-width:1;"/><text fill="#000000" font-family="sans-serif" font-size="13" lengthAdjust="spacing" textLength="103.6509" x="422" y="478.1669">cifrar / descifrar</text></g><!--link AlertasService to WebhookConnector--><g class="link" data-entity-1="ent0005" data-entity-2="ent0007" data-link-type="dependency" data-source-line="65" id="lnk19"><path codeLine="65" d="M551.29,433.5 C577.93,478.19 605.5681,524.526 626.7981,560.146" fill="none" id="AlertasService-to-WebhookConnector" style="stroke:#181818;stroke-width:1;stroke-dasharray:7,7;"/><polygon fill="#181818" points="629.87,565.3,628.6982,555.5211,627.3101,561.005,621.8262,559.6169,629.87,565.3" style="stroke:#181818;stroke-width:1;"/><text fill="#000000" font-family="sans-serif" font-size="13" lengthAdjust="spacing" textLength="118.2886" x="577" y="478.1669">checkReachability</text></g><!--link AlertasService to AlertaPrecio--><g class="link" data-entity-1="ent0005" data-entity-2="ent0009" data-link-type="dependency" data-source-line="66" id="lnk20"><path codeLine="66" d="M638.61,401.23 C699.99,427.77 772.36,459.74 837,490.1 C886.91,513.53 936.635,538.364 981.125,561.054" fill="none" id="AlertasService-to-AlertaPrecio" style="stroke:#181818;stroke-width:1;stroke-dasharray:7,7;"/><polygon fill="#181818" points="986.47,563.78,980.2698,556.1277,982.0158,561.5084,976.6352,563.2544,986.47,563.78" style="stroke:#181818;stroke-width:1;"/></g><!--link AlertaPrecio to EstadoAlerta--><g class="link" data-entity-1="ent0009" data-entity-2="ent0010" data-link-type="dependency" data-source-line="67" id="lnk21"><path codeLine="67" d="M1028.51,687.61 C1016.35,708.07 1006.6561,724.3625 995.8661,742.5125" fill="none" id="AlertaPrecio-to-EstadoAlerta" style="stroke:#181818;stroke-width:1;"/><polygon fill="#181818" points="992.8,747.67,1000.8374,741.9779,995.355,743.3721,993.9608,737.8898,992.8,747.67" style="stroke:#181818;stroke-width:1;"/></g><!--link AlertaPrecio to Umbral--><g class="link" data-entity-1="ent0009" data-entity-2="ent0011" data-link-type="dependency" data-source-line="68" id="lnk22"><path codeLine="68" d="M1119.91,687.61 C1132.48,708.55 1142.5822,725.3955 1153.6322,743.8055" fill="none" id="AlertaPrecio-to-Umbral" style="stroke:#181818;stroke-width:1;"/><polygon fill="#181818" points="1156.72,748.95,1155.5179,739.1748,1154.1468,744.6629,1148.6587,743.2918,1156.72,748.95" style="stroke:#181818;stroke-width:1;"/></g><!--link AlertaPrecio to Webhook--><g class="link" data-entity-1="ent0009" data-entity-2="ent0012" data-link-type="dependency" data-source-line="69" id="lnk23"><path codeLine="69" d="M1161.4,658.36 C1218.47,689.21 1286.5215,725.9974 1338.7215,754.2074" fill="none" id="AlertaPrecio-to-Webhook" style="stroke:#181818;stroke-width:1;"/><polygon fill="#181818" points="1344,757.06,1337.984,749.2621,1339.6012,754.6828,1334.1805,756.3001,1344,757.06" style="stroke:#181818;stroke-width:1;"/></g><!--link TA to GMN24--><g class="link" data-entity-1="ent0014" data-entity-2="ent0025" data-link-type="association" data-source-line="72" id="lnk26"><path d="M133.51,573.35 C154.73,539.67 191.37,492.31 238.5,473.6 C271.26,460.59 1474.74,460.59 1507.5,473.6 C1566.46,497.01 1614.97,557.59 1637.47,589.6" fill="none" id="TA-GMN24" style="stroke:#181818;stroke-width:1;stroke-dasharray:7,7;"/></g><?plantuml-src TLJRRkCs47tNLmpS5mUDSsdVtC258YkxBhAnO2ljom86HOrjmXIf9IbdlTjyGh-cdx0_rg6iJUdBwa4Op0mFpmpFZDq8LJF3Ah1hLkeNeLQmPD9YPDyYN39hO-UCA1g74wxLN7n1k8dMeaJWmd29KLGplc4hX5vjqA9oZ8jl_weUV8s0lXO33Aw4TMXYYSOnEzE4P-7kRiKSlh3TQDHb--zdoARp7AvPBQxPFZ-8lKj_6ChYF7b_4BmUYZ986AUFQPwUptYDNeDIAbqs4ktthCDYkYBcQBQ28rLXzzP15GCe2nZ2-3xml62nrdf3xh_sLgALGkwq2KXoWypqwGaQTn6u9VMF_4iXdT6_Xn76NSEa-E9FbPV0MLK8RSCCbA8Iges7ReEygT4mC_L_9xRCPjhaUeEgx_m_JAwOuSmakj9ZORqyIlO6TxvtIZkn59pae8_KS5mzjP3WQjB7aH3u6lbcXeolMI6aSBj-O-G5zIypkX8Mxmgj9J8r2iuumvIjXFEfbr2pdTIi3CzijIX7PtYNkc92dNlgZ3ebDB4aTHE98vAY9F3dvyau9E7RHsvBiwDMOHkHsbXg2dtOMq6igGh3f0ThZI1o8fpmSKaNBM3Q6dl6NNd-Zwgf3c81-McMpk9yycVyvXbFvbayYyV_Uvwc-UHXaiJ9PFgqU8WV7oTTy3NeqvunTMZBP8F7hsWQ6fCXzERFzsaF_eRUVVn7t0iow1IfO0XF3VL7y1FuhkeVuDD3-wRD7W7wN2ozDAbgk1-VKoT9tVfLf3WUFdNFiK8ow2R-e-ftJLyG_8BIeTWvP1SzO1RocAZuV4_bfpH97nvkGwXwnSskTlgZgbVrmkug3-0zS0qbjbQBaxrB24WeuanAQMYGJOX8lCylpgkhqT4MYewMai_8utDUV-SGsZwPbexTs-ToJmPrU3gIvyw5OnCTpD1WC3eKwacq4_-9_xlo8zeh24QirWxqqXS9yEqVLVgxzsjhOKLLQAalkzdmCl0R2vBdmUslq9_D1pU_N5n5g4hmO1raePtJbSUa5j4HIhkz6G9fmajBDOep-DHWwOUhbPV_E_piDDIIAVqRfKQj1BP8wvBkfYlxSPOjvcaoItDFOoieHiTGGcqqHwi36ly1?></g></svg>