<?plantuml 1.2026.1?><svg xmlns="http://www.w3.org/2000/svg" xmlns:xlink="http://www.w3.org/1999/xlink" contentStyleType="text/css" data-diagram-type="CLASS" height="799px" preserveAspectRatio="none" style="width:2377px;height:799px;background:#FFFFFF;" version="1.1" viewBox="0 0 2377 799" width="2377px" zoomAndPan="magnify"><defs/><g><!--cluster presentaci?n / leaderboard--><g class="cluster" data-qualified-name="presentaci.n . leaderboard" data-source-line="5" id="ent0002"><path d="M952.5,6 L1167.5742,6 A3.75,3.75 0 0 1 1170.0742,8.5 L1177.0742,28.2969 L1227.5,28.2969 A2.5,2.5 0 0 1 1230,30.7969 L1230,143.36 A2.5,2.5 0 0 1 1227.5,145.86 L952.5,145.86 A2.5,2.5 0 0 1 950,143.36 L950,8.5 A2.5,2.5 0 0 1 952.5,6" fill="none" style="stroke:#000000;stroke-width:1.5;"/><line style="stroke:#000000;stroke-width:1.5;" x1="950" x2="1177.0742" y1="28.2969" y2="28.2969"/><text fill="#000000" font-family="sans-serif" font-size="14" font-weight="bold" lengthAdjust="spacing" textLength="214.0742" x="954" y="20.9951">presentaci&#243;n / leaderboard</text></g><!--cluster modules/leaderboard--><g class="cluster" data-qualified-name="modules.leaderboard" data-source-line="12" id="ent0004"><path d="M8.5,178.86 L177.6094,178.86 A3.75,3.75 0 0 1 180.1094,181.36 L187.1094,201.1569 L697.5,201.1569 A2.5,2.5 0 0 1 700,203.6569 L700,649.75 A2.5,2.5 0 0 1 697.5,652.25 L8.5,652.25 A2.5,2.5 0 0 1 6,649.75 L6,181.36 A2.5,2.5 0 0 1 8.5,178.86" fill="none" style="stroke:#000000;stroke-width:1.5;"/><line style="stroke:#000000;stroke-width:1.5;" x1="6" x2="187.1094" y1="201.1569" y2="201.1569"/><text fill="#000000" font-family="sans-serif" font-size="14" font-weight="bold" lengthAdjust="spacing" textLength="168.1094" x="10" y="193.8551">modules/leaderboard</text></g><!--cluster modules/meta--><g class="cluster" data-qualified-name="modules.meta" data-source-line="44" id="ent0009"><path d="M726.5,447.21 L839.6572,447.21 A3.75,3.75 0 0 1 842.1572,449.71 L849.1572,469.5069 L1121.5,469.5069 A2.5,2.5 0 0 1 1124,472.0069 L1124,633.46 A2.5,2.5 0 0 1 1121.5,635.96 L726.5,635.96 A2.5,2.5 0 0 1 724,633.46 L724,449.71 A2.5,2.5 0 0 1 726.5,447.21" fill="none" style="stroke:#000000;stroke-width:1.5;"/><line style="stroke:#000000;stroke-width:1.5;" x1="724" x2="849.1572" y1="469.5069" y2="469.5069"/><text fill="#000000" font-family="sans-serif" font-size="14" font-weight="bold" lengthAdjust="spacing" textLength="112.1572" x="728" y="462.2051">modules/meta</text></g><!--cluster sources--><g class="cluster" data-qualified-name="sources" data-source-line="54" id="ent0011"><path d="M1304.5,235.9 L1366.4492,235.9 A3.75,3.75 0 0 1 1368.9492,238.4 L1375.9492,258.1969 L1644.5,258.1969 A2.5,2.5 0 0 1 1647,260.6969 L1647,625.31 A2.5,2.5 0 0 1 1644.5,627.81 L1304.5,627.81 A2.5,2.5 0 0 1 1302,625.31 L1302,238.4 A2.5,2.5 0 0 1 1304.5,235.9" fill="none" style="stroke:#000000;stroke-width:1.5;"/><line style="stroke:#000000;stroke-width:1.5;" x1="1302" x2="1375.9492" y1="258.1969" y2="258.1969"/><text fill="#000000" font-family="sans-serif" font-size="14" font-weight="bold" lengthAdjust="spacing" textLength="60.9492" x="1306" y="250.8951">sources</text></g><!--cluster persistence--><g class="cluster" data-qualified-name="persistence" data-source-line="65" id="ent0015"><path d="M1569.5,685.25 L1662.334,685.25 A3.75,3.75 0 0 1 1664.834,687.75 L1671.834,707.5469 L1949.5,707.5469 A2.5,2.5 0 0 1 1952,710.0469 L1952,790.02 A2.5,2.5 0 0 1 1949.5,792.52 L1569.5,792.52 A2.5,2.5 0 0 1 1567,790.02 L1567,687.75 A2.5,2.5 0 0 1 1569.5,685.25" fill="none" style="stroke:#000000;stroke-width:1.5;"/><line style="stroke:#000000;stroke-width:1.5;" x1="1567" x2="1671.834" y1="707.5469" y2="707.5469"/><text fill="#000000" font-family="sans-serif" font-size="14" font-weight="bold" lengthAdjust="spacing" textLength="91.834" x="1571" y="700.2451">persistence</text></g><!--cluster bus--><g class="cluster" data-qualified-name="bus" data-source-line="70" id="ent0018"><path d="M1150.5,487.95 L1179.8213,487.95 A3.75,3.75 0 0 1 1182.3213,490.45 L1189.3213,510.2469 L1275.5,510.2469 A2.5,2.5 0 0 1 1278,512.7469 L1278,592.72 A2.5,2.5 0 0 1 1275.5,595.22 L1150.5,595.22 A2.5,2.5 0 0 1 1148,592.72 L1148,490.45 A2.5,2.5 0 0 1 1150.5,487.95" fill="none" style="stroke:#000000;stroke-width:1.5;"/><line style="stroke:#000000;stroke-width:1.5;" x1="1148" x2="1189.3213" y1="510.2469" y2="510.2469"/><text fill="#000000" font-family="sans-serif" font-size="14" font-weight="bold" lengthAdjust="spacing" textLength="28.3213" x="1152" y="502.9451">bus</text></g><!--class registerLeaderboardGateway--><g class="entity" data-qualified-name="presentaci.n . leaderboard.registerLeaderboardGateway" data-source-line="6" id="ent0003"><rect fill="#F1F1F1" height="88.8594" rx="2.5" ry="2.5" style="stroke:#181818;stroke-width:0.5;" width="248.8584" x="965.57" y="41"/><text fill="#000000" font-family="sans-serif" font-size="12" font-style="italic" lengthAdjust="spacing" textLength="66.0117" x="1056.9933" y="57.1387">&#171;gateway&#187;</text><text fill="#000000" font-family="sans-serif" font-size="14" lengthAdjust="spacing" textLength="205.0645" x="987.467" y="72.9639">registerLeaderboardGateway</text><line style="stroke:#181818;stroke-width:0.5;" x1="966.57" x2="1213.4284" y1="81.2656" y2="81.2656"/><line style="stroke:#181818;stroke-width:0.5;" x1="966.57" x2="1213.4284" y1="89.2656" y2="89.2656"/><text fill="#000000" font-family="sans-serif" font-size="14" lengthAdjust="spacing" textLength="219.1123" x="971.57" y="106.2607">+handle('subscribe', terna, ws)</text><text fill="#000000" font-family="sans-serif" font-size="14" lengthAdjust="spacing" textLength="236.8584" x="971.57" y="122.5576">+handle('unsubscribe', terna, ws)</text></g><!--class LeaderboardService--><g class="entity" data-qualified-name="modules.leaderboard.LeaderboardService" data-source-line="13" id="ent0005"><rect fill="#F1F1F1" height="170.3438" rx="2.5" ry="2.5" style="stroke:#181818;stroke-width:0.5;" width="376.3145" x="307.84" y="213.86"/><text fill="#000000" font-family="sans-serif" font-size="12" font-style="italic" lengthAdjust="spacing" textLength="57.668" x="467.1632" y="229.9987">&#171;service&#187;</text><text fill="#000000" font-family="sans-serif" font-size="14" lengthAdjust="spacing" textLength="140.6631" x="425.6657" y="245.8239">LeaderboardService</text><line style="stroke:#181818;stroke-width:0.5;" x1="308.84" x2="683.1545" y1="254.1256" y2="254.1256"/><text fill="#000000" font-family="sans-serif" font-size="14" lengthAdjust="spacing" textLength="198.3721" x="313.84" y="271.1207">-source : IHyperliquidSource</text><text fill="#000000" font-family="sans-serif" font-size="14" lengthAdjust="spacing" textLength="141.4902" x="313.84" y="287.4176">-meta : MetaService</text><text fill="#000000" font-family="sans-serif" font-size="14" lengthAdjust="spacing" textLength="180.1133" x="313.84" y="303.7145">-state : LeaderboardState</text><text fill="#000000" font-family="sans-serif" font-size="14" lengthAdjust="spacing" textLength="228.0811" x="313.84" y="320.0114">-persistence? : TradePersistence</text><line style="stroke:#181818;stroke-width:0.5;" x1="308.84" x2="683.1545" y1="327.3131" y2="327.3131"/><text fill="#000000" font-family="sans-serif" font-size="14" lengthAdjust="spacing" textLength="364.3145" x="313.84" y="344.3082">+subscribe(terna, opts) : { snapshot, unsubscribe }</text><text fill="#000000" font-family="sans-serif" font-size="14" lengthAdjust="spacing" textLength="204.9551" x="313.84" y="360.6051">+snapshot(terna, topN, lado)</text><text fill="#000000" font-family="sans-serif" font-size="14" lengthAdjust="spacing" textLength="58.7139" x="313.84" y="376.902">+close()</text></g><!--class LeaderboardState--><g class="entity" data-qualified-name="modules.leaderboard.LeaderboardState" data-source-line="22" id="ent0006"><rect fill="#F1F1F1" height="123.7813" rx="2.5" ry="2.5" style="stroke:#181818;stroke-width:0.5;" width="216.9551" x="67.52" y="489.19"/><text fill="#000000" font-family="sans-serif" font-size="14" lengthAdjust="spacing" textLength="125.9795" x="113.0078" y="507.1851">LeaderboardState</text><line style="stroke:#181818;stroke-width:0.5;" x1="68.52" x2="283.4751" y1="515.4869" y2="515.4869"/><text fill="#000000" font-family="sans-serif" font-size="14" lengthAdjust="spacing" textLength="174.5625" x="73.52" y="532.482">-windowSecondsByTemp</text><text fill="#000000" font-family="sans-serif" font-size="14" lengthAdjust="spacing" textLength="62.7539" x="73.52" y="548.7789">-maxOps</text><line style="stroke:#181818;stroke-width:0.5;" x1="68.52" x2="283.4751" y1="556.0806" y2="556.0806"/><text fill="#000000" font-family="sans-serif" font-size="14" lengthAdjust="spacing" textLength="129.3633" x="73.52" y="573.0757">+ingest(terna, op)</text><text fill="#000000" font-family="sans-serif" font-size="14" lengthAdjust="spacing" textLength="198.167" x="73.52" y="589.3726">+ingestBackfill(terna, ops[])</text><text fill="#000000" font-family="sans-serif" font-size="14" lengthAdjust="spacing" textLength="204.9551" x="73.52" y="605.6695">+snapshot(terna, topN, lado)</text></g><!--class TradePersistence--><g class="entity" data-qualified-name="modules.leaderboard.TradePersistence" data-source-line="29" id="ent0007"><rect fill="#F1F1F1" height="170.3438" rx="2.5" ry="2.5" style="stroke:#181818;stroke-width:0.5;" width="364.8643" x="319.57" y="465.91"/><text fill="#000000" font-family="sans-serif" font-size="12" font-style="italic" lengthAdjust="spacing" textLength="57.668" x="473.1681" y="482.0487">&#171;service&#187;</text><text fill="#000000" font-family="sans-serif" font-size="14" lengthAdjust="spacing" textLength="120.9619" x="441.5212" y="497.8739">TradePersistence</text><line style="stroke:#181818;stroke-width:0.5;" x1="320.57" x2="683.4343" y1="506.1756" y2="506.1756"/><line style="stroke:#181818;stroke-width:0.5;" x1="320.57" x2="683.4343" y1="514.1756" y2="514.1756"/><text fill="#000000" font-family="sans-serif" font-size="14" lengthAdjust="spacing" textLength="101.4521" x="325.57" y="531.1707">+enqueue(op)</text><text fill="#000000" font-family="sans-serif" font-size="14" lengthAdjust="spacing" textLength="146.5625" x="325.57" y="547.4676">+enqueueMany(ops)</text><text fill="#000000" font-family="sans-serif" font-size="14" lengthAdjust="spacing" textLength="56.5127" x="325.57" y="563.7645">+flush()</text><text fill="#000000" font-family="sans-serif" font-size="14" lengthAdjust="spacing" textLength="352.8643" x="325.57" y="580.0614">+getHistorical(mercado, token, sinceMs, untilMs?)</text><text fill="#000000" font-family="sans-serif" font-size="14" lengthAdjust="spacing" textLength="78.0664" x="325.57" y="596.3582">+cleanup()</text><text fill="#000000" font-family="sans-serif" font-size="14" lengthAdjust="spacing" textLength="55.2617" x="325.57" y="612.6551">+start()</text><text fill="#000000" font-family="sans-serif" font-size="14" lengthAdjust="spacing" textLength="52.8896" x="325.57" y="628.952">+stop()</text></g><!--class LeaderboardBalancesService--><g class="entity" data-qualified-name="modules.leaderboard.LeaderboardBalancesService" data-source-line="38" id="ent0008"><rect fill="#F1F1F1" height="88.8594" rx="2.5" ry="2.5" style="stroke:#181818;stroke-width:0.5;" width="250.9844" x="21.51" y="254.61"/><text fill="#000000" font-family="sans-serif" font-size="12" font-style="italic" lengthAdjust="spacing" textLength="57.668" x="118.1682" y="270.7487">&#171;service&#187;</text><text fill="#000000" font-family="sans-serif" font-size="14" lengthAdjust="spacing" textLength="203.793" x="45.1057" y="286.5739">LeaderboardBalancesService</text><line style="stroke:#181818;stroke-width:0.5;" x1="22.51" x2="271.4944" y1="294.8756" y2="294.8756"/><text fill="#000000" font-family="sans-serif" font-size="14" lengthAdjust="spacing" textLength="141.4902" x="27.51" y="311.8707">-meta : MetaService</text><line style="stroke:#181818;stroke-width:0.5;" x1="22.51" x2="271.4944" y1="319.1725" y2="319.1725"/><text fill="#000000" font-family="sans-serif" font-size="14" lengthAdjust="spacing" textLength="238.9844" x="27.51" y="336.1676">+batchBalances(addrs[]) : Saldo[]</text></g><!--class MetaService--><g class="entity" data-qualified-name="modules.meta.MetaService" data-source-line="45" id="ent0010"><rect fill="#F1F1F1" height="137.75" rx="2.5" ry="2.5" style="stroke:#181818;stroke-width:0.5;" width="368.9316" x="739.53" y="482.21"/><text fill="#000000" font-family="sans-serif" font-size="12" font-style="italic" lengthAdjust="spacing" textLength="57.668" x="895.1618" y="498.3487">&#171;service&#187;</text><text fill="#000000" font-family="sans-serif" font-size="14" lengthAdjust="spacing" textLength="86.502" x="880.7448" y="514.1739">MetaService</text><line style="stroke:#181818;stroke-width:0.5;" x1="740.53" x2="1107.4616" y1="522.4756" y2="522.4756"/><line style="stroke:#181818;stroke-width:0.5;" x1="740.53" x2="1107.4616" y1="530.4756" y2="530.4756"/><text fill="#000000" font-family="sans-serif" font-size="14" lengthAdjust="spacing" textLength="356.9316" x="745.53" y="547.4707">+resolveToken(mercado, displayToken) : Resolved</text><text fill="#000000" font-family="sans-serif" font-size="14" lengthAdjust="spacing" textLength="218.9756" x="745.53" y="563.7676">+resolveByFeedCoin(feedCoin)</text><text fill="#000000" font-family="sans-serif" font-size="14" lengthAdjust="spacing" textLength="215.7559" x="745.53" y="580.0645">+getMidsKeyToDisplay() : Map</text><text fill="#000000" font-family="sans-serif" font-size="14" lengthAdjust="spacing" textLength="114.9053" x="745.53" y="596.3614">+getCandles(...)</text><text fill="#000000" font-family="sans-serif" font-size="14" lengthAdjust="spacing" textLength="138.1543" x="745.53" y="612.6582">+getTopVolume(...)</text></g><!--class IHyperliquidSource--><g class="entity" data-qualified-name="sources.IHyperliquidSource" data-source-line="55" id="ent0012"><rect fill="#F1F1F1" height="121.4531" rx="2.5" ry="2.5" style="stroke:#181818;stroke-width:0.5;" width="281.4111" x="1318.29" y="490.36"/><text fill="#000000" font-family="sans-serif" font-size="12" font-style="italic" lengthAdjust="spacing" textLength="39.2813" x="1439.3549" y="506.4987">&#171;port&#187;</text><text fill="#000000" font-family="sans-serif" font-size="14" font-style="italic" lengthAdjust="spacing" textLength="132.9043" x="1392.5434" y="522.3239">IHyperliquidSource</text><line style="stroke:#181818;stroke-width:0.5;" x1="1319.29" x2="1598.7011" y1="530.6256" y2="530.6256"/><line style="stroke:#181818;stroke-width:0.5;" x1="1319.29" x2="1598.7011" y1="538.6256" y2="538.6256"/><text fill="#000000" font-family="sans-serif" font-size="14" lengthAdjust="spacing" textLength="266.3965" x="1324.29" y="555.6207">+subscribeTrades(feedCoin, onTrade)</text><text fill="#000000" font-family="sans-serif" font-size="14" lengthAdjust="spacing" textLength="206.2949" x="1324.29" y="571.9176">+subscribeAllMids(onAllMids)</text><text fill="#000000" font-family="sans-serif" font-size="14" lengthAdjust="spacing" textLength="269.4111" x="1324.29" y="588.2145">+getRecentTrades(feedCoin) : Trade[]</text><text fill="#000000" font-family="sans-serif" font-size="14" lengthAdjust="spacing" textLength="58.7139" x="1324.29" y="604.5114">+close()</text></g><!--class PublicWsAdapter--><g class="entity" data-qualified-name="sources.PublicWsAdapter" data-source-line="61" id="ent0013"><rect fill="#FFF3E0" height="56.2656" rx="2.5" ry="2.5" style="stroke:#181818;stroke-width:0.5;" width="124.6035" x="1317.7" y="270.9"/><text fill="#000000" font-family="sans-serif" font-size="12" font-style="italic" lengthAdjust="spacing" textLength="61.6465" x="1349.1785" y="287.0387">&#171;adapter&#187;</text><text fill="#000000" font-family="sans-serif" font-size="14" lengthAdjust="spacing" textLength="118.6035" x="1320.7" y="302.8639">PublicWsAdapter</text><line style="stroke:#181818;stroke-width:0.5;" x1="1318.7" x2="1441.3035" y1="311.1656" y2="311.1656"/><line style="stroke:#181818;stroke-width:0.5;" x1="1318.7" x2="1441.3035" y1="319.1656" y2="319.1656"/></g><!--class NanorethRpcAdapter--><g class="entity" data-qualified-name="sources.NanorethRpcAdapter" data-source-line="62" id="ent0014"><rect fill="#FFF3E0" height="56.2656" rx="2.5" ry="2.5" style="stroke:#181818;stroke-width:0.5;" width="153.3213" x="1477.34" y="270.9"/><text fill="#000000" font-family="sans-serif" font-size="12" font-style="italic" lengthAdjust="spacing" textLength="61.6465" x="1523.1774" y="287.0387">&#171;adapter&#187;</text><text fill="#000000" font-family="sans-serif" font-size="14" lengthAdjust="spacing" textLength="147.3213" x="1480.34" y="302.8639">NanorethRpcAdapter</text><line style="stroke:#181818;stroke-width:0.5;" x1="1478.34" x2="1629.6613" y1="311.1656" y2="311.1656"/><line style="stroke:#181818;stroke-width:0.5;" x1="1478.34" x2="1629.6613" y1="319.1656" y2="319.1656"/></g><!--class LBT--><g class="entity" data-qualified-name="persistence.LBT" data-source-line="66" id="ent0016"><rect fill="#ECEFF1" height="56.2656" rx="2.5" ry="2.5" style="stroke:#181818;stroke-width:0.5;" width="110.2686" x="1582.87" y="720.25"/><text fill="#000000" font-family="sans-serif" font-size="12" font-style="italic" lengthAdjust="spacing" textLength="45.0762" x="1615.4662" y="736.3887">&#171;table&#187;</text><text fill="#000000" font-family="sans-serif" font-size="14" lengthAdjust="spacing" textLength="104.2686" x="1585.87" y="752.2139">tabla lb_trades</text><line style="stroke:#181818;stroke-width:0.5;" x1="1583.87" x2="1692.1386" y1="760.5156" y2="760.5156"/><line style="stroke:#181818;stroke-width:0.5;" x1="1583.87" x2="1692.1386" y1="768.5156" y2="768.5156"/></g><!--class CAT--><g class="entity" data-qualified-name="persistence.CAT" data-source-line="67" id="ent0017"><rect fill="#ECEFF1" height="56.2656" rx="2.5" ry="2.5" style="stroke:#181818;stroke-width:0.5;" width="208.3916" x="1727.8" y="720.25"/><text fill="#000000" font-family="sans-serif" font-size="12" font-style="italic" lengthAdjust="spacing" textLength="45.0762" x="1809.4577" y="736.3887">&#171;table&#187;</text><text fill="#000000" font-family="sans-serif" font-size="14" lengthAdjust="spacing" textLength="202.3916" x="1730.8" y="752.2139">tabla direcciones / entidades</text><line style="stroke:#181818;stroke-width:0.5;" x1="1728.8" x2="1935.1916" y1="760.5156" y2="760.5156"/><line style="stroke:#181818;stroke-width:0.5;" x1="1728.8" x2="1935.1916" y1="768.5156" y2="768.5156"/></g><!--class TypedBus--><g class="entity" data-qualified-name="bus.TypedBus" data-source-line="71" id="ent0019"><rect fill="#F1F1F1" height="56.2656" rx="2.5" ry="2.5" style="stroke:#181818;stroke-width:0.5;" width="98.8555" x="1163.57" y="522.95"/><text fill="#000000" font-family="sans-serif" font-size="12" font-style="italic" lengthAdjust="spacing" textLength="96.8555" x="1164.57" y="539.0887">&#171;infrastructure&#187;</text><text fill="#000000" font-family="sans-serif" font-size="14" lengthAdjust="spacing" textLength="68.9951" x="1178.5002" y="554.9139">TypedBus</text><line style="stroke:#181818;stroke-width:0.5;" x1="1164.57" x2="1261.4255" y1="563.2156" y2="563.2156"/><line style="stroke:#181818;stroke-width:0.5;" x1="1164.57" x2="1261.4255" y1="571.2156" y2="571.2156"/></g><g class="entity" data-qualified-name="GMN32" data-source-line="88" id="ent0033"><path d="M1662.79,515.82 L1662.79,586.3512 L1863.2192,586.3512 L1863.2192,525.82 L1853.2192,515.82 L1662.79,515.82" fill="#FEFFDD" style="stroke:#181818;stroke-width:0.5;"/><path d="M1853.2192,515.82 L1853.2192,525.82 L1863.2192,525.82 L1853.2192,515.82" fill="#FEFFDD" style="stroke:#181818;stroke-width:1;"/><text fill="#000000" font-family="sans-serif" font-size="13" lengthAdjust="spacing" textLength="179.4292" x="1668.79" y="532.8869">Estado caliente in-memory:</text><text fill="#000000" font-family="sans-serif" font-size="13" lengthAdjust="spacing" textLength="149.3857" x="1668.79" y="548.0197">ventana deslizante por</text><text fill="#000000" font-family="sans-serif" font-size="13" lengthAdjust="spacing" textLength="150.3887" x="1668.79" y="563.1525">terna (mercado, token,</text><text fill="#000000" font-family="sans-serif" font-size="13" lengthAdjust="spacing" textLength="96.1733" x="1668.79" y="578.2853">temporalidad).</text></g><g class="entity" data-qualified-name="GMN35" data-source-line="95" id="ent0036"><path d="M1898.36,523.38 L1898.36,578.7784 L2083.6373,578.7784 L2083.6373,533.38 L2073.6373,523.38 L1898.36,523.38" fill="#FEFFDD" style="stroke:#181818;stroke-width:0.5;"/><path d="M2073.6373,523.38 L2073.6373,533.38 L2083.6373,533.38 L2073.6373,523.38" fill="#FEFFDD" style="stroke:#181818;stroke-width:1;"/><text fill="#000000" font-family="sans-serif" font-size="13" lengthAdjust="spacing" textLength="152.312" x="1904.36" y="540.4469">Esqueleto no funcional.</text><text fill="#000000" font-family="sans-serif" font-size="13" lengthAdjust="spacing" textLength="164.2773" x="1904.36" y="555.5797">Existe para validar RS-08</text><text fill="#000000" font-family="sans-serif" font-size="13" lengthAdjust="spacing" textLength="105.2759" x="1904.36" y="570.7125">(sustituibilidad).</text></g><!--link registerLeaderboardGateway to LeaderboardService--><g class="link" data-entity-1="ent0003" data-entity-2="ent0005" data-link-type="dependency" data-source-line="74" id="lnk20"><path codeLine="74" d="M966.92,130.28 C885.37,159.33 782.4522,195.9968 690.1122,228.8868" fill="none" id="registerLeaderboardGateway-to-LeaderboardService" style="stroke:#181818;stroke-width:1;stroke-dasharray:7,7;"/><polygon fill="#181818" points="684.46,230.9,694.2804,231.6483,689.1701,229.2223,691.5961,224.1121,684.46,230.9" style="stroke:#181818;stroke-width:1;"/></g><!--link registerLeaderboardGateway to TypedBus--><g class="link" data-entity-1="ent0003" data-entity-2="ent0019" data-link-type="dependency" data-source-line="75" id="lnk21"><path codeLine="75" d="M1086.2,130.33 C1082.53,189.54 1081.06,297.56 1109,384.21 C1126.26,437.75 1160.9204,486.706 1185.9204,517.936" fill="none" id="registerLeaderboardGateway-to-TypedBus" style="stroke:#181818;stroke-width:1;stroke-dasharray:7,7;"/><polygon fill="#181818" points="1189.67,522.62,1187.1682,513.0942,1186.5453,518.7166,1180.9229,518.0937,1189.67,522.62" style="stroke:#181818;stroke-width:1;"/><text fill="#000000" font-family="sans-serif" font-size="13" lengthAdjust="spacing" textLength="191.6167" x="1110" y="303.6069">on('LeaderboardActualizado')</text></g><!--link LeaderboardService to IHyperliquidSource--><g class="link" data-entity-1="ent0005" data-entity-2="ent0012" data-link-type="dependency" data-source-line="76" id="lnk22"><path codeLine="76" d="M684.33,329.79 C897.78,364.1 1223.33,418.45 1278,439.21 C1311.59,451.96 1340.7874,467.8597 1370.3274,486.6497" fill="none" id="LeaderboardService-to-IHyperliquidSource" style="stroke:#181818;stroke-width:1;stroke-dasharray:7,7;"/><polygon fill="#181818" points="1375.39,489.87,1369.9429,481.6645,1371.1712,487.1865,1365.6493,488.4147,1375.39,489.87" style="stroke:#181818;stroke-width:1;"/></g><!--link LeaderboardService to MetaService--><g class="link" data-entity-1="ent0005" data-entity-2="ent0010" data-link-type="dependency" data-source-line="77" id="lnk23"><path codeLine="77" d="M640.9,384.69 C695.1,416.36 750.7496,448.8629 802.0896,478.8629" fill="none" id="LeaderboardService-to-MetaService" style="stroke:#181818;stroke-width:1;stroke-dasharray:7,7;"/><polygon fill="#181818" points="807.27,481.89,801.5175,473.8957,802.953,479.3674,797.4813,480.8029,807.27,481.89" style="stroke:#181818;stroke-width:1;"/></g><!--link LeaderboardService to LeaderboardState--><g class="link" data-entity-1="ent0005" data-entity-2="ent0006" data-link-type="dependency" data-source-line="78" id="lnk24"><path codeLine="78" d="M374.06,384.7 C349.86,402.29 324.87,421.02 302,439.21 C282.39,454.81 266.2327,468.4744 247.4527,485.0144" fill="none" id="LeaderboardService-to-LeaderboardState" style="stroke:#181818;stroke-width:1;stroke-dasharray:7,7;"/><polygon fill="#181818" points="242.95,488.98,252.3477,486.0334,246.7022,485.6753,247.0603,480.0298,242.95,488.98" style="stroke:#181818;stroke-width:1;"/></g><!--link LeaderboardService to TradePersistence--><g class="link" data-entity-1="ent0005" data-entity-2="ent0007" data-link-type="dependency" data-source-line="79" id="lnk25"><path codeLine="79" d="M498.03,384.69 C498.66,410.76 499.2073,433.4517 499.8273,459.5217" fill="none" id="LeaderboardService-to-TradePersistence" style="stroke:#181818;stroke-width:1;stroke-dasharray:7,7;"/><polygon fill="#181818" points="499.97,465.52,503.7549,456.4274,499.8511,460.5214,495.7572,456.6176,499.97,465.52" style="stroke:#181818;stroke-width:1;"/></g><!--link LeaderboardService to TypedBus--><g class="link" data-entity-1="ent0005" data-entity-2="ent0019" data-link-type="dependency" data-source-line="80" id="lnk26"><path codeLine="80" d="M662.31,384.59 C706.9,403.48 755.85,420.94 803,431.21 C837.86,438.8 1092.03,423.38 1124,439.21 C1159.62,456.84 1182.7836,490.8681 1197.1936,517.6081" fill="none" id="LeaderboardService-to-TypedBus" style="stroke:#181818;stroke-width:1;stroke-dasharray:7,7;"/><polygon fill="#181818" points="1200.04,522.89,1199.2917,513.0696,1197.668,518.4884,1192.2492,516.8648,1200.04,522.89" style="stroke:#181818;stroke-width:1;"/><text fill="#000000" font-family="sans-serif" font-size="13" lengthAdjust="spacing" textLength="204.7944" x="804" y="427.2769">emit('LeaderboardActualizado')</text></g><!--link TradePersistence to LBT--><g class="link" data-entity-1="ent0007" data-entity-2="ent0016" data-link-type="dependency" data-source-line="81" id="lnk27"><path codeLine="81" d="M658.13,636.66 C679.79,645.86 702.13,654.1 724,660.25 C887.23,706.17 1404.4177,735.6454 1576.5377,744.3954" fill="none" id="TradePersistence-to-LBT" style="stroke:#181818;stroke-width:1;stroke-dasharray:7,7;"/><polygon fill="#181818" points="1582.53,744.7,1573.7447,740.2482,1577.5364,744.4461,1573.3385,748.2379,1582.53,744.7" style="stroke:#181818;stroke-width:1;"/></g><!--link LeaderboardBalancesService to MetaService--><g class="link" data-entity-1="ent0008" data-entity-2="ent0010" data-link-type="dependency" data-source-line="82" id="lnk28"><path codeLine="82" d="M209.13,343.91 C233.33,359 261.95,374.52 290,384.21 C463.77,444.25 524.17,385.49 700,439.21 C734.96,449.89 765.7888,462.8962 798.6388,479.0962" fill="none" id="LeaderboardBalancesService-to-MetaService" style="stroke:#181818;stroke-width:1;stroke-dasharray:7,7;"/><polygon fill="#181818" points="804.02,481.75,797.7173,474.1819,799.5356,479.5385,794.179,481.3569,804.02,481.75" style="stroke:#181818;stroke-width:1;"/></g><!--link PublicWsAdapter to IHyperliquidSource--><g class="link" data-entity-1="ent0013" data-entity-2="ent0012" data-link-type="extension" data-source-line="83" id="lnk29"><path codeLine="83" d="M1388.6,327.27 C1400.86,366.07 1418.2455,421.0968 1434.5855,472.7968" fill="none" id="PublicWsAdapter-to-IHyperliquidSource" style="stroke:#181818;stroke-width:1;stroke-dasharray:7,7;"/><polygon fill="none" points="1440.01,489.96,1440.3066,470.9887,1428.8644,474.605,1440.01,489.96" style="stroke:#181818;stroke-width:1;"/></g><!--link NanorethRpcAdapter to IHyperliquidSource--><g class="link" data-entity-1="ent0014" data-entity-2="ent0012" data-link-type="extension" data-source-line="84" id="lnk30"><path codeLine="84" d="M1543.65,327.27 C1528.91,366.07 1507.8722,421.4332 1488.2322,473.1332" fill="none" id="NanorethRpcAdapter-to-IHyperliquidSource" style="stroke:#181818;stroke-width:1;stroke-dasharray:7,7;"/><polygon fill="none" points="1481.84,489.96,1493.8411,475.264,1482.6233,471.0025,1481.84,489.96" style="stroke:#181818;stroke-width:1;"/></g><!--link registerLeaderboardGateway to CAT--><g class="link" data-entity-1="ent0003" data-entity-2="ent0017" data-link-type="dependency" data-source-line="85" id="lnk31"><path codeLine="85" d="M1214.72,91.72 C1329.84,99.75 1504.07,119.96 1647,170.86 C1867.8,249.5 1984.84,235.62 2101,439.21 C2149.69,524.54 2158.78,580.8 2101,660.25 C2063.54,711.77 2000.8826,732.5531 1942.3426,741.4031" fill="none" id="registerLeaderboardGateway-to-CAT" style="stroke:#181818;stroke-width:1;stroke-dasharray:7,7;"/><polygon fill="#181818" points="1936.41,742.3,1945.9068,744.9097,1941.3538,741.5526,1944.711,736.9996,1936.41,742.3" style="stroke:#181818;stroke-width:1;"/><text fill="#000000" font-family="sans-serif" font-size="13" lengthAdjust="spacing" textLength="272.1558" x="2097" y="427.2769">resolverDirecciones (v&#237;a CatalogoService)</text></g><!--link LeaderboardState to GMN32--><g class="link" data-entity-1="ent0006" data-entity-2="ent0033" data-link-type="association" data-source-line="88" id="lnk34"><path d="M221.14,488.86 C246.37,459.51 280.56,427.51 319.5,411.71 C386.94,384.35 1562.57,383.13 1629.5,411.71 C1678.65,432.69 1718.38,481.63 1741.35,515.54" fill="none" id="LeaderboardState-GMN32" style="stroke:#181818;stroke-width:1;stroke-dasharray:7,7;"/></g><!--link NanorethRpcAdapter to GMN35--><g class="link" data-entity-1="ent0014" data-entity-2="ent0036" data-link-type="association" data-source-line="95" id="lnk37"><path d="M1630.92,323.31 C1700,346.35 1802.36,385.88 1881,439.21 C1915.79,462.8 1948.77,498.47 1969.39,522.94" fill="none" id="NanorethRpcAdapter-GMN35" style="stroke:#181818;stroke-width:1;stroke-dasharray:7,7;"/></g><?plantuml-src bLRDRXit4BxlKn3EmIjOLbpq4XY10ycncg1L6bX2UWY2OdOvaWXpoGs7AqT9yqWzzH7oOXck_gZLIaPr4S7vPZZpyUFCqeCo9JWe1Cr1saTbPc8AcZ2XhINNGDJttgciylWsjsQilgAuIkPAeiYLopKcIGdv0ynGd9KE2Os7NFtupuZdGYD8T9a59y_4jqJmhuue7CuKUNH_x02_WST7M8gNBsUhrStDsYNyBiGSZDIOdbELKSxvu7bNS0G3NV58dHPWPKv0loVVexmBAokDzFnelb6UOtGBbIFdIQlLNfwNWcpbs7mjthvPbkYq-bmfEQut8rI17XWpuhzrm3Y4PmRO6fyQjY88HwR0eCdn5ICdZf7lTtiH7LiIqZK5jlJKOPzlWWoKDBU-AoAkc9h8UOtO-7fRlkiApNA96S-r9KmtnBQpLfSKyyHwOz6DaJKbQR2SO576_C2NFqkApc1r8lbT3Pq3su1lSwgqtc7euwVE_oWcJhr9w97hlX1eFbTOORgVqNft16R9bZrvJdL5ypJUcQ5_myTOftBGQO4kvvH2UWzeke8K7p-YS4TUwH6zscSUmLJbNZXMZ_ED7LkUlfu1QE1Zw2bndv3jXSZ0v_DDf1IaTE4263u6BUt7JoSUNeYx_-AY8uvopzt6wWLE0b4xtgIYKiEotWsdtwzGyj1ni1mYobkhJ3fTBnhtCbAIVaUEzNeLD0q1Hr3kesxhZaDfhzTh-4zi-S7ggi2TRP-0LRUWJUtAi3Qdm3KVTW-ceRJEDpZOljjQiRGjXFLlwgrE6xYlTIWjjMQzQkHzZpdtyKR8pgRHhA_ozED_NsLQvNzHNqB9HN7si5fn0S-6m-6lTrSH-XqOwz3Fxylyb4DCNTG2zwLpvY7J87JsjwyBE1F0OXzCE6Am11Kzkxkz6mv_ENIIoc6UAskGU7un1qfkGzpssqB4AMKLxQSouKkKWuhOJvcf0_AkodtbE41mF346UxsRbgdpbCVsl6k-_lGyGlNvMD3gAp-HyqxICi-2Uyl8EeACEy0HoC7qEe8xc5t7SBlQi53-H7K7pRjEPp19JdIyPb5D-VPw_xJoqoBSOz0dxYx8wthJcjphI8ZfuiU_86x1WxOpkywmaoJ6yanrQZRtmaxRlXRkU1P8AtYiA9OoSdkvBB2mRddDnaNuKZCiUQJ0NB1pVs53FHv5Sn3LXe8H78pVHAUNe94YfB1E9BFUso9aSiX9dGkFH8tUie-OLYRK1heNB5y2BI9ySOf57Ts9-_7brGksfLIHLxvIcJeuzYS0?></g></svg>