<svg xmlns="http://www.w3.org/2000/svg" xmlns:xlink="http://www.w3.org/1999/xlink" contentStyleType="text/css" data-diagram-type="DESCRIPTION" height="333px" preserveAspectRatio="none" style="width:949px;height:333px;background:#FFFFFF;" version="1.1" viewBox="0 0 949 333" width="949px" zoomAndPan="magnify"><?plantuml 1.2026.3beta6?><defs/><g><!--entity HLC--><g class="entity" data-qualified-name="HLC" data-source-line="5" id="ent0002"><rect fill="#F1F1F1" height="36.2969" rx="2.5" ry="2.5" style="stroke:#181818;stroke-width:0.5;" width="172.5918" x="77.82" y="7.99"/><text fill="#000000" font-family="sans-serif" font-size="14" lengthAdjust="spacing" textLength="152.5918" x="87.82" y="30.9851">HyperliquidConnector</text></g><!--entity OIH--><g class="entity" data-qualified-name="OIH" data-source-line="6" id="ent0003"><rect fill="#F1F1F1" height="36.2969" rx="2.5" ry="2.5" style="stroke:#181818;stroke-width:0.5;" width="209.4102" x="212.41" y="272.41"/><text fill="#000000" font-family="sans-serif" font-size="14" lengthAdjust="spacing" textLength="189.4102" x="222.41" y="295.4051">OperationIngestionHandler</text></g><!--entity PUH--><g class="entity" data-qualified-name="PUH" data-source-line="7" id="ent0004"><rect fill="#F1F1F1" height="36.2969" rx="2.5" ry="2.5" style="stroke:#181818;stroke-width:0.5;" width="160.2256" x="7" y="272.41"/><text fill="#000000" font-family="sans-serif" font-size="14" lengthAdjust="spacing" textLength="140.2256" x="17" y="295.4051">PriceUpdateHandler</text></g><!--entity ATH--><g class="entity" data-qualified-name="ATH" data-source-line="8" id="ent0005"><rect fill="#F1F1F1" height="36.2969" rx="2.5" ry="2.5" style="stroke:#181818;stroke-width:0.5;" width="176.29" x="456.97" y="272.41"/><text fill="#000000" font-family="sans-serif" font-size="14" lengthAdjust="spacing" textLength="156.29" x="466.97" y="295.4051">AlertTriggeredHandler</text></g><!--entity NS--><g class="entity" data-qualified-name="NS" data-source-line="9" id="ent0006"><rect fill="#F1F1F1" height="36.2969" rx="2.5" ry="2.5" style="stroke:#181818;stroke-width:0.5;" width="154.2783" x="515.97" y="7.99"/><text fill="#000000" font-family="sans-serif" font-size="14" lengthAdjust="spacing" textLength="134.2783" x="525.97" y="30.9851">NotificacionService</text></g><!--entity BUS--><g class="entity" data-qualified-name="BUS" data-source-line="11" id="ent0007"><path d="M286.5129,132.0839 C291.1608,126.526 295.2894,126.3575 299.5648,132.4995 C304.2105,126.1822 308.3814,126.1867 313.3282,132.1623 C316.934,126.9696 320.9042,126.4723 325.1483,131.4181 C328.3975,126.2842 333.8375,125.6659 336.9767,131.5363 C340.8649,125.7377 346.5324,125.6943 350.1693,131.8145 C353.9363,126.4899 357.9823,126.7951 362.0119,131.5046 C366.6385,125.5819 371.2104,124.256 375.622,131.7232 C379.7811,126.7166 384.65,127.3373 387.8553,132.8343 C390.7689,126.1655 395.8315,127.3789 399.6546,131.8728 C403.8318,125.2634 410.2563,127.6747 413.0032,133.4183 C418.6107,135.1159 418.8865,140.0379 414.98,143.5853 C421.0184,146.8463 422.7589,151.1189 417.1416,156.3532 C421.8684,160.6343 420.6518,165.5761 415.1741,168.1562 C420.9692,171.8264 420.2965,177.3108 414.0652,179.8395 C409.7918,185.5978 405.5361,185.3981 401.5335,179.5473 C398.1037,186.3514 393.1543,185.6345 388.8338,180.4945 C384.4063,185.849 379.6595,185.6195 376.3485,179.3004 C372.6645,186.6397 367.3246,185.7337 363.0418,179.9055 C359.7993,186.4204 354.1209,187.6723 349.5392,181.3098 C345.8429,187.0522 340.1997,187.5549 336.6349,181.1699 C332.1593,187.097 327.6812,186.3112 324.9048,179.5936 C321.9824,185.5484 317.0299,186.1593 313.5646,180.1062 C309.4888,185.1434 303.4407,185.902 300.6817,178.7181 C295.9737,185.2214 291.9244,184.3615 287.8777,178.057 C281.8128,175.7783 281.772,171.7665 286.227,167.7956 C280.5403,165.5707 278.9587,159.3831 283.8176,155.149 C280.0847,151.421 280.2004,146.6627 286.0516,145.056 C280.8539,141.1282 280.7335,135.6214 286.5129,132.0839" fill="#F1F1F1" style="stroke:#181818;stroke-width:0.5;"/><text fill="#000000" font-family="sans-serif" font-size="14" lengthAdjust="spacing" textLength="65.8779" x="293.28" y="151.2651">EventBus</text><text fill="#000000" font-family="sans-serif" font-size="14" lengthAdjust="spacing" textLength="111.6582" x="293.28" y="167.562">(EventEmitter2)</text></g><g class="entity" data-qualified-name="GMN16" data-source-line="24" id="ent0017"><path d="M668.27,262.86 L668.27,318.2584 L915.9638,318.2584 L915.9638,272.86 L905.9638,262.86 L668.27,262.86" fill="#FEFFDD" style="stroke:#181818;stroke-width:0.5;"/><path d="M905.9638,262.86 L905.9638,272.86 L915.9638,272.86 L905.9638,262.86" fill="#FEFFDD" style="stroke:#181818;stroke-width:1;"/><text fill="#000000" font-family="sans-serif" font-size="13" lengthAdjust="spacing" textLength="226.6938" x="674.27" y="279.9269">- In-process (memoria compartida)</text><text fill="#000000" font-family="sans-serif" font-size="13" lengthAdjust="spacing" textLength="96.021" x="674.27" y="295.0597">- At-most-once</text><text fill="#000000" font-family="sans-serif" font-size="13" lengthAdjust="spacing" textLength="117.4634" x="674.27" y="310.1925">- Sub-milisegundo</text></g><g class="entity" data-qualified-name="GMN19" data-source-line="30" id="ent0020"><path d="M285.02,6 L285.02,22.13 L250.6,26.13 L285.02,30.13 L285.02,46.2656 A0,0 0 0 0 285.02,46.2656 L453.1968,46.2656 A0,0 0 0 0 453.1968,46.2656 L453.1968,16 L443.1968,6 L285.02,6 A0,0 0 0 0 285.02,6" fill="#FEFFDD" style="stroke:#181818;stroke-width:0.5;"/><path d="M443.1968,6 L443.1968,16 L453.1968,16 L443.1968,6" fill="#FEFFDD" style="stroke:#181818;stroke-width:0.5;"/><text fill="#000000" font-family="sans-serif" font-size="13" lengthAdjust="spacing" textLength="102.4956" x="291.02" y="23.0669">Productor &#250;nico</text><text fill="#000000" font-family="sans-serif" font-size="13" lengthAdjust="spacing" textLength="147.1768" x="291.02" y="38.1997">(frontera de Ingesti&#243;n)</text></g><g class="entity" data-qualified-name="GMN22" data-source-line="35" id="ent0023"><path d="M705.25,6 L705.25,22.13 L670.7,26.13 L705.25,30.13 L705.25,46.2656 A0,0 0 0 0 705.25,46.2656 L934.98,46.2656 A0,0 0 0 0 934.98,46.2656 L934.98,16 L924.98,6 L705.25,6 A0,0 0 0 0 705.25,6" fill="#FEFFDD" style="stroke:#181818;stroke-width:0.5;"/><path d="M924.98,6 L924.98,16 L934.98,16 L924.98,6" fill="#FEFFDD" style="stroke:#181818;stroke-width:0.5;"/><text fill="#000000" font-family="sans-serif" font-size="13" lengthAdjust="spacing" textLength="83.5415" x="711.25" y="23.0669">Productor en</text><text fill="#000000" font-family="sans-serif" font-size="13" lengthAdjust="spacing" textLength="208.73" x="711.25" y="38.1997">CU-14 (CONFIRMADA / FALLIDA)</text></g><!--link HLC to BUS--><g class="link" data-entity-1="ent0002" data-entity-2="ent0007" data-link-type="dependency" data-source-line="13" id="lnk8"><path d="M130.5,44.77 C110.2,57.75 90.63,76.06 104.11,93.27 C125.43,120.46 207.554,136.2367 272.024,144.9467" fill="none" id="HLC-to-BUS" style="stroke:#0277BD;stroke-width:2;"/><polygon fill="#0277BD" points="277.97,145.75,269.5866,140.581,273.015,145.0806,268.5155,148.509,277.97,145.75" style="stroke:#0277BD;stroke-width:2;"/><text fill="#000000" font-family="sans-serif" font-size="13" lengthAdjust="spacing" textLength="122.6177" x="105.11" y="89.3369">OperacionRecibida</text></g><!--link HLC to BUS--><g class="link" data-entity-1="ent0002" data-entity-2="ent0007" data-link-type="dependency" data-source-line="14" id="lnk9"><path d="M189.84,44.71 C219.42,64.93 263.5767,95.104 299.4467,119.624" fill="none" id="HLC-to-BUS-1" style="stroke:#0277BD;stroke-width:2;"/><polygon fill="#0277BD" points="304.4,123.01,299.2274,114.6288,300.2723,120.1884,294.7127,121.2332,304.4,123.01" style="stroke:#0277BD;stroke-width:2;"/><text fill="#000000" font-family="sans-serif" font-size="13" lengthAdjust="spacing" textLength="115.4575" x="258.11" y="89.3369">PrecioActualizado</text></g><!--link PUH to BUS--><g class="link" data-entity-1="ent0004" data-entity-2="ent0007" data-link-type="dependency" data-source-line="15" id="lnk10"><path d="M116.4,271.98 C142.49,256.56 181.88,233.85 217.11,215.86 C236.86,205.78 253.17,197.9877 273.23,188.8477" fill="none" id="PUH-to-BUS" style="stroke:#C62828;stroke-width:2;"/><polygon fill="#C62828" points="278.69,186.36,268.8416,186.4516,274.14,188.4331,272.1586,193.7316,278.69,186.36" style="stroke:#C62828;stroke-width:2;"/><text fill="#000000" font-family="sans-serif" font-size="13" lengthAdjust="spacing" textLength="105.0537" x="218.11" y="228.9269">AlertaDisparada</text></g><!--link BUS to PUH--><g class="link" data-entity-1="ent0007" data-entity-2="ent0004" data-link-type="dependency" data-source-line="20" id="lnk14"><path d="M278.01,160.59 C202.53,167.58 90.55,183.25 64.11,215.86 C50.95,232.11 59.0042,250.9529 69.9342,267.0829" fill="none" id="BUS-to-PUH" style="stroke:#0277BD;stroke-width:2;"/><polygon fill="#0277BD" points="73.3,272.05,71.5627,262.3556,70.4952,267.9108,64.94,266.8433,73.3,272.05" style="stroke:#0277BD;stroke-width:2;"/><text fill="#000000" font-family="sans-serif" font-size="13" lengthAdjust="spacing" textLength="115.4575" x="65.11" y="228.9269">PrecioActualizado</text></g><!--link NS to BUS--><g class="link" data-entity-1="ent0006" data-entity-2="ent0007" data-link-type="dependency" data-source-line="16" id="lnk11"><path d="M515.72,41.04 C485.99,48.57 452.62,59.81 425.11,76.27 C404.93,88.35 390.2404,102.5093 376.5004,118.4993" fill="none" id="NS-to-BUS" style="stroke:#2E7D32;stroke-width:2;"/><polygon fill="#2E7D32" points="372.59,123.05,381.4894,118.8308,375.8486,119.2577,375.4217,113.617,372.59,123.05" style="stroke:#2E7D32;stroke-width:2;"/><text fill="#000000" font-family="sans-serif" font-size="13" lengthAdjust="spacing" textLength="152.293" x="426.11" y="89.3369">NotificacionConfirmada</text></g><!--link NS to BUS--><g class="link" data-entity-1="ent0006" data-entity-2="ent0007" data-link-type="dependency" data-source-line="17" id="lnk12"><path d="M595.36,44.52 C596.25,59.31 594.94,80.17 583.11,93.27 C561.43,117.28 486.8447,133.3022 426.2747,142.9922" fill="none" id="NS-to-BUS-1" style="stroke:#EF6C00;stroke-width:2;"/><polygon fill="#EF6C00" points="420.35,143.94,429.8689,146.468,425.2872,143.1501,428.6051,138.5685,420.35,143.94" style="stroke:#EF6C00;stroke-width:2;"/><text fill="#000000" font-family="sans-serif" font-size="13" lengthAdjust="spacing" textLength="119.1392" x="593.11" y="89.3369">NotificacionFallida</text></g><!--link BUS to OIH--><g class="link" data-entity-1="ent0007" data-entity-2="ent0003" data-link-type="dependency" data-source-line="19" id="lnk13"><path d="M341.77,186.31 C335.42,212.89 327.8638,244.5241 322.6738,266.2541" fill="none" id="BUS-to-OIH" style="stroke:#0277BD;stroke-width:2;"/><polygon fill="#0277BD" points="321.28,272.09,327.2613,264.2654,322.4415,267.2268,319.4802,262.407,321.28,272.09" style="stroke:#0277BD;stroke-width:2;"/><text fill="#000000" font-family="sans-serif" font-size="13" lengthAdjust="spacing" textLength="122.6177" x="335.11" y="228.9269">OperacionRecibida</text></g><!--link BUS to ATH--><g class="link" data-entity-1="ent0007" data-entity-2="ent0005" data-link-type="dependency" data-source-line="21" id="lnk15"><path d="M416.55,186.32 C433.28,195.01 450.79,205.08 466.11,215.86 C489.89,232.59 509.688,251.7391 524.888,267.6691" fill="none" id="BUS-to-ATH" style="stroke:#C62828;stroke-width:2;"/><polygon fill="#C62828" points="529.03,272.01,525.7109,262.7373,525.5783,268.3926,519.923,268.2599,529.03,272.01" style="stroke:#C62828;stroke-width:2;"/><text fill="#000000" font-family="sans-serif" font-size="13" lengthAdjust="spacing" textLength="105.0537" x="489.11" y="228.9269">AlertaDisparada</text></g><!--link BUS to GMN16--><g class="link" data-entity-1="ent0007" data-entity-2="ent0017" data-link-type="association" data-source-line="24" id="lnk18"><path d="M420.17,169.67 C471.5,180.53 542.22,196.86 603.11,215.86 C645.81,229.18 692.66,247.43 729.03,262.43" fill="none" id="BUS-GMN16" style="stroke:#181818;stroke-width:1;stroke-dasharray:7,7;"/></g><?plantuml-src VLB1Zjem5BpdAvws5v0QbQRLikgXKWWWa2YWpNAYUp3sIx3g-57RsMhxMtlhTN-ipobgAQLxYkCPZsUUnt_HzY2SQC3lXQ9lsjPG2UCnyRyHISs1BDfGXaU3u506OMk3oLuh11_G8ON70oR9TiOVP_JNLgk2h6KckNiG7cQB8jck61H1avtR6drSp8HL1dzHLlDPibqxBN5pK2BWARRUC9RpNxXpkgxvHdKAvtSCBodeIaiXMRT4zy127RWiaqGQQXLSJHuunQZrdsslMquQ7TX-rh-AnD66cMmKqkshGJOSZiQlTsJKVVenGl01ElzH_XQbtcabNcIlUL2QSXbQOVHt7cx2AIAxkCvkifipTXTEZBMFCsVbPGcHcqs6utVP6VSqAO-vqguvEJAPNXU3mGj7fiAOQ3w9qB_k-HqkPhtCZfakPJsopxBoGrt8cbWA23iAWHgWgdi8ZW9pcnuSIVGUUWqsvBJeoYXSO4FzZfE7j24VKh8IkusotQMDDjfZtLesWbP1r3_UmlNPXtX9R2ImSL9jR2ay_x1Q4c_rAaUMMo60striwlEJxVzNQLd-9OIMVujD-lOzz8hLSZg__PIFStW3qtonc8_pFq8_0G00?></g></svg>