<?plantuml 1.2026.1?><svg xmlns="http://www.w3.org/2000/svg" xmlns:xlink="http://www.w3.org/1999/xlink" contentStyleType="text/css" data-diagram-type="CLASS" height="533px" preserveAspectRatio="none" style="width:1347px;height:533px;background:#FFFFFF;" version="1.1" viewBox="0 0 1347 533" width="1347px" zoomAndPan="magnify"><defs/><g><!--class ENT--><g class="entity" data-qualified-name="ENT" data-source-line="5" id="ent0002"><rect fill="#F1F1F1" height="107.4844" rx="2.5" ry="2.5" style="stroke:#181818;stroke-width:0.5;" width="223.0049" x="1117.5" y="68.03"/><text fill="#000000" font-family="sans-serif" font-size="14" lengthAdjust="spacing" textLength="69.125" x="1194.4399" y="86.0251">entidades</text><line style="stroke:#181818;stroke-width:0.5;" x1="1118.5" x2="1339.5049" y1="94.3269" y2="94.3269"/><g data-visibility-modifier="IE_MANDATORY"><ellipse cx="1128.5" cy="107.9753" fill="#000000" rx="3" ry="3" style="stroke:#000000;stroke-width:1;"/></g><text fill="#000000" font-family="sans-serif" font-size="14" lengthAdjust="spacing" textLength="101.001" x="1137.5" y="111.322">id : UUID &#171;PK&#187;</text><line style="stroke:#181818;stroke-width:1;" x1="1118.5" x2="1339.5049" y1="118.6238" y2="118.6238"/><g data-visibility-modifier="IE_MANDATORY"><ellipse cx="1128.5" cy="132.2722" fill="#000000" rx="3" ry="3" style="stroke:#000000;stroke-width:1;"/></g><text fill="#000000" font-family="sans-serif" font-size="14" lengthAdjust="spacing" textLength="197.0049" x="1137.5" y="135.6189">nombre : VARCHAR(64) &#171;U&#187;</text><g data-visibility-modifier="IE_MANDATORY"><ellipse cx="1128.5" cy="148.5691" fill="#000000" rx="3" ry="3" style="stroke:#000000;stroke-width:1;"/></g><text fill="#000000" font-family="sans-serif" font-size="14" lengthAdjust="spacing" textLength="185.5" x="1137.5" y="151.9157">creada_en : TIMESTAMPTZ</text><g data-visibility-modifier="IE_MANDATORY"><ellipse cx="1128.5" cy="164.8659" fill="#000000" rx="3" ry="3" style="stroke:#000000;stroke-width:1;"/></g><text fill="#000000" font-family="sans-serif" font-size="14" lengthAdjust="spacing" textLength="193.293" x="1137.5" y="168.2126">actualizada : TIMESTAMPTZ</text></g><!--class DIR--><g class="entity" data-qualified-name="DIR" data-source-line="13" id="ent0003"><rect fill="#F1F1F1" height="131.7813" rx="2.5" ry="2.5" style="stroke:#181818;stroke-width:0.5;" width="223.5518" x="1117.22" y="345.45"/><text fill="#000000" font-family="sans-serif" font-size="14" lengthAdjust="spacing" textLength="79.7754" x="1189.1082" y="363.4451">direcciones</text><line style="stroke:#181818;stroke-width:0.5;" x1="1118.22" x2="1339.7718" y1="371.7469" y2="371.7469"/><g data-visibility-modifier="IE_MANDATORY"><ellipse cx="1128.22" cy="385.3953" fill="#000000" rx="3" ry="3" style="stroke:#000000;stroke-width:1;"/></g><text fill="#000000" font-family="sans-serif" font-size="14" lengthAdjust="spacing" textLength="101.001" x="1137.22" y="388.742">id : UUID &#171;PK&#187;</text><line style="stroke:#181818;stroke-width:1;" x1="1118.22" x2="1339.7718" y1="396.0438" y2="396.0438"/><g data-visibility-modifier="IE_MANDATORY"><ellipse cx="1128.22" cy="409.6922" fill="#000000" rx="3" ry="3" style="stroke:#000000;stroke-width:1;"/></g><text fill="#000000" font-family="sans-serif" font-size="14" lengthAdjust="spacing" textLength="148.8662" x="1137.22" y="413.0389">valor : CHAR(42) &#171;U&#187;</text><g data-visibility-modifier="IE_MANDATORY"><ellipse cx="1128.22" cy="425.9891" fill="#000000" rx="3" ry="3" style="stroke:#000000;stroke-width:1;"/></g><text fill="#000000" font-family="sans-serif" font-size="14" lengthAdjust="spacing" textLength="160.8291" x="1137.22" y="429.3357">entidad_id : UUID &#171;FK&#187;</text><g data-visibility-modifier="IE_MANDATORY"><ellipse cx="1128.22" cy="442.2859" fill="#000000" rx="3" ry="3" style="stroke:#000000;stroke-width:1;"/></g><text fill="#000000" font-family="sans-serif" font-size="14" lengthAdjust="spacing" textLength="197.5518" x="1137.22" y="445.6326">aniadida_en : TIMESTAMPTZ</text><line style="stroke:#181818;stroke-width:1;" x1="1118.22" x2="1339.7718" y1="452.9344" y2="452.9344"/><text fill="#000000" font-family="sans-serif" font-size="14" lengthAdjust="spacing" textLength="109.4297" x="1123.22" y="469.9295">idx (entidad_id)</text></g><!--class ALER--><g class="entity" data-qualified-name="ALER" data-source-line="23" id="ent0004"><rect fill="#F1F1F1" height="229.5625" rx="2.5" ry="2.5" style="stroke:#181818;stroke-width:0.5;" width="242.1045" x="52.95" y="7"/><text fill="#000000" font-family="sans-serif" font-size="14" lengthAdjust="spacing" textLength="48.2002" x="149.9021" y="24.9951">alertas</text><line style="stroke:#181818;stroke-width:0.5;" x1="53.95" x2="294.0545" y1="33.2969" y2="33.2969"/><g data-visibility-modifier="IE_MANDATORY"><ellipse cx="63.95" cy="46.9453" fill="#000000" rx="3" ry="3" style="stroke:#000000;stroke-width:1;"/></g><text fill="#000000" font-family="sans-serif" font-size="14" lengthAdjust="spacing" textLength="101.001" x="72.95" y="50.292">id : UUID &#171;PK&#187;</text><line style="stroke:#181818;stroke-width:1;" x1="53.95" x2="294.0545" y1="57.5938" y2="57.5938"/><g data-visibility-modifier="IE_MANDATORY"><ellipse cx="63.95" cy="71.2422" fill="#000000" rx="3" ry="3" style="stroke:#000000;stroke-width:1;"/></g><text fill="#000000" font-family="sans-serif" font-size="14" lengthAdjust="spacing" textLength="212.2217" x="72.95" y="74.5889">token_simbolo : VARCHAR(16)</text><g data-visibility-modifier="IE_MANDATORY"><ellipse cx="63.95" cy="87.5391" fill="#000000" rx="3" ry="3" style="stroke:#000000;stroke-width:1;"/></g><text fill="#000000" font-family="sans-serif" font-size="14" lengthAdjust="spacing" textLength="172.5801" x="72.95" y="90.8857">mercado : VARCHAR(16)</text><g data-visibility-modifier="IE_MANDATORY"><ellipse cx="63.95" cy="103.8359" fill="#000000" rx="3" ry="3" style="stroke:#000000;stroke-width:1;"/></g><text fill="#000000" font-family="sans-serif" font-size="14" lengthAdjust="spacing" textLength="212.6865" x="72.95" y="107.1826">umbral_valor : NUMERIC(28,8)</text><g data-visibility-modifier="IE_MANDATORY"><ellipse cx="63.95" cy="120.1328" fill="#000000" rx="3" ry="3" style="stroke:#000000;stroke-width:1;"/></g><text fill="#000000" font-family="sans-serif" font-size="14" lengthAdjust="spacing" textLength="147.5127" x="72.95" y="123.4795">umbral_cruce : cruce</text><g data-visibility-modifier="IE_MANDATORY"><ellipse cx="63.95" cy="136.4297" fill="#000000" rx="3" ry="3" style="stroke:#000000;stroke-width:1;"/></g><text fill="#000000" font-family="sans-serif" font-size="14" lengthAdjust="spacing" textLength="179.5117" x="72.95" y="139.7764">webhook_url_enc : BYTEA</text><g data-visibility-modifier="IE_MANDATORY"><ellipse cx="63.95" cy="152.7266" fill="#000000" rx="3" ry="3" style="stroke:#000000;stroke-width:1;"/></g><text fill="#000000" font-family="sans-serif" font-size="14" lengthAdjust="spacing" textLength="156.3789" x="72.95" y="156.0732">estado : estado_alerta</text><g data-visibility-modifier="IE_MANDATORY"><ellipse cx="63.95" cy="169.0234" fill="#000000" rx="3" ry="3" style="stroke:#000000;stroke-width:1;"/></g><text fill="#000000" font-family="sans-serif" font-size="14" lengthAdjust="spacing" textLength="185.5" x="72.95" y="172.3701">creada_en : TIMESTAMPTZ</text><text fill="#000000" font-family="sans-serif" font-size="14" lengthAdjust="spacing" textLength="216.1045" x="72.95" y="188.667">ultimo_disparo : TIMESTAMPTZ</text><text fill="#000000" font-family="sans-serif" font-size="14" lengthAdjust="spacing" textLength="214.04" x="72.95" y="204.9639">ultimo_intento : TIMESTAMPTZ</text><line style="stroke:#181818;stroke-width:1;" x1="53.95" x2="294.0545" y1="212.2656" y2="212.2656"/><text fill="#000000" font-family="sans-serif" font-size="14" lengthAdjust="spacing" textLength="194.1406" x="58.95" y="229.2607">idx (token_simbolo, estado)</text></g><!--class NOTI--><g class="entity" data-qualified-name="NOTI" data-source-line="39" id="ent0005"><rect fill="#F1F1F1" height="229.5625" rx="2.5" ry="2.5" style="stroke:#181818;stroke-width:0.5;" width="272.4766" x="37.76" y="296.56"/><text fill="#000000" font-family="sans-serif" font-size="14" lengthAdjust="spacing" textLength="96.8447" x="125.5759" y="314.5551">notificaciones</text><line style="stroke:#181818;stroke-width:0.5;" x1="38.76" x2="309.2366" y1="322.8569" y2="322.8569"/><g data-visibility-modifier="IE_MANDATORY"><ellipse cx="48.76" cy="336.5053" fill="#000000" rx="3" ry="3" style="stroke:#000000;stroke-width:1;"/></g><text fill="#000000" font-family="sans-serif" font-size="14" lengthAdjust="spacing" textLength="101.001" x="57.76" y="339.852">id : UUID &#171;PK&#187;</text><line style="stroke:#181818;stroke-width:1;" x1="38.76" x2="309.2366" y1="347.1538" y2="347.1538"/><g data-visibility-modifier="IE_MANDATORY"><ellipse cx="48.76" cy="360.8022" fill="#000000" rx="3" ry="3" style="stroke:#000000;stroke-width:1;"/></g><text fill="#000000" font-family="sans-serif" font-size="14" lengthAdjust="spacing" textLength="148.5176" x="57.76" y="364.1489">alerta_id : UUID &#171;FK&#187;</text><g data-visibility-modifier="IE_MANDATORY"><ellipse cx="48.76" cy="377.0991" fill="#000000" rx="3" ry="3" style="stroke:#000000;stroke-width:1;"/></g><text fill="#000000" font-family="sans-serif" font-size="14" lengthAdjust="spacing" textLength="246.4766" x="57.76" y="380.4457">precio_disparador : NUMERIC(28,8)</text><g data-visibility-modifier="IE_MANDATORY"><ellipse cx="48.76" cy="393.3959" fill="#000000" rx="3" ry="3" style="stroke:#000000;stroke-width:1;"/></g><text fill="#000000" font-family="sans-serif" font-size="14" lengthAdjust="spacing" textLength="231.7656" x="57.76" y="396.7426">instante_emision : TIMESTAMPTZ</text><g data-visibility-modifier="IE_MANDATORY"><ellipse cx="48.76" cy="409.6928" fill="#000000" rx="3" ry="3" style="stroke:#000000;stroke-width:1;"/></g><text fill="#000000" font-family="sans-serif" font-size="14" lengthAdjust="spacing" textLength="170.2832" x="57.76" y="413.0395">estado : estado_entrega</text><g data-visibility-modifier="IE_MANDATORY"><ellipse cx="48.76" cy="425.9897" fill="#000000" rx="3" ry="3" style="stroke:#000000;stroke-width:1;"/></g><text fill="#000000" font-family="sans-serif" font-size="14" lengthAdjust="spacing" textLength="124.8311" x="57.76" y="429.3364">intento : INTEGER</text><g data-visibility-modifier="IE_MANDATORY"><ellipse cx="48.76" cy="442.2866" fill="#000000" rx="3" ry="3" style="stroke:#000000;stroke-width:1;"/></g><text fill="#000000" font-family="sans-serif" font-size="14" lengthAdjust="spacing" textLength="227.2813" x="57.76" y="445.6332">proximo_intento : TIMESTAMPTZ</text><text fill="#000000" font-family="sans-serif" font-size="14" lengthAdjust="spacing" textLength="134.9482" x="57.76" y="461.9301">ultimo_error : TEXT</text><text fill="#000000" font-family="sans-serif" font-size="14" lengthAdjust="spacing" textLength="209.665" x="57.76" y="478.227">entregada_en : TIMESTAMPTZ</text><line style="stroke:#181818;stroke-width:1;" x1="38.76" x2="309.2366" y1="485.5288" y2="485.5288"/><text fill="#000000" font-family="sans-serif" font-size="14" lengthAdjust="spacing" textLength="224.8818" x="43.76" y="502.5239">idx (alerta_id, instante_emision)</text><text fill="#000000" font-family="sans-serif" font-size="14" lengthAdjust="spacing" textLength="207.1426" x="43.76" y="518.8207">idx (estado, proximo_intento)</text></g><!--class LBT--><g class="entity" data-qualified-name="LBT" data-source-line="55" id="ent0006"><rect fill="#F1F1F1" height="196.9688" rx="2.5" ry="2.5" style="stroke:#181818;stroke-width:0.5;" width="198.5801" x="628.71" y="23.29"/><text fill="#000000" font-family="sans-serif" font-size="14" lengthAdjust="spacing" textLength="64.3945" x="695.8028" y="41.2851">lb_trades</text><line style="stroke:#181818;stroke-width:0.5;" x1="629.71" x2="826.2901" y1="49.5869" y2="49.5869"/><g data-visibility-modifier="IE_MANDATORY"><ellipse cx="639.71" cy="63.2353" fill="#000000" rx="3" ry="3" style="stroke:#000000;stroke-width:1;"/></g><text fill="#000000" font-family="sans-serif" font-size="14" lengthAdjust="spacing" textLength="106.627" x="648.71" y="66.582">tid : TEXT &#171;PK&#187;</text><line style="stroke:#181818;stroke-width:1;" x1="629.71" x2="826.2901" y1="73.8838" y2="73.8838"/><g data-visibility-modifier="IE_MANDATORY"><ellipse cx="639.71" cy="87.5322" fill="#000000" rx="3" ry="3" style="stroke:#000000;stroke-width:1;"/></g><text fill="#000000" font-family="sans-serif" font-size="14" lengthAdjust="spacing" textLength="172.5801" x="648.71" y="90.8789">mercado : VARCHAR(16)</text><g data-visibility-modifier="IE_MANDATORY"><ellipse cx="639.71" cy="103.8291" fill="#000000" rx="3" ry="3" style="stroke:#000000;stroke-width:1;"/></g><text fill="#000000" font-family="sans-serif" font-size="14" lengthAdjust="spacing" textLength="150.4932" x="648.71" y="107.1757">token : VARCHAR(64)</text><g data-visibility-modifier="IE_MANDATORY"><ellipse cx="639.71" cy="120.1259" fill="#000000" rx="3" ry="3" style="stroke:#000000;stroke-width:1;"/></g><text fill="#000000" font-family="sans-serif" font-size="14" lengthAdjust="spacing" textLength="145.8311" x="648.71" y="123.4726">direccion : CHAR(42)</text><g data-visibility-modifier="IE_MANDATORY"><ellipse cx="639.71" cy="136.4228" fill="#000000" rx="3" ry="3" style="stroke:#000000;stroke-width:1;"/></g><text fill="#000000" font-family="sans-serif" font-size="14" lengthAdjust="spacing" textLength="131.8584" x="648.71" y="139.7695">lado : VARCHAR(4)</text><g data-visibility-modifier="IE_MANDATORY"><ellipse cx="639.71" cy="152.7197" fill="#000000" rx="3" ry="3" style="stroke:#000000;stroke-width:1;"/></g><text fill="#000000" font-family="sans-serif" font-size="14" lengthAdjust="spacing" textLength="164.7051" x="648.71" y="156.0664">volumen_usd : DOUBLE</text><g data-visibility-modifier="IE_MANDATORY"><ellipse cx="639.71" cy="169.0166" fill="#000000" rx="3" ry="3" style="stroke:#000000;stroke-width:1;"/></g><text fill="#000000" font-family="sans-serif" font-size="14" lengthAdjust="spacing" textLength="84.6973" x="648.71" y="172.3632">ts : DOUBLE</text><line style="stroke:#181818;stroke-width:1;" x1="629.71" x2="826.2901" y1="179.665" y2="179.665"/><text fill="#000000" font-family="sans-serif" font-size="14" lengthAdjust="spacing" textLength="168.4033" x="634.71" y="196.6601">idx (mercado, token, ts)</text><text fill="#000000" font-family="sans-serif" font-size="14" lengthAdjust="spacing" textLength="49.2188" x="634.71" y="212.957">idx (ts)</text></g><g class="entity" data-qualified-name="GMN9" data-source-line="73" id="ent0010"><path d="M330.51,94.08 L330.51,118.12 L295.3,122.12 L330.51,126.12 L330.51,149.4784 A0,0 0 0 0 330.51,149.4784 L593.4827,149.4784 A0,0 0 0 0 593.4827,149.4784 L593.4827,104.08 L583.4827,94.08 L330.51,94.08 A0,0 0 0 0 330.51,94.08" fill="#FEFFDD" style="stroke:#181818;stroke-width:0.5;"/><path d="M583.4827,94.08 L583.4827,104.08 L593.4827,104.08 L583.4827,94.08" fill="#FEFFDD" style="stroke:#181818;stroke-width:0.5;"/><text fill="#000000" font-family="sans-serif" font-size="13" lengthAdjust="spacing" textLength="188.5952" x="336.51" y="111.1469">webhook_url_enc cifrado con</text><text fill="#000000" font-family="sans-serif" font-size="13" lengthAdjust="spacing" textLength="241.9727" x="336.51" y="126.2797">pgp_sym_encrypt / pgp_sym_decrypt</text><text fill="#000000" font-family="sans-serif" font-size="13" lengthAdjust="spacing" textLength="52.7935" x="336.51" y="141.4125">(RS-10).</text></g><g class="entity" data-qualified-name="GMN12" data-source-line="79" id="ent0013"><path d="M344.94,383.64 L344.94,408.12 L310.36,412.12 L344.94,416.12 L344.94,439.0384 A0,0 0 0 0 344.94,439.0384 L539.0596,439.0384 A0,0 0 0 0 539.0596,439.0384 L539.0596,393.64 L529.0596,383.64 L344.94,383.64 A0,0 0 0 0 344.94,383.64" fill="#FEFFDD" style="stroke:#181818;stroke-width:0.5;"/><path d="M529.0596,383.64 L529.0596,393.64 L539.0596,393.64 L529.0596,383.64" fill="#FEFFDD" style="stroke:#181818;stroke-width:0.5;"/><text fill="#000000" font-family="sans-serif" font-size="13" lengthAdjust="spacing" textLength="144.9233" x="350.94" y="400.7069">proximo_intento + idx</text><text fill="#000000" font-family="sans-serif" font-size="13" lengthAdjust="spacing" textLength="173.1196" x="350.94" y="415.8397">materializan la cola virtual</text><text fill="#000000" font-family="sans-serif" font-size="13" lengthAdjust="spacing" textLength="143.6602" x="350.94" y="430.9725">de reintentos (RS-07).</text></g><g class="entity" data-qualified-name="GMN15" data-source-line="85" id="ent0016"><path d="M861.96,63.81 L861.96,118.12 L827.6,122.12 L861.96,126.12 L861.96,179.7397 A0,0 0 0 0 861.96,179.7397 L1082.0415,179.7397 A0,0 0 0 0 1082.0415,179.7397 L1082.0415,73.81 L1072.0415,63.81 L861.96,63.81 A0,0 0 0 0 861.96,63.81" fill="#FEFFDD" style="stroke:#181818;stroke-width:0.5;"/><path d="M1072.0415,63.81 L1072.0415,73.81 L1082.0415,73.81 L1072.0415,63.81" fill="#FEFFDD" style="stroke:#181818;stroke-width:0.5;"/><text fill="#000000" font-family="sans-serif" font-size="13" lengthAdjust="spacing" textLength="152.6738" x="867.96" y="80.8769">Tabla t&#233;cnica derivada:</text><text fill="#000000" font-family="sans-serif" font-size="13" lengthAdjust="spacing" textLength="182.292" x="867.96" y="96.0097">hist&#243;rico continuo de trades</text><text fill="#000000" font-family="sans-serif" font-size="13" lengthAdjust="spacing" textLength="184.2153" x="867.96" y="111.1425">para snapshots de ventanas</text><text fill="#000000" font-family="sans-serif" font-size="13" lengthAdjust="spacing" textLength="199.0815" x="867.96" y="126.2753">largas (1d, 1w) y recuperaci&#243;n</text><text fill="#000000" font-family="sans-serif" font-size="13" lengthAdjust="spacing" textLength="80.9644" x="867.96" y="141.4081">tras reinicio.</text><text fill="#000000" font-family="sans-serif" font-size="13" lengthAdjust="spacing" textLength="160.583" x="867.96" y="156.541">PK = tid: dedupe natural</text><text fill="#000000" font-family="sans-serif" font-size="13" lengthAdjust="spacing" textLength="113.4453" x="867.96" y="171.6738">entre WS y REST.</text></g><!--link ENT to DIR--><g class="link" data-entity-1="ent0002" data-entity-2="ent0003" data-link-type="crowfoot" data-source-line="69" id="lnk7"><path codeLine="69" d="M1229,183.9 C1229,231.78 1229,275.79 1229,327.03" fill="none" id="ENT-DIR" style="stroke:#181818;stroke-width:1;"/><line style="stroke:#181818;stroke-width:1;" x1="1225" x2="1233" y1="179.9" y2="179.9"/><line style="stroke:#181818;stroke-width:1;" x1="1225" x2="1233" y1="182.9" y2="182.9"/><line style="stroke:#181818;stroke-width:1;" x1="1229" x2="1229" y1="183.9" y2="175.9"/><line style="stroke:#181818;stroke-width:1;" x1="1229" x2="1235" y1="337.03" y2="345.03"/><line style="stroke:#181818;stroke-width:1;" x1="1229" x2="1223" y1="337.03" y2="345.03"/><line style="stroke:#181818;stroke-width:1;" x1="1229" x2="1229" y1="337.03" y2="345.03"/><ellipse cx="1229" cy="331.03" fill="none" rx="4" ry="4" style="stroke:#181818;stroke-width:1;"/><text fill="#000000" font-family="sans-serif" font-size="13" lengthAdjust="spacing" textLength="162.3984" x="1066" y="241.5269">1 entidad : N direcciones</text><text fill="#000000" font-family="sans-serif" font-size="13" lengthAdjust="spacing" textLength="140.4736" x="1076.9624" y="256.6597">ON DELETE CASCADE</text></g><!--link ALER to NOTI--><g class="link" data-entity-1="ent0004" data-entity-2="ent0005" data-link-type="crowfoot" data-source-line="70" id="lnk8"><path codeLine="70" d="M174,245.05 C174,264.61 174,258.91 174,278.46" fill="none" id="ALER-NOTI" style="stroke:#181818;stroke-width:1;"/><line style="stroke:#181818;stroke-width:1;" x1="170" x2="178" y1="241.05" y2="241.05"/><line style="stroke:#181818;stroke-width:1;" x1="170" x2="178" y1="244.05" y2="244.05"/><line style="stroke:#181818;stroke-width:1;" x1="174" x2="174" y1="245.05" y2="237.05"/><line style="stroke:#181818;stroke-width:1;" x1="174" x2="180" y1="288.46" y2="296.46"/><line style="stroke:#181818;stroke-width:1;" x1="174" x2="168" y1="288.46" y2="296.46"/><line style="stroke:#181818;stroke-width:1;" x1="174" x2="174" y1="288.46" y2="296.46"/><ellipse cx="174" cy="282.46" fill="none" rx="4" ry="4" style="stroke:#181818;stroke-width:1;"/><text fill="#000000" font-family="sans-serif" font-size="13" lengthAdjust="spacing" textLength="166.8164" x="7" y="247.8269">1 alerta : N notificaciones</text><text fill="#000000" font-family="sans-serif" font-size="13" lengthAdjust="spacing" textLength="140.4736" x="20.1714" y="262.9597">ON DELETE CASCADE</text></g><?plantuml-src ZLNRRjf047tdAqPvWXJI45Lf5AMH2BWj2Y4HcDvKoLhM2wnYxrgxQnAQz8Fwd4_8ZtLsROYD8847dEoCpvmvStRGjrmaH94Oz8o4yewBAKn8f5bbnaC6b2iQiOfUPKLSCBD864XbPh9IOS9miu0z-mn9oFGU40rUtuU72k1dduTm2gDHjmDdPpUNv-VkjD78WaB6OyKmuLjhqFxQ6bIFFzGmRvIdxLF5I4W29Z35xrvvGxzrTUF_oeA4cfH4_0zch8N_ll0AkMAKSYboPftkO2TcSn99XN77wiDHYLNUQr04-Bm4s2U2av1lOvtZy_0UgYyujI9b4Z5bI4QtrVDsuslaBHE1vl5OHh8WQFEubYN4J54SyAPGYaCWKR1ikJ-wyWRTTlNef7vIpg0gfNPQxfb5xjXu9kLjaAe86wOOlFZfUwrSA6soajaVGTRPswDD8yDZ6OHSe-dazWGk38ectv2v94qzvr9IN4Z39voIWa_wrtvt9-6pdhPu8K7pyMKZM7MBl5mW9-mbO37No66JszUrHEwAJSaIO2b4j-zxNxp1ihoyVrsdN4YcbEFcUpzyTvwZx-BYbG1rME-ZLl2wOrs7DKgbCKJZmAZL3kbTh7Q8SUfQSficy8gptUZBwoKBhDP2uOfdaQWCjNnXBgCqHXkbsbBfN8ykUbvUGvSFYjharEhWYE135oIn_s3tTbS-FZOQyi4j9q2qlIRaky7w1GexxBUuxaF7wtc-1-tMiDtgU7iLjoHo2ETRXv3DnG6K_RqHeu8v31IVpWp8YTixo7JzTbC-iJO6AWL6asaIw4Li8sgH67Y_EWcPEy6Swc3OQ1xM3d38eUN1rYjPmXPhpQhlh4Pu7XF357ThNa14i39-pRcogn_3-1EbMFwETiKEFxvI33s5B_baZ23c-HyLA0fYA3v7gvzYQCQrUNvIdBeU3HUfj3KoMrgQU8r12vBecSJ1OsYEfOaWDXWHDKNZLfju5PftDLWWDvecJA7mpqzMCSJHZZ37KHpWmSqbV0ASz2b2XPWAWfXKkTRS5OJlGuGPuEKhDFKV?></g></svg>