<svg xmlns="http://www.w3.org/2000/svg" xmlns:xlink="http://www.w3.org/1999/xlink" contentStyleType="text/css" data-diagram-type="CLASS" height="293px" preserveAspectRatio="none" style="width:1940px;height:293px;background:#FFFFFF;" version="1.1" viewBox="0 0 1940 293" width="1940px" zoomAndPan="magnify"><?plantuml 1.2026.3beta6?><defs/><g><!--cluster presentation/http/catalogo--><g class="cluster" data-qualified-name="presentation.http.catalogo" data-source-line="5" id="ent0002"><path d="M854.5,6 L1068.4736,6 A3.75,3.75 0 0 1 1070.9736,8.5 L1077.9736,28.2969 L1217.5,28.2969 A2.5,2.5 0 0 1 1220,30.7969 L1220,110.76 A2.5,2.5 0 0 1 1217.5,113.26 L854.5,113.26 A2.5,2.5 0 0 1 852,110.76 L852,8.5 A2.5,2.5 0 0 1 854.5,6" fill="none" style="stroke:#000000;stroke-width:1.5;"/><line style="stroke:#000000;stroke-width:1.5;" x1="852" x2="1077.9736" y1="28.2969" y2="28.2969"/><text fill="#000000" font-family="sans-serif" font-size="14" font-weight="700" lengthAdjust="spacing" textLength="212.9736" x="856" y="20.9951">presentation/http/catalogo</text></g><!--cluster application/catalogo--><g class="cluster" data-qualified-name="application.catalogo" data-source-line="10" id="ent0005"><path d="M8.5,6 L170.4658,6 A3.75,3.75 0 0 1 172.9658,8.5 L179.9658,28.2969 L825.5,28.2969 A2.5,2.5 0 0 1 828,30.7969 L828,275.92 A2.5,2.5 0 0 1 825.5,278.42 L8.5,278.42 A2.5,2.5 0 0 1 6,275.92 L6,8.5 A2.5,2.5 0 0 1 8.5,6" fill="none" style="stroke:#000000;stroke-width:1.5;"/><line style="stroke:#000000;stroke-width:1.5;" x1="6" x2="179.9658" y1="28.2969" y2="28.2969"/><text fill="#000000" font-family="sans-serif" font-size="14" font-weight="700" lengthAdjust="spacing" textLength="160.9658" x="10" y="20.9951">application/catalogo</text></g><!--cluster domain/catalogo--><g class="cluster" data-qualified-name="domain.catalogo" data-source-line="23" id="ent0012"><path d="M1780.5,6 L1912.9961,6 A3.75,3.75 0 0 1 1915.4961,8.5 L1922.4961,28.2969 L1922.5,28.2969 A2.5,2.5 0 0 1 1925,30.7969 L1925,251.47 A2.5,2.5 0 0 1 1922.5,253.97 L1780.5,253.97 A2.5,2.5 0 0 1 1778,251.47 L1778,8.5 A2.5,2.5 0 0 1 1780.5,6" fill="none" style="stroke:#000000;stroke-width:1.5;"/><line style="stroke:#000000;stroke-width:1.5;" x1="1778" x2="1922.4961" y1="28.2969" y2="28.2969"/><text fill="#000000" font-family="sans-serif" font-size="14" font-weight="700" lengthAdjust="spacing" textLength="131.4961" x="1782" y="20.9951">domain/catalogo</text></g><!--cluster infrastructure/persistence/postgres--><g class="cluster" data-qualified-name="infrastructure.persistence.postgres" data-source-line="28" id="ent0015"><path d="M1246.5,6 L1529.4414,6 A3.75,3.75 0 0 1 1531.9414,8.5 L1538.9414,28.2969 L1751.5,28.2969 A2.5,2.5 0 0 1 1754,30.7969 L1754,110.76 A2.5,2.5 0 0 1 1751.5,113.26 L1246.5,113.26 A2.5,2.5 0 0 1 1244,110.76 L1244,8.5 A2.5,2.5 0 0 1 1246.5,6" fill="none" style="stroke:#000000;stroke-width:1.5;"/><line style="stroke:#000000;stroke-width:1.5;" x1="1244" x2="1538.9414" y1="28.2969" y2="28.2969"/><text fill="#000000" font-family="sans-serif" font-size="14" font-weight="700" lengthAdjust="spacing" textLength="281.9414" x="1248" y="20.9951">infrastructure/persistence/postgres</text></g><!--class EntidadesController--><g class="entity" data-qualified-name="presentation.http.catalogo.EntidadesController" data-source-line="6" id="ent0003"><rect fill="#F1F1F1" height="56.2656" rx="2.5" ry="2.5" style="stroke:#181818;stroke-width:0.5;" width="144.5303" x="867.73" y="41"/><text fill="#000000" font-family="sans-serif" font-size="12" font-style="italic" lengthAdjust="spacing" textLength="72.1934" x="903.8985" y="57.1387">&#171;controller&#187;</text><text fill="#000000" font-family="sans-serif" font-size="14" lengthAdjust="spacing" textLength="138.5303" x="870.73" y="72.9639">EntidadesController</text><line style="stroke:#181818;stroke-width:0.5;" x1="868.73" x2="1011.2603" y1="81.2656" y2="81.2656"/><line style="stroke:#181818;stroke-width:0.5;" x1="868.73" x2="1011.2603" y1="89.2656" y2="89.2656"/></g><!--class DireccionesController--><g class="entity" data-qualified-name="presentation.http.catalogo.DireccionesController" data-source-line="7" id="ent0004"><rect fill="#F1F1F1" height="56.2656" rx="2.5" ry="2.5" style="stroke:#181818;stroke-width:0.5;" width="156.8418" x="1047.58" y="41"/><text fill="#000000" font-family="sans-serif" font-size="12" font-style="italic" lengthAdjust="spacing" textLength="72.1934" x="1089.9042" y="57.1387">&#171;controller&#187;</text><text fill="#000000" font-family="sans-serif" font-size="14" lengthAdjust="spacing" textLength="150.8418" x="1050.58" y="72.9639">DireccionesController</text><line style="stroke:#181818;stroke-width:0.5;" x1="1048.58" x2="1203.4218" y1="81.2656" y2="81.2656"/><line style="stroke:#181818;stroke-width:0.5;" x1="1048.58" x2="1203.4218" y1="89.2656" y2="89.2656"/></g><!--class ICatalogoService--><g class="entity" data-qualified-name="application.catalogo.ICatalogoService" data-source-line="11" id="ent0006"><rect fill="#F1F1F1" height="56.2656" rx="2.5" ry="2.5" style="stroke:#181818;stroke-width:0.5;" width="124.2002" x="296.9" y="181.71"/><text fill="#000000" font-family="sans-serif" font-size="12" font-style="italic" lengthAdjust="spacing" textLength="54.5508" x="331.7247" y="197.8487">&#171;port-in&#187;</text><text fill="#000000" font-family="sans-serif" font-size="14" font-style="italic" lengthAdjust="spacing" textLength="118.2002" x="299.9" y="213.6739">ICatalogoService</text><line style="stroke:#181818;stroke-width:0.5;" x1="297.9" x2="420.1002" y1="221.9756" y2="221.9756"/><line style="stroke:#181818;stroke-width:0.5;" x1="297.9" x2="420.1002" y1="229.9756" y2="229.9756"/></g><!--class ICatalogoQueryService--><g class="entity" data-qualified-name="application.catalogo.ICatalogoQueryService" data-source-line="12" id="ent0007"><rect fill="#F1F1F1" height="105.1563" rx="2.5" ry="2.5" style="stroke:#181818;stroke-width:0.5;" width="240.7441" x="21.63" y="157.26"/><text fill="#000000" font-family="sans-serif" font-size="12" font-style="italic" lengthAdjust="spacing" textLength="54.5508" x="114.7267" y="173.3987">&#171;port-in&#187;</text><text fill="#000000" font-family="sans-serif" font-size="14" font-style="italic" lengthAdjust="spacing" textLength="160.7471" x="61.6285" y="189.2239">ICatalogoQueryService</text><line style="stroke:#181818;stroke-width:0.5;" x1="22.63" x2="261.3741" y1="197.5256" y2="197.5256"/><line style="stroke:#181818;stroke-width:0.5;" x1="22.63" x2="261.3741" y1="205.5256" y2="205.5256"/><text fill="#000000" font-family="sans-serif" font-size="14" lengthAdjust="spacing" textLength="199.2266" x="27.63" y="222.5207">+resolverNombre(direccion)</text><text fill="#000000" font-family="sans-serif" font-size="14" lengthAdjust="spacing" textLength="172.6963" x="27.63" y="238.8176">+resolverToken(symbol)</text><text fill="#000000" font-family="sans-serif" font-size="14" lengthAdjust="spacing" textLength="228.7441" x="27.63" y="255.1145">+existeToken(symbol, mercado)</text></g><!--class IEntidadesRepository--><g class="entity" data-qualified-name="application.catalogo.IEntidadesRepository" data-source-line="17" id="ent0008"><rect fill="#F1F1F1" height="56.2656" rx="2.5" ry="2.5" style="stroke:#181818;stroke-width:0.5;" width="154.5586" x="455.72" y="181.71"/><text fill="#000000" font-family="sans-serif" font-size="12" font-style="italic" lengthAdjust="spacing" textLength="63.2637" x="501.3675" y="197.8487">&#171;port-out&#187;</text><text fill="#000000" font-family="sans-serif" font-size="14" font-style="italic" lengthAdjust="spacing" textLength="148.5586" x="458.72" y="213.6739">IEntidadesRepository</text><line style="stroke:#181818;stroke-width:0.5;" x1="456.72" x2="609.2786" y1="221.9756" y2="221.9756"/><line style="stroke:#181818;stroke-width:0.5;" x1="456.72" x2="609.2786" y1="229.9756" y2="229.9756"/></g><!--class IDireccionesRepository--><g class="entity" data-qualified-name="application.catalogo.IDireccionesRepository" data-source-line="18" id="ent0009"><rect fill="#F1F1F1" height="56.2656" rx="2.5" ry="2.5" style="stroke:#181818;stroke-width:0.5;" width="166.8701" x="645.56" y="181.71"/><text fill="#000000" font-family="sans-serif" font-size="12" font-style="italic" lengthAdjust="spacing" textLength="63.2637" x="697.3632" y="197.8487">&#171;port-out&#187;</text><text fill="#000000" font-family="sans-serif" font-size="14" font-style="italic" lengthAdjust="spacing" textLength="160.8701" x="648.56" y="213.6739">IDireccionesRepository</text><line style="stroke:#181818;stroke-width:0.5;" x1="646.56" x2="811.4301" y1="221.9756" y2="221.9756"/><line style="stroke:#181818;stroke-width:0.5;" x1="646.56" x2="811.4301" y1="229.9756" y2="229.9756"/></g><!--class CatalogoService--><g class="entity" data-qualified-name="application.catalogo.CatalogoService" data-source-line="19" id="ent0010"><rect fill="#F1F1F1" height="56.2656" rx="2.5" ry="2.5" style="stroke:#181818;stroke-width:0.5;" width="120.0713" x="385.96" y="41"/><text fill="#000000" font-family="sans-serif" font-size="12" font-style="italic" lengthAdjust="spacing" textLength="57.668" x="417.1617" y="57.1387">&#171;service&#187;</text><text fill="#000000" font-family="sans-serif" font-size="14" lengthAdjust="spacing" textLength="114.0713" x="388.96" y="72.9639">CatalogoService</text><line style="stroke:#181818;stroke-width:0.5;" x1="386.96" x2="505.0313" y1="81.2656" y2="81.2656"/><line style="stroke:#181818;stroke-width:0.5;" x1="386.96" x2="505.0313" y1="89.2656" y2="89.2656"/></g><!--class AddressNameResolver--><g class="entity" data-qualified-name="application.catalogo.AddressNameResolver" data-source-line="20" id="ent0011"><rect fill="#F1F1F1" height="56.2656" rx="2.5" ry="2.5" style="stroke:#181818;stroke-width:0.5;" width="164.3545" x="59.82" y="41"/><text fill="#000000" font-family="sans-serif" font-size="12" font-style="italic" lengthAdjust="spacing" textLength="57.668" x="113.1633" y="57.1387">&#171;service&#187;</text><text fill="#000000" font-family="sans-serif" font-size="14" lengthAdjust="spacing" textLength="158.3545" x="62.82" y="72.9639">AddressNameResolver</text><line style="stroke:#181818;stroke-width:0.5;" x1="60.82" x2="223.1745" y1="81.2656" y2="81.2656"/><line style="stroke:#181818;stroke-width:0.5;" x1="60.82" x2="223.1745" y1="89.2656" y2="89.2656"/></g><!--class Entidad--><g class="entity" data-qualified-name="domain.catalogo.Entidad" data-source-line="24" id="ent0013"><rect fill="#F1F1F1" height="56.2656" rx="2.5" ry="2.5" style="stroke:#181818;stroke-width:0.5;" width="59.4502" x="1821.27" y="41"/><text fill="#000000" font-family="sans-serif" font-size="12" font-style="italic" lengthAdjust="spacing" textLength="49.5176" x="1826.2363" y="57.1387">&#171;entity&#187;</text><text fill="#000000" font-family="sans-serif" font-size="14" lengthAdjust="spacing" textLength="53.4502" x="1824.27" y="72.9639">Entidad</text><line style="stroke:#181818;stroke-width:0.5;" x1="1822.27" x2="1879.7202" y1="81.2656" y2="81.2656"/><line style="stroke:#181818;stroke-width:0.5;" x1="1822.27" x2="1879.7202" y1="89.2656" y2="89.2656"/></g><!--class Direccion--><g class="entity" data-qualified-name="domain.catalogo.Direccion" data-source-line="25" id="ent0014"><rect fill="#F1F1F1" height="56.2656" rx="2.5" ry="2.5" style="stroke:#181818;stroke-width:0.5;" width="71.7617" x="1815.12" y="181.71"/><text fill="#000000" font-family="sans-serif" font-size="12" font-style="italic" lengthAdjust="spacing" textLength="47.4609" x="1827.2704" y="197.8487">&#171;value&#187;</text><text fill="#000000" font-family="sans-serif" font-size="14" lengthAdjust="spacing" textLength="65.7617" x="1818.12" y="213.6739">Direccion</text><line style="stroke:#181818;stroke-width:0.5;" x1="1816.12" x2="1885.8817" y1="221.9756" y2="221.9756"/><line style="stroke:#181818;stroke-width:0.5;" x1="1816.12" x2="1885.8817" y1="229.9756" y2="229.9756"/></g><!--class EntidadesRepositoryTypeOrm--><g class="entity" data-qualified-name="infrastructure.persistence.postgres.EntidadesRepositoryTypeOrm" data-source-line="29" id="ent0016"><rect fill="#FFF3E0" height="56.2656" rx="2.5" ry="2.5" style="stroke:#181818;stroke-width:0.5;" width="215.1797" x="1260.41" y="41"/><text fill="#000000" font-family="sans-serif" font-size="12" font-style="italic" lengthAdjust="spacing" textLength="41.959" x="1347.0204" y="57.1387">&#171;repo&#187;</text><text fill="#000000" font-family="sans-serif" font-size="14" lengthAdjust="spacing" textLength="209.1797" x="1263.41" y="72.9639">EntidadesRepositoryTypeOrm</text><line style="stroke:#181818;stroke-width:0.5;" x1="1261.41" x2="1474.5897" y1="81.2656" y2="81.2656"/><line style="stroke:#181818;stroke-width:0.5;" x1="1261.41" x2="1474.5897" y1="89.2656" y2="89.2656"/></g><!--class DireccionesRepositoryTypeOrm--><g class="entity" data-qualified-name="infrastructure.persistence.postgres.DireccionesRepositoryTypeOrm" data-source-line="30" id="ent0017"><rect fill="#FFF3E0" height="56.2656" rx="2.5" ry="2.5" style="stroke:#181818;stroke-width:0.5;" width="227.4912" x="1510.25" y="41"/><text fill="#000000" font-family="sans-serif" font-size="12" font-style="italic" lengthAdjust="spacing" textLength="41.959" x="1603.0161" y="57.1387">&#171;repo&#187;</text><text fill="#000000" font-family="sans-serif" font-size="14" lengthAdjust="spacing" textLength="221.4912" x="1513.25" y="72.9639">DireccionesRepositoryTypeOrm</text><line style="stroke:#181818;stroke-width:0.5;" x1="1511.25" x2="1736.7412" y1="81.2656" y2="81.2656"/><line style="stroke:#181818;stroke-width:0.5;" x1="1511.25" x2="1736.7412" y1="89.2656" y2="89.2656"/></g><g class="entity" data-qualified-name="GMN28" data-source-line="45" id="ent0029"><path d="M847.32,174.58 L847.32,245.1113 L1122.6833,245.1113 L1122.6833,184.58 L1112.6833,174.58 L847.32,174.58" fill="#FEFFDD" style="stroke:#181818;stroke-width:0.5;"/><path d="M1112.6833,174.58 L1112.6833,184.58 L1122.6833,184.58 L1112.6833,174.58" fill="#FEFFDD" style="stroke:#181818;stroke-width:1;"/><text fill="#000000" font-family="sans-serif" font-size="13" lengthAdjust="spacing" textLength="169.7173" x="853.32" y="191.6469">Interface segregada (ISP):</text><text fill="#000000" font-family="sans-serif" font-size="13" lengthAdjust="spacing" textLength="231.2769" x="853.32" y="206.7797">consumida por LeaderboardService</text><text fill="#000000" font-family="sans-serif" font-size="13" lengthAdjust="spacing" textLength="190.1758" x="853.32" y="221.9125">y AlertasService sin cargar la</text><text fill="#000000" font-family="sans-serif" font-size="13" lengthAdjust="spacing" textLength="254.3633" x="853.32" y="237.0453">parte de mutaci&#243;n de ICatalogoService</text></g><!--link EntidadesController to ICatalogoService--><g class="link" data-entity-1="ent0003" data-entity-2="ent0006" data-link-type="dependency" data-source-line="33" id="lnk18"><path codeLine="33" d="M889.21,97.69 C870.48,106.67 848.76,115.74 828,121.26 C659.79,166.04 602.38,100 438,157.26 C422.22,162.76 411.4055,168.6337 398.1655,177.8437" fill="none" id="EntidadesController-to-ICatalogoService" style="stroke:#181818;stroke-width:1;stroke-dasharray:7,7;"/><polygon fill="#181818" points="393.24,181.27,402.9124,179.4143,397.3446,178.4148,398.3441,172.8469,393.24,181.27" style="stroke:#181818;stroke-width:1;"/></g><!--link DireccionesController to ICatalogoService--><g class="link" data-entity-1="ent0004" data-entity-2="ent0006" data-link-type="dependency" data-source-line="34" id="lnk19"><path codeLine="34" d="M1083.7,97.7 C1067.54,106.85 1048.54,116.03 1030,121.26 C776.31,192.86 688.25,74.45 438,157.26 C421.98,162.56 410.9849,168.5085 397.6749,177.8285" fill="none" id="DireccionesController-to-ICatalogoService" style="stroke:#181818;stroke-width:1;stroke-dasharray:7,7;"/><polygon fill="#181818" points="392.76,181.27,402.4267,179.3843,396.8557,178.4021,397.838,172.8311,392.76,181.27" style="stroke:#181818;stroke-width:1;"/></g><!--link CatalogoService to ICatalogoService--><g class="link" data-entity-1="ent0010" data-entity-2="ent0006" data-link-type="extension" data-source-line="35" id="lnk20"><path codeLine="35" d="M428.81,97.54 C413.56,121.85 400.9537,141.9409 385.7137,166.2409" fill="none" id="CatalogoService-to-ICatalogoService" style="stroke:#181818;stroke-width:1;stroke-dasharray:7,7;"/><polygon fill="none" points="376.15,181.49,390.7967,169.4287,380.6306,163.053,376.15,181.49" style="stroke:#181818;stroke-width:1;"/></g><!--link CatalogoService to ICatalogoQueryService--><g class="link" data-entity-1="ent0010" data-entity-2="ent0007" data-link-type="extension" data-source-line="36" id="lnk21"><path codeLine="36" d="M385.58,97.7 C348.52,114.61 316.2664,129.3292 272.2064,149.4292" fill="none" id="CatalogoService-to-ICatalogoQueryService" style="stroke:#181818;stroke-width:1;stroke-dasharray:7,7;"/><polygon fill="none" points="255.83,156.9,274.6967,154.888,269.7161,143.9704,255.83,156.9" style="stroke:#181818;stroke-width:1;"/></g><!--link CatalogoService to IEntidadesRepository--><g class="link" data-entity-1="ent0010" data-entity-2="ent0008" data-link-type="dependency" data-source-line="37" id="lnk22"><path codeLine="37" d="M463.19,97.54 C478.44,121.85 497.4221,152.107 512.6621,176.407" fill="none" id="CatalogoService-to-IEntidadesRepository" style="stroke:#181818;stroke-width:1;stroke-dasharray:7,7;"/><polygon fill="#181818" points="515.85,181.49,514.4569,171.7402,513.1934,177.2541,507.6795,175.9907,515.85,181.49" style="stroke:#181818;stroke-width:1;"/></g><!--link CatalogoService to IDireccionesRepository--><g class="link" data-entity-1="ent0010" data-entity-2="ent0009" data-link-type="dependency" data-source-line="38" id="lnk23"><path codeLine="38" d="M504.38,97.61 C540.17,114.58 586.87,136.92 628,157.26 C643.53,164.95 654.9773,170.7095 670.3173,178.5495" fill="none" id="CatalogoService-to-IDireccionesRepository" style="stroke:#181818;stroke-width:1;stroke-dasharray:7,7;"/><polygon fill="#181818" points="675.66,181.28,669.4664,173.6224,671.2078,179.0045,665.8256,180.746,675.66,181.28" style="stroke:#181818;stroke-width:1;"/></g><!--link AddressNameResolver to ICatalogoQueryService--><g class="link" data-entity-1="ent0011" data-entity-2="ent0007" data-link-type="dependency" data-source-line="39" id="lnk24"><path codeLine="39" d="M142,97.54 C142,114.43 142,130.65 142,150.79" fill="none" id="AddressNameResolver-to-ICatalogoQueryService" style="stroke:#181818;stroke-width:1;stroke-dasharray:7,7;"/><polygon fill="#181818" points="142,156.79,146,147.79,142,151.79,138,147.79,142,156.79" style="stroke:#181818;stroke-width:1;"/></g><!--link EntidadesRepositoryTypeOrm to IEntidadesRepository--><g class="link" data-entity-1="ent0016" data-entity-2="ent0008" data-link-type="extension" data-source-line="40" id="lnk25"><path codeLine="40" d="M1300.92,97.63 C1275.93,106.72 1247.06,115.87 1220,121.26 C961.49,172.78 881.4,84.65 628,157.26 C609.42,162.59 605.9833,162.9537 589.9033,172.2737" fill="none" id="EntidadesRepositoryTypeOrm-to-IEntidadesRepository" style="stroke:#181818;stroke-width:1;stroke-dasharray:7,7;"/><polygon fill="none" points="574.33,181.3,592.912,177.4648,586.8945,167.0826,574.33,181.3" style="stroke:#181818;stroke-width:1;"/></g><!--link DireccionesRepositoryTypeOrm to IDireccionesRepository--><g class="link" data-entity-1="ent0017" data-entity-2="ent0009" data-link-type="extension" data-source-line="41" id="lnk26"><path codeLine="41" d="M1565.24,97.66 C1543.08,106.81 1517.34,115.99 1493,121.26 C1204.58,183.7 1114.94,80.49 830,157.26 C810.42,162.54 806.0453,163.3065 788.9253,172.6365" fill="none" id="DireccionesRepositoryTypeOrm-to-IDireccionesRepository" style="stroke:#181818;stroke-width:1;stroke-dasharray:7,7;"/><polygon fill="none" points="773.12,181.25,791.7965,177.9049,786.0541,167.3681,773.12,181.25" style="stroke:#181818;stroke-width:1;"/></g><!--reverse link Entidad to Direccion--><g class="link" data-entity-1="ent0013" data-entity-2="ent0014" data-link-type="aggregation" data-source-line="42" id="lnk27"><path codeLine="42" d="M1851,109.54 C1851,133.85 1851,157.19 1851,181.49" fill="none" id="Entidad-backto-Direccion" style="stroke:#181818;stroke-width:1;"/><polygon fill="none" points="1851,97.54,1847,103.54,1851,109.54,1855,103.54,1851,97.54" style="stroke:#181818;stroke-width:1;"/></g><!--link ICatalogoQueryService to GMN28--><g class="link" data-entity-1="ent0007" data-entity-2="ent0029" data-link-type="association" data-source-line="45" id="lnk30"><path d="M241.66,156.89 C259.48,149.59 278.2,143.25 296.5,139.26 C408.11,114.98 698.38,117.45 810.5,139.26 C846.11,146.19 883.64,160.38 914.74,174.23" fill="none" id="ICatalogoQueryService-GMN28" style="stroke:#181818;stroke-width:1;stroke-dasharray:7,7;"/></g><?plantuml-src bLJRRXCn47tVhnYLbrGqIINUK1GfAeqK2HLe-mCJUxAnicklnhE11VfLV08_neJDPPEu4VZ9zfmP7yyvTbmvNo5Z2N69DdnrFeS55f6ok8-O0cESYB2Rrq8p4_oJ-qvmcosT9J2EJK5PLg5POKvmLJ55yeBYWXykHQgXGS4YvE4AVcIWusz1kFVYB5gATy4BXw8WXj78x1VZSGVymJ4PenKlmLywBB2g2cTQ4gVdEo_42pG4ixjjw8buxNHZDAe2Iz_vxUa9w9UQk4dWjyKtuore3qAn9du8vPofPtVqhnEOvx0YtujDEGz5DqxVN1JgHc-W93QgKmjxEQMuR-aZLI4w2Tpi68PQpg_KwUgbZ5Q2yrR5TdQ4cbYhzueFMDBZzdv7oAv6DfJe_6LxQBAQoKcJjeE6rrZKfvMTNp16uTf8pJIiYEEcbzxeF4J9bU8hPZpquRcfw1ENUWBhdkhxPZgTlhk_JRlo7_AKOChpWy7up8TPskz9wAakWy7F_qPrFPs0ZfFMIWEJFSbIjZYwpH632sgql5DiBehHfgMvxPmM-ls3ebdcWn2movS2OV4AKO3P_ZL5KblbQ15wiwVFr-yrgBzJh4ij3lgYu2CfOvu7P7l8Rs2YoWh6NHEZys2GSsGeK07w1oiF_MZBMj2utx_yPd6cBtaB6yP_0000?></g></svg>