<?plantuml 1.2026.1?><svg xmlns="http://www.w3.org/2000/svg" xmlns:xlink="http://www.w3.org/1999/xlink" contentStyleType="text/css" data-diagram-type="DESCRIPTION" height="809px" preserveAspectRatio="none" style="width:1545px;height:809px;background:#FFFFFF;" version="1.1" viewBox="0 0 1545 809" width="1545px" zoomAndPan="magnify"><defs/><g><!--cluster HOST--><g class="cluster" data-qualified-name="HOST" data-source-line="9" id="ent0005"><polygon fill="none" points="16,177.79,26,167.79,838,167.79,838,782.73,828,792.73,16,792.73,16,177.79" style="stroke:#181818;stroke-width:1;"/><line style="stroke:#181818;stroke-width:1;" x1="828" x2="838" y1="177.79" y2="167.79"/><line style="stroke:#181818;stroke-width:1;" x1="16" x2="828" y1="177.79" y2="177.79"/><line style="stroke:#181818;stroke-width:1;" x1="828" x2="828" y1="177.79" y2="792.73"/><text fill="#000000" font-family="sans-serif" font-size="14" font-weight="bold" lengthAdjust="spacing" textLength="96.4824" x="374.7588" y="193.7851">Host Docker</text></g><!--cluster EDGE--><g class="cluster" data-qualified-name="HOST.EDGE" data-source-line="11" id="ent0006"><rect fill="#E3F2FD" height="397.64" rx="2.5" ry="2.5" style="stroke:#181818;stroke-width:1;" width="476" x="48" y="223.79"/><text fill="#000000" font-family="sans-serif" font-size="14" font-weight="bold" lengthAdjust="spacing" textLength="129.8486" x="221.0757" y="238.7851">Red: fieldx-edge</text></g><!--cluster APP--><g class="cluster" data-qualified-name="HOST.EDGE.APP" data-source-line="12" id="ent0007"><polygon fill="none" points="80,284.79,90,274.79,492,274.79,492,579.43,482,589.43,80,589.43,80,284.79" style="stroke:#181818;stroke-width:1;"/><line style="stroke:#181818;stroke-width:1;" x1="482" x2="492" y1="284.79" y2="274.79"/><line style="stroke:#181818;stroke-width:1;" x1="80" x2="482" y1="284.79" y2="284.79"/><line style="stroke:#181818;stroke-width:1;" x1="482" x2="482" y1="284.79" y2="589.43"/><text fill="#000000" font-family="sans-serif" font-size="14" font-weight="bold" lengthAdjust="spacing" textLength="79.5361" x="242.2319" y="300.7851">fieldx-app</text><text fill="#000000" font-family="sans-serif" font-size="14" font-weight="bold" lengthAdjust="spacing" textLength="153.5352" x="205.2324" y="317.082">(Node 20 + Fastify)</text></g><!--cluster INT--><g class="cluster" data-qualified-name="HOST.INT" data-source-line="19" id="ent0011"><rect fill="#FFF3E0" height="112.59" rx="2.5" ry="2.5" style="stroke:#181818;stroke-width:1;" width="250" x="548" y="479.99"/><text fill="#000000" font-family="sans-serif" font-size="14" font-weight="bold" lengthAdjust="spacing" textLength="152.8857" x="596.5571" y="494.9851">Red: fieldx-internal</text></g><!--cluster VOLS--><g class="cluster" data-qualified-name="HOST.VOLS" data-source-line="23" id="ent0013"><path d="M574.5,670.43 L662.5967,670.43 A3.75,3.75 0 0 1 665.0967,672.93 L672.0967,692.7269 L771.5,692.7269 A2.5,2.5 0 0 1 774,695.2269 L774,758.23 A2.5,2.5 0 0 1 771.5,760.73 L574.5,760.73 A2.5,2.5 0 0 1 572,758.23 L572,672.93 A2.5,2.5 0 0 1 574.5,670.43" fill="#ECEFF1" style="stroke:#000000;stroke-width:1.5;"/><line style="stroke:#000000;stroke-width:1.5;" x1="572" x2="672.0967" y1="692.7269" y2="692.7269"/><text fill="#000000" font-family="sans-serif" font-size="14" font-weight="bold" lengthAdjust="spacing" textLength="87.0967" x="576" y="685.4251">Vol&#250;menes</text></g><!--entity dist/server.js--><g class="entity" data-qualified-name="HOST.EDGE.APP.dist.server.js" data-source-line="13" id="ent0008"><rect fill="#F1F1F1" height="39.2969" rx="2.5" ry="2.5" style="stroke:#181818;stroke-width:0.5;" width="120.2275" x="103.89" y="346.94"/><polygon fill="#F1F1F1" points="207.1175,351.94,207.1175,365.94,219.1175,365.94,219.1175,357.94,213.1175,351.94,207.1175,351.94" style="stroke:#181818;stroke-width:0.5;"/><line style="stroke:#181818;stroke-width:0.5;" x1="213.1175" x2="213.1175" y1="351.94" y2="357.94"/><line style="stroke:#181818;stroke-width:0.5;" x1="219.1175" x2="213.1175" y1="357.94" y2="357.94"/><text fill="#000000" font-family="sans-serif" font-size="14" lengthAdjust="spacing" textLength="90.2275" x="113.89" y="372.9351">dist/server.js</text></g><!--entity public/\n(SPA Vite)--><g class="entity" data-qualified-name="HOST.EDGE.APP.public..n.SPA Vite." data-source-line="14" id="ent0009"><rect fill="#F1F1F1" height="55.5938" rx="2.5" ry="2.5" style="stroke:#181818;stroke-width:0.5;" width="99.8496" x="304.08" y="338.79"/><polygon fill="#F1F1F1" points="386.9296,343.79,386.9296,357.79,398.9296,357.79,398.9296,349.79,392.9296,343.79,386.9296,343.79" style="stroke:#181818;stroke-width:0.5;"/><line style="stroke:#181818;stroke-width:0.5;" x1="392.9296" x2="392.9296" y1="343.79" y2="349.79"/><line style="stroke:#181818;stroke-width:0.5;" x1="398.9296" x2="392.9296" y1="349.79" y2="349.79"/><text fill="#000000" font-family="sans-serif" font-size="14" lengthAdjust="spacing" textLength="46.8398" x="314.08" y="364.7851">public/</text><text fill="#000000" font-family="sans-serif" font-size="14" lengthAdjust="spacing" textLength="69.8496" x="314.08" y="381.082">(SPA Vite)</text></g><!--entity dist/persistence/migrations/--><g class="entity" data-qualified-name="HOST.EDGE.APP.dist.persistence.migrations." data-source-line="15" id="ent0010"><rect fill="#F1F1F1" height="39.2969" rx="2.5" ry="2.5" style="stroke:#181818;stroke-width:0.5;" width="225.5898" x="104.21" y="526.14"/><polygon fill="#F1F1F1" points="312.7998,531.14,312.7998,545.14,324.7998,545.14,324.7998,537.14,318.7998,531.14,312.7998,531.14" style="stroke:#181818;stroke-width:0.5;"/><line style="stroke:#181818;stroke-width:0.5;" x1="318.7998" x2="318.7998" y1="531.14" y2="537.14"/><line style="stroke:#181818;stroke-width:0.5;" x1="324.7998" x2="318.7998" y1="537.14" y2="537.14"/><text fill="#000000" font-family="sans-serif" font-size="14" lengthAdjust="spacing" textLength="195.5898" x="114.21" y="552.1351">dist/persistence/migrations/</text></g><!--entity PG--><g class="entity" data-qualified-name="HOST.INT.PG" data-source-line="20" id="ent0012"><path d="M564.49,524.99 C564.49,514.99 673.0027,514.99 673.0027,514.99 C673.0027,514.99 781.5154,514.99 781.5154,524.99 L781.5154,566.5838 C781.5154,576.5838 673.0027,576.5838 673.0027,576.5838 C673.0027,576.5838 564.49,576.5838 564.49,566.5838 L564.49,524.99" fill="#F1F1F1" style="stroke:#181818;stroke-width:0.5;"/><path d="M564.49,524.99 C564.49,534.99 673.0027,534.99 673.0027,534.99 C673.0027,534.99 781.5154,534.99 781.5154,524.99" fill="none" style="stroke:#181818;stroke-width:0.5;"/><text fill="#000000" font-family="sans-serif" font-size="14" lengthAdjust="spacing" textLength="104.3301" x="574.49" y="551.9851">fieldx-postgres</text><text fill="#000000" font-family="sans-serif" font-size="14" lengthAdjust="spacing" textLength="197.0254" x="574.49" y="568.282">(PostgreSQL 16 + pgcrypto)</text></g><!--entity VPG--><g class="entity" data-qualified-name="HOST.VOLS.VPG" data-source-line="24" id="ent0014"><rect fill="#F1F1F1" height="39.2969" rx="2.5" ry="2.5" style="stroke:#181818;stroke-width:0.5;" width="170.916" x="587.54" y="705.43"/><polygon fill="#F1F1F1" points="741.456,710.43,741.456,724.43,753.456,724.43,753.456,716.43,747.456,710.43,741.456,710.43" style="stroke:#181818;stroke-width:0.5;"/><line style="stroke:#181818;stroke-width:0.5;" x1="747.456" x2="747.456" y1="710.43" y2="716.43"/><line style="stroke:#181818;stroke-width:0.5;" x1="753.456" x2="747.456" y1="716.43" y2="716.43"/><text fill="#000000" font-family="sans-serif" font-size="14" lengthAdjust="spacing" textLength="140.916" x="597.54" y="731.4251">fieldx-postgres-data</text></g><!--entity U--><g class="entity" data-qualified-name="U" data-source-line="5" id="ent0002"><ellipse cx="484.0021" cy="14" fill="#F1F1F1" rx="8" ry="8" style="stroke:#181818;stroke-width:0.5;"/><path d="M484.0021,22 L484.0021,49 M471.0021,30 L497.0021,30 M484.0021,49 L471.0021,64 M484.0021,49 L497.0021,64" fill="none" style="stroke:#181818;stroke-width:0.5;"/><text fill="#000000" font-family="sans-serif" font-size="14" lengthAdjust="spacing" textLength="53.2041" x="457.4" y="78.4951">Usuario</text></g><!--entity HL--><g class="entity" data-qualified-name="HL" data-source-line="6" id="ent0003"><path d="M870.4249,524.576 C873.0808,517.7033 879.2641,518.1809 883.177,523.2317 C885.7689,516.8984 891.7706,517.7327 895.1725,522.344 C898.46,516.1799 902.7489,516.1512 906.6568,521.7375 C910.1994,517.8109 914.8777,517.7342 916.9348,523.3392 C918.9083,516.7507 924.005,515.5191 928.3749,521.0833 C932.4969,515.9419 936.6798,515.7712 940.1127,521.807 C944.6103,514.9779 948.7788,515.5313 952.8501,522.2091 C956.3358,517.5728 959.8812,516.6298 963.2944,522.2826 C967.0564,516.9267 972.7998,517.1585 976.3016,522.5961 C979.5342,516.7897 985.0242,516.6818 987.8201,523.0105 C994.5343,525.7709 995.7322,530.0651 990.1855,535.204 C997.7543,537.8404 997.1514,543.0812 992.3779,547.8563 C996.8914,551.5618 995.7555,556.3216 990.1621,557.7677 C995.0881,563.761 993.7276,567.6284 986.1949,569.3569 C983.7228,574.1008 979.5111,574.6042 976.1427,570.3591 C973.3522,576.2176 967.8734,576.8114 964.216,571.2657 C961.2058,576.762 956.7081,578.2672 952.376,572.6776 C948.3304,578.351 944.5346,578.4052 940.5926,572.5715 C937.3444,577.2423 933.127,576.6053 930.1808,572.2242 C927.4486,577.7766 921.605,577.6037 918.3948,572.7665 C915.0655,578.2681 909.0688,578.8265 906.2506,572.2525 C902.3092,577.6929 896.6898,578.0822 893.8168,571.1765 C890.8211,575.7323 885.8442,574.5726 883.6985,570.212 C879.5085,577.0357 875.2951,576.4546 871.1025,570.2145 C865.7134,567.7046 864.2945,563.6906 869.0847,559.2991 C862.8235,555.8967 863.3289,551.5892 868.3396,547.4764 C863.5479,541.8457 862.889,537.3726 870.9163,534.2367 C865.8661,531.4195 866.0717,527.8715 870.4249,524.576" fill="#F1F1F1" style="stroke:#181818;stroke-width:0.5;"/><text fill="#000000" font-family="sans-serif" font-size="14" lengthAdjust="spacing" textLength="101.541" x="877.23" y="542.4851">Hyperliquid L1</text><text fill="#000000" font-family="sans-serif" font-size="14" lengthAdjust="spacing" textLength="90.2959" x="877.23" y="558.782">(WS + REST)</text></g><!--entity SW--><g class="entity" data-qualified-name="SW" data-source-line="7" id="ent0004"><path d="M1083.8709,523.3388 C1087.5913,517.8355 1091.0153,518.3679 1094.7087,523.3666 C1098.0989,517.2278 1103.0014,517.1264 1106.4992,523.2633 C1109.0701,517.7195 1114.5362,517.1553 1117.4879,522.8922 C1120.8758,517.3382 1126.6441,517.0417 1129.3175,523.5905 C1132.2913,517.6994 1137.9323,518.3552 1141.3064,523.141 C1144.9939,517.4823 1148.5846,518.0317 1152.8566,522.4726 C1156.9231,517.6191 1160.9033,516.5421 1164.3825,523.0674 C1167.3721,517.7297 1171.7135,516.9081 1175.327,522.4391 C1179.4523,516.9836 1183.308,517.3416 1186.9634,522.934 C1191.555,517.7374 1196.778,516.1456 1200.4787,523.8661 C1203.3346,518.3463 1208.7469,518.0447 1212.1402,523.2837 C1215.4949,519.2995 1219.4607,519.8614 1222.0419,524.2035 C1226.5713,526.9226 1227.1534,530.8219 1223.2477,534.5263 C1229.0953,538.0931 1229.9272,543.233 1223.3207,546.8734 C1228.512,549.5771 1230.2133,555.5535 1224.1777,559.0474 C1228.3995,563.0675 1227.5958,567.0154 1222.6684,569.7445 C1219.7054,575.4177 1215.2493,575.7129 1211.0033,571.2159 C1208.42,578.0721 1204.5526,577.6941 1199.8323,573.3466 C1195.5224,578.6145 1190.3572,579.6568 1186.9894,572.382 C1185.0512,577.8709 1179.4644,579.5576 1175.2755,575.0084 C1172.0134,580.6012 1168.6614,581.6246 1164.0938,576.3518 C1160.9225,582.0427 1157.3046,582.9225 1153.183,577.2656 C1150.1088,581.8395 1144.9241,581.1314 1142.3989,576.6143 C1137.7169,581.53 1132.8113,579.8765 1130.4431,574.0413 C1125.9701,580.3834 1120.6732,578.9111 1117.3126,572.8625 C1113.9251,578.1025 1110.2813,577.1166 1107.0163,572.7315 C1102.9118,577.5386 1098.5823,577.4381 1094.8499,572.2773 C1089.3998,577.405 1085.5227,575.8701 1083.1137,569.2415 C1078.4581,566.5476 1077.6958,563.1731 1081.5127,559.1369 C1075.2429,557.0949 1072.4523,551.6146 1078.3602,546.5279 C1074.0387,542.7739 1073.7848,537.406 1079.8184,534.957 C1075.9333,529.4348 1076.4423,524.9148 1083.8709,523.3388" fill="#F1F1F1" style="stroke:#181818;stroke-width:0.5;"/><text fill="#000000" font-family="sans-serif" font-size="14" lengthAdjust="spacing" textLength="125.4873" x="1089.26" y="542.4851">Servicio Webhook</text><text fill="#000000" font-family="sans-serif" font-size="14" lengthAdjust="spacing" textLength="55.8838" x="1089.26" y="558.782">(HTTPS)</text></g><g class="entity" data-qualified-name="GMN20" data-source-line="36" id="ent0021"><path d="M910.23,316.19 L910.23,416.9869 L1119.7617,416.9869 L1119.7617,326.19 L1109.7617,316.19 L910.23,316.19" fill="#FEFFDD" style="stroke:#181818;stroke-width:0.5;"/><path d="M1109.7617,316.19 L1109.7617,326.19 L1119.7617,326.19 L1109.7617,316.19" fill="#FEFFDD" style="stroke:#181818;stroke-width:1;"/><text fill="#000000" font-family="sans-serif" font-size="13" lengthAdjust="spacing" textLength="179.6641" x="916.23" y="333.2569">&#218;nico proceso del backend.</text><text fill="#000000" font-family="sans-serif" font-size="13" lengthAdjust="spacing" textLength="105.2314" x="916.23" y="348.3897">Sirve el SPA con</text><text fill="#000000" font-family="sans-serif" font-size="13" lengthAdjust="spacing" textLength="188.5317" x="916.23" y="363.5225">@fastify/static desde /public.</text><text fill="#000000" font-family="sans-serif" font-size="13" lengthAdjust="spacing" textLength="158.7422" x="916.23" y="378.6553">Composition root cablea</text><text fill="#000000" font-family="sans-serif" font-size="13" lengthAdjust="spacing" textLength="158.8184" x="916.23" y="393.7881">servicios, adaptadores y</text><text fill="#000000" font-family="sans-serif" font-size="13" lengthAdjust="spacing" textLength="55.707" x="916.23" y="408.921">workers.</text></g><g class="entity" data-qualified-name="GMN23" data-source-line="45" id="ent0024"><path d="M861.93,689.82 L861.93,760.3513 A0,0 0 0 0 861.93,760.3513 L1098.0711,760.3513 A0,0 0 0 0 1098.0711,760.3513 L1098.0711,699.82 L1088.0711,689.82 L923.9,689.82 L725.43,577.06 L915.9,689.82 L861.93,689.82 A0,0 0 0 0 861.93,689.82" fill="#FEFFDD" style="stroke:#181818;stroke-width:0.5;"/><path d="M1088.0711,689.82 L1088.0711,699.82 L1098.0711,699.82 L1088.0711,689.82" fill="#FEFFDD" style="stroke:#181818;stroke-width:0.5;"/><text fill="#000000" font-family="sans-serif" font-size="13" lengthAdjust="spacing" textLength="201.6841" x="867.93" y="706.8869">Tablas: entidades, direcciones,</text><text fill="#000000" font-family="sans-serif" font-size="13" lengthAdjust="spacing" textLength="215.1411" x="867.93" y="722.0197">alertas, notificaciones, lb_trades.</text><text fill="#000000" font-family="sans-serif" font-size="13" lengthAdjust="spacing" textLength="182.9712" x="867.93" y="737.1525">Extensi&#243;n pgcrypto cargada</text><text fill="#000000" font-family="sans-serif" font-size="13" lengthAdjust="spacing" textLength="152.2485" x="867.93" y="752.2853">por la migraci&#243;n inicial.</text></g><g class="entity" data-qualified-name="GMN26" data-source-line="52" id="ent0027"><path d="M1309.59,495.39 L1309.59,596.1869 L1538.4059,596.1869 L1538.4059,505.39 L1528.4059,495.39 L1309.59,495.39" fill="#FEFFDD" style="stroke:#181818;stroke-width:0.5;"/><path d="M1528.4059,495.39 L1528.4059,505.39 L1538.4059,505.39 L1528.4059,495.39" fill="#FEFFDD" style="stroke:#181818;stroke-width:1;"/><text fill="#000000" font-family="sans-serif" font-size="13" lengthAdjust="spacing" textLength="155.1685" x="1315.59" y="512.4569">restart: unless-stopped.</text><text fill="#000000" font-family="sans-serif" font-size="13" lengthAdjust="spacing" textLength="171.8501" x="1315.59" y="527.5897">Healthchecks por servicio:</text><text fill="#000000" font-family="sans-serif" font-size="13" lengthAdjust="spacing" textLength="144.4219" x="1319.7223" y="542.7225">- postgres: pg_isready</text><text fill="#000000" font-family="sans-serif" font-size="13" lengthAdjust="spacing" textLength="117.6982" x="1319.7223" y="557.8553">- app: GET /health</text><text fill="#000000" font-family="sans-serif" font-size="13" lengthAdjust="spacing" textLength="207.8159" x="1315.59" y="572.9881">Arranque ordenado: app espera</text><text fill="#000000" font-family="sans-serif" font-size="13" lengthAdjust="spacing" textLength="125.6519" x="1315.59" y="588.121">a postgres healthy.</text></g><!--link U to APP--><g class="link" data-entity-1="ent0002" data-entity-2="ent0007" data-link-type="dependency" data-source-line="28" id="lnk15"><path d="M484,82.09 C484,123.76 484,193.0875 484,252.7525 C484,260.2106 484,261.5178 484,268.6011" fill="none" id="U-to-APP" style="stroke:#181818;stroke-width:1;"/><polygon fill="#181818" points="484,274.6011,488,265.6011,484,269.6011,480,265.6011,484,274.6011" style="stroke:#181818;stroke-width:1;"/><text fill="#000000" font-family="sans-serif" font-size="13" lengthAdjust="spacing" textLength="75.0928" x="511.4475" y="124.8569">HTTP :3001</text><text fill="#000000" font-family="sans-serif" font-size="13" lengthAdjust="spacing" textLength="127.9878" x="485" y="139.9897">(REST + WS + SPA)</text></g><!--link APP to PG--><g class="link" data-entity-1="ent0007" data-entity-2="ent0012" data-link-type="dependency" data-source-line="29" id="lnk16"><path d="M492.0474,423.6203 C492.1554,423.788 492.2637,423.9555 492.3723,424.1228 C492.5895,424.4575 492.8079,424.7914 493.0276,425.1246 C494.7851,427.7902 496.6218,430.4099 498.5307,432.9839 C502.3484,438.1319 506.4546,443.0969 510.7923,447.88 C519.4678,457.4462 529.0694,466.285 539.1412,474.405 C559.285,490.645 575.9894,501.2368 596.2494,511.7968" fill="none" id="APP-to-PG" style="stroke:#181818;stroke-width:1;"/><polygon fill="#181818" points="601.57,514.57,595.4379,506.863,597.1361,512.259,591.7402,513.9572,601.57,514.57" style="stroke:#181818;stroke-width:1;"/><text fill="#000000" font-family="sans-serif" font-size="13" lengthAdjust="spacing" textLength="62.0737" x="527" y="460.0569">TCP 5432</text></g><!--link APP to HL--><g class="link" data-entity-1="ent0007" data-entity-2="ent0003" data-link-type="dependency" data-source-line="30" id="lnk17"><path d="M492.4462,420.3786 C492.6188,420.4794 492.7948,420.5801 492.974,420.6806 C493.691,421.0825 494.461,421.4818 495.2822,421.8784 C498.5671,423.4649 502.6711,425.0092 507.4801,426.5134 C517.098,429.5218 529.5354,432.3698 543.877,435.0745 C572.5603,440.4841 608.8606,445.3206 645.4563,449.7213 C718.6475,458.5225 793.02,465.58 810,471.99 C837.36,482.32 860.3768,495.8539 882.2168,510.7839" fill="none" id="APP-to-HL" style="stroke:#181818;stroke-width:1;"/><polygon fill="#181818" points="887.17,514.17,881.9975,505.7887,883.0423,511.3483,877.4828,512.3931,887.17,514.17" style="stroke:#181818;stroke-width:1;"/><text fill="#000000" font-family="sans-serif" font-size="13" lengthAdjust="spacing" textLength="143.4063" x="766" y="460.0569">WS + REST  (saliente)</text></g><!--link APP to SW--><g class="link" data-entity-1="ent0007" data-entity-2="ent0004" data-link-type="dependency" data-source-line="31" id="lnk18"><path d="M492.2119,420.0973 C493.9186,421.0889 495.9218,422.0371 498.202,422.9437 C502.7625,424.7569 508.4313,426.4042 515.0538,427.9017 C528.2989,430.8968 545.359,433.2926 564.998,435.2183 C604.2759,439.0697 653.8694,441.0406 703.8888,442.1638 C803.9275,444.41 905.67,443.265 930,446.99 C976.99,454.18 990.11,453.72 1034,471.99 C1060.45,482.99 1082.8116,496.166 1104.5216,510.676" fill="none" id="APP-to-SW" style="stroke:#181818;stroke-width:1;"/><polygon fill="#181818" points="1109.51,514.01,1104.2501,505.6833,1105.353,511.2316,1099.8047,512.3346,1109.51,514.01" style="stroke:#181818;stroke-width:1;"/><text fill="#000000" font-family="sans-serif" font-size="13" lengthAdjust="spacing" textLength="145.7168" x="1013" y="460.0569">HTTPS POST (saliente)</text></g><!--link PG to VPG--><g class="link" data-entity-1="ent0012" data-entity-2="ent0014" data-link-type="dependency" data-source-line="33" id="lnk19"><path d="M673,576.86 C673,613.61 673,668.68 673,699.32" fill="none" id="PG-to-VPG" style="stroke:#181818;stroke-width:1;stroke-dasharray:7,7;"/><polygon fill="#181818" points="673,705.32,677,696.32,673,700.32,669,696.32,673,705.32" style="stroke:#181818;stroke-width:1;"/><text fill="#000000" font-family="sans-serif" font-size="13" lengthAdjust="spacing" textLength="120.1294" x="674" y="650.4969">datos persistentes</text></g><!--link APP to GMN20--><g class="link" data-entity-1="ent0007" data-entity-2="ent0021" data-link-type="association" data-source-line="36" id="lnk22"><path d="M467.5218,274.4466 C467.4515,273.6 467.3835,272.7511 467.3179,271.9001 C466.7934,265.0923 466.4247,258.1491 466.2625,251.155 C464.965,195.2025 476.885,135.995 528,116.79 C648.65,71.46 697.35,71.46 818,116.79 C907.57,150.45 966.13,252.96 994.63,315.71" fill="none" id="APP-GMN20" style="stroke:#181818;stroke-width:1;stroke-dasharray:7,7;"/></g><!--link HOST to GMN26--><g class="link" data-entity-1="ent0005" data-entity-2="ent0027" data-link-type="association" data-source-line="52" id="lnk28"><path d="M838.1201,383.398 C838.1659,383.4751 838.2119,383.5524 838.2581,383.6298 C838.443,383.9394 838.6307,384.2513 838.8214,384.5653 C839.5841,385.8213 840.3936,387.1111 841.2488,388.4213 C848.09,398.9025 857.855,410.69 870,416.99 C958.77,463.03 1227.22,407.28 1319,446.99 C1343.58,457.62 1366.03,476.57 1383.81,494.97" fill="none" id="HOST-GMN26" style="stroke:#181818;stroke-width:1;stroke-dasharray:7,7;"/></g><?plantuml-src VLHDJnin4BtlhnYb5r391z2YQWzL4IIaKaItR81BfMfYJn8tZhrud49KzO_qR_JMAt-iuzqGeafb3ybgvitCc-VdvOLn5GPS0izH-tlZPZ15ovJnDkEy9gOAtlLsWW7T8WLFUbc6Ale0hMjUOJ2-1SXmdIdhLnfQmtL5mPgxbT4mElpYzcvBU0rN_NAyNmE7eoTaIU6xKSR3BKtctYy4EnoFYxB1bRTPbeX8HyyHphrQK6WwV2h7y2FBG9v0AgARMO5TaSvXQiZgXpRf6TNO_lb57rxrZmT7WtEfWStJDDw0iQfaz6KA7VM4wm0vckcweN5Q53jrwS4WML40MjfmxB9iGQ7pZLl_GLMhYJMgAoFAuXHkJAJzraiDHJwMVtAAkaip2nYDTznzhlcPDRyl2M1SfE3GrZjyl1p3gy5WSDplxUoYCU84-Lc7IdIU1M9XMZIlvUSH79w89DLCXNKLVQD9SR7BOEgj9d73ZRUFVvRaY6lGpQTHASgVzGU3mvsfpyl-CxMT-3ILs_uouHgWtNvV7qCEoHwG7_TwoLV9KaAjjfSekvybJC8M5m8TdnNmzitnqJOw74bqwqM0FKPhI6HwBYnlDpDAA9B7TY2PDErqtYTkWX6gdc5xK94uUJKI13ERH_3Jn5TsUFpbZF9G1Q-8FMYoC47niTCToPP6d0CIIxvGtademxJnNfUZ7BkI2XPNTXiBfPeplnJ1JB841EyZA9nOGidmvZRn0Q36Aihb5bLXBQbx7-JkS2UJmP1uRjXEV8n-cUZMYe-b5N8Eif3HAACFG1lnbpILGpqG15eA4IKkvMPg56vIO2TVOqWbYMF_GJHXy_ZRRNqZDCDCQ4csaY-7HQYThMgG4P4CsXVefHkV9Q-BB27ci7AMcDiSVLLHhUMGqCQvcfDQS3tYIOuyMQaDJoxBXT9Nmu5GhvkCtFuSBlfZwCxh7X8z3VAnkriH-A39YP1vGW6nd7XQ0RVjeAbPxt3_2m00?></g></svg>