<?plantuml 1.2026.1?><svg xmlns="http://www.w3.org/2000/svg" xmlns:xlink="http://www.w3.org/1999/xlink" contentStyleType="text/css" data-diagram-type="DESCRIPTION" height="919px" preserveAspectRatio="none" style="width:2630px;height:919px;background:#FFFFFF;" version="1.1" viewBox="0 0 2630 919" width="2630px" zoomAndPan="magnify"><defs/><g><!--cluster APP--><g class="cluster" data-qualified-name="APP" data-source-line="5" id="ent0002"><rect fill="none" height="753.23" rx="2.5" ry="2.5" style="stroke:#181818;stroke-width:1;" width="1817" x="578" y="160.29"/><text fill="#000000" font-family="sans-serif" font-size="14" font-weight="bold" lengthAdjust="spacing" textLength="86.7891" x="1443.1055" y="175.2851">src/app/src</text></g><!--cluster DOM--><g class="cluster" data-qualified-name="APP.DOM" data-source-line="10" id="ent0006"><rect fill="#F3E5F5" height="269.74" rx="2.5" ry="2.5" style="stroke:#181818;stroke-width:1;" width="283" x="2072" y="485.48"/><text fill="#000000" font-family="sans-serif" font-size="14" font-weight="bold" lengthAdjust="spacing" textLength="58.4404" x="2184.2798" y="500.4751">domain</text></g><!--cluster SRC--><g class="cluster" data-qualified-name="APP.SRC" data-source-line="16" id="ent0010"><rect fill="#FFF3E0" height="269.74" rx="2.5" ry="2.5" style="stroke:#181818;stroke-width:1;" width="457" x="626" y="485.48"/><text fill="#000000" font-family="sans-serif" font-size="14" font-weight="bold" lengthAdjust="spacing" textLength="60.9492" x="824.0254" y="500.4751">sources</text></g><!--cluster MODS--><g class="cluster" data-qualified-name="APP.MODS" data-source-line="23" id="ent0015"><rect fill="#E8F5E9" height="268.04" rx="2.5" ry="2.5" style="stroke:#181818;stroke-width:1;" width="744" x="1170" y="331.89"/><text fill="#000000" font-family="sans-serif" font-size="14" font-weight="bold" lengthAdjust="spacing" textLength="66.8213" x="1508.5894" y="346.8851">modules</text></g><!--cluster PERS--><g class="cluster" data-qualified-name="APP.PERS" data-source-line="33" id="ent0023"><rect fill="#FFF3E0" height="224.59" rx="2.5" ry="2.5" style="stroke:#181818;stroke-width:1;" width="357" x="1291" y="648.93"/><text fill="#000000" font-family="sans-serif" font-size="14" font-weight="bold" lengthAdjust="spacing" textLength="91.834" x="1423.583" y="663.9251">persistence</text></g><!--cluster SH--><g class="cluster" data-qualified-name="APP.SH" data-source-line="39" id="ent0027"><rect fill="#ECEFF1" height="224.59" rx="2.5" ry="2.5" style="stroke:#181818;stroke-width:1;" width="344" x="1688" y="648.93"/><text fill="#000000" font-family="sans-serif" font-size="14" font-weight="bold" lengthAdjust="spacing" textLength="54.168" x="1832.916" y="663.9251">shared</text></g><!--cluster WEB--><g class="cluster" data-qualified-name="WEB" data-source-line="46" id="ent0031"><rect fill="none" height="275.89" rx="2.5" ry="2.5" style="stroke:#181818;stroke-width:1;" width="531" x="7" y="7"/><text fill="#000000" font-family="sans-serif" font-size="14" font-weight="bold" lengthAdjust="spacing" textLength="89.749" x="227.6255" y="21.9951">src/web/src</text></g><!--entity ROOT--><g class="entity" data-qualified-name="APP.ROOT" data-source-line="6" id="ent0003"><path d="M1064.84,203.29 L1121.9728,203.29 A3.75,3.75 0 0 1 1124.4728,205.79 L1131.4728,225.5869 L1225.1505,225.5869 A2.5,2.5 0 0 1 1227.6505,228.0869 L1227.6505,272.6806 A2.5,2.5 0 0 1 1225.1505,275.1806 L1064.84,275.1806 A2.5,2.5 0 0 1 1062.34,272.6806 L1062.34,205.79 A2.5,2.5 0 0 1 1064.84,203.29" fill="#ECEFF1" style="stroke:#181818;stroke-width:0.5;"/><line style="stroke:#181818;stroke-width:0.5;" x1="1062.34" x2="1131.4728" y1="225.5869" y2="225.5869"/><text fill="#000000" font-family="sans-serif" font-size="14" font-weight="bold" lengthAdjust="spacing" textLength="44.1328" x="1072.34" y="219.2851">ROOT</text><text fill="#000000" font-family="sans-serif" font-size="14" lengthAdjust="spacing" textLength="61.5508" x="1109.2199" y="245.582">server.ts</text><text fill="#000000" font-family="sans-serif" font-size="14" lengthAdjust="spacing" textLength="135.3105" x="1072.34" y="261.8789">&#171;composition root&#187;</text></g><!--entity BUS--><g class="entity" data-qualified-name="APP.BUS" data-source-line="7" id="ent0004"><path d="M1109.17,683.78 L1154.2921,683.78 A3.75,3.75 0 0 1 1156.7921,686.28 L1163.7921,706.0769 L1260.8263,706.0769 A2.5,2.5 0 0 1 1263.3263,708.5769 L1263.3263,736.8738 A2.5,2.5 0 0 1 1260.8263,739.3738 L1109.17,739.3738 A2.5,2.5 0 0 1 1106.67,736.8738 L1106.67,686.28 A2.5,2.5 0 0 1 1109.17,683.78" fill="#ECEFF1" style="stroke:#181818;stroke-width:0.5;"/><line style="stroke:#181818;stroke-width:0.5;" x1="1106.67" x2="1163.7921" y1="706.0769" y2="706.0769"/><text fill="#000000" font-family="sans-serif" font-size="14" font-weight="bold" lengthAdjust="spacing" textLength="32.1221" x="1116.67" y="699.7751">BUS</text><text fill="#000000" font-family="sans-serif" font-size="14" lengthAdjust="spacing" textLength="126.6563" x="1116.67" y="726.072">bus.ts (TypedBus)</text></g><!--entity CFG--><g class="entity" data-qualified-name="APP.CFG" data-source-line="8" id="ent0005"><path d="M781.46,211.44 L825.7891,211.44 A3.75,3.75 0 0 1 828.2891,213.94 L835.2891,233.7369 L866.5342,233.7369 A2.5,2.5 0 0 1 869.0342,236.2369 L869.0342,264.5337 A2.5,2.5 0 0 1 866.5342,267.0337 L781.46,267.0337 A2.5,2.5 0 0 1 778.96,264.5337 L778.96,213.94 A2.5,2.5 0 0 1 781.46,211.44" fill="#ECEFF1" style="stroke:#181818;stroke-width:0.5;"/><line style="stroke:#181818;stroke-width:0.5;" x1="778.96" x2="835.2891" y1="233.7369" y2="233.7369"/><text fill="#000000" font-family="sans-serif" font-size="14" font-weight="bold" lengthAdjust="spacing" textLength="31.3291" x="788.96" y="227.4351">CFG</text><text fill="#000000" font-family="sans-serif" font-size="14" lengthAdjust="spacing" textLength="60.0742" x="788.96" y="253.732">config.ts</text></g><!--entity types--><g class="entity" data-qualified-name="APP.DOM.types" data-source-line="11" id="ent0007"><path d="M2117.67,528.48 L2174.338,528.48 A3.75,3.75 0 0 1 2176.838,530.98 L2183.838,550.7769 L2198.338,550.7769 A2.5,2.5 0 0 1 2200.838,553.2769 L2200.838,565.2769 A2.5,2.5 0 0 1 2198.338,567.7769 L2117.67,567.7769 A2.5,2.5 0 0 1 2115.17,565.2769 L2115.17,530.98 A2.5,2.5 0 0 1 2117.67,528.48" fill="#F1F1F1" style="stroke:#181818;stroke-width:0.5;"/><line style="stroke:#181818;stroke-width:0.5;" x1="2115.17" x2="2183.838" y1="550.7769" y2="550.7769"/><text fill="#000000" font-family="sans-serif" font-size="14" font-weight="bold" lengthAdjust="spacing" textLength="43.668" x="2125.17" y="544.4751">types</text></g><!--entity events--><g class="entity" data-qualified-name="APP.DOM.events" data-source-line="12" id="ent0008"><path d="M2237.95,528.48 L2304.0584,528.48 A3.75,3.75 0 0 1 2306.5584,530.98 L2313.5584,550.7769 L2328.0584,550.7769 A2.5,2.5 0 0 1 2330.5584,553.2769 L2330.5584,565.2769 A2.5,2.5 0 0 1 2328.0584,567.7769 L2237.95,567.7769 A2.5,2.5 0 0 1 2235.45,565.2769 L2235.45,530.98 A2.5,2.5 0 0 1 2237.95,528.48" fill="#F1F1F1" style="stroke:#181818;stroke-width:0.5;"/><line style="stroke:#181818;stroke-width:0.5;" x1="2235.45" x2="2313.5584" y1="550.7769" y2="550.7769"/><text fill="#000000" font-family="sans-serif" font-size="14" font-weight="bold" lengthAdjust="spacing" textLength="53.1084" x="2245.45" y="544.4751">events</text></g><!--entity errors--><g class="entity" data-qualified-name="APP.DOM.errors" data-source-line="13" id="ent0009"><path d="M2117.42,691.93 L2178.5792,691.93 A3.75,3.75 0 0 1 2181.0792,694.43 L2188.0792,714.2269 L2202.5792,714.2269 A2.5,2.5 0 0 1 2205.0792,716.7269 L2205.0792,728.7269 A2.5,2.5 0 0 1 2202.5792,731.2269 L2117.42,731.2269 A2.5,2.5 0 0 1 2114.92,728.7269 L2114.92,694.43 A2.5,2.5 0 0 1 2117.42,691.93" fill="#F1F1F1" style="stroke:#181818;stroke-width:0.5;"/><line style="stroke:#181818;stroke-width:0.5;" x1="2114.92" x2="2188.0792" y1="714.2269" y2="714.2269"/><text fill="#000000" font-family="sans-serif" font-size="14" font-weight="bold" lengthAdjust="spacing" textLength="48.1592" x="2124.92" y="707.9251">errors</text></g><!--entity hyperliquid.port--><g class="entity" data-qualified-name="APP.SRC.hyperliquid.port" data-source-line="17" id="ent0011"><path d="M672.26,528.48 L813.7346,528.48 A3.75,3.75 0 0 1 816.2346,530.98 L823.2346,550.7769 L837.7346,550.7769 A2.5,2.5 0 0 1 840.2346,553.2769 L840.2346,565.2769 A2.5,2.5 0 0 1 837.7346,567.7769 L672.26,567.7769 A2.5,2.5 0 0 1 669.76,565.2769 L669.76,530.98 A2.5,2.5 0 0 1 672.26,528.48" fill="#F1F1F1" style="stroke:#181818;stroke-width:0.5;"/><line style="stroke:#181818;stroke-width:0.5;" x1="669.76" x2="823.2346" y1="550.7769" y2="550.7769"/><text fill="#000000" font-family="sans-serif" font-size="14" font-weight="bold" lengthAdjust="spacing" textLength="128.4746" x="679.76" y="544.4751">hyperliquid.port</text></g><!--entity public-ws.adapter--><g class="entity" data-qualified-name="APP.SRC.public-ws.adapter" data-source-line="18" id="ent0012"><path d="M877.33,528.48 L1032.6611,528.48 A3.75,3.75 0 0 1 1035.1611,530.98 L1042.1611,550.7769 L1056.6611,550.7769 A2.5,2.5 0 0 1 1059.1611,553.2769 L1059.1611,565.2769 A2.5,2.5 0 0 1 1056.6611,567.7769 L877.33,567.7769 A2.5,2.5 0 0 1 874.83,565.2769 L874.83,530.98 A2.5,2.5 0 0 1 877.33,528.48" fill="#F1F1F1" style="stroke:#181818;stroke-width:0.5;"/><line style="stroke:#181818;stroke-width:0.5;" x1="874.83" x2="1042.1611" y1="550.7769" y2="550.7769"/><text fill="#000000" font-family="sans-serif" font-size="14" font-weight="bold" lengthAdjust="spacing" textLength="142.3311" x="884.83" y="544.4751">public-ws.adapter</text></g><!--entity nanoreth-rpc.adapter--><g class="entity" data-qualified-name="APP.SRC.nanoreth-rpc.adapter" data-source-line="19" id="ent0013"><path d="M672.28,691.93 L855.7204,691.93 A3.75,3.75 0 0 1 858.2204,694.43 L865.2204,714.2269 L879.7204,714.2269 A2.5,2.5 0 0 1 882.2204,716.7269 L882.2204,728.7269 A2.5,2.5 0 0 1 879.7204,731.2269 L672.28,731.2269 A2.5,2.5 0 0 1 669.78,728.7269 L669.78,694.43 A2.5,2.5 0 0 1 672.28,691.93" fill="#F1F1F1" style="stroke:#181818;stroke-width:0.5;"/><line style="stroke:#181818;stroke-width:0.5;" x1="669.78" x2="865.2204" y1="714.2269" y2="714.2269"/><text fill="#000000" font-family="sans-serif" font-size="14" font-weight="bold" lengthAdjust="spacing" textLength="170.4404" x="679.78" y="707.9251">nanoreth-rpc.adapter</text></g><!--entity factory--><g class="entity" data-qualified-name="APP.SRC.factory" data-source-line="20" id="ent0014"><path d="M919.41,691.93 L988.5877,691.93 A3.75,3.75 0 0 1 991.0877,694.43 L998.0877,714.2269 L1012.5877,714.2269 A2.5,2.5 0 0 1 1015.0877,716.7269 L1015.0877,728.7269 A2.5,2.5 0 0 1 1012.5877,731.2269 L919.41,731.2269 A2.5,2.5 0 0 1 916.91,728.7269 L916.91,694.43 A2.5,2.5 0 0 1 919.41,691.93" fill="#F1F1F1" style="stroke:#181818;stroke-width:0.5;"/><line style="stroke:#181818;stroke-width:0.5;" x1="916.91" x2="998.0877" y1="714.2269" y2="714.2269"/><text fill="#000000" font-family="sans-serif" font-size="14" font-weight="bold" lengthAdjust="spacing" textLength="56.1777" x="926.91" y="707.9251">factory</text></g><!--entity LB--><g class="entity" data-qualified-name="APP.MODS.LB" data-source-line="24" id="ent0016"><path d="M1632.99,374.89 L1665.5818,374.89 A3.75,3.75 0 0 1 1668.0818,377.39 L1675.0818,397.1869 L1743.0017,397.1869 A2.5,2.5 0 0 1 1745.5017,399.6869 L1745.5017,427.9838 A2.5,2.5 0 0 1 1743.0017,430.4838 L1632.99,430.4838 A2.5,2.5 0 0 1 1630.49,427.9838 L1630.49,377.39 A2.5,2.5 0 0 1 1632.99,374.89" fill="#F1F1F1" style="stroke:#181818;stroke-width:0.5;"/><line style="stroke:#181818;stroke-width:0.5;" x1="1630.49" x2="1675.0818" y1="397.1869" y2="397.1869"/><text fill="#000000" font-family="sans-serif" font-size="14" font-weight="bold" lengthAdjust="spacing" textLength="19.5918" x="1640.49" y="390.8851">LB</text><text fill="#000000" font-family="sans-serif" font-size="14" lengthAdjust="spacing" textLength="85.0117" x="1640.49" y="417.182">leaderboard</text></g><!--entity CAT--><g class="entity" data-qualified-name="APP.MODS.CAT" data-source-line="25" id="ent0017"><path d="M1783.37,374.89 L1827.0292,374.89 A3.75,3.75 0 0 1 1829.5292,377.39 L1836.5292,397.1869 L1868.622,397.1869 A2.5,2.5 0 0 1 1871.122,399.6869 L1871.122,427.9838 A2.5,2.5 0 0 1 1868.622,430.4838 L1783.37,430.4838 A2.5,2.5 0 0 1 1780.87,427.9838 L1780.87,377.39 A2.5,2.5 0 0 1 1783.37,374.89" fill="#F1F1F1" style="stroke:#181818;stroke-width:0.5;"/><line style="stroke:#181818;stroke-width:0.5;" x1="1780.87" x2="1836.5292" y1="397.1869" y2="397.1869"/><text fill="#000000" font-family="sans-serif" font-size="14" font-weight="bold" lengthAdjust="spacing" textLength="30.6592" x="1790.87" y="390.8851">CAT</text><text fill="#000000" font-family="sans-serif" font-size="14" lengthAdjust="spacing" textLength="60.252" x="1790.87" y="417.182">catalogo</text></g><!--entity META--><g class="entity" data-qualified-name="APP.MODS.META" data-source-line="26" id="ent0018"><path d="M1568.56,520.33 L1625.4399,520.33 A3.75,3.75 0 0 1 1627.9399,522.83 L1634.9399,542.6269 L1649.4399,542.6269 A2.5,2.5 0 0 1 1651.9399,545.1269 L1651.9399,573.4237 A2.5,2.5 0 0 1 1649.4399,575.9237 L1568.56,575.9237 A2.5,2.5 0 0 1 1566.06,573.4237 L1566.06,522.83 A2.5,2.5 0 0 1 1568.56,520.33" fill="#F1F1F1" style="stroke:#181818;stroke-width:0.5;"/><line style="stroke:#181818;stroke-width:0.5;" x1="1566.06" x2="1634.9399" y1="542.6269" y2="542.6269"/><text fill="#000000" font-family="sans-serif" font-size="14" font-weight="bold" lengthAdjust="spacing" textLength="43.8799" x="1576.06" y="536.3251">META</text><text fill="#000000" font-family="sans-serif" font-size="14" lengthAdjust="spacing" textLength="36.3193" x="1576.06" y="562.622">meta</text></g><!--entity DD--><g class="entity" data-qualified-name="APP.MODS.DD" data-source-line="27" id="ent0019"><path d="M1451.06,374.89 L1487.3022,374.89 A3.75,3.75 0 0 1 1489.8022,377.39 L1496.8022,397.1869 L1592.9409,397.1869 A2.5,2.5 0 0 1 1595.4409,399.6869 L1595.4409,427.9838 A2.5,2.5 0 0 1 1592.9409,430.4838 L1451.06,430.4838 A2.5,2.5 0 0 1 1448.56,427.9838 L1448.56,377.39 A2.5,2.5 0 0 1 1451.06,374.89" fill="#F1F1F1" style="stroke:#181818;stroke-width:0.5;"/><line style="stroke:#181818;stroke-width:0.5;" x1="1448.56" x2="1496.8022" y1="397.1869" y2="397.1869"/><text fill="#000000" font-family="sans-serif" font-size="14" font-weight="bold" lengthAdjust="spacing" textLength="23.2422" x="1458.56" y="390.8851">DD</text><text fill="#000000" font-family="sans-serif" font-size="14" lengthAdjust="spacing" textLength="116.8809" x="1458.56" y="417.182">direccion-detalle</text></g><!--entity AL--><g class="entity" data-qualified-name="APP.MODS.AL" data-source-line="28" id="ent0020"><path d="M1337.4,374.89 L1370.1559,374.89 A3.75,3.75 0 0 1 1372.6559,377.39 L1379.6559,397.1869 L1410.6002,397.1869 A2.5,2.5 0 0 1 1413.1002,399.6869 L1413.1002,427.9838 A2.5,2.5 0 0 1 1410.6002,430.4838 L1337.4,430.4838 A2.5,2.5 0 0 1 1334.9,427.9838 L1334.9,377.39 A2.5,2.5 0 0 1 1337.4,374.89" fill="#F1F1F1" style="stroke:#181818;stroke-width:0.5;"/><line style="stroke:#181818;stroke-width:0.5;" x1="1334.9" x2="1379.6559" y1="397.1869" y2="397.1869"/><text fill="#000000" font-family="sans-serif" font-size="14" font-weight="bold" lengthAdjust="spacing" textLength="19.7559" x="1344.9" y="390.8851">AL</text><text fill="#000000" font-family="sans-serif" font-size="14" lengthAdjust="spacing" textLength="48.2002" x="1344.9" y="417.182">alertas</text></g><!--entity EV--><g class="entity" data-qualified-name="APP.MODS.EV" data-source-line="29" id="ent0021"><path d="M1196.58,374.89 L1229.9784,374.89 A3.75,3.75 0 0 1 1232.4784,377.39 L1239.4784,397.1869 L1297.4247,397.1869 A2.5,2.5 0 0 1 1299.9247,399.6869 L1299.9247,427.9838 A2.5,2.5 0 0 1 1297.4247,430.4838 L1196.58,430.4838 A2.5,2.5 0 0 1 1194.08,427.9838 L1194.08,377.39 A2.5,2.5 0 0 1 1196.58,374.89" fill="#F1F1F1" style="stroke:#181818;stroke-width:0.5;"/><line style="stroke:#181818;stroke-width:0.5;" x1="1194.08" x2="1239.4784" y1="397.1869" y2="397.1869"/><text fill="#000000" font-family="sans-serif" font-size="14" font-weight="bold" lengthAdjust="spacing" textLength="20.3984" x="1204.08" y="390.8851">EV</text><text fill="#000000" font-family="sans-serif" font-size="14" lengthAdjust="spacing" textLength="75.8447" x="1204.08" y="417.182">evaluacion</text></g><!--entity NOT--><g class="entity" data-qualified-name="APP.MODS.NOT" data-source-line="30" id="ent0022"><path d="M1347.03,520.33 L1393.198,520.33 A3.75,3.75 0 0 1 1395.698,522.83 L1402.698,542.6269 L1452.9675,542.6269 A2.5,2.5 0 0 1 1455.4675,545.1269 L1455.4675,573.4237 A2.5,2.5 0 0 1 1452.9675,575.9237 L1347.03,575.9237 A2.5,2.5 0 0 1 1344.53,573.4237 L1344.53,522.83 A2.5,2.5 0 0 1 1347.03,520.33" fill="#F1F1F1" style="stroke:#181818;stroke-width:0.5;"/><line style="stroke:#181818;stroke-width:0.5;" x1="1344.53" x2="1402.698" y1="542.6269" y2="542.6269"/><text fill="#000000" font-family="sans-serif" font-size="14" font-weight="bold" lengthAdjust="spacing" textLength="33.168" x="1354.53" y="536.3251">NOT</text><text fill="#000000" font-family="sans-serif" font-size="14" lengthAdjust="spacing" textLength="80.9375" x="1354.53" y="562.622">notificacion</text></g><!--entity schema/*--><g class="entity" data-qualified-name="APP.PERS.schema.." data-source-line="34" id="ent0024"><path d="M1337.22,691.93 L1422.7835,691.93 A3.75,3.75 0 0 1 1425.2835,694.43 L1432.2835,714.2269 L1446.7835,714.2269 A2.5,2.5 0 0 1 1449.2835,716.7269 L1449.2835,728.7269 A2.5,2.5 0 0 1 1446.7835,731.2269 L1337.22,731.2269 A2.5,2.5 0 0 1 1334.72,728.7269 L1334.72,694.43 A2.5,2.5 0 0 1 1337.22,691.93" fill="#F1F1F1" style="stroke:#181818;stroke-width:0.5;"/><line style="stroke:#181818;stroke-width:0.5;" x1="1334.72" x2="1432.2835" y1="714.2269" y2="714.2269"/><text fill="#000000" font-family="sans-serif" font-size="14" font-weight="bold" lengthAdjust="spacing" textLength="72.5635" x="1344.72" y="707.9251">schema/*</text></g><!--entity migrations/*--><g class="entity" data-qualified-name="APP.PERS.migrations.." data-source-line="35" id="ent0025"><path d="M1486.7,691.93 L1597.3035,691.93 A3.75,3.75 0 0 1 1599.8035,694.43 L1606.8035,714.2269 L1621.3035,714.2269 A2.5,2.5 0 0 1 1623.8035,716.7269 L1623.8035,728.7269 A2.5,2.5 0 0 1 1621.3035,731.2269 L1486.7,731.2269 A2.5,2.5 0 0 1 1484.2,728.7269 L1484.2,694.43 A2.5,2.5 0 0 1 1486.7,691.93" fill="#F1F1F1" style="stroke:#181818;stroke-width:0.5;"/><line style="stroke:#181818;stroke-width:0.5;" x1="1484.2" x2="1606.8035" y1="714.2269" y2="714.2269"/><text fill="#000000" font-family="sans-serif" font-size="14" font-weight="bold" lengthAdjust="spacing" textLength="97.6035" x="1494.2" y="707.9251">migrations/*</text></g><!--entity db / crypto / ensure-schema--><g class="entity" data-qualified-name="APP.PERS.db . crypto . ensure-schema" data-source-line="36" id="ent0026"><path d="M1337.24,810.22 L1570.7673,810.22 A3.75,3.75 0 0 1 1573.2673,812.72 L1580.2673,832.5169 L1594.7673,832.5169 A2.5,2.5 0 0 1 1597.2673,835.0169 L1597.2673,847.0169 A2.5,2.5 0 0 1 1594.7673,849.5169 L1337.24,849.5169 A2.5,2.5 0 0 1 1334.74,847.0169 L1334.74,812.72 A2.5,2.5 0 0 1 1337.24,810.22" fill="#F1F1F1" style="stroke:#181818;stroke-width:0.5;"/><line style="stroke:#181818;stroke-width:0.5;" x1="1334.74" x2="1580.2673" y1="832.5169" y2="832.5169"/><text fill="#000000" font-family="sans-serif" font-size="14" font-weight="bold" lengthAdjust="spacing" textLength="220.5273" x="1344.74" y="826.2151">db / crypto / ensure-schema</text></g><!--entity logger--><g class="entity" data-qualified-name="APP.SH.logger" data-source-line="40" id="ent0028"><path d="M1734.07,691.93 L1797.9294,691.93 A3.75,3.75 0 0 1 1800.4294,694.43 L1807.4294,714.2269 L1821.9294,714.2269 A2.5,2.5 0 0 1 1824.4294,716.7269 L1824.4294,728.7269 A2.5,2.5 0 0 1 1821.9294,731.2269 L1734.07,731.2269 A2.5,2.5 0 0 1 1731.57,728.7269 L1731.57,694.43 A2.5,2.5 0 0 1 1734.07,691.93" fill="#F1F1F1" style="stroke:#181818;stroke-width:0.5;"/><line style="stroke:#181818;stroke-width:0.5;" x1="1731.57" x2="1807.4294" y1="714.2269" y2="714.2269"/><text fill="#000000" font-family="sans-serif" font-size="14" font-weight="bold" lengthAdjust="spacing" textLength="50.8594" x="1741.57" y="707.9251">logger</text></g><!--entity errors (HTTP)--><g class="entity" data-qualified-name="APP.SH.errors .HTTP." data-source-line="41" id="ent0029"><path d="M1862.05,691.93 L1981.9572,691.93 A3.75,3.75 0 0 1 1984.4572,694.43 L1991.4572,714.2269 L2005.9572,714.2269 A2.5,2.5 0 0 1 2008.4572,716.7269 L2008.4572,728.7269 A2.5,2.5 0 0 1 2005.9572,731.2269 L1862.05,731.2269 A2.5,2.5 0 0 1 1859.55,728.7269 L1859.55,694.43 A2.5,2.5 0 0 1 1862.05,691.93" fill="#F1F1F1" style="stroke:#181818;stroke-width:0.5;"/><line style="stroke:#181818;stroke-width:0.5;" x1="1859.55" x2="1991.4572" y1="714.2269" y2="714.2269"/><text fill="#000000" font-family="sans-serif" font-size="14" font-weight="bold" lengthAdjust="spacing" textLength="106.9072" x="1869.55" y="707.9251">errors (HTTP)</text></g><!--entity health--><g class="entity" data-qualified-name="APP.SH.health" data-source-line="42" id="ent0030"><path d="M1734.32,810.22 L1797.6872,810.22 A3.75,3.75 0 0 1 1800.1872,812.72 L1807.1872,832.5169 L1821.6872,832.5169 A2.5,2.5 0 0 1 1824.1872,835.0169 L1824.1872,847.0169 A2.5,2.5 0 0 1 1821.6872,849.5169 L1734.32,849.5169 A2.5,2.5 0 0 1 1731.82,847.0169 L1731.82,812.72 A2.5,2.5 0 0 1 1734.32,810.22" fill="#F1F1F1" style="stroke:#181818;stroke-width:0.5;"/><line style="stroke:#181818;stroke-width:0.5;" x1="1731.82" x2="1807.1872" y1="832.5169" y2="832.5169"/><text fill="#000000" font-family="sans-serif" font-size="14" font-weight="bold" lengthAdjust="spacing" textLength="50.3672" x="1741.82" y="826.2151">health</text></g><!--entity pages--><g class="entity" data-qualified-name="WEB.pages" data-source-line="47" id="ent0032"><path d="M67.84,50 L128.1584,50 A3.75,3.75 0 0 1 130.6584,52.5 L137.6584,72.2969 L152.1584,72.2969 A2.5,2.5 0 0 1 154.6584,74.7969 L154.6584,86.7969 A2.5,2.5 0 0 1 152.1584,89.2969 L67.84,89.2969 A2.5,2.5 0 0 1 65.34,86.7969 L65.34,52.5 A2.5,2.5 0 0 1 67.84,50" fill="#E3F2FD" style="stroke:#181818;stroke-width:0.5;"/><line style="stroke:#181818;stroke-width:0.5;" x1="65.34" x2="137.6584" y1="72.2969" y2="72.2969"/><text fill="#000000" font-family="sans-serif" font-size="14" font-weight="bold" lengthAdjust="spacing" textLength="47.3184" x="75.34" y="65.9951">pages</text></g><!--entity features--><g class="entity" data-qualified-name="WEB.features" data-source-line="48" id="ent0033"><path d="M192.29,50 L271.7148,50 A3.75,3.75 0 0 1 274.2148,52.5 L281.2148,72.2969 L295.7148,72.2969 A2.5,2.5 0 0 1 298.2148,74.7969 L298.2148,86.7969 A2.5,2.5 0 0 1 295.7148,89.2969 L192.29,89.2969 A2.5,2.5 0 0 1 189.79,86.7969 L189.79,52.5 A2.5,2.5 0 0 1 192.29,50" fill="#E3F2FD" style="stroke:#181818;stroke-width:0.5;"/><line style="stroke:#181818;stroke-width:0.5;" x1="189.79" x2="281.2148" y1="72.2969" y2="72.2969"/><text fill="#000000" font-family="sans-serif" font-size="14" font-weight="bold" lengthAdjust="spacing" textLength="66.4248" x="199.79" y="65.9951">features</text></g><!--entity components/ui--><g class="entity" data-qualified-name="WEB.components.ui" data-source-line="49" id="ent0034"><path d="M33.26,219.59 L162.7375,219.59 A3.75,3.75 0 0 1 165.2375,222.09 L172.2375,241.8869 L186.7375,241.8869 A2.5,2.5 0 0 1 189.2375,244.3869 L189.2375,256.3869 A2.5,2.5 0 0 1 186.7375,258.8869 L33.26,258.8869 A2.5,2.5 0 0 1 30.76,256.3869 L30.76,222.09 A2.5,2.5 0 0 1 33.26,219.59" fill="#E3F2FD" style="stroke:#181818;stroke-width:0.5;"/><line style="stroke:#181818;stroke-width:0.5;" x1="30.76" x2="172.2375" y1="241.8869" y2="241.8869"/><text fill="#000000" font-family="sans-serif" font-size="14" font-weight="bold" lengthAdjust="spacing" textLength="116.4775" x="40.76" y="235.5851">components/ui</text></g><!--entity core (api, AppDataContext, ?)--><g class="entity" data-qualified-name="WEB.core .api. AppDataContext. .." data-source-line="50" id="ent0035"><path d="M226.25,219.59 L479.7451,219.59 A3.75,3.75 0 0 1 482.2451,222.09 L489.2451,241.8869 L503.7451,241.8869 A2.5,2.5 0 0 1 506.2451,244.3869 L506.2451,256.3869 A2.5,2.5 0 0 1 503.7451,258.8869 L226.25,258.8869 A2.5,2.5 0 0 1 223.75,256.3869 L223.75,222.09 A2.5,2.5 0 0 1 226.25,219.59" fill="#E3F2FD" style="stroke:#181818;stroke-width:0.5;"/><line style="stroke:#181818;stroke-width:0.5;" x1="223.75" x2="489.2451" y1="241.8869" y2="241.8869"/><text fill="#000000" font-family="sans-serif" font-size="14" font-weight="bold" lengthAdjust="spacing" textLength="240.4951" x="233.75" y="235.5851">core (api, AppDataContext, &#8230;)</text></g><g class="entity" data-qualified-name="GMN60" data-source-line="81" id="ent0061"><path d="M2418.6,683.88 L2418.6,739.2784 L2623.4027,739.2784 L2623.4027,693.88 L2613.4027,683.88 L2418.6,683.88" fill="#FEFFDD" style="stroke:#181818;stroke-width:0.5;"/><path d="M2613.4027,683.88 L2613.4027,693.88 L2623.4027,693.88 L2613.4027,683.88" fill="#FEFFDD" style="stroke:#181818;stroke-width:1;"/><text fill="#000000" font-family="sans-serif" font-size="13" lengthAdjust="spacing" textLength="181.2954" x="2424.6" y="700.9469">Sin dependencias salientes.</text><text fill="#000000" font-family="sans-serif" font-size="13" lengthAdjust="spacing" textLength="183.8027" x="2424.6" y="716.0797">Reutilizable desde cualquier</text><text fill="#000000" font-family="sans-serif" font-size="13" lengthAdjust="spacing" textLength="146.5864" x="2424.6" y="731.2125">capa por composici&#243;n.</text></g><g class="entity" data-qualified-name="GMN63" data-source-line="87" id="ent0064"><path d="M2419.09,512.86 L2419.09,583.3912 L2616.904,583.3912 L2616.904,522.86 L2606.904,512.86 L2419.09,512.86" fill="#FEFFDD" style="stroke:#181818;stroke-width:0.5;"/><path d="M2606.904,512.86 L2606.904,522.86 L2616.904,522.86 L2606.904,512.86" fill="#FEFFDD" style="stroke:#181818;stroke-width:1;"/><text fill="#000000" font-family="sans-serif" font-size="13" lengthAdjust="spacing" textLength="162.4238" x="2425.09" y="529.9269">Organizaci&#243;n por feature</text><text fill="#000000" font-family="sans-serif" font-size="13" lengthAdjust="spacing" textLength="158.3042" x="2425.09" y="545.0597">(no por capa): cada CdU</text><text fill="#000000" font-family="sans-serif" font-size="13" lengthAdjust="spacing" textLength="171.1519" x="2425.09" y="560.1925">vive en su subcarpeta con</text><text fill="#000000" font-family="sans-serif" font-size="13" lengthAdjust="spacing" textLength="176.814" x="2425.09" y="575.3253">servicios + rutas + estado.</text></g><!--link ROOT to MODS--><g class="link" data-entity-1="ent0003" data-entity-2="ent0015" data-link-type="dependency" data-source-line="53" id="lnk36"><path d="M1228.01,243.29 C1411.36,250.8 1838.54,272.76 1887,315.89 C1890.59,319.085 1893.5842,322.7927 1896.0749,326.8384 C1896.6976,327.8499 1897.2888,328.8825 1897.85,329.9334 C1898.1306,330.4589 1895.7318,325.6168 1895.9976,326.1511" fill="none" id="ROOT-to-MODS" style="stroke:#181818;stroke-width:1;stroke-dasharray:7,7;"/><polygon fill="#181818" points="1898.6694,331.5234,1898.2432,321.6838,1896.4429,327.0465,1891.0801,325.2462,1898.6694,331.5234" style="stroke:#181818;stroke-width:1;"/></g><!--link ROOT to SRC--><g class="link" data-entity-1="ent0003" data-entity-2="ent0010" data-link-type="dependency" data-source-line="54" id="lnk37"><path d="M1062.11,256.09 C952.19,281.52 759.78,342.1 654,469.48 C651.2425,472.8 648.8595,476.4545 646.8008,480.3139 C646.2861,481.2787 645.7917,482.2564 645.3168,483.2448 C645.0793,483.739 644.8467,484.2359 644.6189,484.7352 C644.562,484.8601 646.9693,479.5143 646.9129,479.6395" fill="none" id="ROOT-to-SRC" style="stroke:#181818;stroke-width:1;stroke-dasharray:7,7;"/><polygon fill="#181818" points="644.4489,485.1102,651.7921,478.5468,646.5023,480.5513,644.4978,475.2615,644.4489,485.1102" style="stroke:#181818;stroke-width:1;"/></g><!--link ROOT to PERS--><g class="link" data-entity-1="ent0003" data-entity-2="ent0023" data-link-type="dependency" data-source-line="55" id="lnk38"><path d="M1142.79,275.67 C1138.35,359.69 1132.36,567.62 1178,615.93 C1187.02,625.47 1286.15,623.22 1295,632.93 C1297.8188,636.0225 1300.0134,639.5045 1301.6939,643.2364 C1302.114,644.1694 1302.5019,645.118 1302.8595,646.08 C1303.0383,646.561 1303.2094,647.0454 1303.3732,647.5328 C1303.4551,647.7765 1303.5351,648.021 1303.6133,648.2663 C1303.6524,648.3889 1301.9112,642.7817 1301.9494,642.9047" fill="none" id="ROOT-to-PERS" style="stroke:#181818;stroke-width:1;stroke-dasharray:7,7;"/><polygon fill="#181818" points="1303.7293,648.6347,1304.8794,638.8532,1302.2461,643.8597,1297.2395,641.2263,1303.7293,648.6347" style="stroke:#181818;stroke-width:1;"/></g><!--link ROOT to SH--><g class="link" data-entity-1="ent0003" data-entity-2="ent0027" data-link-type="dependency" data-source-line="56" id="lnk39"><path d="M1228.07,241.77 C1419.62,246.22 1879.22,262.41 1922,315.89 C1962.33,366.29 1897.3,606.49 1887,615.93 C1858.84,641.72 1744.99,608.07 1716,632.93 C1712.7238,635.7388 1709.9477,639.0058 1707.5986,642.5789 C1706.4241,644.3655 1705.3564,646.2286 1704.3863,648.1492 C1704.265,648.3893 1706.7805,643.24 1706.6623,643.4818" fill="none" id="ROOT-to-SH" style="stroke:#181818;stroke-width:1;stroke-dasharray:7,7;"/><polygon fill="#181818" points="1704.027,648.8721,1711.5735,642.5435,1706.2231,644.3802,1704.3864,639.0298,1704.027,648.8721" style="stroke:#181818;stroke-width:1;"/></g><!--link ROOT to BUS--><g class="link" data-entity-1="ent0003" data-entity-2="ent0004" data-link-type="dependency" data-source-line="57" id="lnk40"><path d="M1137.71,275.49 C1124.93,344.15 1102.79,500 1136,624.93 C1141.63,646.12 1150.5283,681.0061 1161.3783,697.1161" fill="none" id="ROOT-to-BUS" style="stroke:#181818;stroke-width:1;stroke-dasharray:7,7;"/><polygon fill="#181818" points="1164.73,702.0926,1163.0202,692.3933,1161.9369,697.9455,1156.3848,696.8623,1164.73,702.0926" style="stroke:#181818;stroke-width:1;"/></g><!--link LB to SRC--><g class="link" data-entity-1="ent0016" data-entity-2="ent0010" data-link-type="dependency" data-source-line="59" id="lnk41"><path d="M1630.28,425.9 C1624.5,427.65 1618.67,429.22 1613,430.48 C1595.41,434.4 1308,460.51 1290,461.48 C1272.36,462.44 667.9,458.57 654,469.48 C650.6063,472.145 647.7411,475.3031 645.3263,478.7959 C644.1189,480.5423 643.0241,482.3723 642.0321,484.2662 C641.9081,484.5029 641.7857,484.7406 641.6649,484.9793 C641.6045,485.0987 644.217,479.8464 644.1574,479.9662" fill="none" id="LB-to-SRC" style="stroke:#181818;stroke-width:1;stroke-dasharray:7,7;"/><polygon fill="#181818" points="641.4848,485.3381,649.075,479.062,643.712,480.8615,641.9125,475.4985,641.4848,485.3381" style="stroke:#181818;stroke-width:1;"/></g><!--link LB to META--><g class="link" data-entity-1="ent0016" data-entity-2="ent0018" data-link-type="dependency" data-source-line="60" id="lnk42"><path d="M1673.14,430.67 C1659.02,456.31 1640.7838,498.5519 1626.6838,524.1619" fill="none" id="LB-to-META" style="stroke:#181818;stroke-width:1;stroke-dasharray:7,7;"/><polygon fill="#181818" points="1623.79,529.418,1631.6347,523.4631,1626.2015,525.0379,1624.6267,519.6047,1623.79,529.418" style="stroke:#181818;stroke-width:1;"/></g><!--link LB to PERS--><g class="link" data-entity-1="ent0016" data-entity-2="ent0023" data-link-type="dependency" data-source-line="61" id="lnk43"><path d="M1695.39,430.82 C1705.97,476.36 1719.04,567.89 1669,615.93 C1654.96,629.41 1334.09,620.63 1319,632.93 C1315.6538,635.655 1312.8247,638.8586 1310.4366,642.3849 C1309.2426,644.1481 1308.1588,645.9919 1307.1757,647.897 C1307.0529,648.1351 1309.6104,643.0054 1309.4906,643.2454" fill="none" id="LB-to-PERS" style="stroke:#181818;stroke-width:1;stroke-dasharray:7,7;"/><polygon fill="#181818" points="1306.8118,648.6142,1314.4092,642.3469,1309.0441,644.1402,1307.2508,638.7751,1306.8118,648.6142" style="stroke:#181818;stroke-width:1;"/></g><!--link LB to BUS--><g class="link" data-entity-1="ent0016" data-entity-2="ent0004" data-link-type="dependency" data-source-line="62" id="lnk44"><path d="M1630.22,425.67 C1624.45,427.46 1618.64,429.1 1613,430.48 C1488.37,460.89 1433.81,398.42 1327,469.48 C1286.86,496.19 1226.105,643.2794 1199.715,700.4394" fill="none" id="LB-to-BUS" style="stroke:#181818;stroke-width:1;stroke-dasharray:7,7;"/><polygon fill="#181818" points="1197.2,705.8869,1204.6042,699.3924,1199.2958,701.3473,1197.3409,696.039,1197.2,705.8869" style="stroke:#181818;stroke-width:1;"/></g><!--link CAT to PERS--><g class="link" data-entity-1="ent0017" data-entity-2="ent0023" data-link-type="dependency" data-source-line="63" id="lnk45"><path d="M1806.71,430.91 C1798.57,442.65 1789.12,456.61 1781,469.48 C1740.84,533.13 1760.16,576.59 1696,615.93 C1665.07,634.89 1569.24,623.25 1533,624.93 C1521.12,625.48 1328.27,625.46 1319,632.93 C1315.6388,635.6363 1312.7983,638.8256 1310.4018,642.3414 C1309.2035,644.0994 1308.1162,645.9389 1307.1303,647.8404 C1307.0071,648.0781 1306.8854,648.3168 1306.7654,648.5564 C1306.7053,648.6762 1309.2979,643.4142 1309.2386,643.5345" fill="none" id="CAT-to-PERS" style="stroke:#181818;stroke-width:1;stroke-dasharray:7,7;"/><polygon fill="#181818" points="1306.5864,648.9165,1314.1527,642.6117,1308.7966,644.4315,1306.9768,639.0753,1306.5864,648.9165" style="stroke:#181818;stroke-width:1;"/></g><!--link META to SH--><g class="link" data-entity-1="ent0018" data-entity-2="ent0027" data-link-type="dependency" data-source-line="64" id="lnk46"><path d="M1623.56,576.15 C1635.75,598.77 1653.49,631.6875 1668.3638,659.2863 C1675.8006,673.0856 1682.5209,685.5553 1687.4727,694.7433 C1687.6274,695.0304 1684.9339,690.0325 1685.0851,690.3132" fill="none" id="META-to-SH" style="stroke:#181818;stroke-width:1;stroke-dasharray:7,7;"/><polygon fill="#181818" points="1687.9317,695.595,1687.183,685.7746,1685.5596,691.1935,1680.1407,689.57,1687.9317,695.595" style="stroke:#181818;stroke-width:1;"/></g><!--link DD to SRC--><g class="link" data-entity-1="ent0019" data-entity-2="ent0010" data-link-type="dependency" data-source-line="65" id="lnk47"><path d="M1448.09,426.33 C1400.14,439.74 1336,455.29 1278,461.48 C1260.76,463.32 667.63,458.77 654,469.48 C650.6063,472.145 647.7411,475.3031 645.3263,478.7959 C644.1189,480.5423 643.0241,482.3723 642.0321,484.2662 C641.9081,484.5029 641.7857,484.7406 641.6649,484.9793 C641.6045,485.0987 644.217,479.8464 644.1574,479.9662" fill="none" id="DD-to-SRC" style="stroke:#181818;stroke-width:1;stroke-dasharray:7,7;"/><polygon fill="#181818" points="641.4848,485.3381,649.075,479.062,643.712,480.8615,641.9125,475.4985,641.4848,485.3381" style="stroke:#181818;stroke-width:1;"/></g><!--link DD to META--><g class="link" data-entity-1="ent0019" data-entity-2="ent0018" data-link-type="dependency" data-source-line="66" id="lnk48"><path d="M1538.36,430.67 C1553.92,456.31 1574.0689,489.5296 1589.5989,515.1396" fill="none" id="DD-to-META" style="stroke:#181818;stroke-width:1;stroke-dasharray:7,7;"/><polygon fill="#181818" points="1592.71,520.27,1591.4636,510.5003,1590.1174,515.9947,1584.6231,514.6485,1592.71,520.27" style="stroke:#181818;stroke-width:1;"/></g><!--link AL to PERS--><g class="link" data-entity-1="ent0020" data-entity-2="ent0023" data-link-type="dependency" data-source-line="67" id="lnk49"><path d="M1334.65,421.7 C1310.76,433.55 1283.62,448.93 1277,460.48 C1238.67,527.33 1288.99,556.1 1295,632.93 C1295.3263,637.1013 1295.6322,641.4008 1295.9179,645.7364 C1295.9537,646.2783 1295.9891,646.8208 1296.0242,647.3637 C1296.0417,647.6352 1296.0592,647.9067 1296.0766,648.1783 C1296.0853,648.3141 1295.7124,642.4621 1295.7211,642.5979" fill="none" id="AL-to-PERS" style="stroke:#181818;stroke-width:1;stroke-dasharray:7,7;"/><polygon fill="#181818" points="1296.1026,648.5858,1299.5223,639.3497,1295.7847,643.5959,1291.5385,639.8583,1296.1026,648.5858" style="stroke:#181818;stroke-width:1;"/></g><!--link AL to NOT--><g class="link" data-entity-1="ent0020" data-entity-2="ent0022" data-link-type="dependency" data-source-line="68" id="lnk50"><path d="M1378.89,430.67 C1383.54,456.31 1389.4203,497.2964 1394.0603,522.9064" fill="none" id="AL-to-NOT" style="stroke:#181818;stroke-width:1;stroke-dasharray:7,7;"/><polygon fill="#181818" points="1395.13,528.8103,1397.4614,519.2414,1394.2386,523.8904,1389.5896,520.6676,1395.13,528.8103" style="stroke:#181818;stroke-width:1;"/></g><!--link EV to BUS--><g class="link" data-entity-1="ent0021" data-entity-2="ent0004" data-link-type="dependency" data-source-line="69" id="lnk51"><path d="M1241.2,430.83 C1239.21,440.22 1236.99,450.81 1235,460.48 C1218.33,541.58 1200.4884,654.0598 1191.4584,699.9498" fill="none" id="EV-to-BUS" style="stroke:#181818;stroke-width:1;stroke-dasharray:7,7;"/><polygon fill="#181818" points="1190.3,705.8369,1195.9624,697.7785,1191.2654,700.931,1188.1129,696.2339,1190.3,705.8369" style="stroke:#181818;stroke-width:1;"/></g><!--link EV to PERS--><g class="link" data-entity-1="ent0021" data-entity-2="ent0023" data-link-type="dependency" data-source-line="70" id="lnk52"><path d="M1245.15,430.89 C1242.19,483.44 1238.9,596.26 1263,624.93 C1272.43,636.15 1285.68,621.61 1295,632.93 C1297.6588,636.16 1299.7322,639.7463 1301.3231,643.5551 C1301.7208,644.5073 1302.0884,645.4735 1302.4274,646.4514 C1302.5969,646.9404 1302.7593,647.4323 1302.9147,647.927 C1302.9924,648.1743 1301.351,642.6733 1301.4253,642.9219" fill="none" id="EV-to-PERS" style="stroke:#181818;stroke-width:1;stroke-dasharray:7,7;"/><polygon fill="#181818" points="1303.1427,648.6709,1304.3993,638.9025,1301.7115,643.8801,1296.734,641.1923,1303.1427,648.6709" style="stroke:#181818;stroke-width:1;"/></g><!--link EV to NOT--><g class="link" data-entity-1="ent0021" data-entity-2="ent0022" data-link-type="dependency" data-source-line="71" id="lnk53"><path d="M1275.78,430.67 C1303.05,456.23 1339.4033,490.3158 1366.7133,515.9258" fill="none" id="EV-to-NOT" style="stroke:#181818;stroke-width:1;stroke-dasharray:7,7;"/><polygon fill="#181818" points="1371.09,520.03,1367.2611,510.9559,1367.4428,516.6098,1361.7888,516.7914,1371.09,520.03" style="stroke:#181818;stroke-width:1;"/></g><!--link NOT to PERS--><g class="link" data-entity-1="ent0022" data-entity-2="ent0023" data-link-type="dependency" data-source-line="72" id="lnk54"><path d="M1391.16,576.21 C1384.38,592.76 1373.37,612.96 1357,624.93 C1343.07,635.11 1331.47,621 1319,632.93 C1315.8813,635.9125 1313.2245,639.3113 1310.9637,642.9817 C1309.8332,644.8169 1311.4056,641.3145 1310.4649,643.2675" fill="none" id="NOT-to-PERS" style="stroke:#181818;stroke-width:1;stroke-dasharray:7,7;"/><polygon fill="#181818" points="1307.861,648.6731,1315.3705,642.3007,1310.0309,644.1685,1308.1631,638.8289,1307.861,648.6731" style="stroke:#181818;stroke-width:1;"/></g><!--link NOT to BUS--><g class="link" data-entity-1="ent0022" data-entity-2="ent0004" data-link-type="dependency" data-source-line="73" id="lnk55"><path d="M1380.88,576.32 C1370.36,589.69 1356.34,605.2 1341,615.93 C1318.98,631.32 1307.22,621.31 1283,632.93 C1256.58,645.6 1235.1952,684.745 1216.7052,701.675" fill="none" id="NOT-to-BUS" style="stroke:#181818;stroke-width:1;stroke-dasharray:7,7;"/><polygon fill="#181818" points="1212.28,705.7269,1221.619,702.5992,1215.9677,702.3503,1216.2166,696.699,1212.28,705.7269" style="stroke:#181818;stroke-width:1;"/></g><!--link SRC to DOM--><g class="link" data-entity-1="ent0010" data-entity-2="ent0006" data-link-type="dependency" data-source-line="74" id="lnk56"><path d="M642.3698,485.0905 C642.6098,484.4373 642.8564,483.7869 643.1098,483.1397 C643.6165,481.8452 644.1502,480.5636 644.7124,479.2985 C645.8367,476.7683 647.0747,474.3042 648.4375,471.9356 C653.8888,462.4612 661.3375,454.515 671.5,449.98 C706.68,434.28 2023.32,434.28 2058.5,449.98 C2068.2175,454.315 2074.525,462.1569 2078.4958,471.5883 C2079.4885,473.9461 2080.3351,476.4033 2081.0525,478.9299 C2081.4112,480.1932 2081.7376,481.4738 2082.0337,482.7681 C2082.1818,483.4152 2082.3223,484.0657 2082.4555,484.7192 C2082.4888,484.8825 2081.3569,479.1602 2081.3893,479.3239" fill="none" id="SRC-to-DOM" style="stroke:#181818;stroke-width:1;stroke-dasharray:7,7;"/><polygon fill="#181818" points="2082.5541,485.2098,2084.7309,475.6045,2081.5835,480.3049,2076.8831,477.1575,2082.5541,485.2098" style="stroke:#181818;stroke-width:1;"/></g><!--link PERS to DOM--><g class="link" data-entity-1="ent0023" data-entity-2="ent0006" data-link-type="dependency" data-source-line="75" id="lnk57"><path d="M1306.505,648.811 C1306.5645,648.6911 1306.6244,648.5714 1306.6848,648.452 C1306.8054,648.2132 1306.9276,647.9753 1307.0515,647.7384 C1308.0422,645.8432 1309.1355,644.0115 1310.3411,642.2631 C1312.7522,638.7663 1315.6125,635.6025 1319,632.93 C1329.16,624.91 1772.07,625.61 1785,624.93 C1830.45,622.53 1842.5,625.44 1887,615.93 C1930.69,606.59 1978.1275,590.2625 2015.0388,576.0875 C2033.4944,569 2049.3184,562.4506 2060.7267,557.5819 C2063.5788,556.3647 2066.1549,555.2525 2068.4271,554.2633 C2069.5632,553.7687 2070.6233,553.3047 2071.604,552.8738 C2071.7266,552.8199 2066.3559,555.1827 2066.476,555.1299" fill="none" id="PERS-to-DOM" style="stroke:#181818;stroke-width:1;stroke-dasharray:7,7;"/><polygon fill="#181818" points="2071.9681,552.7137,2062.1193,552.6766,2067.3914,554.7272,2065.3408,559.9993,2071.9681,552.7137" style="stroke:#181818;stroke-width:1;"/></g><!--link MODS to DOM--><g class="link" data-entity-1="ent0015" data-entity-2="ent0006" data-link-type="dependency" data-source-line="76" id="lnk58"><path d="M1914.4125,410.6181 C1914.5643,410.7433 1914.718,410.8699 1914.8735,410.9981 C1919.8488,415.0998 1926.6788,420.7306 1934.7452,427.3806 C1950.8778,440.6806 1971.9556,458.0575 1993.0313,475.4325 C2014.1069,492.8075 2035.1803,510.1806 2051.3042,523.4731 C2059.3662,530.1194 2066.1907,535.7455 2071.1595,539.8416 C2071.3148,539.9696 2071.4682,540.0961 2071.6199,540.2211 C2071.6957,540.2836 2067.1414,536.5291 2067.2163,536.5909" fill="none" id="MODS-to-DOM" style="stroke:#181818;stroke-width:1;stroke-dasharray:7,7;"/><polygon fill="#181818" points="2071.8459,540.4074,2067.4458,531.5962,2067.9879,537.227,2062.3571,537.7691,2071.8459,540.4074" style="stroke:#181818;stroke-width:1;"/></g><!--link WEB to APP--><g class="link" data-entity-1="ent0031" data-entity-2="ent0002" data-link-type="dependency" data-source-line="78" id="lnk59"><path d="M538.0643,94.7793 C538.1414,95.0101 538.2189,95.242 538.2968,95.4752 C538.6085,96.408 538.9269,97.3606 539.2514,98.3317 C544.4441,113.8703 551.2281,134.1719 558.0113,154.4712 C564.7944,174.7706 571.5766,195.0678 576.7655,210.5977 C577.0898,211.5683 577.4079,212.5203 577.7193,213.4525 C577.7972,213.6855 575.9733,208.2266 576.0503,208.4571" fill="none" id="WEB-to-APP" style="stroke:#181818;stroke-width:1;stroke-dasharray:7,7;"/><polygon fill="#181818" points="577.9517,214.1479,578.8934,204.3442,576.3672,209.4056,571.3058,206.8794,577.9517,214.1479" style="stroke:#181818;stroke-width:1;"/><text fill="#000000" font-family="sans-serif" font-size="13" lengthAdjust="spacing" textLength="104.8188" x="553" y="132.3569">HTTP REST / WS</text></g><!--link DOM to GMN60--><g class="link" data-entity-1="ent0006" data-entity-2="ent0061" data-link-type="association" data-source-line="81" id="lnk62"><path d="M2355.3654,635.128 C2358.1622,635.9002 2360.9662,636.7108 2363.7733,637.5561 C2369.3876,639.2467 2375.0145,641.0763 2380.6228,643.0156 C2391.8394,646.8944 2402.9813,651.2125 2413.7975,655.7375 C2435.43,664.7875 2455.76,674.665 2472.78,683.51" fill="none" id="DOM-GMN60" style="stroke:#181818;stroke-width:1;stroke-dasharray:7,7;"/></g><!--link MODS to GMN63--><g class="link" data-entity-1="ent0015" data-entity-2="ent0064" data-link-type="association" data-source-line="87" id="lnk65"><path d="M1914.4804,404.0766 C1914.8743,404.0962 1915.2813,404.1167 1915.7011,404.138 C1916.5408,404.1805 1917.4321,404.2264 1918.3739,404.2758 C1925.9077,404.671 1936.6692,405.2895 1950.0634,406.2016 C1976.8519,408.0256 2014.1713,411.0237 2057.2625,415.7575 C2143.445,425.225 2252.715,441.635 2347,469.48 C2383.27,480.19 2421.78,497.14 2453.06,512.47" fill="none" id="MODS-GMN63" style="stroke:#181818;stroke-width:1;stroke-dasharray:7,7;"/></g><?plantuml-src VLLRRjiw4FtNAWR9Jz8sTXy8S5iK0VoGceyq3cot_UdFc1pBH6MI9QcakHS5kffke4leJhgIEwHaEucL6e8vr9nvK6TcwByeRT7X6YoABrZIBDnM18v4G5rMbFajmAzGcXkbIrXYvIbRAKdW0paouTPIbhKUuC0xqKTh-xmU07eON5t1VndmRmSXTqsk5_nd_VQjC6jhl0hAQ736XBEpP3QTJEPmc8_oedXnttfHUpQ5epd7bSFQ7oVyyCEi6owCNggIBH9iLBpRmkxZf5cZqWaqdho7m-9LVbgSjgdVGyO3-uFzztHDEdGgd3EkLNn_4DQRsWbgafjDHnotuCZFk-AkEAwhrDTQoPurBdH4ilMYKkBanlTGecLwEZ0QjN4KLYVEYh_0bYY2SRVTMQ-DhAisw_UJSVpq_nId-Ukkj2j2IMvXqCc4lnZkOmG6h4nf6eu6ytt4cW8suVBvO5yj5LUju1ewaGoiAcg87EyZiI8Ni4bzSD758bOrHbS9ad_i-88cgAKIEz3bPDxvcPWlhxXBj6ZokSgdixynxCMArjX_qa77MfKEOvFuJhLSG1-4kxN1i43QruvE6dUFrDqA7JM4pCutBT59dodBpW9fgXgEpkVpg-CE_Ogm2gjDzEyFHiGDBROZubC-V3WYBFypHuVvg-9bCRwlMn86FjvZwZHGT6p5VgqUnJY28xJg6Goi7NFrZOmEz2qyWpy_VXxlh3ZjD8bwlRDKwBiTD-jk4uczephVoJoNiknYk3LfnLJ5hPoCMpd2kVvtxoDmutGythffnUHcSB63jt8ioFpZrcCh9aGhHyJbtUmlxoGS1r6KUH1cgMOtczJhcqqMUOkREEBVGAm3cEQpEHVW9puqTmd1meHWrc2MoG9WfZH8igGbDuLYxZrMYhaYtsFjbEgWAlKlBlWQakJvZX4rLZpnoB5Qe4NWoGVjdI7Kxr-wbx4pYC7sGYR202QkHCrE4ppPjnN4kYDj6e_i-lWDBn9X93-mvbfT4pSI-9gVXK1dUR1mPCswU85nTEFXARYQfmclv0DVaNUo-Hy0?></g></svg>