<?plantuml 1.2026.1?><svg xmlns="http://www.w3.org/2000/svg" xmlns:xlink="http://www.w3.org/1999/xlink" contentStyleType="text/css" data-diagram-type="CLASS" height="1000px" preserveAspectRatio="none" style="width:1888px;height:1000px;background:#FFFFFF;" version="1.1" viewBox="0 0 1888 1000" width="1888px" zoomAndPan="magnify"><defs/><g><!--cluster modules/evaluacion--><g class="cluster" data-qualified-name="modules.evaluacion" data-source-line="5" id="ent0002"><path d="M1406.5,195.56 L1564.3984,195.56 A3.75,3.75 0 0 1 1566.8984,198.06 L1573.8984,217.8569 L1681.5,217.8569 A2.5,2.5 0 0 1 1684,220.3569 L1684,557.78 A2.5,2.5 0 0 1 1681.5,560.28 L1406.5,560.28 A2.5,2.5 0 0 1 1404,557.78 L1404,198.06 A2.5,2.5 0 0 1 1406.5,195.56" fill="none" style="stroke:#000000;stroke-width:1.5;"/><line style="stroke:#000000;stroke-width:1.5;" x1="1404" x2="1573.8984" y1="217.8569" y2="217.8569"/><text fill="#000000" font-family="sans-serif" font-size="14" font-weight="bold" lengthAdjust="spacing" textLength="156.8984" x="1408" y="210.5551">modules/evaluacion</text></g><!--cluster domain--><g class="cluster" data-qualified-name="domain" data-source-line="14" id="ent0005"><path d="M8.5,601.43 L67.9404,601.43 A3.75,3.75 0 0 1 70.4404,603.93 L77.4404,623.7269 L501.5,623.7269 A2.5,2.5 0 0 1 504,626.2269 L504,991.46 A2.5,2.5 0 0 1 501.5,993.96 L8.5,993.96 A2.5,2.5 0 0 1 6,991.46 L6,603.93 A2.5,2.5 0 0 1 8.5,601.43" fill="none" style="stroke:#000000;stroke-width:1.5;"/><line style="stroke:#000000;stroke-width:1.5;" x1="6" x2="77.4404" y1="623.7269" y2="623.7269"/><text fill="#000000" font-family="sans-serif" font-size="14" font-weight="bold" lengthAdjust="spacing" textLength="58.4404" x="10" y="616.4251">domain</text></g><!--cluster modules/notificacion--><g class="cluster" data-qualified-name="modules.notificacion" data-source-line="21" id="ent0008"><path d="M62.5,6 L227.8291,6 A3.75,3.75 0 0 1 230.3291,8.5 L237.3291,28.2969 L361.5,28.2969 A2.5,2.5 0 0 1 364,30.7969 L364,565.93 A2.5,2.5 0 0 1 361.5,568.43 L62.5,568.43 A2.5,2.5 0 0 1 60,565.93 L60,8.5 A2.5,2.5 0 0 1 62.5,6" fill="none" style="stroke:#000000;stroke-width:1.5;"/><line style="stroke:#000000;stroke-width:1.5;" x1="60" x2="237.3291" y1="28.2969" y2="28.2969"/><text fill="#000000" font-family="sans-serif" font-size="14" font-weight="bold" lengthAdjust="spacing" textLength="164.3291" x="64" y="20.9951">modules/notificacion</text></g><!--cluster persistence--><g class="cluster" data-qualified-name="persistence" data-source-line="55" id="ent0014"><path d="M480.5,417.72 L573.334,417.72 A3.75,3.75 0 0 1 575.834,420.22 L582.834,440.0169 L850.5,440.0169 A2.5,2.5 0 0 1 853,442.5169 L853,557.78 A2.5,2.5 0 0 1 850.5,560.28 L480.5,560.28 A2.5,2.5 0 0 1 478,557.78 L478,420.22 A2.5,2.5 0 0 1 480.5,417.72" fill="none" style="stroke:#000000;stroke-width:1.5;"/><line style="stroke:#000000;stroke-width:1.5;" x1="478" x2="582.834" y1="440.0169" y2="440.0169"/><text fill="#000000" font-family="sans-serif" font-size="14" font-weight="bold" lengthAdjust="spacing" textLength="91.834" x="482" y="432.7151">persistence</text></g><!--cluster bus--><g class="cluster" data-qualified-name="bus" data-source-line="60" id="ent0017"><path d="M1252.5,425.87 L1281.8213,425.87 A3.75,3.75 0 0 1 1284.3213,428.37 L1291.3213,448.1669 L1377.5,448.1669 A2.5,2.5 0 0 1 1380,450.6669 L1380,549.63 A2.5,2.5 0 0 1 1377.5,552.13 L1252.5,552.13 A2.5,2.5 0 0 1 1250,549.63 L1250,428.37 A2.5,2.5 0 0 1 1252.5,425.87" fill="none" style="stroke:#000000;stroke-width:1.5;"/><line style="stroke:#000000;stroke-width:1.5;" x1="1250" x2="1291.3213" y1="448.1669" y2="448.1669"/><text fill="#000000" font-family="sans-serif" font-size="14" font-weight="bold" lengthAdjust="spacing" textLength="28.3213" x="1254" y="440.8651">bus</text></g><!--class wireEvaluacion--><g class="entity" data-qualified-name="modules.evaluacion.wireEvaluacion" data-source-line="6" id="ent0003"><rect fill="#F1F1F1" height="72.5625" rx="2.5" ry="2.5" style="stroke:#181818;stroke-width:0.5;" width="248.7012" x="1419.65" y="249.56"/><text fill="#000000" font-family="sans-serif" font-size="12" font-style="italic" lengthAdjust="spacing" textLength="60.5156" x="1513.7428" y="265.6987">&#171;handler&#187;</text><text fill="#000000" font-family="sans-serif" font-size="14" lengthAdjust="spacing" textLength="105.7861" x="1491.1075" y="281.5239">wireEvaluacion</text><line style="stroke:#181818;stroke-width:0.5;" x1="1420.65" x2="1667.3512" y1="289.8256" y2="289.8256"/><line style="stroke:#181818;stroke-width:0.5;" x1="1420.65" x2="1667.3512" y1="297.8256" y2="297.8256"/><text fill="#000000" font-family="sans-serif" font-size="14" lengthAdjust="spacing" textLength="236.7012" x="1425.65" y="314.8207">+on('PrecioActualizado', payload)</text></g><!--class evaluarAlertasContraPrecio--><g class="entity" data-qualified-name="modules.evaluacion.evaluarAlertasContraPrecio" data-source-line="9" id="ent0004"><rect fill="#F1F1F1" height="72.5625" rx="2.5" ry="2.5" style="stroke:#181818;stroke-width:0.5;" width="197.7754" x="1468.11" y="471.72"/><text fill="#000000" font-family="sans-serif" font-size="12" font-style="italic" lengthAdjust="spacing" textLength="42.2227" x="1545.8864" y="487.8587">&#171;pure&#187;</text><text fill="#000000" font-family="sans-serif" font-size="14" lengthAdjust="spacing" textLength="191.7754" x="1471.11" y="503.6839">evaluarAlertasContraPrecio</text><line style="stroke:#181818;stroke-width:0.5;" x1="1469.11" x2="1664.8854" y1="511.9856" y2="511.9856"/><line style="stroke:#181818;stroke-width:0.5;" x1="1469.11" x2="1664.8854" y1="519.9856" y2="519.9856"/><text fill="#000000" font-family="sans-serif" font-size="14" lengthAdjust="spacing" textLength="167.7744" x="1474.11" y="536.9807">+(alertas, precio) : ids[]</text></g><!--class evaluarUmbral--><g class="entity" data-qualified-name="domain.evaluarUmbral" data-source-line="15" id="ent0006"><rect fill="#F1F1F1" height="72.5625" rx="2.5" ry="2.5" style="stroke:#181818;stroke-width:0.5;" width="206.1748" x="281.91" y="704.32"/><text fill="#000000" font-family="sans-serif" font-size="12" font-style="italic" lengthAdjust="spacing" textLength="42.2227" x="363.8861" y="720.4587">&#171;pure&#187;</text><text fill="#000000" font-family="sans-serif" font-size="14" lengthAdjust="spacing" textLength="103.5713" x="333.2118" y="736.2839">evaluarUmbral</text><line style="stroke:#181818;stroke-width:0.5;" x1="282.91" x2="487.0848" y1="744.5856" y2="744.5856"/><line style="stroke:#181818;stroke-width:0.5;" x1="282.91" x2="487.0848" y1="752.5856" y2="752.5856"/><text fill="#000000" font-family="sans-serif" font-size="14" lengthAdjust="spacing" textLength="194.1748" x="287.91" y="769.5807">+(umbral, precio) : boolean</text></g><!--class Umbral--><g class="entity" data-qualified-name="domain.Umbral" data-source-line="18" id="ent0007"><rect fill="#F1F1F1" height="56.2656" rx="2.5" ry="2.5" style="stroke:#181818;stroke-width:0.5;" width="56.9961" x="356.5" y="904.23"/><text fill="#000000" font-family="sans-serif" font-size="12" font-style="italic" lengthAdjust="spacing" textLength="47.4609" x="361.2676" y="920.3687">&#171;value&#187;</text><text fill="#000000" font-family="sans-serif" font-size="14" lengthAdjust="spacing" textLength="50.9961" x="359.5" y="936.1939">Umbral</text><line style="stroke:#181818;stroke-width:0.5;" x1="357.5" x2="412.4961" y1="944.4956" y2="944.4956"/><line style="stroke:#181818;stroke-width:0.5;" x1="357.5" x2="412.4961" y1="952.4956" y2="952.4956"/></g><!--class Notificacion--><g class="entity" data-qualified-name="domain.Notificacion" data-source-line="39" id="ent0012"><rect fill="#F1F1F1" height="170.3438" rx="2.5" ry="2.5" style="stroke:#181818;stroke-width:0.5;" width="224.96" x="21.52" y="655.43"/><text fill="#000000" font-family="sans-serif" font-size="12" font-style="italic" lengthAdjust="spacing" textLength="49.5176" x="109.2412" y="671.5687">&#171;entity&#187;</text><text fill="#000000" font-family="sans-serif" font-size="14" lengthAdjust="spacing" textLength="82.5371" x="92.7314" y="687.3939">Notificacion</text><line style="stroke:#181818;stroke-width:0.5;" x1="22.52" x2="245.48" y1="695.6956" y2="695.6956"/><text fill="#000000" font-family="sans-serif" font-size="14" lengthAdjust="spacing" textLength="73.5273" x="27.52" y="712.6907">+id : UUID</text><text fill="#000000" font-family="sans-serif" font-size="14" lengthAdjust="spacing" textLength="114.6729" x="27.52" y="728.9876">+alertaId : UUID</text><text fill="#000000" font-family="sans-serif" font-size="14" lengthAdjust="spacing" textLength="204.668" x="27.52" y="745.2845">+precioDisparador : Numeric</text><text fill="#000000" font-family="sans-serif" font-size="14" lengthAdjust="spacing" textLength="212.96" x="27.52" y="761.5814">+instanteEmision : timestamp</text><text fill="#000000" font-family="sans-serif" font-size="14" lengthAdjust="spacing" textLength="175.4785" x="27.52" y="777.8782">+estado : EstadoEntrega</text><text fill="#000000" font-family="sans-serif" font-size="14" lengthAdjust="spacing" textLength="93.3926" x="27.52" y="794.1751">+intento : int</text><text fill="#000000" font-family="sans-serif" font-size="14" lengthAdjust="spacing" textLength="208.4824" x="27.52" y="810.472">+proximoIntento : timestamp</text><line style="stroke:#181818;stroke-width:0.5;" x1="22.52" x2="245.48" y1="817.7738" y2="817.7738"/></g><!--class EstadoEntrega--><g class="entity" data-qualified-name="domain.EstadoEntrega" data-source-line="48" id="ent0013"><rect fill="#F1F1F1" height="91.1875" rx="2.5" ry="2.5" style="stroke:#181818;stroke-width:0.5;" width="108.7031" x="79.65" y="886.77"/><text fill="#000000" font-family="sans-serif" font-size="14" lengthAdjust="spacing" textLength="102.7031" x="82.65" y="904.7651">EstadoEntrega</text><line style="stroke:#181818;stroke-width:0.5;" x1="80.65" x2="187.3531" y1="913.0669" y2="913.0669"/><text fill="#000000" font-family="sans-serif" font-size="14" lengthAdjust="spacing" textLength="79.3857" x="85.65" y="930.062">PENDIENTE</text><text fill="#000000" font-family="sans-serif" font-size="14" lengthAdjust="spacing" textLength="87.2266" x="85.65" y="946.3589">ENTREGADA</text><text fill="#000000" font-family="sans-serif" font-size="14" lengthAdjust="spacing" textLength="57.7158" x="85.65" y="962.6557">FALLIDA</text><line style="stroke:#181818;stroke-width:0.5;" x1="80.65" x2="187.3531" y1="969.9575" y2="969.9575"/></g><!--class NotificacionService--><g class="entity" data-qualified-name="modules.notificacion.NotificacionService" data-source-line="22" id="ent0009"><rect fill="#F1F1F1" height="137.75" rx="2.5" ry="2.5" style="stroke:#181818;stroke-width:0.5;" width="271.7725" x="76.11" y="216.97"/><text fill="#000000" font-family="sans-serif" font-size="12" font-style="italic" lengthAdjust="spacing" textLength="57.668" x="183.1622" y="233.1087">&#171;service&#187;</text><text fill="#000000" font-family="sans-serif" font-size="14" lengthAdjust="spacing" textLength="134.2783" x="144.8571" y="248.9339">NotificacionService</text><line style="stroke:#181818;stroke-width:0.5;" x1="77.11" x2="346.8825" y1="257.2356" y2="257.2356"/><text fill="#000000" font-family="sans-serif" font-size="14" lengthAdjust="spacing" textLength="56.8271" x="82.11" y="274.2307">-db : DB</text><text fill="#000000" font-family="sans-serif" font-size="14" lengthAdjust="spacing" textLength="219.3926" x="82.11" y="290.5276">-webhook : WebhookConnector</text><line style="stroke:#181818;stroke-width:0.5;" x1="77.11" x2="346.8825" y1="297.8294" y2="297.8294"/><text fill="#000000" font-family="sans-serif" font-size="14" lengthAdjust="spacing" textLength="259.7725" x="82.11" y="314.8245">+dispararParaAlerta(alertaId, precio)</text><text fill="#000000" font-family="sans-serif" font-size="14" lengthAdjust="spacing" textLength="214.2998" x="82.11" y="331.1214">+transmitirYActualizar(notifId)</text><text fill="#000000" font-family="sans-serif" font-size="14" lengthAdjust="spacing" textLength="176.1416" x="82.11" y="347.4182">+listarPorAlerta(alertaId)</text></g><!--class WebhookConnector--><g class="entity" data-qualified-name="modules.notificacion.WebhookConnector" data-source-line="29" id="ent0010"><rect fill="#F1F1F1" height="88.8594" rx="2.5" ry="2.5" style="stroke:#181818;stroke-width:0.5;" width="180.5605" x="132.72" y="463.57"/><text fill="#000000" font-family="sans-serif" font-size="12" font-style="italic" lengthAdjust="spacing" textLength="61.6465" x="192.177" y="479.7087">&#171;adapter&#187;</text><text fill="#000000" font-family="sans-serif" font-size="14" lengthAdjust="spacing" textLength="137.6621" x="154.1692" y="495.5339">WebhookConnector</text><line style="stroke:#181818;stroke-width:0.5;" x1="133.72" x2="312.2805" y1="503.8356" y2="503.8356"/><line style="stroke:#181818;stroke-width:0.5;" x1="133.72" x2="312.2805" y1="511.8356" y2="511.8356"/><text fill="#000000" font-family="sans-serif" font-size="14" lengthAdjust="spacing" textLength="168.5605" x="138.72" y="528.8307">+checkReachability(url)</text><text fill="#000000" font-family="sans-serif" font-size="14" lengthAdjust="spacing" textLength="164.7529" x="138.72" y="545.1276">+transmit(url, payload)</text></g><!--class startRetryWorker--><g class="entity" data-qualified-name="modules.notificacion.startRetryWorker" data-source-line="33" id="ent0011"><rect fill="#F1F1F1" height="72.5625" rx="2.5" ry="2.5" style="stroke:#181818;stroke-width:0.5;" width="127.1191" x="218.44" y="60"/><text fill="#000000" font-family="sans-serif" font-size="12" font-style="italic" lengthAdjust="spacing" textLength="57.668" x="253.1656" y="76.1387">&#171;service&#187;</text><text fill="#000000" font-family="sans-serif" font-size="14" lengthAdjust="spacing" textLength="121.1191" x="221.44" y="91.9639">startRetryWorker</text><line style="stroke:#181818;stroke-width:0.5;" x1="219.44" x2="344.5591" y1="100.2656" y2="100.2656"/><line style="stroke:#181818;stroke-width:0.5;" x1="219.44" x2="344.5591" y1="108.2656" y2="108.2656"/><text fill="#000000" font-family="sans-serif" font-size="14" lengthAdjust="spacing" textLength="47.8379" x="224.44" y="125.2607">+tick()</text></g><!--class TN--><g class="entity" data-qualified-name="persistence.TN" data-source-line="56" id="ent0015"><rect fill="#ECEFF1" height="72.5625" rx="2.5" ry="2.5" style="stroke:#181818;stroke-width:0.5;" width="213.1426" x="494.43" y="471.72"/><text fill="#000000" font-family="sans-serif" font-size="12" font-style="italic" lengthAdjust="spacing" textLength="45.0762" x="578.4632" y="487.8587">&#171;table&#187;</text><text fill="#000000" font-family="sans-serif" font-size="14" lengthAdjust="spacing" textLength="136.7188" x="532.6419" y="503.6839">tabla notificaciones</text><text fill="#000000" font-family="sans-serif" font-size="14" lengthAdjust="spacing" textLength="207.1426" x="497.43" y="519.9807">(idx estado, proximo_intento)</text><line style="stroke:#181818;stroke-width:0.5;" x1="495.43" x2="706.5726" y1="528.2825" y2="528.2825"/><line style="stroke:#181818;stroke-width:0.5;" x1="495.43" x2="706.5726" y1="536.2825" y2="536.2825"/></g><!--class TA--><g class="entity" data-qualified-name="persistence.TA" data-source-line="57" id="ent0016"><rect fill="#ECEFF1" height="56.2656" rx="2.5" ry="2.5" style="stroke:#181818;stroke-width:0.5;" width="94.0742" x="742.96" y="479.87"/><text fill="#000000" font-family="sans-serif" font-size="12" font-style="italic" lengthAdjust="spacing" textLength="45.0762" x="767.459" y="496.0087">&#171;table&#187;</text><text fill="#000000" font-family="sans-serif" font-size="14" lengthAdjust="spacing" textLength="88.0742" x="745.96" y="511.8339">tabla alertas</text><line style="stroke:#181818;stroke-width:0.5;" x1="743.96" x2="836.0342" y1="520.1356" y2="520.1356"/><line style="stroke:#181818;stroke-width:0.5;" x1="743.96" x2="836.0342" y1="528.1356" y2="528.1356"/></g><!--class TypedBus--><g class="entity" data-qualified-name="bus.TypedBus" data-source-line="61" id="ent0018"><rect fill="#F1F1F1" height="56.2656" rx="2.5" ry="2.5" style="stroke:#181818;stroke-width:0.5;" width="98.8555" x="1265.57" y="479.87"/><text fill="#000000" font-family="sans-serif" font-size="12" font-style="italic" lengthAdjust="spacing" textLength="96.8555" x="1266.57" y="496.0087">&#171;infrastructure&#187;</text><text fill="#000000" font-family="sans-serif" font-size="14" lengthAdjust="spacing" textLength="68.9951" x="1280.5002" y="511.8339">TypedBus</text><line style="stroke:#181818;stroke-width:0.5;" x1="1266.57" x2="1363.4255" y1="520.1356" y2="520.1356"/><line style="stroke:#181818;stroke-width:0.5;" x1="1266.57" x2="1363.4255" y1="528.1356" y2="528.1356"/></g><g class="entity" data-qualified-name="GMN35" data-source-line="83" id="ent0036"><path d="M1700.69,480.3 L1700.69,504 L1666.31,508 L1700.69,512 L1700.69,535.6984 A0,0 0 0 0 1700.69,535.6984 L1881.3145,535.6984 A0,0 0 0 0 1881.3145,535.6984 L1881.3145,490.3 L1871.3145,480.3 L1700.69,480.3 A0,0 0 0 0 1700.69,480.3" fill="#FEFFDD" style="stroke:#181818;stroke-width:0.5;"/><path d="M1871.3145,480.3 L1871.3145,490.3 L1881.3145,490.3 L1871.3145,480.3" fill="#FEFFDD" style="stroke:#181818;stroke-width:0.5;"/><text fill="#000000" font-family="sans-serif" font-size="13" lengthAdjust="spacing" textLength="136.9443" x="1706.69" y="497.3669">Funci&#243;n pura: facilita</text><text fill="#000000" font-family="sans-serif" font-size="13" lengthAdjust="spacing" textLength="159.6245" x="1706.69" y="512.4997">pruebas unitarias sin BD</text><text fill="#000000" font-family="sans-serif" font-size="13" lengthAdjust="spacing" textLength="41.7104" x="1706.69" y="527.6325">ni red.</text></g><g class="entity" data-qualified-name="GMN38" data-source-line="89" id="ent0039"><path d="M380.59,61.01 L380.59,92.28 L345.75,96.28 L380.59,100.28 L380.59,131.5413 A0,0 0 0 0 380.59,131.5413 L663.4118,131.5413 A0,0 0 0 0 663.4118,131.5413 L663.4118,71.01 L653.4118,61.01 L380.59,61.01 A0,0 0 0 0 380.59,61.01" fill="#FEFFDD" style="stroke:#181818;stroke-width:0.5;"/><path d="M653.4118,61.01 L653.4118,71.01 L663.4118,71.01 L653.4118,61.01" fill="#FEFFDD" style="stroke:#181818;stroke-width:0.5;"/><text fill="#000000" font-family="sans-serif" font-size="13" lengthAdjust="spacing" textLength="111.5537" x="386.59" y="78.0769">Tick configurable</text><text fill="#000000" font-family="sans-serif" font-size="13" lengthAdjust="spacing" textLength="261.8218" x="386.59" y="93.2097">(NOTIFICATION_RETRY_TICK_SECONDS).</text><text fill="#000000" font-family="sans-serif" font-size="13" lengthAdjust="spacing" textLength="183.8154" x="386.59" y="108.3425">Materializa la cola virtual de</text><text fill="#000000" font-family="sans-serif" font-size="13" lengthAdjust="spacing" textLength="223.8945" x="386.59" y="123.4753">reintentos sobre Postgres (RS-07).</text></g><!--link TypedBus to wireEvaluacion--><g class="link" data-entity-1="ent0018" data-entity-2="ent0003" data-link-type="dependency" data-source-line="64" id="lnk19"><path codeLine="64" d="M1331.8,479.73 C1347.46,456.9 1373.03,425.58 1404,409.72 C1431.08,395.84 1446.28,417.99 1472,401.72 C1500.84,383.47 1517.753,354.5577 1529.043,328.1277" fill="none" id="TypedBus-to-wireEvaluacion" style="stroke:#181818;stroke-width:1;stroke-dasharray:7,7;"/><polygon fill="#181818" points="1531.4,322.61,1524.1861,329.3152,1529.4359,327.2081,1531.543,332.4578,1531.4,322.61" style="stroke:#181818;stroke-width:1;"/><text fill="#000000" font-family="sans-serif" font-size="13" lengthAdjust="spacing" textLength="148.9414" x="1492" y="397.7869">on('PrecioActualizado')</text></g><!--link wireEvaluacion to TypedBus--><g class="link" data-entity-1="ent0003" data-entity-2="ent0018" data-link-type="dependency" data-source-line="70" id="lnk25"><path codeLine="70" d="M1419.38,310.02 C1377.79,324.34 1335.77,347.45 1311,384.72 C1292.37,412.76 1296.7595,447.1619 1304.0095,473.7119" fill="none" id="wireEvaluacion-to-TypedBus" style="stroke:#181818;stroke-width:1;stroke-dasharray:7,7;"/><polygon fill="#181818" points="1305.59,479.5,1307.0779,469.7642,1304.2729,474.6766,1299.3605,471.8716,1305.59,479.5" style="stroke:#181818;stroke-width:1;"/><text fill="#000000" font-family="sans-serif" font-size="13" lengthAdjust="spacing" textLength="151.7153" x="1312" y="397.7869">emit('AlertaDisparada')</text></g><!--link wireEvaluacion to TA--><g class="link" data-entity-1="ent0003" data-entity-2="ent0016" data-link-type="dependency" data-source-line="65" id="lnk20"><path codeLine="65" d="M1419.22,302.12 C1316.44,316.85 1167.86,343.12 1043,384.72 C968.25,409.62 892.3601,448.8474 842.6601,476.5674" fill="none" id="wireEvaluacion-to-TA" style="stroke:#181818;stroke-width:1;stroke-dasharray:7,7;"/><polygon fill="#181818" points="837.42,479.49,847.2285,478.5994,841.7867,477.0545,843.3317,471.6127,837.42,479.49" style="stroke:#181818;stroke-width:1;"/><text fill="#000000" font-family="sans-serif" font-size="13" lengthAdjust="spacing" textLength="250.6182" x="1044" y="397.7869">SELECT alertas OPERATIVAS por token</text></g><!--link wireEvaluacion to TA--><g class="link" data-entity-1="ent0003" data-entity-2="ent0016" data-link-type="dependency" data-source-line="69" id="lnk24"><path codeLine="69" d="M1419.18,298.95 C1211.56,319.68 815.84,361.93 795,384.72 C771.91,409.96 774.5886,445.9628 780.7186,473.5528" fill="none" id="wireEvaluacion-to-TA-1" style="stroke:#181818;stroke-width:1;stroke-dasharray:7,7;"/><polygon fill="#181818" points="782.02,479.41,783.9727,469.7567,780.9355,474.529,776.1632,471.4918,782.02,479.41" style="stroke:#181818;stroke-width:1;"/><text fill="#000000" font-family="sans-serif" font-size="13" lengthAdjust="spacing" textLength="194.2827" x="796" y="397.7869">UPDATE estado='DISPARADA'</text></g><!--link wireEvaluacion to evaluarAlertasContraPrecio--><g class="link" data-entity-1="ent0003" data-entity-2="ent0004" data-link-type="dependency" data-source-line="66" id="lnk21"><path codeLine="66" d="M1606.33,322.43 C1628.13,338.41 1650.12,359.42 1662,384.72 C1677.09,416.84 1656.028,444.5705 1627.558,467.5605" fill="none" id="wireEvaluacion-to-evaluarAlertasContraPrecio" style="stroke:#181818;stroke-width:1;stroke-dasharray:7,7;"/><polygon fill="#181818" points="1622.89,471.33,1632.4051,468.7877,1626.78,468.1887,1627.3791,462.5637,1622.89,471.33" style="stroke:#181818;stroke-width:1;"/></g><!--link evaluarAlertasContraPrecio to evaluarUmbral--><g class="link" data-entity-1="ent0004" data-entity-2="ent0006" data-link-type="dependency" data-source-line="67" id="lnk22"><path codeLine="67" d="M1478.64,544.63 C1447.81,556.04 1412.73,567.92 1380,576.43 C1060.01,659.61 676.5338,708.2118 494.3138,728.3218" fill="none" id="evaluarAlertasContraPrecio-to-evaluarUmbral" style="stroke:#181818;stroke-width:1;stroke-dasharray:7,7;"/><polygon fill="#181818" points="488.35,728.98,497.7345,731.9686,493.3198,728.4315,496.8569,724.0169,488.35,728.98" style="stroke:#181818;stroke-width:1;"/></g><!--link evaluarUmbral to Umbral--><g class="link" data-entity-1="ent0006" data-entity-2="ent0007" data-link-type="dependency" data-source-line="68" id="lnk23"><path codeLine="68" d="M385,777.29 C385,814.01 385,864.42 385,897.83" fill="none" id="evaluarUmbral-to-Umbral" style="stroke:#181818;stroke-width:1;stroke-dasharray:7,7;"/><polygon fill="#181818" points="385,903.83,389,894.83,385,898.83,381,894.83,385,903.83" style="stroke:#181818;stroke-width:1;"/></g><!--link wireEvaluacion to NotificacionService--><g class="link" data-entity-1="ent0003" data-entity-2="ent0009" data-link-type="dependency" data-source-line="71" id="lnk26"><path codeLine="71" d="M1424.43,249.15 C1342.8,226.07 1231.71,198.48 1131.5,186.59 C1077.21,180.15 1063.17,186.51 1008.5,186.59 C866.5,186.81 830.25,172.95 689,187.56 C572.83,199.58 448.9918,225.8293 354.2018,248.7593" fill="none" id="wireEvaluacion-to-NotificacionService" style="stroke:#181818;stroke-width:1;stroke-dasharray:7,7;"/><polygon fill="#181818" points="348.37,250.17,358.0582,251.9418,353.2298,248.9944,356.1772,244.166,348.37,250.17" style="stroke:#181818;stroke-width:1;"/><text fill="#000000" font-family="sans-serif" font-size="13" lengthAdjust="spacing" textLength="121.5386" x="1009.5" y="175.6269">dispararParaAlerta</text></g><!--link NotificacionService to TN--><g class="link" data-entity-1="ent0009" data-entity-2="ent0015" data-link-type="dependency" data-source-line="73" id="lnk27"><path codeLine="73" d="M147.29,355.06 C138.86,371.54 137.03,388.25 150,401.72 C158.25,410.29 352.37,407.2 364,409.72 C423.01,422.51 480.669,446.4975 526.899,468.6475" fill="none" id="NotificacionService-to-TN" style="stroke:#181818;stroke-width:1;stroke-dasharray:7,7;"/><polygon fill="#181818" points="532.31,471.24,525.9219,463.7439,527.8008,469.0795,522.4652,470.9585,532.31,471.24" style="stroke:#181818;stroke-width:1;"/></g><!--link NotificacionService to TA--><g class="link" data-entity-1="ent0009" data-entity-2="ent0016" data-link-type="dependency" data-source-line="74" id="lnk28"><path codeLine="74" d="M174.12,355.17 C169.79,372.22 170.66,389.19 183,401.72 C193.57,412.44 711.77,402.52 725,409.72 C752.3,424.57 767.8108,450.9076 777.7908,474.1276" fill="none" id="NotificacionService-to-TA" style="stroke:#181818;stroke-width:1;stroke-dasharray:7,7;"/><polygon fill="#181818" points="780.16,479.64,780.2811,469.7919,778.1856,475.0463,772.9312,472.9509,780.16,479.64" style="stroke:#181818;stroke-width:1;"/><text fill="#000000" font-family="sans-serif" font-size="13" lengthAdjust="spacing" textLength="142.7017" x="184" y="397.7869">UPDATE estado alerta</text></g><!--link NotificacionService to WebhookConnector--><g class="link" data-entity-1="ent0009" data-entity-2="ent0010" data-link-type="dependency" data-source-line="75" id="lnk29"><path codeLine="75" d="M114.91,355.03 C105.48,369.34 101.75,385.15 109,401.72 C119.48,425.66 133.8334,442.6549 153.2734,459.3949" fill="none" id="NotificacionService-to-WebhookConnector" style="stroke:#181818;stroke-width:1;stroke-dasharray:7,7;"/><polygon fill="#181818" points="157.82,463.31,153.6102,454.4062,154.0312,460.0474,148.39,460.4684,157.82,463.31" style="stroke:#181818;stroke-width:1;"/></g><!--link NotificacionService to TypedBus--><g class="link" data-entity-1="ent0009" data-entity-2="ent0018" data-link-type="dependency" data-source-line="76" id="lnk30"><path codeLine="76" d="M321.37,355.19 C356.92,373.93 397.44,391.8 437,401.72 C481.84,412.96 807.07,404.49 853,409.72 C1005.09,427.04 1175.3427,469.3135 1259.4627,491.7535" fill="none" id="NotificacionService-to-TypedBus" style="stroke:#181818;stroke-width:1;stroke-dasharray:7,7;"/><polygon fill="#181818" points="1265.26,493.3,1257.5951,487.1154,1260.4289,492.0113,1255.5331,494.8451,1265.26,493.3" style="stroke:#181818;stroke-width:1;"/><text fill="#000000" font-family="sans-serif" font-size="13" lengthAdjust="spacing" textLength="337.8857" x="438" y="397.7869">emit('NotificacionConfirmada' | 'NotificacionFallida')</text></g><!--link NotificacionService to Notificacion--><g class="link" data-entity-1="ent0009" data-entity-2="ent0012" data-link-type="dependency" data-source-line="77" id="lnk31"><path codeLine="77" d="M120.85,355.02 C113.31,364.18 106.76,374.11 102,384.72 C63.31,470.93 80.5244,574.8458 102.0344,649.2858" fill="none" id="NotificacionService-to-Notificacion" style="stroke:#181818;stroke-width:1;stroke-dasharray:7,7;"/><polygon fill="#181818" points="103.7,655.05,105.0444,645.2933,102.312,650.2465,97.3588,647.5141,103.7,655.05" style="stroke:#181818;stroke-width:1;"/></g><!--link Notificacion to EstadoEntrega--><g class="link" data-entity-1="ent0012" data-entity-2="ent0013" data-link-type="dependency" data-source-line="78" id="lnk32"><path codeLine="78" d="M134,826.22 C134,846.97 134,862.39 134,880.44" fill="none" id="Notificacion-to-EstadoEntrega" style="stroke:#181818;stroke-width:1;"/><polygon fill="#181818" points="134,886.44,138,877.44,134,881.44,130,877.44,134,886.44" style="stroke:#181818;stroke-width:1;"/></g><!--link startRetryWorker to TN--><g class="link" data-entity-1="ent0011" data-entity-2="ent0015" data-link-type="dependency" data-source-line="79" id="lnk33"><path codeLine="79" d="M345.83,130.1 C455.44,187.98 671.43,309.19 710,384.72 C726.82,417.64 703.3438,445.2028 671.3438,467.7628" fill="none" id="startRetryWorker-to-TN" style="stroke:#181818;stroke-width:1;stroke-dasharray:7,7;"/><polygon fill="#181818" points="666.44,471.22,676.1006,469.3034,670.5265,468.339,671.491,462.765,666.44,471.22" style="stroke:#181818;stroke-width:1;"/><text fill="#000000" font-family="sans-serif" font-size="13" lengthAdjust="spacing" textLength="187.3447" x="686" y="290.4069">SELECT pendientes vencidas</text></g><!--link startRetryWorker to NotificacionService--><g class="link" data-entity-1="ent0011" data-entity-2="ent0009" data-link-type="dependency" data-source-line="80" id="lnk34"><path codeLine="80" d="M268.67,133 C259.86,156.6 250.138,182.6588 239.568,210.9788" fill="none" id="startRetryWorker-to-NotificacionService" style="stroke:#181818;stroke-width:1;stroke-dasharray:7,7;"/><polygon fill="#181818" points="237.47,216.6,244.3645,209.5668,239.2184,211.9156,236.8696,206.7695,237.47,216.6" style="stroke:#181818;stroke-width:1;"/><text fill="#000000" font-family="sans-serif" font-size="13" lengthAdjust="spacing" textLength="136.3921" x="258" y="175.6269">transmitirYActualizar</text></g><?plantuml-src ZLR1RkCs4BthAuZqO1lTfDjJ0MCRGB7bGcZg6BRInQ8j0eeSsuGbKY2fPBFjVbK_eJ_MeIIhb2m5zK6GE3DltWmvZpOd8GkgQKxCaNBr8kI1x6bc832jXMNKcD1QBTBIGioKt8alGDu7Hy61CA5P1a5GK7QY1o1NkU9b1kOxUAPPIPbGyehy6H3yLK3aHMY8MXlvyE589Sz0tzusRkxtBL5oEjbeG9-GsP9cuWlocxmZ1NtD5EMpolMhXrldqo52MMeMIbfDQm3CKPGQUWccjFP4oCfhHkP4SFFR7mtoLwychd8gUdKq-HxpLDDi94LP6VqCgL8PK7d1leLng8ZJINzkgLHMx0KRQEhQi-n0Fmi6Y6NgjmwhQy9JvB6yyrPU83qgTSBbZ_KRTay2iqfxnN1Xt7dG6tpKJMuw6FEsGCyTkozDBgpGdzeDrDEgWfZxZfam5b6Lxe5Uxd2V75P8EItinTbXHs2dBL1sfAd8X7sTbZeR8kVMtpXIZfZTWjMl7vK-WHvfAU89TfhE_kV1yVSA4K5QPDW351mtu_4nNdfhvyPSMkhkB-iDujYOELcNEMZ1V4Y9vKWBKIwCopn7rZdWMbvuNcw1ApH6rKk4KmG7se6noDXvu5k7W_eiSXMtvYvwtLQGPTv5zghUHEjb7AsJg5t1ZstqKxWCsvLLU7yVDz_TJXUW3Puaa0owxRwoDCqeyMS7pEzoAlZdfjftP_9FJN6pAq8DITQuEoxOxVOtqI9QhRw_n6rKf8u81o9yacbfkkIIrmBuNMamJiYzfiRg4gT5DmhGcczkRll2EH-Ho5dGStIno6nETj5zj4ZEZCd39jg6IVnhk2C5dXchJY27OiU5DNX3Sxt8Mjk2hc0wUsCOu_kuMOP9r6pIZvDblDk4MpmDay68Swlc1DnaJsfIvw6WmtqPqitvWDG5mP1dbNSzRheeekdzQCI5_8v2zwlr7J5yBtJkYYP_aOvfHRDCLCqOG_RNEqxa-lgsfmeN-bWtvB-ZLe3a0YSA37d6oSJCPZXeU1y6xv0Wm546eiNXQ8dQltKyKIzApFhFtvBWxKpd-DU6kVl0wLcXIqXn2ag9trhWcn6It3bPbO9eu3S1adUo0VsC_Gem9C4BW33NzmCcGW70jUdw8ObNyG9dx67zj8sIxQUd95xy_BIB5W_hvMvsWqw_KBo-H5KPGJLX2X_FGhjY2NSe6XfHGe8grK0sojY3nevEjxlhzp_CF9x_0W00?></g></svg>