<svg xmlns="http://www.w3.org/2000/svg" xmlns:xlink="http://www.w3.org/1999/xlink" contentStyleType="text/css" data-diagram-type="DESCRIPTION" height="464px" preserveAspectRatio="none" style="width:240px;height:464px;background:#FFFFFF;" version="1.1" viewBox="0 0 240 464" width="240px" zoomAndPan="magnify"><?plantuml 1.2026.3beta6?><defs/><g><!--cluster Sistema--><g class="cluster" data-qualified-name="Sistema" data-source-line="7" id="ent0005"><rect fill="none" height="443" rx="2.5" ry="2.5" style="stroke:#181818;stroke-width:1;" width="78" x="76.5" y="7"/><text fill="#000000" font-family="sans-serif" font-size="14" font-weight="700" lengthAdjust="spacing" textLength="63.4375" x="83.7813" y="21.9951">Sistema</text></g><!--entity CU01--><g class="entity" data-qualified-name="Sistema.CU01" data-source-line="8" id="ent0006"><ellipse cx="115" cy="360" fill="#F1F1F1" rx="15.5" ry="13" style="stroke:#181818;stroke-width:0.5;"/><text fill="#000000" font-family="sans-serif" font-size="14" lengthAdjust="spacing" textLength="0" x="115" y="346.5">CU-01</text><text fill="#000000" font-family="sans-serif" font-size="14" lengthAdjust="spacing" textLength="0" x="115" y="356.5">Consultar</text><text fill="#000000" font-family="sans-serif" font-size="14" lengthAdjust="spacing" textLength="0" x="115" y="366.5">leaderboard</text></g><!--entity CU02--><g class="entity" data-qualified-name="Sistema.CU02" data-source-line="9" id="ent0007"><ellipse cx="115" cy="238" fill="#F1F1F1" rx="15.5" ry="13" style="stroke:#181818;stroke-width:0.5;"/><text fill="#000000" font-family="sans-serif" font-size="14" lengthAdjust="spacing" textLength="0" x="115" y="224.5">CU-02</text><text fill="#000000" font-family="sans-serif" font-size="14" lengthAdjust="spacing" textLength="0" x="115" y="234.5">Crear</text><text fill="#000000" font-family="sans-serif" font-size="14" lengthAdjust="spacing" textLength="0" x="115" y="244.5">entidad</text></g><!--entity CU03--><g class="entity" data-qualified-name="Sistema.CU03" data-source-line="10" id="ent0008"><ellipse cx="115" cy="177" fill="#F1F1F1" rx="15.5" ry="13" style="stroke:#181818;stroke-width:0.5;"/><text fill="#000000" font-family="sans-serif" font-size="14" lengthAdjust="spacing" textLength="0" x="115" y="163.5">CU-03</text><text fill="#000000" font-family="sans-serif" font-size="14" lengthAdjust="spacing" textLength="0" x="115" y="173.5">Gestionar</text><text fill="#000000" font-family="sans-serif" font-size="14" lengthAdjust="spacing" textLength="0" x="115" y="183.5">entidades</text></g><!--entity CU04--><g class="entity" data-qualified-name="Sistema.CU04" data-source-line="11" id="ent0009"><ellipse cx="115" cy="116" fill="#F1F1F1" rx="15.5" ry="13" style="stroke:#181818;stroke-width:0.5;"/><text fill="#000000" font-family="sans-serif" font-size="14" lengthAdjust="spacing" textLength="0" x="115" y="102.5">CU-04</text><text fill="#000000" font-family="sans-serif" font-size="14" lengthAdjust="spacing" textLength="0" x="115" y="112.5">Configurar</text><text fill="#000000" font-family="sans-serif" font-size="14" lengthAdjust="spacing" textLength="0" x="115" y="122.5">alerta</text></g><!--entity CU05--><g class="entity" data-qualified-name="Sistema.CU05" data-source-line="12" id="ent0010"><ellipse cx="115" cy="299" fill="#F1F1F1" rx="15.5" ry="13" style="stroke:#181818;stroke-width:0.5;"/><text fill="#000000" font-family="sans-serif" font-size="14" lengthAdjust="spacing" textLength="0" x="115" y="285.5">CU-05</text><text fill="#000000" font-family="sans-serif" font-size="14" lengthAdjust="spacing" textLength="0" x="115" y="295.5">Gestionar</text><text fill="#000000" font-family="sans-serif" font-size="14" lengthAdjust="spacing" textLength="0" x="115" y="305.5">alertas</text></g><!--entity CU06--><g class="entity" data-qualified-name="Sistema.CU06" data-source-line="13" id="ent0011"><ellipse cx="115" cy="421" fill="#F1F1F1" rx="15.5" ry="13" style="stroke:#181818;stroke-width:0.5;"/><text fill="#000000" font-family="sans-serif" font-size="14" lengthAdjust="spacing" textLength="0" x="115" y="407.5">CU-06</text><text fill="#000000" font-family="sans-serif" font-size="14" lengthAdjust="spacing" textLength="0" x="115" y="417.5">Evaluar</text><text fill="#000000" font-family="sans-serif" font-size="14" lengthAdjust="spacing" textLength="0" x="115" y="427.5">alertas</text></g><!--entity CU07--><g class="entity" data-qualified-name="Sistema.CU07" data-source-line="14" id="ent0012"><ellipse cx="115" cy="55" fill="#F1F1F1" rx="15.5" ry="13" style="stroke:#181818;stroke-width:0.5;"/><text fill="#000000" font-family="sans-serif" font-size="14" lengthAdjust="spacing" textLength="0" x="115" y="41.5">CU-07</text><text fill="#000000" font-family="sans-serif" font-size="14" lengthAdjust="spacing" textLength="0" x="115" y="51.5">Enviar</text><text fill="#000000" font-family="sans-serif" font-size="14" lengthAdjust="spacing" textLength="0" x="115" y="61.5">notificacion</text></g><!--entity U--><g class="entity" data-qualified-name="U" data-source-line="3" id="ent0002"><ellipse cx="19" cy="211.5" fill="#F1F1F1" rx="8" ry="8" style="stroke:#181818;stroke-width:0.5;"/><path d="M19,219.5 L19,246.5 M6,227.5 L32,227.5 M19,246.5 L6,261.5 M19,246.5 L32,261.5" fill="none" style="stroke:#181818;stroke-width:0.5;"/><text fill="#000000" font-family="sans-serif" font-size="14" lengthAdjust="spacing" textLength="0" x="19" y="263">Usuario</text></g><!--entity HL--><g class="entity" data-qualified-name="HL" data-source-line="4" id="ent0003"><ellipse cx="19" cy="363.5" fill="#F1F1F1" rx="8" ry="8" style="stroke:#181818;stroke-width:0.5;"/><path d="M19,371.5 L19,398.5 M6,379.5 L32,379.5 M19,398.5 L6,413.5 M19,398.5 L32,413.5" fill="none" style="stroke:#181818;stroke-width:0.5;"/><text fill="#000000" font-family="sans-serif" font-size="14" lengthAdjust="spacing" textLength="0" x="19" y="415">Hyperliquid L1</text></g><!--entity SW--><g class="entity" data-qualified-name="SW" data-source-line="5" id="ent0004"><ellipse cx="212" cy="28.5" fill="#F1F1F1" rx="8" ry="8" style="stroke:#181818;stroke-width:0.5;"/><path d="M212,36.5 L212,63.5 M199,44.5 L225,44.5 M212,63.5 L199,78.5 M212,63.5 L225,78.5" fill="none" style="stroke:#181818;stroke-width:0.5;"/><text fill="#000000" font-family="sans-serif" font-size="14" lengthAdjust="spacing" textLength="0" x="212" y="80">Servicio Webhook</text></g><!--link U to CU01--><g class="link" data-entity-1="ent0002" data-entity-2="ent0006" data-link-type="dependency" data-source-line="17" id="lnk13"><path d="M32.97,271.14 C41.26,289.55 53.32,312.08 68.5,329 C77.82,339.39 86.0666,345.0934 95.9366,350.5834" fill="none" id="U-to-CU01" style="stroke:#181818;stroke-width:1;"/><polygon fill="#181818" points="101.18,353.5,95.2592,345.6295,96.8105,351.0695,91.3705,352.6208,101.18,353.5" style="stroke:#181818;stroke-width:1;"/></g><!--link U to CU02--><g class="link" data-entity-1="ent0002" data-entity-2="ent0007" data-link-type="dependency" data-source-line="18" id="lnk14"><path d="M32.68,238 C49.92,238 74.7,238 93.05,238" fill="none" id="U-to-CU02" style="stroke:#181818;stroke-width:1;"/><polygon fill="#181818" points="99.05,238,90.05,234,94.05,238,90.05,242,99.05,238" style="stroke:#181818;stroke-width:1;"/></g><!--link U to CU03--><g class="link" data-entity-1="ent0002" data-entity-2="ent0008" data-link-type="dependency" data-source-line="19" id="lnk15"><path d="M32.68,229.77 C50.92,217.94 79.2976,199.5272 97.0876,187.9772" fill="none" id="U-to-CU03" style="stroke:#181818;stroke-width:1;"/><polygon fill="#181818" points="102.12,184.71,92.3932,186.2559,97.9263,187.4327,96.7496,192.9658,102.12,184.71" style="stroke:#181818;stroke-width:1;"/></g><!--link U to CU04--><g class="link" data-entity-1="ent0002" data-entity-2="ent0009" data-link-type="dependency" data-source-line="20" id="lnk16"><path d="M32.97,204.86 C41.26,186.45 53.32,163.92 68.5,147 C77.82,136.61 86.0666,130.9066 95.9366,125.4166" fill="none" id="U-to-CU04" style="stroke:#181818;stroke-width:1;"/><polygon fill="#181818" points="101.18,122.5,91.3705,123.3792,96.8105,124.9305,95.2592,130.3705,101.18,122.5" style="stroke:#181818;stroke-width:1;"/></g><!--link U to CU05--><g class="link" data-entity-1="ent0002" data-entity-2="ent0010" data-link-type="dependency" data-source-line="21" id="lnk17"><path d="M32.68,246.23 C50.92,258.06 79.2976,276.4728 97.0876,288.0228" fill="none" id="U-to-CU05" style="stroke:#181818;stroke-width:1;"/><polygon fill="#181818" points="102.12,291.29,96.7496,283.0342,97.9263,288.5673,92.3932,289.7441,102.12,291.29" style="stroke:#181818;stroke-width:1;"/></g><!--link HL to CU01--><g class="link" data-entity-1="ent0003" data-entity-2="ent0006" data-link-type="dependency" data-source-line="23" id="lnk18"><path d="M32.68,385.95 C50.22,380.36 76.0636,372.1028 94.2836,366.2928" fill="none" id="HL-to-CU01" style="stroke:#181818;stroke-width:1;"/><polygon fill="#181818" points="100,364.47,90.2102,363.3933,95.2363,365.989,92.6406,371.0152,100,364.47" style="stroke:#181818;stroke-width:1;"/></g><!--link HL to CU06--><g class="link" data-entity-1="ent0003" data-entity-2="ent0011" data-link-type="dependency" data-source-line="24" id="lnk19"><path d="M32.68,394.18 C50.22,399.97 76.082,408.4905 94.302,414.5005" fill="none" id="HL-to-CU06" style="stroke:#181818;stroke-width:1;"/><polygon fill="#181818" points="100,416.38,92.706,409.762,95.2517,414.8137,90.2,417.3594,100,416.38" style="stroke:#181818;stroke-width:1;"/></g><!--link CU07 to SW--><g class="link" data-entity-1="ent0012" data-entity-2="ent0004" data-link-type="dependency" data-source-line="26" id="lnk20"><path d="M130.84,55 C149.32,55 174.56,55 192.09,55" fill="none" id="CU07-to-SW" style="stroke:#181818;stroke-width:1;"/><polygon fill="#181818" points="198.09,55,189.09,51,193.09,55,189.09,59,198.09,55" style="stroke:#181818;stroke-width:1;"/></g><?plantuml-src RT2xReGm40NGtbzXqICjp-tIe2WKT0ZHqCp2m8xYs8aVI56KVmzc1IGetSLpvifOu6YvLLpJTBTy88sz9IKPWzugpOF6ED2a0Ww6DzjX-VcEMj27eu5NqJehgsrOevwf9yLRlDsLUbt7TSkOhmOv2LmC6Ojl4F0lnhaps8DPJeicl4ITB9GqJbZGdHG80-gR0ZsiDKLpYSuRyRAXqMkKbWROPNoMIITVqFZV-wNHR3uv-tIzoqYJqtu116eBcqxFEllJ_i1xTtRMUIUVPn3k7vkVxNMnSYPFfR8qKW_B-yhDNzatOmqFmwV7--mnFc9onFI86MDbTImUEMVC5w-VTVi3?></g></svg>