<svg xmlns="http://www.w3.org/2000/svg" xmlns:xlink="http://www.w3.org/1999/xlink" contentStyleType="text/css" data-diagram-type="DESCRIPTION" height="532px" preserveAspectRatio="none" style="width:550px;height:532px;background:#FFFFFF;" version="1.1" viewBox="0 0 550 532" width="550px" zoomAndPan="magnify"><?plantuml 1.2026.3beta6?><defs/><g><!--cluster Sistema--><g class="cluster" data-qualified-name="Sistema" data-source-line="7" id="ent0005"><path d="M154.04,6 L218.4775,6 A3.75,3.75 0 0 1 220.9775,8.5 L227.9775,28.2969 L363.53,28.2969 A2.5,2.5 0 0 1 366.03,30.7969 L366.03,514.5 A2.5,2.5 0 0 1 363.53,517 L154.04,517 A2.5,2.5 0 0 1 151.54,514.5 L151.54,8.5 A2.5,2.5 0 0 1 154.04,6" fill="none" style="stroke:#000000;stroke-width:1.5;"/><line style="stroke:#000000;stroke-width:1.5;" x1="151.54" x2="227.9775" y1="28.2969" y2="28.2969"/><text fill="#000000" font-family="sans-serif" font-size="14" font-weight="700" lengthAdjust="spacing" textLength="63.4375" x="155.54" y="20.9951">Sistema</text></g><!--entity CU01--><g class="entity" data-qualified-name="Sistema.CU01" data-source-line="8" id="ent0006"><ellipse cx="258.7864" cy="412.9993" fill="#F1F1F1" rx="91.2464" ry="20.6493" style="stroke:#181818;stroke-width:0.5;"/><text fill="#000000" font-family="sans-serif" font-size="14" lengthAdjust="spacing" textLength="156.5566" x="180.508" y="417.6477">Consultar leaderboard</text></g><!--entity CU02--><g class="entity" data-qualified-name="Sistema.CU02" data-source-line="9" id="ent0007"><ellipse cx="258.7859" cy="272.0032" fill="#F1F1F1" rx="66.0159" ry="15.6032" style="stroke:#181818;stroke-width:0.5;"/><text fill="#000000" font-family="sans-serif" font-size="14" lengthAdjust="spacing" textLength="96.1475" x="210.7122" y="276.6516">Crear entidad</text></g><!--entity CU03--><g class="entity" data-qualified-name="Sistema.CU03" data-source-line="10" id="ent0008"><ellipse cx="258.7852" cy="201.997" fill="#F1F1F1" rx="84.6352" ry="19.327" style="stroke:#181818;stroke-width:0.5;"/><text fill="#000000" font-family="sans-serif" font-size="14" lengthAdjust="spacing" textLength="141.4834" x="188.0435" y="206.6455">Gestionar entidades</text></g><!--entity CU04--><g class="entity" data-qualified-name="Sistema.CU04" data-source-line="11" id="ent0009"><ellipse cx="258.791" cy="130.0022" fill="#F1F1F1" rx="75.211" ry="17.4422" style="stroke:#181818;stroke-width:0.5;"/><text fill="#000000" font-family="sans-serif" font-size="14" lengthAdjust="spacing" textLength="119.2393" x="199.1714" y="134.6506">Configurar alerta</text></g><!--entity CU05--><g class="entity" data-qualified-name="Sistema.CU05" data-source-line="12" id="ent0010"><ellipse cx="258.7866" cy="340.0013" fill="#F1F1F1" rx="75.7566" ry="17.5513" style="stroke:#181818;stroke-width:0.5;"/><text fill="#000000" font-family="sans-serif" font-size="14" lengthAdjust="spacing" textLength="120.5586" x="198.5073" y="344.6498">Gestionar alertas</text></g><!--entity CU06--><g class="entity" data-qualified-name="Sistema.CU06" data-source-line="13" id="ent0011"><ellipse cx="258.7854" cy="484.9971" fill="#F1F1F1" rx="69.6354" ry="16.3271" style="stroke:#181818;stroke-width:0.5;"/><text fill="#000000" font-family="sans-serif" font-size="14" lengthAdjust="spacing" textLength="105.458" x="206.0564" y="489.6455">Evaluar alertas</text></g><!--entity CU07--><g class="entity" data-qualified-name="Sistema.CU07" data-source-line="14" id="ent0012"><ellipse cx="258.7907" cy="59.0001" fill="#F1F1F1" rx="79.5507" ry="18.3101" style="stroke:#181818;stroke-width:0.5;"/><text fill="#000000" font-family="sans-serif" font-size="14" lengthAdjust="spacing" textLength="129.6162" x="193.9826" y="63.6486">Enviar notificacion</text></g><!--entity U--><g class="entity" data-qualified-name="U" data-source-line="3" id="ent0002"><ellipse cx="56.7721" cy="242.35" fill="#F1F1F1" rx="8" ry="8" style="stroke:#181818;stroke-width:0.5;"/><path d="M56.7721,250.35 L56.7721,277.35 M43.7721,258.35 L69.7721,258.35 M56.7721,277.35 L43.7721,292.35 M56.7721,277.35 L69.7721,292.35" fill="none" style="stroke:#181818;stroke-width:0.5;"/><text fill="#000000" font-family="sans-serif" font-size="14" lengthAdjust="spacing" textLength="53.2041" x="30.17" y="306.8451">Usuario</text></g><!--entity HL--><g class="entity" data-qualified-name="HL" data-source-line="4" id="ent0003"><ellipse cx="56.7705" cy="419.35" fill="#F1F1F1" rx="8" ry="8" style="stroke:#181818;stroke-width:0.5;"/><path d="M56.7705,427.35 L56.7705,454.35 M43.7705,435.35 L69.7705,435.35 M56.7705,454.35 L43.7705,469.35 M56.7705,454.35 L69.7705,469.35" fill="none" style="stroke:#181818;stroke-width:0.5;"/><text fill="#000000" font-family="sans-serif" font-size="14" lengthAdjust="spacing" textLength="101.541" x="6" y="483.8451">Hyperliquid L1</text></g><!--entity SW--><g class="entity" data-qualified-name="SW" data-source-line="5" id="ent0004"><ellipse cx="472.7737" cy="29.35" fill="#F1F1F1" rx="8" ry="8" style="stroke:#181818;stroke-width:0.5;"/><path d="M472.7737,37.35 L472.7737,64.35 M459.7737,45.35 L485.7737,45.35 M472.7737,64.35 L459.7737,79.35 M472.7737,64.35 L485.7737,79.35" fill="none" style="stroke:#181818;stroke-width:0.5;"/><text fill="#000000" font-family="sans-serif" font-size="14" lengthAdjust="spacing" textLength="125.4873" x="410.03" y="93.8451">Servicio Webhook</text></g><!--link U to CU01--><g class="link" data-entity-1="ent0002" data-entity-2="ent0006" data-link-type="dependency" data-source-line="17" id="lnk13"><path d="M81.85,310.4 C97.16,332.06 118.74,358.08 143.54,375 C158.3,385.07 170.2556,390.7697 187.2156,396.3997" fill="none" id="U-to-CU01" style="stroke:#181818;stroke-width:1;"/><polygon fill="#181818" points="192.91,398.29,185.6285,391.6582,188.1646,396.7147,183.1081,399.2508,192.91,398.29" style="stroke:#181818;stroke-width:1;"/></g><!--link U to CU02--><g class="link" data-entity-1="ent0002" data-entity-2="ent0007" data-link-type="dependency" data-source-line="18" id="lnk14"><path d="M83.51,272 C110.94,272 149.46,272 186.63,272" fill="none" id="U-to-CU02" style="stroke:#181818;stroke-width:1;"/><polygon fill="#181818" points="192.63,272,183.63,268,187.63,272,183.63,276,192.63,272" style="stroke:#181818;stroke-width:1;"/></g><!--link U to CU03--><g class="link" data-entity-1="ent0002" data-entity-2="ent0008" data-link-type="dependency" data-source-line="19" id="lnk15"><path d="M83.53,261.67 C100.5,254.97 123.24,246.19 143.54,239 C164.28,231.66 181.6046,225.9158 201.5446,219.5458" fill="none" id="U-to-CU03" style="stroke:#181818;stroke-width:1;"/><polygon fill="#181818" points="207.26,217.72,197.4696,216.6485,202.4971,219.2415,199.9041,224.2691,207.26,217.72" style="stroke:#181818;stroke-width:1;"/></g><!--link U to CU04--><g class="link" data-entity-1="ent0002" data-entity-2="ent0009" data-link-type="dependency" data-source-line="20" id="lnk16"><path d="M80.34,233.43 C95.55,210.54 117.54,182.65 143.54,165 C159.93,153.88 174.2255,147.8096 192.9355,142.5296" fill="none" id="U-to-CU04" style="stroke:#181818;stroke-width:1;"/><polygon fill="#181818" points="198.71,140.9,188.9619,139.4947,193.8979,142.258,191.1347,147.194,198.71,140.9" style="stroke:#181818;stroke-width:1;"/></g><!--link U to CU05--><g class="link" data-entity-1="ent0002" data-entity-2="ent0010" data-link-type="dependency" data-source-line="21" id="lnk17"><path d="M83.5,282.44 C100.44,289.18 123.18,297.97 143.54,305 C165.21,312.48 183.7124,318.298 204.2724,324.458" fill="none" id="U-to-CU05" style="stroke:#181818;stroke-width:1;"/><polygon fill="#181818" points="210.02,326.18,202.5467,319.7652,205.2304,324.745,200.2506,327.4287,210.02,326.18" style="stroke:#181818;stroke-width:1;"/></g><!--link HL to CU01--><g class="link" data-entity-1="ent0003" data-entity-2="ent0006" data-link-type="dependency" data-source-line="23" id="lnk18"><path d="M107.99,439.96 C131.71,435.69 154.5449,431.5831 180.4849,426.9131" fill="none" id="HL-to-CU01" style="stroke:#181818;stroke-width:1;"/><polygon fill="#181818" points="186.39,425.85,176.8237,423.5079,181.4691,426.7359,178.2411,431.3814,186.39,425.85" style="stroke:#181818;stroke-width:1;"/></g><!--link HL to CU06--><g class="link" data-entity-1="ent0003" data-entity-2="ent0011" data-link-type="dependency" data-source-line="24" id="lnk19"><path d="M107.99,458.04 C136.8,463.22 167.115,468.6767 196.715,474.0067" fill="none" id="HL-to-CU06" style="stroke:#181818;stroke-width:1;"/><polygon fill="#181818" points="202.62,475.07,194.4713,469.5384,197.6991,474.1839,193.0536,477.4117,202.62,475.07" style="stroke:#181818;stroke-width:1;"/></g><!--link CU07 to SW--><g class="link" data-entity-1="ent0012" data-entity-2="ent0004" data-link-type="dependency" data-source-line="26" id="lnk20"><path d="M338.72,59 C362.15,59 381.47,59 403.66,59" fill="none" id="CU07-to-SW" style="stroke:#181818;stroke-width:1;"/><polygon fill="#181818" points="409.66,59,400.66,55,404.66,59,400.66,63,409.66,59" style="stroke:#181818;stroke-width:1;"/></g><?plantuml-src RT2xRiCm30NGdLz1P0_GFBjr2Ofwy6OOdXcPTeYeKgg7WQBelrTnO2jfkrs9XnGepLt0OD59VmhOYcCLn1e0Ki4wNDG-aXExGF9OJvV5vuMTbeyeBPQhiLQKKx5YDuWIYmqVJzQUntBL05n8dQdd9CG7VgS5VW5YzAp8fzk3DJxgG0urKylkQCcrO_EXVbezICT9iGdIqYpMz-AD_NMBhDXFRlFhpKxww18apIxGfBR_JxkXUTRkNhqEfEDVitymPf14Z0tIYQBqIsPop_0DKEDo-NBRTuxh73SvRdFS0HHbRinv3t0TF1whvWS0?></g></svg>