<?plantuml 1.2026.1?><svg xmlns="http://www.w3.org/2000/svg" xmlns:xlink="http://www.w3.org/1999/xlink" contentStyleType="text/css" data-diagram-type="DESCRIPTION" height="1332px" preserveAspectRatio="none" style="width:525px;height:1332px;background:#FFFFFF;" version="1.1" viewBox="0 0 525 1332" width="525px" zoomAndPan="magnify"><defs/><g><!--cluster Sistema--><g class="cluster" data-qualified-name="Sistema" data-source-line="8" id="ent0005"><rect fill="none" height="1319" rx="2.5" ry="2.5" style="stroke:#181818;stroke-width:1;" width="197.32" x="151.54" y="7"/><text fill="#000000" font-family="sans-serif" font-size="14" font-weight="bold" lengthAdjust="spacing" textLength="63.4375" x="218.4813" y="21.9951">Sistema</text></g><!--entity UC01--><g class="entity" data-qualified-name="Sistema.UC01" data-source-line="9" id="ent0006"><ellipse cx="250.1979" cy="1067.0045" fill="#F1F1F1" rx="57.7979" ry="34.5145" style="stroke:#181818;stroke-width:0.5;"/><text fill="#000000" font-family="sans-serif" font-size="14" lengthAdjust="spacing" textLength="42.8887" x="228.7535" y="1050.8002">CU-01</text><text fill="#000000" font-family="sans-serif" font-size="14" lengthAdjust="spacing" textLength="67.0947" x="216.6505" y="1067.0971">Consultar</text><text fill="#000000" font-family="sans-serif" font-size="14" lengthAdjust="spacing" textLength="85.0117" x="207.692" y="1083.394">leaderboard</text></g><!--entity UC02--><g class="entity" data-qualified-name="Sistema.UC02" data-source-line="11" id="ent0007"><ellipse cx="250.1968" cy="374.9976" fill="#F1F1F1" rx="64.5568" ry="23.8676" style="stroke:#181818;stroke-width:0.5;"/><text fill="#000000" font-family="sans-serif" font-size="14" lengthAdjust="spacing" textLength="42.8887" x="228.7524" y="368.2341">CU-02</text><text fill="#000000" font-family="sans-serif" font-size="14" lengthAdjust="spacing" textLength="96.1475" x="202.123" y="384.5309">Crear entidad</text></g><!--entity UC03--><g class="entity" data-qualified-name="Sistema.UC03" data-source-line="12" id="ent0008"><ellipse cx="250.1957" cy="457.9971" fill="#F1F1F1" rx="71.4557" ry="23.7671" style="stroke:#181818;stroke-width:0.5;"/><text fill="#000000" font-family="sans-serif" font-size="14" lengthAdjust="spacing" textLength="42.8887" x="228.7514" y="451.0721">CU-03</text><text fill="#000000" font-family="sans-serif" font-size="14" lengthAdjust="spacing" textLength="107.4404" x="196.4755" y="467.369">Abrir entidades</text></g><!--entity UC04--><g class="entity" data-qualified-name="Sistema.UC04" data-source-line="13" id="ent0009"><ellipse cx="250.1955" cy="540.9978" fill="#F1F1F1" rx="66.3655" ry="23.8378" style="stroke:#181818;stroke-width:0.5;"/><text fill="#000000" font-family="sans-serif" font-size="14" lengthAdjust="spacing" textLength="42.8887" x="228.7512" y="534.1864">CU-04</text><text fill="#000000" font-family="sans-serif" font-size="14" lengthAdjust="spacing" textLength="99.1143" x="200.6384" y="550.4833">Editar entidad</text></g><!--entity UC05--><g class="entity" data-qualified-name="Sistema.UC05" data-source-line="14" id="ent0010"><ellipse cx="250.1995" cy="623.9959" fill="#F1F1F1" rx="76.1095" ry="23.7159" style="stroke:#181818;stroke-width:0.5;"/><text fill="#000000" font-family="sans-serif" font-size="14" lengthAdjust="spacing" textLength="42.8887" x="228.7552" y="616.9881">CU-05</text><text fill="#000000" font-family="sans-serif" font-size="14" lengthAdjust="spacing" textLength="115.0283" x="192.6854" y="633.2849">Eliminar entidad</text></g><!--entity UC06--><g class="entity" data-qualified-name="Sistema.UC06" data-source-line="16" id="ent0011"><ellipse cx="250.2044" cy="706.003" fill="#F1F1F1" rx="75.4044" ry="23.723" style="stroke:#181818;stroke-width:0.5;"/><text fill="#000000" font-family="sans-serif" font-size="14" lengthAdjust="spacing" textLength="42.8887" x="228.76" y="699.0066">CU-06</text><text fill="#000000" font-family="sans-serif" font-size="14" lengthAdjust="spacing" textLength="113.8799" x="193.2644" y="715.3035">A&#241;adir direcci&#243;n</text></g><!--entity UC07--><g class="entity" data-qualified-name="Sistema.UC07" data-source-line="17" id="ent0012"><ellipse cx="250.2012" cy="787.998" fill="#F1F1F1" rx="77.9912" ry="23.698" style="stroke:#181818;stroke-width:0.5;"/><text fill="#000000" font-family="sans-serif" font-size="14" lengthAdjust="spacing" textLength="42.8887" x="228.7568" y="780.9612">CU-07</text><text fill="#000000" font-family="sans-serif" font-size="14" lengthAdjust="spacing" textLength="118.0908" x="191.1558" y="797.2581">Abrir direcciones</text></g><!--entity UC08--><g class="entity" data-qualified-name="Sistema.UC08" data-source-line="18" id="ent0013"><ellipse cx="250.2003" cy="869.9993" fill="#F1F1F1" rx="82.6603" ry="23.6593" style="stroke:#181818;stroke-width:0.5;"/><text fill="#000000" font-family="sans-serif" font-size="14" lengthAdjust="spacing" textLength="42.8887" x="228.756" y="862.8995">CU-08</text><text fill="#000000" font-family="sans-serif" font-size="14" lengthAdjust="spacing" textLength="125.6787" x="187.361" y="879.1964">Eliminar direcci&#243;n</text></g><!--entity UC09--><g class="entity" data-qualified-name="Sistema.UC09" data-source-line="20" id="ent0014"><ellipse cx="250.2024" cy="962.9955" fill="#F1F1F1" rx="73.4624" ry="34.1155" style="stroke:#181818;stroke-width:0.5;"/><text fill="#000000" font-family="sans-serif" font-size="14" lengthAdjust="spacing" textLength="42.8887" x="228.7581" y="946.1529">CU-09</text><text fill="#000000" font-family="sans-serif" font-size="14" lengthAdjust="spacing" textLength="38.4795" x="230.9627" y="962.4497">Crear</text><text fill="#000000" font-family="sans-serif" font-size="14" lengthAdjust="spacing" textLength="110.7148" x="194.845" y="978.7466">alerta de precio</text></g><!--entity UC10--><g class="entity" data-qualified-name="Sistema.UC10" data-source-line="21" id="ent0015"><ellipse cx="250.2008" cy="75.9977" fill="#F1F1F1" rx="77.9408" ry="34.0477" style="stroke:#181818;stroke-width:0.5;"/><text fill="#000000" font-family="sans-serif" font-size="14" lengthAdjust="spacing" textLength="42.8887" x="228.7564" y="59.0451">CU-10</text><text fill="#000000" font-family="sans-serif" font-size="14" lengthAdjust="spacing" textLength="33.8652" x="233.2681" y="75.342">Abrir</text><text fill="#000000" font-family="sans-serif" font-size="14" lengthAdjust="spacing" textLength="118.0088" x="191.1964" y="91.6389">alertas de precio</text></g><!--entity UC11--><g class="entity" data-qualified-name="Sistema.UC11" data-source-line="22" id="ent0016"><ellipse cx="250.2024" cy="178.9955" fill="#F1F1F1" rx="73.4624" ry="34.1155" style="stroke:#181818;stroke-width:0.5;"/><text fill="#000000" font-family="sans-serif" font-size="14" lengthAdjust="spacing" textLength="42.8887" x="228.7581" y="162.1529">CU-11</text><text fill="#000000" font-family="sans-serif" font-size="14" lengthAdjust="spacing" textLength="41.4463" x="229.4793" y="178.4497">Editar</text><text fill="#000000" font-family="sans-serif" font-size="14" lengthAdjust="spacing" textLength="110.7148" x="194.845" y="194.7466">alerta de precio</text></g><!--entity UC12--><g class="entity" data-qualified-name="Sistema.UC12" data-source-line="23" id="ent0017"><ellipse cx="250.2024" cy="281.9955" fill="#F1F1F1" rx="73.4624" ry="34.1155" style="stroke:#181818;stroke-width:0.5;"/><text fill="#000000" font-family="sans-serif" font-size="14" lengthAdjust="spacing" textLength="42.8887" x="228.7581" y="265.1529">CU-12</text><text fill="#000000" font-family="sans-serif" font-size="14" lengthAdjust="spacing" textLength="57.3604" x="221.5223" y="281.4497">Eliminar</text><text fill="#000000" font-family="sans-serif" font-size="14" lengthAdjust="spacing" textLength="110.7148" x="194.845" y="297.7466">alerta de precio</text></g><!--entity UC13--><g class="entity" data-qualified-name="Sistema.UC13" data-source-line="25" id="ent0018"><ellipse cx="250.201" cy="1171.0008" fill="#F1F1F1" rx="68.411" ry="34.2108" style="stroke:#181818;stroke-width:0.5;"/><text fill="#000000" font-family="sans-serif" font-size="14" lengthAdjust="spacing" textLength="42.8887" x="228.7566" y="1154.3118">CU-13</text><text fill="#000000" font-family="sans-serif" font-size="14" lengthAdjust="spacing" textLength="52.8076" x="223.7972" y="1170.6087">Evaluar</text><text fill="#000000" font-family="sans-serif" font-size="14" lengthAdjust="spacing" textLength="102.4639" x="198.969" y="1186.9055">alertas activas</text></g><!--entity UC14--><g class="entity" data-qualified-name="Sistema.UC14" data-source-line="26" id="ent0019"><ellipse cx="250.1998" cy="1274.9961" fill="#F1F1F1" rx="55.3398" ry="34.6161" style="stroke:#181818;stroke-width:0.5;"/><text fill="#000000" font-family="sans-serif" font-size="14" lengthAdjust="spacing" textLength="42.8887" x="228.7555" y="1258.9523">CU-14</text><text fill="#000000" font-family="sans-serif" font-size="14" lengthAdjust="spacing" textLength="44.2285" x="228.0855" y="1275.2492">Enviar</text><text fill="#000000" font-family="sans-serif" font-size="14" lengthAdjust="spacing" textLength="80.9375" x="209.7311" y="1291.5461">notificaci&#243;n</text></g><!--entity U--><g class="entity" data-qualified-name="U" data-source-line="4" id="ent0002"><ellipse cx="56.7721" cy="553.35" fill="#F1F1F1" rx="8" ry="8" style="stroke:#181818;stroke-width:0.5;"/><path d="M56.7721,561.35 L56.7721,588.35 M43.7721,569.35 L69.7721,569.35 M56.7721,588.35 L43.7721,603.35 M56.7721,588.35 L69.7721,603.35" fill="none" style="stroke:#181818;stroke-width:0.5;"/><text fill="#000000" font-family="sans-serif" font-size="14" lengthAdjust="spacing" textLength="53.2041" x="30.17" y="617.8451">Usuario</text></g><!--entity HL--><g class="entity" data-qualified-name="HL" data-source-line="5" id="ent0003"><ellipse cx="56.7705" cy="1089.35" fill="#F1F1F1" rx="8" ry="8" style="stroke:#181818;stroke-width:0.5;"/><path d="M56.7705,1097.35 L56.7705,1124.35 M43.7705,1105.35 L69.7705,1105.35 M56.7705,1124.35 L43.7705,1139.35 M56.7705,1124.35 L69.7705,1139.35" fill="none" style="stroke:#181818;stroke-width:0.5;"/><text fill="#000000" font-family="sans-serif" font-size="14" lengthAdjust="spacing" textLength="101.541" x="6" y="1153.8451">Hyperliquid L1</text></g><!--entity SW--><g class="entity" data-qualified-name="SW" data-source-line="6" id="ent0004"><ellipse cx="455.6037" cy="1245.35" fill="#F1F1F1" rx="8" ry="8" style="stroke:#181818;stroke-width:0.5;"/><path d="M455.6037,1253.35 L455.6037,1280.35 M442.6037,1261.35 L468.6037,1261.35 M455.6037,1280.35 L442.6037,1295.35 M455.6037,1280.35 L468.6037,1295.35" fill="none" style="stroke:#181818;stroke-width:0.5;"/><text fill="#000000" font-family="sans-serif" font-size="14" lengthAdjust="spacing" textLength="125.4873" x="392.86" y="1309.8451">Servicio Webhook</text></g><!--link U to UC01--><g class="link" data-entity-1="ent0002" data-entity-2="ent0006" data-link-type="dependency" data-source-line="29" id="lnk20"><path d="M61.07,621.57 C69.78,715.54 96.05,953.13 143.54,1015 C156.92,1032.43 172.1459,1042.1302 191.7459,1050.1402" fill="none" id="U-to-UC01" style="stroke:#181818;stroke-width:1;"/><polygon fill="#181818" points="197.3,1052.41,190.4821,1045.3026,192.6716,1050.5185,187.4557,1052.708,197.3,1052.41" style="stroke:#181818;stroke-width:1;"/></g><!--link U to UC02--><g class="link" data-entity-1="ent0002" data-entity-2="ent0007" data-link-type="dependency" data-source-line="30" id="lnk21"><path d="M68.92,544.48 C81.49,507.28 105.32,451.63 143.54,417 C158.17,403.75 171.8345,396.4438 189.9545,390.0238" fill="none" id="U-to-UC02" style="stroke:#181818;stroke-width:1;"/><polygon fill="#181818" points="195.61,388.02,185.7909,387.2553,190.8971,389.6898,188.4626,394.796,195.61,388.02" style="stroke:#181818;stroke-width:1;"/></g><!--link U to UC03--><g class="link" data-entity-1="ent0002" data-entity-2="ent0008" data-link-type="dependency" data-source-line="31" id="lnk22"><path d="M83.58,552.7 C99.49,535.47 121.09,514.51 143.54,500 C159.87,489.45 173.6633,482.9102 191.3633,476.2602" fill="none" id="U-to-UC03" style="stroke:#181818;stroke-width:1;"/><polygon fill="#181818" points="196.98,474.15,187.1482,473.5709,192.2994,475.9085,189.9618,481.0598,196.98,474.15" style="stroke:#181818;stroke-width:1;"/></g><!--link U to UC04--><g class="link" data-entity-1="ent0002" data-entity-2="ent0009" data-link-type="dependency" data-source-line="32" id="lnk23"><path d="M83.59,577.34 C111.45,571.22 150.8196,562.5868 186.9796,554.6468" fill="none" id="U-to-UC04" style="stroke:#181818;stroke-width:1;"/><polygon fill="#181818" points="192.84,553.36,183.1915,551.3833,187.9563,554.4324,184.9073,559.1972,192.84,553.36" style="stroke:#181818;stroke-width:1;"/></g><!--link U to UC05--><g class="link" data-entity-1="ent0002" data-entity-2="ent0010" data-link-type="dependency" data-source-line="33" id="lnk24"><path d="M83.59,588.53 C109.92,594.17 145.9032,601.8726 180.9432,609.3826" fill="none" id="U-to-UC05" style="stroke:#181818;stroke-width:1;"/><polygon fill="#181818" points="186.81,610.64,178.8481,604.8427,181.921,609.5922,177.1716,612.6651,186.81,610.64" style="stroke:#181818;stroke-width:1;"/></g><!--link U to UC06--><g class="link" data-entity-1="ent0002" data-entity-2="ent0011" data-link-type="dependency" data-source-line="34" id="lnk25"><path d="M83.6,612.99 C99.51,630.03 121.12,650.74 143.54,665 C159.23,674.98 172.107,681.0866 189.217,687.4566" fill="none" id="U-to-UC06" style="stroke:#181818;stroke-width:1;"/><polygon fill="#181818" points="194.84,689.55,187.8012,682.6612,190.1542,687.8055,185.01,690.1585,194.84,689.55" style="stroke:#181818;stroke-width:1;"/></g><!--link U to UC07--><g class="link" data-entity-1="ent0002" data-entity-2="ent0012" data-link-type="dependency" data-source-line="35" id="lnk26"><path d="M69.1,621.47 C81.74,658.28 105.58,713.06 143.54,747 C156.38,758.48 167.173,764.7642 183.213,770.8742" fill="none" id="U-to-UC07" style="stroke:#181818;stroke-width:1;"/><polygon fill="#181818" points="188.82,773.01,181.8334,766.0683,184.1475,771.2301,178.9856,773.5442,188.82,773.01" style="stroke:#181818;stroke-width:1;"/></g><!--link U to UC08--><g class="link" data-entity-1="ent0002" data-entity-2="ent0013" data-link-type="dependency" data-source-line="36" id="lnk27"><path d="M61.23,621.47 C67.99,674.78 87.61,771.09 143.54,829 C154.82,840.68 164.2276,846.8555 179.3576,852.8955" fill="none" id="U-to-UC08" style="stroke:#181818;stroke-width:1;"/><polygon fill="#181818" points="184.93,855.12,178.0544,848.0683,180.2863,853.2662,175.0884,855.4981,184.93,855.12" style="stroke:#181818;stroke-width:1;"/></g><!--link U to UC09--><g class="link" data-entity-1="ent0002" data-entity-2="ent0014" data-link-type="dependency" data-source-line="37" id="lnk28"><path d="M57.88,621.46 C60.04,687.84 73.38,825.05 143.54,911 C155.31,925.41 166.63,933.5976 183.33,941.4476" fill="none" id="U-to-UC09" style="stroke:#181818;stroke-width:1;"/><polygon fill="#181818" points="188.76,944,182.3166,936.5513,184.235,941.873,178.9134,943.7914,188.76,944" style="stroke:#181818;stroke-width:1;"/></g><!--link U to UC10--><g class="link" data-entity-1="ent0002" data-entity-2="ent0015" data-link-type="dependency" data-source-line="38" id="lnk29"><path d="M60.59,544.44 C68.42,446.77 93.22,192.72 143.54,127 C154.19,113.09 164.2003,105.3652 179.9803,97.7952" fill="none" id="U-to-UC10" style="stroke:#181818;stroke-width:1;"/><polygon fill="#181818" points="185.39,95.2,175.5453,95.4863,180.8819,97.3626,179.0055,102.6992,185.39,95.2" style="stroke:#181818;stroke-width:1;"/></g><!--link U to UC11--><g class="link" data-entity-1="ent0002" data-entity-2="ent0016" data-link-type="dependency" data-source-line="39" id="lnk30"><path d="M56.91,544.4 C57.35,474.07 67.82,323.69 143.54,230 C155.06,215.74 166.0974,207.7354 182.6274,200.0654" fill="none" id="U-to-UC11" style="stroke:#181818;stroke-width:1;"/><polygon fill="#181818" points="188.07,197.54,178.2224,197.6997,183.5345,199.6445,181.5897,204.9565,188.07,197.54" style="stroke:#181818;stroke-width:1;"/></g><!--link U to UC12--><g class="link" data-entity-1="ent0002" data-entity-2="ent0017" data-link-type="dependency" data-source-line="40" id="lnk31"><path d="M61.82,544.74 C69.28,491.58 89.72,395.05 143.54,334 C155.85,320.04 167.3231,311.999 184.0131,304.129" fill="none" id="U-to-UC12" style="stroke:#181818;stroke-width:1;"/><polygon fill="#181818" points="189.44,301.57,179.5936,301.7906,184.9176,303.7025,183.0056,309.0265,189.44,301.57" style="stroke:#181818;stroke-width:1;"/></g><!--link HL to UC01--><g class="link" data-entity-1="ent0003" data-entity-2="ent0006" data-link-type="dependency" data-source-line="42" id="lnk32"><path d="M107.57,1105.47 C135.04,1098.01 163.3395,1090.3218 191.1895,1082.7618" fill="none" id="HL-to-UC01" style="stroke:#181818;stroke-width:1;"/><polygon fill="#181818" points="196.98,1081.19,187.2464,1079.6875,192.1546,1082.4999,189.3422,1087.4081,196.98,1081.19" style="stroke:#181818;stroke-width:1;"/></g><!--link HL to UC13--><g class="link" data-entity-1="ent0003" data-entity-2="ent0018" data-link-type="dependency" data-source-line="43" id="lnk33"><path d="M107.57,1132.53 C132.6,1139.33 157.3396,1146.048 183.6396,1153.188" fill="none" id="HL-to-UC13" style="stroke:#181818;stroke-width:1;"/><polygon fill="#181818" points="189.43,1154.76,181.7924,1148.5417,184.6047,1153.45,179.6964,1156.2623,189.43,1154.76" style="stroke:#181818;stroke-width:1;"/></g><!--link UC14 to SW--><g class="link" data-entity-1="ent0019" data-entity-2="ent0004" data-link-type="dependency" data-source-line="45" id="lnk34"><path d="M305.98,1275 C332.69,1275 358.93,1275 386.55,1275" fill="none" id="UC14-to-SW" style="stroke:#181818;stroke-width:1;"/><polygon fill="#181818" points="392.55,1275,383.55,1271,387.55,1275,383.55,1279,392.55,1275" style="stroke:#181818;stroke-width:1;"/></g><?plantuml-src RPDDRi8m48NtFeN57YaEuMzJgK98BDYXY4qsGs9Wr61JsubKLJrKrIDmiJenYOCXgnVxU-FdcQJaHqEDf0fFPqCBL3mtA0KXa1kfw2ZL5IYK8mgQfjtYvklALOcV5HPqozgzpRRRt75LOuwIxldXBEL7kxtR4zAK1d4gkMLG6tw14Vqcb5QQvw3jwYeTHomJAobqLHfGcIWv55mT9AZ29LX5Z8IMs5eK1qMvC5Y09UtZu3Xa9vbuFoZiMQv77Ji9sIGJwmBDOs779Y4xjMo95nH3sh7Jfy0p6-Bs2xRPhk4vtlw4BpuB-NaN-avBCOWz3-d58CgmlCCNJscMz_Pb0agk3D22qwkrDKFlCoq35ulkcJgNVhIrBXQ5BjQrzFLXpiL2L-nlzChdN75uCMPdlQwXh60GqdwZM8FkJE7CMJDpKMDZ4TBW4NFefzFbIyWF8IaTZz_SzzZBsCk9bucNKozdNiwzN7YvxALjOo_zQSs5DrkVejVsKgH9sRxQ_-uV?></g></svg>