<svg xmlns="http://www.w3.org/2000/svg" xmlns:xlink="http://www.w3.org/1999/xlink" contentStyleType="text/css" data-diagram-type="ACTIVITY" height="452px" preserveAspectRatio="none" style="width:493px;height:452px;background:#FFFFFF;" version="1.1" viewBox="0 0 493 452" width="493px" zoomAndPan="magnify"><?plantuml 1.2026.3beta6?><defs/><g><g class="title" data-source-line="1"><text fill="#000000" font-family="sans-serif" font-size="14" font-weight="700" lengthAdjust="spacing" textLength="183.4287" x="153.9185" y="32.9951">CU-04 &#8212; Editar entidad</text></g><ellipse cx="254.2129" cy="62.2969" fill="#222222" rx="10" ry="10" style="stroke:#222222;stroke-width:1;"/><rect fill="#F1F1F1" height="33.9688" rx="12.5" ry="12.5" style="stroke:#181818;stroke-width:0.5;" width="241.3496" x="133.5381" y="92.2969"/><text fill="#000000" font-family="sans-serif" font-size="12" lengthAdjust="spacing" textLength="221.3496" x="143.5381" y="113.4355">El Usuario solicita editar una entidad</text><rect fill="#F1F1F1" height="47.9375" rx="12.5" ry="12.5" style="stroke:#181818;stroke-width:0.5;" width="244.4258" x="132" y="146.2656"/><text fill="#000000" font-family="sans-serif" font-size="12" lengthAdjust="spacing" textLength="224.4258" x="142" y="167.4043">El sistema presenta el nombre actual</text><text fill="#000000" font-family="sans-serif" font-size="12" lengthAdjust="spacing" textLength="187.002" x="142" y="181.373">y permite introducir uno nuevo</text><rect fill="#F1F1F1" height="33.9688" rx="12.5" ry="12.5" style="stroke:#181818;stroke-width:0.5;" width="247.0391" x="130.6934" y="214.2031"/><text fill="#000000" font-family="sans-serif" font-size="12" lengthAdjust="spacing" textLength="227.0391" x="140.6934" y="235.3418">El Usuario introduce el nuevo nombre</text><polygon fill="#F1F1F1" points="165.99,268.1719,342.4358,268.1719,354.4358,280.1719,342.4358,292.1719,165.99,292.1719,153.99,280.1719,165.99,268.1719" style="stroke:#181818;stroke-width:0.5;"/><text fill="#000000" font-family="sans-serif" font-size="11" lengthAdjust="spacing" textLength="176.4458" x="165.99" y="283.98">&#191;Nombre v&#225;lido y no duplicado?</text><text fill="#000000" font-family="sans-serif" font-size="11" lengthAdjust="spacing" textLength="8.7871" x="145.2029" y="277.5776">s&#237;</text><text fill="#000000" font-family="sans-serif" font-size="11" lengthAdjust="spacing" textLength="13.7017" x="354.4358" y="277.5776">no</text><rect fill="#F1F1F1" height="33.9688" rx="12.5" ry="12.5" style="stroke:#181818;stroke-width:0.5;" width="237.793" x="16" y="302.1719"/><text fill="#000000" font-family="sans-serif" font-size="12" lengthAdjust="spacing" textLength="217.793" x="26" y="323.3105">El sistema registra el nuevo nombre</text><rect fill="#F1F1F1" height="33.9688" rx="12.5" ry="12.5" style="stroke:#181818;stroke-width:0.5;" width="220.5195" x="24.6367" y="356.1406"/><text fill="#000000" font-family="sans-serif" font-size="12" lengthAdjust="spacing" textLength="200.5195" x="34.6367" y="377.2793">El sistema presenta confirmaci&#243;n</text><ellipse cx="134.8965" cy="421.1094" fill="none" rx="11" ry="11" style="stroke:#222222;stroke-width:1;"/><ellipse cx="134.8965" cy="421.1094" fill="#222222" rx="6" ry="6" style="stroke:#222222;stroke-width:1;"/><rect fill="#F1F1F1" height="33.9688" rx="12.5" ry="12.5" style="stroke:#181818;stroke-width:0.5;" width="199.4727" x="273.793" y="302.1719"/><text fill="#000000" font-family="sans-serif" font-size="12" lengthAdjust="spacing" textLength="179.4727" x="283.793" y="323.3105">El sistema informa del motivo</text><ellipse cx="373.5293" cy="367.1406" fill="none" rx="11" ry="11" style="stroke:#222222;stroke-width:1;"/><ellipse cx="373.5293" cy="367.1406" fill="#222222" rx="6" ry="6" style="stroke:#222222;stroke-width:1;"/><line style="stroke:#181818;stroke-width:1;" x1="254.2129" x2="254.2129" y1="72.2969" y2="92.2969"/><polygon fill="#181818" points="250.2129,82.2969,254.2129,92.2969,258.2129,82.2969,254.2129,86.2969" style="stroke:#181818;stroke-width:1;"/><line style="stroke:#181818;stroke-width:1;" x1="254.2129" x2="254.2129" y1="126.2656" y2="146.2656"/><polygon fill="#181818" points="250.2129,136.2656,254.2129,146.2656,258.2129,136.2656,254.2129,140.2656" style="stroke:#181818;stroke-width:1;"/><line style="stroke:#181818;stroke-width:1;" x1="254.2129" x2="254.2129" y1="194.2031" y2="214.2031"/><polygon fill="#181818" points="250.2129,204.2031,254.2129,214.2031,258.2129,204.2031,254.2129,208.2031" style="stroke:#181818;stroke-width:1;"/><line style="stroke:#181818;stroke-width:1;" x1="134.8965" x2="134.8965" y1="336.1406" y2="356.1406"/><polygon fill="#181818" points="130.8965,346.1406,134.8965,356.1406,138.8965,346.1406,134.8965,350.1406" style="stroke:#181818;stroke-width:1;"/><line style="stroke:#181818;stroke-width:1;" x1="134.8965" x2="134.8965" y1="390.1094" y2="410.1094"/><polygon fill="#181818" points="130.8965,400.1094,134.8965,410.1094,138.8965,400.1094,134.8965,404.1094" style="stroke:#181818;stroke-width:1;"/><line style="stroke:#181818;stroke-width:1;" x1="373.5293" x2="373.5293" y1="336.1406" y2="356.1406"/><polygon fill="#181818" points="369.5293,346.1406,373.5293,356.1406,377.5293,346.1406,373.5293,350.1406" style="stroke:#181818;stroke-width:1;"/><line style="stroke:#181818;stroke-width:1;" x1="153.99" x2="134.8965" y1="280.1719" y2="280.1719"/><line style="stroke:#181818;stroke-width:1;" x1="134.8965" x2="134.8965" y1="280.1719" y2="302.1719"/><polygon fill="#181818" points="130.8965,292.1719,134.8965,302.1719,138.8965,292.1719,134.8965,296.1719" style="stroke:#181818;stroke-width:1;"/><line style="stroke:#181818;stroke-width:1;" x1="354.4358" x2="373.5293" y1="280.1719" y2="280.1719"/><line style="stroke:#181818;stroke-width:1;" x1="373.5293" x2="373.5293" y1="280.1719" y2="302.1719"/><polygon fill="#181818" points="369.5293,292.1719,373.5293,302.1719,377.5293,292.1719,373.5293,296.1719" style="stroke:#181818;stroke-width:1;"/><line style="stroke:#181818;stroke-width:1;" x1="254.2129" x2="254.2129" y1="248.1719" y2="268.1719"/><polygon fill="#181818" points="250.2129,258.1719,254.2129,268.1719,258.2129,258.1719,254.2129,262.1719" style="stroke:#181818;stroke-width:1;"/><?plantuml-src POynJWGn34NxdEANimKI1HLJKA1jwVO0OU81IuazIfoLjkCGN803K7409EOcd8JCBeDOw6pzvsVRs2BXTdTnUONFfsTi0vlF834EFZXNMcVkUXknAzLdLXIDF3G8T4Ah-1NlZs3XOfGyfaob1IsD44ttcU07gpww0oRAYOt0Obb37NZnAAJINlkpTIj1HysIVyjwnoEwZ_Uxate_lqGEYaEB4UhKZlH1RpQmHn9qPNxTEE3tVPaUMfNzV_4vz_F7e39oJdxW-KqMgfXEZc8XTA9_zIoZDXYXwPCQBu-j8n9u_080?></g></svg>