<svg xmlns="http://www.w3.org/2000/svg" xmlns:xlink="http://www.w3.org/1999/xlink" contentStyleType="text/css" data-diagram-type="ACTIVITY" height="412px" preserveAspectRatio="none" style="width:486px;height:412px;background:#FFFFFF;" version="1.1" viewBox="0 0 486 412" width="486px" zoomAndPan="magnify"><?plantuml 1.2026.3beta6?><defs/><g><g class="title" data-source-line="1"><text fill="#000000" font-family="sans-serif" font-size="14" font-weight="700" lengthAdjust="spacing" textLength="200.8672" x="141.6074" y="32.9951">CU-05 &#8212; Eliminar entidad</text></g><ellipse cx="243.7803" cy="62.2969" fill="#222222" rx="10" ry="10" style="stroke:#222222;stroke-width:1;"/><rect fill="#F1F1F1" height="33.9688" rx="12.5" ry="12.5" style="stroke:#181818;stroke-width:0.5;" width="254.9902" x="116.2852" y="92.2969"/><text fill="#000000" font-family="sans-serif" font-size="12" lengthAdjust="spacing" textLength="234.9902" x="126.2852" y="113.4355">El Usuario solicita eliminar una entidad</text><rect fill="#F1F1F1" height="47.9375" rx="12.5" ry="12.5" style="stroke:#181818;stroke-width:0.5;" width="209.5391" x="139.0107" y="146.2656"/><text fill="#000000" font-family="sans-serif" font-size="12" lengthAdjust="spacing" textLength="189.5391" x="149.0107" y="167.4043">El sistema solicita confirmaci&#243;n</text><text fill="#000000" font-family="sans-serif" font-size="12" lengthAdjust="spacing" textLength="102.2285" x="149.0107" y="181.373">de la eliminaci&#243;n</text><polygon fill="#F1F1F1" points="184.2122,214.2031,303.3484,214.2031,315.3484,226.2031,303.3484,238.2031,184.2122,238.2031,172.2122,226.2031,184.2122,214.2031" style="stroke:#181818;stroke-width:0.5;"/><text fill="#000000" font-family="sans-serif" font-size="11" lengthAdjust="spacing" textLength="119.1362" x="184.2122" y="230.0112">&#191;El Usuario confirma?</text><text fill="#000000" font-family="sans-serif" font-size="11" lengthAdjust="spacing" textLength="8.7871" x="163.425" y="223.6089">s&#237;</text><text fill="#000000" font-family="sans-serif" font-size="11" lengthAdjust="spacing" textLength="13.7017" x="315.3484" y="223.6089">no</text><rect fill="#F1F1F1" height="47.9375" rx="12.5" ry="12.5" style="stroke:#181818;stroke-width:0.5;" width="212.7031" x="19.9082" y="248.2031"/><text fill="#000000" font-family="sans-serif" font-size="12" lengthAdjust="spacing" textLength="192.7031" x="29.9082" y="269.3418">El sistema da de baja la entidad</text><text fill="#000000" font-family="sans-serif" font-size="12" lengthAdjust="spacing" textLength="181.5645" x="29.9082" y="283.3105">y sus v&#237;nculos con direcciones</text><rect fill="#F1F1F1" height="33.9688" rx="12.5" ry="12.5" style="stroke:#181818;stroke-width:0.5;" width="220.5195" x="16" y="316.1406"/><text fill="#000000" font-family="sans-serif" font-size="12" lengthAdjust="spacing" textLength="200.5195" x="26" y="337.2793">El sistema presenta confirmaci&#243;n</text><ellipse cx="126.2598" cy="381.1094" fill="none" rx="11" ry="11" style="stroke:#222222;stroke-width:1;"/><ellipse cx="126.2598" cy="381.1094" fill="#222222" rx="6" ry="6" style="stroke:#222222;stroke-width:1;"/><rect fill="#F1F1F1" height="47.9375" rx="12.5" ry="12.5" style="stroke:#181818;stroke-width:0.5;" width="209.5625" x="256.5195" y="248.2031"/><text fill="#000000" font-family="sans-serif" font-size="12" lengthAdjust="spacing" textLength="189.5625" x="266.5195" y="269.3418">El sistema cancela la operaci&#243;n</text><text fill="#000000" font-family="sans-serif" font-size="12" lengthAdjust="spacing" textLength="71.1914" x="266.5195" y="283.3105">sin cambios</text><ellipse cx="361.3008" cy="327.1406" fill="none" rx="11" ry="11" style="stroke:#222222;stroke-width:1;"/><ellipse cx="361.3008" cy="327.1406" fill="#222222" rx="6" ry="6" style="stroke:#222222;stroke-width:1;"/><line style="stroke:#181818;stroke-width:1;" x1="243.7803" x2="243.7803" y1="72.2969" y2="92.2969"/><polygon fill="#181818" points="239.7803,82.2969,243.7803,92.2969,247.7803,82.2969,243.7803,86.2969" style="stroke:#181818;stroke-width:1;"/><line style="stroke:#181818;stroke-width:1;" x1="243.7803" x2="243.7803" y1="126.2656" y2="146.2656"/><polygon fill="#181818" points="239.7803,136.2656,243.7803,146.2656,247.7803,136.2656,243.7803,140.2656" style="stroke:#181818;stroke-width:1;"/><line style="stroke:#181818;stroke-width:1;" x1="126.2598" x2="126.2598" y1="296.1406" y2="316.1406"/><polygon fill="#181818" points="122.2598,306.1406,126.2598,316.1406,130.2598,306.1406,126.2598,310.1406" style="stroke:#181818;stroke-width:1;"/><line style="stroke:#181818;stroke-width:1;" x1="126.2598" x2="126.2598" y1="350.1094" y2="370.1094"/><polygon fill="#181818" points="122.2598,360.1094,126.2598,370.1094,130.2598,360.1094,126.2598,364.1094" style="stroke:#181818;stroke-width:1;"/><line style="stroke:#181818;stroke-width:1;" x1="361.3008" x2="361.3008" y1="296.1406" y2="316.1406"/><polygon fill="#181818" points="357.3008,306.1406,361.3008,316.1406,365.3008,306.1406,361.3008,310.1406" style="stroke:#181818;stroke-width:1;"/><line style="stroke:#181818;stroke-width:1;" x1="172.2122" x2="126.2598" y1="226.2031" y2="226.2031"/><line style="stroke:#181818;stroke-width:1;" x1="126.2598" x2="126.2598" y1="226.2031" y2="248.2031"/><polygon fill="#181818" points="122.2598,238.2031,126.2598,248.2031,130.2598,238.2031,126.2598,242.2031" style="stroke:#181818;stroke-width:1;"/><line style="stroke:#181818;stroke-width:1;" x1="315.3484" x2="361.3008" y1="226.2031" y2="226.2031"/><line style="stroke:#181818;stroke-width:1;" x1="361.3008" x2="361.3008" y1="226.2031" y2="248.2031"/><polygon fill="#181818" points="357.3008,238.2031,361.3008,248.2031,365.3008,238.2031,361.3008,242.2031" style="stroke:#181818;stroke-width:1;"/><line style="stroke:#181818;stroke-width:1;" x1="243.7803" x2="243.7803" y1="194.2031" y2="214.2031"/><polygon fill="#181818" points="239.7803,204.2031,243.7803,214.2031,247.7803,204.2031,243.7803,208.2031" style="stroke:#181818;stroke-width:1;"/><?plantuml-src NOynJiH034NxESKlimKI3GqfAD0UOG_WdN64qSIEnXCaEWx1DRRY04Za9fo4RBHXLv5SZVzxtrEbPiRpuUx-0RyVdzXdwKMfWBLAeXI2LoerFEup3ZvI4ODRbYYLm6juL5g1TecwUEMUhj5esadfAShqfI4nyZ--FBL1EZG_tpSrA_AqGtrXHUFJQHU0Mt-QXt6aLrg4bvk1T_ZeU9jE6iTiVdOXIU4OnPIztMY6mZx3cpFFAQys1CxEQDIsxP4qSbwgRU1o-TmCYSwx_YZcLuScwVu0?></g></svg>