<svg xmlns="http://www.w3.org/2000/svg" xmlns:xlink="http://www.w3.org/1999/xlink" contentStyleType="text/css" data-diagram-type="ACTIVITY" height="636px" preserveAspectRatio="none" style="width:738px;height:636px;background:#FFFFFF;" version="1.1" viewBox="0 0 738 636" width="738px" zoomAndPan="magnify"><?plantuml 1.2026.3beta6?><defs/><g><g class="title" data-source-line="1"><text fill="#000000" font-family="sans-serif" font-size="14" font-weight="700" lengthAdjust="spacing" textLength="243.7695" x="246.4473" y="32.9951">CU-09 &#8212; Crear alerta de precio</text></g><ellipse cx="438.7383" cy="62.2969" fill="#222222" rx="10" ry="10" style="stroke:#222222;stroke-width:1;"/><rect fill="#F1F1F1" height="33.9688" rx="12.5" ry="12.5" style="stroke:#181818;stroke-width:0.5;" width="226.6719" x="325.4023" y="92.2969"/><text fill="#000000" font-family="sans-serif" font-size="12" lengthAdjust="spacing" textLength="206.6719" x="335.4023" y="113.4355">El Usuario solicita crear una alerta</text><rect fill="#F1F1F1" height="47.9375" rx="12.5" ry="12.5" style="stroke:#181818;stroke-width:0.5;" width="204.4883" x="336.4941" y="146.2656"/><text fill="#000000" font-family="sans-serif" font-size="12" lengthAdjust="spacing" textLength="184.4883" x="346.4941" y="167.4043">El sistema permite seleccionar</text><text fill="#000000" font-family="sans-serif" font-size="12" lengthAdjust="spacing" textLength="101.6309" x="346.4941" y="181.373">mercado y token</text><rect fill="#F1F1F1" height="33.9688" rx="12.5" ry="12.5" style="stroke:#181818;stroke-width:0.5;" width="252.7754" x="312.3506" y="214.2031"/><text fill="#000000" font-family="sans-serif" font-size="12" lengthAdjust="spacing" textLength="232.7754" x="322.3506" y="235.3418">El Usuario selecciona mercado y token</text><rect fill="#F1F1F1" height="47.9375" rx="12.5" ry="12.5" style="stroke:#181818;stroke-width:0.5;" width="212.0234" x="332.7266" y="268.1719"/><text fill="#000000" font-family="sans-serif" font-size="12" lengthAdjust="spacing" textLength="174.3809" x="342.7266" y="289.3105">El sistema permite introducir</text><text fill="#000000" font-family="sans-serif" font-size="12" lengthAdjust="spacing" textLength="192.0234" x="342.7266" y="303.2793">umbral y direcci&#243;n del webhook</text><rect fill="#F1F1F1" height="33.9688" rx="12.5" ry="12.5" style="stroke:#181818;stroke-width:0.5;" width="256.4023" x="310.5371" y="336.1094"/><text fill="#000000" font-family="sans-serif" font-size="12" lengthAdjust="spacing" textLength="236.4023" x="320.5371" y="357.248">El Usuario introduce umbral y webhook</text><polygon fill="#F1F1F1" points="359.3965,390.0781,518.0801,390.0781,530.0801,402.0781,518.0801,414.0781,359.3965,414.0781,347.3965,402.0781,359.3965,390.0781" style="stroke:#181818;stroke-width:0.5;"/><text fill="#000000" font-family="sans-serif" font-size="11" lengthAdjust="spacing" textLength="158.6836" x="359.3965" y="405.8862">&#191;Umbral con formato v&#225;lido?</text><text fill="#000000" font-family="sans-serif" font-size="11" lengthAdjust="spacing" textLength="8.7871" x="338.6094" y="399.4839">s&#237;</text><text fill="#000000" font-family="sans-serif" font-size="11" lengthAdjust="spacing" textLength="13.7017" x="530.0801" y="399.4839">no</text><polygon fill="#F1F1F1" points="189.8149,424.0781,315.2944,424.0781,327.2944,436.0781,315.2944,448.0781,189.8149,448.0781,177.8149,436.0781,189.8149,424.0781" style="stroke:#181818;stroke-width:0.5;"/><text fill="#000000" font-family="sans-serif" font-size="11" lengthAdjust="spacing" textLength="125.4795" x="189.8149" y="439.8862">&#191;Webhook alcanzable?</text><text fill="#000000" font-family="sans-serif" font-size="11" lengthAdjust="spacing" textLength="8.7871" x="169.0278" y="433.4839">s&#237;</text><text fill="#000000" font-family="sans-serif" font-size="11" lengthAdjust="spacing" textLength="13.7017" x="327.2944" y="433.4839">no</text><rect fill="#F1F1F1" height="47.9375" rx="12.5" ry="12.5" style="stroke:#181818;stroke-width:0.5;" width="185.4043" x="33.5576" y="458.0781"/><text fill="#000000" font-family="sans-serif" font-size="12" lengthAdjust="spacing" textLength="165.4043" x="43.5576" y="479.2168">El sistema registra la alerta</text><text fill="#000000" font-family="sans-serif" font-size="12" lengthAdjust="spacing" textLength="120.3809" x="43.5576" y="493.1855">en estado operativo</text><rect fill="#F1F1F1" height="33.9688" rx="12.5" ry="12.5" style="stroke:#181818;stroke-width:0.5;" width="220.5195" x="16" y="541.0156"/><text fill="#000000" font-family="sans-serif" font-size="12" lengthAdjust="spacing" textLength="200.5195" x="26" y="562.1543">El sistema presenta confirmaci&#243;n</text><ellipse cx="126.2598" cy="605.9844" fill="none" rx="11" ry="11" style="stroke:#222222;stroke-width:1;"/><ellipse cx="126.2598" cy="605.9844" fill="#222222" rx="6" ry="6" style="stroke:#222222;stroke-width:1;"/><rect fill="#F1F1F1" height="47.9375" rx="12.5" ry="12.5" style="stroke:#181818;stroke-width:0.5;" width="244.6602" x="256.5195" y="458.0781"/><text fill="#000000" font-family="sans-serif" font-size="12" lengthAdjust="spacing" textLength="224.6602" x="266.5195" y="479.2168">El sistema informa y permite corregir</text><text fill="#000000" font-family="sans-serif" font-size="12" lengthAdjust="spacing" textLength="151.3184" x="266.5195" y="493.1855">o confirmar pese al aviso</text><ellipse cx="378.8496" cy="552.0156" fill="none" rx="11" ry="11" style="stroke:#222222;stroke-width:1;"/><ellipse cx="378.8496" cy="552.0156" fill="#222222" rx="6" ry="6" style="stroke:#222222;stroke-width:1;"/><rect fill="#F1F1F1" height="47.9375" rx="12.5" ry="12.5" style="stroke:#181818;stroke-width:0.5;" width="187.4844" x="531.1797" y="424.0781"/><text fill="#000000" font-family="sans-serif" font-size="12" lengthAdjust="spacing" textLength="167.4844" x="541.1797" y="445.2168">El sistema informa del error</text><text fill="#000000" font-family="sans-serif" font-size="12" lengthAdjust="spacing" textLength="108.8496" x="541.1797" y="459.1855">y permite corregir</text><ellipse cx="624.9219" cy="518.0156" fill="none" rx="11" ry="11" style="stroke:#222222;stroke-width:1;"/><ellipse cx="624.9219" cy="518.0156" fill="#222222" rx="6" ry="6" style="stroke:#222222;stroke-width:1;"/><line style="stroke:#181818;stroke-width:1;" x1="438.7383" x2="438.7383" y1="72.2969" y2="92.2969"/><polygon fill="#181818" points="434.7383,82.2969,438.7383,92.2969,442.7383,82.2969,438.7383,86.2969" style="stroke:#181818;stroke-width:1;"/><line style="stroke:#181818;stroke-width:1;" x1="438.7383" x2="438.7383" y1="126.2656" y2="146.2656"/><polygon fill="#181818" points="434.7383,136.2656,438.7383,146.2656,442.7383,136.2656,438.7383,140.2656" style="stroke:#181818;stroke-width:1;"/><line style="stroke:#181818;stroke-width:1;" x1="438.7383" x2="438.7383" y1="194.2031" y2="214.2031"/><polygon fill="#181818" points="434.7383,204.2031,438.7383,214.2031,442.7383,204.2031,438.7383,208.2031" style="stroke:#181818;stroke-width:1;"/><line style="stroke:#181818;stroke-width:1;" x1="438.7383" x2="438.7383" y1="248.1719" y2="268.1719"/><polygon fill="#181818" points="434.7383,258.1719,438.7383,268.1719,442.7383,258.1719,438.7383,262.1719" style="stroke:#181818;stroke-width:1;"/><line style="stroke:#181818;stroke-width:1;" x1="438.7383" x2="438.7383" y1="316.1094" y2="336.1094"/><polygon fill="#181818" points="434.7383,326.1094,438.7383,336.1094,442.7383,326.1094,438.7383,330.1094" style="stroke:#181818;stroke-width:1;"/><line style="stroke:#181818;stroke-width:1;" x1="126.2598" x2="126.2598" y1="506.0156" y2="541.0156"/><polygon fill="#181818" points="122.2598,531.0156,126.2598,541.0156,130.2598,531.0156,126.2598,535.0156" style="stroke:#181818;stroke-width:1;"/><line style="stroke:#181818;stroke-width:1;" x1="126.2598" x2="126.2598" y1="574.9844" y2="594.9844"/><polygon fill="#181818" points="122.2598,584.9844,126.2598,594.9844,130.2598,584.9844,126.2598,588.9844" style="stroke:#181818;stroke-width:1;"/><line style="stroke:#181818;stroke-width:1;" x1="378.8496" x2="378.8496" y1="506.0156" y2="541.0156"/><polygon fill="#181818" points="374.8496,531.0156,378.8496,541.0156,382.8496,531.0156,378.8496,535.0156" style="stroke:#181818;stroke-width:1;"/><line style="stroke:#181818;stroke-width:1;" x1="177.8149" x2="126.2598" y1="436.0781" y2="436.0781"/><line style="stroke:#181818;stroke-width:1;" x1="126.2598" x2="126.2598" y1="436.0781" y2="458.0781"/><polygon fill="#181818" points="122.2598,448.0781,126.2598,458.0781,130.2598,448.0781,126.2598,452.0781" style="stroke:#181818;stroke-width:1;"/><line style="stroke:#181818;stroke-width:1;" x1="327.2944" x2="378.8496" y1="436.0781" y2="436.0781"/><line style="stroke:#181818;stroke-width:1;" x1="378.8496" x2="378.8496" y1="436.0781" y2="458.0781"/><polygon fill="#181818" points="374.8496,448.0781,378.8496,458.0781,382.8496,448.0781,378.8496,452.0781" style="stroke:#181818;stroke-width:1;"/><line style="stroke:#181818;stroke-width:1;" x1="624.9219" x2="624.9219" y1="472.0156" y2="507.0156"/><polygon fill="#181818" points="620.9219,497.0156,624.9219,507.0156,628.9219,497.0156,624.9219,501.0156" style="stroke:#181818;stroke-width:1;"/><line style="stroke:#181818;stroke-width:1;" x1="347.3965" x2="252.5547" y1="402.0781" y2="402.0781"/><line style="stroke:#181818;stroke-width:1;" x1="252.5547" x2="252.5547" y1="402.0781" y2="424.0781"/><polygon fill="#181818" points="248.5547,414.0781,252.5547,424.0781,256.5547,414.0781,252.5547,418.0781" style="stroke:#181818;stroke-width:1;"/><line style="stroke:#181818;stroke-width:1;" x1="530.0801" x2="624.9219" y1="402.0781" y2="402.0781"/><line style="stroke:#181818;stroke-width:1;" x1="624.9219" x2="624.9219" y1="402.0781" y2="424.0781"/><polygon fill="#181818" points="620.9219,414.0781,624.9219,424.0781,628.9219,414.0781,624.9219,418.0781" style="stroke:#181818;stroke-width:1;"/><line style="stroke:#181818;stroke-width:1;" x1="438.7383" x2="438.7383" y1="370.0781" y2="390.0781"/><polygon fill="#181818" points="434.7383,380.0781,438.7383,390.0781,442.7383,380.0781,438.7383,384.0781" style="stroke:#181818;stroke-width:1;"/><?plantuml-src RP4zJWCn48LxdsBAf42YXIqe8euGKK-yisGKhoSQUnD1nI6u00UWuW18x4qu2RDUiifVPydVUy_lENCE18lbpUqT_Bwzmq895J2GPeIQOAlaMPnB6JMx-yS0ozIXia2Im9wDyaNIHVoNLGLBd3Ar25lIbZD1ea3Uh2AgQqazrW8la6L3iJhrdK2uofqRSymgTUTPNTUk58FXDUlWqNz5wn1WJwkroEOqvw0Zc6GJvxY1sS_tShpm4g4HRJ4BxFgFmBKyp26lAS8izPzp1p3oJwFUTl0ONt4Lw9m3EAwWz6mdHGY7xGfYFDdULboi96RUINMXjOz958Vv9JPiZojrHovbsTg1GYAOHRaCvbZwMEN3YbvqU8qML2PJDS1CR0JSSP9J-rXpuuv3haKC-vEg3CwNSODXiIjcVm00?></g></svg>