<svg xmlns="http://www.w3.org/2000/svg" xmlns:xlink="http://www.w3.org/1999/xlink" contentStyleType="text/css" data-diagram-type="ACTIVITY" height="504px" preserveAspectRatio="none" style="width:773px;height:504px;background:#FFFFFF;" version="1.1" viewBox="0 0 773 504" width="773px" zoomAndPan="magnify"><?plantuml 1.2026.3beta6?><defs/><g><g class="title" data-source-line="1"><text fill="#000000" font-family="sans-serif" font-size="14" font-weight="700" lengthAdjust="spacing" textLength="199.7324" x="285.7656" y="32.9951">CU-06 &#8212; A&#241;adir direcci&#243;n</text></g><ellipse cx="434.031" cy="62.2969" fill="#222222" rx="10" ry="10" style="stroke:#222222;stroke-width:1;"/><rect fill="#F1F1F1" height="47.9375" rx="12.5" ry="12.5" style="stroke:#181818;stroke-width:0.5;" width="253.3496" x="307.3562" y="92.2969"/><text fill="#000000" font-family="sans-serif" font-size="12" lengthAdjust="spacing" textLength="233.3496" x="317.3562" y="113.4355">El Usuario solicita a&#241;adir una direcci&#243;n</text><text fill="#000000" font-family="sans-serif" font-size="12" lengthAdjust="spacing" textLength="71.2852" x="317.3562" y="127.4043">a la entidad</text><rect fill="#F1F1F1" height="33.9688" rx="12.5" ry="12.5" style="stroke:#181818;stroke-width:0.5;" width="267.4414" x="300.3103" y="160.2344"/><text fill="#000000" font-family="sans-serif" font-size="12" lengthAdjust="spacing" textLength="247.4414" x="310.3103" y="181.373">El sistema permite introducir la direcci&#243;n</text><rect fill="#F1F1F1" height="33.9688" rx="12.5" ry="12.5" style="stroke:#181818;stroke-width:0.5;" width="214.332" x="326.865" y="214.2031"/><text fill="#000000" font-family="sans-serif" font-size="12" lengthAdjust="spacing" textLength="194.332" x="336.865" y="235.3418">El Usuario introduce la direcci&#243;n</text><polygon fill="#F1F1F1" points="386.8674,268.1719,481.1946,268.1719,493.1946,280.1719,481.1946,292.1719,386.8674,292.1719,374.8674,280.1719,386.8674,268.1719" style="stroke:#181818;stroke-width:0.5;"/><text fill="#000000" font-family="sans-serif" font-size="11" lengthAdjust="spacing" textLength="94.3271" x="386.8674" y="283.98">&#191;Formato v&#225;lido?</text><text fill="#000000" font-family="sans-serif" font-size="11" lengthAdjust="spacing" textLength="8.7871" x="366.0803" y="277.5776">s&#237;</text><text fill="#000000" font-family="sans-serif" font-size="11" lengthAdjust="spacing" textLength="13.7017" x="493.1946" y="277.5776">no</text><polygon fill="#F1F1F1" points="159.4258,302.1719,327.874,302.1719,339.874,314.9766,327.874,327.7813,159.4258,327.7813,147.4258,314.9766,159.4258,302.1719" style="stroke:#181818;stroke-width:0.5;"/><text fill="#000000" font-family="sans-serif" font-size="11" lengthAdjust="spacing" textLength="168.4482" x="159.4258" y="312.3823">&#191;La direcci&#243;n ya est&#225; asociada</text><text fill="#000000" font-family="sans-serif" font-size="11" lengthAdjust="spacing" textLength="98.8496" x="166.4189" y="325.187">a alguna entidad?</text><text fill="#000000" font-family="sans-serif" font-size="11" lengthAdjust="spacing" textLength="13.7017" x="133.7241" y="312.3823">no</text><text fill="#000000" font-family="sans-serif" font-size="11" lengthAdjust="spacing" textLength="8.7871" x="339.874" y="312.3823">s&#237;</text><rect fill="#F1F1F1" height="33.9688" rx="12.5" ry="12.5" style="stroke:#181818;stroke-width:0.5;" width="213.4531" x="19.5332" y="337.7813"/><text fill="#000000" font-family="sans-serif" font-size="12" lengthAdjust="spacing" textLength="193.4531" x="29.5332" y="358.9199">El sistema registra la asociaci&#243;n</text><rect fill="#F1F1F1" height="33.9688" rx="12.5" ry="12.5" style="stroke:#181818;stroke-width:0.5;" width="220.5195" x="16" y="406.75"/><text fill="#000000" font-family="sans-serif" font-size="12" lengthAdjust="spacing" textLength="200.5195" x="26" y="427.8887">El sistema presenta confirmaci&#243;n</text><ellipse cx="126.2598" cy="473.7188" fill="none" rx="11" ry="11" style="stroke:#222222;stroke-width:1;"/><ellipse cx="126.2598" cy="473.7188" fill="#222222" rx="6" ry="6" style="stroke:#222222;stroke-width:1;"/><rect fill="#F1F1F1" height="47.9375" rx="12.5" ry="12.5" style="stroke:#181818;stroke-width:0.5;" width="209.041" x="256.5195" y="337.7813"/><text fill="#000000" font-family="sans-serif" font-size="12" lengthAdjust="spacing" textLength="189.041" x="266.5195" y="358.9199">El sistema informa del conflicto</text><text fill="#000000" font-family="sans-serif" font-size="12" lengthAdjust="spacing" textLength="81.9258" x="266.5195" y="372.8887">de asociaci&#243;n</text><ellipse cx="361.04" cy="431.7188" fill="none" rx="11" ry="11" style="stroke:#222222;stroke-width:1;"/><ellipse cx="361.04" cy="431.7188" fill="#222222" rx="6" ry="6" style="stroke:#222222;stroke-width:1;"/><rect fill="#F1F1F1" height="33.9688" rx="12.5" ry="12.5" style="stroke:#181818;stroke-width:0.5;" width="257.7031" x="495.5605" y="302.1719"/><text fill="#000000" font-family="sans-serif" font-size="12" lengthAdjust="spacing" textLength="237.7031" x="505.5605" y="323.3105">El sistema informa del error de formato</text><ellipse cx="624.4121" cy="382.1406" fill="none" rx="11" ry="11" style="stroke:#222222;stroke-width:1;"/><ellipse cx="624.4121" cy="382.1406" fill="#222222" rx="6" ry="6" style="stroke:#222222;stroke-width:1;"/><line style="stroke:#181818;stroke-width:1;" x1="434.031" x2="434.031" y1="72.2969" y2="92.2969"/><polygon fill="#181818" points="430.031,82.2969,434.031,92.2969,438.031,82.2969,434.031,86.2969" style="stroke:#181818;stroke-width:1;"/><line style="stroke:#181818;stroke-width:1;" x1="434.031" x2="434.031" y1="140.2344" y2="160.2344"/><polygon fill="#181818" points="430.031,150.2344,434.031,160.2344,438.031,150.2344,434.031,154.2344" style="stroke:#181818;stroke-width:1;"/><line style="stroke:#181818;stroke-width:1;" x1="434.031" x2="434.031" y1="194.2031" y2="214.2031"/><polygon fill="#181818" points="430.031,204.2031,434.031,214.2031,438.031,204.2031,434.031,208.2031" style="stroke:#181818;stroke-width:1;"/><line style="stroke:#181818;stroke-width:1;" x1="126.2598" x2="126.2598" y1="371.75" y2="406.75"/><polygon fill="#181818" points="122.2598,396.75,126.2598,406.75,130.2598,396.75,126.2598,400.75" style="stroke:#181818;stroke-width:1;"/><line style="stroke:#181818;stroke-width:1;" x1="126.2598" x2="126.2598" y1="440.7188" y2="462.7188"/><polygon fill="#181818" points="122.2598,452.7188,126.2598,462.7188,130.2598,452.7188,126.2598,456.7188" style="stroke:#181818;stroke-width:1;"/><line style="stroke:#181818;stroke-width:1;" x1="361.04" x2="361.04" y1="385.7188" y2="420.7188"/><polygon fill="#181818" points="357.04,410.7188,361.04,420.7188,365.04,410.7188,361.04,414.7188" style="stroke:#181818;stroke-width:1;"/><line style="stroke:#181818;stroke-width:1;" x1="147.4258" x2="126.2598" y1="314.9766" y2="314.9766"/><line style="stroke:#181818;stroke-width:1;" x1="126.2598" x2="126.2598" y1="314.9766" y2="337.7813"/><polygon fill="#181818" points="122.2598,327.7813,126.2598,337.7813,130.2598,327.7813,126.2598,331.7813" style="stroke:#181818;stroke-width:1;"/><line style="stroke:#181818;stroke-width:1;" x1="339.874" x2="361.04" y1="314.9766" y2="314.9766"/><line style="stroke:#181818;stroke-width:1;" x1="361.04" x2="361.04" y1="314.9766" y2="337.7813"/><polygon fill="#181818" points="357.04,327.7813,361.04,337.7813,365.04,327.7813,361.04,331.7813" style="stroke:#181818;stroke-width:1;"/><line style="stroke:#181818;stroke-width:1;" x1="624.4121" x2="624.4121" y1="336.1406" y2="371.1406"/><polygon fill="#181818" points="620.4121,361.1406,624.4121,371.1406,628.4121,361.1406,624.4121,365.1406" style="stroke:#181818;stroke-width:1;"/><line style="stroke:#181818;stroke-width:1;" x1="374.8674" x2="243.6499" y1="280.1719" y2="280.1719"/><line style="stroke:#181818;stroke-width:1;" x1="243.6499" x2="243.6499" y1="280.1719" y2="302.1719"/><polygon fill="#181818" points="239.6499,292.1719,243.6499,302.1719,247.6499,292.1719,243.6499,296.1719" style="stroke:#181818;stroke-width:1;"/><line style="stroke:#181818;stroke-width:1;" x1="493.1946" x2="624.4121" y1="280.1719" y2="280.1719"/><line style="stroke:#181818;stroke-width:1;" x1="624.4121" x2="624.4121" y1="280.1719" y2="302.1719"/><polygon fill="#181818" points="620.4121,292.1719,624.4121,302.1719,628.4121,292.1719,624.4121,296.1719" style="stroke:#181818;stroke-width:1;"/><line style="stroke:#181818;stroke-width:1;" x1="434.031" x2="434.031" y1="248.1719" y2="268.1719"/><polygon fill="#181818" points="430.031,258.1719,434.031,268.1719,438.031,258.1719,434.031,262.1719" style="stroke:#181818;stroke-width:1;"/><?plantuml-src TP0nJWCn44LxdsBAf42YeY05GWWgsXnWPC-6aRoUrNWMYOv3S84SW09n02Js9fm4htSJRO8eBBbu__b_6riakDjUN5x1p-iRt0uV65YX7FAUXy_aN3PKSzVt4RQvHsM1B94z6mBEU9zm6K6829IC0uPDJMREHYr2Hzgo4N0obT3xaetBwERadGD5vv3Z1bRVNm-YBPh0yx2F7EHc3VP42LPvU5yxW0bwN4RXfHJBDkm1itZ6W8KhE-9kd31NFdgIZ1g0vGAbNRbfdJWvvaxdOAUKYn31Isgu55rmsQGh5ugPZcrFqvoQSHm4YbLGFjoaKe7-ldlmfS2DcwnJz_-Kf2ewgfhf2qTDbLJ5Bm00?></g></svg>