<svg xmlns="http://www.w3.org/2000/svg" xmlns:xlink="http://www.w3.org/1999/xlink" contentStyleType="text/css" data-diagram-type="ACTIVITY" height="648px" preserveAspectRatio="none" style="width:330px;height:648px;background:#FFFFFF;" version="1.1" viewBox="0 0 330 648" width="330px" zoomAndPan="magnify"><?plantuml 1.2026.3beta6?><defs/><g><g class="title" data-source-line="1"><text fill="#000000" font-family="sans-serif" font-size="14" font-weight="700" lengthAdjust="spacing" textLength="193.293" x="67.6611" y="32.9951">CU-03 &#8212; Abrir entidades</text></g><ellipse cx="141.8076" cy="62.2969" fill="#222222" rx="10" ry="10" style="stroke:#222222;stroke-width:1;"/><rect fill="#F1F1F1" height="33.9688" rx="12.5" ry="12.5" style="stroke:#181818;stroke-width:0.5;" width="221.4512" x="31.082" y="92.2969"/><text fill="#000000" font-family="sans-serif" font-size="12" lengthAdjust="spacing" textLength="201.4512" x="41.082" y="113.4355">El Usuario solicita abrir entidades</text><rect fill="#F1F1F1" height="47.9375" rx="12.5" ry="12.5" style="stroke:#181818;stroke-width:0.5;" width="204.9453" x="39.335" y="146.2656"/><text fill="#000000" font-family="sans-serif" font-size="12" lengthAdjust="spacing" textLength="184.9453" x="49.335" y="167.4043">El sistema presenta la relaci&#243;n</text><text fill="#000000" font-family="sans-serif" font-size="12" lengthAdjust="spacing" textLength="149.6133" x="49.335" y="181.373">de entidades registradas</text><rect fill="#F1F1F1" height="33.9688" rx="12.5" ry="12.5" style="stroke:#181818;stroke-width:0.5;" width="187.6484" x="47.9834" y="306.6055"/><text fill="#000000" font-family="sans-serif" font-size="12" lengthAdjust="spacing" textLength="167.6484" x="57.9834" y="327.7441">El Usuario introduce criterio</text><rect fill="#F1F1F1" height="33.9688" rx="12.5" ry="12.5" style="stroke:#181818;stroke-width:0.5;" width="251.6152" x="16" y="375.5742"/><text fill="#000000" font-family="sans-serif" font-size="12" lengthAdjust="spacing" textLength="231.6152" x="26" y="396.7129">El sistema presenta la relaci&#243;n filtrada</text><polygon fill="#F1F1F1" points="70.4124,258.2031,213.2029,258.2031,225.2029,270.2031,213.2029,282.2031,70.4124,282.2031,58.4124,270.2031,70.4124,258.2031" style="stroke:#181818;stroke-width:0.5;"/><text fill="#000000" font-family="sans-serif" font-size="11" lengthAdjust="spacing" textLength="8.7871" x="145.8076" y="292.4136">s&#237;</text><text fill="#000000" font-family="sans-serif" font-size="11" lengthAdjust="spacing" textLength="142.7905" x="70.4124" y="274.0112">&#191;El Usuario solicita filtrar?</text><text fill="#000000" font-family="sans-serif" font-size="11" lengthAdjust="spacing" textLength="13.7017" x="225.2029" y="267.6089">no</text><polygon fill="#F1F1F1" points="141.8076,429.543,153.8076,441.543,141.8076,453.543,129.8076,441.543,141.8076,429.543" style="stroke:#181818;stroke-width:0.5;"/><polygon fill="#F1F1F1" points="141.8076,214.2031,153.8076,226.2031,141.8076,238.2031,129.8076,226.2031,141.8076,214.2031" style="stroke:#181818;stroke-width:0.5;"/><polygon fill="#F1F1F1" points="47.0642,473.543,236.551,473.543,248.551,485.543,236.551,497.543,47.0642,497.543,35.0642,485.543,47.0642,473.543" style="stroke:#181818;stroke-width:0.5;"/><text fill="#000000" font-family="sans-serif" font-size="11" lengthAdjust="spacing" textLength="189.4868" x="47.0642" y="489.3511">&#191;El Usuario quiere ajustar el filtro?</text><text fill="#000000" font-family="sans-serif" font-size="11" lengthAdjust="spacing" textLength="8.7871" x="248.551" y="482.9487">s&#237;</text><rect fill="#F1F1F1" height="47.9375" rx="12.5" ry="12.5" style="stroke:#181818;stroke-width:0.5;" width="216.1016" x="33.7568" y="538.9419"/><text fill="#000000" font-family="sans-serif" font-size="12" lengthAdjust="spacing" textLength="196.1016" x="43.7568" y="560.0806">El Usuario solicita una operaci&#243;n</text><text fill="#000000" font-family="sans-serif" font-size="12" lengthAdjust="spacing" textLength="109.3359" x="43.7568" y="574.0493">sobre una entidad</text><ellipse cx="141.8076" cy="617.8794" fill="none" rx="11" ry="11" style="stroke:#222222;stroke-width:1;"/><ellipse cx="141.8076" cy="617.8794" fill="#222222" rx="6" ry="6" style="stroke:#222222;stroke-width:1;"/><line style="stroke:#181818;stroke-width:1;" x1="141.8076" x2="141.8076" y1="72.2969" y2="92.2969"/><polygon fill="#181818" points="137.8076,82.2969,141.8076,92.2969,145.8076,82.2969,141.8076,86.2969" style="stroke:#181818;stroke-width:1;"/><line style="stroke:#181818;stroke-width:1;" x1="141.8076" x2="141.8076" y1="126.2656" y2="146.2656"/><polygon fill="#181818" points="137.8076,136.2656,141.8076,146.2656,145.8076,136.2656,141.8076,140.2656" style="stroke:#181818;stroke-width:1;"/><line style="stroke:#181818;stroke-width:1;" x1="141.8076" x2="141.8076" y1="340.5742" y2="375.5742"/><polygon fill="#181818" points="137.8076,365.5742,141.8076,375.5742,145.8076,365.5742,141.8076,369.5742" style="stroke:#181818;stroke-width:1;"/><line style="stroke:#181818;stroke-width:1;" x1="141.8076" x2="141.8076" y1="282.2031" y2="306.6055"/><polygon fill="#181818" points="137.8076,296.6055,141.8076,306.6055,145.8076,296.6055,141.8076,300.6055" style="stroke:#181818;stroke-width:1;"/><line style="stroke:#181818;stroke-width:1;" x1="225.2029" x2="277.6152" y1="270.2031" y2="270.2031"/><polygon fill="#181818" points="273.6152,348.0742,277.6152,358.0742,281.6152,348.0742,277.6152,352.0742" style="stroke:#181818;stroke-width:1;"/><line style="stroke:#181818;stroke-width:1;" x1="277.6152" x2="277.6152" y1="270.2031" y2="441.543"/><line style="stroke:#181818;stroke-width:1;" x1="277.6152" x2="153.8076" y1="441.543" y2="441.543"/><polygon fill="#181818" points="163.8076,437.543,153.8076,441.543,163.8076,445.543,159.8076,441.543" style="stroke:#181818;stroke-width:1;"/><line style="stroke:#181818;stroke-width:1;" x1="141.8076" x2="141.8076" y1="409.543" y2="429.543"/><polygon fill="#181818" points="137.8076,419.543,141.8076,429.543,145.8076,419.543,141.8076,423.543" style="stroke:#181818;stroke-width:1;"/><line style="stroke:#181818;stroke-width:1;" x1="141.8076" x2="141.8076" y1="238.2031" y2="258.2031"/><polygon fill="#181818" points="137.8076,248.2031,141.8076,258.2031,145.8076,248.2031,141.8076,252.2031" style="stroke:#181818;stroke-width:1;"/><line style="stroke:#181818;stroke-width:1;" x1="248.551" x2="295.6152" y1="485.543" y2="485.543"/><polygon fill="#181818" points="291.6152,368.0742,295.6152,358.0742,299.6152,368.0742,295.6152,364.0742" style="stroke:#181818;stroke-width:1;"/><line style="stroke:#181818;stroke-width:1;" x1="295.6152" x2="295.6152" y1="226.2031" y2="485.543"/><line style="stroke:#181818;stroke-width:1;" x1="295.6152" x2="153.8076" y1="226.2031" y2="226.2031"/><polygon fill="#181818" points="163.8076,222.2031,153.8076,226.2031,163.8076,230.2031,159.8076,226.2031" style="stroke:#181818;stroke-width:1;"/><line style="stroke:#181818;stroke-width:1;" x1="141.8076" x2="141.8076" y1="453.543" y2="473.543"/><polygon fill="#181818" points="137.8076,463.543,141.8076,473.543,145.8076,463.543,141.8076,467.543" style="stroke:#181818;stroke-width:1;"/><line style="stroke:#181818;stroke-width:1;" x1="141.8076" x2="141.8076" y1="194.2031" y2="214.2031"/><polygon fill="#181818" points="137.8076,204.2031,141.8076,214.2031,145.8076,204.2031,141.8076,208.2031" style="stroke:#181818;stroke-width:1;"/><line style="stroke:#181818;stroke-width:1;" x1="141.8076" x2="141.8076" y1="497.543" y2="538.9419"/><polygon fill="#181818" points="137.8076,528.9419,141.8076,538.9419,145.8076,528.9419,141.8076,532.9419" style="stroke:#181818;stroke-width:1;"/><text fill="#000000" font-family="sans-serif" font-size="11" lengthAdjust="spacing" textLength="13.7017" x="145.8076" y="518.8477">no</text><line style="stroke:#181818;stroke-width:1;" x1="141.8076" x2="141.8076" y1="586.8794" y2="606.8794"/><polygon fill="#181818" points="137.8076,596.8794,141.8076,606.8794,145.8076,596.8794,141.8076,600.8794" style="stroke:#181818;stroke-width:1;"/><?plantuml-src VP51JWCn34NtESLVJXULaDXr91127A47S2SUQXIImKx4baDm3LOS08dUX9FWWH5GgMBhFFyyVLUfYN6zNP-Tu-Ff6LSx5GNdAf4YMmXMIMlOt2HihP5AWPKaWrG27RFz5sLYbUy9axBv4o4Hb1CDSdZD8V8lx-DRXvKY-MvGdfXg06H4z_vswiDHakDwkKBTSqPdXvULBm1_zIHNBR4DZ46bie_w7-PVkIK-qinpCaQNovpFESgu-E5nBrxOiU134rO6tRMvBT_zZYekAhPehY-oYvmkicL2cLYNagpiF6qUBbtrVeKoVG80?></g></svg>