<svg xmlns="http://www.w3.org/2000/svg" xmlns:xlink="http://www.w3.org/1999/xlink" contentStyleType="text/css" data-diagram-type="ACTIVITY" height="398px" preserveAspectRatio="none" style="width:486px;height:398px;background:#FFFFFF;" version="1.1" viewBox="0 0 486 398" width="486px" zoomAndPan="magnify"><?plantuml 1.2026.3beta6?><defs/><g><g class="title" data-source-line="1"><text fill="#000000" font-family="sans-serif" font-size="14" font-weight="700" lengthAdjust="spacing" textLength="212.625" x="135.7285" y="32.9951">CU-08 &#8212; Eliminar direcci&#243;n</text></g><ellipse cx="243.7803" cy="62.2969" fill="#222222" rx="10" ry="10" style="stroke:#222222;stroke-width:1;"/><rect fill="#F1F1F1" height="33.9688" rx="12.5" ry="12.5" style="stroke:#181818;stroke-width:0.5;" width="264.1191" x="111.7207" y="92.2969"/><text fill="#000000" font-family="sans-serif" font-size="12" lengthAdjust="spacing" textLength="244.1191" x="121.7207" y="113.4355">El Usuario solicita eliminar una direcci&#243;n</text><rect fill="#F1F1F1" height="33.9688" rx="12.5" ry="12.5" style="stroke:#181818;stroke-width:0.5;" width="209.5391" x="139.0107" y="146.2656"/><text fill="#000000" font-family="sans-serif" font-size="12" lengthAdjust="spacing" textLength="189.5391" x="149.0107" y="167.4043">El sistema solicita confirmaci&#243;n</text><polygon fill="#F1F1F1" points="184.2122,200.2344,303.3484,200.2344,315.3484,212.2344,303.3484,224.2344,184.2122,224.2344,172.2122,212.2344,184.2122,200.2344" style="stroke:#181818;stroke-width:0.5;"/><text fill="#000000" font-family="sans-serif" font-size="11" lengthAdjust="spacing" textLength="119.1362" x="184.2122" y="216.0425">&#191;El Usuario confirma?</text><text fill="#000000" font-family="sans-serif" font-size="11" lengthAdjust="spacing" textLength="8.7871" x="163.425" y="209.6401">s&#237;</text><text fill="#000000" font-family="sans-serif" font-size="11" lengthAdjust="spacing" textLength="13.7017" x="315.3484" y="209.6401">no</text><rect fill="#F1F1F1" height="47.9375" rx="12.5" ry="12.5" style="stroke:#181818;stroke-width:0.5;" width="185.7441" x="33.3877" y="234.2344"/><text fill="#000000" font-family="sans-serif" font-size="12" lengthAdjust="spacing" textLength="165.7441" x="43.3877" y="255.373">El sistema rompe el v&#237;nculo</text><text fill="#000000" font-family="sans-serif" font-size="12" lengthAdjust="spacing" textLength="150.9141" x="43.3877" y="269.3418">entre direcci&#243;n y entidad</text><rect fill="#F1F1F1" height="33.9688" rx="12.5" ry="12.5" style="stroke:#181818;stroke-width:0.5;" width="220.5195" x="16" y="302.1719"/><text fill="#000000" font-family="sans-serif" font-size="12" lengthAdjust="spacing" textLength="200.5195" x="26" y="323.3105">El sistema presenta confirmaci&#243;n</text><ellipse cx="126.2598" cy="367.1406" fill="none" rx="11" ry="11" style="stroke:#222222;stroke-width:1;"/><ellipse cx="126.2598" cy="367.1406" fill="#222222" rx="6" ry="6" style="stroke:#222222;stroke-width:1;"/><rect fill="#F1F1F1" height="47.9375" rx="12.5" ry="12.5" style="stroke:#181818;stroke-width:0.5;" width="209.5625" x="256.5195" y="234.2344"/><text fill="#000000" font-family="sans-serif" font-size="12" lengthAdjust="spacing" textLength="189.5625" x="266.5195" y="255.373">El sistema cancela la operaci&#243;n</text><text fill="#000000" font-family="sans-serif" font-size="12" lengthAdjust="spacing" textLength="71.1914" x="266.5195" y="269.3418">sin cambios</text><ellipse cx="361.3008" cy="313.1719" fill="none" rx="11" ry="11" style="stroke:#222222;stroke-width:1;"/><ellipse cx="361.3008" cy="313.1719" fill="#222222" rx="6" ry="6" style="stroke:#222222;stroke-width:1;"/><line style="stroke:#181818;stroke-width:1;" x1="243.7803" x2="243.7803" y1="72.2969" y2="92.2969"/><polygon fill="#181818" points="239.7803,82.2969,243.7803,92.2969,247.7803,82.2969,243.7803,86.2969" style="stroke:#181818;stroke-width:1;"/><line style="stroke:#181818;stroke-width:1;" x1="243.7803" x2="243.7803" y1="126.2656" y2="146.2656"/><polygon fill="#181818" points="239.7803,136.2656,243.7803,146.2656,247.7803,136.2656,243.7803,140.2656" style="stroke:#181818;stroke-width:1;"/><line style="stroke:#181818;stroke-width:1;" x1="126.2598" x2="126.2598" y1="282.1719" y2="302.1719"/><polygon fill="#181818" points="122.2598,292.1719,126.2598,302.1719,130.2598,292.1719,126.2598,296.1719" style="stroke:#181818;stroke-width:1;"/><line style="stroke:#181818;stroke-width:1;" x1="126.2598" x2="126.2598" y1="336.1406" y2="356.1406"/><polygon fill="#181818" points="122.2598,346.1406,126.2598,356.1406,130.2598,346.1406,126.2598,350.1406" style="stroke:#181818;stroke-width:1;"/><line style="stroke:#181818;stroke-width:1;" x1="361.3008" x2="361.3008" y1="282.1719" y2="302.1719"/><polygon fill="#181818" points="357.3008,292.1719,361.3008,302.1719,365.3008,292.1719,361.3008,296.1719" style="stroke:#181818;stroke-width:1;"/><line style="stroke:#181818;stroke-width:1;" x1="172.2122" x2="126.2598" y1="212.2344" y2="212.2344"/><line style="stroke:#181818;stroke-width:1;" x1="126.2598" x2="126.2598" y1="212.2344" y2="234.2344"/><polygon fill="#181818" points="122.2598,224.2344,126.2598,234.2344,130.2598,224.2344,126.2598,228.2344" style="stroke:#181818;stroke-width:1;"/><line style="stroke:#181818;stroke-width:1;" x1="315.3484" x2="361.3008" y1="212.2344" y2="212.2344"/><line style="stroke:#181818;stroke-width:1;" x1="361.3008" x2="361.3008" y1="212.2344" y2="234.2344"/><polygon fill="#181818" points="357.3008,224.2344,361.3008,234.2344,365.3008,224.2344,361.3008,228.2344" style="stroke:#181818;stroke-width:1;"/><line style="stroke:#181818;stroke-width:1;" x1="243.7803" x2="243.7803" y1="180.2344" y2="200.2344"/><polygon fill="#181818" points="239.7803,190.2344,243.7803,200.2344,247.7803,190.2344,243.7803,194.2344" style="stroke:#181818;stroke-width:1;"/><?plantuml-src POunJWD134NxEONBJH694f620kK8EO2PzGfBC_RAzYAboo5oZLGS08cz2ITX0aHP9T9Kyzx_ty5H25vswuT7-3uSOLkuig11pqOvy_mXANcWHNhQ5jZvXCOAheKp1m9T_4bmaTdysiuULF5gPvM1hUA_mmDqNv-BsWj_Na6yaK3dyscL09PbfdMajWllyqdoLBHnaZ1QpCF-_CKzzfkRz6Za3TsT0k2XOwBY19texMX6oLGGsjEHx2zr3h4qLbzP_TeXFGy_?></g></svg>