<svg xmlns="http://www.w3.org/2000/svg" xmlns:xlink="http://www.w3.org/1999/xlink" contentStyleType="text/css" data-diagram-type="ACTIVITY" height="662px" preserveAspectRatio="none" style="width:330px;height:662px;background:#FFFFFF;" version="1.1" viewBox="0 0 330 662" width="330px" zoomAndPan="magnify"><?plantuml 1.2026.3beta6?><defs/><g><g class="title" data-source-line="1"><text fill="#000000" font-family="sans-serif" font-size="14" font-weight="700" lengthAdjust="spacing" textLength="205.0508" x="61.7822" y="32.9951">CU-07 &#8212; Abrir direcciones</text></g><ellipse cx="141.8076" cy="62.2969" fill="#222222" rx="10" ry="10" style="stroke:#222222;stroke-width:1;"/><rect fill="#F1F1F1" height="47.9375" rx="12.5" ry="12.5" style="stroke:#181818;stroke-width:0.5;" width="183.002" x="50.3066" y="92.2969"/><text fill="#000000" font-family="sans-serif" font-size="12" lengthAdjust="spacing" textLength="159.1406" x="60.3066" y="113.4355">El Usuario solicita abrir las</text><text fill="#000000" font-family="sans-serif" font-size="12" lengthAdjust="spacing" textLength="163.002" x="60.3066" y="127.4043">direcciones de una entidad</text><rect fill="#F1F1F1" height="47.9375" rx="12.5" ry="12.5" style="stroke:#181818;stroke-width:0.5;" width="231.6934" x="25.9609" y="160.2344"/><text fill="#000000" font-family="sans-serif" font-size="12" lengthAdjust="spacing" textLength="211.6934" x="35.9609" y="181.373">El sistema presenta las direcciones</text><text fill="#000000" font-family="sans-serif" font-size="12" lengthAdjust="spacing" textLength="134.5547" x="35.9609" y="195.3418">asociadas a la entidad</text><rect fill="#F1F1F1" height="33.9688" rx="12.5" ry="12.5" style="stroke:#181818;stroke-width:0.5;" width="187.6484" x="47.9834" y="320.5742"/><text fill="#000000" font-family="sans-serif" font-size="12" lengthAdjust="spacing" textLength="167.6484" x="57.9834" y="341.7129">El Usuario introduce criterio</text><rect fill="#F1F1F1" height="33.9688" rx="12.5" ry="12.5" style="stroke:#181818;stroke-width:0.5;" width="251.6152" x="16" y="389.543"/><text fill="#000000" font-family="sans-serif" font-size="12" lengthAdjust="spacing" textLength="231.6152" x="26" y="410.6816">El sistema presenta la relaci&#243;n filtrada</text><polygon fill="#F1F1F1" points="70.4124,272.1719,213.2029,272.1719,225.2029,284.1719,213.2029,296.1719,70.4124,296.1719,58.4124,284.1719,70.4124,272.1719" style="stroke:#181818;stroke-width:0.5;"/><text fill="#000000" font-family="sans-serif" font-size="11" lengthAdjust="spacing" textLength="8.7871" x="145.8076" y="306.3823">s&#237;</text><text fill="#000000" font-family="sans-serif" font-size="11" lengthAdjust="spacing" textLength="142.7905" x="70.4124" y="287.98">&#191;El Usuario solicita filtrar?</text><text fill="#000000" font-family="sans-serif" font-size="11" lengthAdjust="spacing" textLength="13.7017" x="225.2029" y="281.5776">no</text><polygon fill="#F1F1F1" points="141.8076,443.5117,153.8076,455.5117,141.8076,467.5117,129.8076,455.5117,141.8076,443.5117" style="stroke:#181818;stroke-width:0.5;"/><polygon fill="#F1F1F1" points="141.8076,228.1719,153.8076,240.1719,141.8076,252.1719,129.8076,240.1719,141.8076,228.1719" style="stroke:#181818;stroke-width:0.5;"/><polygon fill="#F1F1F1" points="47.0642,487.5117,236.551,487.5117,248.551,499.5117,236.551,511.5117,47.0642,511.5117,35.0642,499.5117,47.0642,487.5117" style="stroke:#181818;stroke-width:0.5;"/><text fill="#000000" font-family="sans-serif" font-size="11" lengthAdjust="spacing" textLength="189.4868" x="47.0642" y="503.3198">&#191;El Usuario quiere ajustar el filtro?</text><text fill="#000000" font-family="sans-serif" font-size="11" lengthAdjust="spacing" textLength="8.7871" x="248.551" y="496.9175">s&#237;</text><rect fill="#F1F1F1" height="47.9375" rx="12.5" ry="12.5" style="stroke:#181818;stroke-width:0.5;" width="216.1016" x="33.7568" y="552.9106"/><text fill="#000000" font-family="sans-serif" font-size="12" lengthAdjust="spacing" textLength="196.1016" x="43.7568" y="574.0493">El Usuario solicita una operaci&#243;n</text><text fill="#000000" font-family="sans-serif" font-size="12" lengthAdjust="spacing" textLength="118.4648" x="43.7568" y="588.0181">sobre una direcci&#243;n</text><ellipse cx="141.8076" cy="631.8481" fill="none" rx="11" ry="11" style="stroke:#222222;stroke-width:1;"/><ellipse cx="141.8076" cy="631.8481" fill="#222222" rx="6" ry="6" style="stroke:#222222;stroke-width:1;"/><line style="stroke:#181818;stroke-width:1;" x1="141.8076" x2="141.8076" y1="72.2969" y2="92.2969"/><polygon fill="#181818" points="137.8076,82.2969,141.8076,92.2969,145.8076,82.2969,141.8076,86.2969" style="stroke:#181818;stroke-width:1;"/><line style="stroke:#181818;stroke-width:1;" x1="141.8076" x2="141.8076" y1="140.2344" y2="160.2344"/><polygon fill="#181818" points="137.8076,150.2344,141.8076,160.2344,145.8076,150.2344,141.8076,154.2344" style="stroke:#181818;stroke-width:1;"/><line style="stroke:#181818;stroke-width:1;" x1="141.8076" x2="141.8076" y1="354.543" y2="389.543"/><polygon fill="#181818" points="137.8076,379.543,141.8076,389.543,145.8076,379.543,141.8076,383.543" style="stroke:#181818;stroke-width:1;"/><line style="stroke:#181818;stroke-width:1;" x1="141.8076" x2="141.8076" y1="296.1719" y2="320.5742"/><polygon fill="#181818" points="137.8076,310.5742,141.8076,320.5742,145.8076,310.5742,141.8076,314.5742" style="stroke:#181818;stroke-width:1;"/><line style="stroke:#181818;stroke-width:1;" x1="225.2029" x2="277.6152" y1="284.1719" y2="284.1719"/><polygon fill="#181818" points="273.6152,362.043,277.6152,372.043,281.6152,362.043,277.6152,366.043" style="stroke:#181818;stroke-width:1;"/><line style="stroke:#181818;stroke-width:1;" x1="277.6152" x2="277.6152" y1="284.1719" y2="455.5117"/><line style="stroke:#181818;stroke-width:1;" x1="277.6152" x2="153.8076" y1="455.5117" y2="455.5117"/><polygon fill="#181818" points="163.8076,451.5117,153.8076,455.5117,163.8076,459.5117,159.8076,455.5117" style="stroke:#181818;stroke-width:1;"/><line style="stroke:#181818;stroke-width:1;" x1="141.8076" x2="141.8076" y1="423.5117" y2="443.5117"/><polygon fill="#181818" points="137.8076,433.5117,141.8076,443.5117,145.8076,433.5117,141.8076,437.5117" style="stroke:#181818;stroke-width:1;"/><line style="stroke:#181818;stroke-width:1;" x1="141.8076" x2="141.8076" y1="252.1719" y2="272.1719"/><polygon fill="#181818" points="137.8076,262.1719,141.8076,272.1719,145.8076,262.1719,141.8076,266.1719" style="stroke:#181818;stroke-width:1;"/><line style="stroke:#181818;stroke-width:1;" x1="248.551" x2="295.6152" y1="499.5117" y2="499.5117"/><polygon fill="#181818" points="291.6152,382.043,295.6152,372.043,299.6152,382.043,295.6152,378.043" style="stroke:#181818;stroke-width:1;"/><line style="stroke:#181818;stroke-width:1;" x1="295.6152" x2="295.6152" y1="240.1719" y2="499.5117"/><line style="stroke:#181818;stroke-width:1;" x1="295.6152" x2="153.8076" y1="240.1719" y2="240.1719"/><polygon fill="#181818" points="163.8076,236.1719,153.8076,240.1719,163.8076,244.1719,159.8076,240.1719" style="stroke:#181818;stroke-width:1;"/><line style="stroke:#181818;stroke-width:1;" x1="141.8076" x2="141.8076" y1="467.5117" y2="487.5117"/><polygon fill="#181818" points="137.8076,477.5117,141.8076,487.5117,145.8076,477.5117,141.8076,481.5117" style="stroke:#181818;stroke-width:1;"/><line style="stroke:#181818;stroke-width:1;" x1="141.8076" x2="141.8076" y1="208.1719" y2="228.1719"/><polygon fill="#181818" points="137.8076,218.1719,141.8076,228.1719,145.8076,218.1719,141.8076,222.1719" style="stroke:#181818;stroke-width:1;"/><line style="stroke:#181818;stroke-width:1;" x1="141.8076" x2="141.8076" y1="511.5117" y2="552.9106"/><polygon fill="#181818" points="137.8076,542.9106,141.8076,552.9106,145.8076,542.9106,141.8076,546.9106" style="stroke:#181818;stroke-width:1;"/><text fill="#000000" font-family="sans-serif" font-size="11" lengthAdjust="spacing" textLength="13.7017" x="145.8076" y="532.8164">no</text><line style="stroke:#181818;stroke-width:1;" x1="141.8076" x2="141.8076" y1="600.8481" y2="620.8481"/><polygon fill="#181818" points="137.8076,610.8481,141.8076,620.8481,145.8076,610.8481,141.8076,614.8481" style="stroke:#181818;stroke-width:1;"/><?plantuml-src RP51IWGn44NtESLVzYm6t0asA28UOGvGarGp9J5fgzAuzH1UmvK749oRU1AJwKPdeBU__lzv_1GfaV6msrvTu-Vj7VTx5KKGPUyb9pRdh90MT_COiRE9L38iH_5I27HoHp9tba1WJ8d0gKYWq9-Y9bRucJ0gMprG2rqyGvQzKAXgk_s7dVB8L1mW0xhlhpMCGM9HqhiDoe4JEZj-R6e0E8UML3I7oJEyIk4gzN-U5JeeH_9o_4nBVQ3cvsYCBkNMpod8iF3XzI1ro4l0bqbO6VGqjGrhTgxA5LHimTpUfWgoFczRCO-iCuUplDTvscMuAlRrU_Bu2m00?></g></svg>