<svg xmlns="http://www.w3.org/2000/svg" xmlns:xlink="http://www.w3.org/1999/xlink" contentStyleType="text/css" data-diagram-type="ACTIVITY" height="454px" preserveAspectRatio="none" style="width:475px;height:454px;background:#FFFFFF;" version="1.1" viewBox="0 0 475 454" width="475px" zoomAndPan="magnify"><?plantuml 1.2026.3beta6?><defs/><g><g class="title" data-source-line="1"><text fill="#000000" font-family="sans-serif" font-size="14" font-weight="700" lengthAdjust="spacing" textLength="179.0264" x="147.4829" y="32.9951">CU-02 &#8212; Crear entidad</text></g><ellipse cx="241.2578" cy="62.2969" fill="#222222" rx="10" ry="10" style="stroke:#222222;stroke-width:1;"/><rect fill="#F1F1F1" height="33.9688" rx="12.5" ry="12.5" style="stroke:#181818;stroke-width:0.5;" width="237.2246" x="122.6455" y="92.2969"/><text fill="#000000" font-family="sans-serif" font-size="12" lengthAdjust="spacing" textLength="217.2246" x="132.6455" y="113.4355">El Usuario solicita crear una entidad</text><rect fill="#F1F1F1" height="33.9688" rx="12.5" ry="12.5" style="stroke:#181818;stroke-width:0.5;" width="259.2969" x="111.6094" y="146.2656"/><text fill="#000000" font-family="sans-serif" font-size="12" lengthAdjust="spacing" textLength="239.2969" x="121.6094" y="167.4043">El sistema permite introducir el nombre</text><rect fill="#F1F1F1" height="33.9688" rx="12.5" ry="12.5" style="stroke:#181818;stroke-width:0.5;" width="206.1875" x="138.1641" y="200.2344"/><text fill="#000000" font-family="sans-serif" font-size="12" lengthAdjust="spacing" textLength="186.1875" x="148.1641" y="221.373">El Usuario introduce el nombre</text><polygon fill="#F1F1F1" points="153.0349,254.2031,329.4807,254.2031,341.4807,266.2031,329.4807,278.2031,153.0349,278.2031,141.0349,266.2031,153.0349,254.2031" style="stroke:#181818;stroke-width:0.5;"/><text fill="#000000" font-family="sans-serif" font-size="11" lengthAdjust="spacing" textLength="176.4458" x="153.0349" y="270.0112">&#191;Nombre v&#225;lido y no duplicado?</text><text fill="#000000" font-family="sans-serif" font-size="11" lengthAdjust="spacing" textLength="8.7871" x="132.2478" y="263.6089">s&#237;</text><text fill="#000000" font-family="sans-serif" font-size="11" lengthAdjust="spacing" textLength="13.7017" x="341.4807" y="263.6089">no</text><rect fill="#F1F1F1" height="33.9688" rx="12.5" ry="12.5" style="stroke:#181818;stroke-width:0.5;" width="195.957" x="28.2813" y="288.2031"/><text fill="#000000" font-family="sans-serif" font-size="12" lengthAdjust="spacing" textLength="175.957" x="38.2813" y="309.3418">El sistema registra la entidad</text><rect fill="#F1F1F1" height="33.9688" rx="12.5" ry="12.5" style="stroke:#181818;stroke-width:0.5;" width="220.5195" x="16" y="356.1406"/><text fill="#000000" font-family="sans-serif" font-size="12" lengthAdjust="spacing" textLength="200.5195" x="26" y="377.2793">El sistema presenta confirmaci&#243;n</text><ellipse cx="126.2598" cy="423.1094" fill="none" rx="11" ry="11" style="stroke:#222222;stroke-width:1;"/><ellipse cx="126.2598" cy="423.1094" fill="#222222" rx="6" ry="6" style="stroke:#222222;stroke-width:1;"/><rect fill="#F1F1F1" height="47.9375" rx="12.5" ry="12.5" style="stroke:#181818;stroke-width:0.5;" width="199.4727" x="256.5195" y="288.2031"/><text fill="#000000" font-family="sans-serif" font-size="12" lengthAdjust="spacing" textLength="179.4727" x="266.5195" y="309.3418">El sistema informa del motivo</text><text fill="#000000" font-family="sans-serif" font-size="12" lengthAdjust="spacing" textLength="146.4492" x="266.5195" y="323.3105">(nombre vac&#237;o o en uso)</text><ellipse cx="356.2559" cy="381.1094" fill="none" rx="11" ry="11" style="stroke:#222222;stroke-width:1;"/><ellipse cx="356.2559" cy="381.1094" fill="#222222" rx="6" ry="6" style="stroke:#222222;stroke-width:1;"/><line style="stroke:#181818;stroke-width:1;" x1="241.2578" x2="241.2578" y1="72.2969" y2="92.2969"/><polygon fill="#181818" points="237.2578,82.2969,241.2578,92.2969,245.2578,82.2969,241.2578,86.2969" style="stroke:#181818;stroke-width:1;"/><line style="stroke:#181818;stroke-width:1;" x1="241.2578" x2="241.2578" y1="126.2656" y2="146.2656"/><polygon fill="#181818" points="237.2578,136.2656,241.2578,146.2656,245.2578,136.2656,241.2578,140.2656" style="stroke:#181818;stroke-width:1;"/><line style="stroke:#181818;stroke-width:1;" x1="241.2578" x2="241.2578" y1="180.2344" y2="200.2344"/><polygon fill="#181818" points="237.2578,190.2344,241.2578,200.2344,245.2578,190.2344,241.2578,194.2344" style="stroke:#181818;stroke-width:1;"/><line style="stroke:#181818;stroke-width:1;" x1="126.2598" x2="126.2598" y1="322.1719" y2="356.1406"/><polygon fill="#181818" points="122.2598,346.1406,126.2598,356.1406,130.2598,346.1406,126.2598,350.1406" style="stroke:#181818;stroke-width:1;"/><line style="stroke:#181818;stroke-width:1;" x1="126.2598" x2="126.2598" y1="390.1094" y2="412.1094"/><polygon fill="#181818" points="122.2598,402.1094,126.2598,412.1094,130.2598,402.1094,126.2598,406.1094" style="stroke:#181818;stroke-width:1;"/><line style="stroke:#181818;stroke-width:1;" x1="356.2559" x2="356.2559" y1="336.1406" y2="370.1094"/><polygon fill="#181818" points="352.2559,360.1094,356.2559,370.1094,360.2559,360.1094,356.2559,364.1094" style="stroke:#181818;stroke-width:1;"/><line style="stroke:#181818;stroke-width:1;" x1="141.0349" x2="126.2598" y1="266.2031" y2="266.2031"/><line style="stroke:#181818;stroke-width:1;" x1="126.2598" x2="126.2598" y1="266.2031" y2="288.2031"/><polygon fill="#181818" points="122.2598,278.2031,126.2598,288.2031,130.2598,278.2031,126.2598,282.2031" style="stroke:#181818;stroke-width:1;"/><line style="stroke:#181818;stroke-width:1;" x1="341.4807" x2="356.2559" y1="266.2031" y2="266.2031"/><line style="stroke:#181818;stroke-width:1;" x1="356.2559" x2="356.2559" y1="266.2031" y2="288.2031"/><polygon fill="#181818" points="352.2559,278.2031,356.2559,288.2031,360.2559,278.2031,356.2559,282.2031" style="stroke:#181818;stroke-width:1;"/><line style="stroke:#181818;stroke-width:1;" x1="241.2578" x2="241.2578" y1="234.2031" y2="254.2031"/><polygon fill="#181818" points="237.2578,244.2031,241.2578,254.2031,245.2578,244.2031,241.2578,248.2031" style="stroke:#181818;stroke-width:1;"/><?plantuml-src NSynJiH030NGFgVuPL8W8Kgse5ZHqkq1l1a7B4tioEEiHCSXk007s8e3896RS1A6Y1MxT3Foq_TtI6J6TdTrVOElbrTidSd16f8eDKq9ycXkxpDsPIONGx4ilGIXN-MiTDARrHKfmIDXOXyb6ABXbkPUQcg6shXttbmadWIV0ndGVduyh3ySbhSioV1SnqZpL1jGihiEySIAjYp7hW7Ejpi_rfSJybczIp8vbpggXvWEuYFrihphZofXKyEvC5gr_ycYWrMCLCkE5dAm2bhzBKhzSZHOtOcvMFUNfac6Rm00?></g></svg>