<svg xmlns="http://www.w3.org/2000/svg" xmlns:xlink="http://www.w3.org/1999/xlink" contentStyleType="text/css" data-diagram-type="ACTIVITY" height="760px" preserveAspectRatio="none" style="width:332px;height:760px;background:#FFFFFF;" version="1.1" viewBox="0 0 332 760" width="332px" zoomAndPan="magnify"><?plantuml 1.2026.3beta6?><defs/><g><g class="title" data-source-line="1"><text fill="#000000" font-family="sans-serif" font-size="14" font-weight="700" lengthAdjust="spacing" textLength="250.9473" x="39.9287" y="32.9951">CU-13 &#8212; Evaluar alertas activas</text></g><ellipse cx="158.4023" cy="62.2969" fill="#222222" rx="10" ry="10" style="stroke:#222222;stroke-width:1;"/><rect fill="#F1F1F1" height="47.9375" rx="12.5" ry="12.5" style="stroke:#181818;stroke-width:0.5;" width="246.5469" x="35.1289" y="92.2969"/><text fill="#000000" font-family="sans-serif" font-size="12" lengthAdjust="spacing" textLength="164.209" x="45.1289" y="113.4355">Hyperliquid L1 entrega una</text><text fill="#000000" font-family="sans-serif" font-size="12" lengthAdjust="spacing" textLength="226.5469" x="45.1289" y="127.4043">actualizaci&#243;n de precio para un token</text><rect fill="#F1F1F1" height="47.9375" rx="12.5" ry="12.5" style="stroke:#181818;stroke-width:0.5;" width="205.2031" x="55.8008" y="160.2344"/><text fill="#000000" font-family="sans-serif" font-size="12" lengthAdjust="spacing" textLength="185.2031" x="65.8008" y="181.373">El sistema recupera las alertas</text><text fill="#000000" font-family="sans-serif" font-size="12" lengthAdjust="spacing" textLength="157.0781" x="65.8008" y="195.3418">operativas para ese token</text><rect fill="#F1F1F1" height="47.9375" rx="12.5" ry="12.5" style="stroke:#181818;stroke-width:0.5;" width="234.8047" x="41" y="332.2847"/><text fill="#000000" font-family="sans-serif" font-size="12" lengthAdjust="spacing" textLength="214.8047" x="51" y="353.4233">El sistema compara el nuevo precio</text><text fill="#000000" font-family="sans-serif" font-size="12" lengthAdjust="spacing" textLength="154.6172" x="51" y="367.3921">con el umbral de la alerta</text><rect fill="#F1F1F1" height="47.9375" rx="12.5" ry="12.5" style="stroke:#181818;stroke-width:0.5;" width="176.8203" x="69.9922" y="448.6245"/><text fill="#000000" font-family="sans-serif" font-size="12" lengthAdjust="spacing" textLength="156.8203" x="79.9922" y="469.7632">El sistema marca la alerta</text><text fill="#000000" font-family="sans-serif" font-size="12" lengthAdjust="spacing" textLength="96.2168" x="79.9922" y="483.7319">como disparada</text><rect fill="#F1F1F1" height="61.9063" rx="12.5" ry="12.5" style="stroke:#181818;stroke-width:0.5;" width="168.3418" x="74.2314" y="527.0776"/><text fill="#000000" font-family="sans-serif" font-size="12" lengthAdjust="spacing" textLength="148.3418" x="84.2314" y="548.2163">El sistema solicita CU-14</text><text fill="#000000" font-family="sans-serif" font-size="12" lengthAdjust="spacing" textLength="111.0996" x="84.2314" y="562.1851">Enviar notificaci&#243;n</text><text fill="#000000" font-family="sans-serif" font-size="12" lengthAdjust="spacing" textLength="67.5234" x="84.2314" y="576.1538">(&#171;include&#187;)</text><polygon fill="#F1F1F1" points="88.9783,400.2222,227.8264,400.2222,239.8264,412.2222,227.8264,424.2222,88.9783,424.2222,76.9783,412.2222,88.9783,400.2222" style="stroke:#181818;stroke-width:0.5;"/><text fill="#000000" font-family="sans-serif" font-size="11" lengthAdjust="spacing" textLength="8.7871" x="162.4023" y="434.4326">s&#237;</text><text fill="#000000" font-family="sans-serif" font-size="11" lengthAdjust="spacing" textLength="138.8481" x="88.9783" y="416.0303">&#191;Se cumple la condici&#243;n?</text><text fill="#000000" font-family="sans-serif" font-size="11" lengthAdjust="spacing" textLength="13.7017" x="239.8264" y="409.6279">no</text><polygon fill="#F1F1F1" points="158.4023,608.9839,170.4023,620.9839,158.4023,632.9839,146.4023,620.9839,158.4023,608.9839" style="stroke:#181818;stroke-width:0.5;"/><polygon fill="#F1F1F1" points="62.9365,276.5742,253.8682,276.5742,265.8682,288.5742,253.8682,300.5742,62.9365,300.5742,50.9365,288.5742,62.9365,276.5742" style="stroke:#181818;stroke-width:0.5;"/><text fill="#000000" font-family="sans-serif" font-size="11" lengthAdjust="spacing" textLength="8.7871" x="162.4023" y="310.7847">s&#237;</text><text fill="#000000" font-family="sans-serif" font-size="11" lengthAdjust="spacing" textLength="190.9316" x="62.9365" y="292.3823">&#191;Queda alguna alerta por evaluar?</text><text fill="#000000" font-family="sans-serif" font-size="11" lengthAdjust="spacing" textLength="13.7017" x="37.2349" y="285.98">no</text><polygon fill="#F1F1F1" points="90.3237,228.1719,226.481,228.1719,238.481,240.1719,226.481,252.1719,90.3237,252.1719,78.3237,240.1719,90.3237,228.1719" style="stroke:#181818;stroke-width:0.5;"/><text fill="#000000" font-family="sans-serif" font-size="11" lengthAdjust="spacing" textLength="8.7871" x="162.4023" y="262.3823">s&#237;</text><text fill="#000000" font-family="sans-serif" font-size="11" lengthAdjust="spacing" textLength="136.1572" x="90.3237" y="243.98">&#191;Hay alertas operativas?</text><text fill="#000000" font-family="sans-serif" font-size="11" lengthAdjust="spacing" textLength="13.7017" x="238.481" y="237.5776">no</text><polygon fill="#F1F1F1" points="158.4023,674.9839,170.4023,686.9839,158.4023,698.9839,146.4023,686.9839,158.4023,674.9839" style="stroke:#181818;stroke-width:0.5;"/><ellipse cx="158.4023" cy="729.9839" fill="none" rx="11" ry="11" style="stroke:#222222;stroke-width:1;"/><ellipse cx="158.4023" cy="729.9839" fill="#222222" rx="6" ry="6" style="stroke:#222222;stroke-width:1;"/><line style="stroke:#181818;stroke-width:1;" x1="158.4023" x2="158.4023" y1="72.2969" y2="92.2969"/><polygon fill="#181818" points="154.4023,82.2969,158.4023,92.2969,162.4023,82.2969,158.4023,86.2969" style="stroke:#181818;stroke-width:1;"/><line style="stroke:#181818;stroke-width:1;" x1="158.4023" x2="158.4023" y1="140.2344" y2="160.2344"/><polygon fill="#181818" points="154.4023,150.2344,158.4023,160.2344,162.4023,150.2344,158.4023,154.2344" style="stroke:#181818;stroke-width:1;"/><line style="stroke:#181818;stroke-width:1;" x1="158.4023" x2="158.4023" y1="496.562" y2="527.0776"/><polygon fill="#181818" points="154.4023,517.0776,158.4023,527.0776,162.4023,517.0776,158.4023,521.0776" style="stroke:#181818;stroke-width:1;"/><line style="stroke:#181818;stroke-width:1;" x1="158.4023" x2="158.4023" y1="424.2222" y2="448.6245"/><polygon fill="#181818" points="154.4023,438.6245,158.4023,448.6245,162.4023,438.6245,158.4023,442.6245" style="stroke:#181818;stroke-width:1;"/><line style="stroke:#181818;stroke-width:1;" x1="239.8264" x2="256.8125" y1="412.2222" y2="412.2222"/><polygon fill="#181818" points="252.8125,506.562,256.8125,516.562,260.8125,506.562,256.8125,510.562" style="stroke:#181818;stroke-width:1;"/><line style="stroke:#181818;stroke-width:1;" x1="256.8125" x2="256.8125" y1="412.2222" y2="620.9839"/><line style="stroke:#181818;stroke-width:1;" x1="256.8125" x2="170.4023" y1="620.9839" y2="620.9839"/><polygon fill="#181818" points="180.4023,616.9839,170.4023,620.9839,180.4023,624.9839,176.4023,620.9839" style="stroke:#181818;stroke-width:1;"/><line style="stroke:#181818;stroke-width:1;" x1="158.4023" x2="158.4023" y1="588.9839" y2="608.9839"/><polygon fill="#181818" points="154.4023,598.9839,158.4023,608.9839,162.4023,598.9839,158.4023,602.9839" style="stroke:#181818;stroke-width:1;"/><line style="stroke:#181818;stroke-width:1;" x1="158.4023" x2="158.4023" y1="380.2222" y2="400.2222"/><polygon fill="#181818" points="154.4023,390.2222,158.4023,400.2222,162.4023,390.2222,158.4023,394.2222" style="stroke:#181818;stroke-width:1;"/><line style="stroke:#181818;stroke-width:1;" x1="158.4023" x2="158.4023" y1="300.5742" y2="332.2847"/><polygon fill="#181818" points="154.4023,322.2847,158.4023,332.2847,162.4023,322.2847,158.4023,326.2847" style="stroke:#181818;stroke-width:1;"/><line style="stroke:#181818;stroke-width:1;" x1="158.4023" x2="158.4023" y1="632.9839" y2="642.9839"/><line style="stroke:#181818;stroke-width:1;" x1="158.4023" x2="287.8047" y1="642.9839" y2="642.9839"/><polygon fill="#181818" points="283.8047,471.1753,287.8047,461.1753,291.8047,471.1753,287.8047,467.1753" style="stroke:#181818;stroke-width:1;"/><line style="stroke:#181818;stroke-width:1;" x1="287.8047" x2="287.8047" y1="288.5742" y2="642.9839"/><line style="stroke:#181818;stroke-width:1;" x1="287.8047" x2="265.8682" y1="288.5742" y2="288.5742"/><polygon fill="#181818" points="275.8682,284.5742,265.8682,288.5742,275.8682,292.5742,271.8682,288.5742" style="stroke:#181818;stroke-width:1;"/><line style="stroke:#181818;stroke-width:1;" x1="50.9365" x2="29" y1="288.5742" y2="288.5742"/><polygon fill="#181818" points="25,457.1753,29,467.1753,33,457.1753,29,461.1753" style="stroke:#181818;stroke-width:1;"/><line style="stroke:#181818;stroke-width:1;" x1="29" x2="29" y1="288.5742" y2="654.9839"/><line style="stroke:#181818;stroke-width:1;" x1="29" x2="158.4023" y1="654.9839" y2="654.9839"/><line style="stroke:#181818;stroke-width:1;" x1="158.4023" x2="158.4023" y1="654.9839" y2="674.9839"/><polygon fill="#181818" points="154.4023,664.9839,158.4023,674.9839,162.4023,664.9839,158.4023,668.9839" style="stroke:#181818;stroke-width:1;"/><line style="stroke:#181818;stroke-width:1;" x1="158.4023" x2="158.4023" y1="252.1719" y2="276.5742"/><polygon fill="#181818" points="154.4023,266.5742,158.4023,276.5742,162.4023,266.5742,158.4023,270.5742" style="stroke:#181818;stroke-width:1;"/><line style="stroke:#181818;stroke-width:1;" x1="238.481" x2="297.8047" y1="240.1719" y2="240.1719"/><polygon fill="#181818" points="293.8047,451.1753,297.8047,461.1753,301.8047,451.1753,297.8047,455.1753" style="stroke:#181818;stroke-width:1;"/><line style="stroke:#181818;stroke-width:1;" x1="297.8047" x2="297.8047" y1="240.1719" y2="686.9839"/><line style="stroke:#181818;stroke-width:1;" x1="297.8047" x2="170.4023" y1="686.9839" y2="686.9839"/><polygon fill="#181818" points="180.4023,682.9839,170.4023,686.9839,180.4023,690.9839,176.4023,686.9839" style="stroke:#181818;stroke-width:1;"/><line style="stroke:#181818;stroke-width:1;" x1="158.4023" x2="158.4023" y1="208.1719" y2="228.1719"/><polygon fill="#181818" points="154.4023,218.1719,158.4023,228.1719,162.4023,218.1719,158.4023,222.1719" style="stroke:#181818;stroke-width:1;"/><line style="stroke:#181818;stroke-width:1;" x1="158.4023" x2="158.4023" y1="698.9839" y2="718.9839"/><polygon fill="#181818" points="154.4023,708.9839,158.4023,718.9839,162.4023,708.9839,158.4023,712.9839" style="stroke:#181818;stroke-width:1;"/><?plantuml-src NL8xJWCn4ErzYYat1KK45Ob2WIAbe4680mps91dXjHT_5eMAGt0DAWw0H6x2IHYlbmHIhUJtthptPZPniWJNzsVJS_X-VODbZpPZ0BGK4aP0dRZ7g5HC699IbwjTHy7oKsO3DrCWbm9j4B939ToCbbzGy_x3WI7e0cdsq64e34Z-aTnCXYmjH8w9MWHXP9c8O8jRTLM-l0p6LKkH3c9UG_FrkSBT8UEHVJM1j2K7JTo_JnJ0yvQbdT1lCnaKmKPoZZheV02gTKN7yQ02-1jG-xPciE0ozNuiDV2qT-Kzjmy1RIbiVwVF1hnclIFGkUti08l4yB2Wqx2dnYq6ZSU98qFYU30SIoOpslpNHM_5G0gMgrwCXANhMSxgVE8rwtgX4MhcStRQPaEBnQGE92iBRvoliKWIhzNm7HTQa2EdulA7-Eu7?></g></svg>