<svg xmlns="http://www.w3.org/2000/svg" xmlns:xlink="http://www.w3.org/1999/xlink" contentStyleType="text/css" data-diagram-type="ACTIVITY" height="468px" preserveAspectRatio="none" style="width:475px;height:468px;background:#FFFFFF;" version="1.1" viewBox="0 0 475 468" width="475px" zoomAndPan="magnify"><?plantuml 1.2026.3beta6?><defs/><g><g class="title" data-source-line="1"><text fill="#000000" font-family="sans-serif" font-size="14" font-weight="700" lengthAdjust="spacing" textLength="248.1719" x="112.9102" y="32.9951">CU-11 &#8212; Editar alerta de precio</text></g><ellipse cx="241.2578" cy="62.2969" fill="#222222" rx="10" ry="10" style="stroke:#222222;stroke-width:1;"/><rect fill="#F1F1F1" height="33.9688" rx="12.5" ry="12.5" style="stroke:#181818;stroke-width:0.5;" width="230.7969" x="125.8594" y="92.2969"/><text fill="#000000" font-family="sans-serif" font-size="12" lengthAdjust="spacing" textLength="210.7969" x="135.8594" y="113.4355">El Usuario solicita editar una alerta</text><rect fill="#F1F1F1" height="47.9375" rx="12.5" ry="12.5" style="stroke:#181818;stroke-width:0.5;" width="232.8652" x="124.8252" y="146.2656"/><text fill="#000000" font-family="sans-serif" font-size="12" lengthAdjust="spacing" textLength="212.8652" x="134.8252" y="167.4043">El sistema presenta los par&#225;metros</text><text fill="#000000" font-family="sans-serif" font-size="12" lengthAdjust="spacing" textLength="189.5273" x="134.8252" y="181.373">actuales y permite modificarlos</text><rect fill="#F1F1F1" height="33.9688" rx="12.5" ry="12.5" style="stroke:#181818;stroke-width:0.5;" width="282.4941" x="100.0107" y="214.2031"/><text fill="#000000" font-family="sans-serif" font-size="12" lengthAdjust="spacing" textLength="262.4941" x="110.0107" y="235.3418">El Usuario introduce los nuevos par&#225;metros</text><polygon fill="#F1F1F1" points="182.5598,268.1719,299.9558,268.1719,311.9558,280.1719,299.9558,292.1719,182.5598,292.1719,170.5598,280.1719,182.5598,268.1719" style="stroke:#181818;stroke-width:0.5;"/><text fill="#000000" font-family="sans-serif" font-size="11" lengthAdjust="spacing" textLength="117.396" x="182.5598" y="283.98">&#191;Par&#225;metros v&#225;lidos?</text><text fill="#000000" font-family="sans-serif" font-size="11" lengthAdjust="spacing" textLength="8.7871" x="161.7727" y="277.5776">s&#237;</text><text fill="#000000" font-family="sans-serif" font-size="11" lengthAdjust="spacing" textLength="13.7017" x="311.9558" y="277.5776">no</text><rect fill="#F1F1F1" height="33.9688" rx="12.5" ry="12.5" style="stroke:#181818;stroke-width:0.5;" width="206.7676" x="22.876" y="302.1719"/><text fill="#000000" font-family="sans-serif" font-size="12" lengthAdjust="spacing" textLength="186.7676" x="32.876" y="323.3105">El sistema registra los cambios</text><rect fill="#F1F1F1" height="33.9688" rx="12.5" ry="12.5" style="stroke:#181818;stroke-width:0.5;" width="220.5195" x="16" y="370.1094"/><text fill="#000000" font-family="sans-serif" font-size="12" lengthAdjust="spacing" textLength="200.5195" x="26" y="391.248">El sistema presenta confirmaci&#243;n</text><ellipse cx="126.2598" cy="437.0781" fill="none" rx="11" ry="11" style="stroke:#222222;stroke-width:1;"/><ellipse cx="126.2598" cy="437.0781" fill="#222222" rx="6" ry="6" style="stroke:#222222;stroke-width:1;"/><rect fill="#F1F1F1" height="47.9375" rx="12.5" ry="12.5" style="stroke:#181818;stroke-width:0.5;" width="199.4727" x="256.5195" y="302.1719"/><text fill="#000000" font-family="sans-serif" font-size="12" lengthAdjust="spacing" textLength="179.4727" x="266.5195" y="323.3105">El sistema informa del motivo</text><text fill="#000000" font-family="sans-serif" font-size="12" lengthAdjust="spacing" textLength="108.8496" x="266.5195" y="337.2793">y permite corregir</text><ellipse cx="356.2559" cy="395.0781" fill="none" rx="11" ry="11" style="stroke:#222222;stroke-width:1;"/><ellipse cx="356.2559" cy="395.0781" fill="#222222" rx="6" ry="6" style="stroke:#222222;stroke-width:1;"/><line style="stroke:#181818;stroke-width:1;" x1="241.2578" x2="241.2578" y1="72.2969" y2="92.2969"/><polygon fill="#181818" points="237.2578,82.2969,241.2578,92.2969,245.2578,82.2969,241.2578,86.2969" style="stroke:#181818;stroke-width:1;"/><line style="stroke:#181818;stroke-width:1;" x1="241.2578" x2="241.2578" y1="126.2656" y2="146.2656"/><polygon fill="#181818" points="237.2578,136.2656,241.2578,146.2656,245.2578,136.2656,241.2578,140.2656" style="stroke:#181818;stroke-width:1;"/><line style="stroke:#181818;stroke-width:1;" x1="241.2578" x2="241.2578" y1="194.2031" y2="214.2031"/><polygon fill="#181818" points="237.2578,204.2031,241.2578,214.2031,245.2578,204.2031,241.2578,208.2031" style="stroke:#181818;stroke-width:1;"/><line style="stroke:#181818;stroke-width:1;" x1="126.2598" x2="126.2598" y1="336.1406" y2="370.1094"/><polygon fill="#181818" points="122.2598,360.1094,126.2598,370.1094,130.2598,360.1094,126.2598,364.1094" style="stroke:#181818;stroke-width:1;"/><line style="stroke:#181818;stroke-width:1;" x1="126.2598" x2="126.2598" y1="404.0781" y2="426.0781"/><polygon fill="#181818" points="122.2598,416.0781,126.2598,426.0781,130.2598,416.0781,126.2598,420.0781" style="stroke:#181818;stroke-width:1;"/><line style="stroke:#181818;stroke-width:1;" x1="356.2559" x2="356.2559" y1="350.1094" y2="384.0781"/><polygon fill="#181818" points="352.2559,374.0781,356.2559,384.0781,360.2559,374.0781,356.2559,378.0781" style="stroke:#181818;stroke-width:1;"/><line style="stroke:#181818;stroke-width:1;" x1="170.5598" x2="126.2598" y1="280.1719" y2="280.1719"/><line style="stroke:#181818;stroke-width:1;" x1="126.2598" x2="126.2598" y1="280.1719" y2="302.1719"/><polygon fill="#181818" points="122.2598,292.1719,126.2598,302.1719,130.2598,292.1719,126.2598,296.1719" style="stroke:#181818;stroke-width:1;"/><line style="stroke:#181818;stroke-width:1;" x1="311.9558" x2="356.2559" y1="280.1719" y2="280.1719"/><line style="stroke:#181818;stroke-width:1;" x1="356.2559" x2="356.2559" y1="280.1719" y2="302.1719"/><polygon fill="#181818" points="352.2559,292.1719,356.2559,302.1719,360.2559,292.1719,356.2559,296.1719" style="stroke:#181818;stroke-width:1;"/><line style="stroke:#181818;stroke-width:1;" x1="241.2578" x2="241.2578" y1="248.1719" y2="268.1719"/><polygon fill="#181818" points="237.2578,258.1719,241.2578,268.1719,245.2578,258.1719,241.2578,262.1719" style="stroke:#181818;stroke-width:1;"/><?plantuml-src NP0nJiH034NxEONBR46nBIaeqFOqUu1Xue2bcN5aEv6sun1SO0z0nG6Go4qu2Suk8eHkPBt_x3z6bX7kZpVxFNozlCAX8ui2CQDOX0vX44p48QYFBTmUCXnrZ48CofcIqu3Np5ZZJwwzS4fgME9YKApEPLOOeipdWYQi8IORFQ1mWW6ba24KxgYd5CNPThEDgcUwCU55KqUSjhOs1EgX-VnuM6SmpUTC7UlT3kmPApGwl-q2mD_p19_y9TVpKYoFjCYsp6-5nBKdAJ7H_5uNIes7W5aHcih_rLHxTjY_CNipeuaTMCicbcMvh9xgxRy1?></g></svg>