<svg xmlns="http://www.w3.org/2000/svg" xmlns:xlink="http://www.w3.org/1999/xlink" contentStyleType="text/css" data-diagram-type="ACTIVITY" height="400px" preserveAspectRatio="none" style="width:486px;height:400px;background:#FFFFFF;" version="1.1" viewBox="0 0 486 400" width="486px" zoomAndPan="magnify"><?plantuml 1.2026.3beta6?><defs/><g><g class="title" data-source-line="1"><text fill="#000000" font-family="sans-serif" font-size="14" font-weight="700" lengthAdjust="spacing" textLength="265.6104" x="109.2358" y="32.9951">CU-12 &#8212; Eliminar alerta de precio</text></g><ellipse cx="243.7803" cy="62.2969" fill="#222222" rx="10" ry="10" style="stroke:#222222;stroke-width:1;"/><rect fill="#F1F1F1" height="33.9688" rx="12.5" ry="12.5" style="stroke:#181818;stroke-width:0.5;" width="244.4375" x="121.5615" y="92.2969"/><text fill="#000000" font-family="sans-serif" font-size="12" lengthAdjust="spacing" textLength="224.4375" x="131.5615" y="113.4355">El Usuario solicita eliminar una alerta</text><rect fill="#F1F1F1" height="33.9688" rx="12.5" ry="12.5" style="stroke:#181818;stroke-width:0.5;" width="209.5391" x="139.0107" y="146.2656"/><text fill="#000000" font-family="sans-serif" font-size="12" lengthAdjust="spacing" textLength="189.5391" x="149.0107" y="167.4043">El sistema solicita confirmaci&#243;n</text><polygon fill="#F1F1F1" points="184.2122,200.2344,303.3484,200.2344,315.3484,212.2344,303.3484,224.2344,184.2122,224.2344,172.2122,212.2344,184.2122,200.2344" style="stroke:#181818;stroke-width:0.5;"/><text fill="#000000" font-family="sans-serif" font-size="11" lengthAdjust="spacing" textLength="119.1362" x="184.2122" y="216.0425">&#191;El Usuario confirma?</text><text fill="#000000" font-family="sans-serif" font-size="11" lengthAdjust="spacing" textLength="8.7871" x="163.425" y="209.6401">s&#237;</text><text fill="#000000" font-family="sans-serif" font-size="11" lengthAdjust="spacing" textLength="13.7017" x="315.3484" y="209.6401">no</text><rect fill="#F1F1F1" height="33.9688" rx="12.5" ry="12.5" style="stroke:#181818;stroke-width:0.5;" width="202.1504" x="25.1846" y="234.2344"/><text fill="#000000" font-family="sans-serif" font-size="12" lengthAdjust="spacing" textLength="182.1504" x="35.1846" y="255.373">El sistema da de baja la alerta</text><rect fill="#F1F1F1" height="33.9688" rx="12.5" ry="12.5" style="stroke:#181818;stroke-width:0.5;" width="220.5195" x="16" y="302.1719"/><text fill="#000000" font-family="sans-serif" font-size="12" lengthAdjust="spacing" textLength="200.5195" x="26" y="323.3105">El sistema presenta confirmaci&#243;n</text><ellipse cx="126.2598" cy="369.1406" fill="none" rx="11" ry="11" style="stroke:#222222;stroke-width:1;"/><ellipse cx="126.2598" cy="369.1406" fill="#222222" rx="6" ry="6" style="stroke:#222222;stroke-width:1;"/><rect fill="#F1F1F1" height="47.9375" rx="12.5" ry="12.5" style="stroke:#181818;stroke-width:0.5;" width="209.5625" x="256.5195" y="234.2344"/><text fill="#000000" font-family="sans-serif" font-size="12" lengthAdjust="spacing" textLength="189.5625" x="266.5195" y="255.373">El sistema cancela la operaci&#243;n</text><text fill="#000000" font-family="sans-serif" font-size="12" lengthAdjust="spacing" textLength="71.1914" x="266.5195" y="269.3418">sin cambios</text><ellipse cx="361.3008" cy="327.1406" fill="none" rx="11" ry="11" style="stroke:#222222;stroke-width:1;"/><ellipse cx="361.3008" cy="327.1406" fill="#222222" rx="6" ry="6" style="stroke:#222222;stroke-width:1;"/><line style="stroke:#181818;stroke-width:1;" x1="243.7803" x2="243.7803" y1="72.2969" y2="92.2969"/><polygon fill="#181818" points="239.7803,82.2969,243.7803,92.2969,247.7803,82.2969,243.7803,86.2969" style="stroke:#181818;stroke-width:1;"/><line style="stroke:#181818;stroke-width:1;" x1="243.7803" x2="243.7803" y1="126.2656" y2="146.2656"/><polygon fill="#181818" points="239.7803,136.2656,243.7803,146.2656,247.7803,136.2656,243.7803,140.2656" style="stroke:#181818;stroke-width:1;"/><line style="stroke:#181818;stroke-width:1;" x1="126.2598" x2="126.2598" y1="268.2031" y2="302.1719"/><polygon fill="#181818" points="122.2598,292.1719,126.2598,302.1719,130.2598,292.1719,126.2598,296.1719" style="stroke:#181818;stroke-width:1;"/><line style="stroke:#181818;stroke-width:1;" x1="126.2598" x2="126.2598" y1="336.1406" y2="358.1406"/><polygon fill="#181818" points="122.2598,348.1406,126.2598,358.1406,130.2598,348.1406,126.2598,352.1406" style="stroke:#181818;stroke-width:1;"/><line style="stroke:#181818;stroke-width:1;" x1="361.3008" x2="361.3008" y1="282.1719" y2="316.1406"/><polygon fill="#181818" points="357.3008,306.1406,361.3008,316.1406,365.3008,306.1406,361.3008,310.1406" style="stroke:#181818;stroke-width:1;"/><line style="stroke:#181818;stroke-width:1;" x1="172.2122" x2="126.2598" y1="212.2344" y2="212.2344"/><line style="stroke:#181818;stroke-width:1;" x1="126.2598" x2="126.2598" y1="212.2344" y2="234.2344"/><polygon fill="#181818" points="122.2598,224.2344,126.2598,234.2344,130.2598,224.2344,126.2598,228.2344" style="stroke:#181818;stroke-width:1;"/><line style="stroke:#181818;stroke-width:1;" x1="315.3484" x2="361.3008" y1="212.2344" y2="212.2344"/><line style="stroke:#181818;stroke-width:1;" x1="361.3008" x2="361.3008" y1="212.2344" y2="234.2344"/><polygon fill="#181818" points="357.3008,224.2344,361.3008,234.2344,365.3008,224.2344,361.3008,228.2344" style="stroke:#181818;stroke-width:1;"/><line style="stroke:#181818;stroke-width:1;" x1="243.7803" x2="243.7803" y1="180.2344" y2="200.2344"/><polygon fill="#181818" points="239.7803,190.2344,243.7803,200.2344,247.7803,190.2344,243.7803,194.2344" style="stroke:#181818;stroke-width:1;"/><?plantuml-src POwx3S9044Jpgs92Eo204082H0aKi9pNOj5vpxezSegW3I8AG89Eg0HZGEOJpvitaoK7nc8r6azmsn-m3DA8KW85JfbGCTh4Ng9pbYbbDrq6h6n7II8i1l7IKVnkxPHUpLbFcbZcXWRIHwqbDUJbUjAPanh5vVoXVEVp4dd3YiAknz81dxAglxMcBI4CSzzCTzfO_mS1ox5r78nHQFnLUrBFeVV6bjEpzIY9TbcpbcY3Gokfxm00?></g></svg>