<svg xmlns="http://www.w3.org/2000/svg" xmlns:xlink="http://www.w3.org/1999/xlink" contentStyleType="text/css" data-diagram-type="SEQUENCE" height="533px" preserveAspectRatio="none" style="width:680px;height:533px;background:#FFFFFF;" version="1.1" viewBox="0 0 680 533" width="680px" zoomAndPan="magnify"><?plantuml 1.2026.3beta6?><defs/><g><rect fill="none" height="117.5313" style="stroke:#000000;stroke-width:1.5;" width="654.5459" x="10" y="323.0625"/><g class="participant-lifeline" data-entity-uid="part1" data-qualified-name="U" data-source-line="1" id="part1-lifeline"><g><title>Usuario</title><rect fill="#000000" fill-opacity="0.00000" height="382.5938" width="8" x="29.5" y="75"/><line style="stroke:#181818;stroke-width:0.5;stroke-dasharray:5,5;" x1="33" x2="33" y1="75" y2="457.5938"/></g></g><g class="participant-lifeline" data-entity-uid="part2" data-qualified-name="S" data-source-line="2" id="part2-lifeline"><g><title>Sistema</title><rect fill="#000000" fill-opacity="0.00000" height="382.5938" width="8" x="338.2368" y="75"/><line style="stroke:#181818;stroke-width:0.5;stroke-dasharray:5,5;" x1="342.2368" x2="342.2368" y1="75" y2="457.5938"/></g></g><g class="participant-lifeline" data-entity-uid="part3" data-qualified-name="HL" data-source-line="3" id="part3-lifeline"><g><title>Hyperliquid L1</title><rect fill="#000000" fill-opacity="0.00000" height="382.5938" width="8" x="643.5459" y="75"/><line style="stroke:#181818;stroke-width:0.5;stroke-dasharray:5,5;" x1="647.5459" x2="647.5459" y1="75" y2="457.5938"/></g></g><g class="participant participant-head" data-entity-uid="part1" data-qualified-name="U" data-source-line="1" id="part1-head"><text fill="#000000" font-family="sans-serif" font-size="14" lengthAdjust="spacing" textLength="0" x="30.5" y="65">Usuario</text><ellipse cx="33.5" cy="13.5" fill="#E2E2F0" rx="8" ry="8" style="stroke:#181818;stroke-width:0.5;"/><path d="M33.5,21.5 L33.5,48.5 M20.5,29.5 L46.5,29.5 M33.5,48.5 L20.5,63.5 M33.5,48.5 L46.5,63.5" fill="none" style="stroke:#181818;stroke-width:0.5;"/></g><g class="participant participant-tail" data-entity-uid="part1" data-qualified-name="U" data-source-line="1" id="part1-tail"><text fill="#000000" font-family="sans-serif" font-size="14" lengthAdjust="spacing" textLength="0" x="30.5" y="456.5938">Usuario</text><ellipse cx="33.5" cy="475.0938" fill="#E2E2F0" rx="8" ry="8" style="stroke:#181818;stroke-width:0.5;"/><path d="M33.5,483.0938 L33.5,510.0938 M20.5,491.0938 L46.5,491.0938 M33.5,510.0938 L20.5,525.0938 M33.5,510.0938 L46.5,525.0938" fill="none" style="stroke:#181818;stroke-width:0.5;"/></g><g class="participant participant-head" data-entity-uid="part2" data-qualified-name="S" data-source-line="2" id="part2-head"><rect fill="#E2E2F0" height="24" rx="2.5" ry="2.5" style="stroke:#181818;stroke-width:0.5;" width="14" x="335.2368" y="50"/><text fill="#000000" font-family="sans-serif" font-size="14" lengthAdjust="spacing" textLength="0" x="342.2368" y="57">Sistema</text></g><g class="participant participant-tail" data-entity-uid="part2" data-qualified-name="S" data-source-line="2" id="part2-tail"><rect fill="#E2E2F0" height="24" rx="2.5" ry="2.5" style="stroke:#181818;stroke-width:0.5;" width="14" x="335.2368" y="456.5938"/><text fill="#000000" font-family="sans-serif" font-size="14" lengthAdjust="spacing" textLength="0" x="342.2368" y="463.5938">Sistema</text></g><g class="participant participant-head" data-entity-uid="part3" data-qualified-name="HL" data-source-line="3" id="part3-head"><rect fill="#E2E2F0" height="24" rx="2.5" ry="2.5" style="stroke:#181818;stroke-width:0.5;" width="14" x="640.5459" y="50"/><text fill="#000000" font-family="sans-serif" font-size="14" lengthAdjust="spacing" textLength="0" x="647.5459" y="57">Hyperliquid L1</text></g><g class="participant participant-tail" data-entity-uid="part3" data-qualified-name="HL" data-source-line="3" id="part3-tail"><rect fill="#E2E2F0" height="24" rx="2.5" ry="2.5" style="stroke:#181818;stroke-width:0.5;" width="14" x="640.5459" y="456.5938"/><text fill="#000000" font-family="sans-serif" font-size="14" lengthAdjust="spacing" textLength="0" x="647.5459" y="463.5938">Hyperliquid L1</text></g><g class="message" data-entity-1="part1" data-entity-2="part2" data-source-line="5" id="msg1"><polygon fill="#181818" points="330.2368,102.1328,340.2368,106.1328,330.2368,110.1328,334.2368,106.1328" style="stroke:#181818;stroke-width:1;"/><line style="stroke:#181818;stroke-width:1;" x1="33.5" x2="336.2368" y1="106.1328" y2="106.1328"/><text fill="#000000" font-family="sans-serif" font-size="13" lengthAdjust="spacing" textLength="284.7368" x="40.5" y="101.0669">Seleccionar mercado, token y temporalidad</text></g><g class="message" data-entity-1="part2" data-entity-2="part3" data-source-line="6" id="msg2"><polygon fill="#181818" points="635.5459,131.2656,645.5459,135.2656,635.5459,139.2656,639.5459,135.2656" style="stroke:#181818;stroke-width:1;"/><line style="stroke:#181818;stroke-width:1;" x1="342.2368" x2="641.5459" y1="135.2656" y2="135.2656"/><text fill="#000000" font-family="sans-serif" font-size="13" lengthAdjust="spacing" textLength="281.3091" x="349.2368" y="130.1997">Suscribirse a WebSocket (trades del token)</text></g><g class="message" data-entity-1="part3" data-entity-2="part2" data-source-line="7" id="msg3"><polygon fill="#181818" points="353.2368,160.3984,343.2368,164.3984,353.2368,168.3984,349.2368,164.3984" style="stroke:#181818;stroke-width:1;"/><line style="stroke:#181818;stroke-width:1;stroke-dasharray:2,2;" x1="347.2368" x2="646.5459" y1="164.3984" y2="164.3984"/><text fill="#000000" font-family="sans-serif" font-size="13" lengthAdjust="spacing" textLength="250.2056" x="359.2368" y="159.3325">Stream de operaciones en tiempo real</text></g><g class="message" data-entity-1="part2" data-entity-2="part2" data-source-line="9" id="msg4"><line style="stroke:#181818;stroke-width:1;" x1="342.2368" x2="384.2368" y1="208.6641" y2="208.6641"/><line style="stroke:#181818;stroke-width:1;" x1="384.2368" x2="384.2368" y1="208.6641" y2="221.6641"/><line style="stroke:#181818;stroke-width:1;" x1="343.2368" x2="384.2368" y1="221.6641" y2="221.6641"/><polygon fill="#181818" points="353.2368,217.6641,343.2368,221.6641,353.2368,225.6641,349.2368,221.6641" style="stroke:#181818;stroke-width:1;"/><text fill="#000000" font-family="sans-serif" font-size="13" lengthAdjust="spacing" textLength="217.3882" x="349.2368" y="188.4653">Calcular volumenes por direccion</text><text fill="#000000" font-family="sans-serif" font-size="13" lengthAdjust="spacing" textLength="211.8467" x="349.2368" y="203.5981">en la temporalidad seleccionada</text></g><g class="message" data-entity-1="part2" data-entity-2="part2" data-source-line="10" id="msg5"><line style="stroke:#181818;stroke-width:1;" x1="342.2368" x2="384.2368" y1="265.9297" y2="265.9297"/><line style="stroke:#181818;stroke-width:1;" x1="384.2368" x2="384.2368" y1="265.9297" y2="278.9297"/><line style="stroke:#181818;stroke-width:1;" x1="343.2368" x2="384.2368" y1="278.9297" y2="278.9297"/><polygon fill="#181818" points="353.2368,274.9297,343.2368,278.9297,353.2368,282.9297,349.2368,278.9297" style="stroke:#181818;stroke-width:1;"/><text fill="#000000" font-family="sans-serif" font-size="13" lengthAdjust="spacing" textLength="206.4639" x="349.2368" y="245.731">Resolver nombres de entidades</text><text fill="#000000" font-family="sans-serif" font-size="13" lengthAdjust="spacing" textLength="199.3989" x="349.2368" y="260.8638">para las direcciones conocidas</text></g><g class="message" data-entity-1="part2" data-entity-2="part1" data-source-line="11" id="msg6"><polygon fill="#181818" points="44.5,304.0625,34.5,308.0625,44.5,312.0625,40.5,308.0625" style="stroke:#181818;stroke-width:1;"/><line style="stroke:#181818;stroke-width:1;stroke-dasharray:2,2;" x1="38.5" x2="341.2368" y1="308.0625" y2="308.0625"/><text fill="#000000" font-family="sans-serif" font-size="13" lengthAdjust="spacing" textLength="211.5356" x="50.5" y="302.9966">Mostrar leaderboard actualizado</text></g><path d="M10,323.0625 L86.624,323.0625 L86.624,330.1953 L76.624,340.1953 L10,340.1953 L10,323.0625" fill="#EEEEEE" style="stroke:#000000;stroke-width:1.5;"/><rect fill="none" height="117.5313" style="stroke:#000000;stroke-width:1.5;" width="654.5459" x="10" y="323.0625"/><text fill="#000000" font-family="sans-serif" font-size="13" font-weight="700" lengthAdjust="spacing" textLength="31.624" x="25" y="336.1294">loop</text><text fill="#000000" font-family="sans-serif" font-size="11" font-weight="700" lengthAdjust="spacing" textLength="270.8804" x="101.624" y="335.2729">[Mientras el usuario permanece en la vista]</text><g class="message" data-entity-1="part3" data-entity-2="part2" data-source-line="14" id="msg7"><polygon fill="#181818" points="353.2368,357.3281,343.2368,361.3281,353.2368,365.3281,349.2368,361.3281" style="stroke:#181818;stroke-width:1;"/><line style="stroke:#181818;stroke-width:1;stroke-dasharray:2,2;" x1="347.2368" x2="646.5459" y1="361.3281" y2="361.3281"/><text fill="#000000" font-family="sans-serif" font-size="13" lengthAdjust="spacing" textLength="110.2207" x="359.2368" y="356.2622">Nueva operacion</text></g><g class="message" data-entity-1="part2" data-entity-2="part2" data-source-line="15" id="msg8"><line style="stroke:#181818;stroke-width:1;" x1="342.2368" x2="384.2368" y1="390.4609" y2="390.4609"/><line style="stroke:#181818;stroke-width:1;" x1="384.2368" x2="384.2368" y1="390.4609" y2="403.4609"/><line style="stroke:#181818;stroke-width:1;" x1="343.2368" x2="384.2368" y1="403.4609" y2="403.4609"/><polygon fill="#181818" points="353.2368,399.4609,343.2368,403.4609,353.2368,407.4609,349.2368,403.4609" style="stroke:#181818;stroke-width:1;"/><text fill="#000000" font-family="sans-serif" font-size="13" lengthAdjust="spacing" textLength="143.3682" x="349.2368" y="385.395">Recalcular volumenes</text></g><g class="message" data-entity-1="part2" data-entity-2="part1" data-source-line="16" id="msg9"><polygon fill="#181818" points="44.5,428.5938,34.5,432.5938,44.5,436.5938,40.5,432.5938" style="stroke:#181818;stroke-width:1;"/><line style="stroke:#181818;stroke-width:1;stroke-dasharray:2,2;" x1="38.5" x2="341.2368" y1="432.5938" y2="432.5938"/><text fill="#000000" font-family="sans-serif" font-size="13" lengthAdjust="spacing" textLength="246.9048" x="50.5" y="427.5278">Actualizar leaderboard en tiempo real</text></g><?plantuml-src PP6nJWCn44HxVyKg5KXGq58W8PeK2GMd4qsQlVKMLdpUOssV5BwUTIuX2TGpE_CyHYgYqEUA6WGmG-ycr18eJ9WAhBgG2u-uQb9tAwqF4siCNpLus3mT7UkDSpqyla07pz1nPA8W2HL6La8l3r1apmaEOA6JACRWqRkkdQmtxQPcqZ04pGm8dpnqGdikS5SKFMVm79U8UsV-ntDJKSRHH113mjPfNkifeTM0gT4jBSt-Xf5gDAfPOXsvUOq5VD25TvViDE8D8-JVrtYyH7rmbZYpGf9nq2EWzPPsmNcNR2-qf7p9DWj94Z97RZ6MqrlELhAzK26o7UeWg1wGIhNoRzlDkIWomJPOjbgShL1FNsOF7Z4njTu6FTk7eGEuckUzyeoNQKoyugT_Oopw2Upr377BzcTRJlu7?></g></svg>