<svg xmlns="http://www.w3.org/2000/svg" xmlns:xlink="http://www.w3.org/1999/xlink" contentStyleType="text/css" data-diagram-type="SEQUENCE" height="515px" preserveAspectRatio="none" style="width:671px;height:515px;background:#FFFFFF;" version="1.1" viewBox="0 0 671 515" width="671px" zoomAndPan="magnify"><?plantuml 1.2026.3beta6?><defs/><g><rect fill="none" height="117.5313" style="stroke:#000000;stroke-width:1.5;" width="645.897" x="10" y="299.0938"/><g class="participant-lifeline" data-entity-uid="part1" data-qualified-name="U" data-source-line="1" id="part1-lifeline"><g><title>Usuario</title><rect fill="#000000" fill-opacity="0.00000" height="352.3281" width="8" x="45.6021" y="81.2969"/><line style="stroke:#181818;stroke-width:0.5;stroke-dasharray:5,5;" x1="49" x2="49" y1="81.2969" y2="433.625"/></g></g><g class="participant-lifeline" data-entity-uid="part2" data-qualified-name="S" data-source-line="2" id="part2-lifeline"><g><title>Sistema</title><rect fill="#000000" fill-opacity="0.00000" height="352.3281" width="8" x="354.3389" y="81.2969"/><line style="stroke:#181818;stroke-width:0.5;stroke-dasharray:5,5;" x1="358.144" x2="358.144" y1="81.2969" y2="433.625"/></g></g><g class="participant-lifeline" data-entity-uid="part3" data-qualified-name="HL" data-source-line="3" id="part3-lifeline"><g><title>Hyperliquid</title><rect fill="#000000" fill-opacity="0.00000" height="352.3281" width="8" x="594.7051" y="81.2969"/><line style="stroke:#181818;stroke-width:0.5;stroke-dasharray:5,5;" x1="598.5132" x2="598.5132" y1="81.2969" y2="433.625"/></g></g><g class="participant participant-head" data-entity-uid="part1" data-qualified-name="U" data-source-line="1" id="part1-head"><text fill="#000000" font-family="sans-serif" font-size="14" lengthAdjust="spacing" textLength="53.2041" x="20" y="77.9951">Usuario</text><ellipse cx="49.6021" cy="13.5" fill="#E2E2F0" rx="8" ry="8" style="stroke:#181818;stroke-width:0.5;"/><path d="M49.6021,21.5 L49.6021,48.5 M36.6021,29.5 L62.6021,29.5 M49.6021,48.5 L36.6021,63.5 M49.6021,48.5 L62.6021,63.5" fill="none" style="stroke:#181818;stroke-width:0.5;"/></g><g class="participant participant-tail" data-entity-uid="part1" data-qualified-name="U" data-source-line="1" id="part1-tail"><text fill="#000000" font-family="sans-serif" font-size="14" lengthAdjust="spacing" textLength="53.2041" x="20" y="445.6201">Usuario</text><ellipse cx="49.6021" cy="457.4219" fill="#E2E2F0" rx="8" ry="8" style="stroke:#181818;stroke-width:0.5;"/><path d="M49.6021,465.4219 L49.6021,492.4219 M36.6021,473.4219 L62.6021,473.4219 M49.6021,492.4219 L36.6021,507.4219 M49.6021,492.4219 L62.6021,507.4219" fill="none" style="stroke:#181818;stroke-width:0.5;"/></g><g class="participant participant-head" data-entity-uid="part2" data-qualified-name="S" data-source-line="2" id="part2-head"><rect fill="#E2E2F0" height="30.2969" rx="2.5" ry="2.5" style="stroke:#181818;stroke-width:0.5;" width="70.3896" x="323.144" y="50"/><text fill="#000000" font-family="sans-serif" font-size="14" lengthAdjust="spacing" textLength="56.3896" x="330.144" y="69.9951">Sistema</text></g><g class="participant participant-tail" data-entity-uid="part2" data-qualified-name="S" data-source-line="2" id="part2-tail"><rect fill="#E2E2F0" height="30.2969" rx="2.5" ry="2.5" style="stroke:#181818;stroke-width:0.5;" width="70.3896" x="323.144" y="432.625"/><text fill="#000000" font-family="sans-serif" font-size="14" lengthAdjust="spacing" textLength="56.3896" x="330.144" y="452.6201">Sistema</text></g><g class="participant participant-head" data-entity-uid="part3" data-qualified-name="HL" data-source-line="3" id="part3-head"><rect fill="#E2E2F0" height="30.2969" rx="2.5" ry="2.5" style="stroke:#181818;stroke-width:0.5;" width="94.3838" x="551.5132" y="50"/><text fill="#000000" font-family="sans-serif" font-size="14" lengthAdjust="spacing" textLength="80.3838" x="558.5132" y="69.9951">Hyperliquid</text></g><g class="participant participant-tail" data-entity-uid="part3" data-qualified-name="HL" data-source-line="3" id="part3-tail"><rect fill="#E2E2F0" height="30.2969" rx="2.5" ry="2.5" style="stroke:#181818;stroke-width:0.5;" width="94.3838" x="551.5132" y="432.625"/><text fill="#000000" font-family="sans-serif" font-size="14" lengthAdjust="spacing" textLength="80.3838" x="558.5132" y="452.6201">Hyperliquid</text></g><g class="message" data-entity-1="part1" data-entity-2="part2" data-source-line="5" id="msg1"><polygon fill="#181818" points="346.3389,108.4297,356.3389,112.4297,346.3389,116.4297,350.3389,112.4297" style="stroke:#181818;stroke-width:1;"/><line style="stroke:#181818;stroke-width:1;" x1="49.6021" x2="352.3389" y1="112.4297" y2="112.4297"/><text fill="#000000" font-family="sans-serif" font-size="13" lengthAdjust="spacing" textLength="284.7368" x="56.6021" y="107.3638">Seleccionar mercado, token y temporalidad</text></g><g class="message" data-entity-1="part2" data-entity-2="part3" data-source-line="6" id="msg2"><polygon fill="#181818" points="586.7051,137.5625,596.7051,141.5625,586.7051,145.5625,590.7051,141.5625" style="stroke:#181818;stroke-width:1;"/><line style="stroke:#181818;stroke-width:1;" x1="358.3389" x2="592.7051" y1="141.5625" y2="141.5625"/><text fill="#000000" font-family="sans-serif" font-size="13" lengthAdjust="spacing" textLength="216.3662" x="365.3389" y="136.4966">Suscribirse a WebSocket (trades)</text></g><g class="message" data-entity-1="part3" data-entity-2="part2" data-source-line="7" id="msg3"><polygon fill="#181818" points="369.3389,166.6953,359.3389,170.6953,369.3389,174.6953,365.3389,170.6953" style="stroke:#181818;stroke-width:1;"/><line style="stroke:#181818;stroke-width:1;stroke-dasharray:2,2;" x1="363.3389" x2="597.7051" y1="170.6953" y2="170.6953"/><text fill="#000000" font-family="sans-serif" font-size="13" lengthAdjust="spacing" textLength="151.0742" x="375.3389" y="165.6294">Stream de operaciones</text></g><g class="message" data-entity-1="part2" data-entity-2="part2" data-source-line="9" id="msg4"><line style="stroke:#181818;stroke-width:1;" x1="358.3389" x2="400.3389" y1="199.8281" y2="199.8281"/><line style="stroke:#181818;stroke-width:1;" x1="400.3389" x2="400.3389" y1="199.8281" y2="212.8281"/><line style="stroke:#181818;stroke-width:1;" x1="359.3389" x2="400.3389" y1="212.8281" y2="212.8281"/><polygon fill="#181818" points="369.3389,208.8281,359.3389,212.8281,369.3389,216.8281,365.3389,212.8281" style="stroke:#181818;stroke-width:1;"/><text fill="#000000" font-family="sans-serif" font-size="13" lengthAdjust="spacing" textLength="217.3882" x="365.3389" y="194.7622">Calcular volumenes por direccion</text></g><g class="message" data-entity-1="part2" data-entity-2="part2" data-source-line="10" id="msg5"><line style="stroke:#181818;stroke-width:1;" x1="358.3389" x2="400.3389" y1="241.9609" y2="241.9609"/><line style="stroke:#181818;stroke-width:1;" x1="400.3389" x2="400.3389" y1="241.9609" y2="254.9609"/><line style="stroke:#181818;stroke-width:1;" x1="359.3389" x2="400.3389" y1="254.9609" y2="254.9609"/><polygon fill="#181818" points="369.3389,250.9609,359.3389,254.9609,369.3389,258.9609,365.3389,254.9609" style="stroke:#181818;stroke-width:1;"/><text fill="#000000" font-family="sans-serif" font-size="13" lengthAdjust="spacing" textLength="206.4639" x="365.3389" y="236.895">Resolver nombres de entidades</text></g><g class="message" data-entity-1="part2" data-entity-2="part1" data-source-line="11" id="msg6"><polygon fill="#181818" points="60.6021,280.0938,50.6021,284.0938,60.6021,288.0938,56.6021,284.0938" style="stroke:#181818;stroke-width:1;"/><line style="stroke:#181818;stroke-width:1;stroke-dasharray:2,2;" x1="54.6021" x2="357.3389" y1="284.0938" y2="284.0938"/><text fill="#000000" font-family="sans-serif" font-size="13" lengthAdjust="spacing" textLength="132.7676" x="66.6021" y="279.0278">Mostrar leaderboard</text></g><path d="M10,299.0938 L86.624,299.0938 L86.624,306.2266 L76.624,316.2266 L10,316.2266 L10,299.0938" fill="#EEEEEE" style="stroke:#000000;stroke-width:1.5;"/><rect fill="none" height="117.5313" style="stroke:#000000;stroke-width:1.5;" width="645.897" x="10" y="299.0938"/><text fill="#000000" font-family="sans-serif" font-size="13" font-weight="700" lengthAdjust="spacing" textLength="31.624" x="25" y="312.1606">loop</text><text fill="#000000" font-family="sans-serif" font-size="11" font-weight="700" lengthAdjust="spacing" textLength="205.6055" x="101.624" y="311.3042">[Mientras permanece en la vista]</text><g class="message" data-entity-1="part3" data-entity-2="part2" data-source-line="14" id="msg7"><polygon fill="#181818" points="369.3389,333.3594,359.3389,337.3594,369.3389,341.3594,365.3389,337.3594" style="stroke:#181818;stroke-width:1;"/><line style="stroke:#181818;stroke-width:1;stroke-dasharray:2,2;" x1="363.3389" x2="597.7051" y1="337.3594" y2="337.3594"/><text fill="#000000" font-family="sans-serif" font-size="13" lengthAdjust="spacing" textLength="110.2207" x="375.3389" y="332.2935">Nueva operacion</text></g><g class="message" data-entity-1="part2" data-entity-2="part2" data-source-line="15" id="msg8"><line style="stroke:#181818;stroke-width:1;" x1="358.3389" x2="400.3389" y1="366.4922" y2="366.4922"/><line style="stroke:#181818;stroke-width:1;" x1="400.3389" x2="400.3389" y1="366.4922" y2="379.4922"/><line style="stroke:#181818;stroke-width:1;" x1="359.3389" x2="400.3389" y1="379.4922" y2="379.4922"/><polygon fill="#181818" points="369.3389,375.4922,359.3389,379.4922,369.3389,383.4922,365.3389,379.4922" style="stroke:#181818;stroke-width:1;"/><text fill="#000000" font-family="sans-serif" font-size="13" lengthAdjust="spacing" textLength="143.3682" x="365.3389" y="361.4263">Recalcular volumenes</text></g><g class="message" data-entity-1="part2" data-entity-2="part1" data-source-line="16" id="msg9"><polygon fill="#181818" points="60.6021,404.625,50.6021,408.625,60.6021,412.625,56.6021,408.625" style="stroke:#181818;stroke-width:1;"/><line style="stroke:#181818;stroke-width:1;stroke-dasharray:2,2;" x1="54.6021" x2="357.3389" y1="408.625" y2="408.625"/><text fill="#000000" font-family="sans-serif" font-size="13" lengthAdjust="spacing" textLength="147.7734" x="66.6021" y="403.5591">Actualizar leaderboard</text></g><?plantuml-src PP2nJWCn44HxVyKe5KZa1oYG44sAX0BhHBrdRs75vptMzadXwzbBG0bGlzcPfwNGHB4PQYTDiW5L36ucRIcacKh3ngVQUA8pyh_HxZIpvlJHKppZtTwv0TidU3p2S-OGaXHIJAo1eZoWoP4BJh36MPHoYXITNqzs-_Mcrw1fJ5ePX7SUlOGZDzmrfSZrtbbg-zFVb6b2P8XPqBh4rLtALlv2EVHiuulaFh51s2HYqelMDVd6LVB2YYBJg9QpJYvjTRD6VruSB7UGQXwAp0Pq5DBeN1QPSKYML_k0cKnKEAm5o8J5daSEkF5-xRpGrTdWZKZu9ttXtmRFeNLxskSV2Ixn2m00?></g></svg>