<svg xmlns="http://www.w3.org/2000/svg" xmlns:xlink="http://www.w3.org/1999/xlink" contentStyleType="text/css" data-diagram-type="ACTIVITY" height="606px" preserveAspectRatio="none" style="width:376px;height:606px;background:#FFFFFF;" version="1.1" viewBox="0 0 376 606" width="376px" zoomAndPan="magnify"><?plantuml 1.2026.3beta6?><defs/><g><ellipse cx="179.9453" cy="25" fill="#222222" rx="10" ry="10" style="stroke:#222222;stroke-width:1;"/><rect fill="#F1F1F1" height="33.9688" rx="12.5" ry="12.5" style="stroke:#181818;stroke-width:0.5;" width="236.0879" x="61.9014" y="55"/><text fill="#000000" font-family="sans-serif" font-size="12" lengthAdjust="spacing" textLength="216.0879" x="71.9014" y="76.1387">Usuario accede a la pestana Alertas</text><rect fill="#F1F1F1" height="47.9375" rx="12.5" ry="12.5" style="stroke:#181818;stroke-width:0.5;" width="200.5742" x="79.6582" y="108.9688"/><text fill="#000000" font-family="sans-serif" font-size="12" lengthAdjust="spacing" textLength="171.8379" x="89.6582" y="130.1074">Seleccionar tipo de mercado</text><text fill="#000000" font-family="sans-serif" font-size="12" lengthAdjust="spacing" textLength="180.5742" x="89.6582" y="144.0762">(Spot / PerpNativo / PerpHIP3)</text><rect fill="#F1F1F1" height="33.9688" rx="12.5" ry="12.5" style="stroke:#181818;stroke-width:0.5;" width="253.9824" x="52.9541" y="176.9063"/><text fill="#000000" font-family="sans-serif" font-size="12" lengthAdjust="spacing" textLength="233.9824" x="62.9541" y="198.0449">Seleccionar token del mercado elegido</text><rect fill="#F1F1F1" height="33.9688" rx="12.5" ry="12.5" style="stroke:#181818;stroke-width:0.5;" width="154.8125" x="102.5391" y="230.875"/><text fill="#000000" font-family="sans-serif" font-size="12" lengthAdjust="spacing" textLength="134.8125" x="112.5391" y="252.0137">Introducir umbral en $</text><rect fill="#F1F1F1" height="33.9688" rx="12.5" ry="12.5" style="stroke:#181818;stroke-width:0.5;" width="185.8496" x="87.0205" y="284.8438"/><text fill="#000000" font-family="sans-serif" font-size="12" lengthAdjust="spacing" textLength="165.8496" x="97.0205" y="305.9824">Introducir URL del webhook</text><polygon fill="#F1F1F1" points="139.8823,338.8125,220.0083,338.8125,232.0083,350.8125,220.0083,362.8125,139.8823,362.8125,127.8823,350.8125,139.8823,338.8125" style="stroke:#181818;stroke-width:0.5;"/><text fill="#000000" font-family="sans-serif" font-size="11" lengthAdjust="spacing" textLength="80.126" x="139.8823" y="354.6206">Datos validos?</text><text fill="#000000" font-family="sans-serif" font-size="11" lengthAdjust="spacing" textLength="8.7871" x="119.0952" y="348.2183">si</text><text fill="#000000" font-family="sans-serif" font-size="11" lengthAdjust="spacing" textLength="13.7017" x="232.0083" y="348.2183">no</text><rect fill="#F1F1F1" height="33.9688" rx="12.5" ry="12.5" style="stroke:#181818;stroke-width:0.5;" width="129.541" x="25.0527" y="372.8125"/><text fill="#000000" font-family="sans-serif" font-size="12" lengthAdjust="spacing" textLength="109.541" x="35.0527" y="393.9512">Crear AlertaPrecio</text><rect fill="#F1F1F1" height="33.9688" rx="12.5" ry="12.5" style="stroke:#181818;stroke-width:0.5;" width="101.1113" x="39.2676" y="426.7813"/><text fill="#000000" font-family="sans-serif" font-size="12" lengthAdjust="spacing" textLength="81.1113" x="49.2676" y="447.9199">Activar alerta</text><rect fill="#F1F1F1" height="33.9688" rx="12.5" ry="12.5" style="stroke:#181818;stroke-width:0.5;" width="147.6465" x="16" y="480.75"/><text fill="#000000" font-family="sans-serif" font-size="12" lengthAdjust="spacing" textLength="127.6465" x="26" y="501.8887">Mostrar confirmacion</text><rect fill="#F1F1F1" height="33.9688" rx="12.5" ry="12.5" style="stroke:#181818;stroke-width:0.5;" width="172.8418" x="183.6465" y="372.8125"/><text fill="#000000" font-family="sans-serif" font-size="12" lengthAdjust="spacing" textLength="152.8418" x="193.6465" y="393.9512">Mostrar mensaje de error</text><polygon fill="#F1F1F1" points="179.9453,520.7188,191.9453,532.7188,179.9453,544.7188,167.9453,532.7188,179.9453,520.7188" style="stroke:#181818;stroke-width:0.5;"/><ellipse cx="179.9453" cy="575.7188" fill="none" rx="11" ry="11" style="stroke:#222222;stroke-width:1;"/><ellipse cx="179.9453" cy="575.7188" fill="#222222" rx="6" ry="6" style="stroke:#222222;stroke-width:1;"/><line style="stroke:#181818;stroke-width:1;" x1="179.9453" x2="179.9453" y1="35" y2="55"/><polygon fill="#181818" points="175.9453,45,179.9453,55,183.9453,45,179.9453,49" style="stroke:#181818;stroke-width:1;"/><line style="stroke:#181818;stroke-width:1;" x1="179.9453" x2="179.9453" y1="88.9688" y2="108.9688"/><polygon fill="#181818" points="175.9453,98.9688,179.9453,108.9688,183.9453,98.9688,179.9453,102.9688" style="stroke:#181818;stroke-width:1;"/><line style="stroke:#181818;stroke-width:1;" x1="179.9453" x2="179.9453" y1="156.9063" y2="176.9063"/><polygon fill="#181818" points="175.9453,166.9063,179.9453,176.9063,183.9453,166.9063,179.9453,170.9063" style="stroke:#181818;stroke-width:1;"/><line style="stroke:#181818;stroke-width:1;" x1="179.9453" x2="179.9453" y1="210.875" y2="230.875"/><polygon fill="#181818" points="175.9453,220.875,179.9453,230.875,183.9453,220.875,179.9453,224.875" style="stroke:#181818;stroke-width:1;"/><line style="stroke:#181818;stroke-width:1;" x1="179.9453" x2="179.9453" y1="264.8438" y2="284.8438"/><polygon fill="#181818" points="175.9453,274.8438,179.9453,284.8438,183.9453,274.8438,179.9453,278.8438" style="stroke:#181818;stroke-width:1;"/><line style="stroke:#181818;stroke-width:1;" x1="89.8232" x2="89.8232" y1="406.7813" y2="426.7813"/><polygon fill="#181818" points="85.8232,416.7813,89.8232,426.7813,93.8232,416.7813,89.8232,420.7813" style="stroke:#181818;stroke-width:1;"/><line style="stroke:#181818;stroke-width:1;" x1="89.8232" x2="89.8232" y1="460.75" y2="480.75"/><polygon fill="#181818" points="85.8232,470.75,89.8232,480.75,93.8232,470.75,89.8232,474.75" style="stroke:#181818;stroke-width:1;"/><line style="stroke:#181818;stroke-width:1;" x1="127.8823" x2="89.8232" y1="350.8125" y2="350.8125"/><line style="stroke:#181818;stroke-width:1;" x1="89.8232" x2="89.8232" y1="350.8125" y2="372.8125"/><polygon fill="#181818" points="85.8232,362.8125,89.8232,372.8125,93.8232,362.8125,89.8232,366.8125" style="stroke:#181818;stroke-width:1;"/><line style="stroke:#181818;stroke-width:1;" x1="232.0083" x2="270.0674" y1="350.8125" y2="350.8125"/><line style="stroke:#181818;stroke-width:1;" x1="270.0674" x2="270.0674" y1="350.8125" y2="372.8125"/><polygon fill="#181818" points="266.0674,362.8125,270.0674,372.8125,274.0674,362.8125,270.0674,366.8125" style="stroke:#181818;stroke-width:1;"/><line style="stroke:#181818;stroke-width:1;" x1="89.8232" x2="89.8232" y1="514.7188" y2="532.7188"/><line style="stroke:#181818;stroke-width:1;" x1="89.8232" x2="167.9453" y1="532.7188" y2="532.7188"/><polygon fill="#181818" points="157.9453,528.7188,167.9453,532.7188,157.9453,536.7188,161.9453,532.7188" style="stroke:#181818;stroke-width:1;"/><line style="stroke:#181818;stroke-width:1;" x1="270.0674" x2="270.0674" y1="406.7813" y2="532.7188"/><line style="stroke:#181818;stroke-width:1;" x1="270.0674" x2="191.9453" y1="532.7188" y2="532.7188"/><polygon fill="#181818" points="201.9453,528.7188,191.9453,532.7188,201.9453,536.7188,197.9453,532.7188" style="stroke:#181818;stroke-width:1;"/><line style="stroke:#181818;stroke-width:1;" x1="179.9453" x2="179.9453" y1="318.8125" y2="338.8125"/><polygon fill="#181818" points="175.9453,328.8125,179.9453,338.8125,183.9453,328.8125,179.9453,332.8125" style="stroke:#181818;stroke-width:1;"/><line style="stroke:#181818;stroke-width:1;" x1="179.9453" x2="179.9453" y1="544.7188" y2="564.7188"/><polygon fill="#181818" points="175.9453,554.7188,179.9453,564.7188,183.9453,554.7188,179.9453,558.7188" style="stroke:#181818;stroke-width:1;"/><?plantuml-src PP0nJyD038Nt-nKU69A9WQqPK0K3bG15LDrOt8j3ZrxE9zifVnydW8HWz7lViz-T6eg5i3deZ98OC4OQ210oGYKrB0ZRJ6AedMDxoXHZue82bYg3inD9n85VIxElR70DFKbzHaiN_XuUTlrD-o_EPogUppyBmCstDF02xee93tDC0lDq5CpWxDKVv_3okEO_w7XYFhkRHcZkqLZXWjbNwMqBTl9eewaD09ix8J_zzQ1UoAjqYxoDtjODN8rLUc8rSIbo6PDCkBJk0cKbQ0gtlv69Yk8xBNz18YoEbI6D8QXn_GG0?></g></svg>