<svg xmlns="http://www.w3.org/2000/svg" xmlns:xlink="http://www.w3.org/1999/xlink" contentStyleType="text/css" data-diagram-type="ACTIVITY" height="592px" preserveAspectRatio="none" style="width:302px;height:592px;background:#FFFFFF;" version="1.1" viewBox="0 0 302 592" width="302px" zoomAndPan="magnify"><?plantuml 1.2026.3beta6?><defs/><g><ellipse cx="161.5381" cy="25" fill="#222222" rx="10" ry="10" style="stroke:#222222;stroke-width:1;"/><rect fill="#F1F1F1" height="33.9688" rx="12.5" ry="12.5" style="stroke:#181818;stroke-width:0.5;" width="177.957" x="72.5596" y="55"/><text fill="#000000" font-family="sans-serif" font-size="12" lengthAdjust="spacing" textLength="157.957" x="82.5596" y="76.1387">Acceder a pestana Alertas</text><rect fill="#F1F1F1" height="33.9688" rx="12.5" ry="12.5" style="stroke:#181818;stroke-width:0.5;" width="191.8379" x="65.6191" y="108.9688"/><text fill="#000000" font-family="sans-serif" font-size="12" lengthAdjust="spacing" textLength="171.8379" x="75.6191" y="130.1074">Seleccionar tipo de mercado</text><rect fill="#F1F1F1" height="33.9688" rx="12.5" ry="12.5" style="stroke:#181818;stroke-width:0.5;" width="127.2793" x="97.8984" y="162.9375"/><text fill="#000000" font-family="sans-serif" font-size="12" lengthAdjust="spacing" textLength="107.2793" x="107.8984" y="184.0762">Seleccionar token</text><rect fill="#F1F1F1" height="33.9688" rx="12.5" ry="12.5" style="stroke:#181818;stroke-width:0.5;" width="154.8125" x="84.1318" y="216.9063"/><text fill="#000000" font-family="sans-serif" font-size="12" lengthAdjust="spacing" textLength="134.8125" x="94.1318" y="238.0449">Introducir umbral en $</text><rect fill="#F1F1F1" height="33.9688" rx="12.5" ry="12.5" style="stroke:#181818;stroke-width:0.5;" width="185.8496" x="68.6133" y="270.875"/><text fill="#000000" font-family="sans-serif" font-size="12" lengthAdjust="spacing" textLength="165.8496" x="78.6133" y="292.0137">Introducir URL del webhook</text><polygon fill="#F1F1F1" points="121.4751,324.8438,201.6011,324.8438,213.6011,336.8438,201.6011,348.8438,121.4751,348.8438,109.4751,336.8438,121.4751,324.8438" style="stroke:#181818;stroke-width:0.5;"/><text fill="#000000" font-family="sans-serif" font-size="11" lengthAdjust="spacing" textLength="80.126" x="121.4751" y="340.6519">Datos validos?</text><text fill="#000000" font-family="sans-serif" font-size="11" lengthAdjust="spacing" textLength="8.7871" x="100.688" y="334.2495">si</text><text fill="#000000" font-family="sans-serif" font-size="11" lengthAdjust="spacing" textLength="13.7017" x="213.6011" y="334.2495">no</text><rect fill="#F1F1F1" height="33.9688" rx="12.5" ry="12.5" style="stroke:#181818;stroke-width:0.5;" width="129.541" x="25.0527" y="358.8438"/><text fill="#000000" font-family="sans-serif" font-size="12" lengthAdjust="spacing" textLength="109.541" x="35.0527" y="379.9824">Crear AlertaPrecio</text><rect fill="#F1F1F1" height="33.9688" rx="12.5" ry="12.5" style="stroke:#181818;stroke-width:0.5;" width="101.1113" x="39.2676" y="412.8125"/><text fill="#000000" font-family="sans-serif" font-size="12" lengthAdjust="spacing" textLength="81.1113" x="49.2676" y="433.9512">Activar alerta</text><rect fill="#F1F1F1" height="33.9688" rx="12.5" ry="12.5" style="stroke:#181818;stroke-width:0.5;" width="147.6465" x="16" y="466.7813"/><text fill="#000000" font-family="sans-serif" font-size="12" lengthAdjust="spacing" textLength="127.6465" x="26" y="487.9199">Mostrar confirmacion</text><rect fill="#F1F1F1" height="33.9688" rx="12.5" ry="12.5" style="stroke:#181818;stroke-width:0.5;" width="99.2129" x="183.6465" y="358.8438"/><text fill="#000000" font-family="sans-serif" font-size="12" lengthAdjust="spacing" textLength="79.2129" x="193.6465" y="379.9824">Mostrar error</text><polygon fill="#F1F1F1" points="161.5381,506.75,173.5381,518.75,161.5381,530.75,149.5381,518.75,161.5381,506.75" style="stroke:#181818;stroke-width:0.5;"/><ellipse cx="161.5381" cy="561.75" fill="none" rx="11" ry="11" style="stroke:#222222;stroke-width:1;"/><ellipse cx="161.5381" cy="561.75" fill="#222222" rx="6" ry="6" style="stroke:#222222;stroke-width:1;"/><line style="stroke:#181818;stroke-width:1;" x1="161.5381" x2="161.5381" y1="35" y2="55"/><polygon fill="#181818" points="157.5381,45,161.5381,55,165.5381,45,161.5381,49" style="stroke:#181818;stroke-width:1;"/><line style="stroke:#181818;stroke-width:1;" x1="161.5381" x2="161.5381" y1="88.9688" y2="108.9688"/><polygon fill="#181818" points="157.5381,98.9688,161.5381,108.9688,165.5381,98.9688,161.5381,102.9688" style="stroke:#181818;stroke-width:1;"/><line style="stroke:#181818;stroke-width:1;" x1="161.5381" x2="161.5381" y1="142.9375" y2="162.9375"/><polygon fill="#181818" points="157.5381,152.9375,161.5381,162.9375,165.5381,152.9375,161.5381,156.9375" style="stroke:#181818;stroke-width:1;"/><line style="stroke:#181818;stroke-width:1;" x1="161.5381" x2="161.5381" y1="196.9063" y2="216.9063"/><polygon fill="#181818" points="157.5381,206.9063,161.5381,216.9063,165.5381,206.9063,161.5381,210.9063" style="stroke:#181818;stroke-width:1;"/><line style="stroke:#181818;stroke-width:1;" x1="161.5381" x2="161.5381" y1="250.875" y2="270.875"/><polygon fill="#181818" points="157.5381,260.875,161.5381,270.875,165.5381,260.875,161.5381,264.875" style="stroke:#181818;stroke-width:1;"/><line style="stroke:#181818;stroke-width:1;" x1="89.8232" x2="89.8232" y1="392.8125" y2="412.8125"/><polygon fill="#181818" points="85.8232,402.8125,89.8232,412.8125,93.8232,402.8125,89.8232,406.8125" style="stroke:#181818;stroke-width:1;"/><line style="stroke:#181818;stroke-width:1;" x1="89.8232" x2="89.8232" y1="446.7813" y2="466.7813"/><polygon fill="#181818" points="85.8232,456.7813,89.8232,466.7813,93.8232,456.7813,89.8232,460.7813" style="stroke:#181818;stroke-width:1;"/><line style="stroke:#181818;stroke-width:1;" x1="109.4751" x2="89.8232" y1="336.8438" y2="336.8438"/><line style="stroke:#181818;stroke-width:1;" x1="89.8232" x2="89.8232" y1="336.8438" y2="358.8438"/><polygon fill="#181818" points="85.8232,348.8438,89.8232,358.8438,93.8232,348.8438,89.8232,352.8438" style="stroke:#181818;stroke-width:1;"/><line style="stroke:#181818;stroke-width:1;" x1="213.6011" x2="233.2529" y1="336.8438" y2="336.8438"/><line style="stroke:#181818;stroke-width:1;" x1="233.2529" x2="233.2529" y1="336.8438" y2="358.8438"/><polygon fill="#181818" points="229.2529,348.8438,233.2529,358.8438,237.2529,348.8438,233.2529,352.8438" style="stroke:#181818;stroke-width:1;"/><line style="stroke:#181818;stroke-width:1;" x1="89.8232" x2="89.8232" y1="500.75" y2="518.75"/><line style="stroke:#181818;stroke-width:1;" x1="89.8232" x2="149.5381" y1="518.75" y2="518.75"/><polygon fill="#181818" points="139.5381,514.75,149.5381,518.75,139.5381,522.75,143.5381,518.75" style="stroke:#181818;stroke-width:1;"/><line style="stroke:#181818;stroke-width:1;" x1="233.2529" x2="233.2529" y1="392.8125" y2="518.75"/><line style="stroke:#181818;stroke-width:1;" x1="233.2529" x2="173.5381" y1="518.75" y2="518.75"/><polygon fill="#181818" points="183.5381,514.75,173.5381,518.75,183.5381,522.75,179.5381,518.75" style="stroke:#181818;stroke-width:1;"/><line style="stroke:#181818;stroke-width:1;" x1="161.5381" x2="161.5381" y1="304.8438" y2="324.8438"/><polygon fill="#181818" points="157.5381,314.8438,161.5381,324.8438,165.5381,314.8438,161.5381,318.8438" style="stroke:#181818;stroke-width:1;"/><line style="stroke:#181818;stroke-width:1;" x1="161.5381" x2="161.5381" y1="530.75" y2="550.75"/><polygon fill="#181818" points="157.5381,540.75,161.5381,550.75,165.5381,540.75,161.5381,544.75" style="stroke:#181818;stroke-width:1;"/><?plantuml-src POv1Ri9034NtSmelM2HN88igQZULG49K7C3CEC9YCevi0zV7WKtLRj_pz__cg9xITioP2YaWB6IE3M6if8usXFoXIZcpD5HmNWGAmKoQiSW_BLTgA_nkhb9kcHLkyrcn0ZNO_36duov-LNZG-I9o3SiJT5_eOd37oaNiemU_HBGpxXF0zbCfQjxZ3afHEwnupCxt4FWIBxGNSmsKfKsiCwuBXqJL2Bec_UyJKXKDrmfFAPdByWG0?></g></svg>