<svg xmlns="http://www.w3.org/2000/svg" xmlns:xlink="http://www.w3.org/1999/xlink" contentStyleType="text/css" data-diagram-type="ACTIVITY" height="660px" preserveAspectRatio="none" style="width:404px;height:660px;background:#FFFFFF;" version="1.1" viewBox="0 0 404 660" width="404px" zoomAndPan="magnify"><?plantuml 1.2026.3beta6?><defs/><g><ellipse cx="148.4023" cy="25" fill="#222222" rx="10" ry="10" style="stroke:#222222;stroke-width:1;"/><rect fill="#F1F1F1" height="33.9688" rx="12.5" ry="12.5" style="stroke:#181818;stroke-width:0.5;" width="208.3203" x="44.2422" y="55"/><text fill="#000000" font-family="sans-serif" font-size="12" lengthAdjust="spacing" textLength="188.3203" x="54.2422" y="76.1387">Obtener lista de alertas activas</text><rect fill="#F1F1F1" height="47.9375" rx="12.5" ry="12.5" style="stroke:#181818;stroke-width:0.5;" width="210.8047" x="43" y="164.6792"/><text fill="#000000" font-family="sans-serif" font-size="12" lengthAdjust="spacing" textLength="190.8047" x="53" y="185.8179">Obtener precio actual del token</text><text fill="#000000" font-family="sans-serif" font-size="12" lengthAdjust="spacing" textLength="127.1016" x="53" y="199.7866">desde Hyperliquid L1</text><rect fill="#F1F1F1" height="33.9688" rx="12.5" ry="12.5" style="stroke:#181818;stroke-width:0.5;" width="202.0566" x="47.374" y="281.019"/><text fill="#000000" font-family="sans-serif" font-size="12" lengthAdjust="spacing" textLength="182.0566" x="57.374" y="302.1577">Marcar alerta como Disparada</text><rect fill="#F1F1F1" height="47.9375" rx="12.5" ry="12.5" style="stroke:#181818;stroke-width:0.5;" width="131.0996" x="82.8525" y="349.9878"/><text fill="#000000" font-family="sans-serif" font-size="12" lengthAdjust="spacing" textLength="90.0703" x="92.8525" y="371.1265">Ejecutar CU-07</text><text fill="#000000" font-family="sans-serif" font-size="12" lengthAdjust="spacing" textLength="111.0996" x="92.8525" y="385.0952">Enviar notificacion</text><polygon fill="#F1F1F1" points="81.8625,232.6167,214.9421,232.6167,226.9421,244.6167,214.9421,256.6167,81.8625,256.6167,69.8625,244.6167,81.8625,232.6167" style="stroke:#181818;stroke-width:0.5;"/><text fill="#000000" font-family="sans-serif" font-size="11" lengthAdjust="spacing" textLength="8.7871" x="152.4023" y="266.8271">si</text><text fill="#000000" font-family="sans-serif" font-size="11" lengthAdjust="spacing" textLength="133.0796" x="81.8625" y="248.4248">Precio traspasa umbral?</text><text fill="#000000" font-family="sans-serif" font-size="11" lengthAdjust="spacing" textLength="13.7017" x="226.9421" y="242.0225">no</text><polygon fill="#F1F1F1" points="148.4023,417.9253,160.4023,429.9253,148.4023,441.9253,136.4023,429.9253,148.4023,417.9253" style="stroke:#181818;stroke-width:0.5;"/><rect fill="#F1F1F1" height="33.9688" rx="12.5" ry="12.5" style="stroke:#181818;stroke-width:0.5;" width="115.4609" x="90.6719" y="461.9253"/><text fill="#000000" font-family="sans-serif" font-size="12" lengthAdjust="spacing" textLength="95.4609" x="100.6719" y="483.064">Siguiente alerta</text><polygon fill="#F1F1F1" points="69.9844,108.9688,226.8203,108.9688,238.8203,120.9688,226.8203,132.9688,69.9844,132.9688,57.9844,120.9688,69.9844,108.9688" style="stroke:#181818;stroke-width:0.5;"/><text fill="#000000" font-family="sans-serif" font-size="11" lengthAdjust="spacing" textLength="8.7871" x="152.4023" y="143.1792">si</text><text fill="#000000" font-family="sans-serif" font-size="11" lengthAdjust="spacing" textLength="156.8359" x="69.9844" y="124.7769">Quedan alertas por evaluar?</text><text fill="#000000" font-family="sans-serif" font-size="11" lengthAdjust="spacing" textLength="13.7017" x="44.2827" y="118.3745">no</text><path d="M229.8828,527.894 L229.8828,559.1597 L209.8828,563.1597 L229.8828,567.1597 L229.8828,598.4253 A0,0 0 0 0 229.8828,598.4253 L383.6631,598.4253 A0,0 0 0 0 383.6631,598.4253 L383.6631,537.894 L373.6631,527.894 L229.8828,527.894 A0,0 0 0 0 229.8828,527.894" fill="#FEFFDD" style="stroke:#181818;stroke-width:0.5;"/><path d="M373.6631,527.894 L373.6631,537.894 L383.6631,537.894 L373.6631,527.894" fill="#FEFFDD" style="stroke:#181818;stroke-width:0.5;"/><text fill="#000000" font-family="sans-serif" font-size="13" lengthAdjust="spacing" textLength="132.7803" x="235.8828" y="544.9609">Este ciclo se ejecuta</text><text fill="#000000" font-family="sans-serif" font-size="13" lengthAdjust="spacing" textLength="119.5137" x="235.8828" y="560.0938">de forma continua</text><text fill="#000000" font-family="sans-serif" font-size="13" lengthAdjust="spacing" textLength="128.4512" x="235.8828" y="575.2266">mientras el sistema</text><text fill="#000000" font-family="sans-serif" font-size="13" lengthAdjust="spacing" textLength="71.4683" x="235.8828" y="590.3594">este activo</text><rect fill="#F1F1F1" height="47.9375" rx="12.5" ry="12.5" style="stroke:#181818;stroke-width:0.5;" width="122.9609" x="86.9219" y="539.1909"/><text fill="#000000" font-family="sans-serif" font-size="12" lengthAdjust="spacing" textLength="102.9609" x="96.9219" y="560.3296">Esperar intervalo</text><text fill="#000000" font-family="sans-serif" font-size="12" lengthAdjust="spacing" textLength="83.8242" x="96.9219" y="574.2983">de evaluacion</text><ellipse cx="148.4023" cy="629.4253" fill="none" rx="11" ry="11" style="stroke:#222222;stroke-width:1;"/><ellipse cx="148.4023" cy="629.4253" fill="#222222" rx="6" ry="6" style="stroke:#222222;stroke-width:1;"/><line style="stroke:#181818;stroke-width:1;" x1="148.4023" x2="148.4023" y1="35" y2="55"/><polygon fill="#181818" points="144.4023,45,148.4023,55,152.4023,45,148.4023,49" style="stroke:#181818;stroke-width:1;"/><line style="stroke:#181818;stroke-width:1;" x1="148.4023" x2="148.4023" y1="314.9878" y2="349.9878"/><polygon fill="#181818" points="144.4023,339.9878,148.4023,349.9878,152.4023,339.9878,148.4023,343.9878" style="stroke:#181818;stroke-width:1;"/><line style="stroke:#181818;stroke-width:1;" x1="148.4023" x2="148.4023" y1="256.6167" y2="281.019"/><polygon fill="#181818" points="144.4023,271.019,148.4023,281.019,152.4023,271.019,148.4023,275.019" style="stroke:#181818;stroke-width:1;"/><line style="stroke:#181818;stroke-width:1;" x1="226.9421" x2="259.4307" y1="244.6167" y2="244.6167"/><polygon fill="#181818" points="255.4307,329.4722,259.4307,339.4722,263.4307,329.4722,259.4307,333.4722" style="stroke:#181818;stroke-width:1;"/><line style="stroke:#181818;stroke-width:1;" x1="259.4307" x2="259.4307" y1="244.6167" y2="429.9253"/><line style="stroke:#181818;stroke-width:1;" x1="259.4307" x2="160.4023" y1="429.9253" y2="429.9253"/><polygon fill="#181818" points="170.4023,425.9253,160.4023,429.9253,170.4023,433.9253,166.4023,429.9253" style="stroke:#181818;stroke-width:1;"/><line style="stroke:#181818;stroke-width:1;" x1="148.4023" x2="148.4023" y1="397.9253" y2="417.9253"/><polygon fill="#181818" points="144.4023,407.9253,148.4023,417.9253,152.4023,407.9253,148.4023,411.9253" style="stroke:#181818;stroke-width:1;"/><line style="stroke:#181818;stroke-width:1;" x1="148.4023" x2="148.4023" y1="212.6167" y2="232.6167"/><polygon fill="#181818" points="144.4023,222.6167,148.4023,232.6167,152.4023,222.6167,148.4023,226.6167" style="stroke:#181818;stroke-width:1;"/><line style="stroke:#181818;stroke-width:1;" x1="148.4023" x2="148.4023" y1="441.9253" y2="461.9253"/><polygon fill="#181818" points="144.4023,451.9253,148.4023,461.9253,152.4023,451.9253,148.4023,455.9253" style="stroke:#181818;stroke-width:1;"/><line style="stroke:#181818;stroke-width:1;" x1="148.4023" x2="148.4023" y1="132.9688" y2="164.6792"/><polygon fill="#181818" points="144.4023,154.6792,148.4023,164.6792,152.4023,154.6792,148.4023,158.6792" style="stroke:#181818;stroke-width:1;"/><line style="stroke:#181818;stroke-width:1;" x1="148.4023" x2="148.4023" y1="495.894" y2="505.894"/><line style="stroke:#181818;stroke-width:1;" x1="148.4023" x2="283.4307" y1="505.894" y2="505.894"/><polygon fill="#181818" points="279.4307,324.0854,283.4307,314.0854,287.4307,324.0854,283.4307,320.0854" style="stroke:#181818;stroke-width:1;"/><line style="stroke:#181818;stroke-width:1;" x1="283.4307" x2="283.4307" y1="120.9688" y2="505.894"/><line style="stroke:#181818;stroke-width:1;" x1="283.4307" x2="238.8203" y1="120.9688" y2="120.9688"/><polygon fill="#181818" points="248.8203,116.9688,238.8203,120.9688,248.8203,124.9688,244.8203,120.9688" style="stroke:#181818;stroke-width:1;"/><line style="stroke:#181818;stroke-width:1;" x1="57.9844" x2="29" y1="120.9688" y2="120.9688"/><polygon fill="#181818" points="25,310.0854,29,320.0854,33,310.0854,29,314.0854" style="stroke:#181818;stroke-width:1;"/><line style="stroke:#181818;stroke-width:1;" x1="29" x2="29" y1="120.9688" y2="517.894"/><line style="stroke:#181818;stroke-width:1;" x1="29" x2="148.4023" y1="517.894" y2="517.894"/><line style="stroke:#181818;stroke-width:1;" x1="148.4023" x2="148.4023" y1="517.894" y2="539.1909"/><polygon fill="#181818" points="144.4023,529.1909,148.4023,539.1909,152.4023,529.1909,148.4023,533.1909" style="stroke:#181818;stroke-width:1;"/><line style="stroke:#181818;stroke-width:1;" x1="148.4023" x2="148.4023" y1="88.9688" y2="108.9688"/><polygon fill="#181818" points="144.4023,98.9688,148.4023,108.9688,152.4023,98.9688,148.4023,102.9688" style="stroke:#181818;stroke-width:1;"/><line style="stroke:#181818;stroke-width:1;" x1="148.4023" x2="148.4023" y1="587.1284" y2="618.4253"/><polygon fill="#181818" points="144.4023,608.4253,148.4023,618.4253,152.4023,608.4253,148.4023,612.4253" style="stroke:#181818;stroke-width:1;"/><?plantuml-src FL6zJWCn3Dxp51xR0GacfEl002SnW00X7i3D-LgNN7BOJX5lZzDhEyRv_FrP3SL2wDwsHfa44giX30IOI0mLC1eVKJSX_Euv4Qm-AWsOh_zp4Q0Zfehoi0PMM2cl0y2LSHQAN1fFnUJC2QnyKtR8GEf2ptypIUAVoWEytBaE08-mUb_MJ51dL8GwRGMJIzYUyaN4PLvH8ihP3iGo5NXYNn4SSBD0-WF5wZdXyUlczluqw_EHVP2BySWHNIatC2NrXBaqRie3ZyrDzycxofJjKiec-D-vZOODNQ-UmVdOGU9bbE31bbOMwk1A1CAxlJbZh_w875C1rwF5tgaG68jCBKOsphNDfgRi9RWtK3yEJMrAZU5qcjBCj20KWbgP_m40?></g></svg>