<svg xmlns="http://www.w3.org/2000/svg" xmlns:xlink="http://www.w3.org/1999/xlink" contentStyleType="text/css" data-diagram-type="ACTIVITY" height="605px" preserveAspectRatio="none" style="width:330px;height:605px;background:#FFFFFF;" version="1.1" viewBox="0 0 330 605" width="330px" zoomAndPan="magnify"><?plantuml 1.2026.3beta6?><defs/><g><ellipse cx="155.4922" cy="25" fill="#222222" rx="10" ry="10" style="stroke:#222222;stroke-width:1;"/><rect fill="#F1F1F1" height="33.9688" rx="12.5" ry="12.5" style="stroke:#181818;stroke-width:0.5;" width="160.7129" x="75.1357" y="55"/><text fill="#000000" font-family="sans-serif" font-size="12" lengthAdjust="spacing" textLength="140.7129" x="85.1357" y="76.1387">Obtener alertas activas</text><rect fill="#F1F1F1" height="33.9688" rx="12.5" ry="12.5" style="stroke:#181818;stroke-width:0.5;" width="210.8047" x="50.0898" y="164.6792"/><text fill="#000000" font-family="sans-serif" font-size="12" lengthAdjust="spacing" textLength="190.8047" x="60.0898" y="185.8179">Obtener precio actual del token</text><rect fill="#F1F1F1" height="33.9688" rx="12.5" ry="12.5" style="stroke:#181818;stroke-width:0.5;" width="202.0566" x="54.4639" y="267.0503"/><text fill="#000000" font-family="sans-serif" font-size="12" lengthAdjust="spacing" textLength="182.0566" x="64.4639" y="288.189">Marcar alerta como Disparada</text><rect fill="#F1F1F1" height="33.9688" rx="12.5" ry="12.5" style="stroke:#181818;stroke-width:0.5;" width="224.9844" x="43" y="336.019"/><text fill="#000000" font-family="sans-serif" font-size="12" lengthAdjust="spacing" textLength="204.9844" x="53" y="357.1577">Ejecutar CU-07 Enviar notificacion</text><polygon fill="#F1F1F1" points="88.9524,218.6479,222.032,218.6479,234.032,230.6479,222.032,242.6479,88.9524,242.6479,76.9524,230.6479,88.9524,218.6479" style="stroke:#181818;stroke-width:0.5;"/><text fill="#000000" font-family="sans-serif" font-size="11" lengthAdjust="spacing" textLength="8.7871" x="159.4922" y="252.8584">si</text><text fill="#000000" font-family="sans-serif" font-size="11" lengthAdjust="spacing" textLength="133.0796" x="88.9524" y="234.4561">Precio traspasa umbral?</text><text fill="#000000" font-family="sans-serif" font-size="11" lengthAdjust="spacing" textLength="13.7017" x="234.032" y="228.0537">no</text><polygon fill="#F1F1F1" points="155.4922,389.9878,167.4922,401.9878,155.4922,413.9878,143.4922,401.9878,155.4922,389.9878" style="stroke:#181818;stroke-width:0.5;"/><rect fill="#F1F1F1" height="33.9688" rx="12.5" ry="12.5" style="stroke:#181818;stroke-width:0.5;" width="115.4609" x="97.7617" y="433.9878"/><text fill="#000000" font-family="sans-serif" font-size="12" lengthAdjust="spacing" textLength="95.4609" x="107.7617" y="455.1265">Siguiente alerta</text><polygon fill="#F1F1F1" points="110.3428,108.9688,200.6416,108.9688,212.6416,120.9688,200.6416,132.9688,110.3428,132.9688,98.3428,120.9688,110.3428,108.9688" style="stroke:#181818;stroke-width:0.5;"/><text fill="#000000" font-family="sans-serif" font-size="11" lengthAdjust="spacing" textLength="8.7871" x="159.4922" y="143.1792">si</text><text fill="#000000" font-family="sans-serif" font-size="11" lengthAdjust="spacing" textLength="90.2988" x="110.3428" y="124.7769">Quedan alertas?</text><text fill="#000000" font-family="sans-serif" font-size="11" lengthAdjust="spacing" textLength="13.7017" x="84.6411" y="118.3745">no</text><rect fill="#F1F1F1" height="33.9688" rx="12.5" ry="12.5" style="stroke:#181818;stroke-width:0.5;" width="210.5996" x="50.1924" y="509.9565"/><text fill="#000000" font-family="sans-serif" font-size="12" lengthAdjust="spacing" textLength="190.5996" x="60.1924" y="531.0952">Esperar intervalo de evaluacion</text><ellipse cx="155.4922" cy="574.9253" fill="none" rx="11" ry="11" style="stroke:#222222;stroke-width:1;"/><ellipse cx="155.4922" cy="574.9253" fill="#222222" rx="6" ry="6" style="stroke:#222222;stroke-width:1;"/><line style="stroke:#181818;stroke-width:1;" x1="155.4922" x2="155.4922" y1="35" y2="55"/><polygon fill="#181818" points="151.4922,45,155.4922,55,159.4922,45,155.4922,49" style="stroke:#181818;stroke-width:1;"/><line style="stroke:#181818;stroke-width:1;" x1="155.4922" x2="155.4922" y1="301.019" y2="336.019"/><polygon fill="#181818" points="151.4922,326.019,155.4922,336.019,159.4922,326.019,155.4922,330.019" style="stroke:#181818;stroke-width:1;"/><line style="stroke:#181818;stroke-width:1;" x1="155.4922" x2="155.4922" y1="242.6479" y2="267.0503"/><polygon fill="#181818" points="151.4922,257.0503,155.4922,267.0503,159.4922,257.0503,155.4922,261.0503" style="stroke:#181818;stroke-width:1;"/><line style="stroke:#181818;stroke-width:1;" x1="234.032" x2="277.9844" y1="230.6479" y2="230.6479"/><polygon fill="#181818" points="273.9844,308.519,277.9844,318.519,281.9844,308.519,277.9844,312.519" style="stroke:#181818;stroke-width:1;"/><line style="stroke:#181818;stroke-width:1;" x1="277.9844" x2="277.9844" y1="230.6479" y2="401.9878"/><line style="stroke:#181818;stroke-width:1;" x1="277.9844" x2="167.4922" y1="401.9878" y2="401.9878"/><polygon fill="#181818" points="177.4922,397.9878,167.4922,401.9878,177.4922,405.9878,173.4922,401.9878" style="stroke:#181818;stroke-width:1;"/><line style="stroke:#181818;stroke-width:1;" x1="155.4922" x2="155.4922" y1="369.9878" y2="389.9878"/><polygon fill="#181818" points="151.4922,379.9878,155.4922,389.9878,159.4922,379.9878,155.4922,383.9878" style="stroke:#181818;stroke-width:1;"/><line style="stroke:#181818;stroke-width:1;" x1="155.4922" x2="155.4922" y1="198.6479" y2="218.6479"/><polygon fill="#181818" points="151.4922,208.6479,155.4922,218.6479,159.4922,208.6479,155.4922,212.6479" style="stroke:#181818;stroke-width:1;"/><line style="stroke:#181818;stroke-width:1;" x1="155.4922" x2="155.4922" y1="413.9878" y2="433.9878"/><polygon fill="#181818" points="151.4922,423.9878,155.4922,433.9878,159.4922,423.9878,155.4922,427.9878" style="stroke:#181818;stroke-width:1;"/><line style="stroke:#181818;stroke-width:1;" x1="155.4922" x2="155.4922" y1="132.9688" y2="164.6792"/><polygon fill="#181818" points="151.4922,154.6792,155.4922,164.6792,159.4922,154.6792,155.4922,158.6792" style="stroke:#181818;stroke-width:1;"/><line style="stroke:#181818;stroke-width:1;" x1="155.4922" x2="155.4922" y1="467.9565" y2="477.9565"/><line style="stroke:#181818;stroke-width:1;" x1="155.4922" x2="295.9844" y1="477.9565" y2="477.9565"/><polygon fill="#181818" points="291.9844,310.1167,295.9844,300.1167,299.9844,310.1167,295.9844,306.1167" style="stroke:#181818;stroke-width:1;"/><line style="stroke:#181818;stroke-width:1;" x1="295.9844" x2="295.9844" y1="120.9688" y2="477.9565"/><line style="stroke:#181818;stroke-width:1;" x1="295.9844" x2="212.6416" y1="120.9688" y2="120.9688"/><polygon fill="#181818" points="222.6416,116.9688,212.6416,120.9688,222.6416,124.9688,218.6416,120.9688" style="stroke:#181818;stroke-width:1;"/><line style="stroke:#181818;stroke-width:1;" x1="98.3428" x2="29" y1="120.9688" y2="120.9688"/><polygon fill="#181818" points="25,296.1167,29,306.1167,33,296.1167,29,300.1167" style="stroke:#181818;stroke-width:1;"/><line style="stroke:#181818;stroke-width:1;" x1="29" x2="29" y1="120.9688" y2="489.9565"/><line style="stroke:#181818;stroke-width:1;" x1="29" x2="155.4922" y1="489.9565" y2="489.9565"/><line style="stroke:#181818;stroke-width:1;" x1="155.4922" x2="155.4922" y1="489.9565" y2="509.9565"/><polygon fill="#181818" points="151.4922,499.9565,155.4922,509.9565,159.4922,499.9565,155.4922,503.9565" style="stroke:#181818;stroke-width:1;"/><line style="stroke:#181818;stroke-width:1;" x1="155.4922" x2="155.4922" y1="88.9688" y2="108.9688"/><polygon fill="#181818" points="151.4922,98.9688,155.4922,108.9688,159.4922,98.9688,155.4922,102.9688" style="stroke:#181818;stroke-width:1;"/><line style="stroke:#181818;stroke-width:1;" x1="155.4922" x2="155.4922" y1="543.9253" y2="563.9253"/><polygon fill="#181818" points="151.4922,553.9253,155.4922,563.9253,159.4922,553.9253,155.4922,557.9253" style="stroke:#181818;stroke-width:1;"/><?plantuml-src FO-nJiH034Jx_GgNkGA93YafA20b0eJu0D_6uGnxtiZsXj_7qILqjcRcUMoEwYdrhsSd8GKif8u6c9rNj26btmiNWkwzqOHow8ydO8FE-9G0_iEBKkQwPHiMcAY0rn-IW03m3DtRJNT5Mz0GslMiM8Bb5vA35hmNr8n75yZrMk6P8w8uuN2pZD-KMtI7fy-x-mSOPULOf3hFd36ko6QaOb5TwiObcNZUclGV_DMOn6c_CAJGzZStR-f7MqY3ns7I5KkDPu1YQ3iwcTVb3m00?></g></svg>