<svg xmlns="http://www.w3.org/2000/svg" xmlns:xlink="http://www.w3.org/1999/xlink" contentStyleType="text/css" data-diagram-type="SEQUENCE" height="437px" preserveAspectRatio="none" style="width:333px;height:437px;background:#FFFFFF;" version="1.1" viewBox="0 0 333 437" width="333px" zoomAndPan="magnify"><?plantuml 1.2026.3beta6?><defs/><g><rect fill="none" height="258.7344" style="stroke:#000000;stroke-width:1.5;" width="307.1934" x="10" y="124.5625"/><g class="participant-lifeline" data-entity-uid="part1" data-qualified-name="S" data-source-line="1" id="part1-lifeline"><g><title>Sistema</title><rect fill="#000000" fill-opacity="0.00000" height="364" width="8" x="51.1948" y="36.2969"/><line style="stroke:#181818;stroke-width:0.5;stroke-dasharray:5,5;" x1="55" x2="55" y1="36.2969" y2="400.2969"/></g></g><g class="participant-lifeline" data-entity-uid="part2" data-qualified-name="SW" data-source-line="2" id="part2-lifeline"><g><title>Webhook</title><rect fill="#000000" fill-opacity="0.00000" height="364" width="8" x="263.4663" y="36.2969"/><line style="stroke:#181818;stroke-width:0.5;stroke-dasharray:5,5;" x1="266.7393" x2="266.7393" y1="36.2969" y2="400.2969"/></g></g><g class="participant participant-head" data-entity-uid="part1" data-qualified-name="S" data-source-line="1" id="part1-head"><rect fill="#E2E2F0" height="30.2969" rx="2.5" ry="2.5" style="stroke:#181818;stroke-width:0.5;" width="70.3896" x="20" y="5"/><text fill="#000000" font-family="sans-serif" font-size="14" lengthAdjust="spacing" textLength="56.3896" x="27" y="24.9951">Sistema</text></g><g class="participant participant-tail" data-entity-uid="part1" data-qualified-name="S" data-source-line="1" id="part1-tail"><rect fill="#E2E2F0" height="30.2969" rx="2.5" ry="2.5" style="stroke:#181818;stroke-width:0.5;" width="70.3896" x="20" y="399.2969"/><text fill="#000000" font-family="sans-serif" font-size="14" lengthAdjust="spacing" textLength="56.3896" x="27" y="419.292">Sistema</text></g><g class="participant participant-head" data-entity-uid="part2" data-qualified-name="SW" data-source-line="2" id="part2-head"><rect fill="#E2E2F0" height="30.2969" rx="2.5" ry="2.5" style="stroke:#181818;stroke-width:0.5;" width="79.4541" x="227.7393" y="5"/><text fill="#000000" font-family="sans-serif" font-size="14" lengthAdjust="spacing" textLength="65.4541" x="234.7393" y="24.9951">Webhook</text></g><g class="participant participant-tail" data-entity-uid="part2" data-qualified-name="SW" data-source-line="2" id="part2-tail"><rect fill="#E2E2F0" height="30.2969" rx="2.5" ry="2.5" style="stroke:#181818;stroke-width:0.5;" width="79.4541" x="227.7393" y="399.2969"/><text fill="#000000" font-family="sans-serif" font-size="14" lengthAdjust="spacing" textLength="65.4541" x="234.7393" y="419.292">Webhook</text></g><g class="message" data-entity-1="part1" data-entity-2="part1" data-source-line="4" id="msg1"><line style="stroke:#181818;stroke-width:1;" x1="55.1948" x2="97.1948" y1="67.4297" y2="67.4297"/><line style="stroke:#181818;stroke-width:1;" x1="97.1948" x2="97.1948" y1="67.4297" y2="80.4297"/><line style="stroke:#181818;stroke-width:1;" x1="56.1948" x2="97.1948" y1="80.4297" y2="80.4297"/><polygon fill="#181818" points="66.1948,76.4297,56.1948,80.4297,66.1948,84.4297,62.1948,80.4297" style="stroke:#181818;stroke-width:1;"/><text fill="#000000" font-family="sans-serif" font-size="13" lengthAdjust="spacing" textLength="132.2534" x="62.1948" y="62.3638">Generar notificacion</text></g><g class="message" data-entity-1="part1" data-entity-2="part2" data-source-line="5" id="msg2"><polygon fill="#181818" points="255.4663,105.5625,265.4663,109.5625,255.4663,113.5625,259.4663,109.5625" style="stroke:#181818;stroke-width:1;"/><line style="stroke:#181818;stroke-width:1;" x1="55.1948" x2="261.4663" y1="109.5625" y2="109.5625"/><text fill="#000000" font-family="sans-serif" font-size="13" lengthAdjust="spacing" textLength="188.2715" x="62.1948" y="104.4966">POST (token, precio, umbral)</text></g><path d="M10,124.5625 L74.4429,124.5625 L74.4429,131.6953 L64.4429,141.6953 L10,141.6953 L10,124.5625" fill="#EEEEEE" style="stroke:#000000;stroke-width:1.5;"/><rect fill="none" height="258.7344" style="stroke:#000000;stroke-width:1.5;" width="307.1934" x="10" y="124.5625"/><text fill="#000000" font-family="sans-serif" font-size="13" font-weight="700" lengthAdjust="spacing" textLength="19.4429" x="25" y="137.6294">alt</text><text fill="#000000" font-family="sans-serif" font-size="11" font-weight="700" lengthAdjust="spacing" textLength="123.8682" x="89.4429" y="136.7729">[Respuesta exitosa]</text><g class="message" data-entity-1="part2" data-entity-2="part1" data-source-line="8" id="msg3"><polygon fill="#181818" points="66.1948,158.8281,56.1948,162.8281,66.1948,166.8281,62.1948,162.8281" style="stroke:#181818;stroke-width:1;"/><line style="stroke:#181818;stroke-width:1;stroke-dasharray:2,2;" x1="60.1948" x2="266.4663" y1="162.8281" y2="162.8281"/><text fill="#000000" font-family="sans-serif" font-size="13" lengthAdjust="spacing" textLength="47.7026" x="72.1948" y="157.7622">200 OK</text></g><g class="message" data-entity-1="part1" data-entity-2="part1" data-source-line="9" id="msg4"><line style="stroke:#181818;stroke-width:1;" x1="55.1948" x2="97.1948" y1="191.9609" y2="191.9609"/><line style="stroke:#181818;stroke-width:1;" x1="97.1948" x2="97.1948" y1="191.9609" y2="204.9609"/><line style="stroke:#181818;stroke-width:1;" x1="56.1948" x2="97.1948" y1="204.9609" y2="204.9609"/><polygon fill="#181818" points="66.1948,200.9609,56.1948,204.9609,66.1948,208.9609,62.1948,204.9609" style="stroke:#181818;stroke-width:1;"/><text fill="#000000" font-family="sans-serif" font-size="13" lengthAdjust="spacing" textLength="154.8765" x="62.1948" y="186.895">Marcar como Notificada</text></g><g class="message" data-entity-1="part1" data-entity-2="part1" data-source-line="10" id="msg5"><line style="stroke:#181818;stroke-width:1;" x1="55.1948" x2="97.1948" y1="234.0938" y2="234.0938"/><line style="stroke:#181818;stroke-width:1;" x1="97.1948" x2="97.1948" y1="234.0938" y2="247.0938"/><line style="stroke:#181818;stroke-width:1;" x1="56.1948" x2="97.1948" y1="247.0938" y2="247.0938"/><polygon fill="#181818" points="66.1948,243.0938,56.1948,247.0938,66.1948,251.0938,62.1948,247.0938" style="stroke:#181818;stroke-width:1;"/><text fill="#000000" font-family="sans-serif" font-size="13" lengthAdjust="spacing" textLength="155.0732" x="62.1948" y="229.0278">Rearmar alerta a Activa</text></g><line style="stroke:#000000;stroke-width:1;stroke-dasharray:2,2;" x1="10" x2="317.1934" y1="256.0938" y2="256.0938"/><text fill="#000000" font-family="sans-serif" font-size="11" font-weight="700" lengthAdjust="spacing" textLength="105.2144" x="15" y="266.3042">[Error o timeout]</text><g class="message" data-entity-1="part2" data-entity-2="part1" data-source-line="12" id="msg6"><polygon fill="#181818" points="66.1948,287.0313,56.1948,291.0313,66.1948,295.0313,62.1948,291.0313" style="stroke:#181818;stroke-width:1;"/><line style="stroke:#181818;stroke-width:1;stroke-dasharray:2,2;" x1="60.1948" x2="266.4663" y1="291.0313" y2="291.0313"/><text fill="#000000" font-family="sans-serif" font-size="13" lengthAdjust="spacing" textLength="32.2017" x="72.1948" y="285.9653">Error</text></g><g class="message" data-entity-1="part1" data-entity-2="part1" data-source-line="13" id="msg7"><line style="stroke:#181818;stroke-width:1;" x1="55.1948" x2="97.1948" y1="320.1641" y2="320.1641"/><line style="stroke:#181818;stroke-width:1;" x1="97.1948" x2="97.1948" y1="320.1641" y2="333.1641"/><line style="stroke:#181818;stroke-width:1;" x1="56.1948" x2="97.1948" y1="333.1641" y2="333.1641"/><polygon fill="#181818" points="66.1948,329.1641,56.1948,333.1641,66.1948,337.1641,62.1948,333.1641" style="stroke:#181818;stroke-width:1;"/><text fill="#000000" font-family="sans-serif" font-size="13" lengthAdjust="spacing" textLength="121.1704" x="62.1948" y="315.0981">Marcar como Error</text></g><g class="message" data-entity-1="part1" data-entity-2="part1" data-source-line="14" id="msg8"><line style="stroke:#181818;stroke-width:1;" x1="55.1948" x2="97.1948" y1="362.2969" y2="362.2969"/><line style="stroke:#181818;stroke-width:1;" x1="97.1948" x2="97.1948" y1="362.2969" y2="375.2969"/><line style="stroke:#181818;stroke-width:1;" x1="56.1948" x2="97.1948" y1="375.2969" y2="375.2969"/><polygon fill="#181818" points="66.1948,371.2969,56.1948,375.2969,66.1948,379.2969,62.1948,375.2969" style="stroke:#181818;stroke-width:1;"/><text fill="#000000" font-family="sans-serif" font-size="13" lengthAdjust="spacing" textLength="132.3867" x="62.1948" y="357.231">Programar reintento</text></g><?plantuml-src TSr1ImD138RX-_oAZvuKMYWUUn0yY0VHbgwmvtGQDNHdCcIonP_lhAvG4Qzvaho5p2LAeUnOT5AT4or05LqebzJpuLtrz4rz21rMj-YmmGDdDZ9aTNcLI54qpzettcsx5rovdZWlKOmRBp6cWz5m7G8DZZtNCd9r0d-8QwM0wNGr_xzPhx5zd6O_nIUos89Ha-9vhXxfScFFPAcjqC3M_XBkeikP0W-LSM-c1eLBOXtzT-qB_ulzmPtfcz5KCfRid5q3v-Cd?></g></svg>