<?plantuml 1.2026.1?><svg xmlns="http://www.w3.org/2000/svg" xmlns:xlink="http://www.w3.org/1999/xlink" contentStyleType="text/css" data-diagram-type="STATE" height="529px" preserveAspectRatio="none" style="width:1050px;height:529px;background:#FFFFFF;" version="1.1" viewBox="0 0 1050 529" width="1050px" zoomAndPan="magnify"><defs/><g><g><rect fill="#F1F1F1" height="50" rx="12.5" ry="12.5" style="stroke:#181818;stroke-width:0.5;" width="172.0654" x="249.34" y="89.7"/><line style="stroke:#181818;stroke-width:0.5;" x1="249.34" x2="421.4054" y1="115.9969" y2="115.9969"/><text fill="#000000" font-family="sans-serif" font-size="14" lengthAdjust="spacing" textLength="152.0654" x="259.34" y="107.6951">SISTEMA_DISPONIBLE</text></g><g><rect fill="#F1F1F1" height="50" rx="12.5" ry="12.5" style="stroke:#181818;stroke-width:0.5;" width="194.7402" x="7" y="219.4"/><line style="stroke:#181818;stroke-width:0.5;" x1="7" x2="201.7402" y1="245.6969" y2="245.6969"/><text fill="#000000" font-family="sans-serif" font-size="14" lengthAdjust="spacing" textLength="174.7402" x="17" y="237.3951">LEADERBOARD_ABIERTO</text></g><g><rect fill="#F1F1F1" height="50" rx="12.5" ry="12.5" style="stroke:#181818;stroke-width:0.5;" width="176.7686" x="241.99" y="219.4"/><line style="stroke:#181818;stroke-width:0.5;" x1="241.99" x2="418.7586" y1="245.6969" y2="245.6969"/><text fill="#000000" font-family="sans-serif" font-size="14" lengthAdjust="spacing" textLength="156.7686" x="251.99" y="237.3951">ENTIDADES_ABIERTAS</text></g><g><rect fill="#F1F1F1" height="50" rx="12.5" ry="12.5" style="stroke:#181818;stroke-width:0.5;" width="150.1494" x="299.3" y="346.4"/><line style="stroke:#181818;stroke-width:0.5;" x1="299.3" x2="449.4494" y1="372.6969" y2="372.6969"/><text fill="#000000" font-family="sans-serif" font-size="14" lengthAdjust="spacing" textLength="130.1494" x="309.3" y="364.3951">ENTIDAD_ABIERTA</text></g><g><rect fill="#F1F1F1" height="50" rx="12.5" ry="12.5" style="stroke:#181818;stroke-width:0.5;" width="192.2861" x="278.23" y="473.4"/><line style="stroke:#181818;stroke-width:0.5;" x1="278.23" x2="470.5161" y1="499.6969" y2="499.6969"/><text fill="#000000" font-family="sans-serif" font-size="14" lengthAdjust="spacing" textLength="172.2861" x="288.23" y="491.3951">DIRECCIONES_ABIERTAS</text></g><g><rect fill="#F1F1F1" height="50" rx="12.5" ry="12.5" style="stroke:#181818;stroke-width:0.5;" width="158.8652" x="633.94" y="219.4"/><line style="stroke:#181818;stroke-width:0.5;" x1="633.94" x2="792.8052" y1="245.6969" y2="245.6969"/><text fill="#000000" font-family="sans-serif" font-size="14" lengthAdjust="spacing" textLength="138.8652" x="643.94" y="237.3951">ALERTAS_ABIERTAS</text></g><g><rect fill="#F1F1F1" height="50" rx="12.5" ry="12.5" style="stroke:#181818;stroke-width:0.5;" width="141.0918" x="570.82" y="346.4"/><line style="stroke:#181818;stroke-width:0.5;" x1="570.82" x2="711.9118" y1="372.6969" y2="372.6969"/><text fill="#000000" font-family="sans-serif" font-size="14" lengthAdjust="spacing" textLength="121.0918" x="580.82" y="364.3951">ALERTA_ABIERTA</text></g><ellipse cx="335.37" cy="16" fill="#222222" rx="10" ry="10" style="stroke:#222222;stroke-width:1;"/><g class="entity" data-qualified-name="GMN2" data-source-line="35" id="ent0003"><path d="M456.11,87 L456.11,110.7 L421.87,114.7 L456.11,118.7 L456.11,142.3984 A0,0 0 0 0 456.11,142.3984 L656.6281,142.3984 A0,0 0 0 0 656.6281,142.3984 L656.6281,97 L646.6281,87 L456.11,87 A0,0 0 0 0 456.11,87" fill="#FEFFDD" style="stroke:#181818;stroke-width:0.5;"/><path d="M646.6281,87 L646.6281,97 L656.6281,97 L646.6281,87" fill="#FEFFDD" style="stroke:#181818;stroke-width:0.5;"/><text fill="#000000" font-family="sans-serif" font-size="13" lengthAdjust="spacing" textLength="179.5181" x="462.11" y="104.0669">Hub central de navegaci&#243;n.</text><text fill="#000000" font-family="sans-serif" font-size="13" lengthAdjust="spacing" textLength="170.7964" x="462.11" y="119.1997">Punto de acceso a las tres</text><text fill="#000000" font-family="sans-serif" font-size="13" lengthAdjust="spacing" textLength="118.6694" x="462.11" y="134.3325">&#225;reas funcionales.</text></g><!--link *start* to SISTEMA_DISPONIBLE--><g class="link" data-entity-1="ent0002" data-entity-2="ent0002" data-link-type="dependency" data-source-line="4" id="lnk3"><path d="M335.37,26.27 C335.37,40.64 335.37,62.77 335.37,83.25" fill="none" id="*start*-to-SISTEMA_DISPONIBLE" style="stroke:#181818;stroke-width:1;"/><polygon fill="#181818" points="335.37,89.25,339.37,80.25,335.37,84.25,331.37,80.25,335.37,89.25" style="stroke:#181818;stroke-width:1;"/></g><!--link SISTEMA_DISPONIBLE to LEADERBOARD_ABIERTO--><g class="link" data-entity-1="ent0002" data-entity-2="ent0003" data-link-type="dependency" data-source-line="15" id="lnk4"><path d="M248.96,140.08 C194.48,155.44 134.37,172.4 134.37,172.4 C134.37,172.4 125.7056,192.9032 117.0256,213.4432" fill="none" id="SISTEMA_DISPONIBLE-to-LEADERBOARD_ABIERTO" style="stroke:#181818;stroke-width:1;"/><polygon fill="#181818" points="114.69,218.97,121.8778,212.2369,116.6363,214.3644,114.5088,209.1228,114.69,218.97" style="stroke:#181818;stroke-width:1;"/><text fill="#000000" font-family="sans-serif" font-size="13" lengthAdjust="spacing" textLength="189.3315" x="135.37" y="185.4669">CU-01 Consultar leaderboard</text></g><!--link SISTEMA_DISPONIBLE to ENTIDADES_ABIERTAS--><g class="link" data-entity-1="ent0002" data-entity-2="ent0004" data-link-type="dependency" data-source-line="18" id="lnk5"><path d="M334.42,140.02 C333.53,162.74 332.4452,190.4846 331.5552,213.1746" fill="none" id="SISTEMA_DISPONIBLE-to-ENTIDADES_ABIERTAS" style="stroke:#181818;stroke-width:1;"/><polygon fill="#181818" points="331.32,219.17,335.6697,210.3337,331.516,214.1738,327.6758,210.0201,331.32,219.17" style="stroke:#181818;stroke-width:1;"/><text fill="#000000" font-family="sans-serif" font-size="13" lengthAdjust="spacing" textLength="143.7236" x="334.37" y="185.4669">CU-03 Abrir entidades</text></g><!--link ENTIDADES_ABIERTAS to ENTIDAD_ABIERTA--><g class="link" data-entity-1="ent0004" data-entity-2="ent0005" data-link-type="dependency" data-source-line="19" id="lnk6"><path d="M289.58,269.87 C265.77,284.16 240.37,299.4 240.37,299.4 C240.37,299.4 240.37,316.4 240.37,316.4 C240.37,316.4 272.6251,329.3968 308.0751,343.6868" fill="none" id="ENTIDADES_ABIERTAS-to-ENTIDAD_ABIERTA" style="stroke:#181818;stroke-width:1;"/><polygon fill="#181818" points="313.64,345.93,306.7882,338.8552,309.0026,344.0606,303.7972,346.2751,313.64,345.93" style="stroke:#181818;stroke-width:1;"/><text fill="#000000" font-family="sans-serif" font-size="13" lengthAdjust="spacing" textLength="133.2373" x="241.37" y="312.4669">CU-02 Crear entidad</text></g><!--link ENTIDADES_ABIERTAS to ENTIDAD_ABIERTA--><g class="link" data-entity-1="ent0004" data-entity-2="ent0005" data-link-type="dependency" data-source-line="20" id="lnk7"><path d="M352.58,269.87 C365.54,284.16 379.37,299.4 379.37,299.4 C379.37,299.4 379.37,316.4 379.37,316.4 C379.37,316.4 378.5119,325.6654 377.1919,339.9554" fill="none" id="ENTIDADES_ABIERTAS-to-ENTIDAD_ABIERTA-1" style="stroke:#181818;stroke-width:1;"/><polygon fill="#181818" points="376.64,345.93,381.4509,337.3361,377.0999,340.9512,373.4848,336.6002,376.64,345.93" style="stroke:#181818;stroke-width:1;"/><text fill="#000000" font-family="sans-serif" font-size="13" lengthAdjust="spacing" textLength="135.9922" x="380.37" y="312.4669">CU-04 Editar entidad</text></g><!--link ENTIDADES_ABIERTAS to ENTIDADES_ABIERTAS--><g class="link" data-entity-1="ent0004" data-entity-2="ent0004" data-link-type="dependency" data-source-line="21" id="lnk8"><path d="M419.1,232.78 C439.11,233.83 453.75,237.7 453.75,244.4 C453.75,251.1 445.1018,254.6556 425.0918,255.7056" fill="none" id="ENTIDADES_ABIERTAS-to-ENTIDADES_ABIERTAS" style="stroke:#181818;stroke-width:1;"/><polygon fill="#181818" points="419.1,256.02,428.2972,259.5429,424.0931,255.758,427.878,251.5539,419.1,256.02" style="stroke:#181818;stroke-width:1;"/><text fill="#000000" font-family="sans-serif" font-size="13" lengthAdjust="spacing" textLength="150.7695" x="459.75" y="248.9669">CU-05 Eliminar entidad</text></g><!--link ENTIDAD_ABIERTA to DIRECCIONES_ABIERTAS--><g class="link" data-entity-1="ent0005" data-entity-2="ent0006" data-link-type="dependency" data-source-line="24" id="lnk9"><path d="M374.37,396.8 C374.37,418.82 374.37,445.06 374.37,467.06" fill="none" id="ENTIDAD_ABIERTA-to-DIRECCIONES_ABIERTAS" style="stroke:#181818;stroke-width:1;"/><polygon fill="#181818" points="374.37,473.06,378.37,464.06,374.37,468.06,370.37,464.06,374.37,473.06" style="stroke:#181818;stroke-width:1;"/><text fill="#000000" font-family="sans-serif" font-size="13" lengthAdjust="spacing" textLength="153.6133" x="375.37" y="439.4669">CU-07 Abrir direcciones</text></g><!--link DIRECCIONES_ABIERTAS to DIRECCIONES_ABIERTAS--><g class="link" data-entity-1="ent0006" data-entity-2="ent0006" data-link-type="dependency" data-source-line="25" id="lnk10"><path d="M470.73,492.65 C490.94,493.24 505.51,495.16 505.51,498.4 C505.51,501.64 496.9374,503.3849 476.7274,503.9749" fill="none" id="DIRECCIONES_ABIERTAS-to-DIRECCIONES_ABIERTAS" style="stroke:#181818;stroke-width:1;"/><polygon fill="#181818" points="470.73,504.15,479.8429,507.8857,475.7279,504.0041,479.6094,499.8891,470.73,504.15" style="stroke:#181818;stroke-width:1;"/><text fill="#000000" font-family="sans-serif" font-size="13" lengthAdjust="spacing" textLength="149.7031" x="511.51" y="502.9669">CU-06 A&#241;adir direcci&#243;n</text></g><!--link DIRECCIONES_ABIERTAS to DIRECCIONES_ABIERTAS--><g class="link" data-entity-1="ent0006" data-entity-2="ent0006" data-link-type="dependency" data-source-line="26" id="lnk11"><path d="M470.81,487.98 C558.08,484.18 666.51,487.66 666.51,498.4 C666.51,509.14 564.0743,512.881 476.8043,509.081" fill="none" id="DIRECCIONES_ABIERTAS-to-DIRECCIONES_ABIERTAS-1" style="stroke:#181818;stroke-width:1;"/><polygon fill="#181818" points="470.81,508.82,479.6275,513.2077,475.8053,509.0375,479.9755,505.2153,470.81,508.82" style="stroke:#181818;stroke-width:1;"/><text fill="#000000" font-family="sans-serif" font-size="13" lengthAdjust="spacing" textLength="160.6592" x="672.51" y="502.9669">CU-08 Eliminar direcci&#243;n</text></g><!--link SISTEMA_DISPONIBLE to ALERTAS_ABIERTAS--><g class="link" data-entity-1="ent0002" data-entity-2="ent0007" data-link-type="dependency" data-source-line="29" id="lnk12"><path d="M407.81,140.17 C474.8,162.8 568.1556,194.3397 635.1756,216.9797" fill="none" id="SISTEMA_DISPONIBLE-to-ALERTAS_ABIERTAS" style="stroke:#181818;stroke-width:1;"/><polygon fill="#181818" points="640.86,218.9,633.6135,212.23,636.123,217.2998,631.0532,219.8092,640.86,218.9" style="stroke:#181818;stroke-width:1;"/><text fill="#000000" font-family="sans-serif" font-size="13" lengthAdjust="spacing" textLength="189.1157" x="548.37" y="185.4669">CU-10 Abrir alertas de precio</text></g><!--link ALERTAS_ABIERTAS to ALERTA_ABIERTA--><g class="link" data-entity-1="ent0007" data-entity-2="ent0008" data-link-type="dependency" data-source-line="30" id="lnk13"><path d="M659.44,269.87 C627.96,284.16 594.37,299.4 594.37,299.4 C594.37,299.4 594.37,316.4 594.37,316.4 C594.37,316.4 603.6904,327.1145 616.1304,341.4045" fill="none" id="ALERTAS_ABIERTAS-to-ALERTA_ABIERTA" style="stroke:#181818;stroke-width:1;"/><polygon fill="#181818" points="620.07,345.93,617.1776,336.5154,616.787,342.1588,611.1437,341.7682,620.07,345.93" style="stroke:#181818;stroke-width:1;"/><text fill="#000000" font-family="sans-serif" font-size="13" lengthAdjust="spacing" textLength="186.6274" x="595.37" y="312.4669">CU-09 Crear alerta de precio</text></g><!--link ALERTAS_ABIERTAS to ALERTA_ABIERTA--><g class="link" data-entity-1="ent0007" data-entity-2="ent0008" data-link-type="dependency" data-source-line="31" id="lnk14"><path d="M746.45,269.87 C765.77,284.16 786.37,299.4 786.37,299.4 C786.37,299.4 786.37,316.4 786.37,316.4 C786.37,316.4 751.0727,329.546 712.7027,343.836" fill="none" id="ALERTAS_ABIERTAS-to-ALERTA_ABIERTA-1" style="stroke:#181818;stroke-width:1;"/><polygon fill="#181818" points="707.08,345.93,716.9101,346.5374,711.7656,344.185,714.118,339.0404,707.08,345.93" style="stroke:#181818;stroke-width:1;"/><text fill="#000000" font-family="sans-serif" font-size="13" lengthAdjust="spacing" textLength="189.3823" x="787.37" y="312.4669">CU-11 Editar alerta de precio</text></g><!--link ALERTAS_ABIERTAS to ALERTAS_ABIERTAS--><g class="link" data-entity-1="ent0007" data-entity-2="ent0007" data-link-type="dependency" data-source-line="32" id="lnk15"><path d="M793.05,232.66 C812.94,233.48 827.8,237.39 827.8,244.4 C827.8,251.41 818.9349,255.0728 799.0449,255.8928" fill="none" id="ALERTAS_ABIERTAS-to-ALERTAS_ABIERTAS" style="stroke:#181818;stroke-width:1;"/><polygon fill="#181818" points="793.05,256.14,802.2071,259.7659,798.0458,255.934,801.8776,251.7727,793.05,256.14" style="stroke:#181818;stroke-width:1;"/><text fill="#000000" font-family="sans-serif" font-size="13" lengthAdjust="spacing" textLength="204.1597" x="833.8" y="248.9669">CU-12 Eliminar alerta de precio</text></g><?plantuml-src dPHBRi8m48RtFiNi-f22WBwxg6GIIur40ILqLLN898PQ3JPodAezJezGzGXSh0uuX9A85fQUyNmpy_jFqbSkvbJH6IHSCFqnPp2NoKT-GEZfz1aSvmv2FnoI1ppo_73Gx_cTBa4erLIpkimgqINO8q6dZmDlX3i-2OPzco6zeU-PP6ZZEFoTAC8swla1SLs_twiMuExoL1zUOz2HsS61BgCnKsD9LPoVKNNovQerSyCjk8zEimMk56cMQAeWAM45dmZDOnDDTz6hkrlu6U2nuWfOGK4rLpS8HT2Mjy5LZAxBzoi-1n9p_U_gwl0NG18-us83OKNnk69HnAKmiXodsTY9fD3iNKk86MI25lTFbg9jZvSthNj-s_RAQXQNJL3jzJyubu0NNpGkIOjlSH3ekjHXWsIbm0bJckvqnxQVLzXMq-v9BS58DpTqBb6beAHilV6DDSYASGYYrIfiiW-ZiaoxrAZ2GKAQprVnwOi6EQdxjm3SPsE8Z6iKJV9AGT_Ob2w5RfZi81ChRz4eOga42eaHJ2lZ3835fv4WXKacShEOxca3CH53tXNz0000?></g></svg>