<svg xmlns="http://www.w3.org/2000/svg" xmlns:xlink="http://www.w3.org/1999/xlink" contentStyleType="text/css" data-diagram-type="CLASS" height="607px" preserveAspectRatio="none" style="width:534px;height:607px;background:#FFFFFF;" version="1.1" viewBox="0 0 534 607" width="534px" zoomAndPan="magnify"><?plantuml 1.2026.3beta6?><defs/><g><g class="entity" data-qualified-name="u1" data-source-line="4" id="ent0002"><rect fill="#F1F1F1" height="30" rx="2.5" ry="2.5" style="stroke:#181818;stroke-width:0.5;" width="14" x="175" y="7"/><text fill="#000000" font-family="sans-serif" font-size="14" lengthAdjust="spacing" textLength="0" x="182" y="9">trader1 : Usuario</text><line style="stroke:#181818;stroke-width:0.5;" x1="176" x2="188" y1="21" y2="21"/></g><g class="entity" data-qualified-name="e1" data-source-line="6" id="ent0003"><rect fill="#F1F1F1" height="32" rx="2.5" ry="2.5" style="stroke:#181818;stroke-width:0.5;" width="14" x="75" y="114"/><text fill="#000000" font-family="sans-serif" font-size="14" lengthAdjust="spacing" textLength="0" x="82" y="116">Wintermute : Entidad</text><line style="stroke:#181818;stroke-width:0.5;" x1="76" x2="88" y1="128" y2="128"/><text fill="#000000" font-family="sans-serif" font-size="14" lengthAdjust="spacing" textLength="0" x="81" y="132">nombre = "Wintermute"</text></g><g class="entity" data-qualified-name="d1" data-source-line="10" id="ent0004"><rect fill="#F1F1F1" height="32" rx="2.5" ry="2.5" style="stroke:#181818;stroke-width:0.5;" width="14" x="7" y="223"/><text fill="#000000" font-family="sans-serif" font-size="14" lengthAdjust="spacing" textLength="0" x="14" y="225">0xabc1 : Direccion</text><line style="stroke:#181818;stroke-width:0.5;" x1="8" x2="20" y1="237" y2="237"/><text fill="#000000" font-family="sans-serif" font-size="14" lengthAdjust="spacing" textLength="0" x="13" y="241">hash = "0xabc1...f3"</text></g><g class="entity" data-qualified-name="d2" data-source-line="14" id="ent0005"><rect fill="#F1F1F1" height="32" rx="2.5" ry="2.5" style="stroke:#181818;stroke-width:0.5;" width="14" x="75" y="223"/><text fill="#000000" font-family="sans-serif" font-size="14" lengthAdjust="spacing" textLength="0" x="82" y="225">0xdef2 : Direccion</text><line style="stroke:#181818;stroke-width:0.5;" x1="76" x2="88" y1="237" y2="237"/><text fill="#000000" font-family="sans-serif" font-size="14" lengthAdjust="spacing" textLength="0" x="81" y="241">hash = "0xdef2...a7"</text></g><g class="entity" data-qualified-name="t1" data-source-line="18" id="ent0006"><rect fill="#F1F1F1" height="32" rx="2.5" ry="2.5" style="stroke:#181818;stroke-width:0.5;" width="14" x="96" y="451"/><text fill="#000000" font-family="sans-serif" font-size="14" lengthAdjust="spacing" textLength="0" x="103" y="453">BTC : Token</text><line style="stroke:#181818;stroke-width:0.5;" x1="97" x2="109" y1="465" y2="465"/><text fill="#000000" font-family="sans-serif" font-size="14" lengthAdjust="spacing" textLength="0" x="102" y="469">nombre = "BTC"</text></g><g class="entity" data-qualified-name="m1" data-source-line="22" id="ent0007"><rect fill="#F1F1F1" height="32" rx="2.5" ry="2.5" style="stroke:#181818;stroke-width:0.5;" width="14" x="36" y="560"/><text fill="#000000" font-family="sans-serif" font-size="14" lengthAdjust="spacing" textLength="0" x="43" y="562">PerpNativo : Mercado</text><line style="stroke:#181818;stroke-width:0.5;" x1="37" x2="49" y1="574" y2="574"/><text fill="#000000" font-family="sans-serif" font-size="14" lengthAdjust="spacing" textLength="0" x="42" y="578">tipo = "PerpNativo"</text></g><g class="entity" data-qualified-name="t2" data-source-line="26" id="ent0008"><rect fill="#F1F1F1" height="32" rx="2.5" ry="2.5" style="stroke:#181818;stroke-width:0.5;" width="14" x="432" y="223"/><text fill="#000000" font-family="sans-serif" font-size="14" lengthAdjust="spacing" textLength="0" x="439" y="225">PURR : Token</text><line style="stroke:#181818;stroke-width:0.5;" x1="433" x2="445" y1="237" y2="237"/><text fill="#000000" font-family="sans-serif" font-size="14" lengthAdjust="spacing" textLength="0" x="438" y="241">nombre = "PURR"</text></g><g class="entity" data-qualified-name="m2" data-source-line="30" id="ent0009"><rect fill="#F1F1F1" height="32" rx="2.5" ry="2.5" style="stroke:#181818;stroke-width:0.5;" width="14" x="432" y="337"/><text fill="#000000" font-family="sans-serif" font-size="14" lengthAdjust="spacing" textLength="0" x="439" y="339">Spot : Mercado</text><line style="stroke:#181818;stroke-width:0.5;" x1="433" x2="445" y1="351" y2="351"/><text fill="#000000" font-family="sans-serif" font-size="14" lengthAdjust="spacing" textLength="0" x="438" y="355">tipo = "Spot"</text></g><g class="entity" data-qualified-name="p1" data-source-line="34" id="ent0010"><rect fill="#F1F1F1" height="32" rx="2.5" ry="2.5" style="stroke:#181818;stroke-width:0.5;" width="14" x="156" y="560"/><text fill="#000000" font-family="sans-serif" font-size="14" lengthAdjust="spacing" textLength="0" x="163" y="562">98500 : Precio</text><line style="stroke:#181818;stroke-width:0.5;" x1="157" x2="169" y1="574" y2="574"/><text fill="#000000" font-family="sans-serif" font-size="14" lengthAdjust="spacing" textLength="0" x="162" y="578">valor = 98500</text></g><g class="entity" data-qualified-name="op1" data-source-line="38" id="ent0011"><rect fill="#F1F1F1" height="42" rx="2.5" ry="2.5" style="stroke:#181818;stroke-width:0.5;" width="14" x="46" y="332"/><text fill="#000000" font-family="sans-serif" font-size="14" lengthAdjust="spacing" textLength="0" x="53" y="334">compra500k : Operacion</text><line style="stroke:#181818;stroke-width:0.5;" x1="47" x2="59" y1="346" y2="346"/><text fill="#000000" font-family="sans-serif" font-size="14" lengthAdjust="spacing" textLength="0" x="52" y="350">volumenUSD = 500000</text><text fill="#000000" font-family="sans-serif" font-size="14" lengthAdjust="spacing" textLength="0" x="52" y="360">tipo = "compra"</text></g><g class="entity" data-qualified-name="a1" data-source-line="43" id="ent0012"><rect fill="#F1F1F1" height="32" rx="2.5" ry="2.5" style="stroke:#181818;stroke-width:0.5;" width="14" x="175" y="114"/><text fill="#000000" font-family="sans-serif" font-size="14" lengthAdjust="spacing" textLength="0" x="182" y="116">alertaBTC : AlertaPrecio</text><line style="stroke:#181818;stroke-width:0.5;" x1="176" x2="188" y1="128" y2="128"/><text fill="#000000" font-family="sans-serif" font-size="14" lengthAdjust="spacing" textLength="0" x="181" y="132">umbralUSD = 100000</text></g><g class="entity" data-qualified-name="a2" data-source-line="47" id="ent0013"><rect fill="#F1F1F1" height="32" rx="2.5" ry="2.5" style="stroke:#181818;stroke-width:0.5;" width="14" x="318" y="114"/><text fill="#000000" font-family="sans-serif" font-size="14" lengthAdjust="spacing" textLength="0" x="325" y="116">alertaPURR : AlertaPrecio</text><line style="stroke:#181818;stroke-width:0.5;" x1="319" x2="331" y1="128" y2="128"/><text fill="#000000" font-family="sans-serif" font-size="14" lengthAdjust="spacing" textLength="0" x="324" y="132">umbralUSD = 0.50</text></g><g class="entity" data-qualified-name="w1" data-source-line="51" id="ent0014"><rect fill="#F1F1F1" height="32" rx="2.5" ry="2.5" style="stroke:#181818;stroke-width:0.5;" width="14" x="262" y="223"/><text fill="#000000" font-family="sans-serif" font-size="14" lengthAdjust="spacing" textLength="0" x="269" y="225">whDiscord : Webhook</text><line style="stroke:#181818;stroke-width:0.5;" x1="263" x2="275" y1="237" y2="237"/><text fill="#000000" font-family="sans-serif" font-size="14" lengthAdjust="spacing" textLength="0" x="268" y="241">url = "https://discord.com/api/..."</text></g><!--link u1 to e1--><g class="link" data-entity-1="ent0002" data-entity-2="ent0003" data-link-type="association" data-source-line="55" id="lnk15"><path codeLine="55" d="M174.81,30.62 C156.45,50.09 107.98,101.46 89.4,121.16" fill="none" id="u1-e1" style="stroke:#181818;stroke-width:1;"/><text fill="#000000" font-family="sans-serif" font-size="13" lengthAdjust="spacing" textLength="28.4565" x="138" y="80.0669">crea</text></g><!--link u1 to a1--><g class="link" data-entity-1="ent0002" data-entity-2="ent0012" data-link-type="association" data-source-line="56" id="lnk16"><path codeLine="56" d="M182,37.3 C182,57.19 182,93.07 182,113.56" fill="none" id="u1-a1" style="stroke:#181818;stroke-width:1;"/><text fill="#000000" font-family="sans-serif" font-size="13" lengthAdjust="spacing" textLength="61.3311" x="183" y="80.0669">configura</text></g><!--link u1 to a2--><g class="link" data-entity-1="ent0002" data-entity-2="ent0013" data-link-type="association" data-source-line="57" id="lnk17"><path codeLine="57" d="M189.29,27.02 C202.43,34.36 230.78,50.7 253,67 C278.01,85.34 305.11,110.18 317.75,122.08" fill="none" id="u1-a2" style="stroke:#181818;stroke-width:1;"/><text fill="#000000" font-family="sans-serif" font-size="13" lengthAdjust="spacing" textLength="61.3311" x="274" y="80.0669">configura</text></g><!--link e1 to d1--><g class="link" data-entity-1="ent0003" data-entity-2="ent0004" data-link-type="association" data-source-line="58" id="lnk18"><path codeLine="58" d="M74.73,134.22 C61.9,140.33 35.41,154.9 23,176 C14.62,190.25 13.02,209.44 13.1,222.67" fill="none" id="e1-d1" style="stroke:#181818;stroke-width:1;"/><text fill="#000000" font-family="sans-serif" font-size="13" lengthAdjust="spacing" textLength="46.0205" x="24" y="189.0669">agrupa</text></g><!--link e1 to d2--><g class="link" data-entity-1="ent0003" data-entity-2="ent0005" data-link-type="association" data-source-line="59" id="lnk19"><path codeLine="59" d="M80.57,146.28 C79.55,158.83 78.47,177.06 79,193 C79.33,202.86 80.06,213.92 80.72,222.6" fill="none" id="e1-d2" style="stroke:#181818;stroke-width:1;"/><text fill="#000000" font-family="sans-serif" font-size="13" lengthAdjust="spacing" textLength="46.0205" x="80" y="189.0669">agrupa</text></g><!--link d1 to op1--><g class="link" data-entity-1="ent0004" data-entity-2="ent0011" data-link-type="association" data-source-line="60" id="lnk20"><path codeLine="60" d="M19.26,255.1 C26.16,274.93 38.3,309.78 45.98,331.84" fill="none" id="d1-op1" style="stroke:#181818;stroke-width:1;"/><text fill="#000000" font-family="sans-serif" font-size="13" lengthAdjust="spacing" textLength="48.0581" x="36" y="298.0669">ejecuta</text></g><!--link op1 to t1--><g class="link" data-entity-1="ent0011" data-entity-2="ent0006" data-link-type="association" data-source-line="61" id="lnk21"><path codeLine="61" d="M60.38,370.53 C70.05,392.19 86.88,429.88 96.23,450.84" fill="none" id="op1-t1" style="stroke:#181818;stroke-width:1;"/><text fill="#000000" font-family="sans-serif" font-size="13" lengthAdjust="spacing" textLength="36.3213" x="83" y="417.0669">sobre</text></g><!--link t1 to m1--><g class="link" data-entity-1="ent0006" data-entity-2="ent0007" data-link-type="association" data-source-line="62" id="lnk22"><path codeLine="62" d="M95.8,470.56 C81.96,475.93 51.93,489.81 40,513 C32.55,527.47 34.94,546.44 38.14,559.57" fill="none" id="t1-m1" style="stroke:#181818;stroke-width:1;"/><text fill="#000000" font-family="sans-serif" font-size="13" lengthAdjust="spacing" textLength="78.73" x="41" y="526.0669">pertenece-a</text></g><!--link t1 to p1--><g class="link" data-entity-1="ent0006" data-entity-2="ent0010" data-link-type="association" data-source-line="63" id="lnk23"><path codeLine="63" d="M110.36,481.12 C121.87,501.66 144.03,541.17 155.58,561.77" fill="none" id="t1-p1" style="stroke:#181818;stroke-width:1;"/><text fill="#000000" font-family="sans-serif" font-size="13" lengthAdjust="spacing" textLength="32.9443" x="137" y="526.0669">tiene</text></g><!--link t2 to m2--><g class="link" data-entity-1="ent0008" data-entity-2="ent0009" data-link-type="association" data-source-line="64" id="lnk24"><path codeLine="64" d="M439,255.1 C439,276.48 439,315.34 439,336.78" fill="none" id="t2-m2" style="stroke:#181818;stroke-width:1;"/><text fill="#000000" font-family="sans-serif" font-size="13" lengthAdjust="spacing" textLength="78.73" x="440" y="298.0669">pertenece-a</text></g><!--link a1 to t1--><g class="link" data-entity-1="ent0012" data-entity-2="ent0006" data-link-type="association" data-source-line="65" id="lnk25"><path codeLine="65" d="M180.9,146.24 C177.37,190.11 164.35,320.05 128,421 C123.58,433.28 116.07,446.19 110.43,455.01" fill="none" id="a1-t1" style="stroke:#181818;stroke-width:1;"/><text fill="#000000" font-family="sans-serif" font-size="13" lengthAdjust="spacing" textLength="69.2656" x="163" y="298.0669">monitoriza</text></g><!--link a2 to t2--><g class="link" data-entity-1="ent0013" data-entity-2="ent0008" data-link-type="association" data-source-line="66" id="lnk26"><path codeLine="66" d="M332.32,136.19 C343.46,144.23 365.18,160.4 382,176 C401.08,193.7 421.18,216.76 431.66,229.17" fill="none" id="a2-t2" style="stroke:#181818;stroke-width:1;"/><text fill="#000000" font-family="sans-serif" font-size="13" lengthAdjust="spacing" textLength="69.2656" x="399" y="189.0669">monitoriza</text></g><!--link a1 to w1--><g class="link" data-entity-1="ent0012" data-entity-2="ent0014" data-link-type="association" data-source-line="67" id="lnk27"><path codeLine="67" d="M186.89,146.4 C191.61,159.68 199.72,178.89 211,193 C225.8,211.52 249.71,226.88 261.68,233.9" fill="none" id="a1-w1" style="stroke:#181818;stroke-width:1;"/><text fill="#000000" font-family="sans-serif" font-size="13" lengthAdjust="spacing" textLength="72.1665" x="212" y="189.0669">notifica-via</text></g><!--link a2 to w1--><g class="link" data-entity-1="ent0013" data-entity-2="ent0014" data-link-type="association" data-source-line="68" id="lnk28"><path codeLine="68" d="M317.68,144.99 C306.95,165.49 287.06,203.5 276.32,224.01" fill="none" id="a2-w1" style="stroke:#181818;stroke-width:1;"/><text fill="#000000" font-family="sans-serif" font-size="13" lengthAdjust="spacing" textLength="72.1665" x="301" y="189.0669">notifica-via</text></g><?plantuml-src PP9FRzim3CNl_XH2xd5Y3yMs03riouxRYhP1pup4r5fiqv3fP7-mxpvAIkF8zabwUBz7YcPb3IfjdQung_ovPtH8_Bl3BAFzJzIi5kp0e2lKHktw0PobXO9U3SNeUB6jSCt0AAQlBLi39fYmK7ypfLfgzWxL_QrpaVqR0zQ_OAzzXQrrgBMbDk0cuXNqbOUZAy_pmxi9RV1GpkboGdkNqF0-eJy_Vn7qcOuOCPxsB8O4U43NVGUs9nBk6peD9ewaYIJRZZmt-b9yz_YO5Ymd1RqZGPuwuccjCgdb7GdoySFTUYtCWqpayiUwsDu9QdB21CSjegdf78Xu5Ev7XmwkewGtbkgXmNRtj9K0SSftqqGCIDg06Xr37F6dSBvf26Be8E-6EcOMCNEMS1dQFAASHQppkoJWN6rjhyaPuLzmNn4T0tg-L7UrxxrYxlhDQcMYDvUthA2pAzcNyA2XKCkbt-UDqWxXSeTmf_PWNmTt5Sj4n20QxuHNDtHNfHmL4nG_vOr2QNjWoFnDHFPQJx8Q6GUXyOBy7SOMDIxX8WUMhOYPB9JtbHCVZ7aDjPR9sJ-Y1ZEN4pLupzxR4jk3rR0ysJVtJFyF?></g></svg>