<svg xmlns="http://www.w3.org/2000/svg" xmlns:xlink="http://www.w3.org/1999/xlink" contentStyleType="text/css" data-diagram-type="CLASS" height="682px" preserveAspectRatio="none" style="width:934px;height:682px;background:#FFFFFF;" version="1.1" viewBox="0 0 934 682" width="934px" zoomAndPan="magnify"><?plantuml 1.2026.3beta6?><defs/><g><g class="entity" data-qualified-name="u1" data-source-line="4" id="ent0002"><rect fill="#F1F1F1" height="36.2969" rx="2.5" ry="2.5" style="stroke:#181818;stroke-width:0.5;" width="132.8086" x="252.26" y="7"/><text fill="#000000" font-family="sans-serif" font-size="14" lengthAdjust="spacing" textLength="118.8086" x="259.26" y="21.9951">trader1 : Usuario</text><line style="stroke:#181818;stroke-width:0.5;" x1="253.26" x2="384.0686" y1="27.2969" y2="27.2969"/></g><g class="entity" data-qualified-name="e1" data-source-line="6" id="ent0003"><rect fill="#F1F1F1" height="44.5938" rx="2.5" ry="2.5" style="stroke:#181818;stroke-width:0.5;" width="182.9189" x="736.2" y="120.29"/><text fill="#000000" font-family="sans-serif" font-size="14" lengthAdjust="spacing" textLength="150.1445" x="752.5872" y="135.2851">Wintermute : Entidad</text><line style="stroke:#181818;stroke-width:0.5;" x1="737.2" x2="918.1189" y1="140.5869" y2="140.5869"/><text fill="#000000" font-family="sans-serif" font-size="14" lengthAdjust="spacing" textLength="170.9189" x="742.2" y="157.582">nombre = "Wintermute"</text></g><g class="entity" data-qualified-name="d1" data-source-line="10" id="ent0004"><rect fill="#F1F1F1" height="44.5938" rx="2.5" ry="2.5" style="stroke:#181818;stroke-width:0.5;" width="157.5781" x="492.87" y="241.89"/><text fill="#000000" font-family="sans-serif" font-size="14" lengthAdjust="spacing" textLength="130.6416" x="506.3383" y="256.8851">0xabc1 : Direccion</text><line style="stroke:#181818;stroke-width:0.5;" x1="493.87" x2="649.4481" y1="262.1869" y2="262.1869"/><text fill="#000000" font-family="sans-serif" font-size="14" lengthAdjust="spacing" textLength="145.5781" x="498.87" y="279.182">hash = "0xabc1...f3"</text></g><g class="entity" data-qualified-name="d2" data-source-line="14" id="ent0005"><rect fill="#F1F1F1" height="44.5938" rx="2.5" ry="2.5" style="stroke:#181818;stroke-width:0.5;" width="158.4941" x="748.41" y="241.89"/><text fill="#000000" font-family="sans-serif" font-size="14" lengthAdjust="spacing" textLength="127.9072" x="763.7035" y="256.8851">0xdef2 : Direccion</text><line style="stroke:#181818;stroke-width:0.5;" x1="749.41" x2="905.9041" y1="262.1869" y2="262.1869"/><text fill="#000000" font-family="sans-serif" font-size="14" lengthAdjust="spacing" textLength="146.4941" x="754.41" y="279.182">hash = "0xdef2...a7"</text></g><g class="entity" data-qualified-name="t1" data-source-line="18" id="ent0006"><rect fill="#F1F1F1" height="44.5938" rx="2.5" ry="2.5" style="stroke:#181818;stroke-width:0.5;" width="127.7734" x="112.77" y="501.37"/><text fill="#000000" font-family="sans-serif" font-size="14" lengthAdjust="spacing" textLength="84.2598" x="134.5268" y="516.3651">BTC : Token</text><line style="stroke:#181818;stroke-width:0.5;" x1="113.77" x2="239.5434" y1="521.6669" y2="521.6669"/><text fill="#000000" font-family="sans-serif" font-size="14" lengthAdjust="spacing" textLength="115.7734" x="118.77" y="538.662">nombre = "BTC"</text></g><g class="entity" data-qualified-name="m1" data-source-line="22" id="ent0007"><rect fill="#F1F1F1" height="44.5938" rx="2.5" ry="2.5" style="stroke:#181818;stroke-width:0.5;" width="164.7734" x="94.27" y="622.97"/><text fill="#000000" font-family="sans-serif" font-size="14" lengthAdjust="spacing" textLength="150.7734" x="101.27" y="637.9651">PerpNativo : Mercado</text><line style="stroke:#181818;stroke-width:0.5;" x1="95.27" x2="258.0434" y1="643.2669" y2="643.2669"/><text fill="#000000" font-family="sans-serif" font-size="14" lengthAdjust="spacing" textLength="124.4414" x="100.27" y="660.262">tipo = PerpNativo</text></g><g class="entity" data-qualified-name="t2" data-source-line="26" id="ent0008"><rect fill="#F1F1F1" height="44.5938" rx="2.5" ry="2.5" style="stroke:#181818;stroke-width:0.5;" width="137.9863" x="249.67" y="241.89"/><text fill="#000000" font-family="sans-serif" font-size="14" lengthAdjust="spacing" textLength="94.4727" x="271.4268" y="256.8851">PURR : Token</text><line style="stroke:#181818;stroke-width:0.5;" x1="250.67" x2="386.6563" y1="262.1869" y2="262.1869"/><text fill="#000000" font-family="sans-serif" font-size="14" lengthAdjust="spacing" textLength="125.9863" x="255.67" y="279.182">nombre = "PURR"</text></g><g class="entity" data-qualified-name="m2" data-source-line="30" id="ent0009"><rect fill="#F1F1F1" height="44.5938" rx="2.5" ry="2.5" style="stroke:#181818;stroke-width:0.5;" width="119.6221" x="258.85" y="371.63"/><text fill="#000000" font-family="sans-serif" font-size="14" lengthAdjust="spacing" textLength="105.6221" x="265.85" y="386.6251">Spot : Mercado</text><line style="stroke:#181818;stroke-width:0.5;" x1="259.85" x2="377.4721" y1="391.9269" y2="391.9269"/><text fill="#000000" font-family="sans-serif" font-size="14" lengthAdjust="spacing" textLength="79.29" x="264.85" y="408.922">tipo = Spot</text></g><g class="entity" data-qualified-name="p1" data-source-line="34" id="ent0010"><rect fill="#F1F1F1" height="44.5938" rx="2.5" ry="2.5" style="stroke:#181818;stroke-width:0.5;" width="112.2422" x="309.54" y="501.37"/><text fill="#000000" font-family="sans-serif" font-size="14" lengthAdjust="spacing" textLength="93.3994" x="318.9614" y="516.3651">pBTC : Precio</text><line style="stroke:#181818;stroke-width:0.5;" x1="310.54" x2="420.7822" y1="521.6669" y2="521.6669"/><text fill="#000000" font-family="sans-serif" font-size="14" lengthAdjust="spacing" textLength="100.2422" x="315.54" y="538.662">valor = 98500</text></g><g class="entity" data-qualified-name="op1" data-source-line="38" id="ent0011"><rect fill="#F1F1F1" height="60.8906" rx="2.5" ry="2.5" style="stroke:#181818;stroke-width:0.5;" width="187.4482" x="445.94" y="363.48"/><text fill="#000000" font-family="sans-serif" font-size="14" lengthAdjust="spacing" textLength="173.4482" x="452.94" y="378.4751">compra500k : Operacion</text><line style="stroke:#181818;stroke-width:0.5;" x1="446.94" x2="632.3882" y1="383.7769" y2="383.7769"/><text fill="#000000" font-family="sans-serif" font-size="14" lengthAdjust="spacing" textLength="134.8115" x="451.94" y="400.772">volumen = 500000</text><text fill="#000000" font-family="sans-serif" font-size="14" lengthAdjust="spacing" textLength="100.584" x="451.94" y="417.0689">tipo = compra</text></g><g class="entity" data-qualified-name="a1" data-source-line="43" id="ent0012"><rect fill="#F1F1F1" height="44.5938" rx="2.5" ry="2.5" style="stroke:#181818;stroke-width:0.5;" width="181.3232" x="7" y="120.29"/><text fill="#000000" font-family="sans-serif" font-size="14" lengthAdjust="spacing" textLength="167.3232" x="14" y="135.2851">alertaBTC : AlertaPrecio</text><line style="stroke:#181818;stroke-width:0.5;" x1="8" x2="187.3232" y1="140.5869" y2="140.5869"/><text fill="#000000" font-family="sans-serif" font-size="14" lengthAdjust="spacing" textLength="123.6963" x="13" y="157.582">umbral = 100000</text></g><g class="entity" data-qualified-name="a2" data-source-line="47" id="ent0013"><rect fill="#F1F1F1" height="44.5938" rx="2.5" ry="2.5" style="stroke:#181818;stroke-width:0.5;" width="191.5361" x="222.89" y="120.29"/><text fill="#000000" font-family="sans-serif" font-size="14" lengthAdjust="spacing" textLength="177.5361" x="229.89" y="135.2851">alertaPURR : AlertaPrecio</text><line style="stroke:#181818;stroke-width:0.5;" x1="223.89" x2="413.4261" y1="140.5869" y2="140.5869"/><text fill="#000000" font-family="sans-serif" font-size="14" lengthAdjust="spacing" textLength="101.4248" x="228.89" y="157.582">umbral = 0.50</text></g><g class="entity" data-qualified-name="w1" data-source-line="51" id="ent0014"><rect fill="#F1F1F1" height="44.5938" rx="2.5" ry="2.5" style="stroke:#181818;stroke-width:0.5;" width="178.5371" x="522.39" y="120.29"/><text fill="#000000" font-family="sans-serif" font-size="14" lengthAdjust="spacing" textLength="152.2637" x="535.5267" y="135.2851">whDiscord : Webhook</text><line style="stroke:#181818;stroke-width:0.5;" x1="523.39" x2="699.9271" y1="140.5869" y2="140.5869"/><text fill="#000000" font-family="sans-serif" font-size="14" lengthAdjust="spacing" textLength="166.5371" x="528.39" y="157.582">url = "https://discord..."</text></g><!--link u1 to e1--><g class="link" data-entity-1="ent0002" data-entity-2="ent0003" data-link-type="dependency" data-source-line="55" id="lnk15"><path codeLine="55" d="M385.47,41.3 C475.15,61.64 628.9885,96.5332 729.9385,119.4232" fill="none" id="u1-to-e1" style="stroke:#181818;stroke-width:1;"/><polygon fill="#181818" points="735.79,120.75,727.8973,114.8588,730.9138,119.6443,726.1283,122.6608,735.79,120.75" style="stroke:#181818;stroke-width:1;"/><text fill="#000000" font-family="sans-serif" font-size="13" lengthAdjust="spacing" textLength="28.4565" x="588.66" y="86.3569">crea</text></g><!--link u1 to a1--><g class="link" data-entity-1="ent0002" data-entity-2="ent0012" data-link-type="dependency" data-source-line="56" id="lnk16"><path codeLine="56" d="M251.89,27.61 C211.17,31.81 160.43,43.37 125.66,73.29 C111.87,85.16 106.1392,99.0407 102.5492,114.2407" fill="none" id="u1-to-a1" style="stroke:#181818;stroke-width:1;"/><polygon fill="#181818" points="101.17,120.08,107.1316,112.2404,102.3193,115.2139,99.3458,110.4015,101.17,120.08" style="stroke:#181818;stroke-width:1;"/><text fill="#000000" font-family="sans-serif" font-size="13" lengthAdjust="spacing" textLength="61.3311" x="126.66" y="86.3569">configura</text></g><!--link u1 to a2--><g class="link" data-entity-1="ent0002" data-entity-2="ent0013" data-link-type="dependency" data-source-line="57" id="lnk17"><path codeLine="57" d="M318.66,43.68 C318.66,64.12 318.66,91.9 318.66,113.95" fill="none" id="u1-to-a2" style="stroke:#181818;stroke-width:1;"/><polygon fill="#181818" points="318.66,119.95,322.66,110.95,318.66,114.95,314.66,110.95,318.66,119.95" style="stroke:#181818;stroke-width:1;"/><text fill="#000000" font-family="sans-serif" font-size="13" lengthAdjust="spacing" textLength="61.3311" x="319.66" y="86.3569">configura</text></g><!--link e1 to d1--><g class="link" data-entity-1="ent0003" data-entity-2="ent0004" data-link-type="dependency" data-source-line="58" id="lnk18"><path codeLine="58" d="M781,165.39 C734.71,187.01 669.6158,217.4199 623.4358,238.9999" fill="none" id="e1-to-d1" style="stroke:#181818;stroke-width:1;"/><polygon fill="#181818" points="618,241.54,627.8471,241.3536,622.5298,239.4232,624.4602,234.1059,618,241.54" style="stroke:#181818;stroke-width:1;"/><text fill="#000000" font-family="sans-serif" font-size="13" lengthAdjust="spacing" textLength="46.0205" x="715.66" y="207.9569">agrupa</text></g><!--link e1 to d2--><g class="link" data-entity-1="ent0003" data-entity-2="ent0005" data-link-type="dependency" data-source-line="59" id="lnk19"><path codeLine="59" d="M827.66,165.25 C827.66,186.92 827.66,214.07 827.66,235.69" fill="none" id="e1-to-d2" style="stroke:#181818;stroke-width:1;"/><polygon fill="#181818" points="827.66,241.69,831.66,232.69,827.66,236.69,823.66,232.69,827.66,241.69" style="stroke:#181818;stroke-width:1;"/><text fill="#000000" font-family="sans-serif" font-size="13" lengthAdjust="spacing" textLength="46.0205" x="828.66" y="207.9569">agrupa</text></g><!--link d1 to op1--><g class="link" data-entity-1="ent0004" data-entity-2="ent0011" data-link-type="dependency" data-source-line="60" id="lnk20"><path codeLine="60" d="M566.23,286.85 C560.99,307.78 554.4687,333.83 548.6187,357.17" fill="none" id="d1-to-op1" style="stroke:#181818;stroke-width:1;"/><polygon fill="#181818" points="547.16,362.99,553.2281,355.2325,548.3756,358.14,545.4681,353.2876,547.16,362.99" style="stroke:#181818;stroke-width:1;"/><text fill="#000000" font-family="sans-serif" font-size="13" lengthAdjust="spacing" textLength="48.0581" x="559.66" y="329.5469">ejecuta</text></g><!--link op1 to t1--><g class="link" data-entity-1="ent0011" data-entity-2="ent0006" data-link-type="dependency" data-source-line="61" id="lnk21"><path codeLine="61" d="M455.01,424.72 C388.71,448.05 303.6698,477.9783 244.0798,498.9483" fill="none" id="op1-to-t1" style="stroke:#181818;stroke-width:1;"/><polygon fill="#181818" points="238.42,500.94,248.2375,501.7256,243.1365,499.2802,245.5819,494.1793,238.42,500.94" style="stroke:#181818;stroke-width:1;"/><text fill="#000000" font-family="sans-serif" font-size="13" lengthAdjust="spacing" textLength="36.3213" x="370.66" y="467.4369">sobre</text></g><!--link t1 to m1--><g class="link" data-entity-1="ent0006" data-entity-2="ent0007" data-link-type="dependency" data-source-line="62" id="lnk22"><path codeLine="62" d="M176.66,546.33 C176.66,568 176.66,595.15 176.66,616.77" fill="none" id="t1-to-m1" style="stroke:#181818;stroke-width:1;"/><polygon fill="#181818" points="176.66,622.77,180.66,613.77,176.66,617.77,172.66,613.77,176.66,622.77" style="stroke:#181818;stroke-width:1;"/><text fill="#000000" font-family="sans-serif" font-size="13" lengthAdjust="spacing" textLength="78.1714" x="177.66" y="589.0369">pertenece a</text></g><!--link t1 to p1--><g class="link" data-entity-1="ent0006" data-entity-2="ent0010" data-link-type="dependency" data-source-line="63" id="lnk23"><path codeLine="63" d="M240.91,523.67 C263.06,523.67 281.7,523.67 303.18,523.67" fill="none" id="t1-to-p1" style="stroke:#181818;stroke-width:1;"/><polygon fill="#181818" points="309.18,523.67,300.18,519.67,304.18,523.67,300.18,527.67,309.18,523.67" style="stroke:#181818;stroke-width:1;"/><text fill="#000000" font-family="sans-serif" font-size="13" lengthAdjust="spacing" textLength="32.9443" x="259.04" y="516.7369">tiene</text></g><!--link t2 to m2--><g class="link" data-entity-1="ent0008" data-entity-2="ent0009" data-link-type="dependency" data-source-line="64" id="lnk24"><path codeLine="64" d="M318.66,286.85 C318.66,310.34 318.66,341.62 318.66,365.15" fill="none" id="t2-to-m2" style="stroke:#181818;stroke-width:1;"/><polygon fill="#181818" points="318.66,371.15,322.66,362.15,318.66,366.15,314.66,362.15,318.66,371.15" style="stroke:#181818;stroke-width:1;"/><text fill="#000000" font-family="sans-serif" font-size="13" lengthAdjust="spacing" textLength="78.1714" x="319.66" y="329.5469">pertenece a</text></g><!--link a1 to t1--><g class="link" data-entity-1="ent0012" data-entity-2="ent0006" data-link-type="dependency" data-source-line="65" id="lnk25"><path codeLine="65" d="M102.19,165.33 C116.13,232.2 157.0158,428.3962 170.9258,495.1362" fill="none" id="a1-to-t1" style="stroke:#181818;stroke-width:1;"/><polygon fill="#181818" points="172.15,501.01,174.2295,491.3832,171.1298,496.1152,166.3978,493.0155,172.15,501.01" style="stroke:#181818;stroke-width:1;"/><text fill="#000000" font-family="sans-serif" font-size="13" lengthAdjust="spacing" textLength="69.2656" x="138.66" y="329.5469">monitoriza</text></g><!--link a2 to t2--><g class="link" data-entity-1="ent0013" data-entity-2="ent0008" data-link-type="dependency" data-source-line="66" id="lnk26"><path codeLine="66" d="M318.66,165.25 C318.66,186.92 318.66,214.07 318.66,235.69" fill="none" id="a2-to-t2" style="stroke:#181818;stroke-width:1;"/><polygon fill="#181818" points="318.66,241.69,322.66,232.69,318.66,236.69,314.66,232.69,318.66,241.69" style="stroke:#181818;stroke-width:1;"/><text fill="#000000" font-family="sans-serif" font-size="13" lengthAdjust="spacing" textLength="69.2656" x="319.66" y="207.9569">monitoriza</text></g><!--link a1 to w1--><g class="link" data-entity-1="ent0012" data-entity-2="ent0014" data-link-type="dependency" data-source-line="67" id="lnk27"><path codeLine="67" d="M126.22,119.95 C145.15,106.44 171.19,90.56 197.16,83.43 C256.56,67.1 413.1639,97.024 516.1639,119.994" fill="none" id="a1-to-w1" style="stroke:#181818;stroke-width:1;"/><polygon fill="#181818" points="522.02,121.3,514.1064,115.4369,517.1399,120.2117,512.3651,123.2451,522.02,121.3" style="stroke:#181818;stroke-width:1;"/><text fill="#000000" font-family="sans-serif" font-size="13" lengthAdjust="spacing" textLength="71.6079" x="198.16" y="86.3569">notifica via</text></g><!--link a2 to w1--><g class="link" data-entity-1="ent0013" data-entity-2="ent0014" data-link-type="dependency" data-source-line="68" id="lnk28"><path codeLine="68" d="M414.6,142.59 C449.15,142.59 481.97,142.59 515.97,142.59" fill="none" id="a2-to-w1" style="stroke:#181818;stroke-width:1;"/><polygon fill="#181818" points="521.97,142.59,512.97,138.59,516.97,142.59,512.97,146.59,521.97,142.59" style="stroke:#181818;stroke-width:1;"/><text fill="#000000" font-family="sans-serif" font-size="13" lengthAdjust="spacing" textLength="71.6079" x="432.91" y="135.6569">notifica via</text></g><?plantuml-src RP9DRzD048Rl_XMht9l6HXKG2IIW786gjEfviZkfbzYUrNYSy27-ExEx0Ny4d-p7xpCp7c_j7HhhsJPOrF6-5sGa-H6mA6Zt3QsObJ0uvD9ipMC_07jQ6UZDK8w99z-frmw26lhOYNVWKWXBywimfgDsnsZUJ9EhulTOOFCTTZPskFMCrdhgakwoNaDVHpcdrklr_iN2ThYlBkrgOSUKsl1oPhz_-A3g0nqmQxASMGCpuGuvV0RnHrBl4x85brVIPbDy8FN6s4n-lB-VjwiMxM9Yrkzh85bsggQTOc0gXFn9TxgCyyyAUR8ZDCGgl7vrizbC3KjjO51uKEzBG8P_MwI_BZL3YvtQ6jDhR9_bQJbea0No5E_I_MGMoFK6_LveL2zpkGlzlAbBlvhxc_NDp3xLjxwtn4xb9zpLH8VadSvzEKghMYJqs-jhbxDwBDBEXz9SNRsDvtPhB2Cau9H08jJj_VF04rpDC6RTnJ0yyn16L8t8PHGtkpMeKmy2HNoAL2BiIGz38PcqaUW_4UpGee74MLyaNxpYGazHYbQBA4oAjjHv8VO_5UUuL0jyBdoAyOx4xxq5S_HP-E-RFm00?></g></svg>