<svg xmlns="http://www.w3.org/2000/svg" xmlns:xlink="http://www.w3.org/1999/xlink" contentStyleType="text/css" data-diagram-type="DESCRIPTION" height="278px" preserveAspectRatio="none" style="width:782px;height:278px;background:#FFFFFF;" version="1.1" viewBox="0 0 782 278" width="782px" zoomAndPan="magnify"><?plantuml 1.2026.3beta6?><defs/><g><!--entity S--><g class="entity" data-qualified-name="S" data-source-line="1" id="ent0002"><rect fill="#F1F1F1" height="68.8906" rx="2.5" ry="2.5" style="stroke:#181818;stroke-width:0.5;" width="229.3984" x="235.9" y="192.5"/><text fill="#000000" font-family="sans-serif" font-size="14" lengthAdjust="spacing" textLength="56.3896" x="245.9" y="215.4951">Sistema</text><text fill="#000000" font-family="sans-serif" font-size="14" lengthAdjust="spacing" textLength="209.3984" x="245.9" y="231.792">Herramientas en Tiempo Real</text><text fill="#000000" font-family="sans-serif" font-size="14" lengthAdjust="spacing" textLength="183.9756" x="245.9" y="248.0889">sobre la L1 de Hyperliquid</text></g><!--entity U--><g class="entity" data-qualified-name="U" data-source-line="3" id="ent0003"><ellipse cx="32.6021" cy="197.29" fill="#F1F1F1" rx="8" ry="8" style="stroke:#181818;stroke-width:0.5;"/><path d="M32.6021,205.29 L32.6021,232.29 M19.6021,213.29 L45.6021,213.29 M32.6021,232.29 L19.6021,247.29 M32.6021,232.29 L45.6021,247.29" fill="none" style="stroke:#181818;stroke-width:0.5;"/><text fill="#000000" font-family="sans-serif" font-size="14" lengthAdjust="spacing" textLength="53.2041" x="6" y="261.7851">Usuario</text></g><!--entity HL--><g class="entity" data-qualified-name="HL" data-source-line="4" id="ent0004"><ellipse cx="350.6005" cy="14" fill="#F1F1F1" rx="8" ry="8" style="stroke:#181818;stroke-width:0.5;"/><path d="M350.6005,22 L350.6005,49 M337.6005,30 L363.6005,30 M350.6005,49 L337.6005,64 M350.6005,49 L363.6005,64" fill="none" style="stroke:#181818;stroke-width:0.5;"/><text fill="#000000" font-family="sans-serif" font-size="14" lengthAdjust="spacing" textLength="101.541" x="299.83" y="78.4951">Hyperliquid L1</text></g><!--entity SW--><g class="entity" data-qualified-name="SW" data-source-line="5" id="ent0005"><ellipse cx="704.6037" cy="197.29" fill="#F1F1F1" rx="8" ry="8" style="stroke:#181818;stroke-width:0.5;"/><path d="M704.6037,205.29 L704.6037,232.29 M691.6037,213.29 L717.6037,213.29 M704.6037,232.29 L691.6037,247.29 M704.6037,232.29 L717.6037,247.29" fill="none" style="stroke:#181818;stroke-width:0.5;"/><text fill="#000000" font-family="sans-serif" font-size="14" lengthAdjust="spacing" textLength="125.4873" x="641.86" y="261.7851">Servicio Webhook</text></g><!--link U to S--><g class="link" data-entity-1="ent0003" data-entity-2="ent0002" data-link-type="dependency" data-source-line="7" id="lnk6"><path d="M59.44,226.94 C98.15,226.94 165.99,226.94 229.62,226.94" fill="none" id="U-to-S" style="stroke:#181818;stroke-width:1;"/><polygon fill="#181818" points="235.62,226.94,226.62,222.94,230.62,226.94,226.62,230.94,235.62,226.94" style="stroke:#181818;stroke-width:1;"/><text fill="#000000" font-family="sans-serif" font-size="13" lengthAdjust="spacing" textLength="140.0293" x="77.55" y="190.0069">Consulta leaderboard</text><text fill="#000000" font-family="sans-serif" font-size="13" lengthAdjust="spacing" textLength="126.0327" x="84.5483" y="205.1397">Gestiona entidades</text><text fill="#000000" font-family="sans-serif" font-size="13" lengthAdjust="spacing" textLength="112.1504" x="91.4895" y="220.2725">Configura alertas</text></g><!--link HL to S--><g class="link" data-entity-1="ent0004" data-entity-2="ent0002" data-link-type="dependency" data-source-line="9" id="lnk7"><path d="M350.6,82.21 C350.6,114.57 350.6,154.86 350.6,186.09" fill="none" id="HL-to-S" style="stroke:#181818;stroke-width:1;"/><polygon fill="#181818" points="350.6,192.09,354.6,183.09,350.6,187.09,346.6,183.09,350.6,192.09" style="stroke:#181818;stroke-width:1;"/><text fill="#000000" font-family="sans-serif" font-size="13" lengthAdjust="spacing" textLength="145.7993" x="363.9906" y="124.8569">Precios en tiempo real</text><text fill="#000000" font-family="sans-serif" font-size="13" lengthAdjust="spacing" textLength="137.2236" x="368.2785" y="139.9897">Operaciones (trades)</text><text fill="#000000" font-family="sans-serif" font-size="13" lengthAdjust="spacing" textLength="170.5806" x="351.6" y="155.1225">via API REST y WebSocket</text></g><!--link S to SW--><g class="link" data-entity-1="ent0002" data-entity-2="ent0005" data-link-type="dependency" data-source-line="11" id="lnk8"><path d="M465.54,226.94 C523.98,226.94 586.77,226.94 635.51,226.94" fill="none" id="S-to-SW" style="stroke:#181818;stroke-width:1;"/><polygon fill="#181818" points="641.51,226.94,632.51,222.94,636.51,226.94,632.51,230.94,641.51,226.94" style="stroke:#181818;stroke-width:1;"/><text fill="#000000" font-family="sans-serif" font-size="13" lengthAdjust="spacing" textLength="91.4126" x="508.0883" y="205.0069">Notificaciones</text><text fill="#000000" font-family="sans-serif" font-size="13" lengthAdjust="spacing" textLength="140.4292" x="483.58" y="220.1397">de alertas disparadas</text></g><?plantuml-src JP0nRy8m48Lt_ufJfdR8qBL3fQggcag88WpAakKI7t32tD6pGyM_hmaWiTvx-lmz6mqPPHi9Aiyfqm4xQSWC3qoICG49h9WEHuKbOUmaQMy44M7s0e6WEH_98l-E72eeTUyS3baDgdKQqLYdw_f-VAWNm9GritleoKuyi49B_KvrVmMspgsXDjxkSlq67bxXGoMDCID4ma3MArhev8jIPXKinfb32L8dfRdXxMW86CdA7EUQ6TH1_-J6MXYL5wUP-JhJffa_nHDB8fJWATi5zzp9YH7U5z-m_FGhE5yylGvxoixv1yMsSEUQUSF33T59-QgR0WHEHon4JFy0?></g></svg>