<svg xmlns="http://www.w3.org/2000/svg" xmlns:xlink="http://www.w3.org/1999/xlink" contentStyleType="text/css" data-diagram-type="STATE" height="742px" preserveAspectRatio="none" style="width:625px;height:742px;background:#FFFFFF;" version="1.1" viewBox="0 0 625 742" width="625px" zoomAndPan="magnify"><?plantuml 1.2026.3beta6?><defs/><g><g class="start_entity" data-qualified-name=".start." data-source-line="1" id="ent0002"><ellipse cx="315.58" cy="16" fill="#222222" rx="10" ry="10" style="stroke:#222222;stroke-width:1;"/></g><g class="entity" data-qualified-name="Creada" id="ent0003"><rect fill="#F1F1F1" height="50" rx="12.5" ry="12.5" style="stroke:#181818;stroke-width:0.5;" width="70.1895" x="280.49" y="87"/><line style="stroke:#181818;stroke-width:0.5;" x1="280.49" x2="350.6795" y1="113.2969" y2="113.2969"/><text fill="#000000" font-family="sans-serif" font-size="14" lengthAdjust="spacing" textLength="50.1895" x="290.49" y="104.9951">Creada</text></g><g class="entity" data-qualified-name="Activa" id="ent0005"><rect fill="#F1F1F1" height="50" rx="12.5" ry="12.5" style="stroke:#181818;stroke-width:0.5;" width="63.5176" x="283.82" y="214"/><line style="stroke:#181818;stroke-width:0.5;" x1="283.82" x2="347.3376" y1="240.2969" y2="240.2969"/><text fill="#000000" font-family="sans-serif" font-size="14" lengthAdjust="spacing" textLength="43.5176" x="293.82" y="231.9951">Activa</text></g><g class="entity" data-qualified-name="Disparada" id="ent0007"><rect fill="#F1F1F1" height="50" rx="12.5" ry="12.5" style="stroke:#181818;stroke-width:0.5;" width="91.2305" x="183.97" y="341"/><line style="stroke:#181818;stroke-width:0.5;" x1="183.97" x2="275.2005" y1="367.2969" y2="367.2969"/><text fill="#000000" font-family="sans-serif" font-size="14" lengthAdjust="spacing" textLength="71.2305" x="193.97" y="358.9951">Disparada</text></g><g class="entity" data-qualified-name="Desactivada" id="ent0009"><rect fill="#F1F1F1" height="50" rx="12.5" ry="12.5" style="stroke:#181818;stroke-width:0.5;" width="106.6729" x="504.24" y="341"/><line style="stroke:#181818;stroke-width:0.5;" x1="504.24" x2="610.9129" y1="367.2969" y2="367.2969"/><text fill="#000000" font-family="sans-serif" font-size="14" lengthAdjust="spacing" textLength="86.6729" x="514.24" y="358.9951">Desactivada</text></g><g class="entity" data-qualified-name="Eliminada" id="ent0011"><rect fill="#F1F1F1" height="50" rx="12.5" ry="12.5" style="stroke:#181818;stroke-width:0.5;" width="89.0703" x="186.05" y="595"/><line style="stroke:#181818;stroke-width:0.5;" x1="186.05" x2="275.1203" y1="621.2969" y2="621.2969"/><text fill="#000000" font-family="sans-serif" font-size="14" lengthAdjust="spacing" textLength="69.0703" x="196.05" y="612.9951">Eliminada</text></g><g class="entity" data-qualified-name="Notificada" id="ent0015"><rect fill="#F1F1F1" height="50" rx="12.5" ry="12.5" style="stroke:#181818;stroke-width:0.5;" width="90.9775" x="51.09" y="468"/><line style="stroke:#181818;stroke-width:0.5;" x1="51.09" x2="142.0675" y1="494.2969" y2="494.2969"/><text fill="#000000" font-family="sans-serif" font-size="14" lengthAdjust="spacing" textLength="70.9775" x="61.09" y="485.9951">Notificada</text></g><g class="entity" data-qualified-name="Error" id="ent0017"><rect fill="#F1F1F1" height="50" rx="12.5" ry="12.5" style="stroke:#181818;stroke-width:0.5;" width="54.6787" x="320.24" y="468"/><line style="stroke:#181818;stroke-width:0.5;" x1="320.24" x2="374.9187" y1="494.2969" y2="494.2969"/><text fill="#000000" font-family="sans-serif" font-size="14" lengthAdjust="spacing" textLength="34.6787" x="330.24" y="485.9951">Error</text></g><g class="end_entity" data-qualified-name=".end." data-source-line="21" id="ent0024"><ellipse cx="230.58" cy="717" fill="none" rx="11" ry="11" style="stroke:#222222;stroke-width:1;"/><ellipse cx="230.58" cy="717" fill="#222222" rx="6" ry="6" style="stroke:#222222;stroke-width:1;"/></g><!--link *start* to Creada--><g class="link" data-entity-1="ent0002" data-entity-2="ent0003" data-link-type="dependency" data-source-line="1" id="lnk4"><path d="M315.58,26.36 C315.58,40.29 315.58,60.95 315.58,80.65" fill="none" id="*start*-to-Creada" style="stroke:#181818;stroke-width:1;"/><polygon fill="#181818" points="315.58,86.65,319.58,77.65,315.58,81.65,311.58,77.65,315.58,86.65" style="stroke:#181818;stroke-width:1;"/></g><!--link Creada to Activa--><g class="link" data-entity-1="ent0003" data-entity-2="ent0005" data-link-type="dependency" data-source-line="2" id="lnk6"><path d="M315.58,137.4 C315.58,159.42 315.58,185.66 315.58,207.66" fill="none" id="Creada-to-Activa" style="stroke:#181818;stroke-width:1;"/><polygon fill="#181818" points="315.58,213.66,319.58,204.66,315.58,208.66,311.58,204.66,315.58,213.66" style="stroke:#181818;stroke-width:1;"/><text fill="#000000" font-family="sans-serif" font-size="13" lengthAdjust="spacing" textLength="44.8271" x="316.58" y="180.0669">activar</text></g><!--link Activa to Disparada--><g class="link" data-entity-1="ent0005" data-entity-2="ent0007" data-link-type="dependency" data-source-line="4" id="lnk8"><path d="M283.74,249.9 C263.16,258.14 237.97,272.12 225.58,294 C217.61,308.07 217.5931,320.4731 220.6931,334.9431" fill="none" id="Activa-to-Disparada" style="stroke:#181818;stroke-width:1;"/><polygon fill="#181818" points="221.95,340.81,223.9759,331.1718,220.9026,335.9209,216.1534,332.8476,221.95,340.81" style="stroke:#181818;stroke-width:1;"/><text fill="#000000" font-family="sans-serif" font-size="13" lengthAdjust="spacing" textLength="150.7886" x="226.58" y="307.0669">precio traspasa umbral</text></g><!--link Activa to Desactivada--><g class="link" data-entity-1="ent0005" data-entity-2="ent0009" data-link-type="dependency" data-source-line="5" id="lnk10"><path d="M347.49,255.93 C368.8,266.61 397.43,281.04 422.58,294 C452.36,309.34 480.3654,324.0562 506.4554,337.8462" fill="none" id="Activa-to-Desactivada" style="stroke:#181818;stroke-width:1;"/><polygon fill="#181818" points="511.76,340.65,505.6723,332.9079,507.3395,338.3135,501.9339,339.9807,511.76,340.65" style="stroke:#181818;stroke-width:1;"/><text fill="#000000" font-family="sans-serif" font-size="13" lengthAdjust="spacing" textLength="67.8501" x="453.58" y="307.0669">desactivar</text></g><!--link Desactivada to Activa--><g class="link" data-entity-1="ent0009" data-entity-2="ent0005" data-link-type="dependency" data-source-line="8" id="lnk13"><path d="M553.81,340.67 C550.17,325.19 543.12,305.9 529.58,294 C477.93,248.59 399.4989,240.4264 353.6489,239.5364" fill="none" id="Desactivada-to-Activa" style="stroke:#181818;stroke-width:1;"/><polygon fill="#181818" points="347.65,239.42,356.5707,243.5939,352.6491,239.517,356.7259,235.5954,347.65,239.42" style="stroke:#181818;stroke-width:1;"/><text fill="#000000" font-family="sans-serif" font-size="13" lengthAdjust="spacing" textLength="44.8271" x="542.58" y="307.0669">activar</text></g><!--link Activa to Eliminada--><g class="link" data-entity-1="ent0005" data-entity-2="ent0011" data-link-type="dependency" data-source-line="6" id="lnk12"><path d="M283.33,245.72 C213.68,260.17 52.5,305.56 15.58,421 C6,450.97 13.01,491.45 33.58,518 C71.72,567.22 134.7284,592.8816 180.0784,606.3516" fill="none" id="Activa-to-Eliminada" style="stroke:#181818;stroke-width:1;"/><polygon fill="#181818" points="185.83,608.06,178.3414,601.663,181.037,606.6364,176.0636,609.3319,185.83,608.06" style="stroke:#181818;stroke-width:1;"/><text fill="#000000" font-family="sans-serif" font-size="13" lengthAdjust="spacing" textLength="53.0474" x="16.58" y="434.0669">eliminar</text></g><!--link Desactivada to Eliminada--><g class="link" data-entity-1="ent0009" data-entity-2="ent0011" data-link-type="dependency" data-source-line="9" id="lnk14"><path d="M538.64,391.36 C505.93,432.05 435.07,514.35 359.58,565 C333.67,582.38 306.9247,593.914 281.0747,603.084" fill="none" id="Desactivada-to-Eliminada" style="stroke:#181818;stroke-width:1;"/><polygon fill="#181818" points="275.42,605.09,285.2394,605.8509,280.1323,603.4184,282.5648,598.3112,275.42,605.09" style="stroke:#181818;stroke-width:1;"/><text fill="#000000" font-family="sans-serif" font-size="13" lengthAdjust="spacing" textLength="53.0474" x="471.58" y="497.5669">eliminar</text></g><!--link Disparada to Notificada--><g class="link" data-entity-1="ent0007" data-entity-2="ent0015" data-link-type="dependency" data-source-line="11" id="lnk16"><path d="M183.75,372.02 C152.64,378.09 113.63,391.47 93.58,421 C84.43,434.47 84.2492,447.0661 87.4392,461.7861" fill="none" id="Disparada-to-Notificada" style="stroke:#181818;stroke-width:1;"/><polygon fill="#181818" points="88.71,467.65,90.7131,458.007,87.651,462.7634,82.8946,459.7014,88.71,467.65" style="stroke:#181818;stroke-width:1;"/><text fill="#000000" font-family="sans-serif" font-size="13" lengthAdjust="spacing" textLength="109.77" x="94.58" y="434.0669">webhook exitoso</text></g><!--link Disparada to Error--><g class="link" data-entity-1="ent0007" data-entity-2="ent0017" data-link-type="dependency" data-source-line="12" id="lnk18"><path d="M246.94,391.26 C257.5,405.42 271.61,423.34 285.58,438 C296.21,449.16 304.3261,456.6486 315.4561,466.0486" fill="none" id="Disparada-to-Error" style="stroke:#181818;stroke-width:1;"/><polygon fill="#181818" points="320.04,469.92,315.7451,461.057,316.2201,466.6938,310.5832,467.1688,320.04,469.92" style="stroke:#181818;stroke-width:1;"/><text fill="#000000" font-family="sans-serif" font-size="13" lengthAdjust="spacing" textLength="90.4224" x="286.58" y="434.0669">webhook falla</text></g><!--link Disparada to Eliminada--><g class="link" data-entity-1="ent0007" data-entity-2="ent0011" data-link-type="dependency" data-source-line="13" id="lnk19"><path d="M229.68,391.16 C229.87,439.21 230.2664,540.25 230.4564,588.54" fill="none" id="Disparada-to-Eliminada" style="stroke:#181818;stroke-width:1;"/><polygon fill="#181818" points="230.48,594.54,234.4446,585.5243,230.4603,589.54,226.4446,585.5558,230.48,594.54" style="stroke:#181818;stroke-width:1;"/><text fill="#000000" font-family="sans-serif" font-size="13" lengthAdjust="spacing" textLength="53.0474" x="231.58" y="497.5669">eliminar</text></g><!--link Error to Activa--><g class="link" data-entity-1="ent0017" data-entity-2="ent0005" data-link-type="dependency" data-source-line="15" id="lnk20"><path d="M367.01,467.6 C372.88,458.79 378.57,448.43 381.58,438 C399.33,376.51 408.99,351.83 381.58,294 C374.42,278.88 365.6582,269.998 352.5882,260.978" fill="none" id="Error-to-Activa" style="stroke:#181818;stroke-width:1;"/><polygon fill="#181818" points="347.65,257.57,352.7853,265.9741,351.7652,260.41,357.3293,259.3899,347.65,257.57" style="stroke:#181818;stroke-width:1;"/><text fill="#000000" font-family="sans-serif" font-size="13" lengthAdjust="spacing" textLength="64.9365" x="400.58" y="370.5669">reintentar</text></g><!--link Error to Eliminada--><g class="link" data-entity-1="ent0017" data-entity-2="ent0011" data-link-type="dependency" data-source-line="16" id="lnk21"><path d="M324.74,518.4 C304.13,540.42 278.061,568.2803 257.461,590.2803" fill="none" id="Error-to-Eliminada" style="stroke:#181818;stroke-width:1;"/><polygon fill="#181818" points="253.36,594.66,262.4313,590.8244,256.7775,591.0102,256.5917,585.3564,253.36,594.66" style="stroke:#181818;stroke-width:1;"/><text fill="#000000" font-family="sans-serif" font-size="13" lengthAdjust="spacing" textLength="53.0474" x="297.58" y="561.0669">eliminar</text></g><!--link Notificada to Activa--><g class="link" data-entity-1="ent0015" data-entity-2="ent0005" data-link-type="dependency" data-source-line="18" id="lnk22"><path d="M87.18,467.64 C84.11,458.49 81.1,447.91 79.58,438 C72.66,392.99 81.54,374.31 112.58,341 C160.22,289.88 233.6299,262.7795 277.6999,249.9295" fill="none" id="Notificada-to-Activa" style="stroke:#181818;stroke-width:1;"/><polygon fill="#181818" points="283.46,248.25,273.7001,246.9292,278.6599,249.6496,275.9395,254.6094,283.46,248.25" style="stroke:#181818;stroke-width:1;"/><text fill="#000000" font-family="sans-serif" font-size="13" lengthAdjust="spacing" textLength="52.6284" x="113.58" y="370.5669">rearmar</text></g><!--link Notificada to Eliminada--><g class="link" data-entity-1="ent0015" data-entity-2="ent0011" data-link-type="dependency" data-source-line="19" id="lnk23"><path d="M111.69,518.34 C121.42,532.87 134.96,551.14 149.58,565 C161.11,575.93 170.0625,582.8352 183.1425,591.3552" fill="none" id="Notificada-to-Eliminada" style="stroke:#181818;stroke-width:1;"/><polygon fill="#181818" points="188.17,594.63,182.8119,586.3661,183.9804,591.901,178.4456,593.0695,188.17,594.63" style="stroke:#181818;stroke-width:1;"/><text fill="#000000" font-family="sans-serif" font-size="13" lengthAdjust="spacing" textLength="53.0474" x="150.58" y="561.0669">eliminar</text></g><!--link Eliminada to *end*--><g class="link" data-entity-1="ent0011" data-entity-2="ent0024" data-link-type="dependency" data-source-line="21" id="lnk25"><path d="M230.58,645.46 C230.58,665.04 230.58,685.49 230.58,699.8" fill="none" id="Eliminada-to-*end*" style="stroke:#181818;stroke-width:1;"/><polygon fill="#181818" points="230.58,705.8,234.58,696.8,230.58,700.8,226.58,696.8,230.58,705.8" style="stroke:#181818;stroke-width:1;"/></g><?plantuml-src TOvB3eCm34JtdCBhIbo0HQMgPTiB81O6Z6er4EIad-Ct8IqD4QpYp3oFfphKaET7E0jXXrbuPkNKMduY583p85dsLRnvOJEXUBI0IQXb3LRGQGRXCJI2QaMJ2I4pt_r-4ZEbue77G52OtSbuSxDK2kp4B7KzSzMMUsu3zABcflKTwCrM6vsWfOYMYEfHAKoPpPDXSzLPY4TBetNstztUZYec4IY30n9_fyAYUgOwr1y0?></g></svg>