<svg xmlns="http://www.w3.org/2000/svg" xmlns:xlink="http://www.w3.org/1999/xlink" contentStyleType="text/css" data-diagram-type="DESCRIPTION" height="641px" preserveAspectRatio="none" style="width:812px;height:641px;background:#FFFFFF;" version="1.1" viewBox="0 0 812 641" width="812px" zoomAndPan="magnify"><?plantuml 1.2026.3beta6?><defs/><g><!--cluster Leaderboard--><g class="cluster" data-qualified-name="Leaderboard" data-source-line="7" id="ent0005"><path d="M157.04,346 L258.3369,346 A3.75,3.75 0 0 1 260.8369,348.5 L267.8369,368.2969 L299.64,368.2969 A2.5,2.5 0 0 1 302.14,370.7969 L302.14,464.5 A2.5,2.5 0 0 1 299.64,467 L157.04,467 A2.5,2.5 0 0 1 154.54,464.5 L154.54,348.5 A2.5,2.5 0 0 1 157.04,346" fill="none" style="stroke:#000000;stroke-width:1.5;"/><line style="stroke:#000000;stroke-width:1.5;" x1="154.54" x2="267.8369" y1="368.2969" y2="368.2969"/><text fill="#000000" font-family="sans-serif" font-size="14" font-weight="700" lengthAdjust="spacing" textLength="100.2969" x="158.54" y="360.9951">Leaderboard</text></g><!--cluster Entidades--><g class="cluster" data-qualified-name="Entidades" data-source-line="11" id="ent0007"><path d="M491.7,402 L571.0398,402 A3.75,3.75 0 0 1 573.5398,404.5 L580.5398,424.2969 L615.25,424.2969 A2.5,2.5 0 0 1 617.75,426.7969 L617.75,623.5 A2.5,2.5 0 0 1 615.25,626 L491.7,626 A2.5,2.5 0 0 1 489.2,623.5 L489.2,404.5 A2.5,2.5 0 0 1 491.7,402" fill="none" style="stroke:#000000;stroke-width:1.5;"/><line style="stroke:#000000;stroke-width:1.5;" x1="489.2" x2="580.5398" y1="424.2969" y2="424.2969"/><text fill="#000000" font-family="sans-serif" font-size="14" font-weight="700" lengthAdjust="spacing" textLength="78.3398" x="493.2" y="416.9951">Entidades</text></g><!--cluster Alertas--><g class="cluster" data-qualified-name="Alertas" data-source-line="16" id="ent0010"><path d="M169.37,6 L226.8759,6 A3.75,3.75 0 0 1 229.3759,8.5 L236.3759,28.2969 L622.32,28.2969 A2.5,2.5 0 0 1 624.82,30.7969 L624.82,319.5 A2.5,2.5 0 0 1 622.32,322 L169.37,322 A2.5,2.5 0 0 1 166.87,319.5 L166.87,8.5 A2.5,2.5 0 0 1 169.37,6" fill="none" style="stroke:#000000;stroke-width:1.5;"/><line style="stroke:#000000;stroke-width:1.5;" x1="166.87" x2="236.3759" y1="28.2969" y2="28.2969"/><text fill="#000000" font-family="sans-serif" font-size="14" font-weight="700" lengthAdjust="spacing" textLength="56.5059" x="170.87" y="20.9951">Alertas</text></g><!--entity CU01--><g class="entity" data-qualified-name="Leaderboard.CU01" data-source-line="8" id="ent0006"><ellipse cx="228.3379" cy="416.0045" fill="#F1F1F1" rx="57.7979" ry="34.5145" style="stroke:#181818;stroke-width:0.5;"/><text fill="#000000" font-family="sans-serif" font-size="14" lengthAdjust="spacing" textLength="42.8887" x="206.8935" y="399.8002">CU-01</text><text fill="#000000" font-family="sans-serif" font-size="14" lengthAdjust="spacing" textLength="67.0947" x="194.7905" y="416.0971">Consultar</text><text fill="#000000" font-family="sans-serif" font-size="14" lengthAdjust="spacing" textLength="85.0117" x="185.832" y="432.394">leaderboard</text></g><!--entity CU02--><g class="entity" data-qualified-name="Entidades.CU02" data-source-line="12" id="ent0008"><ellipse cx="553.48" cy="470.998" fill="#F1F1F1" rx="42.01" ry="34.208" style="stroke:#181818;stroke-width:0.5;"/><text fill="#000000" font-family="sans-serif" font-size="14" lengthAdjust="spacing" textLength="42.8887" x="532.0356" y="457.7252">CU-02</text><text fill="#000000" font-family="sans-serif" font-size="14" lengthAdjust="spacing" textLength="38.4795" x="534.2402" y="474.0221">Crear</text><text fill="#000000" font-family="sans-serif" font-size="14" lengthAdjust="spacing" textLength="53.2178" x="526.8711" y="490.3189">entidad</text></g><!--entity CU03--><g class="entity" data-qualified-name="Entidades.CU03" data-source-line="13" id="ent0009"><ellipse cx="553.4772" cy="575.0036" fill="#F1F1F1" rx="48.2772" ry="35.0236" style="stroke:#181818;stroke-width:0.5;"/><text fill="#000000" font-family="sans-serif" font-size="14" lengthAdjust="spacing" textLength="42.8887" x="532.0328" y="559.5964">CU-03</text><text fill="#000000" font-family="sans-serif" font-size="14" lengthAdjust="spacing" textLength="67.9082" x="519.5231" y="575.8933">Gestionar</text><text fill="#000000" font-family="sans-serif" font-size="14" lengthAdjust="spacing" textLength="69.125" x="518.9147" y="592.1902">entidades</text></g><!--entity CU04--><g class="entity" data-qualified-name="Alertas.CU04" data-source-line="17" id="ent0011"><ellipse cx="228.3417" cy="275.0049" fill="#F1F1F1" rx="45.4717" ry="31.1049" style="stroke:#181818;stroke-width:0.5;"/><text fill="#000000" font-family="sans-serif" font-size="14" lengthAdjust="spacing" textLength="42.8887" x="206.8973" y="263.5424">CU-04</text><text fill="#000000" font-family="sans-serif" font-size="14" lengthAdjust="spacing" textLength="73.8828" x="191.4002" y="279.8393">Configurar</text><text fill="#000000" font-family="sans-serif" font-size="14" lengthAdjust="spacing" textLength="40.9063" x="207.8885" y="296.1361">alerta</text></g><!--entity CU05--><g class="entity" data-qualified-name="Alertas.CU05" data-source-line="18" id="ent0012"><ellipse cx="228.3447" cy="175.9966" fill="#F1F1F1" rx="43.9147" ry="32.4566" style="stroke:#181818;stroke-width:0.5;"/><text fill="#000000" font-family="sans-serif" font-size="14" lengthAdjust="spacing" textLength="42.8887" x="206.9003" y="163.707">CU-05</text><text fill="#000000" font-family="sans-serif" font-size="14" lengthAdjust="spacing" textLength="67.9082" x="194.3906" y="180.0039">Gestionar</text><text fill="#000000" font-family="sans-serif" font-size="14" lengthAdjust="spacing" textLength="48.2002" x="204.2446" y="196.3007">alertas</text></g><!--entity CU06--><g class="entity" data-qualified-name="Alertas.CU06" data-source-line="19" id="ent0013"><ellipse cx="228.3448" cy="74.9958" fill="#F1F1F1" rx="41.1448" ry="33.5158" style="stroke:#181818;stroke-width:0.5;"/><text fill="#000000" font-family="sans-serif" font-size="14" lengthAdjust="spacing" textLength="42.8887" x="206.9005" y="62.5557">CU-06</text><text fill="#000000" font-family="sans-serif" font-size="14" lengthAdjust="spacing" textLength="52.8076" x="201.941" y="78.8526">Evaluar</text><text fill="#000000" font-family="sans-serif" font-size="14" lengthAdjust="spacing" textLength="48.2002" x="204.2447" y="95.1495">alertas</text></g><!--entity CU07--><g class="entity" data-qualified-name="Alertas.CU07" data-source-line="20" id="ent0014"><ellipse cx="553.4798" cy="75.9961" fill="#F1F1F1" rx="55.3398" ry="34.6161" style="stroke:#181818;stroke-width:0.5;"/><text fill="#000000" font-family="sans-serif" font-size="14" lengthAdjust="spacing" textLength="42.8887" x="532.0355" y="59.9523">CU-07</text><text fill="#000000" font-family="sans-serif" font-size="14" lengthAdjust="spacing" textLength="44.2285" x="531.3655" y="76.2492">Enviar</text><text fill="#000000" font-family="sans-serif" font-size="14" lengthAdjust="spacing" textLength="80.9375" x="513.0111" y="92.5461">notificacion</text></g><!--entity U--><g class="entity" data-qualified-name="U" data-source-line="3" id="ent0002"><ellipse cx="56.7721" cy="386.35" fill="#F1F1F1" rx="8" ry="8" style="stroke:#181818;stroke-width:0.5;"/><path d="M56.7721,394.35 L56.7721,421.35 M43.7721,402.35 L69.7721,402.35 M56.7721,421.35 L43.7721,436.35 M56.7721,421.35 L69.7721,436.35" fill="none" style="stroke:#181818;stroke-width:0.5;"/><text fill="#000000" font-family="sans-serif" font-size="14" lengthAdjust="spacing" textLength="53.2041" x="30.17" y="450.8451">Usuario</text></g><!--entity HL--><g class="entity" data-qualified-name="HL" data-source-line="4" id="ent0003"><ellipse cx="56.7705" cy="219.35" fill="#F1F1F1" rx="8" ry="8" style="stroke:#181818;stroke-width:0.5;"/><path d="M56.7705,227.35 L56.7705,254.35 M43.7705,235.35 L69.7705,235.35 M56.7705,254.35 L43.7705,269.35 M56.7705,254.35 L69.7705,269.35" fill="none" style="stroke:#181818;stroke-width:0.5;"/><text fill="#000000" font-family="sans-serif" font-size="14" lengthAdjust="spacing" textLength="101.541" x="6" y="283.8451">Hyperliquid L1</text></g><!--entity SW--><g class="entity" data-qualified-name="SW" data-source-line="5" id="ent0004"><ellipse cx="734.5637" cy="46.35" fill="#F1F1F1" rx="8" ry="8" style="stroke:#181818;stroke-width:0.5;"/><path d="M734.5637,54.35 L734.5637,81.35 M721.5637,62.35 L747.5637,62.35 M734.5637,81.35 L721.5637,96.35 M734.5637,81.35 L747.5637,96.35" fill="none" style="stroke:#181818;stroke-width:0.5;"/><text fill="#000000" font-family="sans-serif" font-size="14" lengthAdjust="spacing" textLength="125.4873" x="671.82" y="110.8451">Servicio Webhook</text></g><!--link U to CU01--><g class="link" data-entity-1="ent0002" data-entity-2="ent0006" data-link-type="dependency" data-source-line="23" id="lnk15"><path d="M83.52,416 C106.5,416 134.96,416 164.39,416" fill="none" id="U-to-CU01" style="stroke:#181818;stroke-width:1;"/><polygon fill="#181818" points="170.39,416,161.39,412,165.39,416,161.39,420,170.39,416" style="stroke:#181818;stroke-width:1;"/></g><!--link U to CU02--><g class="link" data-entity-1="ent0002" data-entity-2="ent0008" data-link-type="dependency" data-source-line="24" id="lnk16"><path d="M83.76,435.71 C100.66,447.27 123.73,460.79 146.54,467 C276.09,502.25 431.6736,488.05 505.8536,478.07" fill="none" id="U-to-CU02" style="stroke:#181818;stroke-width:1;"/><polygon fill="#181818" points="511.8,477.27,502.347,474.5057,506.8446,477.9367,503.4137,482.4343,511.8,477.27" style="stroke:#181818;stroke-width:1;"/></g><!--link U to CU03--><g class="link" data-entity-1="ent0002" data-entity-2="ent0009" data-link-type="dependency" data-source-line="25" id="lnk17"><path d="M83.87,447.12 C100.13,464.46 122.48,484.94 146.54,497 C265.86,556.83 420.095,570.6447 498.795,573.8647" fill="none" id="U-to-CU03" style="stroke:#181818;stroke-width:1;"/><polygon fill="#181818" points="504.79,574.11,495.961,569.7454,499.7942,573.9056,495.634,577.7387,504.79,574.11" style="stroke:#181818;stroke-width:1;"/></g><!--link U to CU04--><g class="link" data-entity-1="ent0002" data-entity-2="ent0011" data-link-type="dependency" data-source-line="26" id="lnk18"><path d="M83.52,394.59 C114.47,368.85 161.6262,329.6358 193.8862,302.8158" fill="none" id="U-to-CU04" style="stroke:#181818;stroke-width:1;"/><polygon fill="#181818" points="198.5,298.98,189.0222,301.6578,194.6552,302.1765,194.1365,307.8095,198.5,298.98" style="stroke:#181818;stroke-width:1;"/></g><!--link U to CU05--><g class="link" data-entity-1="ent0002" data-entity-2="ent0012" data-link-type="dependency" data-source-line="27" id="lnk19"><path d="M74.96,377.77 C99.19,324.08 141.08,232.14 146.54,226 C158.71,212.32 170.2625,203.9911 185.3925,195.6711" fill="none" id="U-to-CU05" style="stroke:#181818;stroke-width:1;"/><polygon fill="#181818" points="190.65,192.78,180.8363,193.6117,186.2687,195.1893,184.6911,200.6217,190.65,192.78" style="stroke:#181818;stroke-width:1;"/></g><!--link HL to CU01--><g class="link" data-entity-1="ent0003" data-entity-2="ent0006" data-link-type="dependency" data-source-line="29" id="lnk20"><path d="M96.67,287.31 C127.28,317.45 165.0247,354.6303 193.0647,382.2403" fill="none" id="HL-to-CU01" style="stroke:#181818;stroke-width:1;"/><polygon fill="#181818" points="197.34,386.45,193.7335,377.2852,193.7773,382.9419,188.1206,382.9856,197.34,386.45" style="stroke:#181818;stroke-width:1;"/></g><!--link HL to CU06--><g class="link" data-entity-1="ent0003" data-entity-2="ent0013" data-link-type="dependency" data-source-line="30" id="lnk21"><path d="M80.08,210.56 C96.33,184.69 120.06,150.89 146.54,126 C160.32,113.05 172.6581,104.5273 187.8681,95.7173" fill="none" id="HL-to-CU06" style="stroke:#181818;stroke-width:1;"/><polygon fill="#181818" points="193.06,92.71,183.2672,93.7597,188.7334,95.2161,187.277,100.6822,193.06,92.71" style="stroke:#181818;stroke-width:1;"/></g><!--link CU07 to SW--><g class="link" data-entity-1="ent0014" data-entity-2="ent0004" data-link-type="dependency" data-source-line="32" id="lnk22"><path d="M609.18,76 C628.83,76 645.12,76 665.36,76" fill="none" id="CU07-to-SW" style="stroke:#181818;stroke-width:1;"/><polygon fill="#181818" points="671.36,76,662.36,72,666.36,76,662.36,80,671.36,76" style="stroke:#181818;stroke-width:1;"/></g><!--link CU01 to CU02--><g class="link" data-entity-1="ent0006" data-entity-2="ent0008" data-link-type="dependency" data-source-line="34" id="lnk23"><path d="M284.15,425.33 C348.8,436.33 448.7951,453.3533 506.3151,463.1433" fill="none" id="CU01-to-CU02" style="stroke:#181818;stroke-width:1;stroke-dasharray:7,7;"/><polygon fill="#181818" points="512.23,464.15,504.0287,458.6966,507.3009,463.3111,502.6864,466.5832,512.23,464.15" style="stroke:#181818;stroke-width:1;"/><text fill="#000000" font-family="sans-serif" font-size="13" lengthAdjust="spacing" textLength="61.1851" x="362.8531" y="414.0669">&#171;extend&#187;</text><text fill="#000000" font-family="sans-serif" font-size="13" lengthAdjust="spacing" textLength="148.6113" x="319.14" y="429.1997">resolucion de nombres</text></g><!--link CU06 to CU07--><g class="link" data-entity-1="ent0013" data-entity-2="ent0014" data-link-type="dependency" data-source-line="35" id="lnk24"><path d="M269.94,75.13 C327.57,75.3 427.25,75.6114 491.75,75.8114" fill="none" id="CU06-to-CU07" style="stroke:#181818;stroke-width:1;stroke-dasharray:7,7;"/><polygon fill="#181818" points="497.75,75.83,488.7624,71.8021,492.75,75.8145,488.7376,79.8021,497.75,75.83" style="stroke:#181818;stroke-width:1;"/><text fill="#000000" font-family="sans-serif" font-size="13" lengthAdjust="spacing" textLength="63.0068" x="361.64" y="72.0669">&#171;include&#187;</text></g><?plantuml-src RP7BQiCm44Nt-eh1-uGy7IZ5K49e5ju5auqtYZL9XgXIgaTeAVttIZQg4vFTbURC6Jqa7Xqu3OPEPmU233QEj6ACDquRo2hhkI6T0RTGfStjznMDf4zF0iffMzkMgRX3SwE6DEpnSDRwqfPtUyQklBdm4q9M8XTe3feRaS4F0_0M6sv3PLsD9jDQhRMoNZfkQYNlsI1QLvCf-xsJRPGZ4HZxH3KBAeDHWnsL5BCXEQ_LEzfuypiwEZj-_Z3oJQ9n_Dd0HNls8vsyYHxUWaco6DBBXw4yMJjwEQJpMcrkNFedR3vaLu5LDugeqewErF3m8ohngtYT2aQZedlF_pZhuxoFYpuk6TkMVMEVSyQYk5t6puvb68yxAxp0woj-ELIYA6fbq6hfuu5082ZzSGWxiIDF7QksWrGZlS2Y-0C0?></g></svg>