<svg xmlns="http://www.w3.org/2000/svg" xmlns:xlink="http://www.w3.org/1999/xlink" contentStyleType="text/css" data-diagram-type="DESCRIPTION" height="608px" preserveAspectRatio="none" style="width:890px;height:608px;background:#FFFFFF;" version="1.1" viewBox="0 0 890 608" width="890px" zoomAndPan="magnify"><?plantuml 1.2026.3beta6?><defs/><g><!--cluster Sistema--><g class="cluster" data-qualified-name="Sistema" data-source-line="7" id="ent0005"><path d="M157.04,6 L221.4775,6 A3.75,3.75 0 0 1 223.9775,8.5 L230.9775,28.2969 L700.64,28.2969 A2.5,2.5 0 0 1 703.14,30.7969 L703.14,590.5 A2.5,2.5 0 0 1 700.64,593 L157.04,593 A2.5,2.5 0 0 1 154.54,590.5 L154.54,8.5 A2.5,2.5 0 0 1 157.04,6" fill="none" style="stroke:#000000;stroke-width:1.5;"/><line style="stroke:#000000;stroke-width:1.5;" x1="154.54" x2="230.9775" y1="28.2969" y2="28.2969"/><text fill="#000000" font-family="sans-serif" font-size="14" font-weight="700" lengthAdjust="spacing" textLength="63.4375" x="158.54" y="20.9951">Sistema</text></g><!--cluster Leaderboard--><g class="cluster" data-qualified-name="Sistema.Leaderboard" data-source-line="8" id="ent0006"><path d="M181.04,229 L282.3369,229 A3.75,3.75 0 0 1 284.8369,231.5 L291.8369,251.2969 L390.53,251.2969 A2.5,2.5 0 0 1 393.03,253.7969 L393.03,319.5 A2.5,2.5 0 0 1 390.53,322 L181.04,322 A2.5,2.5 0 0 1 178.54,319.5 L178.54,231.5 A2.5,2.5 0 0 1 181.04,229" fill="none" style="stroke:#000000;stroke-width:1.5;"/><line style="stroke:#000000;stroke-width:1.5;" x1="178.54" x2="291.8369" y1="251.2969" y2="251.2969"/><text fill="#000000" font-family="sans-serif" font-size="14" font-weight="700" lengthAdjust="spacing" textLength="100.2969" x="182.54" y="243.9951">Leaderboard</text></g><!--cluster Entidades--><g class="cluster" data-qualified-name="Sistema.Entidades" data-source-line="12" id="ent0008"><path d="M187.65,49 L266.9898,49 A3.75,3.75 0 0 1 269.4898,51.5 L276.4898,71.2969 L383.92,71.2969 A2.5,2.5 0 0 1 386.42,73.7969 L386.42,202.5 A2.5,2.5 0 0 1 383.92,205 L187.65,205 A2.5,2.5 0 0 1 185.15,202.5 L185.15,51.5 A2.5,2.5 0 0 1 187.65,49" fill="none" style="stroke:#000000;stroke-width:1.5;"/><line style="stroke:#000000;stroke-width:1.5;" x1="185.15" x2="276.4898" y1="71.2969" y2="71.2969"/><text fill="#000000" font-family="sans-serif" font-size="14" font-weight="700" lengthAdjust="spacing" textLength="78.3398" x="189.15" y="63.9951">Entidades</text></g><!--cluster Alertas--><g class="cluster" data-qualified-name="Sistema.Alertas" data-source-line="17" id="ent0011"><path d="M196.53,346 L254.0359,346 A3.75,3.75 0 0 1 256.5359,348.5 L263.5359,368.2969 L676.64,368.2969 A2.5,2.5 0 0 1 679.14,370.7969 L679.14,566.5 A2.5,2.5 0 0 1 676.64,569 L196.53,569 A2.5,2.5 0 0 1 194.03,566.5 L194.03,348.5 A2.5,2.5 0 0 1 196.53,346" fill="none" style="stroke:#000000;stroke-width:1.5;"/><line style="stroke:#000000;stroke-width:1.5;" x1="194.03" x2="263.5359" y1="368.2969" y2="368.2969"/><text fill="#000000" font-family="sans-serif" font-size="14" font-weight="700" lengthAdjust="spacing" textLength="56.5059" x="198.03" y="360.9951">Alertas</text></g><!--entity CU01--><g class="entity" data-qualified-name="Sistema.Leaderboard.CU01" data-source-line="9" id="ent0007"><ellipse cx="285.7864" cy="284.9993" fill="#F1F1F1" rx="91.2464" ry="20.6493" style="stroke:#181818;stroke-width:0.5;"/><text fill="#000000" font-family="sans-serif" font-size="14" lengthAdjust="spacing" textLength="156.5566" x="207.508" y="289.6477">Consultar leaderboard</text></g><!--entity CU02--><g class="entity" data-qualified-name="Sistema.Entidades.CU02" data-source-line="13" id="ent0009"><ellipse cx="285.7859" cy="100.0032" fill="#F1F1F1" rx="66.0159" ry="15.6032" style="stroke:#181818;stroke-width:0.5;"/><text fill="#000000" font-family="sans-serif" font-size="14" lengthAdjust="spacing" textLength="96.1475" x="237.7122" y="104.6516">Crear entidad</text></g><!--entity CU03--><g class="entity" data-qualified-name="Sistema.Entidades.CU03" data-source-line="14" id="ent0010"><ellipse cx="285.7852" cy="169.997" fill="#F1F1F1" rx="84.6352" ry="19.327" style="stroke:#181818;stroke-width:0.5;"/><text fill="#000000" font-family="sans-serif" font-size="14" lengthAdjust="spacing" textLength="141.4834" x="215.0435" y="174.6455">Gestionar entidades</text></g><!--entity CU04--><g class="entity" data-qualified-name="Sistema.Alertas.CU04" data-source-line="18" id="ent0012"><ellipse cx="285.791" cy="398.0022" fill="#F1F1F1" rx="75.211" ry="17.4422" style="stroke:#181818;stroke-width:0.5;"/><text fill="#000000" font-family="sans-serif" font-size="14" lengthAdjust="spacing" textLength="119.2393" x="226.1714" y="402.6506">Configurar alerta</text></g><!--entity CU05--><g class="entity" data-qualified-name="Sistema.Alertas.CU05" data-source-line="19" id="ent0013"><ellipse cx="285.7866" cy="468.0013" fill="#F1F1F1" rx="75.7566" ry="17.5513" style="stroke:#181818;stroke-width:0.5;"/><text fill="#000000" font-family="sans-serif" font-size="14" lengthAdjust="spacing" textLength="120.5586" x="225.5073" y="472.6498">Gestionar alertas</text></g><!--entity CU06--><g class="entity" data-qualified-name="Sistema.Alertas.CU06" data-source-line="20" id="ent0014"><ellipse cx="285.7854" cy="536.9971" fill="#F1F1F1" rx="69.6354" ry="16.3271" style="stroke:#181818;stroke-width:0.5;"/><text fill="#000000" font-family="sans-serif" font-size="14" lengthAdjust="spacing" textLength="105.458" x="233.0564" y="541.6455">Evaluar alertas</text></g><!--entity CU07--><g class="entity" data-qualified-name="Sistema.Alertas.CU07" data-source-line="21" id="ent0015"><ellipse cx="583.5807" cy="518.0001" fill="#F1F1F1" rx="79.5507" ry="18.3101" style="stroke:#181818;stroke-width:0.5;"/><text fill="#000000" font-family="sans-serif" font-size="14" lengthAdjust="spacing" textLength="129.6162" x="518.7726" y="522.6486">Enviar notificacion</text></g><!--entity U--><g class="entity" data-qualified-name="U" data-source-line="3" id="ent0002"><ellipse cx="56.7721" cy="255.35" fill="#F1F1F1" rx="8" ry="8" style="stroke:#181818;stroke-width:0.5;"/><path d="M56.7721,263.35 L56.7721,290.35 M43.7721,271.35 L69.7721,271.35 M56.7721,290.35 L43.7721,305.35 M56.7721,290.35 L69.7721,305.35" fill="none" style="stroke:#181818;stroke-width:0.5;"/><text fill="#000000" font-family="sans-serif" font-size="14" lengthAdjust="spacing" textLength="53.2041" x="30.17" y="319.8451">Usuario</text></g><!--entity HL--><g class="entity" data-qualified-name="HL" data-source-line="4" id="ent0003"><ellipse cx="56.7705" cy="444.35" fill="#F1F1F1" rx="8" ry="8" style="stroke:#181818;stroke-width:0.5;"/><path d="M56.7705,452.35 L56.7705,479.35 M43.7705,460.35 L69.7705,460.35 M56.7705,479.35 L43.7705,494.35 M56.7705,479.35 L69.7705,494.35" fill="none" style="stroke:#181818;stroke-width:0.5;"/><text fill="#000000" font-family="sans-serif" font-size="14" lengthAdjust="spacing" textLength="101.541" x="6" y="508.8451">Hyperliquid L1</text></g><!--entity SW--><g class="entity" data-qualified-name="SW" data-source-line="5" id="ent0004"><ellipse cx="812.8837" cy="488.35" fill="#F1F1F1" rx="8" ry="8" style="stroke:#181818;stroke-width:0.5;"/><path d="M812.8837,496.35 L812.8837,523.35 M799.8837,504.35 L825.8837,504.35 M812.8837,523.35 L799.8837,538.35 M812.8837,523.35 L825.8837,538.35" fill="none" style="stroke:#181818;stroke-width:0.5;"/><text fill="#000000" font-family="sans-serif" font-size="14" lengthAdjust="spacing" textLength="125.4873" x="750.14" y="552.8451">Servicio Webhook</text></g><!--link U to CU01--><g class="link" data-entity-1="ent0002" data-entity-2="ent0007" data-link-type="dependency" data-source-line="25" id="lnk16"><path d="M83.81,285 C110.77,285 148.44,285 188.2,285" fill="none" id="U-to-CU01" style="stroke:#181818;stroke-width:1;"/><polygon fill="#181818" points="194.2,285,185.2,281,189.2,285,185.2,289,194.2,285" style="stroke:#181818;stroke-width:1;"/></g><!--link U to CU02--><g class="link" data-entity-1="ent0002" data-entity-2="ent0009" data-link-type="dependency" data-source-line="26" id="lnk17"><path d="M70.3,246.54 C83.66,211.63 108.25,161.4 146.54,133 C168.14,116.98 190.4949,109.6161 215.8349,105.3061" fill="none" id="U-to-CU02" style="stroke:#181818;stroke-width:1;"/><polygon fill="#181818" points="221.75,104.3,212.2067,101.8657,216.8208,105.1384,213.5481,109.7525,221.75,104.3" style="stroke:#181818;stroke-width:1;"/></g><!--link U to CU03--><g class="link" data-entity-1="ent0002" data-entity-2="ent0010" data-link-type="dependency" data-source-line="27" id="lnk18"><path d="M83.81,271.81 C124.69,251.1 198.6175,213.6513 244.4375,190.4413" fill="none" id="U-to-CU03" style="stroke:#181818;stroke-width:1;"/><polygon fill="#181818" points="249.79,187.73,239.9538,188.2286,245.3296,189.9894,243.5688,195.3652,249.79,187.73" style="stroke:#181818;stroke-width:1;"/></g><!--link U to CU04--><g class="link" data-entity-1="ent0002" data-entity-2="ent0012" data-link-type="dependency" data-source-line="28" id="lnk19"><path d="M83.81,297.96 C125.51,318.72 201.7787,356.6862 247.1187,379.2562" fill="none" id="U-to-CU04" style="stroke:#181818;stroke-width:1;"/><polygon fill="#181818" points="252.49,381.93,246.2156,374.3384,248.0139,379.7018,242.6505,381.5002,252.49,381.93" style="stroke:#181818;stroke-width:1;"/></g><!--link U to CU05--><g class="link" data-entity-1="ent0002" data-entity-2="ent0013" data-link-type="dependency" data-source-line="29" id="lnk20"><path d="M71.05,323.32 C84.75,357.19 109.39,405.38 146.54,433 C166.31,447.7 185.7295,455.02 209.2595,459.99" fill="none" id="U-to-CU05" style="stroke:#181818;stroke-width:1;"/><polygon fill="#181818" points="215.13,461.23,207.1509,455.4564,210.2379,460.1967,205.4976,463.2837,215.13,461.23" style="stroke:#181818;stroke-width:1;"/></g><!--link HL to CU01--><g class="link" data-entity-1="ent0003" data-entity-2="ent0007" data-link-type="dependency" data-source-line="31" id="lnk21"><path d="M83.76,435.48 C100.06,413.16 122.49,385.5 146.54,365 C176.19,339.72 209.5675,320.7714 238.4875,306.3914" fill="none" id="HL-to-CU01" style="stroke:#181818;stroke-width:1;"/><polygon fill="#181818" points="243.86,303.72,234.0203,304.1454,239.3829,305.9462,237.5822,311.3087,243.86,303.72" style="stroke:#181818;stroke-width:1;"/></g><!--link HL to CU06--><g class="link" data-entity-1="ent0003" data-entity-2="ent0014" data-link-type="dependency" data-source-line="32" id="lnk22"><path d="M107.8,491.07 C120.39,495.16 133.91,499.39 146.54,503 C175.53,511.29 202.4505,518.0216 228.8005,524.2416" fill="none" id="HL-to-CU06" style="stroke:#181818;stroke-width:1;"/><polygon fill="#181818" points="234.64,525.62,226.7997,519.6593,229.7737,524.4713,224.9618,527.4454,234.64,525.62" style="stroke:#181818;stroke-width:1;"/></g><!--link CU07 to SW--><g class="link" data-entity-1="ent0015" data-entity-2="ent0004" data-link-type="dependency" data-source-line="34" id="lnk23"><path d="M663.44,518 C691.78,518 717.31,518 744,518" fill="none" id="CU07-to-SW" style="stroke:#181818;stroke-width:1;"/><polygon fill="#181818" points="750,518,741,514,745,518,741,522,750,518" style="stroke:#181818;stroke-width:1;"/></g><!--link CU06 to CU07--><g class="link" data-entity-1="ent0014" data-entity-2="ent0015" data-link-type="dependency" data-source-line="36" id="lnk24"><path d="M353.54,532.71 C398.95,529.8 453.1524,526.315 500.4324,523.275" fill="none" id="CU06-to-CU07" style="stroke:#181818;stroke-width:1;stroke-dasharray:7,7;"/><polygon fill="#181818" points="506.42,522.89,497.1819,519.4757,501.4303,523.2108,497.6952,527.4592,506.42,522.89" style="stroke:#181818;stroke-width:1;"/><text fill="#000000" font-family="sans-serif" font-size="13" lengthAdjust="spacing" textLength="63.0068" x="410.03" y="522.0669">&#171;include&#187;</text></g><?plantuml-src TP5DQy9048Rl-oi6xqhzXY814Qc7t2Hu7ZUJEBZTjViXbDB_tat26gtjxSsyJvuTTXLL7hm1o_N9GycMf6UZXK3fZOL1uG9QDWD01qKQxZulP1L_12uX7xVTBa_bdkoL9HiuqF5apBcjzmSXBYZFM5Cas7bwnm5y2O3RD2SioHuDsh9h088ZYIvs6wDTK1ujg7igYZV5opYot-9UjTMUoyYvPv6bAA6kJuB98_D6hhc2dciy7JbzEcgjo7fqVsrSSHrij62B9CNilyCmcJfk_iXjhwZ2CxNuHUahHqWRpnLBZA-W4xbiLu_B5p0SPjsztUAaZzC-pleu5sANzp_sUI548sy_cqTkHZ0QjTqINc6rOYrLA2dBVW00?></g></svg>