<?plantuml 1.2026.1?><svg xmlns="http://www.w3.org/2000/svg" xmlns:xlink="http://www.w3.org/1999/xlink" contentStyleType="text/css" data-diagram-type="DESCRIPTION" height="879px" preserveAspectRatio="none" style="width:1034px;height:879px;background:#FFFFFF;" version="1.1" viewBox="0 0 1034 879" width="1034px" zoomAndPan="magnify"><defs/><g><!--cluster Sistema--><g class="cluster" data-qualified-name="Sistema" data-source-line="8" id="ent0005"><rect fill="none" height="667" rx="2.5" ry="2.5" style="stroke:#181818;stroke-width:1;" width="874.33" x="154.54" y="115.36"/><text fill="#000000" font-family="sans-serif" font-size="14" font-weight="bold" lengthAdjust="spacing" textLength="63.4375" x="559.9862" y="130.3551">Sistema</text></g><!--entity UC01--><g class="entity" data-qualified-name="Sistema.UC01" data-source-line="9" id="ent0006"><ellipse cx="278.6561" cy="420.356" fill="#F1F1F1" rx="101.7361" ry="23.556" style="stroke:#181818;stroke-width:0.5;"/><text fill="#000000" font-family="sans-serif" font-size="14" lengthAdjust="spacing" textLength="42.8887" x="257.2118" y="413.0876">CU-01</text><text fill="#000000" font-family="sans-serif" font-size="14" lengthAdjust="spacing" textLength="156.5566" x="200.3778" y="429.3844">Consultar leaderboard</text></g><!--entity UC02--><g class="entity" data-qualified-name="Sistema.UC02" data-source-line="11" id="ent0007"><ellipse cx="278.6568" cy="174.3576" fill="#F1F1F1" rx="64.5568" ry="23.8676" style="stroke:#181818;stroke-width:0.5;"/><text fill="#000000" font-family="sans-serif" font-size="14" lengthAdjust="spacing" textLength="42.8887" x="257.2124" y="167.5941">CU-02</text><text fill="#000000" font-family="sans-serif" font-size="14" lengthAdjust="spacing" textLength="96.1475" x="230.583" y="183.8909">Crear entidad</text></g><!--entity UC03--><g class="entity" data-qualified-name="Sistema.UC03" data-source-line="12" id="ent0008"><ellipse cx="941.4057" cy="256.3571" fill="#F1F1F1" rx="71.4557" ry="23.7671" style="stroke:#181818;stroke-width:0.5;"/><text fill="#000000" font-family="sans-serif" font-size="14" lengthAdjust="spacing" textLength="42.8887" x="919.9614" y="249.4321">CU-03</text><text fill="#000000" font-family="sans-serif" font-size="14" lengthAdjust="spacing" textLength="107.4404" x="887.6855" y="265.729">Abrir entidades</text></g><!--entity UC04--><g class="entity" data-qualified-name="Sistema.UC04" data-source-line="13" id="ent0009"><ellipse cx="643.3555" cy="421.3578" fill="#F1F1F1" rx="66.3655" ry="23.8378" style="stroke:#181818;stroke-width:0.5;"/><text fill="#000000" font-family="sans-serif" font-size="14" lengthAdjust="spacing" textLength="42.8887" x="621.9112" y="414.5464">CU-04</text><text fill="#000000" font-family="sans-serif" font-size="14" lengthAdjust="spacing" textLength="99.1143" x="593.7984" y="430.8433">Editar entidad</text></g><!--entity UC05--><g class="entity" data-qualified-name="Sistema.UC05" data-source-line="14" id="ent0010"><ellipse cx="643.3595" cy="338.3559" fill="#F1F1F1" rx="76.1095" ry="23.7159" style="stroke:#181818;stroke-width:0.5;"/><text fill="#000000" font-family="sans-serif" font-size="14" lengthAdjust="spacing" textLength="42.8887" x="621.9152" y="331.3481">CU-05</text><text fill="#000000" font-family="sans-serif" font-size="14" lengthAdjust="spacing" textLength="115.0283" x="585.8454" y="347.6449">Eliminar entidad</text></g><!--entity UC06--><g class="entity" data-qualified-name="Sistema.UC06" data-source-line="16" id="ent0011"><ellipse cx="643.3644" cy="256.363" fill="#F1F1F1" rx="75.4044" ry="23.723" style="stroke:#181818;stroke-width:0.5;"/><text fill="#000000" font-family="sans-serif" font-size="14" lengthAdjust="spacing" textLength="42.8887" x="621.92" y="249.3666">CU-06</text><text fill="#000000" font-family="sans-serif" font-size="14" lengthAdjust="spacing" textLength="113.8799" x="586.4244" y="265.6635">A&#241;adir direcci&#243;n</text></g><!--entity UC07--><g class="entity" data-qualified-name="Sistema.UC07" data-source-line="17" id="ent0012"><ellipse cx="643.3612" cy="174.358" fill="#F1F1F1" rx="77.9912" ry="23.698" style="stroke:#181818;stroke-width:0.5;"/><text fill="#000000" font-family="sans-serif" font-size="14" lengthAdjust="spacing" textLength="42.8887" x="621.9168" y="167.3212">CU-07</text><text fill="#000000" font-family="sans-serif" font-size="14" lengthAdjust="spacing" textLength="118.0908" x="584.3158" y="183.6181">Abrir direcciones</text></g><!--entity UC08--><g class="entity" data-qualified-name="Sistema.UC08" data-source-line="18" id="ent0013"><ellipse cx="278.6603" cy="338.3593" fill="#F1F1F1" rx="82.6603" ry="23.6593" style="stroke:#181818;stroke-width:0.5;"/><text fill="#000000" font-family="sans-serif" font-size="14" lengthAdjust="spacing" textLength="42.8887" x="257.216" y="331.2595">CU-08</text><text fill="#000000" font-family="sans-serif" font-size="14" lengthAdjust="spacing" textLength="125.6787" x="215.821" y="347.5564">Eliminar direcci&#243;n</text></g><!--entity UC09--><g class="entity" data-qualified-name="Sistema.UC09" data-source-line="20" id="ent0014"><ellipse cx="278.6631" cy="256.3631" fill="#F1F1F1" rx="99.9331" ry="23.5631" style="stroke:#181818;stroke-width:0.5;"/><text fill="#000000" font-family="sans-serif" font-size="14" lengthAdjust="spacing" textLength="42.8887" x="257.2188" y="249.1064">CU-09</text><text fill="#000000" font-family="sans-serif" font-size="14" lengthAdjust="spacing" textLength="153.6445" x="201.8409" y="265.4033">Crear alerta de precio</text></g><!--entity UC10--><g class="entity" data-qualified-name="Sistema.UC10" data-source-line="21" id="ent0015"><ellipse cx="643.3622" cy="503.3566" fill="#F1F1F1" rx="101.5922" ry="23.5566" style="stroke:#181818;stroke-width:0.5;"/><text fill="#000000" font-family="sans-serif" font-size="14" lengthAdjust="spacing" textLength="42.8887" x="621.9178" y="496.089">CU-10</text><text fill="#000000" font-family="sans-serif" font-size="14" lengthAdjust="spacing" textLength="156.3242" x="565.2001" y="512.3859">Abrir alertas de precio</text></g><!--entity UC11--><g class="entity" data-qualified-name="Sistema.UC11" data-source-line="22" id="ent0016"><ellipse cx="278.66" cy="502.3559" fill="#F1F1F1" rx="101.77" ry="23.5559" style="stroke:#181818;stroke-width:0.5;"/><text fill="#000000" font-family="sans-serif" font-size="14" lengthAdjust="spacing" textLength="42.8887" x="257.2156" y="495.0872">CU-11</text><text fill="#000000" font-family="sans-serif" font-size="14" lengthAdjust="spacing" textLength="156.6113" x="200.3543" y="511.3841">Editar alerta de precio</text></g><!--entity UC12--><g class="entity" data-qualified-name="Sistema.UC12" data-source-line="23" id="ent0017"><ellipse cx="278.6645" cy="585.3629" fill="#F1F1F1" rx="108.1145" ry="24.0229" style="stroke:#181818;stroke-width:0.5;"/><text fill="#000000" font-family="sans-serif" font-size="14" lengthAdjust="spacing" textLength="42.8887" x="257.2201" y="577.579">CU-12</text><text fill="#000000" font-family="sans-serif" font-size="14" lengthAdjust="spacing" textLength="172.5254" x="192.4018" y="593.8759">Eliminar alerta de precio</text></g><!--entity UC13--><g class="entity" data-qualified-name="Sistema.UC13" data-source-line="25" id="ent0018"><ellipse cx="278.6564" cy="668.3587" fill="#F1F1F1" rx="103.6964" ry="23.5487" style="stroke:#181818;stroke-width:0.5;"/><text fill="#000000" font-family="sans-serif" font-size="14" lengthAdjust="spacing" textLength="42.8887" x="257.212" y="661.0782">CU-13</text><text fill="#000000" font-family="sans-serif" font-size="14" lengthAdjust="spacing" textLength="159.7217" x="198.7955" y="677.3751">Evaluar alertas activas</text></g><!--entity UC14--><g class="entity" data-qualified-name="Sistema.UC14" data-source-line="26" id="ent0019"><ellipse cx="643.3568" cy="731.3618" fill="#F1F1F1" rx="85.0868" ry="23.6418" style="stroke:#181818;stroke-width:0.5;"/><text fill="#000000" font-family="sans-serif" font-size="14" lengthAdjust="spacing" textLength="42.8887" x="621.9124" y="724.2337">CU-14</text><text fill="#000000" font-family="sans-serif" font-size="14" lengthAdjust="spacing" textLength="129.6162" x="578.5487" y="740.5306">Enviar notificaci&#243;n</text></g><!--entity UCRN--><g class="entity" data-qualified-name="Sistema.UCRN" data-source-line="27" id="ent0020"><ellipse cx="278.6553" cy="746.3611" fill="#F1F1F1" rx="86.9053" ry="19.7811" style="stroke:#181818;stroke-width:0.5;"/><text fill="#000000" font-family="sans-serif" font-size="14" lengthAdjust="spacing" textLength="146.6992" x="205.3056" y="751.0095">reintentoNotificaci&#243;n</text></g><!--entity U--><g class="entity" data-qualified-name="U" data-source-line="4" id="ent0002"><ellipse cx="56.7721" cy="144.71" fill="#F1F1F1" rx="8" ry="8" style="stroke:#181818;stroke-width:0.5;"/><path d="M56.7721,152.71 L56.7721,179.71 M43.7721,160.71 L69.7721,160.71 M56.7721,179.71 L43.7721,194.71 M56.7721,179.71 L69.7721,194.71" fill="none" style="stroke:#181818;stroke-width:0.5;"/><text fill="#000000" font-family="sans-serif" font-size="14" lengthAdjust="spacing" textLength="53.2041" x="30.17" y="209.2051">Usuario</text></g><!--entity HL--><g class="entity" data-qualified-name="HL" data-source-line="5" id="ent0003"><ellipse cx="56.7705" cy="514.71" fill="#F1F1F1" rx="8" ry="8" style="stroke:#181818;stroke-width:0.5;"/><path d="M56.7705,522.71 L56.7705,549.71 M43.7705,530.71 L69.7705,530.71 M56.7705,549.71 L43.7705,564.71 M56.7705,549.71 L69.7705,564.71" fill="none" style="stroke:#181818;stroke-width:0.5;"/><text fill="#000000" font-family="sans-serif" font-size="14" lengthAdjust="spacing" textLength="101.541" x="6" y="579.2051">Hyperliquid L1</text></g><!--entity SW--><g class="entity" data-qualified-name="SW" data-source-line="6" id="ent0004"><ellipse cx="941.4137" cy="806.71" fill="#F1F1F1" rx="8" ry="8" style="stroke:#181818;stroke-width:0.5;"/><path d="M941.4137,814.71 L941.4137,841.71 M928.4137,822.71 L954.4137,822.71 M941.4137,841.71 L928.4137,856.71 M941.4137,841.71 L954.4137,856.71" fill="none" style="stroke:#181818;stroke-width:0.5;"/><text fill="#000000" font-family="sans-serif" font-size="14" lengthAdjust="spacing" textLength="125.4873" x="878.67" y="871.2051">Servicio Webhook</text></g><!--link U to UC01--><g class="link" data-entity-1="ent0002" data-entity-2="ent0006" data-link-type="dependency" data-source-line="30" id="lnk21"><path d="M64.41,212.89 C74.33,258.89 97.38,335.14 146.54,379.36 C160.37,391.8 172.2699,398.5371 190.0199,404.5771" fill="none" id="U-to-UC01" style="stroke:#181818;stroke-width:1;"/><polygon fill="#181818" points="195.7,406.51,188.4683,399.824,190.9665,404.8993,185.8912,407.3975,195.7,406.51" style="stroke:#181818;stroke-width:1;"/></g><!--link U to UC02--><g class="link" data-entity-1="ent0002" data-entity-2="ent0007" data-link-type="dependency" data-source-line="31" id="lnk22"><path d="M83.86,174.36 C115.71,174.36 164.68,174.36 207.96,174.36" fill="none" id="U-to-UC02" style="stroke:#181818;stroke-width:1;"/><polygon fill="#181818" points="213.96,174.36,204.96,170.36,208.96,174.36,204.96,178.36,213.96,174.36" style="stroke:#181818;stroke-width:1;"/></g><!--link U to UC03--><g class="link" data-entity-1="ent0002" data-entity-2="ent0008" data-link-type="dependency" data-source-line="32" id="lnk23"><path d="M83.51,143.51 C99.64,126.66 121.99,107.43 146.54,98.36 C396.44,6 491.33,51.81 744.95,133.36 C811.94,154.9 874.3051,200.8998 909.8251,230.0998" fill="none" id="U-to-UC03" style="stroke:#181818;stroke-width:1;"/><polygon fill="#181818" points="914.46,233.91,910.0478,225.1047,910.5976,230.7348,904.9675,231.2846,914.46,233.91" style="stroke:#181818;stroke-width:1;"/></g><!--link U to UC09--><g class="link" data-entity-1="ent0002" data-entity-2="ent0014" data-link-type="dependency" data-source-line="33" id="lnk24"><path d="M83.8,187.47 C101.29,196.01 125,207.06 146.54,215.36 C168.02,223.64 186.1941,229.7394 207.6641,236.3294" fill="none" id="U-to-UC09" style="stroke:#181818;stroke-width:1;"/><polygon fill="#181818" points="213.4,238.09,205.9699,231.6252,208.6201,236.6229,203.6225,239.2731,213.4,238.09" style="stroke:#181818;stroke-width:1;"/></g><!--link U to UC10--><g class="link" data-entity-1="ent0002" data-entity-2="ent0015" data-link-type="dependency" data-source-line="34" id="lnk25"><path d="M83.52,158.84 C100.7,149.41 124.16,138.28 146.54,133.36 C250.82,110.44 283.79,105.17 386.77,133.36 C449.04,150.41 476.57,153.24 511.77,207.36 C573.99,303.02 472.67,371.55 541.77,462.36 C549.59,472.64 555.0524,477.6988 566.7324,483.4788" fill="none" id="U-to-UC10" style="stroke:#181818;stroke-width:1;"/><polygon fill="#181818" points="572.11,486.14,565.8178,478.5632,567.6287,483.9224,562.2695,485.7333,572.11,486.14" style="stroke:#181818;stroke-width:1;"/></g><!--link HL to UC01--><g class="link" data-entity-1="ent0003" data-entity-2="ent0006" data-link-type="dependency" data-source-line="36" id="lnk26"><path d="M91.47,505.99 C106.93,490.32 126.3,473.15 146.54,461.36 C164.37,450.98 179.3895,444.708 199.0495,438.608" fill="none" id="HL-to-UC01" style="stroke:#181818;stroke-width:1;"/><polygon fill="#181818" points="204.78,436.83,194.9989,435.6767,200.0046,438.3117,197.3696,443.3174,204.78,436.83" style="stroke:#181818;stroke-width:1;"/></g><!--link HL to UC13--><g class="link" data-entity-1="ent0003" data-entity-2="ent0018" data-link-type="dependency" data-source-line="37" id="lnk27"><path d="M91.47,582.74 C106.93,598.4 126.3,615.57 146.54,627.36 C164.16,637.63 178.9122,643.8234 198.3722,649.8934" fill="none" id="HL-to-UC13" style="stroke:#181818;stroke-width:1;"/><polygon fill="#181818" points="204.1,651.68,196.6994,645.1815,199.3268,650.1911,194.3172,652.8186,204.1,651.68" style="stroke:#181818;stroke-width:1;"/></g><!--link UC14 to SW--><g class="link" data-entity-1="ent0019" data-entity-2="ent0004" data-link-type="dependency" data-source-line="39" id="lnk28"><path d="M696.95,750.01 C747.71,768.02 818.915,793.2747 872.665,812.3347" fill="none" id="UC14-to-SW" style="stroke:#181818;stroke-width:1;"/><polygon fill="#181818" points="878.32,814.34,871.1744,807.5621,873.6075,812.6689,868.5007,815.1021,878.32,814.34" style="stroke:#181818;stroke-width:1;"/></g><!--link UC04 to UC03--><g class="link" data-entity-1="ent0009" data-entity-2="ent0008" data-link-type="dependency" data-source-line="41" id="lnk29"><path d="M689.45,403.9 C706.99,396.75 727.12,388.12 744.95,379.36 C788.55,357.97 798.79,351.13 839.95,325.36 C863.99,310.32 885.481,295.5841 905.181,281.6541" fill="none" id="UC04-to-UC03" style="stroke:#181818;stroke-width:1;stroke-dasharray:7,7;"/><polygon fill="#181818" points="910.08,278.19,900.4221,280.1202,905.9975,281.0768,905.0409,286.6521,910.08,278.19" style="stroke:#181818;stroke-width:1;"/><text fill="#000000" font-family="sans-serif" font-size="13" lengthAdjust="spacing" textLength="63.0068" x="775.95" y="321.4269">&#171;include&#187;</text></g><!--link UC05 to UC03--><g class="link" data-entity-1="ent0010" data-entity-2="ent0008" data-link-type="dependency" data-source-line="42" id="lnk30"><path d="M701.09,322.65 C754.32,307.91 827.5877,287.6114 880.0877,273.0714" fill="none" id="UC05-to-UC03" style="stroke:#181818;stroke-width:1;stroke-dasharray:7,7;"/><polygon fill="#181818" points="885.87,271.47,876.1289,270.0173,881.0514,272.8045,878.2641,277.727,885.87,271.47" style="stroke:#181818;stroke-width:1;"/><text fill="#000000" font-family="sans-serif" font-size="13" lengthAdjust="spacing" textLength="63.0068" x="775.95" y="281.4269">&#171;include&#187;</text></g><!--link UC06 to UC03--><g class="link" data-entity-1="ent0011" data-entity-2="ent0008" data-link-type="dependency" data-source-line="43" id="lnk31"><path d="M719.07,256.36 C765.23,256.36 818.12,256.36 863.55,256.36" fill="none" id="UC06-to-UC03" style="stroke:#181818;stroke-width:1;stroke-dasharray:7,7;"/><polygon fill="#181818" points="869.55,256.36,860.55,252.36,864.55,256.36,860.55,260.36,869.55,256.36" style="stroke:#181818;stroke-width:1;"/><text fill="#000000" font-family="sans-serif" font-size="13" lengthAdjust="spacing" textLength="63.0068" x="775.95" y="252.4269">&#171;include&#187;</text></g><!--link UC07 to UC03--><g class="link" data-entity-1="ent0012" data-entity-2="ent0008" data-link-type="dependency" data-source-line="44" id="lnk32"><path d="M702.15,190.37 C755.32,205.09 827.8379,225.1779 879.9879,239.6279" fill="none" id="UC07-to-UC03" style="stroke:#181818;stroke-width:1;stroke-dasharray:7,7;"/><polygon fill="#181818" points="885.77,241.23,878.1649,234.972,880.9516,239.8949,876.0287,242.6815,885.77,241.23" style="stroke:#181818;stroke-width:1;"/><text fill="#000000" font-family="sans-serif" font-size="13" lengthAdjust="spacing" textLength="63.0068" x="775.95" y="209.4269">&#171;include&#187;</text></g><!--link UC08 to UC07--><g class="link" data-entity-1="ent0013" data-entity-2="ent0012" data-link-type="dependency" data-source-line="45" id="lnk33"><path d="M331.66,319.9 C349.34,313.24 369.09,305.39 386.77,297.36 C457.74,265.15 471.15,248.33 541.77,215.36 C558.52,207.54 571.6133,201.9387 588.2733,195.2387" fill="none" id="UC08-to-UC07" style="stroke:#181818;stroke-width:1;stroke-dasharray:7,7;"/><polygon fill="#181818" points="593.84,193,583.9975,192.6469,589.2011,194.8656,586.9824,200.0692,593.84,193" style="stroke:#181818;stroke-width:1;"/><text fill="#000000" font-family="sans-serif" font-size="13" lengthAdjust="spacing" textLength="63.0068" x="432.77" y="228.4269">&#171;include&#187;</text></g><!--link UC11 to UC10--><g class="link" data-entity-1="ent0016" data-entity-2="ent0015" data-link-type="dependency" data-source-line="46" id="lnk34"><path d="M380.69,502.64 C430.89,502.78 485.38,502.9345 535.56,503.0645" fill="none" id="UC11-to-UC10" style="stroke:#181818;stroke-width:1;stroke-dasharray:7,7;"/><polygon fill="#181818" points="541.56,503.08,532.5704,499.0567,536.56,503.067,532.5497,507.0567,541.56,503.08" style="stroke:#181818;stroke-width:1;"/><text fill="#000000" font-family="sans-serif" font-size="13" lengthAdjust="spacing" textLength="63.0068" x="432.77" y="499.4269">&#171;include&#187;</text></g><!--link UC12 to UC10--><g class="link" data-entity-1="ent0017" data-entity-2="ent0015" data-link-type="dependency" data-source-line="47" id="lnk35"><path d="M355.69,568.17 C418.63,553.94 501.6278,535.1834 563.6678,521.1534" fill="none" id="UC12-to-UC10" style="stroke:#181818;stroke-width:1;stroke-dasharray:7,7;"/><polygon fill="#181818" points="569.52,519.83,559.8594,517.9137,564.6431,520.9329,561.624,525.7167,569.52,519.83" style="stroke:#181818;stroke-width:1;"/><text fill="#000000" font-family="sans-serif" font-size="13" lengthAdjust="spacing" textLength="63.0068" x="432.77" y="531.4269">&#171;include&#187;</text></g><!--link UC13 to UC14--><g class="link" data-entity-1="ent0018" data-entity-2="ent0019" data-link-type="dependency" data-source-line="48" id="lnk36"><path d="M382.78,668.68 C423.34,670.45 470.09,674.55 511.77,683.36 C540.96,689.53 566.8295,698.6414 591.5295,708.7814" fill="none" id="UC13-to-UC14" style="stroke:#181818;stroke-width:1;stroke-dasharray:7,7;"/><polygon fill="#181818" points="597.08,711.06,590.2734,703.9417,592.4546,709.1611,587.2352,711.3424,597.08,711.06" style="stroke:#181818;stroke-width:1;"/><text fill="#000000" font-family="sans-serif" font-size="13" lengthAdjust="spacing" textLength="63.0068" x="432.77" y="667.4269">&#171;include&#187;</text></g><!--link UCRN to UC14--><g class="link" data-entity-1="ent0020" data-entity-2="ent0019" data-link-type="dependency" data-source-line="50" id="lnk37"><path d="M364.69,742.84 C423.22,740.42 494.5951,737.4672 552.8051,735.0672" fill="none" id="UCRN-to-UC14" style="stroke:#181818;stroke-width:1;stroke-dasharray:7,7;"/><polygon fill="#181818" points="558.8,734.82,549.6429,731.1942,553.8042,735.026,549.9724,739.1874,558.8,734.82" style="stroke:#181818;stroke-width:1;"/><text fill="#000000" font-family="sans-serif" font-size="13" lengthAdjust="spacing" textLength="61.1851" x="434.1216" y="703.4269">&#171;extend&#187;</text><text fill="#000000" font-family="sans-serif" font-size="13" lengthAdjust="spacing" textLength="93.8882" x="417.77" y="718.5597">(si el webhook</text><text fill="#000000" font-family="sans-serif" font-size="13" lengthAdjust="spacing" textLength="82.9004" x="423.2639" y="733.6925">no confirma)</text></g><?plantuml-src VPHDRjim48NtFCN0gtRXG9J_Yq10O0JmmiYYWP6DDhH89uFIP49IRekYXofwX5oib1bACbNOgx7UzqPFCvIaE3Xm6Wm-lpZWQ4JbK2j2MEMqWT7ErioW7W6pi8iNDpzVXP7uLYE7BJrhcsqK7uKvOOKQdiJ-HUjlP_dnYP2cDLFFKdW6hHD7De9V1A2secBMNrtlnXajrLehMql734Z1k31xpGmF0TOP9QaZzmuZF2sKGyuywNy1pbDsKggxlS6M5NOKsKdAJajrpz5TDWxiD6LddfLuHDMd0piR19xx4Ez_c9zrc7U5xtzLrtoUyeiO-eFMgXTxaTBBNfH--u0l1sbMSNnC2kCOS06ltjMil8sqIamqYv62oLwwpYQQfIRQ3lH_jmeccfhotkCCRS6Kfmz5_PxlJqpMh4leJoUUc8sUTDsqMRSweNSexV205Mlt4iDThDq8LCxlMZyCySxpzO7y9cG7ut4HJczRvbqvwSfLM_hvaSssCxQrZqwQCEU_pNlL74YukGcju0lStgAgPCr5KJJQx8eslw8jhcZBg2q66gKV6is6Mdv5cqHjccYa6UEbA7xuqVEYADKdYo0aV0_Vcb8f3PLM1pH7zfdy0m00?></g></svg>