<svg xmlns="http://www.w3.org/2000/svg" xmlns:xlink="http://www.w3.org/1999/xlink" contentStyleType="text/css" data-diagram-type="DESCRIPTION" height="494px" preserveAspectRatio="none" style="width:902px;height:494px;background:#FFFFFF;" version="1.1" viewBox="0 0 902 494" width="902px" zoomAndPan="magnify"><?plantuml 1.2026.3beta6?><defs/><g><!--cluster Sistema--><g class="cluster" data-qualified-name="Sistema" data-source-line="7" id="ent0005"><path d="M157.04,9.85 L221.4775,9.85 A3.75,3.75 0 0 1 223.9775,12.35 L230.9775,32.1469 L712.8,32.1469 A2.5,2.5 0 0 1 715.3,34.6469 L715.3,477.35 A2.5,2.5 0 0 1 712.8,479.85 L157.04,479.85 A2.5,2.5 0 0 1 154.54,477.35 L154.54,12.35 A2.5,2.5 0 0 1 157.04,9.85" fill="none" style="stroke:#000000;stroke-width:1.5;"/><line style="stroke:#000000;stroke-width:1.5;" x1="154.54" x2="230.9775" y1="32.1469" y2="32.1469"/><text fill="#000000" font-family="sans-serif" font-size="14" font-weight="700" lengthAdjust="spacing" textLength="63.4375" x="158.54" y="24.8451">Sistema</text></g><!--cluster Leaderboard--><g class="cluster" data-qualified-name="Sistema.Leaderboard" data-source-line="8" id="ent0006"><path d="M181.04,115.85 L282.3369,115.85 A3.75,3.75 0 0 1 284.8369,118.35 L291.8369,138.1469 L390.53,138.1469 A2.5,2.5 0 0 1 393.03,140.6469 L393.03,206.35 A2.5,2.5 0 0 1 390.53,208.85 L181.04,208.85 A2.5,2.5 0 0 1 178.54,206.35 L178.54,118.35 A2.5,2.5 0 0 1 181.04,115.85" fill="none" style="stroke:#000000;stroke-width:1.5;"/><line style="stroke:#000000;stroke-width:1.5;" x1="178.54" x2="291.8369" y1="138.1469" y2="138.1469"/><text fill="#000000" font-family="sans-serif" font-size="14" font-weight="700" lengthAdjust="spacing" textLength="100.2969" x="182.54" y="130.8451">Leaderboard</text></g><!--cluster Entidades--><g class="cluster" data-qualified-name="Sistema.Entidades" data-source-line="12" id="ent0008"><path d="M492.53,52.85 L571.8698,52.85 A3.75,3.75 0 0 1 574.3698,55.35 L581.3698,75.1469 L688.8,75.1469 A2.5,2.5 0 0 1 691.3,77.6469 L691.3,206.35 A2.5,2.5 0 0 1 688.8,208.85 L492.53,208.85 A2.5,2.5 0 0 1 490.03,206.35 L490.03,55.35 A2.5,2.5 0 0 1 492.53,52.85" fill="none" style="stroke:#000000;stroke-width:1.5;"/><line style="stroke:#000000;stroke-width:1.5;" x1="490.03" x2="581.3698" y1="75.1469" y2="75.1469"/><text fill="#000000" font-family="sans-serif" font-size="14" font-weight="700" lengthAdjust="spacing" textLength="78.3398" x="494.03" y="67.8451">Entidades</text></g><!--cluster Alertas--><g class="cluster" data-qualified-name="Sistema.Alertas" data-source-line="17" id="ent0011"><path d="M196.53,232.85 L254.0359,232.85 A3.75,3.75 0 0 1 256.5359,235.35 L263.5359,255.1469 L683.72,255.1469 A2.5,2.5 0 0 1 686.22,257.6469 L686.22,453.35 A2.5,2.5 0 0 1 683.72,455.85 L196.53,455.85 A2.5,2.5 0 0 1 194.03,453.35 L194.03,235.35 A2.5,2.5 0 0 1 196.53,232.85" fill="none" style="stroke:#000000;stroke-width:1.5;"/><line style="stroke:#000000;stroke-width:1.5;" x1="194.03" x2="263.5359" y1="255.1469" y2="255.1469"/><text fill="#000000" font-family="sans-serif" font-size="14" font-weight="700" lengthAdjust="spacing" textLength="56.5059" x="198.03" y="247.8451">Alertas</text></g><!--entity CU01--><g class="entity" data-qualified-name="Sistema.Leaderboard.CU01" data-source-line="9" id="ent0007"><ellipse cx="285.7864" cy="171.8493" fill="#F1F1F1" rx="91.2464" ry="20.6493" style="stroke:#181818;stroke-width:0.5;"/><text fill="#000000" font-family="sans-serif" font-size="14" lengthAdjust="spacing" textLength="156.5566" x="207.508" y="176.4977">Consultar leaderboard</text></g><!--entity CU02--><g class="entity" data-qualified-name="Sistema.Entidades.CU02" data-source-line="13" id="ent0009"><ellipse cx="590.6659" cy="103.8532" fill="#F1F1F1" rx="66.0159" ry="15.6032" style="stroke:#181818;stroke-width:0.5;"/><text fill="#000000" font-family="sans-serif" font-size="14" lengthAdjust="spacing" textLength="96.1475" x="542.5922" y="108.5016">Crear entidad</text></g><!--entity CU03--><g class="entity" data-qualified-name="Sistema.Entidades.CU03" data-source-line="14" id="ent0010"><ellipse cx="590.6652" cy="173.847" fill="#F1F1F1" rx="84.6352" ry="19.327" style="stroke:#181818;stroke-width:0.5;"/><text fill="#000000" font-family="sans-serif" font-size="14" lengthAdjust="spacing" textLength="141.4834" x="519.9235" y="178.4955">Gestionar entidades</text></g><!--entity CU04--><g class="entity" data-qualified-name="Sistema.Alertas.CU04" data-source-line="18" id="ent0012"><ellipse cx="285.791" cy="284.8522" fill="#F1F1F1" rx="75.211" ry="17.4422" style="stroke:#181818;stroke-width:0.5;"/><text fill="#000000" font-family="sans-serif" font-size="14" lengthAdjust="spacing" textLength="119.2393" x="226.1714" y="289.5006">Configurar alerta</text></g><!--entity CU05--><g class="entity" data-qualified-name="Sistema.Alertas.CU05" data-source-line="19" id="ent0013"><ellipse cx="285.7866" cy="354.8513" fill="#F1F1F1" rx="75.7566" ry="17.5513" style="stroke:#181818;stroke-width:0.5;"/><text fill="#000000" font-family="sans-serif" font-size="14" lengthAdjust="spacing" textLength="120.5586" x="225.5073" y="359.4998">Gestionar alertas</text></g><!--entity CU06--><g class="entity" data-qualified-name="Sistema.Alertas.CU06" data-source-line="20" id="ent0014"><ellipse cx="285.7854" cy="423.8471" fill="#F1F1F1" rx="69.6354" ry="16.3271" style="stroke:#181818;stroke-width:0.5;"/><text fill="#000000" font-family="sans-serif" font-size="14" lengthAdjust="spacing" textLength="105.458" x="233.0564" y="428.4955">Evaluar alertas</text></g><!--entity CU07--><g class="entity" data-qualified-name="Sistema.Alertas.CU07" data-source-line="21" id="ent0015"><ellipse cx="590.6707" cy="404.8501" fill="#F1F1F1" rx="79.5507" ry="18.3101" style="stroke:#181818;stroke-width:0.5;"/><text fill="#000000" font-family="sans-serif" font-size="14" lengthAdjust="spacing" textLength="129.6162" x="525.8626" y="409.4986">Enviar notificacion</text></g><!--entity U--><g class="entity" data-qualified-name="U" data-source-line="3" id="ent0002"><ellipse cx="56.7721" cy="142.2" fill="#F1F1F1" rx="8" ry="8" style="stroke:#181818;stroke-width:0.5;"/><path d="M56.7721,150.2 L56.7721,177.2 M43.7721,158.2 L69.7721,158.2 M56.7721,177.2 L43.7721,192.2 M56.7721,177.2 L69.7721,192.2" fill="none" style="stroke:#181818;stroke-width:0.5;"/><text fill="#000000" font-family="sans-serif" font-size="14" lengthAdjust="spacing" textLength="53.2041" x="30.17" y="206.6951">Usuario</text></g><!--entity HL--><g class="entity" data-qualified-name="HL" data-source-line="4" id="ent0003"><ellipse cx="56.7705" cy="345.2" fill="#F1F1F1" rx="8" ry="8" style="stroke:#181818;stroke-width:0.5;"/><path d="M56.7705,353.2 L56.7705,380.2 M43.7705,361.2 L69.7705,361.2 M56.7705,380.2 L43.7705,395.2 M56.7705,380.2 L69.7705,395.2" fill="none" style="stroke:#181818;stroke-width:0.5;"/><text fill="#000000" font-family="sans-serif" font-size="14" lengthAdjust="spacing" textLength="101.541" x="6" y="409.6951">Hyperliquid L1</text></g><!--entity SW--><g class="entity" data-qualified-name="SW" data-source-line="5" id="ent0004"><ellipse cx="825.0437" cy="375.2" fill="#F1F1F1" rx="8" ry="8" style="stroke:#181818;stroke-width:0.5;"/><path d="M825.0437,383.2 L825.0437,410.2 M812.0437,391.2 L838.0437,391.2 M825.0437,410.2 L812.0437,425.2 M825.0437,410.2 L838.0437,425.2" fill="none" style="stroke:#181818;stroke-width:0.5;"/><text fill="#000000" font-family="sans-serif" font-size="14" lengthAdjust="spacing" textLength="125.4873" x="762.3" y="439.6951">Servicio Webhook</text></g><!--link U to CU01--><g class="link" data-entity-1="ent0002" data-entity-2="ent0007" data-link-type="dependency" data-source-line="25" id="lnk16"><path d="M83.81,171.85 C110.77,171.85 148.44,171.85 188.2,171.85" fill="none" id="U-to-CU01" style="stroke:#181818;stroke-width:1;"/><polygon fill="#181818" points="194.2,171.85,185.2,167.85,189.2,171.85,185.2,175.85,194.2,171.85" style="stroke:#181818;stroke-width:1;"/></g><!--link U to CU02--><g class="link" data-entity-1="ent0002" data-entity-2="ent0009" data-link-type="dependency" data-source-line="26" id="lnk17"><path d="M80.05,133.36 C95.52,110.67 118.38,83.92 146.54,70.85 C286.33,6 472.1167,60.4021 549.4867,88.3421" fill="none" id="U-to-CU02" style="stroke:#181818;stroke-width:1;"/><polygon fill="#181818" points="555.13,90.38,548.0237,83.5609,550.4272,88.6817,545.3064,91.0853,555.13,90.38" style="stroke:#181818;stroke-width:1;"/></g><!--link U to CU03--><g class="link" data-entity-1="ent0002" data-entity-2="ent0010" data-link-type="dependency" data-source-line="27" id="lnk18"><path d="M83.72,155.93 C154.47,114.76 353.53,14.27 474.03,106.85 C484.98,115.26 472.63,126.75 482.03,136.85 C492.95,148.56 502.0883,154.5176 517.1983,159.9876" fill="none" id="U-to-CU03" style="stroke:#181818;stroke-width:1;"/><polygon fill="#181818" points="522.84,162.03,515.739,155.2053,518.1386,160.328,513.0159,162.7276,522.84,162.03" style="stroke:#181818;stroke-width:1;"/></g><!--link U to CU04--><g class="link" data-entity-1="ent0002" data-entity-2="ent0012" data-link-type="dependency" data-source-line="28" id="lnk19"><path d="M83.81,184.81 C125.51,205.57 201.7787,243.5362 247.1187,266.1062" fill="none" id="U-to-CU04" style="stroke:#181818;stroke-width:1;"/><polygon fill="#181818" points="252.49,268.78,246.2156,261.1884,248.0139,266.5518,242.6505,268.3502,252.49,268.78" style="stroke:#181818;stroke-width:1;"/></g><!--link U to CU05--><g class="link" data-entity-1="ent0002" data-entity-2="ent0013" data-link-type="dependency" data-source-line="29" id="lnk20"><path d="M71.05,210.17 C84.75,244.04 109.39,292.23 146.54,319.85 C166.31,334.55 185.7295,341.87 209.2595,346.84" fill="none" id="U-to-CU05" style="stroke:#181818;stroke-width:1;"/><polygon fill="#181818" points="215.13,348.08,207.1509,342.3064,210.2379,347.0467,205.4976,350.1337,215.13,348.08" style="stroke:#181818;stroke-width:1;"/></g><!--link HL to CU01--><g class="link" data-entity-1="ent0003" data-entity-2="ent0007" data-link-type="dependency" data-source-line="31" id="lnk21"><path d="M79.61,336.36 C95.72,310.31 119.49,276.31 146.54,251.85 C175.23,225.91 208.313,207.1015 237.383,192.9815" fill="none" id="HL-to-CU01" style="stroke:#181818;stroke-width:1;"/><polygon fill="#181818" points="242.78,190.36,232.9368,190.6942,238.2825,192.5446,236.4321,197.8902,242.78,190.36" style="stroke:#181818;stroke-width:1;"/></g><!--link HL to CU06--><g class="link" data-entity-1="ent0003" data-entity-2="ent0014" data-link-type="dependency" data-source-line="32" id="lnk22"><path d="M107.87,385.66 C145.09,393.7 189.8249,403.3548 227.3749,411.4548" fill="none" id="HL-to-CU06" style="stroke:#181818;stroke-width:1;"/><polygon fill="#181818" points="233.24,412.72,225.2858,406.9122,228.3524,411.6657,223.5989,414.7323,233.24,412.72" style="stroke:#181818;stroke-width:1;"/></g><!--link CU07 to SW--><g class="link" data-entity-1="ent0015" data-entity-2="ent0004" data-link-type="dependency" data-source-line="34" id="lnk23"><path d="M670.67,404.85 C700.53,404.85 728.07,404.85 756.14,404.85" fill="none" id="CU07-to-SW" style="stroke:#181818;stroke-width:1;"/><polygon fill="#181818" points="762.14,404.85,753.14,400.85,757.14,404.85,753.14,408.85,762.14,404.85" style="stroke:#181818;stroke-width:1;"/></g><!--link CU01 to CU02--><g class="link" data-entity-1="ent0007" data-entity-2="ent0009" data-link-type="dependency" data-source-line="36" id="lnk24"><path d="M351.76,157.26 C408.78,144.46 484.5256,127.4538 535.8156,115.9438" fill="none" id="CU01-to-CU02" style="stroke:#181818;stroke-width:1;stroke-dasharray:7,7;"/><polygon fill="#181818" points="541.67,114.63,532.0125,112.6977,536.7913,115.7248,533.7643,120.5036,541.67,114.63" style="stroke:#181818;stroke-width:1;"/><text fill="#000000" font-family="sans-serif" font-size="13" lengthAdjust="spacing" textLength="61.1851" x="411.03" y="127.9169">&#171;extend&#187;</text></g><!--link CU06 to CU07--><g class="link" data-entity-1="ent0014" data-entity-2="ent0015" data-link-type="dependency" data-source-line="37" id="lnk25"><path d="M353.63,419.66 C400.84,416.7 458.2118,413.0962 507.4018,410.0062" fill="none" id="CU06-to-CU07" style="stroke:#181818;stroke-width:1;stroke-dasharray:7,7;"/><polygon fill="#181818" points="513.39,409.63,504.1569,406.2021,508.3998,409.9435,504.6585,414.1864,513.39,409.63" style="stroke:#181818;stroke-width:1;"/><text fill="#000000" font-family="sans-serif" font-size="13" lengthAdjust="spacing" textLength="63.0068" x="410.03" y="408.9169">&#171;include&#187;</text></g><?plantuml-src TP5DQm8n48Rl-HM3TwL-Gv658b8FUvF5yvYCEfWcDX_IKlhVczqbhjRszYRlaoT3ecaV85XmV3W6KEn81hP629J1EkXLFg9ZsmFqKENDzUUPdERto0hAOTEjornko5rOieKjxOxMdffwinNYZFA41qe4-q1ls8Cl0N3TBGaLkPr5fze687gIw5EtjCP77T21lgMIU5az3HFxBMvLAnDO9Su_YXmb2RLz5epkcLVozHDqNErfoV73LI-QN43_ryHxFaINBDWWMJ7vxpBCffQRtdEh2-huICr-KUR22J8sy9ubfbymcPmtewVXA-ZtY_RThd7KnN4N9rsS2h4kkuDTdWbHovjb_Sbr3OD1QuLdM2pe8v1HHL5NirpDcugDr55HKVm0?></g></svg>