<svg xmlns="http://www.w3.org/2000/svg" xmlns:xlink="http://www.w3.org/1999/xlink" contentStyleType="text/css" data-diagram-type="CLASS" height="650px" preserveAspectRatio="none" style="width:571px;height:650px;background:#FFFFFF;" version="1.1" viewBox="0 0 571 650" width="571px" zoomAndPan="magnify"><?plantuml 1.2026.3beta6?><defs/><g><!--class Usuario--><g class="entity" data-qualified-name="Usuario" data-source-line="5" id="ent0002"><rect fill="#F1F1F1" height="26.2969" rx="2.5" ry="2.5" style="stroke:#181818;stroke-width:0.5;" width="59.2041" x="192.64" y="7"/><text fill="#000000" font-family="sans-serif" font-size="14" lengthAdjust="spacing" textLength="53.2041" x="195.64" y="24.9951">Usuario</text></g><!--class Entidad--><g class="entity" data-qualified-name="Entidad" data-source-line="6" id="ent0003"><rect fill="#F1F1F1" height="26.2969" rx="2.5" ry="2.5" style="stroke:#181818;stroke-width:0.5;" width="59.4502" x="130.51" y="110.29"/><text fill="#000000" font-family="sans-serif" font-size="14" lengthAdjust="spacing" textLength="53.4502" x="133.51" y="128.2851">Entidad</text></g><!--class Direccion--><g class="entity" data-qualified-name="Direccion" data-source-line="7" id="ent0004"><rect fill="#F1F1F1" height="26.2969" rx="2.5" ry="2.5" style="stroke:#181818;stroke-width:0.5;" width="71.7617" x="90.36" y="213.59"/><text fill="#000000" font-family="sans-serif" font-size="14" lengthAdjust="spacing" textLength="65.7617" x="93.36" y="231.5851">Direccion</text></g><!--class Token--><g class="entity" data-qualified-name="Token" data-source-line="8" id="ent0005"><rect fill="#F1F1F1" height="26.2969" rx="2.5" ry="2.5" style="stroke:#181818;stroke-width:0.5;" width="48.7109" x="144.88" y="420.18"/><text fill="#000000" font-family="sans-serif" font-size="14" lengthAdjust="spacing" textLength="42.7109" x="147.88" y="438.1751">Token</text></g><!--class Mercado--><g class="entity" data-qualified-name="Mercado" data-source-line="9" id="ent0006"><rect fill="#F1F1F1" height="26.2969" rx="2.5" ry="2.5" style="stroke:#181818;stroke-width:0.5;" width="66.1768" x="76.15" y="523.48"/><text fill="#000000" font-family="sans-serif" font-size="14" lengthAdjust="spacing" textLength="60.1768" x="79.15" y="541.4751">Mercado</text></g><!--class Precio--><g class="entity" data-qualified-name="Precio" data-source-line="10" id="ent0007"><rect fill="#F1F1F1" height="26.2969" rx="2.5" ry="2.5" style="stroke:#181818;stroke-width:0.5;" width="48.9639" x="204.76" y="523.48"/><text fill="#000000" font-family="sans-serif" font-size="14" lengthAdjust="spacing" textLength="42.9639" x="207.76" y="541.4751">Precio</text></g><!--class Operacion--><g class="entity" data-qualified-name="Operacion" data-source-line="11" id="ent0008"><rect fill="#F1F1F1" height="26.2969" rx="2.5" ry="2.5" style="stroke:#181818;stroke-width:0.5;" width="77.8799" x="84.3" y="316.89"/><text fill="#000000" font-family="sans-serif" font-size="14" lengthAdjust="spacing" textLength="71.8799" x="87.3" y="334.8851">Operacion</text></g><!--class Temporalidad--><g class="entity" data-qualified-name="Temporalidad" data-source-line="12" id="ent0009"><rect fill="#F1F1F1" height="26.2969" rx="2.5" ry="2.5" style="stroke:#181818;stroke-width:0.5;" width="102.7217" x="407.88" y="7"/><text fill="#000000" font-family="sans-serif" font-size="14" lengthAdjust="spacing" textLength="96.7217" x="410.88" y="24.9951">Temporalidad</text></g><!--class AlertaPrecio--><g class="entity" data-qualified-name="AlertaPrecio" data-source-line="13" id="ent0010"><rect fill="#F1F1F1" height="26.2969" rx="2.5" ry="2.5" style="stroke:#181818;stroke-width:0.5;" width="90.8682" x="236.81" y="110.29"/><text fill="#000000" font-family="sans-serif" font-size="14" lengthAdjust="spacing" textLength="84.8682" x="239.81" y="128.2851">AlertaPrecio</text></g><!--class Webhook--><g class="entity" data-qualified-name="Webhook" data-source-line="14" id="ent0011"><rect fill="#F1F1F1" height="26.2969" rx="2.5" ry="2.5" style="stroke:#181818;stroke-width:0.5;" width="71.4541" x="268.51" y="213.59"/><text fill="#000000" font-family="sans-serif" font-size="14" lengthAdjust="spacing" textLength="65.4541" x="271.51" y="231.5851">Webhook</text></g><!--class Notificacion--><g class="entity" data-qualified-name="Notificacion" data-source-line="15" id="ent0012"><rect fill="#F1F1F1" height="26.2969" rx="2.5" ry="2.5" style="stroke:#181818;stroke-width:0.5;" width="88.5371" x="374.97" y="213.59"/><text fill="#000000" font-family="sans-serif" font-size="14" lengthAdjust="spacing" textLength="82.5371" x="377.97" y="231.5851">Notificacion</text></g><g class="entity" data-qualified-name="GMN23" data-source-line="29" id="ent0024"><path d="M6,610.78 L6,635.9128 A0,0 0 0 0 6,635.9128 L212.4785,635.9128 A0,0 0 0 0 212.4785,635.9128 L212.4785,620.78 L202.4785,610.78 L113.24,610.78 L109.24,550.13 L105.24,610.78 L6,610.78 A0,0 0 0 0 6,610.78" fill="#FEFFDD" style="stroke:#181818;stroke-width:0.5;"/><path d="M202.4785,610.78 L202.4785,620.78 L212.4785,620.78 L202.4785,610.78" fill="#FEFFDD" style="stroke:#181818;stroke-width:0.5;"/><text fill="#000000" font-family="sans-serif" font-size="13" lengthAdjust="spacing" textLength="185.4785" x="12" y="627.8469">Spot | PerpNativo | PerpHIP3</text></g><g class="entity" data-qualified-name="GMN26" data-source-line="33" id="ent0027"><path d="M362.26,110.87 L362.26,136.0028 A0,0 0 0 0 362.26,136.0028 L556.2209,136.0028 A0,0 0 0 0 556.2209,136.0028 L556.2209,120.87 L546.2209,110.87 L463.24,110.87 L459.24,33.57 L455.24,110.87 L362.26,110.87 A0,0 0 0 0 362.26,110.87" fill="#FEFFDD" style="stroke:#181818;stroke-width:0.5;"/><path d="M546.2209,110.87 L546.2209,120.87 L556.2209,120.87 L546.2209,110.87" fill="#FEFFDD" style="stroke:#181818;stroke-width:0.5;"/><text fill="#000000" font-family="sans-serif" font-size="13" lengthAdjust="spacing" textLength="172.9609" x="368.26" y="127.9369">1h | 4h | 6h | 12h | 1d | 1w</text></g><!--link Usuario to Entidad--><g class="link" data-entity-1="ent0002" data-entity-2="ent0003" data-link-type="dependency" data-source-line="17" id="lnk13"><path codeLine="17" d="M214.64,33.57 C202.74,53.01 182.972,85.2923 171.032,104.8023" fill="none" id="Usuario-to-Entidad" style="stroke:#181818;stroke-width:1;"/><polygon fill="#181818" points="167.9,109.92,176.0098,104.3315,170.51,105.6553,169.1862,100.1555,167.9,109.92" style="stroke:#181818;stroke-width:1;"/><text fill="#000000" font-family="sans-serif" font-size="13" lengthAdjust="spacing" textLength="28.4565" x="196.24" y="76.3569">crea</text></g><!--link Usuario to AlertaPrecio--><g class="link" data-entity-1="ent0002" data-entity-2="ent0010" data-link-type="dependency" data-source-line="18" id="lnk14"><path codeLine="18" d="M229.6,33.57 C241.11,53.01 260.2134,85.2469 271.7634,104.7569" fill="none" id="Usuario-to-AlertaPrecio" style="stroke:#181818;stroke-width:1;"/><polygon fill="#181818" points="274.82,109.92,273.6772,100.1377,272.2729,105.6174,266.7931,104.2131,274.82,109.92" style="stroke:#181818;stroke-width:1;"/><text fill="#000000" font-family="sans-serif" font-size="13" lengthAdjust="spacing" textLength="61.3311" x="257.24" y="76.3569">configura</text></g><!--link Entidad to Direccion--><g class="link" data-entity-1="ent0003" data-entity-2="ent0004" data-link-type="dependency" data-source-line="19" id="lnk15"><path codeLine="19" d="M154,136.75 C149.98,145.03 144.84,156.28 141.24,166.59 C135.72,182.39 132.5512,195.3519 129.9712,207.4519" fill="none" id="Entidad-to-Direccion" style="stroke:#181818;stroke-width:1;"/><polygon fill="#181818" points="128.72,213.32,134.5089,205.352,129.7627,208.4299,126.6848,203.6837,128.72,213.32" style="stroke:#181818;stroke-width:1;"/><text fill="#000000" font-family="sans-serif" font-size="13" lengthAdjust="spacing" textLength="46.0205" x="142.24" y="179.6569">agrupa</text></g><!--link Direccion to Operacion--><g class="link" data-entity-1="ent0004" data-entity-2="ent0008" data-link-type="dependency" data-source-line="20" id="lnk16"><path codeLine="20" d="M124.74,240.26 C123.81,248.63 122.71,259.9 122.24,269.89 C121.47,286.1 121.7594,298.8361 122.2994,310.7961" fill="none" id="Direccion-to-Operacion" style="stroke:#181818;stroke-width:1;"/><polygon fill="#181818" points="122.57,316.79,126.16,307.6187,122.3445,311.7951,118.1681,307.9796,122.57,316.79" style="stroke:#181818;stroke-width:1;"/><text fill="#000000" font-family="sans-serif" font-size="13" lengthAdjust="spacing" textLength="48.0581" x="123.24" y="282.9569">ejecuta</text></g><!--link Operacion to Token--><g class="link" data-entity-1="ent0008" data-entity-2="ent0005" data-link-type="dependency" data-source-line="21" id="lnk17"><path codeLine="21" d="M128.88,343.46 C137.71,362.9 152.2203,394.8464 161.0703,414.3464" fill="none" id="Operacion-to-Token" style="stroke:#181818;stroke-width:1;"/><polygon fill="#181818" points="163.55,419.81,163.4729,409.9614,161.4836,415.257,156.1881,413.2676,163.55,419.81" style="stroke:#181818;stroke-width:1;"/><text fill="#000000" font-family="sans-serif" font-size="13" lengthAdjust="spacing" textLength="36.3213" x="150.24" y="386.2469">sobre</text></g><!--link Token to Mercado--><g class="link" data-entity-1="ent0005" data-entity-2="ent0006" data-link-type="dependency" data-source-line="22" id="lnk18"><path codeLine="22" d="M144.66,443.79 C130.67,450.59 114.36,461.27 106.24,476.48 C98.49,490.99 100.0248,504.6805 103.4448,517.2505" fill="none" id="Token-to-Mercado" style="stroke:#181818;stroke-width:1;"/><polygon fill="#181818" points="105.02,523.04,106.5169,513.3056,103.7073,518.2154,98.7975,515.4058,105.02,523.04" style="stroke:#181818;stroke-width:1;"/><text fill="#000000" font-family="sans-serif" font-size="13" lengthAdjust="spacing" textLength="78.1714" x="107.24" y="489.5469">pertenece a</text></g><!--link Token to Precio--><g class="link" data-entity-1="ent0005" data-entity-2="ent0007" data-link-type="dependency" data-source-line="23" id="lnk19"><path codeLine="23" d="M176.6,446.75 C188.11,466.19 207.2134,498.4369 218.7634,517.9469" fill="none" id="Token-to-Precio" style="stroke:#181818;stroke-width:1;"/><polygon fill="#181818" points="221.82,523.11,220.6772,513.3277,219.2729,518.8074,213.7931,517.4031,221.82,523.11" style="stroke:#181818;stroke-width:1;"/><text fill="#000000" font-family="sans-serif" font-size="13" lengthAdjust="spacing" textLength="32.9443" x="204.24" y="489.5469">tiene</text></g><!--link AlertaPrecio to Token--><g class="link" data-entity-1="ent0010" data-entity-2="ent0005" data-link-type="dependency" data-source-line="24" id="lnk20"><path codeLine="24" d="M277.86,136.82 C271.79,154.02 260.53,186.11 251.24,213.59 C224.78,291.85 226.73,314.67 193.24,390.18 C188.66,400.5 185.43,406.4411 180.41,414.6511" fill="none" id="AlertaPrecio-to-Token" style="stroke:#181818;stroke-width:1;"/><polygon fill="#181818" points="177.28,419.77,185.3876,414.1783,179.8883,415.5042,178.5623,410.005,177.28,419.77" style="stroke:#181818;stroke-width:1;"/><text fill="#000000" font-family="sans-serif" font-size="13" lengthAdjust="spacing" textLength="69.2656" x="235.24" y="282.9569">monitoriza</text></g><!--link AlertaPrecio to Webhook--><g class="link" data-entity-1="ent0010" data-entity-2="ent0011" data-link-type="dependency" data-source-line="25" id="lnk21"><path codeLine="25" d="M284.94,136.86 C289.16,156.3 296.0058,187.8469 300.2458,207.3569" fill="none" id="AlertaPrecio-to-Webhook" style="stroke:#181818;stroke-width:1;"/><polygon fill="#181818" points="301.52,213.22,303.5175,203.5758,300.4582,208.3341,295.6999,205.2748,301.52,213.22" style="stroke:#181818;stroke-width:1;"/><text fill="#000000" font-family="sans-serif" font-size="13" lengthAdjust="spacing" textLength="71.6079" x="296.24" y="179.6569">notifica via</text></g><!--link AlertaPrecio to Notificacion--><g class="link" data-entity-1="ent0010" data-entity-2="ent0012" data-link-type="dependency" data-source-line="26" id="lnk22"><path codeLine="26" d="M321.84,136.92 C339.68,143.81 360.27,153.63 376.24,166.59 C392.4,179.71 402.5833,195.0622 409.9033,208.1622" fill="none" id="AlertaPrecio-to-Notificacion" style="stroke:#181818;stroke-width:1;"/><polygon fill="#181818" points="412.83,213.4,411.9317,203.5922,410.391,209.0352,404.948,207.4945,412.83,213.4" style="stroke:#181818;stroke-width:1;"/><text fill="#000000" font-family="sans-serif" font-size="13" lengthAdjust="spacing" textLength="45.7983" x="393.24" y="179.6569">genera</text></g><?plantuml-src RL7DJiCm3BxdAV8270Q80mSa993Wm9W4YBERUgjP6rTkEZH-tXrdf6dBk5Zz_FtOSIigqJeILwEfudSNK933laqOcpRiRODDWT8PusheEllIzI34dzy9t_f09PGPtv2WSyG-TvvvYoDwG75GZlwLoYTnZoqApEsw1WlKiodNDKg0FzvNB2hcRSPB3hGcDyIPjBezERaQrhQNrWd2Z9fcHvxzcZQzW1ayKPIVgGhOID-26LjHa1-Y0dn3rmSmOoyg3dTHjkD2qFoYs4yNKaRb0Jqwj33XysQ1b3IpTQUv3NiABFG1nvfqAbNvT2IxetzqqnEgUAC3zH16JMWB3e4Ro-jXOsFjKyl1VjaLIhk4G3jEuEv-TMRGbt4S7lcdlrX35fMwpcEvY6LnUgXbBEyvv0S0?></g></svg>