<svg xmlns="http://www.w3.org/2000/svg" xmlns:xlink="http://www.w3.org/1999/xlink" contentStyleType="text/css" data-diagram-type="SALT" height="262px" preserveAspectRatio="none" style="width:557px;height:262px;background:#FFFFFF;" version="1.1" viewBox="0 0 557 262" width="557px" zoomAndPan="magnify"><?plantuml 1.2026.3beta6?><defs/><g><text fill="#000000" font-family="sans-serif" font-size="12" lengthAdjust="spacing" textLength="76.2188" x="8" y="17.1387">Leaderboard</text><line style="stroke:#000000;stroke-width:1;" x1="6" x2="6" y1="6" y2="19.9688"/><line style="stroke:#000000;stroke-width:1;" x1="6" x2="87.2188" y1="6" y2="6"/><line style="stroke:#000000;stroke-width:1;" x1="87.2188" x2="87.2188" y1="6" y2="19.9688"/><line style="stroke:#000000;stroke-width:1;" x1="87.2188" x2="97.2188" y1="19.9688" y2="19.9688"/><text fill="#000000" font-family="sans-serif" font-size="12" lengthAdjust="spacing" textLength="59.4492" x="99.2188" y="17.1387">Entidades</text><line style="stroke:#000000;stroke-width:1;" x1="97.2188" x2="97.2188" y1="6" y2="19.9688"/><line style="stroke:#000000;stroke-width:1;" x1="97.2188" x2="161.668" y1="6" y2="6"/><line style="stroke:#000000;stroke-width:1;" x1="161.668" x2="161.668" y1="6" y2="19.9688"/><line style="stroke:#000000;stroke-width:1;" x1="161.668" x2="171.668" y1="19.9688" y2="19.9688"/><text fill="#000000" font-family="sans-serif" font-size="12" font-weight="700" lengthAdjust="spacing" textLength="48.4336" x="173.668" y="17.1387">Alertas</text><line style="stroke:#000000;stroke-width:1;" x1="171.668" x2="171.668" y1="6" y2="19.9688"/><line style="stroke:#000000;stroke-width:1;" x1="171.668" x2="225.1016" y1="6" y2="6"/><line style="stroke:#000000;stroke-width:1;" x1="225.1016" x2="225.1016" y1="6" y2="19.9688"/><line style="stroke:#000000;stroke-width:1;" x1="225.1016" x2="235.1016" y1="19.9688" y2="19.9688"/><line style="stroke:#AAAAAA;stroke-width:1;" x1="6" x2="551.4648" y1="25.4688" y2="25.4688"/><text fill="#000000" font-family="sans-serif" font-size="12" font-weight="700" lengthAdjust="spacing" textLength="41.0918" x="7" y="42.1074">Token</text><text fill="#000000" font-family="sans-serif" font-size="12" font-weight="700" lengthAdjust="spacing" textLength="58.043" x="53.5781" y="42.1074">Mercado</text><text fill="#000000" font-family="sans-serif" font-size="12" font-weight="700" lengthAdjust="spacing" textLength="72.4629" x="121.5605" y="42.1074">Umbral ($)</text><text fill="#000000" font-family="sans-serif" font-size="12" font-weight="700" lengthAdjust="spacing" textLength="62.9766" x="196.0234" y="42.1074">Webhook</text><text fill="#000000" font-family="sans-serif" font-size="12" font-weight="700" lengthAdjust="spacing" textLength="46.0078" x="296.1738" y="42.1074">Estado</text><text fill="#000000" font-family="sans-serif" font-size="12" font-weight="700" lengthAdjust="spacing" textLength="59.6953" x="372.4648" y="42.1074">Acciones</text><text fill="#000000" font-family="sans-serif" font-size="12" lengthAdjust="spacing" textLength="23.9414" x="7" y="58.0762">BTC</text><text fill="#000000" font-family="sans-serif" font-size="12" lengthAdjust="spacing" textLength="65.9824" x="53.5781" y="58.0762">PerpNativo</text><text fill="#000000" font-family="sans-serif" font-size="12" lengthAdjust="spacing" textLength="49.623" x="121.5605" y="58.0762">100 000</text><text fill="#000000" font-family="sans-serif" font-size="12" lengthAdjust="spacing" textLength="98.1504" x="196.0234" y="58.0762">https://discord...</text><text fill="#000000" font-family="sans-serif" font-size="12" lengthAdjust="spacing" textLength="37.3008" x="296.1738" y="58.0762">Activa</text><rect fill="#EEEEEE" height="17.9688" rx="5" ry="5" style="stroke:#000000;stroke-width:2.5;" width="172" x="374.9648" y="49.4375"/><text fill="#000000" font-family="sans-serif" font-size="12" lengthAdjust="spacing" textLength="126.5977" x="397.666" y="62.5762">Desactivar] [Eliminar</text><text fill="#000000" font-family="sans-serif" font-size="12" lengthAdjust="spacing" textLength="32.6953" x="7" y="83.0449">PURR</text><text fill="#000000" font-family="sans-serif" font-size="12" lengthAdjust="spacing" textLength="27.2813" x="53.5781" y="83.0449">Spot</text><text fill="#000000" font-family="sans-serif" font-size="12" lengthAdjust="spacing" textLength="26.7188" x="121.5605" y="83.0449">0.50</text><text fill="#000000" font-family="sans-serif" font-size="12" lengthAdjust="spacing" textLength="98.1504" x="196.0234" y="83.0449">https://discord...</text><text fill="#000000" font-family="sans-serif" font-size="12" lengthAdjust="spacing" textLength="37.3008" x="296.1738" y="83.0449">Activa</text><rect fill="#EEEEEE" height="17.9688" rx="5" ry="5" style="stroke:#000000;stroke-width:2.5;" width="172" x="374.9648" y="74.4063"/><text fill="#000000" font-family="sans-serif" font-size="12" lengthAdjust="spacing" textLength="126.5977" x="397.666" y="87.5449">Desactivar] [Eliminar</text><text fill="#000000" font-family="sans-serif" font-size="12" lengthAdjust="spacing" textLength="44.5781" x="7" y="108.0137">FRIEND</text><text fill="#000000" font-family="sans-serif" font-size="12" lengthAdjust="spacing" textLength="54.6035" x="53.5781" y="108.0137">PerpHIP3</text><text fill="#000000" font-family="sans-serif" font-size="12" lengthAdjust="spacing" textLength="26.7188" x="121.5605" y="108.0137">2.00</text><text fill="#000000" font-family="sans-serif" font-size="12" lengthAdjust="spacing" textLength="84.9434" x="196.0234" y="108.0137">https://slack...</text><text fill="#000000" font-family="sans-serif" font-size="12" lengthAdjust="spacing" textLength="74.291" x="296.1738" y="108.0137">Desactivada</text><rect fill="#EEEEEE" height="17.9688" rx="5" ry="5" style="stroke:#000000;stroke-width:2.5;" width="148" x="374.9648" y="99.375"/><text fill="#000000" font-family="sans-serif" font-size="12" lengthAdjust="spacing" textLength="104.5781" x="396.6758" y="112.5137">Activar] [Eliminar</text><line style="stroke:#000000;stroke-width:1;" x1="6" x2="52.5781" y1="29.9688" y2="29.9688"/><line style="stroke:#000000;stroke-width:1;" x1="295.1738" x2="371.4648" y1="120.8438" y2="120.8438"/><line style="stroke:#000000;stroke-width:1;" x1="52.5781" x2="120.5605" y1="29.9688" y2="29.9688"/><line style="stroke:#000000;stroke-width:1;" x1="371.4648" x2="550.4648" y1="120.8438" y2="120.8438"/><line style="stroke:#000000;stroke-width:1;" x1="120.5605" x2="195.0234" y1="29.9688" y2="29.9688"/><line style="stroke:#000000;stroke-width:1;" x1="195.0234" x2="295.1738" y1="29.9688" y2="29.9688"/><line style="stroke:#000000;stroke-width:1;" x1="295.1738" x2="371.4648" y1="29.9688" y2="29.9688"/><line style="stroke:#000000;stroke-width:1;" x1="371.4648" x2="550.4648" y1="29.9688" y2="29.9688"/><line style="stroke:#000000;stroke-width:1;" x1="6" x2="52.5781" y1="95.875" y2="95.875"/><line style="stroke:#000000;stroke-width:1;" x1="52.5781" x2="120.5605" y1="95.875" y2="95.875"/><line style="stroke:#000000;stroke-width:1;" x1="120.5605" x2="195.0234" y1="95.875" y2="95.875"/><line style="stroke:#000000;stroke-width:1;" x1="195.0234" x2="295.1738" y1="95.875" y2="95.875"/><line style="stroke:#000000;stroke-width:1;" x1="295.1738" x2="371.4648" y1="95.875" y2="95.875"/><line style="stroke:#000000;stroke-width:1;" x1="371.4648" x2="550.4648" y1="95.875" y2="95.875"/><line style="stroke:#000000;stroke-width:1;" x1="6" x2="52.5781" y1="70.9063" y2="70.9063"/><line style="stroke:#000000;stroke-width:1;" x1="52.5781" x2="120.5605" y1="70.9063" y2="70.9063"/><line style="stroke:#000000;stroke-width:1;" x1="120.5605" x2="195.0234" y1="70.9063" y2="70.9063"/><line style="stroke:#000000;stroke-width:1;" x1="195.0234" x2="295.1738" y1="70.9063" y2="70.9063"/><line style="stroke:#000000;stroke-width:1;" x1="295.1738" x2="371.4648" y1="70.9063" y2="70.9063"/><line style="stroke:#000000;stroke-width:1;" x1="371.4648" x2="550.4648" y1="70.9063" y2="70.9063"/><line style="stroke:#000000;stroke-width:1;" x1="6" x2="52.5781" y1="45.9375" y2="45.9375"/><line style="stroke:#000000;stroke-width:1;" x1="52.5781" x2="120.5605" y1="45.9375" y2="45.9375"/><line style="stroke:#000000;stroke-width:1;" x1="120.5605" x2="195.0234" y1="45.9375" y2="45.9375"/><line style="stroke:#000000;stroke-width:1;" x1="195.0234" x2="295.1738" y1="45.9375" y2="45.9375"/><line style="stroke:#000000;stroke-width:1;" x1="295.1738" x2="371.4648" y1="45.9375" y2="45.9375"/><line style="stroke:#000000;stroke-width:1;" x1="371.4648" x2="550.4648" y1="45.9375" y2="45.9375"/><line style="stroke:#000000;stroke-width:1;" x1="6" x2="52.5781" y1="120.8438" y2="120.8438"/><line style="stroke:#000000;stroke-width:1;" x1="52.5781" x2="120.5605" y1="120.8438" y2="120.8438"/><line style="stroke:#000000;stroke-width:1;" x1="120.5605" x2="195.0234" y1="120.8438" y2="120.8438"/><line style="stroke:#000000;stroke-width:1;" x1="195.0234" x2="295.1738" y1="120.8438" y2="120.8438"/><line style="stroke:#000000;stroke-width:1;" x1="6" x2="6" y1="29.9688" y2="45.9375"/><line style="stroke:#000000;stroke-width:1;" x1="52.5781" x2="52.5781" y1="29.9688" y2="45.9375"/><line style="stroke:#000000;stroke-width:1;" x1="120.5605" x2="120.5605" y1="29.9688" y2="45.9375"/><line style="stroke:#000000;stroke-width:1;" x1="195.0234" x2="195.0234" y1="29.9688" y2="45.9375"/><line style="stroke:#000000;stroke-width:1;" x1="295.1738" x2="295.1738" y1="29.9688" y2="45.9375"/><line style="stroke:#000000;stroke-width:1;" x1="371.4648" x2="371.4648" y1="29.9688" y2="45.9375"/><line style="stroke:#000000;stroke-width:1;" x1="550.4648" x2="550.4648" y1="29.9688" y2="45.9375"/><line style="stroke:#000000;stroke-width:1;" x1="6" x2="6" y1="95.875" y2="120.8438"/><line style="stroke:#000000;stroke-width:1;" x1="52.5781" x2="52.5781" y1="95.875" y2="120.8438"/><line style="stroke:#000000;stroke-width:1;" x1="120.5605" x2="120.5605" y1="95.875" y2="120.8438"/><line style="stroke:#000000;stroke-width:1;" x1="195.0234" x2="195.0234" y1="95.875" y2="120.8438"/><line style="stroke:#000000;stroke-width:1;" x1="295.1738" x2="295.1738" y1="95.875" y2="120.8438"/><line style="stroke:#000000;stroke-width:1;" x1="371.4648" x2="371.4648" y1="95.875" y2="120.8438"/><line style="stroke:#000000;stroke-width:1;" x1="550.4648" x2="550.4648" y1="95.875" y2="120.8438"/><line style="stroke:#000000;stroke-width:1;" x1="6" x2="6" y1="70.9063" y2="95.875"/><line style="stroke:#000000;stroke-width:1;" x1="52.5781" x2="52.5781" y1="70.9063" y2="95.875"/><line style="stroke:#000000;stroke-width:1;" x1="120.5605" x2="120.5605" y1="70.9063" y2="95.875"/><line style="stroke:#000000;stroke-width:1;" x1="195.0234" x2="195.0234" y1="70.9063" y2="95.875"/><line style="stroke:#000000;stroke-width:1;" x1="295.1738" x2="295.1738" y1="70.9063" y2="95.875"/><line style="stroke:#000000;stroke-width:1;" x1="371.4648" x2="371.4648" y1="70.9063" y2="95.875"/><line style="stroke:#000000;stroke-width:1;" x1="550.4648" x2="550.4648" y1="70.9063" y2="95.875"/><line style="stroke:#000000;stroke-width:1;" x1="6" x2="6" y1="45.9375" y2="70.9063"/><line style="stroke:#000000;stroke-width:1;" x1="52.5781" x2="52.5781" y1="45.9375" y2="70.9063"/><line style="stroke:#000000;stroke-width:1;" x1="120.5605" x2="120.5605" y1="45.9375" y2="70.9063"/><line style="stroke:#000000;stroke-width:1;" x1="195.0234" x2="195.0234" y1="45.9375" y2="70.9063"/><line style="stroke:#000000;stroke-width:1;" x1="295.1738" x2="295.1738" y1="45.9375" y2="70.9063"/><line style="stroke:#000000;stroke-width:1;" x1="371.4648" x2="371.4648" y1="45.9375" y2="70.9063"/><line style="stroke:#000000;stroke-width:1;" x1="550.4648" x2="550.4648" y1="45.9375" y2="70.9063"/><line style="stroke:#AAAAAA;stroke-width:1;" x1="6" x2="551.4648" y1="126.3438" y2="126.3438"/><text fill="#000000" font-family="sans-serif" font-size="12" font-weight="700" lengthAdjust="spacing" textLength="126.4805" x="6" y="141.9824">Crear nueva alerta</text><text fill="#000000" font-family="sans-serif" font-size="12" lengthAdjust="spacing" textLength="55.623" x="7" y="158.9512">Mercado:</text><rect fill="#EEEEEE" height="16.9688" style="stroke:#000000;stroke-width:1;" width="55" x="96.7676" y="147.8125"/><text fill="#000000" font-family="sans-serif" font-size="12" lengthAdjust="spacing" textLength="27.2813" x="98.7676" y="160.9512">Spot</text><line style="stroke:#000000;stroke-width:1;" x1="140.7676" x2="140.7676" y1="147.8125" y2="164.7813"/><polygon fill="#000000" points="143.7676,153.8125,149.7676,153.8125,146.7676,159.7813" style="stroke:#000000;stroke-width:1;"/><rect fill="#EEEEEE" height="26.9375" style="stroke:#000000;stroke-width:1;" width="72.6113" x="96.7676" y="164.7813"/><text fill="#000000" font-family="sans-serif" font-size="12" lengthAdjust="spacing" textLength="65.9824" x="100.582" y="175.9199">PerpNativo</text><text fill="#000000" font-family="sans-serif" font-size="12" lengthAdjust="spacing" textLength="54.6035" x="100.582" y="189.8887">PerpHIP3</text><text fill="#000000" font-family="sans-serif" font-size="12" lengthAdjust="spacing" textLength="40.6523" x="7" y="178.9199">Token:</text><rect fill="#EEEEEE" height="16.9688" style="stroke:#000000;stroke-width:1;" width="39" x="96.7676" y="167.7813"/><text fill="#000000" font-family="sans-serif" font-size="12" lengthAdjust="spacing" textLength="23.9414" x="98.7676" y="180.9199">BTC</text><line style="stroke:#000000;stroke-width:1;" x1="124.7676" x2="124.7676" y1="167.7813" y2="184.75"/><polygon fill="#000000" points="127.7676,173.7813,133.7676,173.7813,130.7676,179.75" style="stroke:#000000;stroke-width:1;"/><text fill="#000000" font-family="sans-serif" font-size="12" lengthAdjust="spacing" textLength="68.5664" x="7" y="198.8887">Umbral ($):</text><text fill="#000000" font-family="sans-serif" font-size="12" lengthAdjust="spacing" textLength="3.8145" x="99.7676" y="198.8887">&#160;</text><line style="stroke:#000000;stroke-width:1;" x1="97.7676" x2="180.7676" y1="201.7188" y2="201.7188"/><line style="stroke:#000000;stroke-width:1;" x1="97.7676" x2="97.7676" y1="198.7188" y2="200.7188"/><line style="stroke:#000000;stroke-width:1;" x1="180.7676" x2="180.7676" y1="198.7188" y2="200.7188"/><text fill="#000000" font-family="sans-serif" font-size="12" lengthAdjust="spacing" textLength="87.7676" x="7" y="216.8574">URL Webhook:</text><text fill="#000000" font-family="sans-serif" font-size="12" lengthAdjust="spacing" textLength="3.8145" x="99.7676" y="216.8574">&#160;</text><line style="stroke:#000000;stroke-width:1;" x1="97.7676" x2="340.7676" y1="219.6875" y2="219.6875"/><line style="stroke:#000000;stroke-width:1;" x1="97.7676" x2="97.7676" y1="216.6875" y2="218.6875"/><line style="stroke:#000000;stroke-width:1;" x1="340.7676" x2="340.7676" y1="216.6875" y2="218.6875"/><line style="stroke:#AAAAAA;stroke-width:1;" x1="6" x2="551.4648" y1="228.1875" y2="228.1875"/><rect fill="#EEEEEE" height="17.9688" rx="5" ry="5" style="stroke:#000000;stroke-width:2.5;" width="100" x="8.5" y="235.1875"/><text fill="#000000" font-family="sans-serif" font-size="12" lengthAdjust="spacing" textLength="71.8594" x="22.5703" y="248.3262">Crear alerta</text><line style="stroke:#000000;stroke-width:1;" x1="5" x2="551.4648" y1="5" y2="5"/><line style="stroke:#000000;stroke-width:1;" x1="5" x2="551.4648" y1="256.6563" y2="256.6563"/><line style="stroke:#000000;stroke-width:1;" x1="5" x2="5" y1="5" y2="20.9688"/><line style="stroke:#000000;stroke-width:1;" x1="551.4648" x2="551.4648" y1="5" y2="20.9688"/><line style="stroke:#000000;stroke-width:1;" x1="5" x2="5" y1="231.6875" y2="256.6563"/><line style="stroke:#000000;stroke-width:1;" x1="551.4648" x2="551.4648" y1="231.6875" y2="256.6563"/><line style="stroke:#000000;stroke-width:1;" x1="5" x2="5" y1="145.8125" y2="223.6875"/><line style="stroke:#000000;stroke-width:1;" x1="551.4648" x2="551.4648" y1="145.8125" y2="223.6875"/><line style="stroke:#000000;stroke-width:1;" x1="5" x2="5" y1="121.8438" y2="129.8438"/><line style="stroke:#000000;stroke-width:1;" x1="551.4648" x2="551.4648" y1="121.8438" y2="129.8438"/><line style="stroke:#000000;stroke-width:1;" x1="5" x2="5" y1="20.9688" y2="28.9688"/><line style="stroke:#000000;stroke-width:1;" x1="551.4648" x2="551.4648" y1="20.9688" y2="28.9688"/><line style="stroke:#000000;stroke-width:1;" x1="5" x2="5" y1="223.6875" y2="231.6875"/><line style="stroke:#000000;stroke-width:1;" x1="551.4648" x2="551.4648" y1="223.6875" y2="231.6875"/><line style="stroke:#000000;stroke-width:1;" x1="5" x2="5" y1="129.8438" y2="145.8125"/><line style="stroke:#000000;stroke-width:1;" x1="551.4648" x2="551.4648" y1="129.8438" y2="145.8125"/><line style="stroke:#000000;stroke-width:1;" x1="5" x2="5" y1="28.9688" y2="121.8438"/><line style="stroke:#000000;stroke-width:1;" x1="551.4648" x2="551.4648" y1="28.9688" y2="121.8438"/><rect fill="#EEEEEE" height="26.9375" style="stroke:#000000;stroke-width:1;" width="72.6113" x="96.7676" y="164.7813"/><text fill="#000000" font-family="sans-serif" font-size="12" lengthAdjust="spacing" textLength="65.9824" x="100.582" y="175.9199">PerpNativo</text><text fill="#000000" font-family="sans-serif" font-size="12" lengthAdjust="spacing" textLength="54.6035" x="100.582" y="189.8887">PerpHIP3</text><?plantuml-src fL9TQy8m57tlhmXk3nl369NvKCQmquu9JgHJzY0MRfiB5ciZIRONvtzVFahhmBS5Mf9px-avDwTZfK5g1QKEJWy18QSUcIDmb9a0oSaFYIjTS0Ceit_AdgCIfGP5pgQts-rQnerv4LjRYJrMlkqTPGvSs88xhm-PX9BStTxxyoTcEo7sf5aEZOqPJwg1ACyBKQ5o2Y-hYSENA8yBqCMtiAS-OuIPfoRjj3wgiDVZXSg5v9HIYqQvQOTMQpD51GwJMxA9o-9GL6RhP9Rh9B4z7qUXMmQZZ-p2xFzbNfDPl9ZwQTvcow5d32Yx9gDAoFTEnABDLpbucUYgHXkHkSc9H92a-aBZ3ro6DZhdfCugh3LJDtXwUSrfup9r31TqsBXCJJA-qCOSsaAdpRVZwycSrD67V-lNLkVF41i_WZU_3Sx162lkVjoWJmTiCAB333MCVW40?></g></svg>