<?plantuml 1.2026.1?><svg xmlns="http://www.w3.org/2000/svg" xmlns:xlink="http://www.w3.org/1999/xlink" contentStyleType="text/css" data-diagram-type="SALT" height="146px" preserveAspectRatio="none" style="width:514px;height:146px;background:#FFFFFF;" version="1.1" viewBox="0 0 514 146" width="514px" zoomAndPan="magnify"><defs/><g><text fill="#000000" font-family="sans-serif" font-size="12" font-weight="bold" lengthAdjust="spacing" textLength="108.4922" x="6" y="17.1387">Alerta de precio</text><line style="stroke:#AAAAAA;stroke-width:1;" x1="6" x2="448.7676" y1="25.4688" y2="25.4688"/><text fill="#000000" font-family="sans-serif" font-size="12" lengthAdjust="spacing" textLength="55.623" x="7" y="42.1074">Mercado:</text><rect fill="#EEEEEE" height="16.9688" style="stroke:#000000;stroke-width:1;" width="47" x="96.7676" y="30.9688"/><text fill="#000000" font-family="sans-serif" font-size="12" lengthAdjust="spacing" textLength="27.2813" x="98.7676" y="44.1074">Spot</text><line style="stroke:#000000;stroke-width:1;" x1="132.7676" x2="132.7676" y1="30.9688" y2="47.9375"/><polygon fill="#000000" points="135.7676,36.9688,141.7676,36.9688,138.7676,42.9375" style="stroke:#000000;stroke-width:1;"/><rect fill="#EEEEEE" height="54.875" style="stroke:#000000;stroke-width:1;" width="67.4258" x="96.7676" y="47.9375"/><text fill="#000000" font-family="sans-serif" font-size="12" lengthAdjust="spacing" textLength="3.8145" x="96.7676" y="59.0762">&#160;</text><text fill="#000000" font-family="sans-serif" font-size="12" lengthAdjust="spacing" textLength="68.4258" x="96.7676" y="73.0449">Perp nativo</text><text fill="#000000" font-family="sans-serif" font-size="12" lengthAdjust="spacing" textLength="3.8145" x="96.7676" y="87.0137">&#160;</text><text fill="#000000" font-family="sans-serif" font-size="12" lengthAdjust="spacing" textLength="62.748" x="96.7676" y="100.9824">Perp HIP-3</text><text fill="#000000" font-family="sans-serif" font-size="12" lengthAdjust="spacing" textLength="40.6523" x="7" y="62.0762">Token:</text><rect fill="#EEEEEE" height="16.9688" style="stroke:#000000;stroke-width:1;" width="39" x="96.7676" y="50.9375"/><text fill="#000000" font-family="sans-serif" font-size="12" lengthAdjust="spacing" textLength="23.9414" x="98.7676" y="64.0762">BTC</text><line style="stroke:#000000;stroke-width:1;" x1="124.7676" x2="124.7676" y1="50.9375" y2="67.9063"/><polygon fill="#000000" points="127.7676,56.9375,133.7676,56.9375,130.7676,62.9063" style="stroke:#000000;stroke-width:1;"/><text fill="#000000" font-family="sans-serif" font-size="12" lengthAdjust="spacing" textLength="68.5664" x="7" y="82.0449">Umbral ($):</text><text fill="#000000" font-family="sans-serif" font-size="12" lengthAdjust="spacing" textLength="45.8086" x="99.7676" y="82.0449">100000</text><line style="stroke:#000000;stroke-width:1;" x1="97.7676" x2="308.7676" y1="84.875" y2="84.875"/><line style="stroke:#000000;stroke-width:1;" x1="97.7676" x2="97.7676" y1="81.875" y2="83.875"/><line style="stroke:#000000;stroke-width:1;" x1="308.7676" x2="308.7676" y1="81.875" y2="83.875"/><text fill="#000000" font-family="sans-serif" font-size="12" lengthAdjust="spacing" textLength="87.7676" x="7" y="100.0137">URL Webhook:</text><text fill="#000000" font-family="sans-serif" font-size="12" lengthAdjust="spacing" textLength="54.457" x="99.7676" y="100.0137">https://...</text><line style="stroke:#000000;stroke-width:1;" x1="97.7676" x2="444.7676" y1="102.8438" y2="102.8438"/><line style="stroke:#000000;stroke-width:1;" x1="97.7676" x2="97.7676" y1="99.8438" y2="101.8438"/><line style="stroke:#000000;stroke-width:1;" x1="444.7676" x2="444.7676" y1="99.8438" y2="101.8438"/><line style="stroke:#AAAAAA;stroke-width:1;" x1="6" x2="448.7676" y1="111.3438" y2="111.3438"/><rect fill="#EEEEEE" height="17.9688" rx="5" ry="5" style="stroke:#000000;stroke-width:2.5;" width="60" x="8.5" y="118.3438"/><text fill="#000000" font-family="sans-serif" font-size="12" lengthAdjust="spacing" textLength="49.0957" x="13.9521" y="131.4824">Guardar</text><rect fill="#EEEEEE" height="17.9688" rx="5" ry="5" style="stroke:#000000;stroke-width:2.5;" width="52" x="452.2676" y="118.3438"/><text fill="#000000" font-family="sans-serif" font-size="12" lengthAdjust="spacing" textLength="38.3027" x="459.1162" y="131.4824">Volver</text><line style="stroke:#000000;stroke-width:1;" x1="5" x2="448.7676" y1="5" y2="5"/><line style="stroke:#000000;stroke-width:1;" x1="448.7676" x2="507.7676" y1="5" y2="5"/><line style="stroke:#000000;stroke-width:1;" x1="5" x2="448.7676" y1="139.8125" y2="139.8125"/><line style="stroke:#000000;stroke-width:1;" x1="448.7676" x2="507.7676" y1="139.8125" y2="139.8125"/><line style="stroke:#000000;stroke-width:1;" x1="5" x2="5" y1="5" y2="20.9688"/><line style="stroke:#000000;stroke-width:1;" x1="507.7676" x2="507.7676" y1="28.9688" y2="106.8438"/><line style="stroke:#000000;stroke-width:1;" x1="507.7676" x2="507.7676" y1="20.9688" y2="28.9688"/><line style="stroke:#000000;stroke-width:1;" x1="507.7676" x2="507.7676" y1="5" y2="20.9688"/><line style="stroke:#000000;stroke-width:1;" x1="5" x2="5" y1="114.8438" y2="139.8125"/><line style="stroke:#000000;stroke-width:1;" x1="5" x2="5" y1="106.8438" y2="114.8438"/><line style="stroke:#000000;stroke-width:1;" x1="5" x2="5" y1="28.9688" y2="106.8438"/><line style="stroke:#000000;stroke-width:1;" x1="507.7676" x2="507.7676" y1="114.8438" y2="139.8125"/><line style="stroke:#000000;stroke-width:1;" x1="5" x2="5" y1="20.9688" y2="28.9688"/><line style="stroke:#000000;stroke-width:1;" x1="507.7676" x2="507.7676" y1="106.8438" y2="114.8438"/><rect fill="#EEEEEE" height="54.875" style="stroke:#000000;stroke-width:1;" width="67.4258" x="96.7676" y="47.9375"/><text fill="#000000" font-family="sans-serif" font-size="12" lengthAdjust="spacing" textLength="3.8145" x="96.7676" y="59.0762">&#160;</text><text fill="#000000" font-family="sans-serif" font-size="12" lengthAdjust="spacing" textLength="68.4258" x="96.7676" y="73.0449">Perp nativo</text><text fill="#000000" font-family="sans-serif" font-size="12" lengthAdjust="spacing" textLength="3.8145" x="96.7676" y="87.0137">&#160;</text><text fill="#000000" font-family="sans-serif" font-size="12" lengthAdjust="spacing" textLength="62.748" x="96.7676" y="100.9824">Perp HIP-3</text><?plantuml-src XP1D2u9048Rl-ok6w524Qnfqa0YhGmK5qUT155OTK39NnisBzT-pxUCKzC8CpBmyByoufHAaIf4fLlSOm2WSJp8a9I16A0YZL3PRmp2QNZS5i4QAH2mTqBf1i2ka2Y3O81MG2vLMyZCjbXjZ46XgBy-OlnbDJVUpbtEuX2GowBIxZdPQLlyf-A7M2zYku8HX8kNPqK2YL54wfiavXpzw9jo_1tdpgw1OaD-aU4UPLKW-kpCNyrX_X5dSxjj3RZq0?></g></svg>