<svg xmlns="http://www.w3.org/2000/svg" xmlns:xlink="http://www.w3.org/1999/xlink" contentStyleType="text/css" data-diagram-type="SALT" height="202px" preserveAspectRatio="none" style="width:369px;height:202px;background:#FFFFFF;" version="1.1" viewBox="0 0 369 202" width="369px" zoomAndPan="magnify"><?plantuml 1.2026.3beta6?><defs/><g><text fill="#000000" font-family="sans-serif" font-size="12" font-weight="700" lengthAdjust="spacing" textLength="85.9688" x="8" y="17.1387">Leaderboard</text><line style="stroke:#000000;stroke-width:1;" x1="6" x2="6" y1="6" y2="19.9688"/><line style="stroke:#000000;stroke-width:1;" x1="6" x2="96.9688" y1="6" y2="6"/><line style="stroke:#000000;stroke-width:1;" x1="96.9688" x2="96.9688" y1="6" y2="19.9688"/><line style="stroke:#000000;stroke-width:1;" x1="96.9688" x2="106.9688" y1="19.9688" y2="19.9688"/><text fill="#000000" font-family="sans-serif" font-size="12" lengthAdjust="spacing" textLength="59.4492" x="108.9688" y="17.1387">Entidades</text><line style="stroke:#000000;stroke-width:1;" x1="106.9688" x2="106.9688" y1="6" y2="19.9688"/><line style="stroke:#000000;stroke-width:1;" x1="106.9688" x2="171.418" y1="6" y2="6"/><line style="stroke:#000000;stroke-width:1;" x1="171.418" x2="171.418" y1="6" y2="19.9688"/><line style="stroke:#000000;stroke-width:1;" x1="171.418" x2="181.418" y1="19.9688" y2="19.9688"/><text fill="#000000" font-family="sans-serif" font-size="12" lengthAdjust="spacing" textLength="42.1699" x="183.418" y="17.1387">Alertas</text><line style="stroke:#000000;stroke-width:1;" x1="181.418" x2="181.418" y1="6" y2="19.9688"/><line style="stroke:#000000;stroke-width:1;" x1="181.418" x2="228.5879" y1="6" y2="6"/><line style="stroke:#000000;stroke-width:1;" x1="228.5879" x2="228.5879" y1="6" y2="19.9688"/><line style="stroke:#000000;stroke-width:1;" x1="228.5879" x2="238.5879" y1="19.9688" y2="19.9688"/><line style="stroke:#AAAAAA;stroke-width:1;" x1="6" x2="363.6035" y1="25.4688" y2="25.4688"/><text fill="#000000" font-family="sans-serif" font-size="12" lengthAdjust="spacing" textLength="55.623" x="7" y="42.1074">Mercado:</text><rect fill="#EEEEEE" height="16.9688" style="stroke:#000000;stroke-width:1;" width="55" x="95.9473" y="30.9688"/><text fill="#000000" font-family="sans-serif" font-size="12" lengthAdjust="spacing" textLength="27.2813" x="97.9473" y="44.1074">Spot</text><line style="stroke:#000000;stroke-width:1;" x1="139.9473" x2="139.9473" y1="30.9688" y2="47.9375"/><polygon fill="#000000" points="142.9473,36.9688,148.9473,36.9688,145.9473,42.9375" style="stroke:#000000;stroke-width:1;"/><rect fill="#EEEEEE" height="26.9375" style="stroke:#000000;stroke-width:1;" width="87.5586" x="95.9473" y="47.9375"/><text fill="#000000" font-family="sans-serif" font-size="12" lengthAdjust="spacing" textLength="80.9297" x="99.7617" y="59.0762">Perps nativos</text><text fill="#000000" font-family="sans-serif" font-size="12" lengthAdjust="spacing" textLength="69" x="99.7617" y="73.0449">Perps HIP-3</text><text fill="#000000" font-family="sans-serif" font-size="12" lengthAdjust="spacing" textLength="40.6523" x="7" y="62.0762">Token:</text><rect fill="#EEEEEE" height="16.9688" style="stroke:#000000;stroke-width:1;" width="47.6953" x="95.9473" y="50.9375"/><text fill="#000000" font-family="sans-serif" font-size="12" lengthAdjust="spacing" textLength="32.6953" x="97.9473" y="64.0762">PURR</text><line style="stroke:#000000;stroke-width:1;" x1="132.6426" x2="132.6426" y1="50.9375" y2="67.9063"/><polygon fill="#000000" points="135.6426,56.9375,141.6426,56.9375,138.6426,62.9063" style="stroke:#000000;stroke-width:1;"/><text fill="#000000" font-family="sans-serif" font-size="12" lengthAdjust="spacing" textLength="86.9473" x="7" y="82.0449">Temporalidad:</text><rect fill="#EEEEEE" height="16.9688" style="stroke:#000000;stroke-width:1;" width="39" x="95.9473" y="70.9063"/><text fill="#000000" font-family="sans-serif" font-size="12" lengthAdjust="spacing" textLength="15.2402" x="97.9473" y="84.0449">1h</text><line style="stroke:#000000;stroke-width:1;" x1="123.9473" x2="123.9473" y1="70.9063" y2="87.875"/><polygon fill="#000000" points="126.9473,76.9063,132.9473,76.9063,129.9473,82.875" style="stroke:#000000;stroke-width:1;"/><rect fill="#EEEEEE" height="68.8438" style="stroke:#000000;stroke-width:1;" width="38" x="95.9473" y="87.875"/><text fill="#000000" font-family="sans-serif" font-size="12" lengthAdjust="spacing" textLength="15.2402" x="99.7617" y="99.0137">4h</text><text fill="#000000" font-family="sans-serif" font-size="12" lengthAdjust="spacing" textLength="15.2402" x="99.7617" y="112.9824">6h</text><text fill="#000000" font-family="sans-serif" font-size="12" lengthAdjust="spacing" textLength="22.875" x="99.7617" y="126.9512">12h</text><text fill="#000000" font-family="sans-serif" font-size="12" lengthAdjust="spacing" textLength="15.252" x="99.7617" y="140.9199">1d</text><text fill="#000000" font-family="sans-serif" font-size="12" lengthAdjust="spacing" textLength="17.4492" x="99.7617" y="154.8887">1w</text><line style="stroke:#AAAAAA;stroke-width:1;" x1="6" x2="363.6035" y1="95.375" y2="95.375"/><text fill="#000000" font-family="sans-serif" font-size="12" font-weight="700" lengthAdjust="spacing" textLength="24.1816" x="7" y="112.0137">Pos</text><text fill="#000000" font-family="sans-serif" font-size="12" font-weight="700" lengthAdjust="spacing" textLength="127.8633" x="33.1816" y="112.0137">Direccion / Entidad</text><text fill="#000000" font-family="sans-serif" font-size="12" font-weight="700" lengthAdjust="spacing" textLength="104.3438" x="163.0449" y="112.0137">Vol. compra ($)</text><text fill="#000000" font-family="sans-serif" font-size="12" font-weight="700" lengthAdjust="spacing" textLength="92.2148" x="269.3887" y="112.0137">Vol. venta ($)</text><text fill="#000000" font-family="sans-serif" font-size="12" lengthAdjust="spacing" textLength="7.6348" x="7" y="127.9824">1</text><text fill="#000000" font-family="sans-serif" font-size="12" lengthAdjust="spacing" textLength="71.209" x="33.1816" y="127.9824">Wintermute</text><text fill="#000000" font-family="sans-serif" font-size="12" lengthAdjust="spacing" textLength="61.0723" x="163.0449" y="127.9824">1 200 000</text><text fill="#000000" font-family="sans-serif" font-size="12" lengthAdjust="spacing" textLength="49.623" x="269.3887" y="127.9824">340 000</text><text fill="#000000" font-family="sans-serif" font-size="12" lengthAdjust="spacing" textLength="7.6348" x="7" y="143.9512">2</text><text fill="#000000" font-family="sans-serif" font-size="12" lengthAdjust="spacing" textLength="67.2422" x="33.1816" y="143.9512">0xabc1...f3</text><text fill="#000000" font-family="sans-serif" font-size="12" lengthAdjust="spacing" textLength="49.623" x="163.0449" y="143.9512">890 000</text><text fill="#000000" font-family="sans-serif" font-size="12" lengthAdjust="spacing" textLength="49.623" x="269.3887" y="143.9512">120 000</text><text fill="#000000" font-family="sans-serif" font-size="12" lengthAdjust="spacing" textLength="7.6348" x="7" y="159.9199">3</text><text fill="#000000" font-family="sans-serif" font-size="12" lengthAdjust="spacing" textLength="68.3086" x="33.1816" y="159.9199">0x9ef4...b2</text><text fill="#000000" font-family="sans-serif" font-size="12" lengthAdjust="spacing" textLength="49.623" x="163.0449" y="159.9199">540 000</text><text fill="#000000" font-family="sans-serif" font-size="12" lengthAdjust="spacing" textLength="49.623" x="269.3887" y="159.9199">780 000</text><text fill="#000000" font-family="sans-serif" font-size="12" lengthAdjust="spacing" textLength="7.6348" x="7" y="175.8887">4</text><text fill="#000000" font-family="sans-serif" font-size="12" lengthAdjust="spacing" textLength="68.0273" x="33.1816" y="175.8887">0xdef2...a7</text><text fill="#000000" font-family="sans-serif" font-size="12" lengthAdjust="spacing" textLength="49.623" x="163.0449" y="175.8887">310 000</text><text fill="#000000" font-family="sans-serif" font-size="12" lengthAdjust="spacing" textLength="49.623" x="269.3887" y="175.8887">420 000</text><text fill="#000000" font-family="sans-serif" font-size="12" lengthAdjust="spacing" textLength="7.6348" x="7" y="191.8574">5</text><text fill="#000000" font-family="sans-serif" font-size="12" lengthAdjust="spacing" textLength="70.6816" x="33.1816" y="191.8574">0x7bc3...e1</text><text fill="#000000" font-family="sans-serif" font-size="12" lengthAdjust="spacing" textLength="49.623" x="163.0449" y="191.8574">210 000</text><text fill="#000000" font-family="sans-serif" font-size="12" lengthAdjust="spacing" textLength="49.623" x="269.3887" y="191.8574">150 000</text><line style="stroke:#000000;stroke-width:1;" x1="6" x2="32.1816" y1="99.875" y2="99.875"/><line style="stroke:#000000;stroke-width:1;" x1="32.1816" x2="162.0449" y1="99.875" y2="99.875"/><line style="stroke:#000000;stroke-width:1;" x1="162.0449" x2="268.3887" y1="99.875" y2="99.875"/><line style="stroke:#000000;stroke-width:1;" x1="268.3887" x2="362.6035" y1="99.875" y2="99.875"/><line style="stroke:#000000;stroke-width:1;" x1="6" x2="32.1816" y1="147.7813" y2="147.7813"/><line style="stroke:#000000;stroke-width:1;" x1="32.1816" x2="162.0449" y1="147.7813" y2="147.7813"/><line style="stroke:#000000;stroke-width:1;" x1="162.0449" x2="268.3887" y1="147.7813" y2="147.7813"/><line style="stroke:#000000;stroke-width:1;" x1="268.3887" x2="362.6035" y1="147.7813" y2="147.7813"/><line style="stroke:#000000;stroke-width:1;" x1="6" x2="32.1816" y1="195.6875" y2="195.6875"/><line style="stroke:#000000;stroke-width:1;" x1="32.1816" x2="162.0449" y1="195.6875" y2="195.6875"/><line style="stroke:#000000;stroke-width:1;" x1="162.0449" x2="268.3887" y1="195.6875" y2="195.6875"/><line style="stroke:#000000;stroke-width:1;" x1="268.3887" x2="362.6035" y1="195.6875" y2="195.6875"/><line style="stroke:#000000;stroke-width:1;" x1="6" x2="32.1816" y1="131.8125" y2="131.8125"/><line style="stroke:#000000;stroke-width:1;" x1="32.1816" x2="162.0449" y1="131.8125" y2="131.8125"/><line style="stroke:#000000;stroke-width:1;" x1="162.0449" x2="268.3887" y1="131.8125" y2="131.8125"/><line style="stroke:#000000;stroke-width:1;" x1="268.3887" x2="362.6035" y1="131.8125" y2="131.8125"/><line style="stroke:#000000;stroke-width:1;" x1="6" x2="32.1816" y1="179.7188" y2="179.7188"/><line style="stroke:#000000;stroke-width:1;" x1="32.1816" x2="162.0449" y1="179.7188" y2="179.7188"/><line style="stroke:#000000;stroke-width:1;" x1="162.0449" x2="268.3887" y1="179.7188" y2="179.7188"/><line style="stroke:#000000;stroke-width:1;" x1="268.3887" x2="362.6035" y1="179.7188" y2="179.7188"/><line style="stroke:#000000;stroke-width:1;" x1="6" x2="32.1816" y1="115.8438" y2="115.8438"/><line style="stroke:#000000;stroke-width:1;" x1="32.1816" x2="162.0449" y1="115.8438" y2="115.8438"/><line style="stroke:#000000;stroke-width:1;" x1="162.0449" x2="268.3887" y1="115.8438" y2="115.8438"/><line style="stroke:#000000;stroke-width:1;" x1="268.3887" x2="362.6035" y1="115.8438" y2="115.8438"/><line style="stroke:#000000;stroke-width:1;" x1="6" x2="32.1816" y1="163.75" y2="163.75"/><line style="stroke:#000000;stroke-width:1;" x1="32.1816" x2="162.0449" y1="163.75" y2="163.75"/><line style="stroke:#000000;stroke-width:1;" x1="162.0449" x2="268.3887" y1="163.75" y2="163.75"/><line style="stroke:#000000;stroke-width:1;" x1="268.3887" x2="362.6035" y1="163.75" y2="163.75"/><line style="stroke:#000000;stroke-width:1;" x1="6" x2="6" y1="99.875" y2="115.8438"/><line style="stroke:#000000;stroke-width:1;" x1="362.6035" x2="362.6035" y1="163.75" y2="179.7188"/><line style="stroke:#000000;stroke-width:1;" x1="32.1816" x2="32.1816" y1="99.875" y2="115.8438"/><line style="stroke:#000000;stroke-width:1;" x1="162.0449" x2="162.0449" y1="99.875" y2="115.8438"/><line style="stroke:#000000;stroke-width:1;" x1="268.3887" x2="268.3887" y1="99.875" y2="115.8438"/><line style="stroke:#000000;stroke-width:1;" x1="362.6035" x2="362.6035" y1="99.875" y2="115.8438"/><line style="stroke:#000000;stroke-width:1;" x1="6" x2="6" y1="147.7813" y2="163.75"/><line style="stroke:#000000;stroke-width:1;" x1="32.1816" x2="32.1816" y1="147.7813" y2="163.75"/><line style="stroke:#000000;stroke-width:1;" x1="162.0449" x2="162.0449" y1="147.7813" y2="163.75"/><line style="stroke:#000000;stroke-width:1;" x1="268.3887" x2="268.3887" y1="147.7813" y2="163.75"/><line style="stroke:#000000;stroke-width:1;" x1="362.6035" x2="362.6035" y1="147.7813" y2="163.75"/><line style="stroke:#000000;stroke-width:1;" x1="6" x2="6" y1="131.8125" y2="147.7813"/><line style="stroke:#000000;stroke-width:1;" x1="32.1816" x2="32.1816" y1="131.8125" y2="147.7813"/><line style="stroke:#000000;stroke-width:1;" x1="162.0449" x2="162.0449" y1="131.8125" y2="147.7813"/><line style="stroke:#000000;stroke-width:1;" x1="268.3887" x2="268.3887" y1="131.8125" y2="147.7813"/><line style="stroke:#000000;stroke-width:1;" x1="362.6035" x2="362.6035" y1="131.8125" y2="147.7813"/><line style="stroke:#000000;stroke-width:1;" x1="6" x2="6" y1="179.7188" y2="195.6875"/><line style="stroke:#000000;stroke-width:1;" x1="32.1816" x2="32.1816" y1="179.7188" y2="195.6875"/><line style="stroke:#000000;stroke-width:1;" x1="162.0449" x2="162.0449" y1="179.7188" y2="195.6875"/><line style="stroke:#000000;stroke-width:1;" x1="268.3887" x2="268.3887" y1="179.7188" y2="195.6875"/><line style="stroke:#000000;stroke-width:1;" x1="6" x2="6" y1="115.8438" y2="131.8125"/><line style="stroke:#000000;stroke-width:1;" x1="362.6035" x2="362.6035" y1="179.7188" y2="195.6875"/><line style="stroke:#000000;stroke-width:1;" x1="32.1816" x2="32.1816" y1="115.8438" y2="131.8125"/><line style="stroke:#000000;stroke-width:1;" x1="162.0449" x2="162.0449" y1="115.8438" y2="131.8125"/><line style="stroke:#000000;stroke-width:1;" x1="268.3887" x2="268.3887" y1="115.8438" y2="131.8125"/><line style="stroke:#000000;stroke-width:1;" x1="362.6035" x2="362.6035" y1="115.8438" y2="131.8125"/><line style="stroke:#000000;stroke-width:1;" x1="6" x2="6" y1="163.75" y2="179.7188"/><line style="stroke:#000000;stroke-width:1;" x1="32.1816" x2="32.1816" y1="163.75" y2="179.7188"/><line style="stroke:#000000;stroke-width:1;" x1="162.0449" x2="162.0449" y1="163.75" y2="179.7188"/><line style="stroke:#000000;stroke-width:1;" x1="268.3887" x2="268.3887" y1="163.75" y2="179.7188"/><line style="stroke:#000000;stroke-width:1;" x1="5" x2="363.6035" y1="5" y2="5"/><line style="stroke:#000000;stroke-width:1;" x1="5" x2="363.6035" y1="196.6875" y2="196.6875"/><line style="stroke:#000000;stroke-width:1;" x1="5" x2="5" y1="5" y2="20.9688"/><line style="stroke:#000000;stroke-width:1;" x1="363.6035" x2="363.6035" y1="20.9688" y2="28.9688"/><line style="stroke:#000000;stroke-width:1;" x1="363.6035" x2="363.6035" y1="5" y2="20.9688"/><line style="stroke:#000000;stroke-width:1;" x1="5" x2="5" y1="98.875" y2="196.6875"/><line style="stroke:#000000;stroke-width:1;" x1="5" x2="5" y1="90.875" y2="98.875"/><line style="stroke:#000000;stroke-width:1;" x1="363.6035" x2="363.6035" y1="98.875" y2="196.6875"/><line style="stroke:#000000;stroke-width:1;" x1="5" x2="5" y1="28.9688" y2="90.875"/><line style="stroke:#000000;stroke-width:1;" x1="363.6035" x2="363.6035" y1="90.875" y2="98.875"/><line style="stroke:#000000;stroke-width:1;" x1="5" x2="5" y1="20.9688" y2="28.9688"/><line style="stroke:#000000;stroke-width:1;" x1="363.6035" x2="363.6035" y1="28.9688" y2="90.875"/><rect fill="#EEEEEE" height="26.9375" style="stroke:#000000;stroke-width:1;" width="87.5586" x="95.9473" y="47.9375"/><text fill="#000000" font-family="sans-serif" font-size="12" lengthAdjust="spacing" textLength="80.9297" x="99.7617" y="59.0762">Perps nativos</text><text fill="#000000" font-family="sans-serif" font-size="12" lengthAdjust="spacing" textLength="69" x="99.7617" y="73.0449">Perps HIP-3</text><rect fill="#EEEEEE" height="68.8438" style="stroke:#000000;stroke-width:1;" width="38" x="95.9473" y="87.875"/><text fill="#000000" font-family="sans-serif" font-size="12" lengthAdjust="spacing" textLength="15.2402" x="99.7617" y="99.0137">4h</text><text fill="#000000" font-family="sans-serif" font-size="12" lengthAdjust="spacing" textLength="15.2402" x="99.7617" y="112.9824">6h</text><text fill="#000000" font-family="sans-serif" font-size="12" lengthAdjust="spacing" textLength="22.875" x="99.7617" y="126.9512">12h</text><text fill="#000000" font-family="sans-serif" font-size="12" lengthAdjust="spacing" textLength="15.252" x="99.7617" y="140.9199">1d</text><text fill="#000000" font-family="sans-serif" font-size="12" lengthAdjust="spacing" textLength="17.4492" x="99.7617" y="154.8887">1w</text><?plantuml-src RT9TIyCm50RW-_wA0tgXIBicQVU5o0G51OKol-u6QNE6nQufQPp2jl_kQUXSMHV88NsRypI1pcehZQrbORtDbGUm6S1rUlE4Kg59jJGAjd1VsbnHKDFwja1ZPGqxsklxVjD14-0PJIQLdjAMnKkbBImWGLFLK4gRhtNz__pmcFXYuNfUzHUMKrfGJ_8sdxSfhYfjPD5yqd7iavgZfWoRmhYhgYa_JKldA6TEe0iakZaiBUvoWrcMwn86-tk06-xjkou2oFIgCX8kpYyxuHfBwp8dCjVmaPSMpUhR8XoFBMtXOGWXpKue8XSvWxia_9Lfne8WM8g-CPuS2Gxc1qEqnWIN4HafxnjnTC8OZGz6r1eAbvmCEUeRWfqmeiuvujOOfPaW0rdVuASC5k-DdRVpPbWgz-TvBE0X7mOYHIk7Vm00?></g></svg>