<?plantuml 1.2026.1?><svg xmlns="http://www.w3.org/2000/svg" xmlns:xlink="http://www.w3.org/1999/xlink" contentStyleType="text/css" data-diagram-type="SALT" height="187px" preserveAspectRatio="none" style="width:763px;height:187px;background:#FFFFFF;" version="1.1" viewBox="0 0 763 187" width="763px" zoomAndPan="magnify"><defs/><g><text fill="#000000" font-family="sans-serif" font-size="12" font-weight="bold" lengthAdjust="spacing" textLength="115.6348" x="6" y="17.1387">Alertas de precio</text><line style="stroke:#AAAAAA;stroke-width:1;" x1="6" x2="508.5645" y1="25.4688" y2="25.4688"/><text fill="#000000" font-family="sans-serif" font-size="12" lengthAdjust="spacing" textLength="39.5391" x="6" y="41.1074">Filtrar:</text><text fill="#000000" font-family="sans-serif" font-size="12" lengthAdjust="spacing" textLength="3.8145" x="512.5645" y="41.1074">&#160;</text><line style="stroke:#000000;stroke-width:1;" x1="510.5645" x2="753.5645" y1="43.9375" y2="43.9375"/><line style="stroke:#000000;stroke-width:1;" x1="510.5645" x2="510.5645" y1="40.9375" y2="42.9375"/><line style="stroke:#000000;stroke-width:1;" x1="753.5645" x2="753.5645" y1="40.9375" y2="42.9375"/><line style="stroke:#AAAAAA;stroke-width:1;" x1="6" x2="508.5645" y1="51.4375" y2="51.4375"/><text fill="#000000" font-family="sans-serif" font-size="12" font-weight="bold" lengthAdjust="spacing" textLength="41.0918" x="7" y="68.0762">Token</text><text fill="#000000" font-family="sans-serif" font-size="12" font-weight="bold" lengthAdjust="spacing" textLength="58.043" x="53.5781" y="68.0762">Mercado</text><text fill="#000000" font-family="sans-serif" font-size="12" font-weight="bold" lengthAdjust="spacing" textLength="72.4629" x="124.0039" y="68.0762">Umbral ($)</text><text fill="#000000" font-family="sans-serif" font-size="12" font-weight="bold" lengthAdjust="spacing" textLength="62.9766" x="198.4668" y="68.0762">Webhook</text><text fill="#000000" font-family="sans-serif" font-size="12" font-weight="bold" lengthAdjust="spacing" textLength="46.0078" x="298.6172" y="68.0762">Estado</text><text fill="#000000" font-family="sans-serif" font-size="12" font-weight="bold" lengthAdjust="spacing" textLength="59.6953" x="369.5645" y="68.0762">Acciones</text><text fill="#000000" font-family="sans-serif" font-size="12" lengthAdjust="spacing" textLength="23.9414" x="7" y="84.0449">BTC</text><text fill="#000000" font-family="sans-serif" font-size="12" lengthAdjust="spacing" textLength="68.4258" x="53.5781" y="84.0449">Perp nativo</text><text fill="#000000" font-family="sans-serif" font-size="12" lengthAdjust="spacing" textLength="49.623" x="124.0039" y="84.0449">100.000</text><text fill="#000000" font-family="sans-serif" font-size="12" lengthAdjust="spacing" textLength="98.1504" x="198.4668" y="84.0449">https://discord...</text><text fill="#000000" font-family="sans-serif" font-size="12" lengthAdjust="spacing" textLength="59.2266" x="298.6172" y="84.0449">Operativa</text><rect fill="#EEEEEE" height="17.9688" rx="5" ry="5" style="stroke:#000000;stroke-width:2.5;" width="132" x="372.0645" y="75.4063"/><text fill="#000000" font-family="sans-serif" font-size="12" lengthAdjust="spacing" textLength="91.3711" x="392.3789" y="88.5449">Abrir] [Eliminar</text><text fill="#000000" font-family="sans-serif" font-size="12" lengthAdjust="spacing" textLength="32.6953" x="7" y="109.0137">PURR</text><text fill="#000000" font-family="sans-serif" font-size="12" lengthAdjust="spacing" textLength="27.2813" x="53.5781" y="109.0137">Spot</text><text fill="#000000" font-family="sans-serif" font-size="12" lengthAdjust="spacing" textLength="26.7188" x="124.0039" y="109.0137">0,50</text><text fill="#000000" font-family="sans-serif" font-size="12" lengthAdjust="spacing" textLength="98.1504" x="198.4668" y="109.0137">https://discord...</text><text fill="#000000" font-family="sans-serif" font-size="12" lengthAdjust="spacing" textLength="59.2266" x="298.6172" y="109.0137">Operativa</text><rect fill="#EEEEEE" height="17.9688" rx="5" ry="5" style="stroke:#000000;stroke-width:2.5;" width="132" x="372.0645" y="100.375"/><text fill="#000000" font-family="sans-serif" font-size="12" lengthAdjust="spacing" textLength="91.3711" x="392.3789" y="113.5137">Abrir] [Eliminar</text><text fill="#000000" font-family="sans-serif" font-size="12" lengthAdjust="spacing" textLength="44.5781" x="7" y="133.9824">FRIEND</text><text fill="#000000" font-family="sans-serif" font-size="12" lengthAdjust="spacing" textLength="62.748" x="53.5781" y="133.9824">Perp HIP-3</text><text fill="#000000" font-family="sans-serif" font-size="12" lengthAdjust="spacing" textLength="26.7188" x="124.0039" y="133.9824">2,00</text><text fill="#000000" font-family="sans-serif" font-size="12" lengthAdjust="spacing" textLength="84.9434" x="198.4668" y="133.9824">https://slack...</text><text fill="#000000" font-family="sans-serif" font-size="12" lengthAdjust="spacing" textLength="68.9473" x="298.6172" y="133.9824">Notif.fallida</text><rect fill="#EEEEEE" height="17.9688" rx="5" ry="5" style="stroke:#000000;stroke-width:2.5;" width="132" x="372.0645" y="125.3438"/><text fill="#000000" font-family="sans-serif" font-size="12" lengthAdjust="spacing" textLength="91.3711" x="392.3789" y="138.4824">Abrir] [Eliminar</text><line style="stroke:#000000;stroke-width:1;" x1="6" x2="52.5781" y1="55.9375" y2="55.9375"/><line style="stroke:#000000;stroke-width:1;" x1="297.6172" x2="368.5645" y1="146.8125" y2="146.8125"/><line style="stroke:#000000;stroke-width:1;" x1="52.5781" x2="123.0039" y1="55.9375" y2="55.9375"/><line style="stroke:#000000;stroke-width:1;" x1="368.5645" x2="507.5645" y1="146.8125" y2="146.8125"/><line style="stroke:#000000;stroke-width:1;" x1="123.0039" x2="197.4668" y1="55.9375" y2="55.9375"/><line style="stroke:#000000;stroke-width:1;" x1="197.4668" x2="297.6172" y1="55.9375" y2="55.9375"/><line style="stroke:#000000;stroke-width:1;" x1="297.6172" x2="368.5645" y1="55.9375" y2="55.9375"/><line style="stroke:#000000;stroke-width:1;" x1="368.5645" x2="507.5645" y1="55.9375" y2="55.9375"/><line style="stroke:#000000;stroke-width:1;" x1="6" x2="52.5781" y1="121.8438" y2="121.8438"/><line style="stroke:#000000;stroke-width:1;" x1="52.5781" x2="123.0039" y1="121.8438" y2="121.8438"/><line style="stroke:#000000;stroke-width:1;" x1="123.0039" x2="197.4668" y1="121.8438" y2="121.8438"/><line style="stroke:#000000;stroke-width:1;" x1="197.4668" x2="297.6172" y1="121.8438" y2="121.8438"/><line style="stroke:#000000;stroke-width:1;" x1="297.6172" x2="368.5645" y1="121.8438" y2="121.8438"/><line style="stroke:#000000;stroke-width:1;" x1="368.5645" x2="507.5645" y1="121.8438" y2="121.8438"/><line style="stroke:#000000;stroke-width:1;" x1="6" x2="52.5781" y1="96.875" y2="96.875"/><line style="stroke:#000000;stroke-width:1;" x1="52.5781" x2="123.0039" y1="96.875" y2="96.875"/><line style="stroke:#000000;stroke-width:1;" x1="123.0039" x2="197.4668" y1="96.875" y2="96.875"/><line style="stroke:#000000;stroke-width:1;" x1="197.4668" x2="297.6172" y1="96.875" y2="96.875"/><line style="stroke:#000000;stroke-width:1;" x1="297.6172" x2="368.5645" y1="96.875" y2="96.875"/><line style="stroke:#000000;stroke-width:1;" x1="368.5645" x2="507.5645" y1="96.875" y2="96.875"/><line style="stroke:#000000;stroke-width:1;" x1="6" x2="52.5781" y1="71.9063" y2="71.9063"/><line style="stroke:#000000;stroke-width:1;" x1="52.5781" x2="123.0039" y1="71.9063" y2="71.9063"/><line style="stroke:#000000;stroke-width:1;" x1="123.0039" x2="197.4668" y1="71.9063" y2="71.9063"/><line style="stroke:#000000;stroke-width:1;" x1="197.4668" x2="297.6172" y1="71.9063" y2="71.9063"/><line style="stroke:#000000;stroke-width:1;" x1="297.6172" x2="368.5645" y1="71.9063" y2="71.9063"/><line style="stroke:#000000;stroke-width:1;" x1="368.5645" x2="507.5645" y1="71.9063" y2="71.9063"/><line style="stroke:#000000;stroke-width:1;" x1="6" x2="52.5781" y1="146.8125" y2="146.8125"/><line style="stroke:#000000;stroke-width:1;" x1="52.5781" x2="123.0039" y1="146.8125" y2="146.8125"/><line style="stroke:#000000;stroke-width:1;" x1="123.0039" x2="197.4668" y1="146.8125" y2="146.8125"/><line style="stroke:#000000;stroke-width:1;" x1="197.4668" x2="297.6172" y1="146.8125" y2="146.8125"/><line style="stroke:#000000;stroke-width:1;" x1="6" x2="6" y1="55.9375" y2="71.9063"/><line style="stroke:#000000;stroke-width:1;" x1="52.5781" x2="52.5781" y1="55.9375" y2="71.9063"/><line style="stroke:#000000;stroke-width:1;" x1="123.0039" x2="123.0039" y1="55.9375" y2="71.9063"/><line style="stroke:#000000;stroke-width:1;" x1="197.4668" x2="197.4668" y1="55.9375" y2="71.9063"/><line style="stroke:#000000;stroke-width:1;" x1="297.6172" x2="297.6172" y1="55.9375" y2="71.9063"/><line style="stroke:#000000;stroke-width:1;" x1="368.5645" x2="368.5645" y1="55.9375" y2="71.9063"/><line style="stroke:#000000;stroke-width:1;" x1="507.5645" x2="507.5645" y1="55.9375" y2="71.9063"/><line style="stroke:#000000;stroke-width:1;" x1="6" x2="6" y1="121.8438" y2="146.8125"/><line style="stroke:#000000;stroke-width:1;" x1="52.5781" x2="52.5781" y1="121.8438" y2="146.8125"/><line style="stroke:#000000;stroke-width:1;" x1="123.0039" x2="123.0039" y1="121.8438" y2="146.8125"/><line style="stroke:#000000;stroke-width:1;" x1="197.4668" x2="197.4668" y1="121.8438" y2="146.8125"/><line style="stroke:#000000;stroke-width:1;" x1="297.6172" x2="297.6172" y1="121.8438" y2="146.8125"/><line style="stroke:#000000;stroke-width:1;" x1="368.5645" x2="368.5645" y1="121.8438" y2="146.8125"/><line style="stroke:#000000;stroke-width:1;" x1="507.5645" x2="507.5645" y1="121.8438" y2="146.8125"/><line style="stroke:#000000;stroke-width:1;" x1="6" x2="6" y1="96.875" y2="121.8438"/><line style="stroke:#000000;stroke-width:1;" x1="52.5781" x2="52.5781" y1="96.875" y2="121.8438"/><line style="stroke:#000000;stroke-width:1;" x1="123.0039" x2="123.0039" y1="96.875" y2="121.8438"/><line style="stroke:#000000;stroke-width:1;" x1="197.4668" x2="197.4668" y1="96.875" y2="121.8438"/><line style="stroke:#000000;stroke-width:1;" x1="297.6172" x2="297.6172" y1="96.875" y2="121.8438"/><line style="stroke:#000000;stroke-width:1;" x1="368.5645" x2="368.5645" y1="96.875" y2="121.8438"/><line style="stroke:#000000;stroke-width:1;" x1="507.5645" x2="507.5645" y1="96.875" y2="121.8438"/><line style="stroke:#000000;stroke-width:1;" x1="6" x2="6" y1="71.9063" y2="96.875"/><line style="stroke:#000000;stroke-width:1;" x1="52.5781" x2="52.5781" y1="71.9063" y2="96.875"/><line style="stroke:#000000;stroke-width:1;" x1="123.0039" x2="123.0039" y1="71.9063" y2="96.875"/><line style="stroke:#000000;stroke-width:1;" x1="197.4668" x2="197.4668" y1="71.9063" y2="96.875"/><line style="stroke:#000000;stroke-width:1;" x1="297.6172" x2="297.6172" y1="71.9063" y2="96.875"/><line style="stroke:#000000;stroke-width:1;" x1="368.5645" x2="368.5645" y1="71.9063" y2="96.875"/><line style="stroke:#000000;stroke-width:1;" x1="507.5645" x2="507.5645" y1="71.9063" y2="96.875"/><line style="stroke:#AAAAAA;stroke-width:1;" x1="6" x2="508.5645" y1="152.3125" y2="152.3125"/><rect fill="#EEEEEE" height="17.9688" rx="5" ry="5" style="stroke:#000000;stroke-width:2.5;" width="100" x="8.5" y="159.3125"/><text fill="#000000" font-family="sans-serif" font-size="12" lengthAdjust="spacing" textLength="71.8594" x="22.5703" y="172.4512">Crear alerta</text><rect fill="#EEEEEE" height="17.9688" rx="5" ry="5" style="stroke:#000000;stroke-width:2.5;" width="52" x="512.0645" y="159.3125"/><text fill="#000000" font-family="sans-serif" font-size="12" lengthAdjust="spacing" textLength="38.3027" x="518.9131" y="172.4512">Volver</text><line style="stroke:#000000;stroke-width:1;" x1="5" x2="508.5645" y1="5" y2="5"/><line style="stroke:#000000;stroke-width:1;" x1="508.5645" x2="756.5645" y1="5" y2="5"/><line style="stroke:#000000;stroke-width:1;" x1="5" x2="508.5645" y1="180.7813" y2="180.7813"/><line style="stroke:#000000;stroke-width:1;" x1="508.5645" x2="756.5645" y1="180.7813" y2="180.7813"/><line style="stroke:#000000;stroke-width:1;" x1="5" x2="5" y1="5" y2="20.9688"/><line style="stroke:#000000;stroke-width:1;" x1="756.5645" x2="756.5645" y1="28.9688" y2="46.9375"/><line style="stroke:#000000;stroke-width:1;" x1="756.5645" x2="756.5645" y1="5" y2="20.9688"/><line style="stroke:#000000;stroke-width:1;" x1="5" x2="5" y1="147.8125" y2="155.8125"/><line style="stroke:#000000;stroke-width:1;" x1="5" x2="5" y1="46.9375" y2="54.9375"/><line style="stroke:#000000;stroke-width:1;" x1="756.5645" x2="756.5645" y1="147.8125" y2="155.8125"/><line style="stroke:#000000;stroke-width:1;" x1="5" x2="5" y1="20.9688" y2="28.9688"/><line style="stroke:#000000;stroke-width:1;" x1="756.5645" x2="756.5645" y1="46.9375" y2="54.9375"/><line style="stroke:#000000;stroke-width:1;" x1="756.5645" x2="756.5645" y1="20.9688" y2="28.9688"/><line style="stroke:#000000;stroke-width:1;" x1="5" x2="5" y1="155.8125" y2="180.7813"/><line style="stroke:#000000;stroke-width:1;" x1="5" x2="5" y1="54.9375" y2="147.8125"/><line style="stroke:#000000;stroke-width:1;" x1="756.5645" x2="756.5645" y1="155.8125" y2="180.7813"/><line style="stroke:#000000;stroke-width:1;" x1="5" x2="5" y1="28.9688" y2="46.9375"/><line style="stroke:#000000;stroke-width:1;" x1="756.5645" x2="756.5645" y1="54.9375" y2="147.8125"/><?plantuml-src fLBFJy8m5BxlhtX13nfPwMRqG8m1SKGE8a7G0-7mjfNGhApBQyC5-T_fEe8aHY_sqFHzVT-FvhLdB98rg6omkma07jB7lX9aqK0ke2AHIUtWC0pTFfJA4b8Nlg05VwxMYREx26h0wSvq8Kf7TSTNGHdcshTwOBv92HLSNLutzQT8rreNtu8UJLpOSrO_S-bAORp3qspWyOcW2agqSgkRneXpnZblYhMrbUbsEhaqcQQSCLQZRvMWce5DqwAVagGbB18bDx94Mdg7oNmwhQ_VAstXF1flt_5JyH-7uNIKZ9-FRtWPJSBResZSvZyTZCAiyFerEjPMhjWAbP8v_kAmFurbCI211EXdlQmJVMYr5Qvh7_H4cViV4KGivl4zYmu0?></g></svg>