<?plantuml 1.2026.1?><svg xmlns="http://www.w3.org/2000/svg" xmlns:xlink="http://www.w3.org/1999/xlink" contentStyleType="text/css" data-diagram-type="SALT" height="119px" preserveAspectRatio="none" style="width:415px;height:119px;background:#FFFFFF;" version="1.1" viewBox="0 0 415 119" width="415px" zoomAndPan="magnify"><defs/><g><text fill="#000000" font-family="sans-serif" font-size="12" font-weight="bold" lengthAdjust="spacing" textLength="51.8672" x="6" y="17.1387">Entidad</text><line style="stroke:#AAAAAA;stroke-width:1;" x1="6" x2="152" y1="25.4688" y2="25.4688"/><text fill="#000000" font-family="sans-serif" font-size="12" lengthAdjust="spacing" textLength="51.9844" x="6" y="41.1074">Nombre:</text><text fill="#000000" font-family="sans-serif" font-size="12" lengthAdjust="spacing" textLength="71.209" x="156" y="41.1074">Wintermute</text><line style="stroke:#000000;stroke-width:1;" x1="154" x2="405" y1="43.9375" y2="43.9375"/><line style="stroke:#000000;stroke-width:1;" x1="154" x2="154" y1="40.9375" y2="42.9375"/><line style="stroke:#000000;stroke-width:1;" x1="405" x2="405" y1="40.9375" y2="42.9375"/><line style="stroke:#AAAAAA;stroke-width:1;" x1="6" x2="152" y1="51.4375" y2="51.4375"/><rect fill="#EEEEEE" height="17.9688" rx="5" ry="5" style="stroke:#000000;stroke-width:2.5;" width="140" x="8.5" y="58.4375"/><text fill="#000000" font-family="sans-serif" font-size="12" lengthAdjust="spacing" textLength="101.2207" x="27.8896" y="71.5762">Abrir direcciones</text><line style="stroke:#AAAAAA;stroke-width:1;" x1="6" x2="152" y1="84.4063" y2="84.4063"/><rect fill="#EEEEEE" height="17.9688" rx="5" ry="5" style="stroke:#000000;stroke-width:2.5;" width="60" x="8.5" y="91.4063"/><text fill="#000000" font-family="sans-serif" font-size="12" lengthAdjust="spacing" textLength="49.0957" x="13.9521" y="104.5449">Guardar</text><rect fill="#EEEEEE" height="17.9688" rx="5" ry="5" style="stroke:#000000;stroke-width:2.5;" width="52" x="155.5" y="91.4063"/><text fill="#000000" font-family="sans-serif" font-size="12" lengthAdjust="spacing" textLength="38.3027" x="162.3486" y="104.5449">Volver</text><line style="stroke:#000000;stroke-width:1;" x1="5" x2="152" y1="5" y2="5"/><line style="stroke:#000000;stroke-width:1;" x1="152" x2="408" y1="5" y2="5"/><line style="stroke:#000000;stroke-width:1;" x1="5" x2="152" y1="112.875" y2="112.875"/><line style="stroke:#000000;stroke-width:1;" x1="152" x2="408" y1="112.875" y2="112.875"/><line style="stroke:#000000;stroke-width:1;" x1="5" x2="5" y1="5" y2="20.9688"/><line style="stroke:#000000;stroke-width:1;" x1="408" x2="408" y1="28.9688" y2="46.9375"/><line style="stroke:#000000;stroke-width:1;" x1="408" x2="408" y1="5" y2="20.9688"/><line style="stroke:#000000;stroke-width:1;" x1="5" x2="5" y1="79.9063" y2="87.9063"/><line style="stroke:#000000;stroke-width:1;" x1="5" x2="5" y1="46.9375" y2="54.9375"/><line style="stroke:#000000;stroke-width:1;" x1="408" x2="408" y1="79.9063" y2="87.9063"/><line style="stroke:#000000;stroke-width:1;" x1="5" x2="5" y1="20.9688" y2="28.9688"/><line style="stroke:#000000;stroke-width:1;" x1="408" x2="408" y1="46.9375" y2="54.9375"/><line style="stroke:#000000;stroke-width:1;" x1="408" x2="408" y1="20.9688" y2="28.9688"/><line style="stroke:#000000;stroke-width:1;" x1="5" x2="5" y1="87.9063" y2="112.875"/><line style="stroke:#000000;stroke-width:1;" x1="5" x2="5" y1="54.9375" y2="79.9063"/><line style="stroke:#000000;stroke-width:1;" x1="408" x2="408" y1="87.9063" y2="112.875"/><line style="stroke:#000000;stroke-width:1;" x1="5" x2="5" y1="28.9688" y2="46.9375"/><line style="stroke:#000000;stroke-width:1;" x1="408" x2="408" y1="54.9375" y2="79.9063"/><?plantuml-src SoWkIImgAKxCAU6grkPIKB19idFDAybCIKm1SdHrTO6aNtvkKb6gbKADWb9uPbv9Qb5kQKcg0ZQW1DSJxPXKb5caa99Pb9gSd9cVbreSYv1pBqqiIaaiYWMQ61sMdrEMMXJBLSlba9gN0dO7bw6UaO6HcPuX0000?></g></svg>