<?plantuml 1.2026.1?><svg xmlns="http://www.w3.org/2000/svg" xmlns:xlink="http://www.w3.org/1999/xlink" contentStyleType="text/css" data-diagram-type="SALT" height="187px" preserveAspectRatio="none" style="width:587px;height:187px;background:#FFFFFF;" version="1.1" viewBox="0 0 587 187" width="587px" zoomAndPan="magnify"><defs/><g><text fill="#000000" font-family="sans-serif" font-size="12" font-weight="bold" lengthAdjust="spacing" textLength="67.1484" x="6" y="17.1387">Entidades</text><line style="stroke:#AAAAAA;stroke-width:1;" x1="6" x2="332.7715" y1="25.4688" y2="25.4688"/><text fill="#000000" font-family="sans-serif" font-size="12" lengthAdjust="spacing" textLength="39.5391" x="6" y="41.1074">Filtrar:</text><text fill="#000000" font-family="sans-serif" font-size="12" lengthAdjust="spacing" textLength="3.8145" x="336.7715" y="41.1074">&#160;</text><line style="stroke:#000000;stroke-width:1;" x1="334.7715" x2="577.7715" y1="43.9375" y2="43.9375"/><line style="stroke:#000000;stroke-width:1;" x1="334.7715" x2="334.7715" y1="40.9375" y2="42.9375"/><line style="stroke:#000000;stroke-width:1;" x1="577.7715" x2="577.7715" y1="40.9375" y2="42.9375"/><line style="stroke:#AAAAAA;stroke-width:1;" x1="6" x2="332.7715" y1="51.4375" y2="51.4375"/><text fill="#000000" font-family="sans-serif" font-size="12" font-weight="bold" lengthAdjust="spacing" textLength="53.4375" x="7" y="68.0762">Nombre</text><text fill="#000000" font-family="sans-serif" font-size="12" font-weight="bold" lengthAdjust="spacing" textLength="102.7148" x="89.0566" y="68.0762">N.&#186; direcciones</text><text fill="#000000" font-family="sans-serif" font-size="12" font-weight="bold" lengthAdjust="spacing" textLength="59.6953" x="193.7715" y="68.0762">Acciones</text><text fill="#000000" font-family="sans-serif" font-size="12" lengthAdjust="spacing" textLength="71.209" x="7" y="84.0449">Wintermute</text><text fill="#000000" font-family="sans-serif" font-size="12" lengthAdjust="spacing" textLength="15.2695" x="89.0566" y="84.0449">12</text><rect fill="#EEEEEE" height="17.9688" rx="5" ry="5" style="stroke:#000000;stroke-width:2.5;" width="132" x="196.2715" y="75.4063"/><text fill="#000000" font-family="sans-serif" font-size="12" lengthAdjust="spacing" textLength="91.3711" x="216.5859" y="88.5449">Abrir] [Eliminar</text><text fill="#000000" font-family="sans-serif" font-size="12" lengthAdjust="spacing" textLength="80.0566" x="7" y="109.0137">Jump Trading</text><text fill="#000000" font-family="sans-serif" font-size="12" lengthAdjust="spacing" textLength="7.6348" x="89.0566" y="109.0137">7</text><rect fill="#EEEEEE" height="17.9688" rx="5" ry="5" style="stroke:#000000;stroke-width:2.5;" width="132" x="196.2715" y="100.375"/><text fill="#000000" font-family="sans-serif" font-size="12" lengthAdjust="spacing" textLength="91.3711" x="216.5859" y="113.5137">Abrir] [Eliminar</text><text fill="#000000" font-family="sans-serif" font-size="12" lengthAdjust="spacing" textLength="73.5176" x="7" y="133.9824">Cumberland</text><text fill="#000000" font-family="sans-serif" font-size="12" lengthAdjust="spacing" textLength="7.6348" x="89.0566" y="133.9824">4</text><rect fill="#EEEEEE" height="17.9688" rx="5" ry="5" style="stroke:#000000;stroke-width:2.5;" width="132" x="196.2715" y="125.3438"/><text fill="#000000" font-family="sans-serif" font-size="12" lengthAdjust="spacing" textLength="91.3711" x="216.5859" y="138.4824">Abrir] [Eliminar</text><line style="stroke:#000000;stroke-width:1;" x1="6" x2="88.0566" y1="55.9375" y2="55.9375"/><line style="stroke:#000000;stroke-width:1;" x1="192.7715" x2="331.7715" y1="96.875" y2="96.875"/><line style="stroke:#000000;stroke-width:1;" x1="88.0566" x2="192.7715" y1="55.9375" y2="55.9375"/><line style="stroke:#000000;stroke-width:1;" x1="192.7715" x2="331.7715" y1="55.9375" y2="55.9375"/><line style="stroke:#000000;stroke-width:1;" x1="6" x2="88.0566" y1="121.8438" y2="121.8438"/><line style="stroke:#000000;stroke-width:1;" x1="88.0566" x2="192.7715" y1="121.8438" y2="121.8438"/><line style="stroke:#000000;stroke-width:1;" x1="6" x2="88.0566" y1="71.9063" y2="71.9063"/><line style="stroke:#000000;stroke-width:1;" x1="192.7715" x2="331.7715" y1="121.8438" y2="121.8438"/><line style="stroke:#000000;stroke-width:1;" x1="88.0566" x2="192.7715" y1="71.9063" y2="71.9063"/><line style="stroke:#000000;stroke-width:1;" x1="192.7715" x2="331.7715" y1="71.9063" y2="71.9063"/><line style="stroke:#000000;stroke-width:1;" x1="6" x2="88.0566" y1="146.8125" y2="146.8125"/><line style="stroke:#000000;stroke-width:1;" x1="88.0566" x2="192.7715" y1="146.8125" y2="146.8125"/><line style="stroke:#000000;stroke-width:1;" x1="192.7715" x2="331.7715" y1="146.8125" y2="146.8125"/><line style="stroke:#000000;stroke-width:1;" x1="6" x2="88.0566" y1="96.875" y2="96.875"/><line style="stroke:#000000;stroke-width:1;" x1="88.0566" x2="192.7715" y1="96.875" y2="96.875"/><line style="stroke:#000000;stroke-width:1;" x1="6" x2="6" y1="55.9375" y2="71.9063"/><line style="stroke:#000000;stroke-width:1;" x1="192.7715" x2="192.7715" y1="96.875" y2="121.8438"/><line style="stroke:#000000;stroke-width:1;" x1="331.7715" x2="331.7715" y1="96.875" y2="121.8438"/><line style="stroke:#000000;stroke-width:1;" x1="88.0566" x2="88.0566" y1="55.9375" y2="71.9063"/><line style="stroke:#000000;stroke-width:1;" x1="192.7715" x2="192.7715" y1="55.9375" y2="71.9063"/><line style="stroke:#000000;stroke-width:1;" x1="331.7715" x2="331.7715" y1="55.9375" y2="71.9063"/><line style="stroke:#000000;stroke-width:1;" x1="6" x2="6" y1="121.8438" y2="146.8125"/><line style="stroke:#000000;stroke-width:1;" x1="88.0566" x2="88.0566" y1="121.8438" y2="146.8125"/><line style="stroke:#000000;stroke-width:1;" x1="6" x2="6" y1="71.9063" y2="96.875"/><line style="stroke:#000000;stroke-width:1;" x1="192.7715" x2="192.7715" y1="121.8438" y2="146.8125"/><line style="stroke:#000000;stroke-width:1;" x1="331.7715" x2="331.7715" y1="121.8438" y2="146.8125"/><line style="stroke:#000000;stroke-width:1;" x1="88.0566" x2="88.0566" y1="71.9063" y2="96.875"/><line style="stroke:#000000;stroke-width:1;" x1="192.7715" x2="192.7715" y1="71.9063" y2="96.875"/><line style="stroke:#000000;stroke-width:1;" x1="331.7715" x2="331.7715" y1="71.9063" y2="96.875"/><line style="stroke:#000000;stroke-width:1;" x1="6" x2="6" y1="96.875" y2="121.8438"/><line style="stroke:#000000;stroke-width:1;" x1="88.0566" x2="88.0566" y1="96.875" y2="121.8438"/><line style="stroke:#AAAAAA;stroke-width:1;" x1="6" x2="332.7715" y1="152.3125" y2="152.3125"/><rect fill="#EEEEEE" height="17.9688" rx="5" ry="5" style="stroke:#000000;stroke-width:2.5;" width="108" x="8.5" y="159.3125"/><text fill="#000000" font-family="sans-serif" font-size="12" lengthAdjust="spacing" textLength="82.4121" x="21.2939" y="172.4512">Crear entidad</text><rect fill="#EEEEEE" height="17.9688" rx="5" ry="5" style="stroke:#000000;stroke-width:2.5;" width="52" x="336.2715" y="159.3125"/><text fill="#000000" font-family="sans-serif" font-size="12" lengthAdjust="spacing" textLength="38.3027" x="343.1201" y="172.4512">Volver</text><line style="stroke:#000000;stroke-width:1;" x1="5" x2="332.7715" y1="5" y2="5"/><line style="stroke:#000000;stroke-width:1;" x1="332.7715" x2="580.7715" y1="5" y2="5"/><line style="stroke:#000000;stroke-width:1;" x1="5" x2="332.7715" y1="180.7813" y2="180.7813"/><line style="stroke:#000000;stroke-width:1;" x1="332.7715" x2="580.7715" y1="180.7813" y2="180.7813"/><line style="stroke:#000000;stroke-width:1;" x1="5" x2="5" y1="5" y2="20.9688"/><line style="stroke:#000000;stroke-width:1;" x1="580.7715" x2="580.7715" y1="28.9688" y2="46.9375"/><line style="stroke:#000000;stroke-width:1;" x1="580.7715" x2="580.7715" y1="5" y2="20.9688"/><line style="stroke:#000000;stroke-width:1;" x1="5" x2="5" y1="147.8125" y2="155.8125"/><line style="stroke:#000000;stroke-width:1;" x1="5" x2="5" y1="46.9375" y2="54.9375"/><line style="stroke:#000000;stroke-width:1;" x1="580.7715" x2="580.7715" y1="147.8125" y2="155.8125"/><line style="stroke:#000000;stroke-width:1;" x1="5" x2="5" y1="20.9688" y2="28.9688"/><line style="stroke:#000000;stroke-width:1;" x1="580.7715" x2="580.7715" y1="46.9375" y2="54.9375"/><line style="stroke:#000000;stroke-width:1;" x1="580.7715" x2="580.7715" y1="20.9688" y2="28.9688"/><line style="stroke:#000000;stroke-width:1;" x1="5" x2="5" y1="155.8125" y2="180.7813"/><line style="stroke:#000000;stroke-width:1;" x1="5" x2="5" y1="54.9375" y2="147.8125"/><line style="stroke:#000000;stroke-width:1;" x1="580.7715" x2="580.7715" y1="155.8125" y2="180.7813"/><line style="stroke:#000000;stroke-width:1;" x1="5" x2="5" y1="28.9688" y2="46.9375"/><line style="stroke:#000000;stroke-width:1;" x1="580.7715" x2="580.7715" y1="54.9375" y2="147.8125"/><?plantuml-src ZP2n2i9038RtUugWexJO8WeYefGwE3Y93gN3rGiIkBjAUdMnlfYZJsOzguiWPWZav_yIyYyg9zbLKZjn6GY0MJ5FhICb5LRj60H1srUa7KkUGWCz-5cz3tFfYwVGxjkKfc1yEnelXVSRA68y7AYqMBtKPJTvS4_M8PlQOOT5yTUr1h9bmSGvPAacGrPoxk5rRKwmPQd87hrl0l_3IMqAP2sjwdoZl-7hv_qiOPGC-CeoVmAxKf-njLt50gtoaOieZ8VnE8mU?></g></svg>