<svg xmlns="http://www.w3.org/2000/svg" xmlns:xlink="http://www.w3.org/1999/xlink" contentStyleType="text/css" data-diagram-type="SALT" height="296px" preserveAspectRatio="none" style="width:462px;height:296px;background:#FFFFFF;" version="1.1" viewBox="0 0 462 296" width="462px" zoomAndPan="magnify"><?plantuml 1.2026.3beta6?><defs/><g><text fill="#000000" font-family="sans-serif" font-size="12" lengthAdjust="spacing" textLength="0" x="8" y="6">Leaderboard</text><line style="stroke:#000000;stroke-width:1;" x1="6" x2="6" y1="6" y2="16"/><line style="stroke:#000000;stroke-width:1;" x1="6" x2="11" y1="6" y2="6"/><line style="stroke:#000000;stroke-width:1;" x1="11" x2="11" y1="6" y2="16"/><line style="stroke:#000000;stroke-width:1;" x1="11" x2="21" y1="16" y2="16"/><text fill="#000000" font-family="sans-serif" font-size="12" font-weight="700" lengthAdjust="spacing" textLength="67.1484" x="23" y="17.1387">Entidades</text><line style="stroke:#000000;stroke-width:1;" x1="21" x2="21" y1="6" y2="19.9688"/><line style="stroke:#000000;stroke-width:1;" x1="21" x2="93.1484" y1="6" y2="6"/><line style="stroke:#000000;stroke-width:1;" x1="93.1484" x2="93.1484" y1="6" y2="19.9688"/><line style="stroke:#000000;stroke-width:1;" x1="93.1484" x2="103.1484" y1="19.9688" y2="19.9688"/><text fill="#000000" font-family="sans-serif" font-size="12" lengthAdjust="spacing" textLength="0" x="105.1484" y="6">Alertas</text><line style="stroke:#000000;stroke-width:1;" x1="103.1484" x2="103.1484" y1="6" y2="16"/><line style="stroke:#000000;stroke-width:1;" x1="103.1484" x2="108.1484" y1="6" y2="6"/><line style="stroke:#000000;stroke-width:1;" x1="108.1484" x2="108.1484" y1="6" y2="16"/><line style="stroke:#000000;stroke-width:1;" x1="108.1484" x2="118.1484" y1="16" y2="16"/><text fill="#000000" font-family="sans-serif" font-size="12" font-weight="700" lengthAdjust="spacing" textLength="148.8105" x="8" y="35.1074">Entidades registradas</text><line style="stroke:#AAAAAA;stroke-width:1;" x1="8" x2="291.9766" y1="43.4375" y2="43.4375"/><text fill="#000000" font-family="sans-serif" font-size="12" font-weight="700" lengthAdjust="spacing" textLength="53.4375" x="9" y="60.0762">Nombre</text><text fill="#000000" font-family="sans-serif" font-size="12" font-weight="700" lengthAdjust="spacing" textLength="78.5391" x="64.4375" y="60.0762">Direcciones</text><text fill="#000000" font-family="sans-serif" font-size="12" font-weight="700" lengthAdjust="spacing" textLength="59.6953" x="144.9766" y="60.0762">Acciones</text><text fill="#000000" font-family="sans-serif" font-size="12" lengthAdjust="spacing" textLength="0" x="9" y="64.9063">Wintermute</text><text fill="#000000" font-family="sans-serif" font-size="12" lengthAdjust="spacing" textLength="0" x="64.4375" y="64.9063">0xabc1...f3, 0xdef2...a7</text><rect fill="#EEEEEE" height="14" rx="5" ry="5" style="stroke:#000000;stroke-width:2.5;" width="140" x="147.4766" y="67.4063"/><text fill="#000000" font-family="sans-serif" font-size="12" lengthAdjust="spacing" textLength="0" x="217.4766" y="69.4063">Editar] [Eliminar</text><text fill="#000000" font-family="sans-serif" font-size="12" lengthAdjust="spacing" textLength="0" x="9" y="85.9063">JumpTrading</text><text fill="#000000" font-family="sans-serif" font-size="12" lengthAdjust="spacing" textLength="0" x="64.4375" y="85.9063">0x9ef4...b2</text><rect fill="#EEEEEE" height="14" rx="5" ry="5" style="stroke:#000000;stroke-width:2.5;" width="140" x="147.4766" y="88.4063"/><text fill="#000000" font-family="sans-serif" font-size="12" lengthAdjust="spacing" textLength="0" x="217.4766" y="90.4063">Editar] [Eliminar</text><line style="stroke:#000000;stroke-width:1;" x1="8" x2="63.4375" y1="47.9375" y2="47.9375"/><line style="stroke:#000000;stroke-width:1;" x1="63.4375" x2="143.9766" y1="63.9063" y2="63.9063"/><line style="stroke:#000000;stroke-width:1;" x1="143.9766" x2="290.9766" y1="84.9063" y2="84.9063"/><line style="stroke:#000000;stroke-width:1;" x1="63.4375" x2="143.9766" y1="47.9375" y2="47.9375"/><line style="stroke:#000000;stroke-width:1;" x1="143.9766" x2="290.9766" y1="63.9063" y2="63.9063"/><line style="stroke:#000000;stroke-width:1;" x1="143.9766" x2="290.9766" y1="47.9375" y2="47.9375"/><line style="stroke:#000000;stroke-width:1;" x1="8" x2="63.4375" y1="105.9063" y2="105.9063"/><line style="stroke:#000000;stroke-width:1;" x1="63.4375" x2="143.9766" y1="105.9063" y2="105.9063"/><line style="stroke:#000000;stroke-width:1;" x1="8" x2="63.4375" y1="84.9063" y2="84.9063"/><line style="stroke:#000000;stroke-width:1;" x1="143.9766" x2="290.9766" y1="105.9063" y2="105.9063"/><line style="stroke:#000000;stroke-width:1;" x1="8" x2="63.4375" y1="63.9063" y2="63.9063"/><line style="stroke:#000000;stroke-width:1;" x1="63.4375" x2="143.9766" y1="84.9063" y2="84.9063"/><line style="stroke:#000000;stroke-width:1;" x1="8" x2="8" y1="47.9375" y2="63.9063"/><line style="stroke:#000000;stroke-width:1;" x1="63.4375" x2="63.4375" y1="63.9063" y2="84.9063"/><line style="stroke:#000000;stroke-width:1;" x1="143.9766" x2="143.9766" y1="84.9063" y2="105.9063"/><line style="stroke:#000000;stroke-width:1;" x1="290.9766" x2="290.9766" y1="84.9063" y2="105.9063"/><line style="stroke:#000000;stroke-width:1;" x1="63.4375" x2="63.4375" y1="47.9375" y2="63.9063"/><line style="stroke:#000000;stroke-width:1;" x1="143.9766" x2="143.9766" y1="63.9063" y2="84.9063"/><line style="stroke:#000000;stroke-width:1;" x1="290.9766" x2="290.9766" y1="63.9063" y2="84.9063"/><line style="stroke:#000000;stroke-width:1;" x1="143.9766" x2="143.9766" y1="47.9375" y2="63.9063"/><line style="stroke:#000000;stroke-width:1;" x1="290.9766" x2="290.9766" y1="47.9375" y2="63.9063"/><line style="stroke:#000000;stroke-width:1;" x1="8" x2="8" y1="84.9063" y2="105.9063"/><line style="stroke:#000000;stroke-width:1;" x1="8" x2="8" y1="63.9063" y2="84.9063"/><line style="stroke:#000000;stroke-width:1;" x1="63.4375" x2="63.4375" y1="84.9063" y2="105.9063"/><line style="stroke:#000000;stroke-width:1;" x1="7" x2="291.9766" y1="22.9688" y2="22.9688"/><line style="stroke:#000000;stroke-width:1;" x1="7" x2="291.9766" y1="106.9063" y2="106.9063"/><line style="stroke:#000000;stroke-width:1;" x1="7" x2="7" y1="22.9688" y2="38.9375"/><line style="stroke:#000000;stroke-width:1;" x1="291.9766" x2="291.9766" y1="38.9375" y2="46.9375"/><line style="stroke:#000000;stroke-width:1;" x1="291.9766" x2="291.9766" y1="22.9688" y2="38.9375"/><line style="stroke:#000000;stroke-width:1;" x1="7" x2="7" y1="46.9375" y2="106.9063"/><line style="stroke:#000000;stroke-width:1;" x1="7" x2="7" y1="38.9375" y2="46.9375"/><line style="stroke:#000000;stroke-width:1;" x1="291.9766" x2="291.9766" y1="46.9375" y2="106.9063"/><line style="stroke:#AAAAAA;stroke-width:1;" x1="7" x2="455.1875" y1="112.4063" y2="112.4063"/><text fill="#000000" font-family="sans-serif" font-size="12" font-weight="700" lengthAdjust="spacing" textLength="138.1875" x="8" y="129.0449">Crear nueva entidad</text><line style="stroke:#AAAAAA;stroke-width:1;" x1="8" x2="147.1875" y1="137.375" y2="137.375"/><text fill="#000000" font-family="sans-serif" font-size="12" lengthAdjust="spacing" textLength="0" x="8" y="141.875">Nombre:</text><text fill="#000000" font-family="sans-serif" font-size="12" lengthAdjust="spacing" textLength="3.8145" x="151.1875" y="155.8438">&#160;</text><line style="stroke:#000000;stroke-width:1;" x1="149.1875" x2="312.1875" y1="155.8438" y2="155.8438"/><line style="stroke:#000000;stroke-width:1;" x1="149.1875" x2="149.1875" y1="152.8438" y2="154.8438"/><line style="stroke:#000000;stroke-width:1;" x1="312.1875" x2="312.1875" y1="152.8438" y2="154.8438"/><text fill="#000000" font-family="sans-serif" font-size="12" lengthAdjust="spacing" textLength="0" x="8" y="159.8438">Direccion:</text><text fill="#000000" font-family="sans-serif" font-size="12" lengthAdjust="spacing" textLength="3.8145" x="151.1875" y="173.8125">&#160;</text><line style="stroke:#000000;stroke-width:1;" x1="149.1875" x2="392.1875" y1="173.8125" y2="173.8125"/><line style="stroke:#000000;stroke-width:1;" x1="149.1875" x2="149.1875" y1="170.8125" y2="172.8125"/><line style="stroke:#000000;stroke-width:1;" x1="392.1875" x2="392.1875" y1="170.8125" y2="172.8125"/><rect fill="#EEEEEE" height="14" rx="5" ry="5" style="stroke:#000000;stroke-width:2.5;" width="52" x="398.6875" y="162.3438"/><text fill="#000000" font-family="sans-serif" font-size="12" lengthAdjust="spacing" textLength="0" x="424.6875" y="164.3438">Anadir</text><line style="stroke:#AAAAAA;stroke-width:1;" x1="8" x2="147.1875" y1="184.3438" y2="184.3438"/><text fill="#000000" font-family="sans-serif" font-size="12" lengthAdjust="spacing" textLength="0" x="8" y="188.8438">Direcciones anadidas:</text><text fill="#000000" font-family="sans-serif" font-size="12" font-weight="700" lengthAdjust="spacing" textLength="63.2578" x="9" y="212.9824">Direccion</text><text fill="#000000" font-family="sans-serif" font-size="12" font-weight="700" lengthAdjust="spacing" textLength="44.4141" x="74.2578" y="212.9824">Accion</text><text fill="#000000" font-family="sans-serif" font-size="12" lengthAdjust="spacing" textLength="0" x="9" y="217.8125">0xabc1...f3</text><rect fill="#EEEEEE" height="14" rx="5" ry="5" style="stroke:#000000;stroke-width:2.5;" width="52" x="76.7578" y="220.3125"/><text fill="#000000" font-family="sans-serif" font-size="12" lengthAdjust="spacing" textLength="0" x="102.7578" y="222.3125">Quitar</text><text fill="#000000" font-family="sans-serif" font-size="12" lengthAdjust="spacing" textLength="0" x="9" y="238.8125">0xdef2...a7</text><rect fill="#EEEEEE" height="14" rx="5" ry="5" style="stroke:#000000;stroke-width:2.5;" width="52" x="76.7578" y="241.3125"/><text fill="#000000" font-family="sans-serif" font-size="12" lengthAdjust="spacing" textLength="0" x="102.7578" y="243.3125">Quitar</text><line style="stroke:#000000;stroke-width:1;" x1="8" x2="73.2578" y1="200.8438" y2="200.8438"/><line style="stroke:#000000;stroke-width:1;" x1="73.2578" x2="132.2578" y1="216.8125" y2="216.8125"/><line style="stroke:#000000;stroke-width:1;" x1="73.2578" x2="132.2578" y1="200.8438" y2="200.8438"/><line style="stroke:#000000;stroke-width:1;" x1="8" x2="73.2578" y1="258.8125" y2="258.8125"/><line style="stroke:#000000;stroke-width:1;" x1="73.2578" x2="132.2578" y1="258.8125" y2="258.8125"/><line style="stroke:#000000;stroke-width:1;" x1="8" x2="73.2578" y1="237.8125" y2="237.8125"/><line style="stroke:#000000;stroke-width:1;" x1="8" x2="73.2578" y1="216.8125" y2="216.8125"/><line style="stroke:#000000;stroke-width:1;" x1="73.2578" x2="132.2578" y1="237.8125" y2="237.8125"/><line style="stroke:#000000;stroke-width:1;" x1="8" x2="8" y1="200.8438" y2="216.8125"/><line style="stroke:#000000;stroke-width:1;" x1="132.2578" x2="132.2578" y1="237.8125" y2="258.8125"/><line style="stroke:#000000;stroke-width:1;" x1="73.2578" x2="73.2578" y1="216.8125" y2="237.8125"/><line style="stroke:#000000;stroke-width:1;" x1="132.2578" x2="132.2578" y1="216.8125" y2="237.8125"/><line style="stroke:#000000;stroke-width:1;" x1="73.2578" x2="73.2578" y1="200.8438" y2="216.8125"/><line style="stroke:#000000;stroke-width:1;" x1="132.2578" x2="132.2578" y1="200.8438" y2="216.8125"/><line style="stroke:#000000;stroke-width:1;" x1="8" x2="8" y1="237.8125" y2="258.8125"/><line style="stroke:#000000;stroke-width:1;" x1="8" x2="8" y1="216.8125" y2="237.8125"/><line style="stroke:#000000;stroke-width:1;" x1="73.2578" x2="73.2578" y1="237.8125" y2="258.8125"/><line style="stroke:#AAAAAA;stroke-width:1;" x1="8" x2="147.1875" y1="264.3125" y2="264.3125"/><rect fill="#EEEEEE" height="14" rx="5" ry="5" style="stroke:#000000;stroke-width:2.5;" width="124" x="10.5" y="271.3125"/><text fill="#000000" font-family="sans-serif" font-size="12" lengthAdjust="spacing" textLength="0" x="72.5" y="273.3125">Guardar entidad</text><line style="stroke:#000000;stroke-width:1;" x1="7" x2="147.1875" y1="116.9063" y2="116.9063"/><line style="stroke:#000000;stroke-width:1;" x1="147.1875" x2="395.1875" y1="116.9063" y2="116.9063"/><line style="stroke:#000000;stroke-width:1;" x1="395.1875" x2="454.1875" y1="116.9063" y2="116.9063"/><line style="stroke:#000000;stroke-width:1;" x1="7" x2="147.1875" y1="288.8125" y2="288.8125"/><line style="stroke:#000000;stroke-width:1;" x1="147.1875" x2="395.1875" y1="288.8125" y2="288.8125"/><line style="stroke:#000000;stroke-width:1;" x1="395.1875" x2="454.1875" y1="288.8125" y2="288.8125"/><line style="stroke:#000000;stroke-width:1;" x1="7" x2="7" y1="116.9063" y2="132.875"/><line style="stroke:#000000;stroke-width:1;" x1="454.1875" x2="454.1875" y1="140.875" y2="158.8438"/><line style="stroke:#000000;stroke-width:1;" x1="454.1875" x2="454.1875" y1="116.9063" y2="132.875"/><line style="stroke:#000000;stroke-width:1;" x1="7" x2="7" y1="259.8125" y2="267.8125"/><line style="stroke:#000000;stroke-width:1;" x1="7" x2="7" y1="187.8438" y2="199.8438"/><line style="stroke:#000000;stroke-width:1;" x1="454.1875" x2="454.1875" y1="259.8125" y2="267.8125"/><line style="stroke:#000000;stroke-width:1;" x1="7" x2="7" y1="158.8438" y2="179.8438"/><line style="stroke:#000000;stroke-width:1;" x1="454.1875" x2="454.1875" y1="187.8438" y2="199.8438"/><line style="stroke:#000000;stroke-width:1;" x1="7" x2="7" y1="132.875" y2="140.875"/><line style="stroke:#000000;stroke-width:1;" x1="454.1875" x2="454.1875" y1="158.8438" y2="179.8438"/><line style="stroke:#000000;stroke-width:1;" x1="454.1875" x2="454.1875" y1="132.875" y2="140.875"/><line style="stroke:#000000;stroke-width:1;" x1="7" x2="7" y1="267.8125" y2="288.8125"/><line style="stroke:#000000;stroke-width:1;" x1="7" x2="7" y1="199.8438" y2="259.8125"/><line style="stroke:#000000;stroke-width:1;" x1="454.1875" x2="454.1875" y1="267.8125" y2="288.8125"/><line style="stroke:#000000;stroke-width:1;" x1="7" x2="7" y1="179.8438" y2="187.8438"/><line style="stroke:#000000;stroke-width:1;" x1="454.1875" x2="454.1875" y1="199.8438" y2="259.8125"/><line style="stroke:#000000;stroke-width:1;" x1="7" x2="7" y1="140.875" y2="158.8438"/><line style="stroke:#000000;stroke-width:1;" x1="454.1875" x2="454.1875" y1="179.8438" y2="187.8438"/><line style="stroke:#000000;stroke-width:1;" x1="5" x2="456.1875" y1="5" y2="5"/><line style="stroke:#000000;stroke-width:1;" x1="5" x2="456.1875" y1="290.8125" y2="290.8125"/><line style="stroke:#000000;stroke-width:1;" x1="5" x2="5" y1="5" y2="20.9688"/><line style="stroke:#000000;stroke-width:1;" x1="456.1875" x2="456.1875" y1="20.9688" y2="290.8125"/><line style="stroke:#000000;stroke-width:1;" x1="456.1875" x2="456.1875" y1="5" y2="20.9688"/><line style="stroke:#000000;stroke-width:1;" x1="5" x2="5" y1="20.9688" y2="290.8125"/><?plantuml-src VLBVIyCm47xFNn7cuspTEfauH5Pq22A28EnXxE7QN4UWJIL9HQZztxt-C4lPjD3sBlTzkVk-P6qiQ6iWjupLKyPvVSLV40Jgf0Gj-3U_I-utoaf1QuRIE4TjmV2cnT9BtsdtusEaneCqLeC0CvI381YY-c88EivhMIGQ-qwFKcEQob9rlMWX7Z97s4fbKHULRHcpBqZIUHY6sUAI4e5PH0dSK6ct4PAaxId8PI4LXMwFvwhuUAVHf3fqcznYTasy9FgNrx3ZzrUBh_r18sYkAlm4ZhqF9yfxhIlgC-5ddia0SpRyYVGuxT2n8ZLkqcC_tqzeCNGSgxEdu92-xmxW6TssUwiwZxpooFfnkJcPQlTKqTqYimQRzixPXZMChL69_aREmsWMBSD5WXQMFm00?></g></svg>