<svg xmlns="http://www.w3.org/2000/svg" xmlns:xlink="http://www.w3.org/1999/xlink" contentStyleType="text/css" data-diagram-type="SALT" height="266px" preserveAspectRatio="none" style="width:486px;height:266px;background:#FFFFFF;" version="1.1" viewBox="0 0 486 266" width="486px" zoomAndPan="magnify"><?plantuml 1.2026.3beta6?><defs/><g><text fill="#000000" font-family="sans-serif" font-size="12" lengthAdjust="spacing" textLength="0" x="8" y="6">Leaderboard</text><line style="stroke:#000000;stroke-width:1;" x1="6" x2="6" y1="6" y2="16"/><line style="stroke:#000000;stroke-width:1;" x1="6" x2="11" y1="6" y2="6"/><line style="stroke:#000000;stroke-width:1;" x1="11" x2="11" y1="6" y2="16"/><line style="stroke:#000000;stroke-width:1;" x1="11" x2="21" y1="16" y2="16"/><text fill="#000000" font-family="sans-serif" font-size="12" lengthAdjust="spacing" textLength="0" x="23" y="6">Entidades</text><line style="stroke:#000000;stroke-width:1;" x1="21" x2="21" y1="6" y2="16"/><line style="stroke:#000000;stroke-width:1;" x1="21" x2="26" y1="6" y2="6"/><line style="stroke:#000000;stroke-width:1;" x1="26" x2="26" y1="6" y2="16"/><line style="stroke:#000000;stroke-width:1;" x1="26" x2="36" y1="16" y2="16"/><text fill="#000000" font-family="sans-serif" font-size="12" font-weight="700" lengthAdjust="spacing" textLength="48.4336" x="38" y="17.1387">Alertas</text><line style="stroke:#000000;stroke-width:1;" x1="36" x2="36" y1="6" y2="19.9688"/><line style="stroke:#000000;stroke-width:1;" x1="36" x2="89.4336" y1="6" y2="6"/><line style="stroke:#000000;stroke-width:1;" x1="89.4336" x2="89.4336" y1="6" y2="19.9688"/><line style="stroke:#000000;stroke-width:1;" x1="89.4336" x2="99.4336" y1="19.9688" y2="19.9688"/><text fill="#000000" font-family="sans-serif" font-size="12" font-weight="700" lengthAdjust="spacing" textLength="140.8242" x="8" y="35.1074">Alertas configuradas</text><line style="stroke:#AAAAAA;stroke-width:1;" x1="8" x2="478.582" y1="43.4375" y2="43.4375"/><text fill="#000000" font-family="sans-serif" font-size="12" font-weight="700" lengthAdjust="spacing" textLength="41.0918" x="9" y="60.0762">Token</text><text fill="#000000" font-family="sans-serif" font-size="12" font-weight="700" lengthAdjust="spacing" textLength="58.043" x="52.0918" y="60.0762">Mercado</text><text fill="#000000" font-family="sans-serif" font-size="12" font-weight="700" lengthAdjust="spacing" textLength="72.4629" x="112.1348" y="60.0762">Umbral ($)</text><text fill="#000000" font-family="sans-serif" font-size="12" font-weight="700" lengthAdjust="spacing" textLength="62.9766" x="186.5977" y="60.0762">Webhook</text><text fill="#000000" font-family="sans-serif" font-size="12" font-weight="700" lengthAdjust="spacing" textLength="46.0078" x="251.5742" y="60.0762">Estado</text><text fill="#000000" font-family="sans-serif" font-size="12" font-weight="700" lengthAdjust="spacing" textLength="59.6953" x="299.582" y="60.0762">Acciones</text><text fill="#000000" font-family="sans-serif" font-size="12" lengthAdjust="spacing" textLength="0" x="9" y="64.9063">BTC</text><text fill="#000000" font-family="sans-serif" font-size="12" lengthAdjust="spacing" textLength="0" x="52.0918" y="64.9063">PerpNativo</text><text fill="#000000" font-family="sans-serif" font-size="12" lengthAdjust="spacing" textLength="0" x="112.1348" y="64.9063">100 000</text><text fill="#000000" font-family="sans-serif" font-size="12" lengthAdjust="spacing" textLength="0" x="186.5977" y="64.9063">https://discord...</text><text fill="#000000" font-family="sans-serif" font-size="12" lengthAdjust="spacing" textLength="0" x="251.5742" y="64.9063">Activa</text><rect fill="#EEEEEE" height="14" rx="5" ry="5" style="stroke:#000000;stroke-width:2.5;" width="172" x="302.082" y="67.4063"/><text fill="#000000" font-family="sans-serif" font-size="12" lengthAdjust="spacing" textLength="0" x="388.082" y="69.4063">Desactivar] [Eliminar</text><text fill="#000000" font-family="sans-serif" font-size="12" lengthAdjust="spacing" textLength="0" x="9" y="85.9063">PURR</text><text fill="#000000" font-family="sans-serif" font-size="12" lengthAdjust="spacing" textLength="0" x="52.0918" y="85.9063">Spot</text><text fill="#000000" font-family="sans-serif" font-size="12" lengthAdjust="spacing" textLength="0" x="112.1348" y="85.9063">0.50</text><text fill="#000000" font-family="sans-serif" font-size="12" lengthAdjust="spacing" textLength="0" x="186.5977" y="85.9063">https://discord...</text><text fill="#000000" font-family="sans-serif" font-size="12" lengthAdjust="spacing" textLength="0" x="251.5742" y="85.9063">Activa</text><rect fill="#EEEEEE" height="14" rx="5" ry="5" style="stroke:#000000;stroke-width:2.5;" width="172" x="302.082" y="88.4063"/><text fill="#000000" font-family="sans-serif" font-size="12" lengthAdjust="spacing" textLength="0" x="388.082" y="90.4063">Desactivar] [Eliminar</text><text fill="#000000" font-family="sans-serif" font-size="12" lengthAdjust="spacing" textLength="0" x="9" y="106.9063">FRIEND</text><text fill="#000000" font-family="sans-serif" font-size="12" lengthAdjust="spacing" textLength="0" x="52.0918" y="106.9063">PerpHIP3</text><text fill="#000000" font-family="sans-serif" font-size="12" lengthAdjust="spacing" textLength="0" x="112.1348" y="106.9063">2.00</text><text fill="#000000" font-family="sans-serif" font-size="12" lengthAdjust="spacing" textLength="0" x="186.5977" y="106.9063">https://slack...</text><text fill="#000000" font-family="sans-serif" font-size="12" lengthAdjust="spacing" textLength="0" x="251.5742" y="106.9063">Desactivada</text><rect fill="#EEEEEE" height="14" rx="5" ry="5" style="stroke:#000000;stroke-width:2.5;" width="148" x="302.082" y="109.4063"/><text fill="#000000" font-family="sans-serif" font-size="12" lengthAdjust="spacing" textLength="0" x="376.082" y="111.4063">Activar] [Eliminar</text><line style="stroke:#000000;stroke-width:1;" x1="8" x2="51.0918" y1="47.9375" y2="47.9375"/><line style="stroke:#000000;stroke-width:1;" x1="250.5742" x2="298.582" y1="126.9063" y2="126.9063"/><line style="stroke:#000000;stroke-width:1;" x1="51.0918" x2="111.1348" y1="47.9375" y2="47.9375"/><line style="stroke:#000000;stroke-width:1;" x1="298.582" x2="477.582" y1="126.9063" y2="126.9063"/><line style="stroke:#000000;stroke-width:1;" x1="111.1348" x2="185.5977" y1="47.9375" y2="47.9375"/><line style="stroke:#000000;stroke-width:1;" x1="185.5977" x2="250.5742" y1="47.9375" y2="47.9375"/><line style="stroke:#000000;stroke-width:1;" x1="250.5742" x2="298.582" y1="47.9375" y2="47.9375"/><line style="stroke:#000000;stroke-width:1;" x1="298.582" x2="477.582" y1="47.9375" y2="47.9375"/><line style="stroke:#000000;stroke-width:1;" x1="8" x2="51.0918" y1="105.9063" y2="105.9063"/><line style="stroke:#000000;stroke-width:1;" x1="51.0918" x2="111.1348" y1="105.9063" y2="105.9063"/><line style="stroke:#000000;stroke-width:1;" x1="111.1348" x2="185.5977" y1="105.9063" y2="105.9063"/><line style="stroke:#000000;stroke-width:1;" x1="185.5977" x2="250.5742" y1="105.9063" y2="105.9063"/><line style="stroke:#000000;stroke-width:1;" x1="250.5742" x2="298.582" y1="105.9063" y2="105.9063"/><line style="stroke:#000000;stroke-width:1;" x1="298.582" x2="477.582" y1="105.9063" y2="105.9063"/><line style="stroke:#000000;stroke-width:1;" x1="8" x2="51.0918" y1="84.9063" y2="84.9063"/><line style="stroke:#000000;stroke-width:1;" x1="51.0918" x2="111.1348" y1="84.9063" y2="84.9063"/><line style="stroke:#000000;stroke-width:1;" x1="111.1348" x2="185.5977" y1="84.9063" y2="84.9063"/><line style="stroke:#000000;stroke-width:1;" x1="185.5977" x2="250.5742" y1="84.9063" y2="84.9063"/><line style="stroke:#000000;stroke-width:1;" x1="250.5742" x2="298.582" y1="84.9063" y2="84.9063"/><line style="stroke:#000000;stroke-width:1;" x1="298.582" x2="477.582" y1="84.9063" y2="84.9063"/><line style="stroke:#000000;stroke-width:1;" x1="8" x2="51.0918" y1="63.9063" y2="63.9063"/><line style="stroke:#000000;stroke-width:1;" x1="51.0918" x2="111.1348" y1="63.9063" y2="63.9063"/><line style="stroke:#000000;stroke-width:1;" x1="111.1348" x2="185.5977" y1="63.9063" y2="63.9063"/><line style="stroke:#000000;stroke-width:1;" x1="185.5977" x2="250.5742" y1="63.9063" y2="63.9063"/><line style="stroke:#000000;stroke-width:1;" x1="250.5742" x2="298.582" y1="63.9063" y2="63.9063"/><line style="stroke:#000000;stroke-width:1;" x1="298.582" x2="477.582" y1="63.9063" y2="63.9063"/><line style="stroke:#000000;stroke-width:1;" x1="8" x2="51.0918" y1="126.9063" y2="126.9063"/><line style="stroke:#000000;stroke-width:1;" x1="51.0918" x2="111.1348" y1="126.9063" y2="126.9063"/><line style="stroke:#000000;stroke-width:1;" x1="111.1348" x2="185.5977" y1="126.9063" y2="126.9063"/><line style="stroke:#000000;stroke-width:1;" x1="185.5977" x2="250.5742" y1="126.9063" y2="126.9063"/><line style="stroke:#000000;stroke-width:1;" x1="8" x2="8" y1="47.9375" y2="63.9063"/><line style="stroke:#000000;stroke-width:1;" x1="51.0918" x2="51.0918" y1="47.9375" y2="63.9063"/><line style="stroke:#000000;stroke-width:1;" x1="111.1348" x2="111.1348" y1="47.9375" y2="63.9063"/><line style="stroke:#000000;stroke-width:1;" x1="185.5977" x2="185.5977" y1="47.9375" y2="63.9063"/><line style="stroke:#000000;stroke-width:1;" x1="250.5742" x2="250.5742" y1="47.9375" y2="63.9063"/><line style="stroke:#000000;stroke-width:1;" x1="298.582" x2="298.582" y1="47.9375" y2="63.9063"/><line style="stroke:#000000;stroke-width:1;" x1="477.582" x2="477.582" y1="47.9375" y2="63.9063"/><line style="stroke:#000000;stroke-width:1;" x1="8" x2="8" y1="105.9063" y2="126.9063"/><line style="stroke:#000000;stroke-width:1;" x1="51.0918" x2="51.0918" y1="105.9063" y2="126.9063"/><line style="stroke:#000000;stroke-width:1;" x1="111.1348" x2="111.1348" y1="105.9063" y2="126.9063"/><line style="stroke:#000000;stroke-width:1;" x1="185.5977" x2="185.5977" y1="105.9063" y2="126.9063"/><line style="stroke:#000000;stroke-width:1;" x1="250.5742" x2="250.5742" y1="105.9063" y2="126.9063"/><line style="stroke:#000000;stroke-width:1;" x1="298.582" x2="298.582" y1="105.9063" y2="126.9063"/><line style="stroke:#000000;stroke-width:1;" x1="477.582" x2="477.582" y1="105.9063" y2="126.9063"/><line style="stroke:#000000;stroke-width:1;" x1="8" x2="8" y1="84.9063" y2="105.9063"/><line style="stroke:#000000;stroke-width:1;" x1="51.0918" x2="51.0918" y1="84.9063" y2="105.9063"/><line style="stroke:#000000;stroke-width:1;" x1="111.1348" x2="111.1348" y1="84.9063" y2="105.9063"/><line style="stroke:#000000;stroke-width:1;" x1="185.5977" x2="185.5977" y1="84.9063" y2="105.9063"/><line style="stroke:#000000;stroke-width:1;" x1="250.5742" x2="250.5742" y1="84.9063" y2="105.9063"/><line style="stroke:#000000;stroke-width:1;" x1="298.582" x2="298.582" y1="84.9063" y2="105.9063"/><line style="stroke:#000000;stroke-width:1;" x1="477.582" x2="477.582" y1="84.9063" y2="105.9063"/><line style="stroke:#000000;stroke-width:1;" x1="8" x2="8" y1="63.9063" y2="84.9063"/><line style="stroke:#000000;stroke-width:1;" x1="51.0918" x2="51.0918" y1="63.9063" y2="84.9063"/><line style="stroke:#000000;stroke-width:1;" x1="111.1348" x2="111.1348" y1="63.9063" y2="84.9063"/><line style="stroke:#000000;stroke-width:1;" x1="185.5977" x2="185.5977" y1="63.9063" y2="84.9063"/><line style="stroke:#000000;stroke-width:1;" x1="250.5742" x2="250.5742" y1="63.9063" y2="84.9063"/><line style="stroke:#000000;stroke-width:1;" x1="298.582" x2="298.582" y1="63.9063" y2="84.9063"/><line style="stroke:#000000;stroke-width:1;" x1="477.582" x2="477.582" y1="63.9063" y2="84.9063"/><line style="stroke:#000000;stroke-width:1;" x1="7" x2="478.582" y1="22.9688" y2="22.9688"/><line style="stroke:#000000;stroke-width:1;" x1="7" x2="478.582" y1="127.9063" y2="127.9063"/><line style="stroke:#000000;stroke-width:1;" x1="7" x2="7" y1="22.9688" y2="38.9375"/><line style="stroke:#000000;stroke-width:1;" x1="478.582" x2="478.582" y1="38.9375" y2="46.9375"/><line style="stroke:#000000;stroke-width:1;" x1="478.582" x2="478.582" y1="22.9688" y2="38.9375"/><line style="stroke:#000000;stroke-width:1;" x1="7" x2="7" y1="46.9375" y2="127.9063"/><line style="stroke:#000000;stroke-width:1;" x1="7" x2="7" y1="38.9375" y2="46.9375"/><line style="stroke:#000000;stroke-width:1;" x1="478.582" x2="478.582" y1="46.9375" y2="127.9063"/><line style="stroke:#AAAAAA;stroke-width:1;" x1="7" x2="479.582" y1="133.4063" y2="133.4063"/><text fill="#000000" font-family="sans-serif" font-size="12" font-weight="700" lengthAdjust="spacing" textLength="126.4805" x="8" y="150.0449">Crear nueva alerta</text><line style="stroke:#AAAAAA;stroke-width:1;" x1="8" x2="135.4805" y1="158.375" y2="158.375"/><text fill="#000000" font-family="sans-serif" font-size="12" lengthAdjust="spacing" textLength="0" x="8" y="162.875">Mercado:</text><rect fill="#EEEEEE" height="13" style="stroke:#000000;stroke-width:1;" width="55" x="136.4805" y="162.875"/><text fill="#000000" font-family="sans-serif" font-size="12" lengthAdjust="spacing" textLength="0" x="138.4805" y="164.875">Spot</text><line style="stroke:#000000;stroke-width:1;" x1="180.4805" x2="180.4805" y1="162.875" y2="175.875"/><polygon fill="#000000" points="183.4805,168.875,189.4805,168.875,186.4805,170.875" style="stroke:#000000;stroke-width:1;"/><rect fill="#EEEEEE" height="19" style="stroke:#000000;stroke-width:1;" width="54" x="136.4805" y="175.875"/><text fill="#000000" font-family="sans-serif" font-size="12" lengthAdjust="spacing" textLength="0" x="140.2949" y="175.875">PerpNativo</text><text fill="#000000" font-family="sans-serif" font-size="12" lengthAdjust="spacing" textLength="0" x="140.2949" y="185.875">PerpHIP3</text><text fill="#000000" font-family="sans-serif" font-size="12" lengthAdjust="spacing" textLength="0" x="8" y="178.875">Token:</text><rect fill="#EEEEEE" height="13" style="stroke:#000000;stroke-width:1;" width="39" x="136.4805" y="178.875"/><text fill="#000000" font-family="sans-serif" font-size="12" lengthAdjust="spacing" textLength="0" x="138.4805" y="180.875">BTC</text><line style="stroke:#000000;stroke-width:1;" x1="164.4805" x2="164.4805" y1="178.875" y2="191.875"/><polygon fill="#000000" points="167.4805,184.875,173.4805,184.875,170.4805,186.875" style="stroke:#000000;stroke-width:1;"/><text fill="#000000" font-family="sans-serif" font-size="12" lengthAdjust="spacing" textLength="0" x="8" y="194.875">Umbral ($):</text><text fill="#000000" font-family="sans-serif" font-size="12" lengthAdjust="spacing" textLength="3.8145" x="139.4805" y="208.8438">&#160;</text><line style="stroke:#000000;stroke-width:1;" x1="137.4805" x2="220.4805" y1="208.8438" y2="208.8438"/><line style="stroke:#000000;stroke-width:1;" x1="137.4805" x2="137.4805" y1="205.8438" y2="207.8438"/><line style="stroke:#000000;stroke-width:1;" x1="220.4805" x2="220.4805" y1="205.8438" y2="207.8438"/><text fill="#000000" font-family="sans-serif" font-size="12" lengthAdjust="spacing" textLength="0" x="8" y="212.8438">URL Webhook:</text><text fill="#000000" font-family="sans-serif" font-size="12" lengthAdjust="spacing" textLength="3.8145" x="139.4805" y="226.8125">&#160;</text><line style="stroke:#000000;stroke-width:1;" x1="137.4805" x2="380.4805" y1="226.8125" y2="226.8125"/><line style="stroke:#000000;stroke-width:1;" x1="137.4805" x2="137.4805" y1="223.8125" y2="225.8125"/><line style="stroke:#000000;stroke-width:1;" x1="380.4805" x2="380.4805" y1="223.8125" y2="225.8125"/><line style="stroke:#AAAAAA;stroke-width:1;" x1="8" x2="135.4805" y1="234.3125" y2="234.3125"/><rect fill="#EEEEEE" height="14" rx="5" ry="5" style="stroke:#000000;stroke-width:2.5;" width="100" x="10.5" y="241.3125"/><text fill="#000000" font-family="sans-serif" font-size="12" lengthAdjust="spacing" textLength="0" x="60.5" y="243.3125">Crear alerta</text><line style="stroke:#000000;stroke-width:1;" x1="7" x2="135.4805" y1="137.9063" y2="137.9063"/><line style="stroke:#000000;stroke-width:1;" x1="135.4805" x2="383.4805" y1="137.9063" y2="137.9063"/><line style="stroke:#000000;stroke-width:1;" x1="7" x2="135.4805" y1="258.8125" y2="258.8125"/><line style="stroke:#000000;stroke-width:1;" x1="135.4805" x2="383.4805" y1="258.8125" y2="258.8125"/><line style="stroke:#000000;stroke-width:1;" x1="7" x2="7" y1="137.9063" y2="153.875"/><line style="stroke:#000000;stroke-width:1;" x1="383.4805" x2="383.4805" y1="161.875" y2="177.875"/><line style="stroke:#000000;stroke-width:1;" x1="383.4805" x2="383.4805" y1="137.9063" y2="153.875"/><line style="stroke:#000000;stroke-width:1;" x1="7" x2="7" y1="237.8125" y2="258.8125"/><line style="stroke:#000000;stroke-width:1;" x1="7" x2="7" y1="211.8438" y2="229.8125"/><line style="stroke:#000000;stroke-width:1;" x1="383.4805" x2="383.4805" y1="237.8125" y2="258.8125"/><line style="stroke:#000000;stroke-width:1;" x1="7" x2="7" y1="177.875" y2="193.875"/><line style="stroke:#000000;stroke-width:1;" x1="383.4805" x2="383.4805" y1="211.8438" y2="229.8125"/><line style="stroke:#000000;stroke-width:1;" x1="7" x2="7" y1="153.875" y2="161.875"/><line style="stroke:#000000;stroke-width:1;" x1="383.4805" x2="383.4805" y1="177.875" y2="193.875"/><line style="stroke:#000000;stroke-width:1;" x1="383.4805" x2="383.4805" y1="153.875" y2="161.875"/><line style="stroke:#000000;stroke-width:1;" x1="7" x2="7" y1="229.8125" y2="237.8125"/><line style="stroke:#000000;stroke-width:1;" x1="7" x2="7" y1="193.875" y2="211.8438"/><line style="stroke:#000000;stroke-width:1;" x1="383.4805" x2="383.4805" y1="229.8125" y2="237.8125"/><line style="stroke:#000000;stroke-width:1;" x1="7" x2="7" y1="161.875" y2="177.875"/><line style="stroke:#000000;stroke-width:1;" x1="383.4805" x2="383.4805" y1="193.875" y2="211.8438"/><line style="stroke:#000000;stroke-width:1;" x1="5" x2="480.582" y1="5" y2="5"/><line style="stroke:#000000;stroke-width:1;" x1="5" x2="480.582" y1="260.8125" y2="260.8125"/><line style="stroke:#000000;stroke-width:1;" x1="5" x2="5" y1="5" y2="20.9688"/><line style="stroke:#000000;stroke-width:1;" x1="480.582" x2="480.582" y1="20.9688" y2="260.8125"/><line style="stroke:#000000;stroke-width:1;" x1="480.582" x2="480.582" y1="5" y2="20.9688"/><line style="stroke:#000000;stroke-width:1;" x1="5" x2="5" y1="20.9688" y2="260.8125"/><rect fill="#EEEEEE" height="19" style="stroke:#000000;stroke-width:1;" width="54" x="136.4805" y="175.875"/><text fill="#000000" font-family="sans-serif" font-size="12" lengthAdjust="spacing" textLength="0" x="140.2949" y="175.875">PerpNativo</text><text fill="#000000" font-family="sans-serif" font-size="12" lengthAdjust="spacing" textLength="0" x="140.2949" y="185.875">PerpHIP3</text><?plantuml-src fLBHJi8m57tVLpJeWuOm1aGUY35Cc9442PaG7mXBxjOg3MCbRV45zkzUscsWw9DDsfxRUtPsRq_xIeFK2bBjEFkwGyY-ISOCA9En04d9WGIPvXGF5EBx-C5FcTIWI7xauiIrRZPodar4ziu_TX8eg2BRQ3GAjBygWFba9jOiizelJ2P0XGtccrX2IcwkRstynkAL46iR15XsIVIJX8kCgKhqSJR0p9J9xGGq_ppIMfv7F9m7ij9wgthD9kKg4PAwhek7Ve8yGB0OCWKca4ko25A-uHd2Idew3qEalMw5nirpx_ul-HIEWicmAFXvDEqWRBlVQbKf96ihMubHe-t_APmxfxMy-dEd1fA19DcEOP5WNBlmgR2ZXp-AJCVH-QL6LS5HmJTE6ZOwK1wUR3ncQgGQjP8GZadXxG_6RwDsKUN2Tc9xM5PTvqxkE7sMKVksMsxRQtVTJimqTBy0?></g></svg>