<svg xmlns="http://www.w3.org/2000/svg" xmlns:xlink="http://www.w3.org/1999/xlink" contentStyleType="text/css" data-diagram-type="SALT" height="204px" preserveAspectRatio="none" style="width:383px;height:204px;background:#FFFFFF;" version="1.1" viewBox="0 0 383 204" width="383px" zoomAndPan="magnify"><?plantuml 1.2026.3beta6?><defs/><g><text fill="#000000" font-family="sans-serif" font-size="12" lengthAdjust="spacing" textLength="76.2188" x="8" y="17.1387">Leaderboard</text><line style="stroke:#000000;stroke-width:1;" x1="6" x2="6" y1="6" y2="19.9688"/><line style="stroke:#000000;stroke-width:1;" x1="6" x2="87.2188" y1="6" y2="6"/><line style="stroke:#000000;stroke-width:1;" x1="87.2188" x2="87.2188" y1="6" y2="19.9688"/><line style="stroke:#000000;stroke-width:1;" x1="87.2188" x2="97.2188" y1="19.9688" y2="19.9688"/><text fill="#000000" font-family="sans-serif" font-size="12" font-weight="700" lengthAdjust="spacing" textLength="67.1484" x="99.2188" y="17.1387">Entidades</text><line style="stroke:#000000;stroke-width:1;" x1="97.2188" x2="97.2188" y1="6" y2="19.9688"/><line style="stroke:#000000;stroke-width:1;" x1="97.2188" x2="169.3672" y1="6" y2="6"/><line style="stroke:#000000;stroke-width:1;" x1="169.3672" x2="169.3672" y1="6" y2="19.9688"/><line style="stroke:#000000;stroke-width:1;" x1="169.3672" x2="179.3672" y1="19.9688" y2="19.9688"/><text fill="#000000" font-family="sans-serif" font-size="12" lengthAdjust="spacing" textLength="42.1699" x="181.3672" y="17.1387">Alertas</text><line style="stroke:#000000;stroke-width:1;" x1="179.3672" x2="179.3672" y1="6" y2="19.9688"/><line style="stroke:#000000;stroke-width:1;" x1="179.3672" x2="226.5371" y1="6" y2="6"/><line style="stroke:#000000;stroke-width:1;" x1="226.5371" x2="226.5371" y1="6" y2="19.9688"/><line style="stroke:#000000;stroke-width:1;" x1="226.5371" x2="236.5371" y1="19.9688" y2="19.9688"/><line style="stroke:#AAAAAA;stroke-width:1;" x1="6" x2="377.1406" y1="25.4688" y2="25.4688"/><text fill="#000000" font-family="sans-serif" font-size="12" font-weight="700" lengthAdjust="spacing" textLength="53.4375" x="7" y="42.1074">Nombre</text><text fill="#000000" font-family="sans-serif" font-size="12" font-weight="700" lengthAdjust="spacing" textLength="78.5391" x="85.2422" y="42.1074">Direcciones</text><text fill="#000000" font-family="sans-serif" font-size="12" font-weight="700" lengthAdjust="spacing" textLength="59.6953" x="230.1406" y="42.1074">Acciones</text><text fill="#000000" font-family="sans-serif" font-size="12" lengthAdjust="spacing" textLength="71.209" x="7" y="58.0762">Wintermute</text><text fill="#000000" font-family="sans-serif" font-size="12" lengthAdjust="spacing" textLength="142.8984" x="85.2422" y="58.0762">0xabc1...f3, 0xdef2...a7</text><rect fill="#EEEEEE" height="17.9688" rx="5" ry="5" style="stroke:#000000;stroke-width:2.5;" width="140" x="232.6406" y="49.4375"/><text fill="#000000" font-family="sans-serif" font-size="12" lengthAdjust="spacing" textLength="97.8691" x="253.7061" y="62.5762">Editar] [Eliminar</text><text fill="#000000" font-family="sans-serif" font-size="12" lengthAdjust="spacing" textLength="76.2422" x="7" y="83.0449">JumpTrading</text><text fill="#000000" font-family="sans-serif" font-size="12" lengthAdjust="spacing" textLength="68.3086" x="85.2422" y="83.0449">0x9ef4...b2</text><rect fill="#EEEEEE" height="17.9688" rx="5" ry="5" style="stroke:#000000;stroke-width:2.5;" width="140" x="232.6406" y="74.4063"/><text fill="#000000" font-family="sans-serif" font-size="12" lengthAdjust="spacing" textLength="97.8691" x="253.7061" y="87.5449">Editar] [Eliminar</text><line style="stroke:#000000;stroke-width:1;" x1="6" x2="84.2422" y1="29.9688" y2="29.9688"/><line style="stroke:#000000;stroke-width:1;" x1="84.2422" x2="229.1406" y1="45.9375" y2="45.9375"/><line style="stroke:#000000;stroke-width:1;" x1="229.1406" x2="376.1406" y1="70.9063" y2="70.9063"/><line style="stroke:#000000;stroke-width:1;" x1="84.2422" x2="229.1406" y1="29.9688" y2="29.9688"/><line style="stroke:#000000;stroke-width:1;" x1="229.1406" x2="376.1406" y1="45.9375" y2="45.9375"/><line style="stroke:#000000;stroke-width:1;" x1="229.1406" x2="376.1406" y1="29.9688" y2="29.9688"/><line style="stroke:#000000;stroke-width:1;" x1="6" x2="84.2422" y1="95.875" y2="95.875"/><line style="stroke:#000000;stroke-width:1;" x1="84.2422" x2="229.1406" y1="95.875" y2="95.875"/><line style="stroke:#000000;stroke-width:1;" x1="6" x2="84.2422" y1="70.9063" y2="70.9063"/><line style="stroke:#000000;stroke-width:1;" x1="229.1406" x2="376.1406" y1="95.875" y2="95.875"/><line style="stroke:#000000;stroke-width:1;" x1="6" x2="84.2422" y1="45.9375" y2="45.9375"/><line style="stroke:#000000;stroke-width:1;" x1="84.2422" x2="229.1406" y1="70.9063" y2="70.9063"/><line style="stroke:#000000;stroke-width:1;" x1="6" x2="6" y1="29.9688" y2="45.9375"/><line style="stroke:#000000;stroke-width:1;" x1="84.2422" x2="84.2422" y1="45.9375" y2="70.9063"/><line style="stroke:#000000;stroke-width:1;" x1="229.1406" x2="229.1406" y1="70.9063" y2="95.875"/><line style="stroke:#000000;stroke-width:1;" x1="376.1406" x2="376.1406" y1="70.9063" y2="95.875"/><line style="stroke:#000000;stroke-width:1;" x1="84.2422" x2="84.2422" y1="29.9688" y2="45.9375"/><line style="stroke:#000000;stroke-width:1;" x1="229.1406" x2="229.1406" y1="45.9375" y2="70.9063"/><line style="stroke:#000000;stroke-width:1;" x1="376.1406" x2="376.1406" y1="45.9375" y2="70.9063"/><line style="stroke:#000000;stroke-width:1;" x1="229.1406" x2="229.1406" y1="29.9688" y2="45.9375"/><line style="stroke:#000000;stroke-width:1;" x1="376.1406" x2="376.1406" y1="29.9688" y2="45.9375"/><line style="stroke:#000000;stroke-width:1;" x1="6" x2="6" y1="70.9063" y2="95.875"/><line style="stroke:#000000;stroke-width:1;" x1="6" x2="6" y1="45.9375" y2="70.9063"/><line style="stroke:#000000;stroke-width:1;" x1="84.2422" x2="84.2422" y1="70.9063" y2="95.875"/><line style="stroke:#AAAAAA;stroke-width:1;" x1="6" x2="377.1406" y1="101.375" y2="101.375"/><text fill="#000000" font-family="sans-serif" font-size="12" font-weight="700" lengthAdjust="spacing" textLength="138.1875" x="6" y="117.0137">Crear nueva entidad</text><text fill="#000000" font-family="sans-serif" font-size="12" lengthAdjust="spacing" textLength="51.9844" x="7" y="133.9824">Nombre:</text><text fill="#000000" font-family="sans-serif" font-size="12" lengthAdjust="spacing" textLength="3.8145" x="72.4102" y="133.9824">&#160;</text><line style="stroke:#000000;stroke-width:1;" x1="70.4102" x2="233.4102" y1="136.8125" y2="136.8125"/><line style="stroke:#000000;stroke-width:1;" x1="70.4102" x2="70.4102" y1="133.8125" y2="135.8125"/><line style="stroke:#000000;stroke-width:1;" x1="233.4102" x2="233.4102" y1="133.8125" y2="135.8125"/><text fill="#000000" font-family="sans-serif" font-size="12" lengthAdjust="spacing" textLength="60.4102" x="7" y="151.9512">Direccion:</text><text fill="#000000" font-family="sans-serif" font-size="12" lengthAdjust="spacing" textLength="3.8145" x="72.4102" y="151.9512">&#160;</text><line style="stroke:#000000;stroke-width:1;" x1="70.4102" x2="313.4102" y1="154.7813" y2="154.7813"/><line style="stroke:#000000;stroke-width:1;" x1="70.4102" x2="70.4102" y1="151.7813" y2="153.7813"/><line style="stroke:#000000;stroke-width:1;" x1="313.4102" x2="313.4102" y1="151.7813" y2="153.7813"/><rect fill="#EEEEEE" height="17.9688" rx="5" ry="5" style="stroke:#000000;stroke-width:2.5;" width="52" x="319.9102" y="143.3125"/><text fill="#000000" font-family="sans-serif" font-size="12" lengthAdjust="spacing" textLength="39.0527" x="326.3838" y="156.4512">Anadir</text><line style="stroke:#AAAAAA;stroke-width:1;" x1="6" x2="377.1406" y1="170.2813" y2="170.2813"/><rect fill="#EEEEEE" height="17.9688" rx="5" ry="5" style="stroke:#000000;stroke-width:2.5;" width="124" x="8.5" y="177.2813"/><text fill="#000000" font-family="sans-serif" font-size="12" lengthAdjust="spacing" textLength="98.5254" x="21.2373" y="190.4199">Guardar entidad</text><line style="stroke:#000000;stroke-width:1;" x1="5" x2="377.1406" y1="5" y2="5"/><line style="stroke:#000000;stroke-width:1;" x1="5" x2="377.1406" y1="198.75" y2="198.75"/><line style="stroke:#000000;stroke-width:1;" x1="5" x2="5" y1="5" y2="20.9688"/><line style="stroke:#000000;stroke-width:1;" x1="377.1406" x2="377.1406" y1="5" y2="20.9688"/><line style="stroke:#000000;stroke-width:1;" x1="5" x2="5" y1="173.7813" y2="198.75"/><line style="stroke:#000000;stroke-width:1;" x1="377.1406" x2="377.1406" y1="173.7813" y2="198.75"/><line style="stroke:#000000;stroke-width:1;" x1="5" x2="5" y1="120.8438" y2="165.7813"/><line style="stroke:#000000;stroke-width:1;" x1="377.1406" x2="377.1406" y1="120.8438" y2="165.7813"/><line style="stroke:#000000;stroke-width:1;" x1="5" x2="5" y1="96.875" y2="104.875"/><line style="stroke:#000000;stroke-width:1;" x1="377.1406" x2="377.1406" y1="96.875" y2="104.875"/><line style="stroke:#000000;stroke-width:1;" x1="5" x2="5" y1="20.9688" y2="28.9688"/><line style="stroke:#000000;stroke-width:1;" x1="377.1406" x2="377.1406" y1="20.9688" y2="28.9688"/><line style="stroke:#000000;stroke-width:1;" x1="5" x2="5" y1="165.7813" y2="173.7813"/><line style="stroke:#000000;stroke-width:1;" x1="377.1406" x2="377.1406" y1="165.7813" y2="173.7813"/><line style="stroke:#000000;stroke-width:1;" x1="5" x2="5" y1="104.875" y2="120.8438"/><line style="stroke:#000000;stroke-width:1;" x1="377.1406" x2="377.1406" y1="104.875" y2="120.8438"/><line style="stroke:#000000;stroke-width:1;" x1="5" x2="5" y1="28.9688" y2="96.875"/><line style="stroke:#000000;stroke-width:1;" x1="377.1406" x2="377.1406" y1="28.9688" y2="96.875"/><?plantuml-src TL71IWCn4BtdAuPwr8tjLYeMaIvQ115FWeVImsGpAu7ThCncHQZzToVPOaNNEOHCvhqtRpAhBY273kkWTgSAO7SEZuIMsBJ85ZxXsjoiVN1MtZf9YveuO0TxmMPP5XadSa34FRMDOO8KYNZdcChIjLweVoD1YaCzQRmu7uYRFb2iJZ_Gb3EjTJK_ayHIbKk2bqV-PcsTsD_AfNQDyt9DEWzzy_RCQ9r_JJfNL5q8rUG0epx6TOuZYizR9cJmFRqZqF0VSVRKRfXxEMXDnbfC4kxxEvR_uNumegt2omo_l6pkUrcCU3cusAgzMf6tQOLgflDflj1pGm4NNm00?></g></svg>