<?plantuml 1.2026.1?><svg xmlns="http://www.w3.org/2000/svg" xmlns:xlink="http://www.w3.org/1999/xlink" contentStyleType="text/css" data-diagram-type="SALT" height="220px" preserveAspectRatio="none" style="width:710px;height:220px;background:#FFFFFF;" version="1.1" viewBox="0 0 710 220" width="710px" zoomAndPan="magnify"><defs/><g><text fill="#000000" font-family="sans-serif" font-size="12" font-weight="bold" lengthAdjust="spacing" textLength="261.4043" x="6" y="17.1387">Direcciones de la entidad: Wintermute</text><line style="stroke:#AAAAAA;stroke-width:1;" x1="6" x2="268.4043" y1="25.4688" y2="25.4688"/><text fill="#000000" font-family="sans-serif" font-size="12" lengthAdjust="spacing" textLength="39.5391" x="6" y="41.1074">Filtrar:</text><text fill="#000000" font-family="sans-serif" font-size="12" lengthAdjust="spacing" textLength="3.8145" x="272.4043" y="41.1074">&#160;</text><line style="stroke:#000000;stroke-width:1;" x1="270.4043" x2="513.4043" y1="43.9375" y2="43.9375"/><line style="stroke:#000000;stroke-width:1;" x1="270.4043" x2="270.4043" y1="40.9375" y2="42.9375"/><line style="stroke:#000000;stroke-width:1;" x1="513.4043" x2="513.4043" y1="40.9375" y2="42.9375"/><line style="stroke:#AAAAAA;stroke-width:1;" x1="6" x2="268.4043" y1="51.4375" y2="51.4375"/><text fill="#000000" font-family="sans-serif" font-size="12" font-weight="bold" lengthAdjust="spacing" textLength="63.2578" x="7" y="68.0762">Direcci&#243;n</text><text fill="#000000" font-family="sans-serif" font-size="12" font-weight="bold" lengthAdjust="spacing" textLength="59.6953" x="77.3086" y="68.0762">Acciones</text><text fill="#000000" font-family="sans-serif" font-size="12" lengthAdjust="spacing" textLength="67.2422" x="7" y="84.0449">0xabc1...f3</text><rect fill="#EEEEEE" height="17.9688" rx="5" ry="5" style="stroke:#000000;stroke-width:2.5;" width="68" x="79.8086" y="75.4063"/><text fill="#000000" font-family="sans-serif" font-size="12" lengthAdjust="spacing" textLength="49.166" x="89.2256" y="88.5449">Eliminar</text><text fill="#000000" font-family="sans-serif" font-size="12" lengthAdjust="spacing" textLength="68.0273" x="7" y="109.0137">0xdef2...a7</text><rect fill="#EEEEEE" height="17.9688" rx="5" ry="5" style="stroke:#000000;stroke-width:2.5;" width="68" x="79.8086" y="100.375"/><text fill="#000000" font-family="sans-serif" font-size="12" lengthAdjust="spacing" textLength="49.166" x="89.2256" y="113.5137">Eliminar</text><text fill="#000000" font-family="sans-serif" font-size="12" lengthAdjust="spacing" textLength="68.3086" x="7" y="133.9824">0x9ef4...b2</text><rect fill="#EEEEEE" height="17.9688" rx="5" ry="5" style="stroke:#000000;stroke-width:2.5;" width="68" x="79.8086" y="125.3438"/><text fill="#000000" font-family="sans-serif" font-size="12" lengthAdjust="spacing" textLength="49.166" x="89.2256" y="138.4824">Eliminar</text><line style="stroke:#000000;stroke-width:1;" x1="6" x2="76.3086" y1="55.9375" y2="55.9375"/><line style="stroke:#000000;stroke-width:1;" x1="76.3086" x2="151.3086" y1="71.9063" y2="71.9063"/><line style="stroke:#000000;stroke-width:1;" x1="76.3086" x2="151.3086" y1="55.9375" y2="55.9375"/><line style="stroke:#000000;stroke-width:1;" x1="6" x2="76.3086" y1="146.8125" y2="146.8125"/><line style="stroke:#000000;stroke-width:1;" x1="76.3086" x2="151.3086" y1="146.8125" y2="146.8125"/><line style="stroke:#000000;stroke-width:1;" x1="6" x2="76.3086" y1="121.8438" y2="121.8438"/><line style="stroke:#000000;stroke-width:1;" x1="6" x2="76.3086" y1="96.875" y2="96.875"/><line style="stroke:#000000;stroke-width:1;" x1="76.3086" x2="151.3086" y1="121.8438" y2="121.8438"/><line style="stroke:#000000;stroke-width:1;" x1="6" x2="76.3086" y1="71.9063" y2="71.9063"/><line style="stroke:#000000;stroke-width:1;" x1="76.3086" x2="151.3086" y1="96.875" y2="96.875"/><line style="stroke:#000000;stroke-width:1;" x1="6" x2="6" y1="55.9375" y2="71.9063"/><line style="stroke:#000000;stroke-width:1;" x1="151.3086" x2="151.3086" y1="96.875" y2="121.8438"/><line style="stroke:#000000;stroke-width:1;" x1="76.3086" x2="76.3086" y1="71.9063" y2="96.875"/><line style="stroke:#000000;stroke-width:1;" x1="151.3086" x2="151.3086" y1="71.9063" y2="96.875"/><line style="stroke:#000000;stroke-width:1;" x1="76.3086" x2="76.3086" y1="55.9375" y2="71.9063"/><line style="stroke:#000000;stroke-width:1;" x1="151.3086" x2="151.3086" y1="55.9375" y2="71.9063"/><line style="stroke:#000000;stroke-width:1;" x1="6" x2="6" y1="121.8438" y2="146.8125"/><line style="stroke:#000000;stroke-width:1;" x1="6" x2="6" y1="96.875" y2="121.8438"/><line style="stroke:#000000;stroke-width:1;" x1="76.3086" x2="76.3086" y1="121.8438" y2="146.8125"/><line style="stroke:#000000;stroke-width:1;" x1="6" x2="6" y1="71.9063" y2="96.875"/><line style="stroke:#000000;stroke-width:1;" x1="151.3086" x2="151.3086" y1="121.8438" y2="146.8125"/><line style="stroke:#000000;stroke-width:1;" x1="76.3086" x2="76.3086" y1="96.875" y2="121.8438"/><line style="stroke:#AAAAAA;stroke-width:1;" x1="6" x2="268.4043" y1="152.3125" y2="152.3125"/><text fill="#000000" font-family="sans-serif" font-size="12" lengthAdjust="spacing" textLength="101.0215" x="6" y="167.9512">Nueva direcci&#243;n:</text><text fill="#000000" font-family="sans-serif" font-size="12" lengthAdjust="spacing" textLength="3.8145" x="272.4043" y="167.9512">&#160;</text><line style="stroke:#000000;stroke-width:1;" x1="270.4043" x2="641.4043" y1="170.7813" y2="170.7813"/><line style="stroke:#000000;stroke-width:1;" x1="270.4043" x2="270.4043" y1="167.7813" y2="169.7813"/><line style="stroke:#000000;stroke-width:1;" x1="641.4043" x2="641.4043" y1="167.7813" y2="169.7813"/><rect fill="#EEEEEE" height="17.9688" rx="5" ry="5" style="stroke:#000000;stroke-width:2.5;" width="52" x="647.9043" y="159.3125"/><text fill="#000000" font-family="sans-serif" font-size="12" lengthAdjust="spacing" textLength="39.0527" x="654.3779" y="172.4512">A&#241;adir</text><line style="stroke:#AAAAAA;stroke-width:1;" x1="6" x2="268.4043" y1="185.2813" y2="185.2813"/><rect fill="#EEEEEE" height="17.9688" rx="5" ry="5" style="stroke:#000000;stroke-width:2.5;" width="52" x="8.5" y="192.2813"/><text fill="#000000" font-family="sans-serif" font-size="12" lengthAdjust="spacing" textLength="38.3027" x="15.3486" y="205.4199">Volver</text><line style="stroke:#000000;stroke-width:1;" x1="5" x2="268.4043" y1="5" y2="5"/><line style="stroke:#000000;stroke-width:1;" x1="268.4043" x2="644.4043" y1="5" y2="5"/><line style="stroke:#000000;stroke-width:1;" x1="644.4043" x2="703.4043" y1="5" y2="5"/><line style="stroke:#000000;stroke-width:1;" x1="5" x2="268.4043" y1="213.75" y2="213.75"/><line style="stroke:#000000;stroke-width:1;" x1="268.4043" x2="644.4043" y1="213.75" y2="213.75"/><line style="stroke:#000000;stroke-width:1;" x1="644.4043" x2="703.4043" y1="213.75" y2="213.75"/><line style="stroke:#000000;stroke-width:1;" x1="5" x2="5" y1="5" y2="20.9688"/><line style="stroke:#000000;stroke-width:1;" x1="703.4043" x2="703.4043" y1="28.9688" y2="46.9375"/><line style="stroke:#000000;stroke-width:1;" x1="703.4043" x2="703.4043" y1="5" y2="20.9688"/><line style="stroke:#000000;stroke-width:1;" x1="5" x2="5" y1="180.7813" y2="188.7813"/><line style="stroke:#000000;stroke-width:1;" x1="5" x2="5" y1="147.8125" y2="155.8125"/><line style="stroke:#000000;stroke-width:1;" x1="703.4043" x2="703.4043" y1="180.7813" y2="188.7813"/><line style="stroke:#000000;stroke-width:1;" x1="5" x2="5" y1="46.9375" y2="54.9375"/><line style="stroke:#000000;stroke-width:1;" x1="703.4043" x2="703.4043" y1="147.8125" y2="155.8125"/><line style="stroke:#000000;stroke-width:1;" x1="5" x2="5" y1="20.9688" y2="28.9688"/><line style="stroke:#000000;stroke-width:1;" x1="703.4043" x2="703.4043" y1="46.9375" y2="54.9375"/><line style="stroke:#000000;stroke-width:1;" x1="703.4043" x2="703.4043" y1="20.9688" y2="28.9688"/><line style="stroke:#000000;stroke-width:1;" x1="5" x2="5" y1="188.7813" y2="213.75"/><line style="stroke:#000000;stroke-width:1;" x1="5" x2="5" y1="155.8125" y2="180.7813"/><line style="stroke:#000000;stroke-width:1;" x1="703.4043" x2="703.4043" y1="188.7813" y2="213.75"/><line style="stroke:#000000;stroke-width:1;" x1="5" x2="5" y1="54.9375" y2="147.8125"/><line style="stroke:#000000;stroke-width:1;" x1="703.4043" x2="703.4043" y1="155.8125" y2="180.7813"/><line style="stroke:#000000;stroke-width:1;" x1="5" x2="5" y1="28.9688" y2="46.9375"/><line style="stroke:#000000;stroke-width:1;" x1="703.4043" x2="703.4043" y1="54.9375" y2="147.8125"/><?plantuml-src ZP0z2i9048NxFSKGIybYeYYAI09gQQc5f9Xa9x2mhh1PHKWyb7W4B-P6OYpymIccU7ppvir4XKLZ2rIMbLq6C4rdSsaeo-HUKm62G26GjbAWcC16QajcTx3aKD_tNLzAPGsQ2LJWmS_osfcomshXjUjsrGrKrMhSh7zGlHEcMS0vp_jFPBjGSYSrcgGX1EMX8t3qbHXJFd146duapcsqrO6E2AADzSTTRtVMxl7jWiubQOstwxqwaXFEB28j7Xzd0GzxuP07Tm00?></g></svg>