<svg xmlns="http://www.w3.org/2000/svg" xmlns:xlink="http://www.w3.org/1999/xlink" contentStyleType="text/css" data-diagram-type="SALT" height="416px" preserveAspectRatio="none" style="width:439px;height:416px;background:#FFFFFF;" version="1.1" viewBox="0 0 439 416" width="439px" zoomAndPan="magnify"><?plantuml 1.2026.3beta6?><defs/><g><text fill="#000000" font-family="sans-serif" font-size="12" font-weight="700" lengthAdjust="spacing" textLength="85.9688" x="8" y="17.1387">Leaderboard</text><line style="stroke:#000000;stroke-width:1;" x1="6" x2="6" y1="6" y2="19.9688"/><line style="stroke:#000000;stroke-width:1;" x1="6" x2="96.9688" y1="6" y2="6"/><line style="stroke:#000000;stroke-width:1;" x1="96.9688" x2="96.9688" y1="6" y2="19.9688"/><line style="stroke:#000000;stroke-width:1;" x1="96.9688" x2="106.9688" y1="19.9688" y2="19.9688"/><text fill="#000000" font-family="sans-serif" font-size="12" lengthAdjust="spacing" textLength="0" x="108.9688" y="6">Entidades</text><line style="stroke:#000000;stroke-width:1;" x1="106.9688" x2="106.9688" y1="6" y2="16"/><line style="stroke:#000000;stroke-width:1;" x1="106.9688" x2="111.9688" y1="6" y2="6"/><line style="stroke:#000000;stroke-width:1;" x1="111.9688" x2="111.9688" y1="6" y2="16"/><line style="stroke:#000000;stroke-width:1;" x1="111.9688" x2="121.9688" y1="16" y2="16"/><text fill="#000000" font-family="sans-serif" font-size="12" lengthAdjust="spacing" textLength="0" x="123.9688" y="6">Alertas</text><line style="stroke:#000000;stroke-width:1;" x1="121.9688" x2="121.9688" y1="6" y2="16"/><line style="stroke:#000000;stroke-width:1;" x1="121.9688" x2="126.9688" y1="6" y2="6"/><line style="stroke:#000000;stroke-width:1;" x1="126.9688" x2="126.9688" y1="6" y2="16"/><line style="stroke:#000000;stroke-width:1;" x1="126.9688" x2="136.9688" y1="16" y2="16"/><text fill="#000000" font-family="sans-serif" font-size="12" font-weight="700" lengthAdjust="spacing" textLength="132.3633" x="8" y="35.1074">Spot (HIP-1 / HIP-2)</text><line style="stroke:#AAAAAA;stroke-width:1;" x1="8" x2="365.6035" y1="43.4375" y2="43.4375"/><text fill="#000000" font-family="sans-serif" font-size="12" lengthAdjust="spacing" textLength="0" x="8" y="47.9375">Token:</text><rect fill="#EEEEEE" height="13" style="stroke:#000000;stroke-width:1;" width="47" x="366.6035" y="47.9375"/><text fill="#000000" font-family="sans-serif" font-size="12" lengthAdjust="spacing" textLength="0" x="368.6035" y="49.9375">PURR</text><line style="stroke:#000000;stroke-width:1;" x1="402.6035" x2="402.6035" y1="47.9375" y2="60.9375"/><polygon fill="#000000" points="405.6035,53.9375,411.6035,53.9375,408.6035,55.9375" style="stroke:#000000;stroke-width:1;"/><text fill="#000000" font-family="sans-serif" font-size="12" lengthAdjust="spacing" textLength="0" x="8" y="63.9375">Temporalidad:</text><rect fill="#EEEEEE" height="13" style="stroke:#000000;stroke-width:1;" width="39" x="366.6035" y="63.9375"/><text fill="#000000" font-family="sans-serif" font-size="12" lengthAdjust="spacing" textLength="0" x="368.6035" y="65.9375">1h</text><line style="stroke:#000000;stroke-width:1;" x1="394.6035" x2="394.6035" y1="63.9375" y2="76.9375"/><polygon fill="#000000" points="397.6035,69.9375,403.6035,69.9375,400.6035,71.9375" style="stroke:#000000;stroke-width:1;"/><rect fill="#EEEEEE" height="49" style="stroke:#000000;stroke-width:1;" width="38" x="366.6035" y="76.9375"/><text fill="#000000" font-family="sans-serif" font-size="12" lengthAdjust="spacing" textLength="0" x="370.418" y="76.9375">4h</text><text fill="#000000" font-family="sans-serif" font-size="12" lengthAdjust="spacing" textLength="0" x="370.418" y="86.9375">6h</text><text fill="#000000" font-family="sans-serif" font-size="12" lengthAdjust="spacing" textLength="0" x="370.418" y="96.9375">12h</text><text fill="#000000" font-family="sans-serif" font-size="12" lengthAdjust="spacing" textLength="0" x="370.418" y="106.9375">1d</text><text fill="#000000" font-family="sans-serif" font-size="12" lengthAdjust="spacing" textLength="0" x="370.418" y="116.9375">1w</text><text fill="#000000" font-family="sans-serif" font-size="12" font-weight="700" lengthAdjust="spacing" textLength="24.1816" x="9" y="92.0762">Pos</text><text fill="#000000" font-family="sans-serif" font-size="12" font-weight="700" lengthAdjust="spacing" textLength="127.8633" x="35.1816" y="92.0762">Direccion / Entidad</text><text fill="#000000" font-family="sans-serif" font-size="12" font-weight="700" lengthAdjust="spacing" textLength="104.3438" x="165.0449" y="92.0762">Vol. compra ($)</text><text fill="#000000" font-family="sans-serif" font-size="12" font-weight="700" lengthAdjust="spacing" textLength="92.2148" x="271.3887" y="92.0762">Vol. venta ($)</text><text fill="#000000" font-family="sans-serif" font-size="12" lengthAdjust="spacing" textLength="7.6348" x="9" y="110.875">1</text><text fill="#000000" font-family="sans-serif" font-size="12" lengthAdjust="spacing" textLength="0" x="35.1816" y="96.9063">Wintermute</text><text fill="#000000" font-family="sans-serif" font-size="12" lengthAdjust="spacing" textLength="0" x="165.0449" y="96.9063">1 200 000</text><text fill="#000000" font-family="sans-serif" font-size="12" lengthAdjust="spacing" textLength="0" x="271.3887" y="96.9063">340 000</text><text fill="#000000" font-family="sans-serif" font-size="12" lengthAdjust="spacing" textLength="7.6348" x="9" y="126.8438">2</text><text fill="#000000" font-family="sans-serif" font-size="12" lengthAdjust="spacing" textLength="0" x="35.1816" y="112.875">0xabc1...f3</text><text fill="#000000" font-family="sans-serif" font-size="12" lengthAdjust="spacing" textLength="0" x="165.0449" y="112.875">890 000</text><text fill="#000000" font-family="sans-serif" font-size="12" lengthAdjust="spacing" textLength="0" x="271.3887" y="112.875">120 000</text><text fill="#000000" font-family="sans-serif" font-size="12" lengthAdjust="spacing" textLength="7.6348" x="9" y="142.8125">3</text><text fill="#000000" font-family="sans-serif" font-size="12" lengthAdjust="spacing" textLength="0" x="35.1816" y="128.8438">0x9ef4...b2</text><text fill="#000000" font-family="sans-serif" font-size="12" lengthAdjust="spacing" textLength="0" x="165.0449" y="128.8438">540 000</text><text fill="#000000" font-family="sans-serif" font-size="12" lengthAdjust="spacing" textLength="0" x="271.3887" y="128.8438">780 000</text><line style="stroke:#000000;stroke-width:1;" x1="8" x2="34.1816" y1="79.9375" y2="79.9375"/><line style="stroke:#000000;stroke-width:1;" x1="164.0449" x2="270.3887" y1="111.875" y2="111.875"/><line style="stroke:#000000;stroke-width:1;" x1="34.1816" x2="164.0449" y1="79.9375" y2="79.9375"/><line style="stroke:#000000;stroke-width:1;" x1="270.3887" x2="364.6035" y1="111.875" y2="111.875"/><line style="stroke:#000000;stroke-width:1;" x1="164.0449" x2="270.3887" y1="79.9375" y2="79.9375"/><line style="stroke:#000000;stroke-width:1;" x1="270.3887" x2="364.6035" y1="79.9375" y2="79.9375"/><line style="stroke:#000000;stroke-width:1;" x1="8" x2="34.1816" y1="127.8438" y2="127.8438"/><line style="stroke:#000000;stroke-width:1;" x1="34.1816" x2="164.0449" y1="127.8438" y2="127.8438"/><line style="stroke:#000000;stroke-width:1;" x1="8" x2="34.1816" y1="95.9063" y2="95.9063"/><line style="stroke:#000000;stroke-width:1;" x1="164.0449" x2="270.3887" y1="127.8438" y2="127.8438"/><line style="stroke:#000000;stroke-width:1;" x1="34.1816" x2="164.0449" y1="95.9063" y2="95.9063"/><line style="stroke:#000000;stroke-width:1;" x1="270.3887" x2="364.6035" y1="127.8438" y2="127.8438"/><line style="stroke:#000000;stroke-width:1;" x1="164.0449" x2="270.3887" y1="95.9063" y2="95.9063"/><line style="stroke:#000000;stroke-width:1;" x1="270.3887" x2="364.6035" y1="95.9063" y2="95.9063"/><line style="stroke:#000000;stroke-width:1;" x1="8" x2="34.1816" y1="143.8125" y2="143.8125"/><line style="stroke:#000000;stroke-width:1;" x1="34.1816" x2="164.0449" y1="143.8125" y2="143.8125"/><line style="stroke:#000000;stroke-width:1;" x1="164.0449" x2="270.3887" y1="143.8125" y2="143.8125"/><line style="stroke:#000000;stroke-width:1;" x1="8" x2="34.1816" y1="111.875" y2="111.875"/><line style="stroke:#000000;stroke-width:1;" x1="270.3887" x2="364.6035" y1="143.8125" y2="143.8125"/><line style="stroke:#000000;stroke-width:1;" x1="34.1816" x2="164.0449" y1="111.875" y2="111.875"/><line style="stroke:#000000;stroke-width:1;" x1="8" x2="8" y1="79.9375" y2="95.9063"/><line style="stroke:#000000;stroke-width:1;" x1="164.0449" x2="164.0449" y1="111.875" y2="127.8438"/><line style="stroke:#000000;stroke-width:1;" x1="34.1816" x2="34.1816" y1="79.9375" y2="95.9063"/><line style="stroke:#000000;stroke-width:1;" x1="270.3887" x2="270.3887" y1="111.875" y2="127.8438"/><line style="stroke:#000000;stroke-width:1;" x1="364.6035" x2="364.6035" y1="111.875" y2="127.8438"/><line style="stroke:#000000;stroke-width:1;" x1="164.0449" x2="164.0449" y1="79.9375" y2="95.9063"/><line style="stroke:#000000;stroke-width:1;" x1="270.3887" x2="270.3887" y1="79.9375" y2="95.9063"/><line style="stroke:#000000;stroke-width:1;" x1="364.6035" x2="364.6035" y1="79.9375" y2="95.9063"/><line style="stroke:#000000;stroke-width:1;" x1="8" x2="8" y1="127.8438" y2="143.8125"/><line style="stroke:#000000;stroke-width:1;" x1="34.1816" x2="34.1816" y1="127.8438" y2="143.8125"/><line style="stroke:#000000;stroke-width:1;" x1="8" x2="8" y1="95.9063" y2="111.875"/><line style="stroke:#000000;stroke-width:1;" x1="164.0449" x2="164.0449" y1="127.8438" y2="143.8125"/><line style="stroke:#000000;stroke-width:1;" x1="34.1816" x2="34.1816" y1="95.9063" y2="111.875"/><line style="stroke:#000000;stroke-width:1;" x1="270.3887" x2="270.3887" y1="127.8438" y2="143.8125"/><line style="stroke:#000000;stroke-width:1;" x1="364.6035" x2="364.6035" y1="127.8438" y2="143.8125"/><line style="stroke:#000000;stroke-width:1;" x1="164.0449" x2="164.0449" y1="95.9063" y2="111.875"/><line style="stroke:#000000;stroke-width:1;" x1="270.3887" x2="270.3887" y1="95.9063" y2="111.875"/><line style="stroke:#000000;stroke-width:1;" x1="364.6035" x2="364.6035" y1="95.9063" y2="111.875"/><line style="stroke:#000000;stroke-width:1;" x1="8" x2="8" y1="111.875" y2="127.8438"/><line style="stroke:#000000;stroke-width:1;" x1="34.1816" x2="34.1816" y1="111.875" y2="127.8438"/><line style="stroke:#000000;stroke-width:1;" x1="7" x2="365.6035" y1="22.9688" y2="22.9688"/><line style="stroke:#000000;stroke-width:1;" x1="365.6035" x2="415.6035" y1="22.9688" y2="22.9688"/><line style="stroke:#000000;stroke-width:1;" x1="7" x2="365.6035" y1="144.8125" y2="144.8125"/><line style="stroke:#000000;stroke-width:1;" x1="365.6035" x2="415.6035" y1="144.8125" y2="144.8125"/><line style="stroke:#000000;stroke-width:1;" x1="7" x2="7" y1="22.9688" y2="38.9375"/><line style="stroke:#000000;stroke-width:1;" x1="415.6035" x2="415.6035" y1="46.9375" y2="62.9375"/><line style="stroke:#000000;stroke-width:1;" x1="415.6035" x2="415.6035" y1="38.9375" y2="46.9375"/><line style="stroke:#000000;stroke-width:1;" x1="415.6035" x2="415.6035" y1="22.9688" y2="38.9375"/><line style="stroke:#000000;stroke-width:1;" x1="7" x2="7" y1="78.9375" y2="144.8125"/><line style="stroke:#000000;stroke-width:1;" x1="7" x2="7" y1="62.9375" y2="78.9375"/><line style="stroke:#000000;stroke-width:1;" x1="7" x2="7" y1="46.9375" y2="62.9375"/><line style="stroke:#000000;stroke-width:1;" x1="415.6035" x2="415.6035" y1="78.9375" y2="144.8125"/><line style="stroke:#000000;stroke-width:1;" x1="7" x2="7" y1="38.9375" y2="46.9375"/><line style="stroke:#000000;stroke-width:1;" x1="415.6035" x2="415.6035" y1="62.9375" y2="78.9375"/><line style="stroke:#AAAAAA;stroke-width:1;" x1="7" x2="432.6035" y1="150.3125" y2="150.3125"/><text fill="#000000" font-family="sans-serif" font-size="12" font-weight="700" lengthAdjust="spacing" textLength="92.4609" x="8" y="166.9512">Perps nativos</text><line style="stroke:#AAAAAA;stroke-width:1;" x1="8" x2="365.6035" y1="175.2813" y2="175.2813"/><text fill="#000000" font-family="sans-serif" font-size="12" lengthAdjust="spacing" textLength="0" x="8" y="179.7813">Token:</text><rect fill="#EEEEEE" height="13" style="stroke:#000000;stroke-width:1;" width="39" x="366.6035" y="179.7813"/><text fill="#000000" font-family="sans-serif" font-size="12" lengthAdjust="spacing" textLength="0" x="368.6035" y="181.7813">BTC</text><line style="stroke:#000000;stroke-width:1;" x1="394.6035" x2="394.6035" y1="179.7813" y2="192.7813"/><polygon fill="#000000" points="397.6035,185.7813,403.6035,185.7813,400.6035,187.7813" style="stroke:#000000;stroke-width:1;"/><text fill="#000000" font-family="sans-serif" font-size="12" lengthAdjust="spacing" textLength="0" x="8" y="195.7813">Temporalidad:</text><rect fill="#EEEEEE" height="13" style="stroke:#000000;stroke-width:1;" width="39" x="366.6035" y="195.7813"/><text fill="#000000" font-family="sans-serif" font-size="12" lengthAdjust="spacing" textLength="0" x="368.6035" y="197.7813">1h</text><line style="stroke:#000000;stroke-width:1;" x1="394.6035" x2="394.6035" y1="195.7813" y2="208.7813"/><polygon fill="#000000" points="397.6035,201.7813,403.6035,201.7813,400.6035,203.7813" style="stroke:#000000;stroke-width:1;"/><rect fill="#EEEEEE" height="49" style="stroke:#000000;stroke-width:1;" width="38" x="366.6035" y="208.7813"/><text fill="#000000" font-family="sans-serif" font-size="12" lengthAdjust="spacing" textLength="0" x="370.418" y="208.7813">4h</text><text fill="#000000" font-family="sans-serif" font-size="12" lengthAdjust="spacing" textLength="0" x="370.418" y="218.7813">6h</text><text fill="#000000" font-family="sans-serif" font-size="12" lengthAdjust="spacing" textLength="0" x="370.418" y="228.7813">12h</text><text fill="#000000" font-family="sans-serif" font-size="12" lengthAdjust="spacing" textLength="0" x="370.418" y="238.7813">1d</text><text fill="#000000" font-family="sans-serif" font-size="12" lengthAdjust="spacing" textLength="0" x="370.418" y="248.7813">1w</text><text fill="#000000" font-family="sans-serif" font-size="12" font-weight="700" lengthAdjust="spacing" textLength="24.1816" x="9" y="223.9199">Pos</text><text fill="#000000" font-family="sans-serif" font-size="12" font-weight="700" lengthAdjust="spacing" textLength="127.8633" x="35.1816" y="223.9199">Direccion / Entidad</text><text fill="#000000" font-family="sans-serif" font-size="12" font-weight="700" lengthAdjust="spacing" textLength="104.3438" x="165.0449" y="223.9199">Vol. compra ($)</text><text fill="#000000" font-family="sans-serif" font-size="12" font-weight="700" lengthAdjust="spacing" textLength="92.2148" x="271.3887" y="223.9199">Vol. venta ($)</text><text fill="#000000" font-family="sans-serif" font-size="12" lengthAdjust="spacing" textLength="7.6348" x="9" y="242.7188">1</text><text fill="#000000" font-family="sans-serif" font-size="12" lengthAdjust="spacing" textLength="0" x="35.1816" y="228.75">0xdef2...a7</text><text fill="#000000" font-family="sans-serif" font-size="12" lengthAdjust="spacing" textLength="0" x="165.0449" y="228.75">3 400 000</text><text fill="#000000" font-family="sans-serif" font-size="12" lengthAdjust="spacing" textLength="0" x="271.3887" y="228.75">1 200 000</text><text fill="#000000" font-family="sans-serif" font-size="12" lengthAdjust="spacing" textLength="7.6348" x="9" y="258.6875">2</text><text fill="#000000" font-family="sans-serif" font-size="12" lengthAdjust="spacing" textLength="0" x="35.1816" y="244.7188">Wintermute</text><text fill="#000000" font-family="sans-serif" font-size="12" lengthAdjust="spacing" textLength="0" x="165.0449" y="244.7188">2 100 000</text><text fill="#000000" font-family="sans-serif" font-size="12" lengthAdjust="spacing" textLength="0" x="271.3887" y="244.7188">900 000</text><text fill="#000000" font-family="sans-serif" font-size="12" lengthAdjust="spacing" textLength="7.6348" x="9" y="274.6563">3</text><text fill="#000000" font-family="sans-serif" font-size="12" lengthAdjust="spacing" textLength="0" x="35.1816" y="260.6875">0x7bc3...e1</text><text fill="#000000" font-family="sans-serif" font-size="12" lengthAdjust="spacing" textLength="0" x="165.0449" y="260.6875">1 800 000</text><text fill="#000000" font-family="sans-serif" font-size="12" lengthAdjust="spacing" textLength="0" x="271.3887" y="260.6875">2 300 000</text><line style="stroke:#000000;stroke-width:1;" x1="8" x2="34.1816" y1="211.7813" y2="211.7813"/><line style="stroke:#000000;stroke-width:1;" x1="164.0449" x2="270.3887" y1="243.7188" y2="243.7188"/><line style="stroke:#000000;stroke-width:1;" x1="34.1816" x2="164.0449" y1="211.7813" y2="211.7813"/><line style="stroke:#000000;stroke-width:1;" x1="270.3887" x2="364.6035" y1="243.7188" y2="243.7188"/><line style="stroke:#000000;stroke-width:1;" x1="164.0449" x2="270.3887" y1="211.7813" y2="211.7813"/><line style="stroke:#000000;stroke-width:1;" x1="270.3887" x2="364.6035" y1="211.7813" y2="211.7813"/><line style="stroke:#000000;stroke-width:1;" x1="8" x2="34.1816" y1="259.6875" y2="259.6875"/><line style="stroke:#000000;stroke-width:1;" x1="34.1816" x2="164.0449" y1="259.6875" y2="259.6875"/><line style="stroke:#000000;stroke-width:1;" x1="8" x2="34.1816" y1="227.75" y2="227.75"/><line style="stroke:#000000;stroke-width:1;" x1="164.0449" x2="270.3887" y1="259.6875" y2="259.6875"/><line style="stroke:#000000;stroke-width:1;" x1="34.1816" x2="164.0449" y1="227.75" y2="227.75"/><line style="stroke:#000000;stroke-width:1;" x1="270.3887" x2="364.6035" y1="259.6875" y2="259.6875"/><line style="stroke:#000000;stroke-width:1;" x1="164.0449" x2="270.3887" y1="227.75" y2="227.75"/><line style="stroke:#000000;stroke-width:1;" x1="270.3887" x2="364.6035" y1="227.75" y2="227.75"/><line style="stroke:#000000;stroke-width:1;" x1="8" x2="34.1816" y1="275.6563" y2="275.6563"/><line style="stroke:#000000;stroke-width:1;" x1="34.1816" x2="164.0449" y1="275.6563" y2="275.6563"/><line style="stroke:#000000;stroke-width:1;" x1="164.0449" x2="270.3887" y1="275.6563" y2="275.6563"/><line style="stroke:#000000;stroke-width:1;" x1="8" x2="34.1816" y1="243.7188" y2="243.7188"/><line style="stroke:#000000;stroke-width:1;" x1="270.3887" x2="364.6035" y1="275.6563" y2="275.6563"/><line style="stroke:#000000;stroke-width:1;" x1="34.1816" x2="164.0449" y1="243.7188" y2="243.7188"/><line style="stroke:#000000;stroke-width:1;" x1="8" x2="8" y1="211.7813" y2="227.75"/><line style="stroke:#000000;stroke-width:1;" x1="164.0449" x2="164.0449" y1="243.7188" y2="259.6875"/><line style="stroke:#000000;stroke-width:1;" x1="34.1816" x2="34.1816" y1="211.7813" y2="227.75"/><line style="stroke:#000000;stroke-width:1;" x1="270.3887" x2="270.3887" y1="243.7188" y2="259.6875"/><line style="stroke:#000000;stroke-width:1;" x1="364.6035" x2="364.6035" y1="243.7188" y2="259.6875"/><line style="stroke:#000000;stroke-width:1;" x1="164.0449" x2="164.0449" y1="211.7813" y2="227.75"/><line style="stroke:#000000;stroke-width:1;" x1="270.3887" x2="270.3887" y1="211.7813" y2="227.75"/><line style="stroke:#000000;stroke-width:1;" x1="364.6035" x2="364.6035" y1="211.7813" y2="227.75"/><line style="stroke:#000000;stroke-width:1;" x1="8" x2="8" y1="259.6875" y2="275.6563"/><line style="stroke:#000000;stroke-width:1;" x1="34.1816" x2="34.1816" y1="259.6875" y2="275.6563"/><line style="stroke:#000000;stroke-width:1;" x1="8" x2="8" y1="227.75" y2="243.7188"/><line style="stroke:#000000;stroke-width:1;" x1="164.0449" x2="164.0449" y1="259.6875" y2="275.6563"/><line style="stroke:#000000;stroke-width:1;" x1="34.1816" x2="34.1816" y1="227.75" y2="243.7188"/><line style="stroke:#000000;stroke-width:1;" x1="270.3887" x2="270.3887" y1="259.6875" y2="275.6563"/><line style="stroke:#000000;stroke-width:1;" x1="364.6035" x2="364.6035" y1="259.6875" y2="275.6563"/><line style="stroke:#000000;stroke-width:1;" x1="164.0449" x2="164.0449" y1="227.75" y2="243.7188"/><line style="stroke:#000000;stroke-width:1;" x1="270.3887" x2="270.3887" y1="227.75" y2="243.7188"/><line style="stroke:#000000;stroke-width:1;" x1="364.6035" x2="364.6035" y1="227.75" y2="243.7188"/><line style="stroke:#000000;stroke-width:1;" x1="8" x2="8" y1="243.7188" y2="259.6875"/><line style="stroke:#000000;stroke-width:1;" x1="34.1816" x2="34.1816" y1="243.7188" y2="259.6875"/><line style="stroke:#000000;stroke-width:1;" x1="7" x2="365.6035" y1="154.8125" y2="154.8125"/><line style="stroke:#000000;stroke-width:1;" x1="365.6035" x2="407.6035" y1="154.8125" y2="154.8125"/><line style="stroke:#000000;stroke-width:1;" x1="7" x2="365.6035" y1="276.6563" y2="276.6563"/><line style="stroke:#000000;stroke-width:1;" x1="365.6035" x2="407.6035" y1="276.6563" y2="276.6563"/><line style="stroke:#000000;stroke-width:1;" x1="7" x2="7" y1="154.8125" y2="170.7813"/><line style="stroke:#000000;stroke-width:1;" x1="407.6035" x2="407.6035" y1="178.7813" y2="194.7813"/><line style="stroke:#000000;stroke-width:1;" x1="407.6035" x2="407.6035" y1="170.7813" y2="178.7813"/><line style="stroke:#000000;stroke-width:1;" x1="407.6035" x2="407.6035" y1="154.8125" y2="170.7813"/><line style="stroke:#000000;stroke-width:1;" x1="7" x2="7" y1="210.7813" y2="276.6563"/><line style="stroke:#000000;stroke-width:1;" x1="7" x2="7" y1="194.7813" y2="210.7813"/><line style="stroke:#000000;stroke-width:1;" x1="7" x2="7" y1="178.7813" y2="194.7813"/><line style="stroke:#000000;stroke-width:1;" x1="407.6035" x2="407.6035" y1="210.7813" y2="276.6563"/><line style="stroke:#000000;stroke-width:1;" x1="7" x2="7" y1="170.7813" y2="178.7813"/><line style="stroke:#000000;stroke-width:1;" x1="407.6035" x2="407.6035" y1="194.7813" y2="210.7813"/><line style="stroke:#AAAAAA;stroke-width:1;" x1="7" x2="432.6035" y1="282.1563" y2="282.1563"/><text fill="#000000" font-family="sans-serif" font-size="12" font-weight="700" lengthAdjust="spacing" textLength="79.3945" x="8" y="298.7949">Perps HIP-3</text><line style="stroke:#AAAAAA;stroke-width:1;" x1="8" x2="365.6035" y1="307.125" y2="307.125"/><text fill="#000000" font-family="sans-serif" font-size="12" lengthAdjust="spacing" textLength="0" x="8" y="311.625">Token:</text><rect fill="#EEEEEE" height="13" style="stroke:#000000;stroke-width:1;" width="63" x="366.6035" y="311.625"/><text fill="#000000" font-family="sans-serif" font-size="12" lengthAdjust="spacing" textLength="0" x="368.6035" y="313.625">FRIEND</text><line style="stroke:#000000;stroke-width:1;" x1="418.6035" x2="418.6035" y1="311.625" y2="324.625"/><polygon fill="#000000" points="421.6035,317.625,427.6035,317.625,424.6035,319.625" style="stroke:#000000;stroke-width:1;"/><text fill="#000000" font-family="sans-serif" font-size="12" lengthAdjust="spacing" textLength="0" x="8" y="327.625">Temporalidad:</text><rect fill="#EEEEEE" height="13" style="stroke:#000000;stroke-width:1;" width="39" x="366.6035" y="327.625"/><text fill="#000000" font-family="sans-serif" font-size="12" lengthAdjust="spacing" textLength="0" x="368.6035" y="329.625">1h</text><line style="stroke:#000000;stroke-width:1;" x1="394.6035" x2="394.6035" y1="327.625" y2="340.625"/><polygon fill="#000000" points="397.6035,333.625,403.6035,333.625,400.6035,335.625" style="stroke:#000000;stroke-width:1;"/><rect fill="#EEEEEE" height="49" style="stroke:#000000;stroke-width:1;" width="38" x="366.6035" y="340.625"/><text fill="#000000" font-family="sans-serif" font-size="12" lengthAdjust="spacing" textLength="0" x="370.418" y="340.625">4h</text><text fill="#000000" font-family="sans-serif" font-size="12" lengthAdjust="spacing" textLength="0" x="370.418" y="350.625">6h</text><text fill="#000000" font-family="sans-serif" font-size="12" lengthAdjust="spacing" textLength="0" x="370.418" y="360.625">12h</text><text fill="#000000" font-family="sans-serif" font-size="12" lengthAdjust="spacing" textLength="0" x="370.418" y="370.625">1d</text><text fill="#000000" font-family="sans-serif" font-size="12" lengthAdjust="spacing" textLength="0" x="370.418" y="380.625">1w</text><text fill="#000000" font-family="sans-serif" font-size="12" font-weight="700" lengthAdjust="spacing" textLength="24.1816" x="9" y="355.7637">Pos</text><text fill="#000000" font-family="sans-serif" font-size="12" font-weight="700" lengthAdjust="spacing" textLength="127.8633" x="35.1816" y="355.7637">Direccion / Entidad</text><text fill="#000000" font-family="sans-serif" font-size="12" font-weight="700" lengthAdjust="spacing" textLength="104.3438" x="165.0449" y="355.7637">Vol. compra ($)</text><text fill="#000000" font-family="sans-serif" font-size="12" font-weight="700" lengthAdjust="spacing" textLength="92.2148" x="271.3887" y="355.7637">Vol. venta ($)</text><text fill="#000000" font-family="sans-serif" font-size="12" lengthAdjust="spacing" textLength="7.6348" x="9" y="374.5625">1</text><text fill="#000000" font-family="sans-serif" font-size="12" lengthAdjust="spacing" textLength="0" x="35.1816" y="360.5938">0x12a5...c8</text><text fill="#000000" font-family="sans-serif" font-size="12" lengthAdjust="spacing" textLength="0" x="165.0449" y="360.5938">450 000</text><text fill="#000000" font-family="sans-serif" font-size="12" lengthAdjust="spacing" textLength="0" x="271.3887" y="360.5938">60 000</text><text fill="#000000" font-family="sans-serif" font-size="12" lengthAdjust="spacing" textLength="7.6348" x="9" y="390.5313">2</text><text fill="#000000" font-family="sans-serif" font-size="12" lengthAdjust="spacing" textLength="0" x="35.1816" y="376.5625">0xfed1...99</text><text fill="#000000" font-family="sans-serif" font-size="12" lengthAdjust="spacing" textLength="0" x="165.0449" y="376.5625">320 000</text><text fill="#000000" font-family="sans-serif" font-size="12" lengthAdjust="spacing" textLength="0" x="271.3887" y="376.5625">180 000</text><text fill="#000000" font-family="sans-serif" font-size="12" lengthAdjust="spacing" textLength="7.6348" x="9" y="406.5">3</text><text fill="#000000" font-family="sans-serif" font-size="12" lengthAdjust="spacing" textLength="0" x="35.1816" y="392.5313">0x88b2...d4</text><text fill="#000000" font-family="sans-serif" font-size="12" lengthAdjust="spacing" textLength="0" x="165.0449" y="392.5313">210 000</text><text fill="#000000" font-family="sans-serif" font-size="12" lengthAdjust="spacing" textLength="0" x="271.3887" y="392.5313">290 000</text><line style="stroke:#000000;stroke-width:1;" x1="8" x2="34.1816" y1="343.625" y2="343.625"/><line style="stroke:#000000;stroke-width:1;" x1="164.0449" x2="270.3887" y1="375.5625" y2="375.5625"/><line style="stroke:#000000;stroke-width:1;" x1="34.1816" x2="164.0449" y1="343.625" y2="343.625"/><line style="stroke:#000000;stroke-width:1;" x1="270.3887" x2="364.6035" y1="375.5625" y2="375.5625"/><line style="stroke:#000000;stroke-width:1;" x1="164.0449" x2="270.3887" y1="343.625" y2="343.625"/><line style="stroke:#000000;stroke-width:1;" x1="270.3887" x2="364.6035" y1="343.625" y2="343.625"/><line style="stroke:#000000;stroke-width:1;" x1="8" x2="34.1816" y1="391.5313" y2="391.5313"/><line style="stroke:#000000;stroke-width:1;" x1="34.1816" x2="164.0449" y1="391.5313" y2="391.5313"/><line style="stroke:#000000;stroke-width:1;" x1="8" x2="34.1816" y1="359.5938" y2="359.5938"/><line style="stroke:#000000;stroke-width:1;" x1="164.0449" x2="270.3887" y1="391.5313" y2="391.5313"/><line style="stroke:#000000;stroke-width:1;" x1="34.1816" x2="164.0449" y1="359.5938" y2="359.5938"/><line style="stroke:#000000;stroke-width:1;" x1="270.3887" x2="364.6035" y1="391.5313" y2="391.5313"/><line style="stroke:#000000;stroke-width:1;" x1="164.0449" x2="270.3887" y1="359.5938" y2="359.5938"/><line style="stroke:#000000;stroke-width:1;" x1="270.3887" x2="364.6035" y1="359.5938" y2="359.5938"/><line style="stroke:#000000;stroke-width:1;" x1="8" x2="34.1816" y1="407.5" y2="407.5"/><line style="stroke:#000000;stroke-width:1;" x1="34.1816" x2="164.0449" y1="407.5" y2="407.5"/><line style="stroke:#000000;stroke-width:1;" x1="164.0449" x2="270.3887" y1="407.5" y2="407.5"/><line style="stroke:#000000;stroke-width:1;" x1="8" x2="34.1816" y1="375.5625" y2="375.5625"/><line style="stroke:#000000;stroke-width:1;" x1="270.3887" x2="364.6035" y1="407.5" y2="407.5"/><line style="stroke:#000000;stroke-width:1;" x1="34.1816" x2="164.0449" y1="375.5625" y2="375.5625"/><line style="stroke:#000000;stroke-width:1;" x1="8" x2="8" y1="343.625" y2="359.5938"/><line style="stroke:#000000;stroke-width:1;" x1="164.0449" x2="164.0449" y1="375.5625" y2="391.5313"/><line style="stroke:#000000;stroke-width:1;" x1="34.1816" x2="34.1816" y1="343.625" y2="359.5938"/><line style="stroke:#000000;stroke-width:1;" x1="270.3887" x2="270.3887" y1="375.5625" y2="391.5313"/><line style="stroke:#000000;stroke-width:1;" x1="364.6035" x2="364.6035" y1="375.5625" y2="391.5313"/><line style="stroke:#000000;stroke-width:1;" x1="164.0449" x2="164.0449" y1="343.625" y2="359.5938"/><line style="stroke:#000000;stroke-width:1;" x1="270.3887" x2="270.3887" y1="343.625" y2="359.5938"/><line style="stroke:#000000;stroke-width:1;" x1="364.6035" x2="364.6035" y1="343.625" y2="359.5938"/><line style="stroke:#000000;stroke-width:1;" x1="8" x2="8" y1="391.5313" y2="407.5"/><line style="stroke:#000000;stroke-width:1;" x1="34.1816" x2="34.1816" y1="391.5313" y2="407.5"/><line style="stroke:#000000;stroke-width:1;" x1="8" x2="8" y1="359.5938" y2="375.5625"/><line style="stroke:#000000;stroke-width:1;" x1="164.0449" x2="164.0449" y1="391.5313" y2="407.5"/><line style="stroke:#000000;stroke-width:1;" x1="34.1816" x2="34.1816" y1="359.5938" y2="375.5625"/><line style="stroke:#000000;stroke-width:1;" x1="270.3887" x2="270.3887" y1="391.5313" y2="407.5"/><line style="stroke:#000000;stroke-width:1;" x1="364.6035" x2="364.6035" y1="391.5313" y2="407.5"/><line style="stroke:#000000;stroke-width:1;" x1="164.0449" x2="164.0449" y1="359.5938" y2="375.5625"/><line style="stroke:#000000;stroke-width:1;" x1="270.3887" x2="270.3887" y1="359.5938" y2="375.5625"/><line style="stroke:#000000;stroke-width:1;" x1="364.6035" x2="364.6035" y1="359.5938" y2="375.5625"/><line style="stroke:#000000;stroke-width:1;" x1="8" x2="8" y1="375.5625" y2="391.5313"/><line style="stroke:#000000;stroke-width:1;" x1="34.1816" x2="34.1816" y1="375.5625" y2="391.5313"/><line style="stroke:#000000;stroke-width:1;" x1="7" x2="365.6035" y1="286.6563" y2="286.6563"/><line style="stroke:#000000;stroke-width:1;" x1="365.6035" x2="431.6035" y1="286.6563" y2="286.6563"/><line style="stroke:#000000;stroke-width:1;" x1="7" x2="365.6035" y1="408.5" y2="408.5"/><line style="stroke:#000000;stroke-width:1;" x1="365.6035" x2="431.6035" y1="408.5" y2="408.5"/><line style="stroke:#000000;stroke-width:1;" x1="7" x2="7" y1="286.6563" y2="302.625"/><line style="stroke:#000000;stroke-width:1;" x1="431.6035" x2="431.6035" y1="310.625" y2="326.625"/><line style="stroke:#000000;stroke-width:1;" x1="431.6035" x2="431.6035" y1="302.625" y2="310.625"/><line style="stroke:#000000;stroke-width:1;" x1="431.6035" x2="431.6035" y1="286.6563" y2="302.625"/><line style="stroke:#000000;stroke-width:1;" x1="7" x2="7" y1="342.625" y2="408.5"/><line style="stroke:#000000;stroke-width:1;" x1="7" x2="7" y1="326.625" y2="342.625"/><line style="stroke:#000000;stroke-width:1;" x1="7" x2="7" y1="310.625" y2="326.625"/><line style="stroke:#000000;stroke-width:1;" x1="431.6035" x2="431.6035" y1="342.625" y2="408.5"/><line style="stroke:#000000;stroke-width:1;" x1="7" x2="7" y1="302.625" y2="310.625"/><line style="stroke:#000000;stroke-width:1;" x1="431.6035" x2="431.6035" y1="326.625" y2="342.625"/><line style="stroke:#000000;stroke-width:1;" x1="5" x2="433.6035" y1="5" y2="5"/><line style="stroke:#000000;stroke-width:1;" x1="5" x2="433.6035" y1="410.5" y2="410.5"/><line style="stroke:#000000;stroke-width:1;" x1="5" x2="5" y1="5" y2="20.9688"/><line style="stroke:#000000;stroke-width:1;" x1="433.6035" x2="433.6035" y1="20.9688" y2="410.5"/><line style="stroke:#000000;stroke-width:1;" x1="433.6035" x2="433.6035" y1="5" y2="20.9688"/><line style="stroke:#000000;stroke-width:1;" x1="5" x2="5" y1="20.9688" y2="410.5"/><rect fill="#EEEEEE" height="49" style="stroke:#000000;stroke-width:1;" width="38" x="366.6035" y="76.9375"/><text fill="#000000" font-family="sans-serif" font-size="12" lengthAdjust="spacing" textLength="0" x="370.418" y="76.9375">4h</text><text fill="#000000" font-family="sans-serif" font-size="12" lengthAdjust="spacing" textLength="0" x="370.418" y="86.9375">6h</text><text fill="#000000" font-family="sans-serif" font-size="12" lengthAdjust="spacing" textLength="0" x="370.418" y="96.9375">12h</text><text fill="#000000" font-family="sans-serif" font-size="12" lengthAdjust="spacing" textLength="0" x="370.418" y="106.9375">1d</text><text fill="#000000" font-family="sans-serif" font-size="12" lengthAdjust="spacing" textLength="0" x="370.418" y="116.9375">1w</text><rect fill="#EEEEEE" height="49" style="stroke:#000000;stroke-width:1;" width="38" x="366.6035" y="208.7813"/><text fill="#000000" font-family="sans-serif" font-size="12" lengthAdjust="spacing" textLength="0" x="370.418" y="208.7813">4h</text><text fill="#000000" font-family="sans-serif" font-size="12" lengthAdjust="spacing" textLength="0" x="370.418" y="218.7813">6h</text><text fill="#000000" font-family="sans-serif" font-size="12" lengthAdjust="spacing" textLength="0" x="370.418" y="228.7813">12h</text><text fill="#000000" font-family="sans-serif" font-size="12" lengthAdjust="spacing" textLength="0" x="370.418" y="238.7813">1d</text><text fill="#000000" font-family="sans-serif" font-size="12" lengthAdjust="spacing" textLength="0" x="370.418" y="248.7813">1w</text><rect fill="#EEEEEE" height="49" style="stroke:#000000;stroke-width:1;" width="38" x="366.6035" y="340.625"/><text fill="#000000" font-family="sans-serif" font-size="12" lengthAdjust="spacing" textLength="0" x="370.418" y="340.625">4h</text><text fill="#000000" font-family="sans-serif" font-size="12" lengthAdjust="spacing" textLength="0" x="370.418" y="350.625">6h</text><text fill="#000000" font-family="sans-serif" font-size="12" lengthAdjust="spacing" textLength="0" x="370.418" y="360.625">12h</text><text fill="#000000" font-family="sans-serif" font-size="12" lengthAdjust="spacing" textLength="0" x="370.418" y="370.625">1d</text><text fill="#000000" font-family="sans-serif" font-size="12" lengthAdjust="spacing" textLength="0" x="370.418" y="380.625">1w</text><?plantuml-src pPHHQy8m4CVV-oaEjWTbj3PfhUqOmsqw9emXpcrlGjf6LbQRacPEKB_xBhNj54JOcm-vNEx-kOJVXVGBnQGgMAeCOtrb0AmxS1FUFdCMSnaA9cFOm31JIOo10lsxb4l52jXgBGwqL-K4UjzhBXIqdaPZaq07z4pRLTOqpSgRYY-UNMEjsVXjCfdLKRx8XMIfFgbCaa-OWQkDfmsXfOsr-QathIygfpnzBFGDqHaaaaTH8ZAyH7NvNU9Tf1P4Of5B1gtBzbvmoJDLnfg21BCVIQQuN7mhZWi2rBR1nh41noszHamnPgzO617BikOEhloWrX9wg7LARS3dBcf3lRFhrjgUlw_T6d-svhUFUynbNa36LB8KnGdEzzE7iyPihs8-fqY3zJHRS1lE3VC3qWTjeK0QUM0VGzqB8mUBSr8Mz1ir1SV-FsxzgfqJi1yde-7BuCnv4ygwY2JoSULsQo3UiKSzvx5-r46WMqERnlZ7IFj-gDiOkvekQJW7noblZQrXz7aMx_uVOb6RUfOJSiMyNm00?></g></svg>