<svg xmlns="http://www.w3.org/2000/svg" xmlns:xlink="http://www.w3.org/1999/xlink" contentStyleType="text/css" data-diagram-type="DESCRIPTION" height="289px" preserveAspectRatio="none" style="width:1601px;height:289px;background:#FFFFFF;" version="1.1" viewBox="0 0 1601 289" width="1601px" zoomAndPan="magnify"><?plantuml 1.2026.4beta2?><defs/><g><g class="title" data-source-line="14"><text fill="#000000" font-family="sans-serif" font-size="14" font-weight="700" lengthAdjust="spacing" textLength="525.7178" x="534.1411" y="22.9951">Ajustes de pila &#183; dise&#241;o exploratorio inicial &#8594; implementaci&#243;n final</text></g><!--cluster Antes--><g class="cluster" data-qualified-name="Antes" data-source-line="16" id="ent0002"><path d="M99.5,43.2969 L373.3086,43.2969 A3.75,3.75 0 0 1 375.8086,45.7969 L382.8086,65.5938 L1472.5,65.5938 A2.5,2.5 0 0 1 1475,68.0938 L1475,144.3969 A2.5,2.5 0 0 1 1472.5,146.8969 L99.5,146.8969 A2.5,2.5 0 0 1 97,144.3969 L97,45.7969 A2.5,2.5 0 0 1 99.5,43.2969" fill="#FAFAFA" style="stroke:#5A5A5A;stroke-width:1.5;"/><line style="stroke:#5A5A5A;stroke-width:1.5;" x1="97" x2="382.8086" y1="65.5938" y2="65.5938"/><text fill="#000000" font-family="sans-serif" font-size="14" font-weight="700" lengthAdjust="spacing" textLength="272.8086" x="101" y="58.292">Dise&#241;o exploratorio inicial (cap. 3)</text></g><!--cluster Despues--><g class="cluster" data-qualified-name="Despues" data-source-line="27" id="ent0011"><path d="M8.5,170.8969 L241.833,170.8969 A3.75,3.75 0 0 1 244.333,173.3969 L251.333,193.1938 L1583.5,193.1938 A2.5,2.5 0 0 1 1586,195.6938 L1586,271.9869 A2.5,2.5 0 0 1 1583.5,274.4869 L8.5,274.4869 A2.5,2.5 0 0 1 6,271.9869 L6,173.3969 A2.5,2.5 0 0 1 8.5,170.8969" fill="#FAFAFA" style="stroke:#5A5A5A;stroke-width:1.5;"/><line style="stroke:#5A5A5A;stroke-width:1.5;" x1="6" x2="251.333" y1="193.1938" y2="193.1938"/><text fill="#000000" font-family="sans-serif" font-size="14" font-weight="700" lengthAdjust="spacing" textLength="232.333" x="10" y="185.892">Implementaci&#243;n final (cap. 4)</text></g><!--entity N_Nest--><g class="entity" data-qualified-name="Antes.N_Nest" data-source-line="17" id="ent0003"><rect fill="#FAFAFA" height="52.5938" rx="2.5" ry="2.5" style="stroke:#5A5A5A;stroke-width:0.5;" width="110.3574" x="112.82" y="78.2969"/><text fill="#1F1F1F" font-family="sans-serif" font-size="14" lengthAdjust="spacing" textLength="67.1494" x="122.82" y="101.292">NestJS 10</text><text fill="#1F1F1F" font-family="sans-serif" font-size="14" lengthAdjust="spacing" textLength="90.3574" x="122.82" y="117.5889">(HTTP + WS)</text></g><!--entity N_ORM--><g class="entity" data-qualified-name="Antes.N_ORM" data-source-line="18" id="ent0004"><rect fill="#FAFAFA" height="36.2969" rx="2.5" ry="2.5" style="stroke:#5A5A5A;stroke-width:0.5;" width="87.1631" x="258.42" y="86.4469"/><text fill="#1F1F1F" font-family="sans-serif" font-size="14" lengthAdjust="spacing" textLength="67.1631" x="268.42" y="109.442">TypeORM</text></g><!--entity N_Redis1--><g class="entity" data-qualified-name="Antes.N_Redis1" data-source-line="19" id="ent0005"><rect fill="#FAFAFA" height="52.5938" rx="2.5" ry="2.5" style="stroke:#5A5A5A;stroke-width:0.5;" width="140.6064" x="380.7" y="78.2969"/><text fill="#1F1F1F" font-family="sans-serif" font-size="14" lengthAdjust="spacing" textLength="120.6064" x="390.7" y="101.292">Redis sorted sets</text><text fill="#1F1F1F" font-family="sans-serif" font-size="14" lengthAdjust="spacing" textLength="118.4463" x="390.7" y="117.5889">(estado caliente)</text></g><!--entity N_Redis2--><g class="entity" data-qualified-name="Antes.N_Redis2" data-source-line="20" id="ent0006"><rect fill="#FAFAFA" height="52.5938" rx="2.5" ry="2.5" style="stroke:#5A5A5A;stroke-width:0.5;" width="163.5068" x="556.25" y="78.2969"/><text fill="#1F1F1F" font-family="sans-serif" font-size="14" lengthAdjust="spacing" textLength="143.5068" x="566.25" y="101.292">Redis Lists + worker</text><text fill="#1F1F1F" font-family="sans-serif" font-size="14" lengthAdjust="spacing" textLength="137.5117" x="566.25" y="117.5889">(cola de reintentos)</text></g><!--entity N_Bus--><g class="entity" data-qualified-name="Antes.N_Bus" data-source-line="21" id="ent0007"><rect fill="#FAFAFA" height="36.2969" rx="2.5" ry="2.5" style="stroke:#5A5A5A;stroke-width:0.5;" width="176.584" x="754.71" y="86.4469"/><text fill="#1F1F1F" font-family="sans-serif" font-size="14" lengthAdjust="spacing" textLength="156.584" x="764.71" y="109.442">@nestjs/event-emitter</text></g><!--entity N_Front--><g class="entity" data-qualified-name="Antes.N_Front" data-source-line="22" id="ent0008"><rect fill="#FAFAFA" height="36.2969" rx="2.5" ry="2.5" style="stroke:#5A5A5A;stroke-width:0.5;" width="171.9287" x="966.04" y="86.4469"/><text fill="#1F1F1F" font-family="sans-serif" font-size="14" lengthAdjust="spacing" textLength="151.9287" x="976.04" y="109.442">React + CRA / Next.js</text></g><!--entity N_Crypto--><g class="entity" data-qualified-name="Antes.N_Crypto" data-source-line="23" id="ent0009"><rect fill="#FAFAFA" height="52.5938" rx="2.5" ry="2.5" style="stroke:#5A5A5A;stroke-width:0.5;" width="142.582" x="1172.71" y="78.2969"/><text fill="#1F1F1F" font-family="sans-serif" font-size="14" lengthAdjust="spacing" textLength="122.582" x="1182.71" y="101.292">Cifrado aplicativo</text><text fill="#1F1F1F" font-family="sans-serif" font-size="14" lengthAdjust="spacing" textLength="119.998" x="1182.71" y="117.5889">(AES en proceso)</text></g><!--entity N_K8s--><g class="entity" data-qualified-name="Antes.N_K8s" data-source-line="24" id="ent0010"><rect fill="#FAFAFA" height="52.5938" rx="2.5" ry="2.5" style="stroke:#5A5A5A;stroke-width:0.5;" width="108.4365" x="1350.78" y="78.2969"/><text fill="#1F1F1F" font-family="sans-serif" font-size="14" lengthAdjust="spacing" textLength="80.1924" x="1360.78" y="101.292">Kubernetes</text><text fill="#1F1F1F" font-family="sans-serif" font-size="14" lengthAdjust="spacing" textLength="88.4365" x="1360.78" y="117.5889">(Helm chart)</text></g><!--entity I_Fastify--><g class="entity" data-qualified-name="Despues.I_Fastify" data-source-line="28" id="ent0012"><rect fill="#FAFAFA" height="52.5938" rx="2.5" ry="2.5" style="stroke:#5A5A5A;stroke-width:0.5;" width="79.876" x="22.06" y="205.8969"/><text fill="#1F1F1F" font-family="sans-serif" font-size="14" lengthAdjust="spacing" textLength="59.876" x="32.06" y="228.892">Fastify 5</text><text fill="#1F1F1F" font-family="sans-serif" font-size="14" lengthAdjust="spacing" textLength="43.2236" x="32.06" y="245.1889">+ Zod</text></g><!--entity I_Drizzle--><g class="entity" data-qualified-name="Despues.I_Drizzle" data-source-line="29" id="ent0013"><rect fill="#FAFAFA" height="52.5938" rx="2.5" ry="2.5" style="stroke:#5A5A5A;stroke-width:0.5;" width="144.0928" x="136.95" y="205.8969"/><text fill="#1F1F1F" font-family="sans-serif" font-size="14" lengthAdjust="spacing" textLength="124.0928" x="146.95" y="228.892">Drizzle ORM + Kit</text><text fill="#1F1F1F" font-family="sans-serif" font-size="14" lengthAdjust="spacing" textLength="71.0391" x="146.95" y="245.1889">(SQL-first)</text></g><!--entity I_State--><g class="entity" data-qualified-name="Despues.I_State" data-source-line="30" id="ent0014"><rect fill="#FAFAFA" height="52.5938" rx="2.5" ry="2.5" style="stroke:#5A5A5A;stroke-width:0.5;" width="193.1133" x="316.44" y="205.8969"/><text fill="#1F1F1F" font-family="sans-serif" font-size="14" lengthAdjust="spacing" textLength="125.9795" x="326.44" y="228.892">LeaderboardState</text><text fill="#1F1F1F" font-family="sans-serif" font-size="14" lengthAdjust="spacing" textLength="173.1133" x="326.44" y="245.1889">(in-memory &#183; Map+FIFO)</text></g><!--entity I_Retry--><g class="entity" data-qualified-name="Despues.I_Retry" data-source-line="31" id="ent0015"><rect fill="#FAFAFA" height="52.5938" rx="2.5" ry="2.5" style="stroke:#5A5A5A;stroke-width:0.5;" width="159.7813" x="544.11" y="205.8969"/><text fill="#1F1F1F" font-family="sans-serif" font-size="14" lengthAdjust="spacing" textLength="139.7813" x="554.11" y="228.892">Tabla notificaciones</text><text fill="#1F1F1F" font-family="sans-serif" font-size="14" lengthAdjust="spacing" textLength="104.6924" x="554.11" y="245.1889">+ RetryWorker</text></g><!--entity I_Bus--><g class="entity" data-qualified-name="Despues.I_Bus" data-source-line="32" id="ent0016"><rect fill="#FAFAFA" height="52.5938" rx="2.5" ry="2.5" style="stroke:#5A5A5A;stroke-width:0.5;" width="236.4326" x="738.78" y="205.8969"/><text fill="#1F1F1F" font-family="sans-serif" font-size="14" lengthAdjust="spacing" textLength="216.4326" x="748.78" y="228.892">TypedBus&lt;DomainEventMap&gt;</text><text fill="#1F1F1F" font-family="sans-serif" font-size="14" lengthAdjust="spacing" textLength="165.6895" x="748.78" y="245.1889">(EventEmitter de Node)</text></g><!--entity I_Front--><g class="entity" data-qualified-name="Despues.I_Front" data-source-line="33" id="ent0017"><rect fill="#FAFAFA" height="52.5938" rx="2.5" ry="2.5" style="stroke:#5A5A5A;stroke-width:0.5;" width="195.8613" x="1010.07" y="205.8969"/><text fill="#1F1F1F" font-family="sans-serif" font-size="14" lengthAdjust="spacing" textLength="123.9287" x="1020.07" y="228.892">Vite 8 + React 19</text><text fill="#1F1F1F" font-family="sans-serif" font-size="14" lengthAdjust="spacing" textLength="175.8613" x="1020.07" y="245.1889">+ Tailwind 4 + shadcn/ui</text></g><!--entity I_Crypto--><g class="entity" data-qualified-name="Despues.I_Crypto" data-source-line="34" id="ent0018"><rect fill="#FAFAFA" height="52.5938" rx="2.5" ry="2.5" style="stroke:#5A5A5A;stroke-width:0.5;" width="154.4014" x="1240.8" y="205.8969"/><text fill="#1F1F1F" font-family="sans-serif" font-size="14" lengthAdjust="spacing" textLength="62.4531" x="1250.8" y="228.892">pgcrypto</text><text fill="#1F1F1F" font-family="sans-serif" font-size="14" lengthAdjust="spacing" textLength="134.4014" x="1250.8" y="245.1889">(pgp_sym_encrypt)</text></g><!--entity I_Compose--><g class="entity" data-qualified-name="Despues.I_Compose" data-source-line="35" id="ent0019"><rect fill="#FAFAFA" height="52.5938" rx="2.5" ry="2.5" style="stroke:#5A5A5A;stroke-width:0.5;" width="139.3076" x="1430.35" y="205.8969"/><text fill="#1F1F1F" font-family="sans-serif" font-size="14" lengthAdjust="spacing" textLength="119.3076" x="1440.35" y="228.892">Docker Compose</text><text fill="#1F1F1F" font-family="sans-serif" font-size="14" lengthAdjust="spacing" textLength="118.6924" x="1440.35" y="245.1889">(app + postgres)</text></g><!--link N_Nest to I_Fastify--><g class="link" data-entity-1="ent0003" data-entity-2="ent0012" data-link-type="dependency" data-source-line="38" id="lnk20"><path d="M124.89,131.0969 C124.89,168.5569 124.89,232.4869 124.89,232.4869 C124.89,232.4869 120.51,232.4869 108.18,232.4869" fill="none" id="N_Nest-to-I_Fastify" style="stroke:#1565C0;stroke-width:1;"/><polygon fill="#1565C0" points="102.18,232.4869,111.18,236.4869,107.18,232.4869,111.18,228.4869,102.18,232.4869" style="stroke:#1565C0;stroke-width:1;"/><text fill="#000000" font-family="sans-serif" font-size="13" lengthAdjust="spacing" textLength="59.522" x="46.8507" y="174.2138">sustituye</text><text fill="#000000" font-family="sans-serif" font-size="13" lengthAdjust="spacing" textLength="95.4434" x="28.89" y="189.3466">(RS-01, RS-02)</text></g><!--link N_ORM to I_Drizzle--><g class="link" data-entity-1="ent0004" data-entity-2="ent0013" data-link-type="dependency" data-source-line="39" id="lnk21"><path d="M269.73,123.1469 C269.73,144.8569 269.73,174.9469 269.73,199.6169" fill="none" id="N_ORM-to-I_Drizzle" style="stroke:#1565C0;stroke-width:1;"/><polygon fill="#1565C0" points="269.73,205.6169,273.73,196.6169,269.73,200.6169,265.73,196.6169,269.73,205.6169" style="stroke:#1565C0;stroke-width:1;"/><text fill="#000000" font-family="sans-serif" font-size="13" lengthAdjust="spacing" textLength="59.522" x="209.73" y="160.4538">sustituye</text></g><!--link N_Redis1 to I_State--><g class="link" data-entity-1="ent0005" data-entity-2="ent0014" data-link-type="dependency" data-source-line="40" id="lnk22"><path d="M445.13,131.3469 C445.13,153.1169 445.13,177.7069 445.13,199.4769" fill="none" id="N_Redis1-to-I_State" style="stroke:#1565C0;stroke-width:1;"/><polygon fill="#1565C0" points="445.13,205.4769,449.13,196.4769,445.13,200.4769,441.13,196.4769,445.13,205.4769" style="stroke:#1565C0;stroke-width:1;"/><text fill="#000000" font-family="sans-serif" font-size="13" lengthAdjust="spacing" textLength="59.522" x="367.0907" y="149.4738">sustituye</text><text fill="#000000" font-family="sans-serif" font-size="13" lengthAdjust="spacing" textLength="95.4434" x="349.13" y="164.6066">(RS-01, RS-03)</text></g><!--link N_Redis2 to I_Retry--><g class="link" data-entity-1="ent0006" data-entity-2="ent0015" data-link-type="dependency" data-source-line="41" id="lnk23"><path d="M630.07,131.3469 C630.07,153.1169 630.07,177.7069 630.07,199.4769" fill="none" id="N_Redis2-to-I_Retry" style="stroke:#1565C0;stroke-width:1;"/><polygon fill="#1565C0" points="630.07,205.4769,634.07,196.4769,630.07,200.4769,626.07,196.4769,630.07,205.4769" style="stroke:#1565C0;stroke-width:1;"/><text fill="#000000" font-family="sans-serif" font-size="13" lengthAdjust="spacing" textLength="59.522" x="552.0307" y="149.4738">sustituye</text><text fill="#000000" font-family="sans-serif" font-size="13" lengthAdjust="spacing" textLength="95.4434" x="534.07" y="164.6066">(RS-03, RS-07)</text></g><!--link N_Bus to I_Bus--><g class="link" data-entity-1="ent0007" data-entity-2="ent0016" data-link-type="dependency" data-source-line="42" id="lnk24"><path d="M843,123.1469 C843,144.8569 843,174.9469 843,199.6169" fill="none" id="N_Bus-to-I_Bus" style="stroke:#1565C0;stroke-width:1;"/><polygon fill="#1565C0" points="843,205.6169,847,196.6169,843,200.6169,839,196.6169,843,205.6169" style="stroke:#1565C0;stroke-width:1;"/><text fill="#000000" font-family="sans-serif" font-size="13" lengthAdjust="spacing" textLength="59.522" x="783" y="145.4538">sustituye</text><text fill="#000000" font-family="sans-serif" font-size="13" lengthAdjust="spacing" textLength="48.6611" x="788.4304" y="160.5866">(RS-04)</text></g><!--link N_Front to I_Front--><g class="link" data-entity-1="ent0008" data-entity-2="ent0017" data-link-type="dependency" data-source-line="43" id="lnk25"><path d="M1074.02,123.1469 C1074.02,144.8569 1074.02,174.9469 1074.02,199.6169" fill="none" id="N_Front-to-I_Front" style="stroke:#1565C0;stroke-width:1;"/><polygon fill="#1565C0" points="1074.02,205.6169,1078.02,196.6169,1074.02,200.6169,1070.02,196.6169,1074.02,205.6169" style="stroke:#1565C0;stroke-width:1;"/><text fill="#000000" font-family="sans-serif" font-size="13" lengthAdjust="spacing" textLength="59.522" x="1014.02" y="145.4538">sustituye</text><text fill="#000000" font-family="sans-serif" font-size="13" lengthAdjust="spacing" textLength="48.6611" x="1019.4504" y="160.5866">(RS-05)</text></g><!--link N_Crypto to I_Crypto--><g class="link" data-entity-1="ent0009" data-entity-2="ent0018" data-link-type="dependency" data-source-line="44" id="lnk26"><path d="M1278.05,131.3469 C1278.05,153.1169 1278.05,177.7069 1278.05,199.4769" fill="none" id="N_Crypto-to-I_Crypto" style="stroke:#1565C0;stroke-width:1;"/><polygon fill="#1565C0" points="1278.05,205.4769,1282.05,196.4769,1278.05,200.4769,1274.05,196.4769,1278.05,205.4769" style="stroke:#1565C0;stroke-width:1;"/><text fill="#000000" font-family="sans-serif" font-size="13" lengthAdjust="spacing" textLength="59.522" x="1218.05" y="149.4738">sustituye</text><text fill="#000000" font-family="sans-serif" font-size="13" lengthAdjust="spacing" textLength="48.6611" x="1223.4804" y="164.6066">(RS-10)</text></g><!--link N_K8s to I_Compose--><g class="link" data-entity-1="ent0010" data-entity-2="ent0019" data-link-type="dependency" data-source-line="45" id="lnk27"><path d="M1444.78,131.3469 C1444.78,153.1169 1444.78,177.7069 1444.78,199.4769" fill="none" id="N_K8s-to-I_Compose" style="stroke:#1565C0;stroke-width:1;"/><polygon fill="#1565C0" points="1444.78,205.4769,1448.78,196.4769,1444.78,200.4769,1440.78,196.4769,1444.78,205.4769" style="stroke:#1565C0;stroke-width:1;"/><text fill="#000000" font-family="sans-serif" font-size="13" lengthAdjust="spacing" textLength="59.522" x="1384.78" y="149.4738">sustituye</text><text fill="#000000" font-family="sans-serif" font-size="13" lengthAdjust="spacing" textLength="48.6611" x="1390.2104" y="164.6066">(RS-03)</text></g><?plantuml-src dLJTJXD15BxVfpWfDpHOQ84g6aCiBGqLADesaYYc6NPFsu7TcSdC52Y6Mn_0Dp5UU2zlufDuPd-WowvUsBreU-Pyt_dvlbbpoOLYcaKGSe5seH2ajZFfcOS3CsE1lEPY2XCM6bmwqUXR9gOXmXSFO8_vbrCjvo9eor1gMEcstEDEf0vGfz5copqKxKfXqrYZwnxlRebR4HkR_W_pdJVZ0OAng56wYJpFSajDjYxc53H0Xug737xzX80RlFyk0MyKKJ0hDPV01VSv2-7trs_08nLYXC8odz__433XWeMUbtLNwVoBODLdQXssgXLW1bh2rNRZFAwjqaTZtmwXKJyJgmUZqJjOWzCXvRiFOVfZbv27Z6YYay5nalFa4qFeC8yO88q9XdJ500nQGyM8bbG5duMSXiEanVuuJcsKmO-uiORQkvRw4ZKn-99MIAlKo8b0M6bo99jvaZU2AbwO3RoYr1f6t98ybQMkz-RcQLdcMohO7hHW0_fuOzSlp3AYgyb0UKoRJxGRYwcG-ypoAqcDjlQ7W0AKbZuQcJNPrWjbPHv-E3z7JRS0tOOEC8p0dp5jOprYqE6E8NizgjyhSqSg-tPIgOD6pOl2TvcnVBA0vfbOWuyoA9KpATiRfybvXexcjxVqW-IcBHroIpqFtn_L9bmRMwta6TBaFCCHCheyvvBfO6YPHIBWeXPX9FN2NOvZfjQwlUv9CaXl72SzCICx9nS8IUtHmdqkXTlT6WpGwiLfR9NAGnDni6ZcWAH_tP4HusBVkOFAxb8hyU_zn2ZEPtqPODP9mImVk4NO0LVOkQRnqZKnOZoazrO0stJWtcA-s9ZpbAB4FMhgnwQWucggncOHZL74eMgbe4cPVphIfu6XBICbZLidKufAqnyxrMWUM1A29ClvARdcxgJsQQNHVDvirp_NTX-5XrTWwDN5xNpXM0V3Mhtn3DpNPjMBBpoKW3E3B86zx8ONacDjYUElbRQg6NYp08w5BGLl9U0N3aoYbRMPXOlWROUATIhPJ1ekefeEbQXJG6NX0gfHToYwtcKTfagLZLVz0m00?></g></svg>