<svg xmlns="http://www.w3.org/2000/svg" xmlns:xlink="http://www.w3.org/1999/xlink" contentStyleType="text/css" data-diagram-type="DESCRIPTION" height="263px" preserveAspectRatio="none" style="width:2349px;height:263px;background:#FFFFFF;" version="1.1" viewBox="0 0 2349 263" width="2349px" zoomAndPan="magnify"><?plantuml 1.2026.4beta2?><defs/><g><g class="title" data-source-line="6"><text fill="#000000" font-family="sans-serif" font-size="14" font-weight="700" lengthAdjust="spacing" textLength="436.4541" x="952.9888" y="22.9951">Cobertura del MVP sobre los requisitos suplementarios</text></g><!--cluster Rendimiento--><g class="cluster" data-qualified-name="Rendimiento" data-source-line="8" id="ent0002"><rect fill="none" height="103.6" rx="2.5" ry="2.5" style="stroke:#181818;stroke-width:1;" width="355" x="23.45" y="52.4469"/><text fill="#000000" font-family="sans-serif" font-size="14" font-weight="700" lengthAdjust="spacing" textLength="100.2217" x="150.8392" y="67.442">Rendimiento</text></g><!--cluster Disponibilidad--><g class="cluster" data-qualified-name="Disponibilidad" data-source-line="13" id="ent0005"><rect fill="none" height="103.6" rx="2.5" ry="2.5" style="stroke:#181818;stroke-width:1;" width="129" x="475.45" y="52.4469"/><text fill="#000000" font-family="sans-serif" font-size="14" font-weight="700" lengthAdjust="spacing" textLength="113.0664" x="483.4168" y="67.442">Disponibilidad</text></g><!--cluster Extensibilidad--><g class="cluster" data-qualified-name="Extensibilidad" data-source-line="17" id="ent0007"><rect fill="none" height="119.89" rx="2.5" ry="2.5" style="stroke:#181818;stroke-width:1;" width="206" x="664.45" y="44.2969"/><text fill="#000000" font-family="sans-serif" font-size="14" font-weight="700" lengthAdjust="spacing" textLength="111.7881" x="711.556" y="59.292">Extensibilidad</text></g><!--cluster Usabilidad--><g class="cluster" data-qualified-name="Usabilidad" data-source-line="21" id="ent0009"><rect fill="none" height="103.6" rx="2.5" ry="2.5" style="stroke:#181818;stroke-width:1;" width="416" x="894.45" y="52.4469"/><text fill="#000000" font-family="sans-serif" font-size="14" font-weight="700" lengthAdjust="spacing" textLength="83.0566" x="1060.9217" y="67.442">Usabilidad</text></g><!--cluster Fiabilidad--><g class="cluster" data-qualified-name="Fiabilidad" data-source-line="26" id="ent0012"><rect fill="none" height="119.89" rx="2.5" ry="2.5" style="stroke:#181818;stroke-width:1;" width="150" x="1369.45" y="44.2969"/><text fill="#000000" font-family="sans-serif" font-size="14" font-weight="700" lengthAdjust="spacing" textLength="77.7178" x="1405.5911" y="59.292">Fiabilidad</text></g><!--cluster Escalabilidad--><g class="cluster" data-qualified-name="Escalabilidad" data-source-line="30" id="ent0014"><rect fill="none" height="119.89" rx="2.5" ry="2.5" style="stroke:#181818;stroke-width:1;" width="174" x="1642.45" y="44.2969"/><text fill="#000000" font-family="sans-serif" font-size="14" font-weight="700" lengthAdjust="spacing" textLength="103.7969" x="1677.5516" y="59.292">Escalabilidad</text></g><!--cluster Trazabilidad y seguridad--><g class="cluster" data-qualified-name="Trazabilidad y seguridad" data-source-line="34" id="ent0016"><rect fill="none" height="119.89" rx="2.5" ry="2.5" style="stroke:#181818;stroke-width:1;" width="278" x="1988.45" y="44.2969"/><text fill="#000000" font-family="sans-serif" font-size="14" font-weight="700" lengthAdjust="spacing" textLength="195.2891" x="2029.8055" y="59.292">Trazabilidad y seguridad</text></g><!--entity RS01--><g class="entity" data-qualified-name="Rendimiento.RS01" data-source-line="9" id="ent0003"><rect fill="#F1F1F1" height="52.5938" rx="2.5" ry="2.5" style="stroke:#181818;stroke-width:0.5;" width="150.2041" x="39.35" y="87.4469"/><text fill="#000000" font-family="sans-serif" font-size="14" lengthAdjust="spacing" textLength="41.4805" x="49.35" y="110.442">RS-01</text><text fill="#000000" font-family="sans-serif" font-size="14" lengthAdjust="spacing" textLength="130.2041" x="49.35" y="126.7389">Leaderboard &#8804; 1 s</text></g><!--entity RS02--><g class="entity" data-qualified-name="Rendimiento.RS02" data-source-line="10" id="ent0004"><rect fill="#F1F1F1" height="52.5938" rx="2.5" ry="2.5" style="stroke:#181818;stroke-width:0.5;" width="137.3594" x="224.77" y="87.4469"/><text fill="#000000" font-family="sans-serif" font-size="14" lengthAdjust="spacing" textLength="41.4805" x="234.77" y="110.442">RS-02</text><text fill="#000000" font-family="sans-serif" font-size="14" lengthAdjust="spacing" textLength="117.3594" x="234.77" y="126.7389">Evaluaci&#243;n &#8804; 2 s</text></g><!--entity RS03--><g class="entity" data-qualified-name="Disponibilidad.RS03" data-source-line="14" id="ent0006"><rect fill="#F1F1F1" height="52.5938" rx="2.5" ry="2.5" style="stroke:#181818;stroke-width:0.5;" width="61.4805" x="508.71" y="87.4469"/><text fill="#000000" font-family="sans-serif" font-size="14" lengthAdjust="spacing" textLength="41.4805" x="518.71" y="110.442">RS-03</text><text fill="#000000" font-family="sans-serif" font-size="14" lengthAdjust="spacing" textLength="31.4385" x="518.71" y="126.7389">24/7</text></g><!--entity RS04--><g class="entity" data-qualified-name="Extensibilidad.RS04" data-source-line="18" id="ent0008"><rect fill="#F1F1F1" height="68.8906" rx="2.5" ry="2.5" style="stroke:#181818;stroke-width:0.5;" width="174.499" x="680.2" y="79.2969"/><text fill="#000000" font-family="sans-serif" font-size="14" lengthAdjust="spacing" textLength="41.4805" x="690.2" y="102.292">RS-04</text><text fill="#000000" font-family="sans-serif" font-size="14" lengthAdjust="spacing" textLength="154.499" x="690.2" y="118.5889">Nuevos consumidores</text><text fill="#000000" font-family="sans-serif" font-size="14" lengthAdjust="spacing" textLength="117.7148" x="690.2" y="134.8857">sin tocar el resto</text></g><!--entity RS05--><g class="entity" data-qualified-name="Usabilidad.RS05" data-source-line="22" id="ent0010"><rect fill="#F1F1F1" height="52.5938" rx="2.5" ry="2.5" style="stroke:#181818;stroke-width:0.5;" width="172.5645" x="910.17" y="87.4469"/><text fill="#000000" font-family="sans-serif" font-size="14" lengthAdjust="spacing" textLength="41.4805" x="920.17" y="110.442">RS-05</text><text fill="#000000" font-family="sans-serif" font-size="14" lengthAdjust="spacing" textLength="152.5645" x="920.17" y="126.7389">&#193;reas independientes</text></g><!--entity RS06--><g class="entity" data-qualified-name="Usabilidad.RS06" data-source-line="23" id="ent0011"><rect fill="#F1F1F1" height="52.5938" rx="2.5" ry="2.5" style="stroke:#181818;stroke-width:0.5;" width="176.6387" x="1118.13" y="87.4469"/><text fill="#000000" font-family="sans-serif" font-size="14" lengthAdjust="spacing" textLength="41.4805" x="1128.13" y="110.442">RS-06</text><text fill="#000000" font-family="sans-serif" font-size="14" lengthAdjust="spacing" textLength="156.6387" x="1128.13" y="126.7389">Mercados distinguidos</text></g><!--entity RS07--><g class="entity" data-qualified-name="Fiabilidad.RS07" data-source-line="27" id="ent0013"><rect fill="#F1F1F1" height="68.8906" rx="2.5" ry="2.5" style="stroke:#181818;stroke-width:0.5;" width="117.3779" x="1385.76" y="79.2969"/><text fill="#000000" font-family="sans-serif" font-size="14" lengthAdjust="spacing" textLength="41.4805" x="1395.76" y="102.292">RS-07</text><text fill="#000000" font-family="sans-serif" font-size="14" lengthAdjust="spacing" textLength="97.3779" x="1395.76" y="118.5889">Reintentos de</text><text fill="#000000" font-family="sans-serif" font-size="14" lengthAdjust="spacing" textLength="80.9375" x="1395.76" y="134.8857">notificaci&#243;n</text></g><!--entity RS08--><g class="entity" data-qualified-name="Escalabilidad.RS08" data-source-line="31" id="ent0015"><rect fill="#F1F1F1" height="68.8906" rx="2.5" ry="2.5" style="stroke:#181818;stroke-width:0.5;" width="141.543" x="1658.68" y="79.2969"/><text fill="#000000" font-family="sans-serif" font-size="14" lengthAdjust="spacing" textLength="41.4805" x="1668.68" y="102.292">RS-08</text><text fill="#000000" font-family="sans-serif" font-size="14" lengthAdjust="spacing" textLength="121.543" x="1668.68" y="118.5889">Sustituibilidad de</text><text fill="#000000" font-family="sans-serif" font-size="14" lengthAdjust="spacing" textLength="62.3096" x="1668.68" y="134.8857">la fuente</text></g><!--entity RS09--><g class="entity" data-qualified-name="Trazabilidad y seguridad.RS09" data-source-line="35" id="ent0017"><rect fill="#F1F1F1" height="68.8906" rx="2.5" ry="2.5" style="stroke:#181818;stroke-width:0.5;" width="118.4443" x="2004.23" y="79.2969"/><text fill="#000000" font-family="sans-serif" font-size="14" lengthAdjust="spacing" textLength="41.4805" x="2014.23" y="102.292">RS-09</text><text fill="#000000" font-family="sans-serif" font-size="14" lengthAdjust="spacing" textLength="98.4443" x="2014.23" y="118.5889">Notificaciones</text><text fill="#000000" font-family="sans-serif" font-size="14" lengthAdjust="spacing" textLength="60.5117" x="2014.23" y="134.8857">trazadas</text></g><!--entity RS10--><g class="entity" data-qualified-name="Trazabilidad y seguridad.RS10" data-source-line="36" id="ent0018"><rect fill="#F1F1F1" height="68.8906" rx="2.5" ry="2.5" style="stroke:#181818;stroke-width:0.5;" width="92.748" x="2158.08" y="79.2969"/><text fill="#000000" font-family="sans-serif" font-size="14" lengthAdjust="spacing" textLength="41.4805" x="2168.08" y="102.292">RS-10</text><text fill="#000000" font-family="sans-serif" font-size="14" lengthAdjust="spacing" textLength="72.748" x="2168.08" y="118.5889">Webhooks</text><text fill="#000000" font-family="sans-serif" font-size="14" lengthAdjust="spacing" textLength="55.5967" x="2168.08" y="134.8857">cifrados</text></g><g class="entity" data-qualified-name="GMN19" data-source-line="39" id="ent0020"><path d="M6,208.1869 L6,248.4525 A0,0 0 0 0 6,248.4525 L180.9053,248.4525 A0,0 0 0 0 180.9053,248.4525 L180.9053,218.1869 L170.9053,208.1869 L114.13,208.1869 L110.13,140.3169 L106.13,208.1869 L6,208.1869 A0,0 0 0 0 6,208.1869" fill="#FEFFDD" style="stroke:#181818;stroke-width:0.5;"/><path d="M170.9053,208.1869 L170.9053,218.1869 L180.9053,218.1869 L170.9053,208.1869" fill="#FEFFDD" style="stroke:#181818;stroke-width:0.5;"/><text fill="#000000" font-family="sans-serif" font-size="13" lengthAdjust="spacing" textLength="147.3164" x="12" y="225.2538">Pipeline WS in-process</text><text fill="#000000" font-family="sans-serif" font-size="13" lengthAdjust="spacing" textLength="153.9053" x="12" y="240.3866">&#183; leaderboard.service.ts</text></g><g class="entity" data-qualified-name="GMN22" data-source-line="40" id="ent0023"><path d="M216.22,208.1869 L216.22,248.4525 A0,0 0 0 0 216.22,248.4525 L410.6951,248.4525 A0,0 0 0 0 410.6951,248.4525 L410.6951,218.1869 L400.6951,208.1869 L297.45,208.1869 L293.45,140.3169 L289.45,208.1869 L216.22,208.1869 A0,0 0 0 0 216.22,208.1869" fill="#FEFFDD" style="stroke:#181818;stroke-width:0.5;"/><path d="M400.6951,208.1869 L400.6951,218.1869 L410.6951,218.1869 L400.6951,208.1869" fill="#FEFFDD" style="stroke:#181818;stroke-width:0.5;"/><text fill="#000000" font-family="sans-serif" font-size="13" lengthAdjust="spacing" textLength="173.4751" x="222.22" y="225.2538">PrecioActualizado + &#237;ndice</text><text fill="#000000" font-family="sans-serif" font-size="13" lengthAdjust="spacing" textLength="166.5625" x="222.22" y="240.3866">&#183; evaluacion.subscriber.ts</text></g><g class="entity" data-qualified-name="GMN25" data-source-line="41" id="ent0026"><path d="M446.05,208.1869 L446.05,248.4525 A0,0 0 0 0 446.05,248.4525 L632.8635,248.4525 A0,0 0 0 0 632.8635,248.4525 L632.8635,218.1869 L622.8635,208.1869 L543.45,208.1869 L539.45,140.3169 L535.45,208.1869 L446.05,208.1869 A0,0 0 0 0 446.05,208.1869" fill="#FEFFDD" style="stroke:#181818;stroke-width:0.5;"/><path d="M622.8635,208.1869 L622.8635,218.1869 L632.8635,218.1869 L622.8635,208.1869" fill="#FEFFDD" style="stroke:#181818;stroke-width:0.5;"/><text fill="#000000" font-family="sans-serif" font-size="13" lengthAdjust="spacing" textLength="165.8135" x="452.05" y="225.2538">Compose + healthchecks</text><text fill="#000000" font-family="sans-serif" font-size="13" lengthAdjust="spacing" textLength="144.022" x="452.05" y="240.3866">&#183; docker-compose.yml</text></g><g class="entity" data-qualified-name="GMN28" data-source-line="42" id="ent0029"><path d="M667.44,208.1869 L667.44,248.4525 A0,0 0 0 0 667.44,248.4525 L867.4566,248.4525 A0,0 0 0 0 867.4566,248.4525 L867.4566,218.1869 L857.4566,208.1869 L771.45,208.1869 L767.45,148.4369 L763.45,208.1869 L667.44,208.1869 A0,0 0 0 0 667.44,208.1869" fill="#FEFFDD" style="stroke:#181818;stroke-width:0.5;"/><path d="M857.4566,208.1869 L857.4566,218.1869 L867.4566,218.1869 L857.4566,208.1869" fill="#FEFFDD" style="stroke:#181818;stroke-width:0.5;"/><text fill="#000000" font-family="sans-serif" font-size="13" lengthAdjust="spacing" textLength="179.0166" x="673.44" y="225.2538">TypedBus + evaluator puro</text><text fill="#000000" font-family="sans-serif" font-size="13" lengthAdjust="spacing" textLength="168.6636" x="673.44" y="240.3866">&#183; bus.ts, domain/events.ts</text></g><g class="entity" data-qualified-name="GMN31" data-source-line="43" id="ent0032"><path d="M919.65,208.1869 L919.65,248.4525 A0,0 0 0 0 919.65,248.4525 L1063.255,248.4525 A0,0 0 0 0 1063.255,248.4525 L1063.255,218.1869 L1053.255,208.1869 L995.45,208.1869 L991.45,140.3169 L987.45,208.1869 L919.65,208.1869 A0,0 0 0 0 919.65,208.1869" fill="#FEFFDD" style="stroke:#181818;stroke-width:0.5;"/><path d="M1053.255,208.1869 L1053.255,218.1869 L1063.255,218.1869 L1053.255,208.1869" fill="#FEFFDD" style="stroke:#181818;stroke-width:0.5;"/><text fill="#000000" font-family="sans-serif" font-size="13" lengthAdjust="spacing" textLength="122.605" x="925.65" y="225.2538">Tres rutas ra&#237;z SPA</text><text fill="#000000" font-family="sans-serif" font-size="13" lengthAdjust="spacing" textLength="112.2646" x="925.65" y="240.3866">&#183; web/src/App.tsx</text></g><g class="entity" data-qualified-name="GMN34" data-source-line="44" id="ent0035"><path d="M1098.36,208.1869 L1098.36,248.4525 A0,0 0 0 0 1098.36,248.4525 L1324.548,248.4525 A0,0 0 0 0 1324.548,248.4525 L1324.548,218.1869 L1314.548,208.1869 L1210.45,208.1869 L1206.45,140.3169 L1202.45,208.1869 L1098.36,208.1869 A0,0 0 0 0 1098.36,208.1869" fill="#FEFFDD" style="stroke:#181818;stroke-width:0.5;"/><path d="M1314.548,208.1869 L1314.548,218.1869 L1324.548,218.1869 L1314.548,208.1869" fill="#FEFFDD" style="stroke:#181818;stroke-width:0.5;"/><text fill="#000000" font-family="sans-serif" font-size="13" lengthAdjust="spacing" textLength="205.188" x="1104.36" y="225.2538">Mercado como tipo del dominio</text><text fill="#000000" font-family="sans-serif" font-size="13" lengthAdjust="spacing" textLength="113.147" x="1104.36" y="240.3866">&#183; domain/types.ts</text></g><g class="entity" data-qualified-name="GMN37" data-source-line="45" id="ent0038"><path d="M1359.28,208.1869 L1359.28,248.4525 A0,0 0 0 0 1359.28,248.4525 L1529.6277,248.4525 A0,0 0 0 0 1529.6277,248.4525 L1529.6277,218.1869 L1519.6277,208.1869 L1448.45,208.1869 L1444.45,148.4369 L1440.45,208.1869 L1359.28,208.1869 A0,0 0 0 0 1359.28,208.1869" fill="#FEFFDD" style="stroke:#181818;stroke-width:0.5;"/><path d="M1519.6277,208.1869 L1519.6277,218.1869 L1529.6277,218.1869 L1519.6277,208.1869" fill="#FEFFDD" style="stroke:#181818;stroke-width:0.5;"/><text fill="#000000" font-family="sans-serif" font-size="13" lengthAdjust="spacing" textLength="149.3477" x="1365.28" y="225.2538">RetryWorker + backoff</text><text fill="#000000" font-family="sans-serif" font-size="13" lengthAdjust="spacing" textLength="104.6792" x="1365.28" y="240.3866">&#183; retry.worker.ts</text></g><g class="entity" data-qualified-name="GMN40" data-source-line="46" id="ent0041"><path d="M1564.75,208.1869 L1564.75,248.4525 A0,0 0 0 0 1564.75,248.4525 L1894.1572,248.4525 A0,0 0 0 0 1894.1572,248.4525 L1894.1572,218.1869 L1884.1572,208.1869 L1733.45,208.1869 L1729.45,148.4369 L1725.45,208.1869 L1564.75,208.1869 A0,0 0 0 0 1564.75,208.1869" fill="#FEFFDD" style="stroke:#181818;stroke-width:0.5;"/><path d="M1884.1572,208.1869 L1884.1572,218.1869 L1894.1572,218.1869 L1884.1572,208.1869" fill="#FEFFDD" style="stroke:#181818;stroke-width:0.5;"/><text fill="#000000" font-family="sans-serif" font-size="13" lengthAdjust="spacing" textLength="170.0156" x="1570.75" y="225.2538">Puerto IHyperliquidSource</text><text fill="#000000" font-family="sans-serif" font-size="13" lengthAdjust="spacing" textLength="308.4072" x="1570.75" y="240.3866">&#183; public-ws.adapter.ts &#183; nanoreth-rpc.adapter.ts</text></g><g class="entity" data-qualified-name="GMN43" data-source-line="47" id="ent0044"><path d="M1929.27,208.1869 L1929.27,248.4525 A0,0 0 0 0 1929.27,248.4525 L2119.6318,248.4525 A0,0 0 0 0 2119.6318,248.4525 L2119.6318,218.1869 L2109.6318,208.1869 L2065.93,208.1869 L2061.93,148.4369 L2057.93,208.1869 L1929.27,208.1869 A0,0 0 0 0 1929.27,208.1869" fill="#FEFFDD" style="stroke:#181818;stroke-width:0.5;"/><path d="M2109.6318,208.1869 L2109.6318,218.1869 L2119.6318,218.1869 L2109.6318,208.1869" fill="#FEFFDD" style="stroke:#181818;stroke-width:0.5;"/><text fill="#000000" font-family="sans-serif" font-size="13" lengthAdjust="spacing" textLength="129.7969" x="1935.27" y="225.2538">Tabla notificaciones</text><text fill="#000000" font-family="sans-serif" font-size="13" lengthAdjust="spacing" textLength="169.3618" x="1935.27" y="240.3866">&#183; schema/notificaciones.ts</text></g><g class="entity" data-qualified-name="GMN46" data-source-line="48" id="ent0047"><path d="M2154.48,208.1869 L2154.48,248.4525 A0,0 0 0 0 2154.48,248.4525 L2334.4317,248.4525 A0,0 0 0 0 2334.4317,248.4525 L2334.4317,218.1869 L2324.4317,208.1869 L2208.45,208.1869 L2204.45,148.4369 L2200.45,208.1869 L2154.48,208.1869 A0,0 0 0 0 2154.48,208.1869" fill="#FEFFDD" style="stroke:#181818;stroke-width:0.5;"/><path d="M2324.4317,208.1869 L2324.4317,218.1869 L2334.4317,218.1869 L2324.4317,208.1869" fill="#FEFFDD" style="stroke:#181818;stroke-width:0.5;"/><text fill="#000000" font-family="sans-serif" font-size="13" lengthAdjust="spacing" textLength="158.9517" x="2160.48" y="225.2538">pgcrypto + APP_SECRET</text><text fill="#000000" font-family="sans-serif" font-size="13" lengthAdjust="spacing" textLength="145.3677" x="2160.48" y="240.3866">&#183; persistence/crypto.ts</text></g><?plantuml-src VPJDRXj73CVlUWh2rqIV_ixDTLmqG188abjV5WXcPobfeDtXX9onemGvvDZtw3Md7dgltwHF4kxgmrQzyMsndF_lpo4vbANpmR2fe7GUuoeW4CS5TMGNa8KfwCxvESnCAVWe4enTcZbEuwf4OBJH-7c9dOKh42GY8zN0JYUwg0SkAKUEYGqKMCAxFyOWb3D2IQBYZyc9Y_efAPHOeO-67Kcdip61WmdwmbLE8tG0NphmuAYnQNSmpFnRD0LoJeOB-E_Fls08SW16O38T39yAHfc_kZLbCjRT_-qRmUX1CEfyVMJ-saaWxt9Nki8KhVw7cHyTzK-t-iCz_TMdY5wUrHzb_dt2Mos19I-fSWKnIgOg3v6iOT2owP_w-ckBepsBtyKyXp_E_FqtHbKwNs2eYwcbnDrzZvzAJZB_3jbg-mKA9r5d86bMEyd9dl-lxbd_qynFqAcZhxjSOEOzHJTpTbt-BVDqlsnYJVaizYppqwIfnRGjRiCk3SnIVRyjzsoFUytcynOBAn2S9_wfnRasPfSg-RediTONPbU9yoUguI3pDvWlY9PwthePcuVA3GTrDdf_X9nYf0ferWmfl8An2rY_HRYPQgUwWScYAEBVVw1y6E-U8DywYxqeBPnHpT5y75tOc4pfD5c25t3_NRjkiO7XPlJ9zoJbOjdfysp77Ihkagf0WWfPe2dZmYxGBjTf5MINo5sxFj5RLMKBuqWPrxeDYb-IA6Jj7eaX9AO6aoTH-vUAguppVRpLzabxGiSrJ9y2S8fQK3Rttp_3T7pHSEumxmlR_aK8glxK8ZzH-MQmzQrL1D45QhQIUZllQ7Ej9ezwXVqaZLFbJ33owePOAw3NodN0Q3Phz5n7UdTDg5r_LhSfwL8aUFERsd3fT0qMKqgyQL98UUbizqvwEcqXDY3G_zvuNGvnqULW7uLQFCxhKfbStuF_tmmhHhIBbUdlHrevmu5omjpoAiHwaYx6um_Jgyl9rVKwJsJH1O7UOdzzHYa_0000?></g></svg>