<svg xmlns="http://www.w3.org/2000/svg" xmlns:xlink="http://www.w3.org/1999/xlink" contentStyleType="text/css" data-diagram-type="MINDMAP" height="1117px" preserveAspectRatio="none" style="width:774px;height:1117px;background:#FFFFFF;" version="1.1" viewBox="0 0 774 1117" width="774px" zoomAndPan="magnify"><?plantuml 1.2026.4beta2?><defs/><g><rect fill="#FEFFE6" height="52.5938" rx="12.5" ry="12.5" style="stroke:#5A5A5A;stroke-width:1.5;" width="197.085" x="10" y="531.8594"/><text fill="#1F1F1F" font-family="sans-serif" font-size="14" lengthAdjust="spacing" textLength="98.5059" x="20" y="554.8545">Futuras l&#237;neas</text><text fill="#1F1F1F" font-family="sans-serif" font-size="14" lengthAdjust="spacing" textLength="177.085" x="20" y="571.1514">(continuaciones del MVP)</text><rect fill="#FAFAFA" height="36.2969" rx="12.5" ry="12.5" style="stroke:#5A5A5A;stroke-width:1.5;" width="124.6855" x="257.085" y="137.0391"/><text fill="#1F1F1F" font-family="sans-serif" font-size="14" lengthAdjust="spacing" textLength="104.6855" x="267.085" y="160.0342">Infraestructura</text><rect fill="#FAFAFA" height="52.5938" rx="12.5" ry="12.5" style="stroke:#5A5A5A;stroke-width:1.5;" width="289.7119" x="431.7705" y="20"/><text fill="#1F1F1F" font-family="sans-serif" font-size="14" lengthAdjust="spacing" textLength="122.5205" x="441.7705" y="42.9951">Del WS p&#250;blico al</text><text fill="#1F1F1F" font-family="sans-serif" font-size="14" font-weight="700" lengthAdjust="spacing" textLength="142.7412" x="568.7412" y="42.9951">nodo no validador</text><text fill="#1F1F1F" font-family="sans-serif" font-size="14" font-style="italic" lengthAdjust="spacing" textLength="143.8281" x="441.7705" y="59.292">(IHyperliquidSource)</text><path d="M381.7705,155.1875 L391.7705,155.1875 C406.7705,155.1875 406.7705,46.2969 421.7705,46.2969 L431.7705,46.2969" fill="none" style="stroke:#181818;stroke-width:1;"/><rect fill="#FAFAFA" height="52.5938" rx="12.5" ry="12.5" style="stroke:#5A5A5A;stroke-width:1.5;" width="275.5889" x="431.7705" y="92.5938"/><text fill="#1F1F1F" font-family="sans-serif" font-size="14" lengthAdjust="spacing" textLength="90.3574" x="441.7705" y="115.5889">Crecer de un</text><text fill="#1F1F1F" font-family="sans-serif" font-size="14" font-weight="700" lengthAdjust="spacing" textLength="160.7813" x="536.5781" y="115.5889">proceso a un cluster</text><text fill="#1F1F1F" font-family="sans-serif" font-size="14" font-style="italic" lengthAdjust="spacing" textLength="158.5664" x="441.7705" y="131.8857">(bus + estado + retry)</text><path d="M381.7705,155.1875 L391.7705,155.1875 C406.7705,155.1875 406.7705,118.8906 421.7705,118.8906 L431.7705,118.8906" fill="none" style="stroke:#181818;stroke-width:1;"/><rect fill="#FAFAFA" height="52.5938" rx="12.5" ry="12.5" style="stroke:#5A5A5A;stroke-width:1.5;" width="244.5605" x="431.7705" y="165.1875"/><text fill="#1F1F1F" font-family="sans-serif" font-size="14" font-weight="700" lengthAdjust="spacing" textLength="199.5615" x="441.7705" y="188.1826">Observabilidad operativa</text><text fill="#1F1F1F" font-family="sans-serif" font-size="14" font-style="italic" lengthAdjust="spacing" textLength="224.5605" x="441.7705" y="204.4795">(Prometheus + OTel + Grafana)</text><path d="M381.7705,155.1875 L391.7705,155.1875 C406.7705,155.1875 406.7705,191.4844 421.7705,191.4844 L431.7705,191.4844" fill="none" style="stroke:#181818;stroke-width:1;"/><rect fill="#FAFAFA" height="52.5938" rx="12.5" ry="12.5" style="stroke:#5A5A5A;stroke-width:1.5;" width="196.9141" x="431.7705" y="237.7813"/><text fill="#1F1F1F" font-family="sans-serif" font-size="14" lengthAdjust="spacing" textLength="81.2451" x="441.7705" y="260.7764">Migraci&#243;n a</text><text fill="#1F1F1F" font-family="sans-serif" font-size="14" font-weight="700" lengthAdjust="spacing" textLength="91.2188" x="527.4658" y="260.7764">Kubernetes</text><text fill="#1F1F1F" font-family="sans-serif" font-size="14" font-style="italic" lengthAdjust="spacing" textLength="69.8701" x="441.7705" y="277.0732">(opcional)</text><path d="M381.7705,155.1875 L391.7705,155.1875 C406.7705,155.1875 406.7705,264.0781 421.7705,264.0781 L431.7705,264.0781" fill="none" style="stroke:#181818;stroke-width:1;"/><path d="M207.085,558.1563 L217.085,558.1563 C232.085,558.1563 232.085,155.1875 247.085,155.1875 L257.085,155.1875" fill="none" style="stroke:#181818;stroke-width:1;"/><rect fill="#FAFAFA" height="36.2969" rx="12.5" ry="12.5" style="stroke:#5A5A5A;stroke-width:1.5;" width="87.293" x="257.085" y="455.5625"/><text fill="#1F1F1F" font-family="sans-serif" font-size="14" lengthAdjust="spacing" textLength="67.293" x="267.085" y="478.5576">Funcional</text><rect fill="#FAFAFA" height="52.5938" rx="12.5" ry="12.5" style="stroke:#5A5A5A;stroke-width:1.5;" width="211.2832" x="394.3779" y="310.375"/><text fill="#1F1F1F" font-family="sans-serif" font-size="14" font-weight="700" lengthAdjust="spacing" textLength="178.6436" x="404.3779" y="333.3701">Nuevos tipos de alerta</text><text fill="#1F1F1F" font-family="sans-serif" font-size="14" font-style="italic" lengthAdjust="spacing" textLength="191.2832" x="404.3779" y="349.667">(actividad, OI, funding, liq.)</text><path d="M344.3779,473.7109 L354.3779,473.7109 C369.3779,473.7109 369.3779,336.6719 384.3779,336.6719 L394.3779,336.6719" fill="none" style="stroke:#181818;stroke-width:1;"/><rect fill="#FAFAFA" height="52.5938" rx="12.5" ry="12.5" style="stroke:#5A5A5A;stroke-width:1.5;" width="214.9814" x="394.3779" y="382.9688"/><text fill="#1F1F1F" font-family="sans-serif" font-size="14" lengthAdjust="spacing" textLength="108.9375" x="404.3779" y="405.9639">Integraci&#243;n con</text><text fill="#1F1F1F" font-family="sans-serif" font-size="14" font-weight="700" lengthAdjust="spacing" textLength="81.5938" x="517.7656" y="405.9639">HyperEVM</text><text fill="#1F1F1F" font-family="sans-serif" font-size="14" font-style="italic" lengthAdjust="spacing" textLength="156.2354" x="404.3779" y="422.2607">(lending, health rates)</text><path d="M344.3779,473.7109 L354.3779,473.7109 C369.3779,473.7109 369.3779,409.2656 384.3779,409.2656 L394.3779,409.2656" fill="none" style="stroke:#181818;stroke-width:1;"/><rect fill="#FAFAFA" height="52.5938" rx="12.5" ry="12.5" style="stroke:#5A5A5A;stroke-width:1.5;" width="301.4697" x="394.3779" y="455.5625"/><text fill="#1F1F1F" font-family="sans-serif" font-size="14" font-weight="700" lengthAdjust="spacing" textLength="175.2939" x="404.3779" y="478.5576">Clustering autom&#225;tico</text><text fill="#1F1F1F" font-family="sans-serif" font-size="14" lengthAdjust="spacing" textLength="101.7256" x="584.1221" y="478.5576">de direcciones</text><text fill="#1F1F1F" font-family="sans-serif" font-size="14" font-style="italic" lengthAdjust="spacing" textLength="87.1719" x="404.3779" y="494.8545">(heur&#237;sticas)</text><path d="M344.3779,473.7109 L354.3779,473.7109 C369.3779,473.7109 369.3779,481.8594 384.3779,481.8594 L394.3779,481.8594" fill="none" style="stroke:#181818;stroke-width:1;"/><rect fill="#FAFAFA" height="36.2969" rx="12.5" ry="12.5" style="stroke:#5A5A5A;stroke-width:1.5;" width="274.748" x="394.3779" y="528.1563"/><text fill="#1F1F1F" font-family="sans-serif" font-size="14" font-weight="700" lengthAdjust="spacing" textLength="139.4463" x="404.3779" y="551.1514">Hist&#243;rico y replay</text><text fill="#1F1F1F" font-family="sans-serif" font-size="14" lengthAdjust="spacing" textLength="110.8516" x="548.2744" y="551.1514">del leaderboard</text><path d="M344.3779,473.7109 L354.3779,473.7109 C369.3779,473.7109 369.3779,546.3047 384.3779,546.3047 L394.3779,546.3047" fill="none" style="stroke:#181818;stroke-width:1;"/><rect fill="#FAFAFA" height="52.5938" rx="12.5" ry="12.5" style="stroke:#5A5A5A;stroke-width:1.5;" width="200.9814" x="394.3779" y="584.4531"/><text fill="#1F1F1F" font-family="sans-serif" font-size="14" lengthAdjust="spacing" textLength="162.1416" x="404.3779" y="607.4482">Refinamientos visuales</text><text fill="#1F1F1F" font-family="sans-serif" font-size="14" font-style="italic" lengthAdjust="spacing" textLength="180.9814" x="404.3779" y="623.7451">(sparklines, export, prefs)</text><path d="M344.3779,473.7109 L354.3779,473.7109 C369.3779,473.7109 369.3779,610.75 384.3779,610.75 L394.3779,610.75" fill="none" style="stroke:#181818;stroke-width:1;"/><path d="M207.085,558.1563 L217.085,558.1563 C232.085,558.1563 232.085,473.7109 247.085,473.7109 L257.085,473.7109" fill="none" style="stroke:#181818;stroke-width:1;"/><rect fill="#FAFAFA" height="36.2969" rx="12.5" ry="12.5" style="stroke:#5A5A5A;stroke-width:1.5;" width="159.3369" x="257.085" y="737.7891"/><text fill="#1F1F1F" font-family="sans-serif" font-size="14" lengthAdjust="spacing" textLength="139.3369" x="267.085" y="760.7842">Calidad y seguridad</text><rect fill="#FAFAFA" height="52.5938" rx="12.5" ry="12.5" style="stroke:#5A5A5A;stroke-width:1.5;" width="252.4492" x="466.4219" y="657.0469"/><text fill="#1F1F1F" font-family="sans-serif" font-size="14" font-weight="700" lengthAdjust="spacing" textLength="232.4492" x="476.4219" y="680.042">Endurecimiento de seguridad</text><text fill="#1F1F1F" font-family="sans-serif" font-size="14" font-style="italic" lengthAdjust="spacing" textLength="213.1104" x="476.4219" y="696.3389">(AuthN/Z, rate-limit, auditor&#237;a)</text><path d="M416.4219,755.9375 L426.4219,755.9375 C441.4219,755.9375 441.4219,683.3438 456.4219,683.3438 L466.4219,683.3438" fill="none" style="stroke:#181818;stroke-width:1;"/><rect fill="#FAFAFA" height="52.5938" rx="12.5" ry="12.5" style="stroke:#5A5A5A;stroke-width:1.5;" width="205.9512" x="466.4219" y="729.6406"/><text fill="#1F1F1F" font-family="sans-serif" font-size="14" font-weight="700" lengthAdjust="spacing" textLength="185.9512" x="476.4219" y="752.6357">Pruebas automatizadas</text><text fill="#1F1F1F" font-family="sans-serif" font-size="14" font-style="italic" lengthAdjust="spacing" textLength="161.0957" x="476.4219" y="768.9326">(unit, integraci&#243;n, e2e)</text><path d="M416.4219,755.9375 L426.4219,755.9375 C441.4219,755.9375 441.4219,755.9375 456.4219,755.9375 L466.4219,755.9375" fill="none" style="stroke:#181818;stroke-width:1;"/><rect fill="#FAFAFA" height="52.5938" rx="12.5" ry="12.5" style="stroke:#5A5A5A;stroke-width:1.5;" width="179.6875" x="466.4219" y="802.2344"/><text fill="#1F1F1F" font-family="sans-serif" font-size="14" font-weight="700" lengthAdjust="spacing" textLength="159.6875" x="476.4219" y="825.2295">Internacionalizaci&#243;n</text><text fill="#1F1F1F" font-family="sans-serif" font-size="14" font-style="italic" lengthAdjust="spacing" textLength="41.501" x="476.4219" y="841.5264">(i18n)</text><path d="M416.4219,755.9375 L426.4219,755.9375 C441.4219,755.9375 441.4219,828.5313 456.4219,828.5313 L466.4219,828.5313" fill="none" style="stroke:#181818;stroke-width:1;"/><path d="M207.085,558.1563 L217.085,558.1563 C232.085,558.1563 232.085,755.9375 247.085,755.9375 L257.085,755.9375" fill="none" style="stroke:#181818;stroke-width:1;"/><rect fill="#FAFAFA" height="36.2969" rx="12.5" ry="12.5" style="stroke:#5A5A5A;stroke-width:1.5;" width="173.5557" x="257.085" y="967.4219"/><text fill="#1F1F1F" font-family="sans-serif" font-size="14" lengthAdjust="spacing" textLength="153.5557" x="267.085" y="990.417">Validaci&#243;n y adopci&#243;n</text><rect fill="#FAFAFA" height="36.2969" rx="12.5" ry="12.5" style="stroke:#5A5A5A;stroke-width:1.5;" width="273.0322" x="480.6406" y="874.8281"/><text fill="#1F1F1F" font-family="sans-serif" font-size="14" font-weight="700" lengthAdjust="spacing" textLength="184.5977" x="490.6406" y="897.8232">Sesi&#243;n de presentaci&#243;n</text><text fill="#1F1F1F" font-family="sans-serif" font-size="14" lengthAdjust="spacing" textLength="63.9844" x="679.6885" y="897.8232">al cliente</text><path d="M430.6406,985.5703 L440.6406,985.5703 C455.6406,985.5703 455.6406,892.9766 470.6406,892.9766 L480.6406,892.9766" fill="none" style="stroke:#181818;stroke-width:1;"/><rect fill="#FAFAFA" height="36.2969" rx="12.5" ry="12.5" style="stroke:#5A5A5A;stroke-width:1.5;" width="188.3213" x="480.6406" y="931.125"/><text fill="#1F1F1F" font-family="sans-serif" font-size="14" font-weight="700" lengthAdjust="spacing" textLength="168.3213" x="490.6406" y="954.1201">Periodo de uso piloto</text><path d="M430.6406,985.5703 L440.6406,985.5703 C455.6406,985.5703 455.6406,949.2734 470.6406,949.2734 L480.6406,949.2734" fill="none" style="stroke:#181818;stroke-width:1;"/><rect fill="#FAFAFA" height="36.2969" rx="12.5" ry="12.5" style="stroke:#5A5A5A;stroke-width:1.5;" width="259.7432" x="480.6406" y="987.4219"/><text fill="#1F1F1F" font-family="sans-serif" font-size="14" font-weight="700" lengthAdjust="spacing" textLength="145.4072" x="490.6406" y="1010.417">Retroalimentaci&#243;n</text><text fill="#1F1F1F" font-family="sans-serif" font-size="14" lengthAdjust="spacing" textLength="89.8857" x="640.498" y="1010.417">estructurada</text><path d="M430.6406,985.5703 L440.6406,985.5703 C455.6406,985.5703 455.6406,1005.5703 470.6406,1005.5703 L480.6406,1005.5703" fill="none" style="stroke:#181818;stroke-width:1;"/><rect fill="#FAFAFA" height="52.5938" rx="12.5" ry="12.5" style="stroke:#5A5A5A;stroke-width:1.5;" width="252.2236" x="480.6406" y="1043.7188"/><text fill="#1F1F1F" font-family="sans-serif" font-size="14" font-weight="700" lengthAdjust="spacing" textLength="202.8018" x="490.6406" y="1066.7139">Documentaci&#243;n operativa</text><text fill="#1F1F1F" font-family="sans-serif" font-size="14" font-style="italic" lengthAdjust="spacing" textLength="232.2236" x="490.6406" y="1083.0107">(despliegue, operaci&#243;n, runbook)</text><path d="M430.6406,985.5703 L440.6406,985.5703 C455.6406,985.5703 455.6406,1070.0156 470.6406,1070.0156 L480.6406,1070.0156" fill="none" style="stroke:#181818;stroke-width:1;"/><path d="M207.085,558.1563 L217.085,558.1563 C232.085,558.1563 232.085,985.5703 247.085,985.5703 L257.085,985.5703" fill="none" style="stroke:#181818;stroke-width:1;"/><?plantuml-src TLJDRXCn4BxlKup4fTs6fesWGgX2BMb2A-YFMbGarCliUf9OSUp5Fu60-Z0yG4-zSSsBCVPwcqe8MP6ydfblvljc9aVEe_KBgSK2cw9mSwaRjBW0DqDXlaizXGagHyMXyoj5xuhiUY9n6jr-5G3Q24eNWFTOpwVM12s6HXaBByR7yIJR9waflxu-ZYUzZets-NL_70-_tlFlhQ36pxRsjl-BF1gFHmV9-xuuxEVoYXB6mGUB3jJwGHEwExrLSmwf0zRIQ78WIC7vxTLsKPPmfYSMoNaRwXZ5JoMSiFtB3JJhFvMIjG5KK9PCqZ1JMAAIWgMnPNcd-_sjizDLGrR9Rq6A6nDiJTlzVe8PMgh9SZO8cW4QQsfoZ1O_QnMSfmwZ2WvsWAjWNBvOydRLePJbPUN8Bh6IAJ4OJeTUBZ47Nrcp83-ZX77vcMlVWGyM9wYnmpYNtAjQhXyrPo_BZw4YgycJon2cYSgWQlrPGDr-vm8k0YsD0oyR4yLZFSZwBZtMN4iih0UNPpsOS8DuQ7h0Ykns-S-qfwSAk1cCcLGRtPvd54KvR4Qe_0oO8RcD1CDMhZYD6BnPh7zxRWoRk1eXMUUsimcAbR3h1ySE-0pXL3g_VhIndIiMk56uIk4A5A4WMncq8lbUqqHgN4ZIdkakfGlCjuLsl1fpnMFiUa0_6cDz3nfBavm7XkriS0P7qs3ZFQSVQH6uJDd2nhAVFB82ny7FBlfVUudwIyMU38v1I6-O3cwONDb05Ozt4e87uISAx1ePT8oIp-JcGWUq2OwTi1hRzd9eyid1Sl-DpaHk4v6sNolWgMpIFOFSa4iMPi7i7JFgSEAgr2fofAvQxbhSdBW5FFoDLCPpuxBrcYVTSAx5SupDDWhCVYUc3XkVVrP0a6iuwpHGhxLbwZReofXv95KSyOGz_Stjxmxs1WUxhohoEFWB?></g></svg>