<svg xmlns="http://www.w3.org/2000/svg" xmlns:xlink="http://www.w3.org/1999/xlink" contentStyleType="text/css" data-diagram-type="STATE" height="609px" preserveAspectRatio="none" style="width:1805px;height:609px;background:#FFFFFF;" version="1.1" viewBox="0 0 1805 609" width="1805px" zoomAndPan="magnify"><?plantuml 1.2026.4beta2?><defs/><g><rect fill="#F1F1F1" height="40" rx="12.5" ry="12.5" style="stroke:#181818;stroke-width:0.5;" width="162.0654" x="812.11" y="87"/><text fill="#000000" font-family="sans-serif" font-size="14" lengthAdjust="spacing" textLength="152.0654" x="817.11" y="111.8467">SISTEMA_DISPONIBLE</text><rect fill="#F1F1F1" height="40" rx="12.5" ry="12.5" style="stroke:#181818;stroke-width:0.5;" width="184.7402" x="405.77" y="204"/><text fill="#000000" font-family="sans-serif" font-size="14" lengthAdjust="spacing" textLength="174.7402" x="410.77" y="228.8467">LEADERBOARD_ABIERTO</text><rect fill="#F1F1F1" height="40" rx="12.5" ry="12.5" style="stroke:#181818;stroke-width:0.5;" width="166.7686" x="613.76" y="555"/><text fill="#000000" font-family="sans-serif" font-size="14" lengthAdjust="spacing" textLength="156.7686" x="618.76" y="579.8467">ENTIDADES_ABIERTAS</text><rect fill="#F1F1F1" height="40" rx="12.5" ry="12.5" style="stroke:#181818;stroke-width:0.5;" width="140.1494" x="283.07" y="438"/><text fill="#000000" font-family="sans-serif" font-size="14" lengthAdjust="spacing" textLength="130.1494" x="288.07" y="462.8467">ENTIDAD_ABIERTA</text><rect fill="#F1F1F1" height="40" rx="12.5" ry="12.5" style="stroke:#181818;stroke-width:0.5;" width="182.2861" x="7" y="555"/><text fill="#000000" font-family="sans-serif" font-size="14" lengthAdjust="spacing" textLength="172.2861" x="12" y="579.8467">DIRECCIONES_ABIERTAS</text><rect fill="#F1F1F1" height="40" rx="12.5" ry="12.5" style="stroke:#181818;stroke-width:0.5;" width="224.8672" x="226.71" y="321"/><text fill="#000000" font-family="sans-serif" font-size="14" lengthAdjust="spacing" textLength="214.8672" x="231.71" y="345.8467">DIRECCION_DETALLE_ABIERTA</text><rect fill="#F1F1F1" height="40" rx="12.5" ry="12.5" style="stroke:#181818;stroke-width:0.5;" width="148.8652" x="916.71" y="204"/><text fill="#000000" font-family="sans-serif" font-size="14" lengthAdjust="spacing" textLength="138.8652" x="921.71" y="228.8467">ALERTAS_ABIERTAS</text><rect fill="#F1F1F1" height="40" rx="12.5" ry="12.5" style="stroke:#181818;stroke-width:0.5;" width="131.0918" x="1050.6" y="321"/><text fill="#000000" font-family="sans-serif" font-size="14" lengthAdjust="spacing" textLength="121.0918" x="1055.6" y="345.8467">ALERTA_ABIERTA</text><g class="start_entity" data-qualified-name=".start." data-source-line="5" id="ent0002"><ellipse cx="893.14" cy="16" fill="#222222" rx="10" ry="10" style="stroke:#222222;stroke-width:1;"/></g><!--link *start* to SISTEMA_DISPONIBLE--><g class="link" data-entity-1="ent0002" data-entity-2="ent0002" data-link-type="dependency" data-source-line="5" id="lnk3"><path d="M893.14,26.19 C893.14,40.4 893.14,62.02 893.14,80.74" fill="none" id="*start*-to-SISTEMA_DISPONIBLE" style="stroke:#181818;stroke-width:1;"/><polygon fill="#181818" points="893.14,86.74,897.14,77.74,893.14,81.74,889.14,77.74,893.14,86.74" style="stroke:#181818;stroke-width:1;"/></g><!--link SISTEMA_DISPONIBLE to LEADERBOARD_ABIERTO--><g class="link" data-entity-1="ent0002" data-entity-2="ent0003" data-link-type="dependency" data-source-line="17" id="lnk4"><path d="M811.94,117.68 C692.16,131.96 482.14,157 482.14,157 C482.14,157 482.14,174 482.14,174 C482.14,174 485.4877,184.2363 489.9577,197.9263" fill="none" id="SISTEMA_DISPONIBLE-to-LEADERBOARD_ABIERTO" style="stroke:#181818;stroke-width:1;"/><polygon fill="#181818" points="491.82,203.63,492.8289,193.833,490.2681,198.877,485.2241,196.3161,491.82,203.63" style="stroke:#181818;stroke-width:1;"/><text fill="#000000" font-family="sans-serif" font-size="13" lengthAdjust="spacing" textLength="197.0439" x="483.14" y="170.0669">CU-01 consultarLeaderboard()</text></g><!--link LEADERBOARD_ABIERTO to SISTEMA_DISPONIBLE--><g class="link" data-entity-1="ent0003" data-entity-2="ent0002" data-link-type="dependency" data-source-line="22" id="lnk7"><path d="M572.32,203.56 C624.53,189.88 685.14,174 685.14,174 C685.14,174 721.14,157 721.14,157 C721.14,157 771.3195,142.7034 819.3895,129.0134" fill="none" id="LEADERBOARD_ABIERTO-to-SISTEMA_DISPONIBLE" style="stroke:#181818;stroke-width:1;"/><polygon fill="#181818" points="825.16,127.37,815.4086,125.9881,820.3512,128.7395,817.5998,133.6821,825.16,127.37" style="stroke:#181818;stroke-width:1;"/><text fill="#000000" font-family="sans-serif" font-size="13" lengthAdjust="spacing" textLength="115.3052" x="722.14" y="170.0669">volverAlSistema()</text></g><!--link SISTEMA_DISPONIBLE to ENTIDADES_ABIERTAS--><g class="link" data-entity-1="ent0002" data-entity-2="ent0004" data-link-type="dependency" data-source-line="18" id="lnk5"><path d="M888.29,127.25 C880.03,159.99 864.14,223 864.14,223 C864.14,223 864.14,223 864.14,459 C864.14,459 820.14,525 820.14,525 C820.14,525 785.7143,538.7203 751.3343,552.4103" fill="none" id="SISTEMA_DISPONIBLE-to-ENTIDADES_ABIERTAS" style="stroke:#181818;stroke-width:1;"/><polygon fill="#181818" points="745.76,554.63,755.6013,555.0167,750.4053,552.7803,752.6417,547.5843,745.76,554.63" style="stroke:#181818;stroke-width:1;"/><text fill="#000000" font-family="sans-serif" font-size="13" lengthAdjust="spacing" textLength="149.0239" x="865.14" y="345.5669">CU-03 abrirEntidades()</text></g><!--link ENTIDADES_ABIERTAS to SISTEMA_DISPONIBLE--><g class="link" data-entity-1="ent0004" data-entity-2="ent0002" data-link-type="dependency" data-source-line="23" id="lnk8"><path d="M780.78,564.15 C1017.16,536.29 1673.14,459 1673.14,459 C1673.14,223 1673.14,223 1673.14,223 C1673.14,223 1638.14,204 1638.14,204 C1638.14,204 1173.9108,144.1768 980.6008,119.2668" fill="none" id="ENTIDADES_ABIERTAS-to-SISTEMA_DISPONIBLE" style="stroke:#181818;stroke-width:1;"/><polygon fill="#181818" points="974.65,118.5,983.065,123.6174,979.609,119.139,984.0874,115.683,974.65,118.5" style="stroke:#181818;stroke-width:1;"/><text fill="#000000" font-family="sans-serif" font-size="13" lengthAdjust="spacing" textLength="115.3052" x="1674.14" y="345.5669">volverAlSistema()</text></g><!--link SISTEMA_DISPONIBLE to ALERTAS_ABIERTAS--><g class="link" data-entity-1="ent0002" data-entity-2="ent0008" data-link-type="dependency" data-source-line="19" id="lnk6"><path d="M900.8,127.45 C908.47,146.91 919.14,174 919.14,174 C919.14,174 937.5986,186.5659 957.7286,200.2559" fill="none" id="SISTEMA_DISPONIBLE-to-ALERTAS_ABIERTAS" style="stroke:#181818;stroke-width:1;"/><polygon fill="#181818" points="962.69,203.63,957.4974,195.2612,958.5555,200.8182,952.9985,201.8764,962.69,203.63" style="stroke:#181818;stroke-width:1;"/><text fill="#000000" font-family="sans-serif" font-size="13" lengthAdjust="spacing" textLength="130.3047" x="920.14" y="170.0669">CU-10 abrirAlertas()</text></g><!--link ALERTAS_ABIERTAS to SISTEMA_DISPONIBLE--><g class="link" data-entity-1="ent0008" data-entity-2="ent0002" data-link-type="dependency" data-source-line="24" id="lnk9"><path d="M1016.44,203.63 C1034.33,189.94 1055.14,174 1055.14,174 C1055.14,174 1055.14,157 1055.14,157 C1055.14,157 1008.1932,142.7964 962.9132,129.1064" fill="none" id="ALERTAS_ABIERTAS-to-SISTEMA_DISPONIBLE" style="stroke:#181818;stroke-width:1;"/><polygon fill="#181818" points="957.17,127.37,964.6273,133.8035,961.956,128.817,966.9425,126.1458,957.17,127.37" style="stroke:#181818;stroke-width:1;"/><text fill="#000000" font-family="sans-serif" font-size="13" lengthAdjust="spacing" textLength="115.3052" x="1056.14" y="170.0669">volverAlSistema()</text></g><!--link LEADERBOARD_ABIERTO to LEADERBOARD_ABIERTO--><g class="link" data-entity-1="ent0003" data-entity-2="ent0003" data-link-type="dependency" data-source-line="27" id="lnk10"><path d="M590.88,213.36 C610.95,214.4 625.51,217.94 625.51,224 C625.51,230.06 616.942,233.2895 596.872,234.3295" fill="none" id="LEADERBOARD_ABIERTO-to-LEADERBOARD_ABIERTO" style="stroke:#181818;stroke-width:1;"/><polygon fill="#181818" points="590.88,234.64,600.0749,238.1689,595.8733,234.3813,599.6609,230.1796,590.88,234.64" style="stroke:#181818;stroke-width:1;"/><text fill="#000000" font-family="sans-serif" font-size="13" lengthAdjust="spacing" textLength="178.7246" x="631.51" y="228.5669">CU-01 reseleccionarTerna()</text></g><!--link ENTIDADES_ABIERTAS to ENTIDAD_ABIERTA--><g class="link" data-entity-1="ent0004" data-entity-2="ent0005" data-link-type="dependency" data-source-line="30" id="lnk11"><path d="M624.95,554.56 C574.14,540.88 515.14,525 515.14,525 C515.14,525 479.14,508 479.14,508 C479.14,508 443.7524,494.2338 408.5324,480.5438" fill="none" id="ENTIDADES_ABIERTAS-to-ENTIDAD_ABIERTA" style="stroke:#181818;stroke-width:1;"/><polygon fill="#181818" points="402.94,478.37,409.8794,485.3589,407.6003,480.1815,412.7778,477.9024,402.94,478.37" style="stroke:#181818;stroke-width:1;"/><text fill="#000000" font-family="sans-serif" font-size="13" lengthAdjust="spacing" textLength="137.5347" x="516.14" y="521.0669">CU-02 crearEntidad()</text></g><!--link ENTIDADES_ABIERTAS to ENTIDAD_ABIERTA--><g class="link" data-entity-1="ent0004" data-entity-2="ent0005" data-link-type="dependency" data-source-line="31" id="lnk12"><path d="M685.65,554.55 C674.15,535.09 658.14,508 658.14,508 C658.14,508 519.494,485.7217 429.424,471.2517" fill="none" id="ENTIDADES_ABIERTAS-to-ENTIDAD_ABIERTA-1" style="stroke:#181818;stroke-width:1;"/><polygon fill="#181818" points="423.5,470.3,431.7516,475.6769,428.4367,471.0931,433.0205,467.7782,423.5,470.3" style="stroke:#181818;stroke-width:1;"/><text fill="#000000" font-family="sans-serif" font-size="13" lengthAdjust="spacing" textLength="142.0034" x="669.14" y="521.0669">CU-04 editarEntidad()</text></g><!--link ENTIDAD_ABIERTA to ENTIDADES_ABIERTAS--><g class="link" data-entity-1="ent0005" data-entity-2="ent0004" data-link-type="dependency" data-source-line="34" id="lnk14"><path d="M350.38,478.37 C348.42,492.06 346.14,508 346.14,508 C346.14,508 346.14,525 346.14,525 C346.14,525 591.14,555 591.14,555 C591.14,555 594.4541,555.5915 607.4541,557.9215" fill="none" id="ENTIDAD_ABIERTA-to-ENTIDADES_ABIERTAS" style="stroke:#181818;stroke-width:1;"/><polygon fill="#181818" points="613.36,558.98,605.2068,553.455,608.4384,558.0979,603.7955,561.3295,613.36,558.98" style="stroke:#181818;stroke-width:1;"/><text fill="#000000" font-family="sans-serif" font-size="13" lengthAdjust="spacing" textLength="123.7349" x="347.14" y="521.0669">volverAEntidades()</text></g><!--link ENTIDADES_ABIERTAS to ENTIDADES_ABIERTAS--><g class="link" data-entity-1="ent0004" data-entity-2="ent0004" data-link-type="dependency" data-source-line="32" id="lnk13"><path d="M780.93,564.24 C800.82,565.1 815.53,568.69 815.53,575 C815.53,581.31 806.8144,584.6408 786.9244,585.5008" fill="none" id="ENTIDADES_ABIERTAS-to-ENTIDADES_ABIERTAS" style="stroke:#181818;stroke-width:1;"/><polygon fill="#181818" points="780.93,585.76,790.0944,589.3675,785.9253,585.544,789.7488,581.375,780.93,585.76" style="stroke:#181818;stroke-width:1;"/><text fill="#000000" font-family="sans-serif" font-size="13" lengthAdjust="spacing" textLength="156.7808" x="821.53" y="579.5669">CU-05 eliminarEntidad()</text></g><!--link ENTIDAD_ABIERTA to ENTIDAD_ABIERTA--><g class="link" data-entity-1="ent0005" data-entity-2="ent0005" data-link-type="dependency" data-source-line="35" id="lnk15"><path d="M423.36,447.09 C443.08,447.56 458.22,451.2 458.22,458 C458.22,464.8 449.0783,468.297 429.3583,468.767" fill="none" id="ENTIDAD_ABIERTA-to-ENTIDAD_ABIERTA" style="stroke:#181818;stroke-width:1;"/><polygon fill="#181818" points="423.36,468.91,432.4528,472.6944,428.3586,468.7909,432.2621,464.6967,423.36,468.91" style="stroke:#181818;stroke-width:1;"/><text fill="#000000" font-family="sans-serif" font-size="13" lengthAdjust="spacing" textLength="142.0034" x="464.22" y="462.5669">CU-04 editarEntidad()</text></g><!--link ENTIDAD_ABIERTA to DIRECCIONES_ABIERTAS--><g class="link" data-entity-1="ent0005" data-entity-2="ent0006" data-link-type="dependency" data-source-line="36" id="lnk16"><path d="M282.59,475.86 C223.29,490.04 148.14,508 148.14,508 C148.14,508 131.2443,530.3083 116.4943,549.7683" fill="none" id="ENTIDAD_ABIERTA-to-DIRECCIONES_ABIERTAS" style="stroke:#181818;stroke-width:1;"/><polygon fill="#181818" points="112.87,554.55,121.4943,549.7937,115.8903,550.5653,115.1187,544.9613,112.87,554.55" style="stroke:#181818;stroke-width:1;"/><text fill="#000000" font-family="sans-serif" font-size="13" lengthAdjust="spacing" textLength="160.4561" x="149.14" y="521.0669">CU-07 abrirDirecciones()</text></g><!--link DIRECCIONES_ABIERTAS to DIRECCIONES_ABIERTAS--><g class="link" data-entity-1="ent0006" data-entity-2="ent0006" data-link-type="dependency" data-source-line="38" id="lnk17"><path d="M189.71,569.67 C209.73,570.18 224.29,571.96 224.29,575 C224.29,578.04 215.7281,579.6672 195.7081,580.1772" fill="none" id="DIRECCIONES_ABIERTAS-to-DIRECCIONES_ABIERTAS" style="stroke:#181818;stroke-width:1;"/><polygon fill="#181818" points="189.71,580.33,198.8089,584.0995,194.7084,580.2027,198.6052,576.1021,189.71,580.33" style="stroke:#181818;stroke-width:1;"/><text fill="#000000" font-family="sans-serif" font-size="13" lengthAdjust="spacing" textLength="156.5459" x="230.29" y="579.5669">CU-06 anadirDireccion()</text></g><!--link DIRECCIONES_ABIERTAS to DIRECCIONES_ABIERTAS--><g class="link" data-entity-1="ent0006" data-entity-2="ent0006" data-link-type="dependency" data-source-line="39" id="lnk18"><path d="M189.41,565.61 C278,561.79 392.29,564.92 392.29,575 C392.29,585.08 283.9944,588.4685 195.4044,584.6485" fill="none" id="DIRECCIONES_ABIERTAS-to-DIRECCIONES_ABIERTAS-1" style="stroke:#181818;stroke-width:1;"/><polygon fill="#181818" points="189.41,584.39,198.2293,588.774,194.4054,584.6054,198.574,580.7814,189.41,584.39" style="stroke:#181818;stroke-width:1;"/><text fill="#000000" font-family="sans-serif" font-size="13" lengthAdjust="spacing" textLength="168.2129" x="398.29" y="579.5669">CU-08 eliminarDireccion()</text></g><!--link LEADERBOARD_ABIERTO to DIRECCION_DETALLE_ABIERTA--><g class="link" data-entity-1="ent0003" data-entity-2="ent0007" data-link-type="dependency" data-source-line="42" id="lnk19"><path d="M432.14,244.37 C385.46,258.06 331.14,274 331.14,274 C331.14,274 331.14,291 331.14,291 C331.14,291 332.7854,301.0181 335.0154,314.7081" fill="none" id="LEADERBOARD_ABIERTO-to-DIRECCION_DETALLE_ABIERTA" style="stroke:#181818;stroke-width:1;"/><polygon fill="#181818" points="335.98,320.63,338.481,311.104,335.1761,315.695,330.5851,312.3902,335.98,320.63" style="stroke:#181818;stroke-width:1;"/><text fill="#000000" font-family="sans-serif" font-size="13" lengthAdjust="spacing" textLength="138.5376" x="332.14" y="287.0669">verDetalleDireccion()</text></g><!--link DIRECCION_DETALLE_ABIERTA to LEADERBOARD_ABIERTO--><g class="link" data-entity-1="ent0007" data-entity-2="ent0003" data-link-type="dependency" data-source-line="44" id="lnk21"><path d="M392.89,320.63 C430.91,306.94 475.14,291 475.14,291 C475.14,291 482.6033,269.5751 489.3933,250.1151" fill="none" id="DIRECCION_DETALLE_ABIERTA-to-LEADERBOARD_ABIERTO" style="stroke:#181818;stroke-width:1;"/><polygon fill="#181818" points="491.37,244.45,484.6283,251.6298,489.7228,249.1709,492.1817,254.2654,491.37,244.45" style="stroke:#181818;stroke-width:1;"/><text fill="#000000" font-family="sans-serif" font-size="13" lengthAdjust="spacing" textLength="145.5137" x="482.14" y="287.0669">volverAlLeaderboard()</text></g><!--link DIRECCIONES_ABIERTAS to DIRECCION_DETALLE_ABIERTA--><g class="link" data-entity-1="ent0006" data-entity-2="ent0007" data-link-type="dependency" data-source-line="43" id="lnk20"><path d="M102.01,554.51 C109.48,516.91 125.14,438 125.14,438 C125.14,438 227.8356,391.9357 290.3656,363.8857" fill="none" id="DIRECCIONES_ABIERTAS-to-DIRECCION_DETALLE_ABIERTA" style="stroke:#181818;stroke-width:1;"/><polygon fill="#181818" points="295.84,361.43,285.9912,361.464,291.278,363.4765,289.2655,368.7632,295.84,361.43" style="stroke:#181818;stroke-width:1;"/><text fill="#000000" font-family="sans-serif" font-size="13" lengthAdjust="spacing" textLength="138.5376" x="126.14" y="462.5669">verDetalleDireccion()</text></g><!--link DIRECCION_DETALLE_ABIERTA to ENTIDAD_ABIERTA--><g class="link" data-entity-1="ent0007" data-entity-2="ent0005" data-link-type="dependency" data-source-line="45" id="lnk22"><path d="M341.49,361.25 C344.07,382.48 347.4741,410.4841 350.0641,431.7341" fill="none" id="DIRECCION_DETALLE_ABIERTA-to-ENTIDAD_ABIERTA" style="stroke:#181818;stroke-width:1;"/><polygon fill="#181818" points="350.79,437.69,353.6717,428.2722,350.1851,432.7267,345.7305,429.2401,350.79,437.69" style="stroke:#181818;stroke-width:1;"/><text fill="#000000" font-family="sans-serif" font-size="13" lengthAdjust="spacing" textLength="108.9639" x="348.14" y="404.0669">volverAEntidad()</text></g><!--link ALERTAS_ABIERTAS to ALERTA_ABIERTA--><g class="link" data-entity-1="ent0008" data-entity-2="ent0009" data-link-type="dependency" data-source-line="48" id="lnk23"><path d="M967.82,244.37 C951.33,258.06 932.14,274 932.14,274 C932.14,274 932.14,291 932.14,291 C932.14,291 991.6421,306.8458 1044.4321,320.9058" fill="none" id="ALERTAS_ABIERTAS-to-ALERTA_ABIERTA" style="stroke:#181818;stroke-width:1;"/><polygon fill="#181818" points="1050.23,322.45,1042.5626,316.2684,1045.3984,321.1632,1040.5037,323.999,1050.23,322.45" style="stroke:#181818;stroke-width:1;"/><text fill="#000000" font-family="sans-serif" font-size="13" lengthAdjust="spacing" textLength="126.8135" x="933.14" y="287.0669">CU-09 crearAlerta()</text></g><!--link ALERTAS_ABIERTAS to ALERTA_ABIERTA--><g class="link" data-entity-1="ent0008" data-entity-2="ent0009" data-link-type="dependency" data-source-line="49" id="lnk24"><path d="M1019.99,244.37 C1040.4,258.06 1064.14,274 1064.14,274 C1064.14,274 1081.7656,296.378 1097.1056,315.838" fill="none" id="ALERTAS_ABIERTAS-to-ALERTA_ABIERTA-1" style="stroke:#181818;stroke-width:1;"/><polygon fill="#181818" points="1100.82,320.55,1098.3897,311.0057,1097.7247,316.6233,1092.107,315.9582,1100.82,320.55" style="stroke:#181818;stroke-width:1;"/><text fill="#000000" font-family="sans-serif" font-size="13" lengthAdjust="spacing" textLength="131.2822" x="1078.14" y="287.0669">CU-11 editarAlerta()</text></g><!--link ALERTA_ABIERTA to ALERTAS_ABIERTAS--><g class="link" data-entity-1="ent0009" data-entity-2="ent0008" data-link-type="dependency" data-source-line="52" id="lnk26"><path d="M1156.46,320.63 C1184.97,306.94 1218.14,291 1218.14,291 C1218.14,291 1218.14,274 1218.14,274 C1218.14,274 1137.8149,256.6559 1071.6549,242.3759" fill="none" id="ALERTA_ABIERTA-to-ALERTAS_ABIERTAS" style="stroke:#181818;stroke-width:1;"/><polygon fill="#181818" points="1065.79,241.11,1073.7435,246.9188,1070.6774,242.1649,1075.4313,239.0989,1065.79,241.11" style="stroke:#181818;stroke-width:1;"/><text fill="#000000" font-family="sans-serif" font-size="13" lengthAdjust="spacing" textLength="146.3452" x="1219.14" y="287.0669">completarFormulario()</text></g><!--link ALERTAS_ABIERTAS to ALERTAS_ABIERTAS--><g class="link" data-entity-1="ent0008" data-entity-2="ent0008" data-link-type="dependency" data-source-line="50" id="lnk25"><path d="M1066.07,220.38 C1085.73,220.59 1100.58,221.8 1100.58,224 C1100.58,226.2 1091.7297,227.3459 1072.0697,227.5559" fill="none" id="ALERTAS_ABIERTAS-to-ALERTAS_ABIERTAS" style="stroke:#181818;stroke-width:1;"/><polygon fill="#181818" points="1066.07,227.62,1075.1122,231.5236,1071.0697,227.5666,1075.0268,223.5241,1066.07,227.62" style="stroke:#181818;stroke-width:1;"/><text fill="#000000" font-family="sans-serif" font-size="13" lengthAdjust="spacing" textLength="146.0596" x="1106.58" y="228.5669">CU-12 eliminarAlerta()</text></g><!--link ALERTAS_ABIERTAS to ALERTAS_ABIERTAS--><g class="link" data-entity-1="ent0008" data-entity-2="ent0008" data-link-type="dependency" data-source-line="55" id="lnk27"><path d="M1066.03,218 C1147.44,215.06 1258.58,217.06 1258.58,224 C1258.58,230.94 1153.4361,233.1565 1072.0261,230.2165" fill="none" id="ALERTAS_ABIERTAS-to-ALERTAS_ABIERTAS-1" style="stroke:#181818;stroke-width:1;"/><polygon fill="#181818" points="1066.03,230,1074.8798,234.3222,1071.0267,230.1804,1075.1685,226.3274,1066.03,230" style="stroke:#181818;stroke-width:1;"/><text fill="#000000" font-family="sans-serif" font-size="13" lengthAdjust="spacing" textLength="148.605" x="1264.58" y="228.5669">CU-13 evaluarAlertas()</text></g><!--link ALERTAS_ABIERTAS to ALERTAS_ABIERTAS--><g class="link" data-entity-1="ent0008" data-entity-2="ent0008" data-link-type="dependency" data-source-line="56" id="lnk28"><path d="M1065.62,216.6 C1191.95,210.05 1418.58,212.52 1418.58,224 C1418.58,235.48 1197.942,238.2607 1071.612,231.7107" fill="none" id="ALERTAS_ABIERTAS-to-ALERTAS_ABIERTAS-2" style="stroke:#181818;stroke-width:1;"/><polygon fill="#181818" points="1065.62,231.4,1074.4008,235.8606,1070.6133,231.6589,1074.815,227.8714,1065.62,231.4" style="stroke:#181818;stroke-width:1;"/><text fill="#000000" font-family="sans-serif" font-size="13" lengthAdjust="spacing" textLength="171.5962" x="1424.58" y="228.5669">CU-14 enviarNotificacion()</text></g><?plantuml-src hLLBRjim4Dth5BDhKi1edFIhHG75Kb41hbtOxgeeWf74n4GfKY0fjpbEpf0Zv6AbJ5gLPTgEYtebpUYzuRnv7AkVb5SeiGH6ET7t5O5AiFlc9L1jJYsn4ByeluDRP8e4IreG86Mbxw4WAfUqqbJm8FZ-yWSC1XzXdiuNoPVe9axdNwUJz7gS187Ig8alOnFZ98gJsVKqciKtqNMQp1PJbqacYpGsoRcBH_Fjn2Ried4wIqQZT3hP1RIfcpXPHEDnqeD6u_NNVPWDjzy6BqoF0_XSPw6ddKQG2lCb0W931LeI1KyFafZdsvhdHYTa9cGe0W-wKSyZ1OGm-ZQu648kkAgPHZacM12P2PJ5sVa-fbtfm35T0MQIoeHhMXWYjP-ZBmg0unXUM8w84QcnON3AZ30ZEP48Tqnao4AGH0l91I23PPsjM_Vrw7UEAROIR4LCdJbLcfHeAlaQEm7kw-a4kEjpXYN2C8JEA0xsTcYknYM4aNnj3xaWalVhN8RG3WiCMKmqCaRMZrHQfBELHvoE6JP1W7QI5vUG6uDktE3NzmZ5Qo05rS_ds1gTutW3XD6IyYvBqAzvWCDDgclg0-YJkjWYyAqOH_3EtedEI9eUl80ZJ6y1EHOTAaFqBpplMr6xJCvQoMzDkA9FZzoUFZJho_hAtbtp2ZL7A2oq-UvCI-JAwAoGdU_rk_rj7Qs_T9k14UbyVBJB_y6tWzXtApUMs5pzxMLxcC_hhcs-ZhixD_mg1BTArwhkxAY_oxZ3RMVymTvV2_Vjj_tOuT1P_ZdWlhc6bwsvMdZGgxC7dOkoOcPMyfEGPSrGKj6nvGfPZTPlM6jHFZrecgFp7dMxZdBTB4e5IcIIm2kqwfqVas-dYoiWwuATlx9Ju6Pfy1L5EH6QtffZMjlz0G00?></g></svg>