<svg xmlns="http://www.w3.org/2000/svg" xmlns:xlink="http://www.w3.org/1999/xlink" contentStyleType="text/css" data-diagram-type="STATE" height="609px" preserveAspectRatio="none" style="width:1617px;height:609px;background:#FFFFFF;" version="1.1" viewBox="0 0 1617 609" width="1617px" zoomAndPan="magnify"><?plantuml 1.2026.4beta2?><defs/><g><rect fill="#F1F1F1" height="40" rx="12.5" ry="12.5" style="stroke:#181818;stroke-width:0.5;" width="50" x="778" y="87"/><text fill="#000000" font-family="sans-serif" font-size="14" lengthAdjust="spacing" textLength="0" x="803" y="102">SISTEMA_DISPONIBLE</text><rect fill="#F1F1F1" height="40" rx="12.5" ry="12.5" style="stroke:#181818;stroke-width:0.5;" width="50" x="394" y="204"/><text fill="#000000" font-family="sans-serif" font-size="14" lengthAdjust="spacing" textLength="0" x="419" y="214">LEADERBOARD_ABIERTO</text><text fill="#000000" font-family="sans-serif" font-size="14" lengthAdjust="spacing" textLength="0" x="419" y="224">[ /leaderboard ]</text><rect fill="#F1F1F1" height="40" rx="12.5" ry="12.5" style="stroke:#181818;stroke-width:0.5;" width="50" x="582" y="555"/><text fill="#000000" font-family="sans-serif" font-size="14" lengthAdjust="spacing" textLength="0" x="607" y="565">ENTIDADES_ABIERTAS</text><text fill="#000000" font-family="sans-serif" font-size="14" lengthAdjust="spacing" textLength="0" x="607" y="575">[ /entidades ]</text><rect fill="#F1F1F1" height="40" rx="12.5" ry="12.5" style="stroke:#181818;stroke-width:0.5;" width="50" x="238" y="438"/><text fill="#000000" font-family="sans-serif" font-size="14" lengthAdjust="spacing" textLength="0" x="263" y="448">ENTIDAD_ABIERTA</text><text fill="#000000" font-family="sans-serif" font-size="14" lengthAdjust="spacing" textLength="0" x="263" y="458">[ /entidades/:id ]</text><rect fill="#F1F1F1" height="40" rx="12.5" ry="12.5" style="stroke:#181818;stroke-width:0.5;" width="50" x="7" y="555"/><text fill="#000000" font-family="sans-serif" font-size="14" lengthAdjust="spacing" textLength="0" x="32" y="565">DIRECCIONES_ABIERTAS</text><text fill="#000000" font-family="sans-serif" font-size="14" lengthAdjust="spacing" textLength="0" x="32" y="575">(sub-contexto en /entidades/:id)</text><rect fill="#F1F1F1" height="40" rx="12.5" ry="12.5" style="stroke:#181818;stroke-width:0.5;" width="50" x="229" y="321"/><text fill="#000000" font-family="sans-serif" font-size="14" lengthAdjust="spacing" textLength="0" x="254" y="326">DIRECCION_DETALLE_ABIERTA</text><text fill="#000000" font-family="sans-serif" font-size="14" lengthAdjust="spacing" textLength="0" x="254" y="336">[ /direcciones/:addr ]</text><text fill="#000000" font-family="sans-serif" font-size="14" lengthAdjust="spacing" textLength="0" x="254" y="346">(extensi&#243;n de CU-07)</text><rect fill="#F1F1F1" height="40" rx="12.5" ry="12.5" style="stroke:#181818;stroke-width:0.5;" width="50" x="827" y="204"/><text fill="#000000" font-family="sans-serif" font-size="14" lengthAdjust="spacing" textLength="0" x="852" y="214">ALERTAS_ABIERTAS</text><text fill="#000000" font-family="sans-serif" font-size="14" lengthAdjust="spacing" textLength="0" x="852" y="224">[ /alertas ]</text><rect fill="#F1F1F1" height="40" rx="12.5" ry="12.5" style="stroke:#181818;stroke-width:0.5;" width="50" x="975" y="321"/><text fill="#000000" font-family="sans-serif" font-size="14" lengthAdjust="spacing" textLength="0" x="1000" y="331">ALERTA_ABIERTA</text><text fill="#000000" font-family="sans-serif" font-size="14" lengthAdjust="spacing" textLength="0" x="1000" y="341">(modal sobre /alertas)</text><g class="start_entity" data-qualified-name=".start." data-source-line="4" id="ent0002"><ellipse cx="803" cy="16" fill="#222222" rx="10" ry="10" style="stroke:#222222;stroke-width:1;"/></g><!--link *start* to SISTEMA_DISPONIBLE--><g class="link" data-entity-1="ent0002" data-entity-2="ent0002" data-link-type="dependency" data-source-line="4" id="lnk3"><path d="M803,26.19 C803,40.4 803,62.02 803,80.74" fill="none" id="*start*-to-SISTEMA_DISPONIBLE" style="stroke:#181818;stroke-width:1;"/><polygon fill="#181818" points="803,86.74,807,77.74,803,81.74,799,77.74,803,86.74" style="stroke:#181818;stroke-width:1;"/></g><!--link SISTEMA_DISPONIBLE to LEADERBOARD_ABIERTO--><g class="link" data-entity-1="ent0002" data-entity-2="ent0003" data-link-type="dependency" data-source-line="16" id="lnk4"><path d="M777.6,111.03 C687.99,121.71 392,157 392,157 C392,157 392,174 392,174 C392,174 397.8824,184.686 405.4324,198.376" fill="none" id="SISTEMA_DISPONIBLE-to-LEADERBOARD_ABIERTO" style="stroke:#181818;stroke-width:1;"/><polygon fill="#181818" points="408.33,203.63,407.4863,193.8173,405.9154,199.2517,400.481,197.6807,408.33,203.63" style="stroke:#181818;stroke-width:1;"/><text fill="#000000" font-family="sans-serif" font-size="13" lengthAdjust="spacing" textLength="197.0439" x="393" y="170.0669">CU-01 consultarLeaderboard()</text></g><!--link LEADERBOARD_ABIERTO to SISTEMA_DISPONIBLE--><g class="link" data-entity-1="ent0003" data-entity-2="ent0002" data-link-type="dependency" data-source-line="21" id="lnk7"><path d="M444.22,215.98 C492.88,202.43 595,174 595,174 C595,174 631,157 631,157 C631,157 724.0096,130.504 771.8496,116.874" fill="none" id="LEADERBOARD_ABIERTO-to-SISTEMA_DISPONIBLE" style="stroke:#181818;stroke-width:1;"/><polygon fill="#181818" points="777.62,115.23,767.8684,113.8491,772.8114,116.6,770.0605,121.543,777.62,115.23" style="stroke:#181818;stroke-width:1;"/><text fill="#000000" font-family="sans-serif" font-size="13" lengthAdjust="spacing" textLength="115.3052" x="632" y="170.0669">volverAlSistema()</text></g><!--link SISTEMA_DISPONIBLE to ENTIDADES_ABIERTAS--><g class="link" data-entity-1="ent0002" data-entity-2="ent0004" data-link-type="dependency" data-source-line="17" id="lnk5"><path d="M798.15,127.25 C789.89,159.99 774,223 774,223 C774,223 774,223 774,459 C774,459 730,525 730,525 C730,525 674.0834,547.2681 638.0634,561.6281" fill="none" id="SISTEMA_DISPONIBLE-to-ENTIDADES_ABIERTAS" style="stroke:#181818;stroke-width:1;"/><polygon fill="#181818" points="632.49,563.85,642.3314,564.2327,637.1345,561.9984,639.3688,556.8015,632.49,563.85" style="stroke:#181818;stroke-width:1;"/><text fill="#000000" font-family="sans-serif" font-size="13" lengthAdjust="spacing" textLength="149.0239" x="775" y="345.5669">CU-03 abrirEntidades()</text></g><!--link ENTIDADES_ABIERTAS to SISTEMA_DISPONIBLE--><g class="link" data-entity-1="ent0004" data-entity-2="ent0002" data-link-type="dependency" data-source-line="22" id="lnk8"><path d="M632.33,570.68 C776.29,551.83 1485,459 1485,459 C1485,223 1485,223 1485,223 C1485,223 1449,204 1449,204 C1449,204 953.6948,130.392 834.2548,112.642" fill="none" id="ENTIDADES_ABIERTAS-to-SISTEMA_DISPONIBLE" style="stroke:#181818;stroke-width:1;"/><polygon fill="#181818" points="828.32,111.76,836.6343,117.0395,833.2657,112.495,837.8102,109.1264,828.32,111.76" style="stroke:#181818;stroke-width:1;"/><text fill="#000000" font-family="sans-serif" font-size="13" lengthAdjust="spacing" textLength="115.3052" x="1486" y="345.5669">volverAlSistema()</text></g><!--link SISTEMA_DISPONIBLE to ALERTAS_ABIERTAS--><g class="link" data-entity-1="ent0002" data-entity-2="ent0008" data-link-type="dependency" data-source-line="18" id="lnk6"><path d="M810.66,127.45 C818.33,146.91 829,174 829,174 C829,174 833.9292,184.5092 840.3592,198.1992" fill="none" id="SISTEMA_DISPONIBLE-to-ALERTAS_ABIERTAS" style="stroke:#181818;stroke-width:1;"/><polygon fill="#181818" points="842.91,203.63,842.7044,193.7833,840.7844,199.1043,835.4633,197.1843,842.91,203.63" style="stroke:#181818;stroke-width:1;"/><text fill="#000000" font-family="sans-serif" font-size="13" lengthAdjust="spacing" textLength="130.3047" x="830" y="170.0669">CU-10 abrirAlertas()</text></g><!--link ALERTAS_ABIERTAS to SISTEMA_DISPONIBLE--><g class="link" data-entity-1="ent0008" data-entity-2="ent0002" data-link-type="dependency" data-source-line="23" id="lnk9"><path d="M877.36,212 C910.68,197.56 965,174 965,174 C965,174 965,157 965,157 C965,157 879.6131,131.177 834.0531,117.397" fill="none" id="ALERTAS_ABIERTAS-to-SISTEMA_DISPONIBLE" style="stroke:#181818;stroke-width:1;"/><polygon fill="#181818" points="828.31,115.66,835.7666,122.0943,833.0959,117.1075,838.0826,114.4368,828.31,115.66" style="stroke:#181818;stroke-width:1;"/><text fill="#000000" font-family="sans-serif" font-size="13" lengthAdjust="spacing" textLength="115.3052" x="966" y="170.0669">volverAlSistema()</text></g><!--link LEADERBOARD_ABIERTO to LEADERBOARD_ABIERTO--><g class="link" data-entity-1="ent0003" data-entity-2="ent0003" data-link-type="dependency" data-source-line="26" id="lnk10"><path d="M444.28,214.1 C461.77,211.1 479,214.4 479,224 C479,233.6 467.6836,237.9143 450.1936,234.9143" fill="none" id="LEADERBOARD_ABIERTO-to-LEADERBOARD_ABIERTO" style="stroke:#181818;stroke-width:1;"/><polygon fill="#181818" points="444.28,233.9,452.4742,239.3639,449.208,234.7453,453.8267,231.4791,444.28,233.9" style="stroke:#181818;stroke-width:1;"/><text fill="#000000" font-family="sans-serif" font-size="13" lengthAdjust="spacing" textLength="178.7246" x="485" y="228.5669">CU-01 reseleccionarTerna()</text></g><!--link ENTIDADES_ABIERTAS to ENTIDAD_ABIERTA--><g class="link" data-entity-1="ent0004" data-entity-2="ent0005" data-link-type="dependency" data-source-line="29" id="lnk11"><path d="M581.69,567.19 C531.69,553.72 425,525 425,525 C425,525 389,508 389,508 C389,508 330.9125,485.4035 294.0925,471.0935" fill="none" id="ENTIDADES_ABIERTAS-to-ENTIDAD_ABIERTA" style="stroke:#181818;stroke-width:1;"/><polygon fill="#181818" points="288.5,468.92,295.4397,475.9086,293.1604,470.7313,298.3377,468.4519,288.5,468.92" style="stroke:#181818;stroke-width:1;"/><text fill="#000000" font-family="sans-serif" font-size="13" lengthAdjust="spacing" textLength="137.5347" x="426" y="521.0669">CU-02 crearEntidad()</text></g><!--link ENTIDADES_ABIERTAS to ENTIDAD_ABIERTA--><g class="link" data-entity-1="ent0004" data-entity-2="ent0005" data-link-type="dependency" data-source-line="30" id="lnk12"><path d="M595.51,554.55 C584.01,535.09 568,508 568,508 C568,508 367.704,475.822 294.404,464.042" fill="none" id="ENTIDADES_ABIERTAS-to-ENTIDAD_ABIERTA-1" style="stroke:#181818;stroke-width:1;"/><polygon fill="#181818" points="288.48,463.09,296.7313,468.4674,293.4167,463.8834,298.0007,460.5687,288.48,463.09" style="stroke:#181818;stroke-width:1;"/><text fill="#000000" font-family="sans-serif" font-size="13" lengthAdjust="spacing" textLength="142.0034" x="579" y="521.0669">CU-04 editarEntidad()</text></g><!--link ENTIDAD_ABIERTA to ENTIDADES_ABIERTAS--><g class="link" data-entity-1="ent0005" data-entity-2="ent0004" data-link-type="dependency" data-source-line="33" id="lnk14"><path d="M260.23,478.37 C258.28,492.06 256,508 256,508 C256,508 256,525 256,525 C256,525 495.3377,558.4101 575.8177,569.6501" fill="none" id="ENTIDAD_ABIERTA-to-ENTIDADES_ABIERTAS" style="stroke:#181818;stroke-width:1;"/><polygon fill="#181818" points="581.76,570.48,573.3998,565.2736,576.8081,569.7884,572.2932,573.1967,581.76,570.48" style="stroke:#181818;stroke-width:1;"/><text fill="#000000" font-family="sans-serif" font-size="13" lengthAdjust="spacing" textLength="123.7349" x="257" y="521.0669">volverAEntidades()</text></g><!--link ENTIDADES_ABIERTAS to ENTIDADES_ABIERTAS--><g class="link" data-entity-1="ent0004" data-entity-2="ent0004" data-link-type="dependency" data-source-line="31" id="lnk13"><path d="M632.28,565.1 C649.77,562.1 667,565.4 667,575 C667,584.6 655.6836,588.9143 638.1936,585.9143" fill="none" id="ENTIDADES_ABIERTAS-to-ENTIDADES_ABIERTAS" style="stroke:#181818;stroke-width:1;"/><polygon fill="#181818" points="632.28,584.9,640.4742,590.3639,637.208,585.7453,641.8267,582.4791,632.28,584.9" style="stroke:#181818;stroke-width:1;"/><text fill="#000000" font-family="sans-serif" font-size="13" lengthAdjust="spacing" textLength="156.7808" x="673" y="579.5669">CU-05 eliminarEntidad()</text></g><!--link ENTIDAD_ABIERTA to ENTIDAD_ABIERTA--><g class="link" data-entity-1="ent0005" data-entity-2="ent0005" data-link-type="dependency" data-source-line="34" id="lnk15"><path d="M288.28,448.1 C305.77,445.1 323,448.4 323,458 C323,467.6 311.6836,471.9143 294.1936,468.9143" fill="none" id="ENTIDAD_ABIERTA-to-ENTIDAD_ABIERTA" style="stroke:#181818;stroke-width:1;"/><polygon fill="#181818" points="288.28,467.9,296.4742,473.3639,293.208,468.7453,297.8267,465.4791,288.28,467.9" style="stroke:#181818;stroke-width:1;"/><text fill="#000000" font-family="sans-serif" font-size="13" lengthAdjust="spacing" textLength="142.0034" x="329" y="462.5669">CU-04 editarEntidad()</text></g><!--link ENTIDAD_ABIERTA to DIRECCIONES_ABIERTAS--><g class="link" data-entity-1="ent0005" data-entity-2="ent0006" data-link-type="dependency" data-source-line="35" id="lnk16"><path d="M237.86,465.01 C183.12,478.09 58,508 58,508 C58,508 49.5301,529.5079 41.8601,548.9679" fill="none" id="ENTIDAD_ABIERTA-to-DIRECCIONES_ABIERTAS" style="stroke:#181818;stroke-width:1;"/><polygon fill="#181818" points="39.66,554.55,46.6816,547.6437,41.4934,549.8983,39.2388,544.7102,39.66,554.55" style="stroke:#181818;stroke-width:1;"/><text fill="#000000" font-family="sans-serif" font-size="13" lengthAdjust="spacing" textLength="160.4561" x="59" y="521.0669">CU-07 abrirDirecciones()</text></g><!--link DIRECCIONES_ABIERTAS to DIRECCIONES_ABIERTAS--><g class="link" data-entity-1="ent0006" data-entity-2="ent0006" data-link-type="dependency" data-source-line="37" id="lnk17"><path d="M57.28,570.05 C74.77,568.55 92,570.2 92,575 C92,579.8 80.7481,581.9627 63.2581,580.4627" fill="none" id="DIRECCIONES_ABIERTAS-to-DIRECCIONES_ABIERTAS" style="stroke:#181818;stroke-width:1;"/><polygon fill="#181818" points="57.28,579.95,65.9053,584.7044,62.2617,580.3772,66.5889,576.7337,57.28,579.95" style="stroke:#181818;stroke-width:1;"/><text fill="#000000" font-family="sans-serif" font-size="13" lengthAdjust="spacing" textLength="156.5459" x="98" y="579.5669">CU-06 anadirDireccion()</text></g><!--link DIRECCIONES_ABIERTAS to DIRECCIONES_ABIERTAS--><g class="link" data-entity-1="ent0006" data-entity-2="ent0006" data-link-type="dependency" data-source-line="38" id="lnk18"><path d="M57.09,569.27 C119.58,560.72 260,562.63 260,575 C260,587.37 125.5246,590.0934 63.0346,581.5434" fill="none" id="DIRECCIONES_ABIERTAS-to-DIRECCIONES_ABIERTAS-1" style="stroke:#181818;stroke-width:1;"/><polygon fill="#181818" points="57.09,580.73,65.4647,585.9131,62.0438,581.4078,66.5492,577.987,57.09,580.73" style="stroke:#181818;stroke-width:1;"/><text fill="#000000" font-family="sans-serif" font-size="13" lengthAdjust="spacing" textLength="168.2129" x="266" y="579.5669">CU-08 eliminarDireccion()</text></g><!--link LEADERBOARD_ABIERTO to DIRECCION_DETALLE_ABIERTA--><g class="link" data-entity-1="ent0003" data-entity-2="ent0007" data-link-type="dependency" data-source-line="41" id="lnk19"><path d="M393.77,232.23 C346.2,245.86 248,274 248,274 C248,274 248,291 248,291 C248,291 249.2192,300.9847 250.8992,314.6747" fill="none" id="LEADERBOARD_ABIERTO-to-DIRECCION_DETALLE_ABIERTA" style="stroke:#181818;stroke-width:1;"/><polygon fill="#181818" points="251.63,320.63,254.504,311.2098,251.021,315.6672,246.5636,312.1842,251.63,320.63" style="stroke:#181818;stroke-width:1;"/><text fill="#000000" font-family="sans-serif" font-size="13" lengthAdjust="spacing" textLength="138.5376" x="249" y="287.0669">verDetalleDireccion()</text></g><!--link DIRECCION_DETALLE_ABIERTA to LEADERBOARD_ABIERTO--><g class="link" data-entity-1="ent0007" data-entity-2="ent0003" data-link-type="dependency" data-source-line="43" id="lnk21"><path d="M279.31,331.01 C319.15,316.87 392,291 392,291 C392,291 400.806,269.4624 408.776,250.0024" fill="none" id="DIRECCION_DETALLE_ABIERTA-to-LEADERBOARD_ABIERTO" style="stroke:#181818;stroke-width:1;"/><polygon fill="#181818" points="411.05,244.45,403.9374,251.2625,409.155,249.077,411.3406,254.2946,411.05,244.45" style="stroke:#181818;stroke-width:1;"/><text fill="#000000" font-family="sans-serif" font-size="13" lengthAdjust="spacing" textLength="145.5137" x="400" y="287.0669">volverAlLeaderboard()</text></g><!--link DIRECCIONES_ABIERTAS to DIRECCION_DETALLE_ABIERTA--><g class="link" data-entity-1="ent0006" data-entity-2="ent0007" data-link-type="dependency" data-source-line="42" id="lnk20"><path d="M35.54,554.55 C39.08,535.09 44,508 44,508 C44,508 81,438 81,438 C81,438 175.6134,385.4909 223.5934,358.8709" fill="none" id="DIRECCIONES_ABIERTAS-to-DIRECCION_DETALLE_ABIERTA" style="stroke:#181818;stroke-width:1;"/><polygon fill="#181818" points="228.84,355.96,219.0295,356.8286,224.4678,358.3857,222.9107,363.8241,228.84,355.96" style="stroke:#181818;stroke-width:1;"/><text fill="#000000" font-family="sans-serif" font-size="13" lengthAdjust="spacing" textLength="138.5376" x="82" y="462.5669">verDetalleDireccion()</text></g><!--link DIRECCION_DETALLE_ABIERTA to ENTIDAD_ABIERTA--><g class="link" data-entity-1="ent0007" data-entity-2="ent0005" data-link-type="dependency" data-source-line="44" id="lnk22"><path d="M255.51,361.25 C257.17,382.48 259.3627,410.4582 261.0227,431.7082" fill="none" id="DIRECCION_DETALLE_ABIERTA-to-ENTIDAD_ABIERTA" style="stroke:#181818;stroke-width:1;"/><polygon fill="#181818" points="261.49,437.69,264.7769,428.4058,261.1006,432.7052,256.8012,429.0289,261.49,437.69" style="stroke:#181818;stroke-width:1;"/><text fill="#000000" font-family="sans-serif" font-size="13" lengthAdjust="spacing" textLength="108.9639" x="261" y="404.0669">volverAEntidad()</text></g><!--link ALERTAS_ABIERTAS to ALERTA_ABIERTA--><g class="link" data-entity-1="ent0008" data-entity-2="ent0009" data-link-type="dependency" data-source-line="47" id="lnk23"><path d="M842.91,244.37 C836.48,258.06 829,274 829,274 C829,274 829,291 829,291 C829,291 921.4321,317.4873 969.0021,331.1173" fill="none" id="ALERTAS_ABIERTAS-to-ALERTA_ABIERTA" style="stroke:#181818;stroke-width:1;"/><polygon fill="#181818" points="974.77,332.77,967.2199,326.4458,969.9634,331.3928,965.0164,334.1363,974.77,332.77" style="stroke:#181818;stroke-width:1;"/><text fill="#000000" font-family="sans-serif" font-size="13" lengthAdjust="spacing" textLength="126.8135" x="830" y="287.0669">CU-09 crearAlerta()</text></g><!--link ALERTAS_ABIERTAS to ALERTA_ABIERTA--><g class="link" data-entity-1="ent0008" data-entity-2="ent0009" data-link-type="dependency" data-source-line="48" id="lnk24"><path d="M877.28,236.36 C909.48,250.84 961,274 961,274 C961,274 973.9574,295.9245 985.4574,315.3845" fill="none" id="ALERTAS_ABIERTAS-to-ALERTA_ABIERTA-1" style="stroke:#181818;stroke-width:1;"/><polygon fill="#181818" points="988.51,320.55,987.3748,310.7668,985.9662,316.2455,980.4875,314.8369,988.51,320.55" style="stroke:#181818;stroke-width:1;"/><text fill="#000000" font-family="sans-serif" font-size="13" lengthAdjust="spacing" textLength="131.2822" x="972" y="287.0669">CU-11 editarAlerta()</text></g><!--link ALERTA_ABIERTA to ALERTAS_ABIERTAS--><g class="link" data-entity-1="ent0009" data-entity-2="ent0008" data-link-type="dependency" data-source-line="51" id="lnk26"><path d="M1025.41,328.88 C1058.46,314.42 1112,291 1112,291 C1112,291 1112,274 1112,274 C1112,274 948.7262,243.2311 883.2962,230.9011" fill="none" id="ALERTA_ABIERTA-to-ALERTAS_ABIERTAS" style="stroke:#181818;stroke-width:1;"/><polygon fill="#181818" points="877.4,229.79,885.5036,235.3875,882.3135,230.7159,886.9851,227.5259,877.4,229.79" style="stroke:#181818;stroke-width:1;"/><text fill="#000000" font-family="sans-serif" font-size="13" lengthAdjust="spacing" textLength="146.3452" x="1113" y="287.0669">completarFormulario()</text></g><!--link ALERTAS_ABIERTAS to ALERTAS_ABIERTAS--><g class="link" data-entity-1="ent0008" data-entity-2="ent0008" data-link-type="dependency" data-source-line="49" id="lnk25"><path d="M877.28,220.7 C894.77,219.7 912,220.8 912,224 C912,227.2 900.7602,228.6425 883.2702,227.6425" fill="none" id="ALERTAS_ABIERTAS-to-ALERTAS_ABIERTAS" style="stroke:#181818;stroke-width:1;"/><polygon fill="#181818" points="877.28,227.3,886.037,231.8072,882.2718,227.5854,886.4937,223.8203,877.28,227.3" style="stroke:#181818;stroke-width:1;"/><text fill="#000000" font-family="sans-serif" font-size="13" lengthAdjust="spacing" textLength="146.0596" x="918" y="228.5669">CU-12 eliminarAlerta()</text></g><!--link ALERTAS_ABIERTAS to ALERTAS_ABIERTAS--><g class="link" data-entity-1="ent0008" data-entity-2="ent0008" data-link-type="dependency" data-source-line="54" id="lnk27"><path d="M877.29,220.1 C937.96,214.49 1070,215.79 1070,224 C1070,232.21 943.9345,234.0624 883.2645,228.4524" fill="none" id="ALERTAS_ABIERTAS-to-ALERTAS_ABIERTAS-1" style="stroke:#181818;stroke-width:1;"/><polygon fill="#181818" points="877.29,227.9,885.8835,232.7117,882.2688,228.3604,886.6201,224.7457,877.29,227.9" style="stroke:#181818;stroke-width:1;"/><text fill="#000000" font-family="sans-serif" font-size="13" lengthAdjust="spacing" textLength="148.605" x="1076" y="228.5669">CU-13 evaluarAlertas()</text></g><!--link ALERTAS_ABIERTAS to ALERTAS_ABIERTAS--><g class="link" data-entity-1="ent0008" data-entity-2="ent0008" data-link-type="dependency" data-source-line="55" id="lnk28"><path d="M877.33,219.56 C967.44,209.57 1230,211.05 1230,224 C1230,236.95 973.4035,239.0911 883.2935,229.1011" fill="none" id="ALERTAS_ABIERTAS-to-ALERTAS_ABIERTAS-2" style="stroke:#181818;stroke-width:1;"/><polygon fill="#181818" points="877.33,228.44,885.8344,233.4073,882.2996,228.9909,886.716,225.4561,877.33,228.44" style="stroke:#181818;stroke-width:1;"/><text fill="#000000" font-family="sans-serif" font-size="13" lengthAdjust="spacing" textLength="171.5962" x="1236" y="228.5669">CU-14 enviarNotificacion()</text></g><?plantuml-src dPPTRjD04CVVVOeHBoH8KPiMAFW1oKsCi1GIb8IdKbLZUqjNh7UjzJgY5-00tA1du0Yz2ITXRQyJVspIXZV7k_ERh_-Ca_sWF4M92J3AYRfF2QI2tHS_d3iQ4o19gkuX9baaQQgeu8vpzUeQHgCFi0fMQ_-pTpCDLbyMy-1ovZjEfb0Hsqbry6BcUrD_URdmbjCRxpBmb-l5Dtu59unWJ6GeKCPm_G8m0ylD6kBFry5KdwxCWRSg6OGh6cjCPWZzQnr0_RvjVUBIk4sexzNcqs3fJoR1OjwAO93buIWIN96VIW3X7UIm9DfCUzYRgR_sPZE_5LzC9OaYtO02Xt4iuLhxrBu8p-ZZ7wvx19ElezEBZgCkhFRcpKhdxH8Y8r9XNS3kbRRfBhf18c9aa8bGaYrZs41iVJiljN96y2aFNOj82fcb6DqX831jhAJkvUE39FhvDkT5yXgU5GZ7Obreqg8QSCkwZ47t9ikPGZdRYMqmt4VggmSCwHmmb5JwTNVtCxe5132CyMd5yAfQQOAfp0H34X69y9s949aBaYWXkG1TtxiyB5EtvMYVH-ri8zY6Q3yhcYcIeFPaI-m8SrjEHvYRF9UO88nTQBJYO6w7-gfLGbWr6oZNHFAkdpCNjis2lxz-mvGeP8nKpxkvAYEmbASXX_ebmBQNfsSGQOdMUh1N-0d4Qo0nLSzdj9fd66-0C9fGtgGu5fy7CAPTJMKV1XoLIvTXsuM6SL6DHwCtHJ9MWoT8Rm4vnWsK1lqFvzsskasIKPc_sy9bzAxUP9N2gZ4kTdFE4SmEB-uDb4IUwMfdo8PxfT-EghlAYuuHQSHyN8B7eteM-yQoCVRjHNiOjKTHRKbs1llS1RD1omhsLjDk1pUnLKFVLrDRsTlssW7ZyTXe_3dMlG_8-6ohfQszq_Eq3n2996MwJ_AZa4dEK5BH4E86MOwLmZ1N8dbyK3H2epPgrXpL_r7qbiowN-odYjZFv1n8wR7n8JlANkyAlg4evqBHMnre9Rf_?></g></svg>